G04 #@! TF.GenerationSoftware,KiCad,Pcbnew,7.0.4-40-g0180cb380f*
G04 #@! TF.CreationDate,2023-07-05T14:48:10-07:00*
G04 #@! TF.ProjectId,IotKnob,496f744b-6e6f-4622-9e6b-696361645f70,rev?*
G04 #@! TF.SameCoordinates,Original*
G04 #@! TF.FileFunction,Profile,NP*
%FSLAX46Y46*%
G04 Gerber Fmt 4.6, Leading zero omitted, Abs format (unit mm)*
G04 Created by KiCad (PCBNEW 7.0.4-40-g0180cb380f) date 2023-07-05 14:48:10*
%MOMM*%
%LPD*%
G01*
G04 APERTURE LIST*
G04 #@! TA.AperFunction,Profile*
%ADD10C,0.050000*%
G04 #@! TD*
G04 #@! TA.AperFunction,Profile*
%ADD11C,0.038100*%
G04 #@! TD*
G04 #@! TA.AperFunction,Profile*
%ADD12C,0.120000*%
G04 #@! TD*
G04 APERTURE END LIST*
D10*
X92500000Y-57000000D02*
X124500000Y-57000000D01*
X130000000Y-56000000D02*
X135000000Y-56000000D01*
X93000000Y-56000000D02*
X124000000Y-56000000D01*
X87500000Y-63500000D02*
X87500000Y-57000000D01*
X129500000Y-57000000D02*
X129500000Y-60000000D01*
X124000000Y-24000000D02*
X93000000Y-24000000D01*
X135000000Y-24000000D02*
X130000000Y-24000000D01*
X140000000Y1000000D02*
X140000000Y-19000000D01*
X115000000Y-26000000D02*
X93000000Y-26000000D01*
X133000000Y-32000000D02*
X130000000Y-32000000D01*
X124500000Y-31000000D02*
X124500000Y-25000000D01*
X129500000Y-31000000D02*
X129500000Y-25000000D01*
X89000000Y-65000000D02*
X87500000Y-63500000D01*
X92500000Y-65000000D02*
X89000000Y-65000000D01*
X102500000Y-65000000D02*
X97500000Y-65000000D01*
X111000000Y-65000000D02*
X107500000Y-65000000D01*
X114000000Y-62000000D02*
X111000000Y-65000000D01*
X127500000Y-62000000D02*
X114000000Y-62000000D01*
X129500000Y-60000000D02*
X127500000Y-62000000D01*
D11*
X67000000Y-16500000D02*
X68000000Y-15500000D01*
X67000000Y-11000000D02*
X60000000Y-11000000D01*
X60000000Y-4500000D02*
X67000000Y-4500000D01*
X134000000Y1000000D02*
X133000000Y0D01*
X135000000Y6000000D02*
X134000000Y5000000D01*
X116000000Y5000000D02*
X115000000Y6000000D01*
X140000000Y1000000D02*
G75*
G03*
X135000000Y6000000I-5000000J0D01*
G01*
X68000000Y-3500000D02*
X68000000Y0D01*
X60000000Y-11000000D02*
X60000000Y-4500000D01*
X68000000Y-12000000D02*
X67000000Y-11000000D01*
X65000000Y6000000D02*
G75*
G03*
X60000000Y1000000I0J-5000000D01*
G01*
X117000000Y0D02*
X116000000Y1000000D01*
X68000000Y0D02*
X67000000Y1000000D01*
X116000000Y1000000D02*
X116000000Y5000000D01*
X135000000Y-24000000D02*
G75*
G03*
X140000000Y-19000000I0J5000000D01*
G01*
X67000000Y-4500000D02*
X68000000Y-3500000D01*
X65000000Y6000000D02*
X115000000Y6000000D01*
X60000000Y-16500000D02*
X67000000Y-16500000D01*
X60000000Y-19000000D02*
G75*
G03*
X65000000Y-24000000I5000000J0D01*
G01*
X87000000Y-24000000D02*
X65000000Y-24000000D01*
X68000000Y-15500000D02*
X68000000Y-12000000D01*
X67000000Y1000000D02*
X60000000Y1000000D01*
X133000000Y0D02*
X117000000Y0D01*
X60000000Y-19000000D02*
X60000000Y-16500000D01*
X134000000Y5000000D02*
X134000000Y1000000D01*
X134000000Y-31000000D02*
X133000000Y-32000000D01*
X134000000Y-27000000D02*
X134000000Y-31000000D01*
X60000000Y-51000000D02*
X60000000Y-31000000D01*
X65000000Y-26000000D02*
G75*
G03*
X60000000Y-31000000I0J-5000000D01*
G01*
X140000000Y-31000000D02*
G75*
G03*
X135000000Y-26000000I-5000000J0D01*
G01*
X116000000Y-27000000D02*
X115000000Y-26000000D01*
X117000000Y-32000000D02*
X116000000Y-31000000D01*
X140000000Y-31000000D02*
X140000000Y-51000000D01*
X135000000Y-26000000D02*
X134000000Y-27000000D01*
X65000000Y-26000000D02*
X87000000Y-26000000D01*
X124000000Y-32000000D02*
X117000000Y-32000000D01*
X60000000Y-51000000D02*
G75*
G03*
X65000000Y-56000000I5000000J0D01*
G01*
X116000000Y-31000000D02*
X116000000Y-27000000D01*
X135000000Y-56000000D02*
G75*
G03*
X140000000Y-51000000I0J5000000D01*
G01*
X87000000Y-56000000D02*
X65000000Y-56000000D01*
X88000000Y-67000000D02*
X91000000Y-67000000D01*
X85000000Y-64000000D02*
X88000000Y-67000000D01*
X98000000Y-66000000D02*
X102000000Y-66000000D01*
X82550000Y-64000002D02*
G75*
G03*
X117450000Y-64000002I17450000J-35999998D01*
G01*
X117450000Y-64000000D02*
X115000000Y-64000000D01*
X108000000Y-66000000D02*
X109000000Y-67000000D01*
X112000000Y-67000000D02*
X109000000Y-67000000D01*
X91000000Y-67000000D02*
X92000000Y-66000000D01*
X82550000Y-64000000D02*
X85000000Y-64000000D01*
X115000000Y-64000000D02*
X112000000Y-67000000D01*
D12*
X124000000Y-56000000D02*
X124500000Y-56000000D01*
X124500000Y-57000000D02*
X124500000Y-56000000D01*
X129500000Y-56000000D02*
X129500000Y-57000000D01*
X129500000Y-56000000D02*
X130000000Y-56000000D01*
X92500000Y-56000000D02*
X93000000Y-56000000D01*
X92500000Y-56000000D02*
X92500000Y-57000000D01*
X87500000Y-57000000D02*
X87500000Y-56000000D01*
X87000000Y-56000000D02*
X87500000Y-56000000D01*
X124000000Y-24000000D02*
X124500000Y-24000000D01*
X124500000Y-25000000D02*
X124500000Y-24000000D01*
X129500000Y-24000000D02*
X129500000Y-25000000D01*
X129500000Y-24000000D02*
X130000000Y-24000000D01*
X130000000Y-32000000D02*
X129500000Y-32000000D01*
X129500000Y-31000000D02*
X129500000Y-32000000D01*
X124500000Y-32000000D02*
X124500000Y-31000000D01*
X124500000Y-32000000D02*
X124000000Y-32000000D01*
X87000000Y-24000000D02*
X87500000Y-24000000D01*
X87500000Y-25000000D02*
X87500000Y-24000000D01*
X92500000Y-24000000D02*
X92500000Y-25000000D01*
X92500000Y-24000000D02*
X93000000Y-24000000D01*
X93000000Y-26000000D02*
X92500000Y-26000000D01*
X92500000Y-25000000D02*
X92500000Y-26000000D01*
X87500000Y-26000000D02*
X87500000Y-25000000D01*
X87500000Y-26000000D02*
X87000000Y-26000000D01*
X108000000Y-66000000D02*
X107500000Y-66000000D01*
X107500000Y-65000000D02*
X107500000Y-66000000D01*
X102500000Y-66000000D02*
X102500000Y-65000000D01*
X102500000Y-66000000D02*
X102000000Y-66000000D01*
X92500000Y-66000000D02*
X92500000Y-65000000D01*
X97500000Y-65000000D02*
X97500000Y-66000000D01*
X98000000Y-66000000D02*
X97500000Y-66000000D01*
X92500000Y-66000000D02*
X92000000Y-66000000D01*
D10*
X98800000Y-10500000D02*
X101200000Y-10500000D01*
X98200000Y-9500000D02*
X98500000Y-9500000D01*
X98500000Y-9500000D02*
X98500000Y-10200000D01*
X101500000Y-9500000D02*
X101500000Y-10200000D01*
X101800000Y-9500000D02*
X101500000Y-9500000D01*
X98200000Y-8500000D02*
X98500000Y-8500000D01*
X98500000Y-8500000D02*
X98500000Y-7800000D01*
X101500000Y-8500000D02*
X101800000Y-8500000D01*
X101500000Y-7800000D02*
X101500000Y-8500000D01*
X98800000Y-7500000D02*
X101200000Y-7500000D01*
X98500000Y-10200000D02*
G75*
G03*
X98800000Y-10500000I300000J0D01*
G01*
X101200000Y-10500000D02*
G75*
G03*
X101500000Y-10200000I0J300000D01*
G01*
X98200000Y-8500000D02*
G75*
G03*
X98200000Y-9500000I0J-500000D01*
G01*
X101800000Y-9500000D02*
G75*
G03*
X101800000Y-8500000I0J500000D01*
G01*
X98800000Y-7500000D02*
G75*
G03*
X98500000Y-7800000I0J-300000D01*
G01*
X101500000Y-7800000D02*
G75*
G03*
X101200000Y-7500000I-300000J0D01*
G01*
M02*
