G04 #@! TF.GenerationSoftware,KiCad,Pcbnew,7.0.4-40-g0180cb380f*
G04 #@! TF.CreationDate,2023-07-05T14:48:10-07:00*
G04 #@! TF.ProjectId,IotKnob,496f744b-6e6f-4622-9e6b-696361645f70,rev?*
G04 #@! TF.SameCoordinates,Original*
G04 #@! TF.FileFunction,Legend,Bot*
G04 #@! TF.FilePolarity,Positive*
%FSLAX46Y46*%
G04 Gerber Fmt 4.6, Leading zero omitted, Abs format (unit mm)*
G04 Created by KiCad (PCBNEW 7.0.4-40-g0180cb380f) date 2023-07-05 14:48:10*
%MOMM*%
%LPD*%
G01*
G04 APERTURE LIST*
%ADD10C,0.150000*%
%ADD11C,0.100000*%
%ADD12C,0.120000*%
G04 APERTURE END LIST*
D10*
X109126009Y-5495237D02*
X109126009Y-5761903D01*
X109649819Y-5876189D02*
X109649819Y-5495237D01*
X109649819Y-5495237D02*
X108649819Y-5495237D01*
X108649819Y-5495237D02*
X108649819Y-5876189D01*
X109649819Y-6219047D02*
X108649819Y-6219047D01*
X108649819Y-6219047D02*
X108649819Y-6409523D01*
X108649819Y-6409523D02*
X108697438Y-6523809D01*
X108697438Y-6523809D02*
X108792676Y-6599999D01*
X108792676Y-6599999D02*
X108887914Y-6638094D01*
X108887914Y-6638094D02*
X109078390Y-6676190D01*
X109078390Y-6676190D02*
X109221247Y-6676190D01*
X109221247Y-6676190D02*
X109411723Y-6638094D01*
X109411723Y-6638094D02*
X109506961Y-6599999D01*
X109506961Y-6599999D02*
X109602200Y-6523809D01*
X109602200Y-6523809D02*
X109649819Y-6409523D01*
X109649819Y-6409523D02*
X109649819Y-6219047D01*
X108697438Y-7438094D02*
X108649819Y-7361904D01*
X108649819Y-7361904D02*
X108649819Y-7247618D01*
X108649819Y-7247618D02*
X108697438Y-7133332D01*
X108697438Y-7133332D02*
X108792676Y-7057142D01*
X108792676Y-7057142D02*
X108887914Y-7019047D01*
X108887914Y-7019047D02*
X109078390Y-6980951D01*
X109078390Y-6980951D02*
X109221247Y-6980951D01*
X109221247Y-6980951D02*
X109411723Y-7019047D01*
X109411723Y-7019047D02*
X109506961Y-7057142D01*
X109506961Y-7057142D02*
X109602200Y-7133332D01*
X109602200Y-7133332D02*
X109649819Y-7247618D01*
X109649819Y-7247618D02*
X109649819Y-7323809D01*
X109649819Y-7323809D02*
X109602200Y-7438094D01*
X109602200Y-7438094D02*
X109554580Y-7476190D01*
X109554580Y-7476190D02*
X109221247Y-7476190D01*
X109221247Y-7476190D02*
X109221247Y-7323809D01*
X109649819Y-8428571D02*
X108649819Y-8428571D01*
X109649819Y-8923808D02*
X109602200Y-8847618D01*
X109602200Y-8847618D02*
X109554580Y-8809523D01*
X109554580Y-8809523D02*
X109459342Y-8771427D01*
X109459342Y-8771427D02*
X109173628Y-8771427D01*
X109173628Y-8771427D02*
X109078390Y-8809523D01*
X109078390Y-8809523D02*
X109030771Y-8847618D01*
X109030771Y-8847618D02*
X108983152Y-8923808D01*
X108983152Y-8923808D02*
X108983152Y-9038094D01*
X108983152Y-9038094D02*
X109030771Y-9114285D01*
X109030771Y-9114285D02*
X109078390Y-9152380D01*
X109078390Y-9152380D02*
X109173628Y-9190475D01*
X109173628Y-9190475D02*
X109459342Y-9190475D01*
X109459342Y-9190475D02*
X109554580Y-9152380D01*
X109554580Y-9152380D02*
X109602200Y-9114285D01*
X109602200Y-9114285D02*
X109649819Y-9038094D01*
X109649819Y-9038094D02*
X109649819Y-8923808D01*
X108649819Y-9419047D02*
X108649819Y-9876190D01*
X109649819Y-9647618D02*
X108649819Y-9647618D01*
X109126009Y-11019047D02*
X109126009Y-10752381D01*
X109649819Y-10752381D02*
X108649819Y-10752381D01*
X108649819Y-10752381D02*
X108649819Y-11133333D01*
X109649819Y-11780952D02*
X109126009Y-11780952D01*
X109126009Y-11780952D02*
X109030771Y-11742857D01*
X109030771Y-11742857D02*
X108983152Y-11666666D01*
X108983152Y-11666666D02*
X108983152Y-11514285D01*
X108983152Y-11514285D02*
X109030771Y-11438095D01*
X109602200Y-11780952D02*
X109649819Y-11704761D01*
X109649819Y-11704761D02*
X109649819Y-11514285D01*
X109649819Y-11514285D02*
X109602200Y-11438095D01*
X109602200Y-11438095D02*
X109506961Y-11399999D01*
X109506961Y-11399999D02*
X109411723Y-11399999D01*
X109411723Y-11399999D02*
X109316485Y-11438095D01*
X109316485Y-11438095D02*
X109268866Y-11514285D01*
X109268866Y-11514285D02*
X109268866Y-11704761D01*
X109268866Y-11704761D02*
X109221247Y-11780952D01*
X108983152Y-12161905D02*
X109649819Y-12161905D01*
X109078390Y-12161905D02*
X109030771Y-12200000D01*
X109030771Y-12200000D02*
X108983152Y-12276190D01*
X108983152Y-12276190D02*
X108983152Y-12390476D01*
X108983152Y-12390476D02*
X109030771Y-12466667D01*
X109030771Y-12466667D02*
X109126009Y-12504762D01*
X109126009Y-12504762D02*
X109649819Y-12504762D01*
X110259819Y-7476189D02*
X110974104Y-7476189D01*
X110974104Y-7476189D02*
X111116961Y-7438094D01*
X111116961Y-7438094D02*
X111212200Y-7361903D01*
X111212200Y-7361903D02*
X111259819Y-7247618D01*
X111259819Y-7247618D02*
X111259819Y-7171427D01*
X110593152Y-8199999D02*
X111259819Y-8199999D01*
X110593152Y-7857142D02*
X111116961Y-7857142D01*
X111116961Y-7857142D02*
X111212200Y-7895237D01*
X111212200Y-7895237D02*
X111259819Y-7971427D01*
X111259819Y-7971427D02*
X111259819Y-8085713D01*
X111259819Y-8085713D02*
X111212200Y-8161904D01*
X111212200Y-8161904D02*
X111164580Y-8199999D01*
X111259819Y-8695237D02*
X111212200Y-8619047D01*
X111212200Y-8619047D02*
X111116961Y-8580952D01*
X111116961Y-8580952D02*
X110259819Y-8580952D01*
X110355057Y-9571428D02*
X110307438Y-9609524D01*
X110307438Y-9609524D02*
X110259819Y-9685714D01*
X110259819Y-9685714D02*
X110259819Y-9876190D01*
X110259819Y-9876190D02*
X110307438Y-9952381D01*
X110307438Y-9952381D02*
X110355057Y-9990476D01*
X110355057Y-9990476D02*
X110450295Y-10028571D01*
X110450295Y-10028571D02*
X110545533Y-10028571D01*
X110545533Y-10028571D02*
X110688390Y-9990476D01*
X110688390Y-9990476D02*
X111259819Y-9533333D01*
X111259819Y-9533333D02*
X111259819Y-10028571D01*
X110259819Y-10295238D02*
X110259819Y-10790476D01*
X110259819Y-10790476D02*
X110640771Y-10523810D01*
X110640771Y-10523810D02*
X110640771Y-10638095D01*
X110640771Y-10638095D02*
X110688390Y-10714286D01*
X110688390Y-10714286D02*
X110736009Y-10752381D01*
X110736009Y-10752381D02*
X110831247Y-10790476D01*
X110831247Y-10790476D02*
X111069342Y-10790476D01*
X111069342Y-10790476D02*
X111164580Y-10752381D01*
X111164580Y-10752381D02*
X111212200Y-10714286D01*
X111212200Y-10714286D02*
X111259819Y-10638095D01*
X111259819Y-10638095D02*
X111259819Y-10409524D01*
X111259819Y-10409524D02*
X111212200Y-10333333D01*
X111212200Y-10333333D02*
X111164580Y-10295238D01*
X112869819Y-8257143D02*
X112203152Y-8257143D01*
X112393628Y-8257143D02*
X112298390Y-8295238D01*
X112298390Y-8295238D02*
X112250771Y-8333333D01*
X112250771Y-8333333D02*
X112203152Y-8409524D01*
X112203152Y-8409524D02*
X112203152Y-8485714D01*
X112203152Y-8676190D02*
X112869819Y-8866666D01*
X112869819Y-8866666D02*
X112203152Y-9057143D01*
X112869819Y-9780952D02*
X112869819Y-9323809D01*
X112869819Y-9552381D02*
X111869819Y-9552381D01*
X111869819Y-9552381D02*
X112012676Y-9476190D01*
X112012676Y-9476190D02*
X112107914Y-9400000D01*
X112107914Y-9400000D02*
X112155533Y-9323809D01*
X109126009Y-37495237D02*
X109126009Y-37761903D01*
X109649819Y-37876189D02*
X109649819Y-37495237D01*
X109649819Y-37495237D02*
X108649819Y-37495237D01*
X108649819Y-37495237D02*
X108649819Y-37876189D01*
X109649819Y-38219047D02*
X108649819Y-38219047D01*
X108649819Y-38219047D02*
X108649819Y-38409523D01*
X108649819Y-38409523D02*
X108697438Y-38523809D01*
X108697438Y-38523809D02*
X108792676Y-38599999D01*
X108792676Y-38599999D02*
X108887914Y-38638094D01*
X108887914Y-38638094D02*
X109078390Y-38676190D01*
X109078390Y-38676190D02*
X109221247Y-38676190D01*
X109221247Y-38676190D02*
X109411723Y-38638094D01*
X109411723Y-38638094D02*
X109506961Y-38599999D01*
X109506961Y-38599999D02*
X109602200Y-38523809D01*
X109602200Y-38523809D02*
X109649819Y-38409523D01*
X109649819Y-38409523D02*
X109649819Y-38219047D01*
X108697438Y-39438094D02*
X108649819Y-39361904D01*
X108649819Y-39361904D02*
X108649819Y-39247618D01*
X108649819Y-39247618D02*
X108697438Y-39133332D01*
X108697438Y-39133332D02*
X108792676Y-39057142D01*
X108792676Y-39057142D02*
X108887914Y-39019047D01*
X108887914Y-39019047D02*
X109078390Y-38980951D01*
X109078390Y-38980951D02*
X109221247Y-38980951D01*
X109221247Y-38980951D02*
X109411723Y-39019047D01*
X109411723Y-39019047D02*
X109506961Y-39057142D01*
X109506961Y-39057142D02*
X109602200Y-39133332D01*
X109602200Y-39133332D02*
X109649819Y-39247618D01*
X109649819Y-39247618D02*
X109649819Y-39323809D01*
X109649819Y-39323809D02*
X109602200Y-39438094D01*
X109602200Y-39438094D02*
X109554580Y-39476190D01*
X109554580Y-39476190D02*
X109221247Y-39476190D01*
X109221247Y-39476190D02*
X109221247Y-39323809D01*
X109649819Y-40428571D02*
X108649819Y-40428571D01*
X109649819Y-40923808D02*
X109602200Y-40847618D01*
X109602200Y-40847618D02*
X109554580Y-40809523D01*
X109554580Y-40809523D02*
X109459342Y-40771427D01*
X109459342Y-40771427D02*
X109173628Y-40771427D01*
X109173628Y-40771427D02*
X109078390Y-40809523D01*
X109078390Y-40809523D02*
X109030771Y-40847618D01*
X109030771Y-40847618D02*
X108983152Y-40923808D01*
X108983152Y-40923808D02*
X108983152Y-41038094D01*
X108983152Y-41038094D02*
X109030771Y-41114285D01*
X109030771Y-41114285D02*
X109078390Y-41152380D01*
X109078390Y-41152380D02*
X109173628Y-41190475D01*
X109173628Y-41190475D02*
X109459342Y-41190475D01*
X109459342Y-41190475D02*
X109554580Y-41152380D01*
X109554580Y-41152380D02*
X109602200Y-41114285D01*
X109602200Y-41114285D02*
X109649819Y-41038094D01*
X109649819Y-41038094D02*
X109649819Y-40923808D01*
X108649819Y-41419047D02*
X108649819Y-41876190D01*
X109649819Y-41647618D02*
X108649819Y-41647618D01*
X109126009Y-43019047D02*
X109126009Y-42752381D01*
X109649819Y-42752381D02*
X108649819Y-42752381D01*
X108649819Y-42752381D02*
X108649819Y-43133333D01*
X109649819Y-43780952D02*
X109126009Y-43780952D01*
X109126009Y-43780952D02*
X109030771Y-43742857D01*
X109030771Y-43742857D02*
X108983152Y-43666666D01*
X108983152Y-43666666D02*
X108983152Y-43514285D01*
X108983152Y-43514285D02*
X109030771Y-43438095D01*
X109602200Y-43780952D02*
X109649819Y-43704761D01*
X109649819Y-43704761D02*
X109649819Y-43514285D01*
X109649819Y-43514285D02*
X109602200Y-43438095D01*
X109602200Y-43438095D02*
X109506961Y-43399999D01*
X109506961Y-43399999D02*
X109411723Y-43399999D01*
X109411723Y-43399999D02*
X109316485Y-43438095D01*
X109316485Y-43438095D02*
X109268866Y-43514285D01*
X109268866Y-43514285D02*
X109268866Y-43704761D01*
X109268866Y-43704761D02*
X109221247Y-43780952D01*
X108983152Y-44161905D02*
X109649819Y-44161905D01*
X109078390Y-44161905D02*
X109030771Y-44200000D01*
X109030771Y-44200000D02*
X108983152Y-44276190D01*
X108983152Y-44276190D02*
X108983152Y-44390476D01*
X108983152Y-44390476D02*
X109030771Y-44466667D01*
X109030771Y-44466667D02*
X109126009Y-44504762D01*
X109126009Y-44504762D02*
X109649819Y-44504762D01*
X110259819Y-39476189D02*
X110974104Y-39476189D01*
X110974104Y-39476189D02*
X111116961Y-39438094D01*
X111116961Y-39438094D02*
X111212200Y-39361903D01*
X111212200Y-39361903D02*
X111259819Y-39247618D01*
X111259819Y-39247618D02*
X111259819Y-39171427D01*
X110593152Y-40199999D02*
X111259819Y-40199999D01*
X110593152Y-39857142D02*
X111116961Y-39857142D01*
X111116961Y-39857142D02*
X111212200Y-39895237D01*
X111212200Y-39895237D02*
X111259819Y-39971427D01*
X111259819Y-39971427D02*
X111259819Y-40085713D01*
X111259819Y-40085713D02*
X111212200Y-40161904D01*
X111212200Y-40161904D02*
X111164580Y-40199999D01*
X111259819Y-40695237D02*
X111212200Y-40619047D01*
X111212200Y-40619047D02*
X111116961Y-40580952D01*
X111116961Y-40580952D02*
X110259819Y-40580952D01*
X110355057Y-41571428D02*
X110307438Y-41609524D01*
X110307438Y-41609524D02*
X110259819Y-41685714D01*
X110259819Y-41685714D02*
X110259819Y-41876190D01*
X110259819Y-41876190D02*
X110307438Y-41952381D01*
X110307438Y-41952381D02*
X110355057Y-41990476D01*
X110355057Y-41990476D02*
X110450295Y-42028571D01*
X110450295Y-42028571D02*
X110545533Y-42028571D01*
X110545533Y-42028571D02*
X110688390Y-41990476D01*
X110688390Y-41990476D02*
X111259819Y-41533333D01*
X111259819Y-41533333D02*
X111259819Y-42028571D01*
X110259819Y-42295238D02*
X110259819Y-42790476D01*
X110259819Y-42790476D02*
X110640771Y-42523810D01*
X110640771Y-42523810D02*
X110640771Y-42638095D01*
X110640771Y-42638095D02*
X110688390Y-42714286D01*
X110688390Y-42714286D02*
X110736009Y-42752381D01*
X110736009Y-42752381D02*
X110831247Y-42790476D01*
X110831247Y-42790476D02*
X111069342Y-42790476D01*
X111069342Y-42790476D02*
X111164580Y-42752381D01*
X111164580Y-42752381D02*
X111212200Y-42714286D01*
X111212200Y-42714286D02*
X111259819Y-42638095D01*
X111259819Y-42638095D02*
X111259819Y-42409524D01*
X111259819Y-42409524D02*
X111212200Y-42333333D01*
X111212200Y-42333333D02*
X111164580Y-42295238D01*
X112869819Y-40257143D02*
X112203152Y-40257143D01*
X112393628Y-40257143D02*
X112298390Y-40295238D01*
X112298390Y-40295238D02*
X112250771Y-40333333D01*
X112250771Y-40333333D02*
X112203152Y-40409524D01*
X112203152Y-40409524D02*
X112203152Y-40485714D01*
X112203152Y-40676190D02*
X112869819Y-40866666D01*
X112869819Y-40866666D02*
X112203152Y-41057143D01*
X112869819Y-41780952D02*
X112869819Y-41323809D01*
X112869819Y-41552381D02*
X111869819Y-41552381D01*
X111869819Y-41552381D02*
X112012676Y-41476190D01*
X112012676Y-41476190D02*
X112107914Y-41400000D01*
X112107914Y-41400000D02*
X112155533Y-41323809D01*
X135431009Y-11272857D02*
X135431009Y-10939524D01*
X135954819Y-10939524D02*
X134954819Y-10939524D01*
X134954819Y-10939524D02*
X134954819Y-11415714D01*
X134954819Y-11796667D02*
X135764342Y-11796667D01*
X135764342Y-11796667D02*
X135859580Y-11844286D01*
X135859580Y-11844286D02*
X135907200Y-11891905D01*
X135907200Y-11891905D02*
X135954819Y-11987143D01*
X135954819Y-11987143D02*
X135954819Y-12177619D01*
X135954819Y-12177619D02*
X135907200Y-12272857D01*
X135907200Y-12272857D02*
X135859580Y-12320476D01*
X135859580Y-12320476D02*
X135764342Y-12368095D01*
X135764342Y-12368095D02*
X134954819Y-12368095D01*
X134954819Y-12749048D02*
X134954819Y-13368095D01*
X134954819Y-13368095D02*
X135335771Y-13034762D01*
X135335771Y-13034762D02*
X135335771Y-13177619D01*
X135335771Y-13177619D02*
X135383390Y-13272857D01*
X135383390Y-13272857D02*
X135431009Y-13320476D01*
X135431009Y-13320476D02*
X135526247Y-13368095D01*
X135526247Y-13368095D02*
X135764342Y-13368095D01*
X135764342Y-13368095D02*
X135859580Y-13320476D01*
X135859580Y-13320476D02*
X135907200Y-13272857D01*
X135907200Y-13272857D02*
X135954819Y-13177619D01*
X135954819Y-13177619D02*
X135954819Y-12891905D01*
X135954819Y-12891905D02*
X135907200Y-12796667D01*
X135907200Y-12796667D02*
X135859580Y-12749048D01*
D11*
X135914285Y-34364895D02*
X136199999Y-34364895D01*
X136199999Y-34364895D02*
X136199999Y-33564895D01*
X135714285Y-33564895D02*
X135714285Y-34212514D01*
X135714285Y-34212514D02*
X135685714Y-34288704D01*
X135685714Y-34288704D02*
X135657143Y-34326800D01*
X135657143Y-34326800D02*
X135600000Y-34364895D01*
X135600000Y-34364895D02*
X135485714Y-34364895D01*
X135485714Y-34364895D02*
X135428571Y-34326800D01*
X135428571Y-34326800D02*
X135400000Y-34288704D01*
X135400000Y-34288704D02*
X135371428Y-34212514D01*
X135371428Y-34212514D02*
X135371428Y-33564895D01*
X135142857Y-33564895D02*
X134771429Y-33564895D01*
X134771429Y-33564895D02*
X134971429Y-33869657D01*
X134971429Y-33869657D02*
X134885714Y-33869657D01*
X134885714Y-33869657D02*
X134828572Y-33907752D01*
X134828572Y-33907752D02*
X134800000Y-33945847D01*
X134800000Y-33945847D02*
X134771429Y-34022038D01*
X134771429Y-34022038D02*
X134771429Y-34212514D01*
X134771429Y-34212514D02*
X134800000Y-34288704D01*
X134800000Y-34288704D02*
X134828572Y-34326800D01*
X134828572Y-34326800D02*
X134885714Y-34364895D01*
X134885714Y-34364895D02*
X135057143Y-34364895D01*
X135057143Y-34364895D02*
X135114286Y-34326800D01*
X135114286Y-34326800D02*
X135142857Y-34288704D01*
X111257142Y-69364895D02*
X111257142Y-68564895D01*
X110914285Y-69364895D02*
X111171428Y-68907752D01*
X110914285Y-68564895D02*
X111257142Y-69022038D01*
X110657142Y-68564895D02*
X110657142Y-69212514D01*
X110657142Y-69212514D02*
X110628571Y-69288704D01*
X110628571Y-69288704D02*
X110600000Y-69326800D01*
X110600000Y-69326800D02*
X110542857Y-69364895D01*
X110542857Y-69364895D02*
X110428571Y-69364895D01*
X110428571Y-69364895D02*
X110371428Y-69326800D01*
X110371428Y-69326800D02*
X110342857Y-69288704D01*
X110342857Y-69288704D02*
X110314285Y-69212514D01*
X110314285Y-69212514D02*
X110314285Y-68564895D01*
X110057143Y-68641085D02*
X110028571Y-68602990D01*
X110028571Y-68602990D02*
X109971429Y-68564895D01*
X109971429Y-68564895D02*
X109828571Y-68564895D01*
X109828571Y-68564895D02*
X109771429Y-68602990D01*
X109771429Y-68602990D02*
X109742857Y-68641085D01*
X109742857Y-68641085D02*
X109714286Y-68717276D01*
X109714286Y-68717276D02*
X109714286Y-68793466D01*
X109714286Y-68793466D02*
X109742857Y-68907752D01*
X109742857Y-68907752D02*
X110085714Y-69364895D01*
X110085714Y-69364895D02*
X109714286Y-69364895D01*
G36*
X104723743Y-9996324D02*
G01*
X104758044Y-10138039D01*
X104681220Y-10255304D01*
X104571905Y-10349190D01*
X104400956Y-10238822D01*
X104267220Y-10059698D01*
X104439436Y-9940170D01*
X104648179Y-9883688D01*
X104723743Y-9996324D01*
G37*
G36*
X104305872Y-10259161D02*
G01*
X104334607Y-10424740D01*
X104226089Y-10432616D01*
X104033652Y-10376800D01*
X103936388Y-10295653D01*
X103948170Y-10275602D01*
X104118686Y-10159831D01*
X104245620Y-10121296D01*
X104305872Y-10259161D01*
G37*
G36*
X104365194Y-9661561D02*
G01*
X104472480Y-9727728D01*
X104390326Y-9886354D01*
X104266188Y-9979496D01*
X104140215Y-9863877D01*
X104048631Y-9689385D01*
X104048630Y-9689385D01*
X104053075Y-9674708D01*
X104175574Y-9639610D01*
X104365194Y-9661561D01*
G37*
G36*
X107937800Y-7512567D02*
G01*
X107937800Y-7770329D01*
X107839718Y-7770434D01*
X107741637Y-7770329D01*
X107741637Y-7611682D01*
X107741637Y-7453036D01*
X107486665Y-7453036D01*
X107235109Y-7453609D01*
X107157486Y-7456549D01*
X107157484Y-7456549D01*
X107157589Y-7254908D01*
X107548883Y-7254908D01*
X107937800Y-7254908D01*
X107937800Y-7512567D01*
G37*
G36*
X107938004Y-8120075D02*
G01*
X107938004Y-8390963D01*
X107843953Y-8390963D01*
X107750005Y-8390963D01*
X107750005Y-8220120D01*
X107750005Y-8049278D01*
X107692335Y-8049278D01*
X107634767Y-8049278D01*
X107634767Y-8205961D01*
X107634767Y-8362644D01*
X107549914Y-8362644D01*
X107464958Y-8362644D01*
X107464958Y-8205961D01*
X107464958Y-8049278D01*
X107404290Y-8049278D01*
X107343622Y-8049278D01*
X107343728Y-8220120D01*
X107343728Y-8390963D01*
X107251227Y-8390344D01*
X107158726Y-8389725D01*
X107158196Y-8119353D01*
X107157484Y-7849187D01*
X107547847Y-7849187D01*
X107938004Y-7849187D01*
X107938004Y-8120075D01*
G37*
G36*
X107434159Y-9335310D02*
G01*
X107710525Y-9335929D01*
X107732745Y-9340374D01*
X107778220Y-9353500D01*
X107796411Y-9361561D01*
X107889635Y-9441557D01*
X107942242Y-9564030D01*
X107946999Y-9593589D01*
X107944210Y-9716372D01*
X107825561Y-9913052D01*
X107761276Y-9945298D01*
X107738331Y-9950879D01*
X107718591Y-9956461D01*
X107438608Y-9956461D01*
X107158728Y-9956461D01*
X107158199Y-9856829D01*
X107157580Y-9757300D01*
X107423507Y-9757300D01*
X107657037Y-9756753D01*
X107701836Y-9753061D01*
X107740697Y-9728566D01*
X107763124Y-9604646D01*
X107692121Y-9537157D01*
X107619202Y-9535493D01*
X107418959Y-9534881D01*
X107157580Y-9534987D01*
X107157580Y-9434838D01*
X107157484Y-9334781D01*
X107434159Y-9335310D01*
G37*
G36*
X107938013Y-8590539D02*
G01*
X107938013Y-8689655D01*
X107811716Y-8689655D01*
X107630228Y-8684696D01*
X107565529Y-8678702D01*
X107555918Y-8680147D01*
X107573591Y-8689758D01*
X107597362Y-8698750D01*
X107664335Y-8725208D01*
X107728827Y-8750530D01*
X107760039Y-8762622D01*
X107798487Y-8777298D01*
X107821741Y-8786290D01*
X107822360Y-8855226D01*
X107822980Y-8924059D01*
X107814298Y-8926435D01*
X107797658Y-8932222D01*
X107778434Y-8939974D01*
X107743811Y-8953410D01*
X107718387Y-8962608D01*
X107697406Y-8970773D01*
X107670327Y-8981108D01*
X107654204Y-8987103D01*
X107577930Y-9016455D01*
X107556122Y-9028547D01*
X107564701Y-9030616D01*
X107647073Y-9023381D01*
X107828974Y-9017800D01*
X107937081Y-9018419D01*
X107937081Y-9117431D01*
X107937081Y-9216444D01*
X107547957Y-9216444D01*
X107158834Y-9216444D01*
X107158834Y-9117741D01*
X107158834Y-9018936D01*
X107181055Y-9008911D01*
X107216402Y-8993718D01*
X107231594Y-8986897D01*
X107248854Y-8979248D01*
X107302391Y-8956408D01*
X107374325Y-8925298D01*
X107396752Y-8915480D01*
X107419800Y-8905455D01*
X107488426Y-8875379D01*
X107505583Y-8868248D01*
X107526460Y-8859359D01*
X107536279Y-8854401D01*
X107513128Y-8843859D01*
X107488736Y-8833420D01*
X107470133Y-8825359D01*
X107451012Y-8817298D01*
X107432202Y-8809339D01*
X107407294Y-8798384D01*
X107336601Y-8767791D01*
X107318514Y-8759936D01*
X107272005Y-8740403D01*
X107252782Y-8731928D01*
X107224463Y-8719319D01*
X107195111Y-8707020D01*
X107172373Y-8697098D01*
X107159764Y-8691933D01*
X107158213Y-8592404D01*
X107158103Y-8592604D01*
X107158526Y-8492972D01*
X107548373Y-8492146D01*
X107938013Y-8491527D01*
X107938013Y-8590539D01*
G37*
G36*
X105276062Y-7749850D02*
G01*
X105146222Y-7796685D01*
X105043083Y-7841435D01*
X104929910Y-7890539D01*
X104720996Y-7999587D01*
X104720190Y-8000082D01*
X104520286Y-8123044D01*
X104428182Y-8188908D01*
X104328587Y-8260128D01*
X104149182Y-8408016D01*
X104146706Y-8410056D01*
X103975450Y-8572044D01*
X103898807Y-8655132D01*
X103815626Y-8745308D01*
X103669406Y-8927364D01*
X103668039Y-8929065D01*
X103533498Y-9122533D01*
X103479101Y-9213754D01*
X103412808Y-9324927D01*
X103307648Y-9533735D01*
X103306777Y-9535464D01*
X103216211Y-9753361D01*
X103157105Y-9871079D01*
X103131563Y-9921951D01*
X103032553Y-10070448D01*
X102878147Y-10212493D01*
X102677178Y-10287697D01*
X102461789Y-10284585D01*
X102264124Y-10191680D01*
X102135735Y-10048771D01*
X102069434Y-9885429D01*
X102052871Y-9709540D01*
X102052782Y-9709435D01*
X102072411Y-9563291D01*
X102130504Y-9436480D01*
X102255167Y-9334674D01*
X102407593Y-9369714D01*
X102470567Y-9542532D01*
X102429607Y-9725868D01*
X102519834Y-9887822D01*
X102710830Y-9871906D01*
X102744932Y-9827981D01*
X102804468Y-9827981D01*
X102818110Y-9840280D01*
X103023472Y-9999960D01*
X103038975Y-10009882D01*
X103050137Y-9995206D01*
X103118867Y-9887512D01*
X103127859Y-9871079D01*
X103112046Y-9861054D01*
X102909474Y-9706128D01*
X102890043Y-9688765D01*
X102878262Y-9711916D01*
X102815629Y-9813305D01*
X102804468Y-9827981D01*
X102744932Y-9827981D01*
X102846353Y-9697345D01*
X102932468Y-9501609D01*
X102933373Y-9499422D01*
X102965181Y-9499422D01*
X102975413Y-9508517D01*
X103078340Y-9593708D01*
X103186873Y-9669747D01*
X103207130Y-9682770D01*
X103216122Y-9660343D01*
X103264388Y-9549238D01*
X103271312Y-9533735D01*
X103257153Y-9524434D01*
X103053031Y-9362376D01*
X103033497Y-9344082D01*
X103021405Y-9367854D01*
X102970039Y-9486606D01*
X102965181Y-9499422D01*
X102933373Y-9499422D01*
X103011173Y-9311320D01*
X103088720Y-9162802D01*
X103125378Y-9162802D01*
X103136747Y-9173447D01*
X103340662Y-9340982D01*
X103359266Y-9354624D01*
X103370118Y-9334367D01*
X103428822Y-9229154D01*
X103437814Y-9213754D01*
X103423551Y-9203006D01*
X103226147Y-9036814D01*
X103207957Y-9019451D01*
X103195141Y-9041052D01*
X103132819Y-9149159D01*
X103125378Y-9162802D01*
X103088720Y-9162802D01*
X103124097Y-9095049D01*
X103251389Y-8886903D01*
X103275828Y-8852330D01*
X103315651Y-8852330D01*
X103327123Y-8864112D01*
X103517809Y-9044566D01*
X103534862Y-9059655D01*
X103547678Y-9040742D01*
X103616201Y-8941937D01*
X103626846Y-8927364D01*
X103613411Y-8915272D01*
X103427065Y-8736781D01*
X103410736Y-8719521D01*
X103396576Y-8738642D01*
X103325056Y-8838791D01*
X103315651Y-8852330D01*
X103275828Y-8852330D01*
X103392266Y-8687606D01*
X103499272Y-8555500D01*
X103541890Y-8555500D01*
X103552432Y-8568419D01*
X103729992Y-8761690D01*
X103745392Y-8776882D01*
X103759242Y-8760242D01*
X103836653Y-8669292D01*
X103849468Y-8655132D01*
X103835826Y-8641697D01*
X103664674Y-8451424D01*
X103650101Y-8432717D01*
X103634184Y-8450287D01*
X103552742Y-8542891D01*
X103541890Y-8555500D01*
X103499272Y-8555500D01*
X103545943Y-8497881D01*
X103711635Y-8318452D01*
X103745230Y-8286473D01*
X103792418Y-8286473D01*
X103802546Y-8300529D01*
X103967807Y-8503101D01*
X103981760Y-8518397D01*
X103996539Y-8503927D01*
X104083252Y-8421452D01*
X104098032Y-8408016D01*
X104084596Y-8393237D01*
X103923676Y-8194592D01*
X103910653Y-8176402D01*
X103894013Y-8191388D01*
X103804923Y-8274484D01*
X103792418Y-8286473D01*
X103745230Y-8286473D01*
X103888558Y-8150041D01*
X104019078Y-8040906D01*
X104071160Y-8040906D01*
X104080255Y-8055996D01*
X104228153Y-8270350D01*
X104240556Y-8286473D01*
X104256575Y-8273760D01*
X104351557Y-8200897D01*
X104367783Y-8188908D01*
X104355587Y-8172785D01*
X104210790Y-7961738D01*
X104199421Y-7942928D01*
X104181748Y-7955950D01*
X104085010Y-8029951D01*
X104071160Y-8040906D01*
X104019078Y-8040906D01*
X104075927Y-7993372D01*
X104272958Y-7849170D01*
X104308017Y-7826863D01*
X104368713Y-7826863D01*
X104376258Y-7842779D01*
X104506689Y-8067675D01*
X104517645Y-8084004D01*
X104534077Y-8073256D01*
X104636190Y-8010934D01*
X104654380Y-8000082D01*
X104642495Y-7982512D01*
X104516094Y-7761750D01*
X104506793Y-7741700D01*
X104487775Y-7753069D01*
X104383596Y-7817354D01*
X104368713Y-7826863D01*
X104308017Y-7826863D01*
X104478865Y-7718157D01*
X104609984Y-7646408D01*
X104678979Y-7646408D01*
X104686627Y-7663669D01*
X104804242Y-7894455D01*
X104813751Y-7911199D01*
X104830804Y-7902413D01*
X104937981Y-7850634D01*
X104957618Y-7841435D01*
X104946869Y-7822625D01*
X104832354Y-7594629D01*
X104824086Y-7575715D01*
X104805482Y-7584500D01*
X104695825Y-7637830D01*
X104678979Y-7646408D01*
X104609984Y-7646408D01*
X104692864Y-7601056D01*
X104906533Y-7502128D01*
X105014462Y-7502128D01*
X105018182Y-7513703D01*
X105110166Y-7755239D01*
X105117814Y-7772499D01*
X105135488Y-7765781D01*
X105247418Y-7719376D01*
X105266332Y-7711521D01*
X105257857Y-7692814D01*
X105169801Y-7459856D01*
X105163600Y-7440220D01*
X105144169Y-7446937D01*
X105030068Y-7488796D01*
X105026141Y-7490346D01*
X105023040Y-7493547D01*
X105014462Y-7502128D01*
X104906533Y-7502128D01*
X104914170Y-7498592D01*
X105141999Y-7411487D01*
X105365238Y-7349288D01*
X105598415Y-7301142D01*
X105833888Y-7269120D01*
X106064015Y-7255293D01*
X106281155Y-7261729D01*
X106495671Y-7303041D01*
X106678645Y-7380221D01*
X106828821Y-7492413D01*
X106944676Y-7638388D01*
X107025365Y-7816363D01*
X107070667Y-8024680D01*
X107070349Y-8034189D01*
X107114208Y-8312424D01*
X107131143Y-8563874D01*
X107125230Y-8789698D01*
X107101829Y-9095621D01*
X107101252Y-9103167D01*
X107023841Y-9730519D01*
X106919041Y-9748812D01*
X106794708Y-9598021D01*
X106793671Y-9525364D01*
X106837813Y-9525364D01*
X106840602Y-9585929D01*
X106873158Y-9641429D01*
X106942818Y-9704268D01*
X106967519Y-9709226D01*
X106973203Y-9706850D01*
X107048651Y-9095621D01*
X106940639Y-9184280D01*
X106901993Y-9190188D01*
X106890400Y-9205321D01*
X106863546Y-9321654D01*
X106844013Y-9435446D01*
X106844119Y-9435446D01*
X106837814Y-9525363D01*
X106837813Y-9525364D01*
X106793671Y-9525364D01*
X106792885Y-9470267D01*
X106818169Y-9312250D01*
X106801942Y-9098413D01*
X106751299Y-8958163D01*
X106681123Y-9047770D01*
X106545247Y-9252387D01*
X106410648Y-9413226D01*
X106350393Y-9471517D01*
X106386153Y-9496322D01*
X106524853Y-9586032D01*
X106751691Y-9734515D01*
X106900681Y-9846386D01*
X106984773Y-9931437D01*
X107158613Y-10126877D01*
X107158825Y-10073650D01*
X107545881Y-10073333D01*
X107820015Y-10073214D01*
X107935521Y-10073650D01*
X107935627Y-10073650D01*
X107938109Y-10173696D01*
X107938109Y-10272812D01*
X107814292Y-10273431D01*
X107690475Y-10274050D01*
X107690052Y-10290173D01*
X107689628Y-10306400D01*
X107700170Y-10314565D01*
X107736531Y-10341024D01*
X107743062Y-10345777D01*
X107777685Y-10371099D01*
X107798665Y-10386395D01*
X107834735Y-10412543D01*
X107880108Y-10445926D01*
X107922999Y-10476932D01*
X107938089Y-10487887D01*
X107938089Y-10611084D01*
X107938089Y-10734280D01*
X107920415Y-10720534D01*
X107883828Y-10691596D01*
X107860574Y-10673406D01*
X107849205Y-10664104D01*
X107810758Y-10633615D01*
X107774068Y-10604469D01*
X107758875Y-10591860D01*
X107717844Y-10559924D01*
X107685494Y-10534086D01*
X107671025Y-10523750D01*
X107669167Y-10527058D01*
X107665015Y-10535131D01*
X107641262Y-10581318D01*
X107535738Y-10657076D01*
X107422257Y-10673303D01*
X107321488Y-10659246D01*
X107300921Y-10651081D01*
X107284178Y-10656456D01*
X107200875Y-10649634D01*
X107055658Y-10617047D01*
X106945387Y-10577184D01*
X106892884Y-10532019D01*
X106850923Y-10441275D01*
X106792941Y-10339886D01*
X106709677Y-10299683D01*
X106822723Y-10299683D01*
X106894244Y-10420399D01*
X106931244Y-10501531D01*
X106964213Y-10529437D01*
X107187869Y-10594239D01*
X107265797Y-10604057D01*
X107316610Y-10535131D01*
X107268524Y-10497875D01*
X107191919Y-10411314D01*
X107180425Y-10339577D01*
X107342485Y-10339577D01*
X107346104Y-10416472D01*
X107401398Y-10475176D01*
X107489454Y-10459364D01*
X107515913Y-10418436D01*
X107520871Y-10341024D01*
X107519114Y-10273845D01*
X107429404Y-10273316D01*
X107342485Y-10273845D01*
X107342485Y-10339577D01*
X107180425Y-10339577D01*
X107157174Y-10194470D01*
X107031583Y-10074189D01*
X106940442Y-9957172D01*
X106929827Y-10195947D01*
X106822723Y-10299683D01*
X106709677Y-10299683D01*
X106660443Y-10275911D01*
X106461075Y-10194572D01*
X106257063Y-10110872D01*
X106043323Y-10030137D01*
X105885814Y-9992207D01*
X105800340Y-9978151D01*
X105671887Y-10082367D01*
X105599997Y-10140693D01*
X105401163Y-10265780D01*
X105201276Y-10353739D01*
X104997777Y-10404894D01*
X104788103Y-10419571D01*
X104651507Y-10528853D01*
X104498056Y-10614458D01*
X104301734Y-10668455D01*
X104036521Y-10682914D01*
X103917665Y-10726426D01*
X103731733Y-10755675D01*
X103539548Y-10757682D01*
X103387155Y-10712576D01*
X103374132Y-10692836D01*
X103371137Y-10639609D01*
X103378517Y-10620481D01*
X103437306Y-10620481D01*
X103604026Y-10466892D01*
X103731439Y-10391564D01*
X103855491Y-10545247D01*
X104002121Y-10623281D01*
X103867348Y-10675784D01*
X103903418Y-10667929D01*
X104016073Y-10627829D01*
X104033230Y-10623077D01*
X104293038Y-10610779D01*
X104478891Y-10560279D01*
X104622704Y-10477358D01*
X104756390Y-10367795D01*
X104765485Y-10362421D01*
X104769104Y-10359838D01*
X105046567Y-10249305D01*
X105236861Y-10170290D01*
X105351144Y-10116682D01*
X105400573Y-10082367D01*
X105396305Y-10061235D01*
X105349497Y-10047171D01*
X105271306Y-10034066D01*
X105172890Y-10015805D01*
X105065405Y-9986278D01*
X104960009Y-9939371D01*
X104867858Y-9868972D01*
X104800110Y-9768970D01*
X104721355Y-9666134D01*
X104530147Y-9520010D01*
X104288410Y-9428836D01*
X104276525Y-9422324D01*
X104162319Y-9332097D01*
X104257714Y-9414263D01*
X104073509Y-9437424D01*
X103948896Y-9522784D01*
X103804576Y-9409524D01*
X103703639Y-9254480D01*
X103725663Y-9412295D01*
X103830247Y-9616318D01*
X103833453Y-9644430D01*
X103926465Y-9578869D01*
X103929653Y-9666653D01*
X103869110Y-9807521D01*
X103805955Y-9991474D01*
X103797900Y-10125227D01*
X103762675Y-10272247D01*
X103703229Y-10248321D01*
X103696614Y-10224446D01*
X103682662Y-10243153D01*
X103514300Y-10430945D01*
X103437306Y-10620481D01*
X103378517Y-10620481D01*
X103463844Y-10399314D01*
X103636857Y-10205527D01*
X103625436Y-10029211D01*
X103655954Y-9853910D01*
X103771526Y-9633676D01*
X103651975Y-9357302D01*
X103657631Y-9155669D01*
X103678612Y-9134895D01*
X103891595Y-9134831D01*
X104109003Y-9225503D01*
X104310821Y-9373537D01*
X104498174Y-9442941D01*
X104660567Y-9539521D01*
X104659017Y-9534356D01*
X104618496Y-9339601D01*
X104623452Y-9128623D01*
X104670724Y-8906941D01*
X104757150Y-8680069D01*
X104879569Y-8453523D01*
X105034819Y-8232818D01*
X105219739Y-8023472D01*
X105431166Y-7830998D01*
X105503657Y-7722229D01*
X105423581Y-7710105D01*
X105418328Y-7711521D01*
X105276062Y-7749850D01*
G37*
D12*
X115880000Y6220000D02*
X115880000Y-300000D01*
X115880000Y-13700000D02*
X115880000Y-14000000D01*
X117000000Y-14020000D02*
X115880000Y-14020000D01*
X134120000Y6220000D02*
X115880000Y6220000D01*
X134120000Y6220000D02*
X134120000Y200000D01*
X134120000Y200000D02*
X136000000Y200000D01*
X134120000Y-13700000D02*
X134120000Y-14020000D01*
X134120000Y-14020000D02*
X133100000Y-14020000D01*
G36*
X105276062Y-39749850D02*
G01*
X105146222Y-39796685D01*
X105043083Y-39841435D01*
X104929910Y-39890539D01*
X104720996Y-39999587D01*
X104720190Y-40000082D01*
X104520286Y-40123044D01*
X104428182Y-40188908D01*
X104328587Y-40260128D01*
X104149182Y-40408016D01*
X104146706Y-40410056D01*
X103975450Y-40572044D01*
X103898807Y-40655132D01*
X103815626Y-40745308D01*
X103669406Y-40927364D01*
X103668039Y-40929065D01*
X103533498Y-41122533D01*
X103479101Y-41213754D01*
X103412808Y-41324927D01*
X103307648Y-41533735D01*
X103306777Y-41535464D01*
X103216211Y-41753361D01*
X103157105Y-41871079D01*
X103131563Y-41921951D01*
X103032553Y-42070448D01*
X102878147Y-42212493D01*
X102677178Y-42287697D01*
X102461789Y-42284585D01*
X102264124Y-42191680D01*
X102135735Y-42048771D01*
X102069434Y-41885429D01*
X102052871Y-41709540D01*
X102052782Y-41709435D01*
X102072411Y-41563291D01*
X102130504Y-41436480D01*
X102255167Y-41334674D01*
X102407593Y-41369714D01*
X102470567Y-41542532D01*
X102429607Y-41725868D01*
X102519834Y-41887822D01*
X102710830Y-41871906D01*
X102744932Y-41827981D01*
X102804468Y-41827981D01*
X102818110Y-41840280D01*
X103023472Y-41999960D01*
X103038975Y-42009882D01*
X103050137Y-41995206D01*
X103118867Y-41887512D01*
X103127859Y-41871079D01*
X103112046Y-41861054D01*
X102909474Y-41706128D01*
X102890043Y-41688765D01*
X102878262Y-41711916D01*
X102815629Y-41813305D01*
X102804468Y-41827981D01*
X102744932Y-41827981D01*
X102846353Y-41697345D01*
X102932468Y-41501609D01*
X102933373Y-41499422D01*
X102965181Y-41499422D01*
X102975413Y-41508517D01*
X103078340Y-41593708D01*
X103186873Y-41669747D01*
X103207130Y-41682770D01*
X103216122Y-41660343D01*
X103264388Y-41549238D01*
X103271312Y-41533735D01*
X103257153Y-41524434D01*
X103053031Y-41362376D01*
X103033497Y-41344082D01*
X103021405Y-41367854D01*
X102970039Y-41486606D01*
X102965181Y-41499422D01*
X102933373Y-41499422D01*
X103011173Y-41311320D01*
X103088720Y-41162802D01*
X103125378Y-41162802D01*
X103136747Y-41173447D01*
X103340662Y-41340982D01*
X103359266Y-41354624D01*
X103370118Y-41334367D01*
X103428822Y-41229154D01*
X103437814Y-41213754D01*
X103423551Y-41203006D01*
X103226147Y-41036814D01*
X103207957Y-41019451D01*
X103195141Y-41041052D01*
X103132819Y-41149159D01*
X103125378Y-41162802D01*
X103088720Y-41162802D01*
X103124097Y-41095049D01*
X103251389Y-40886903D01*
X103275828Y-40852330D01*
X103315651Y-40852330D01*
X103327123Y-40864112D01*
X103517809Y-41044566D01*
X103534862Y-41059655D01*
X103547678Y-41040742D01*
X103616201Y-40941937D01*
X103626846Y-40927364D01*
X103613411Y-40915272D01*
X103427065Y-40736781D01*
X103410736Y-40719521D01*
X103396576Y-40738642D01*
X103325056Y-40838791D01*
X103315651Y-40852330D01*
X103275828Y-40852330D01*
X103392266Y-40687606D01*
X103499272Y-40555500D01*
X103541890Y-40555500D01*
X103552432Y-40568419D01*
X103729992Y-40761690D01*
X103745392Y-40776882D01*
X103759242Y-40760242D01*
X103836653Y-40669292D01*
X103849468Y-40655132D01*
X103835826Y-40641697D01*
X103664674Y-40451424D01*
X103650101Y-40432717D01*
X103634184Y-40450287D01*
X103552742Y-40542891D01*
X103541890Y-40555500D01*
X103499272Y-40555500D01*
X103545943Y-40497881D01*
X103711635Y-40318452D01*
X103745230Y-40286473D01*
X103792418Y-40286473D01*
X103802546Y-40300529D01*
X103967807Y-40503101D01*
X103981760Y-40518397D01*
X103996539Y-40503927D01*
X104083252Y-40421452D01*
X104098032Y-40408016D01*
X104084596Y-40393237D01*
X103923676Y-40194592D01*
X103910653Y-40176402D01*
X103894013Y-40191388D01*
X103804923Y-40274484D01*
X103792418Y-40286473D01*
X103745230Y-40286473D01*
X103888558Y-40150041D01*
X104019078Y-40040906D01*
X104071160Y-40040906D01*
X104080255Y-40055996D01*
X104228153Y-40270350D01*
X104240556Y-40286473D01*
X104256575Y-40273760D01*
X104351557Y-40200897D01*
X104367783Y-40188908D01*
X104355587Y-40172785D01*
X104210790Y-39961738D01*
X104199421Y-39942928D01*
X104181748Y-39955950D01*
X104085010Y-40029951D01*
X104071160Y-40040906D01*
X104019078Y-40040906D01*
X104075927Y-39993372D01*
X104272958Y-39849170D01*
X104308017Y-39826863D01*
X104368713Y-39826863D01*
X104376258Y-39842779D01*
X104506689Y-40067675D01*
X104517645Y-40084004D01*
X104534077Y-40073256D01*
X104636190Y-40010934D01*
X104654380Y-40000082D01*
X104642495Y-39982512D01*
X104516094Y-39761750D01*
X104506793Y-39741700D01*
X104487775Y-39753069D01*
X104383596Y-39817354D01*
X104368713Y-39826863D01*
X104308017Y-39826863D01*
X104478865Y-39718157D01*
X104609984Y-39646408D01*
X104678979Y-39646408D01*
X104686627Y-39663669D01*
X104804242Y-39894455D01*
X104813751Y-39911199D01*
X104830804Y-39902413D01*
X104937981Y-39850634D01*
X104957618Y-39841435D01*
X104946869Y-39822625D01*
X104832354Y-39594629D01*
X104824086Y-39575715D01*
X104805482Y-39584500D01*
X104695825Y-39637830D01*
X104678979Y-39646408D01*
X104609984Y-39646408D01*
X104692864Y-39601056D01*
X104906533Y-39502128D01*
X105014462Y-39502128D01*
X105018182Y-39513703D01*
X105110166Y-39755239D01*
X105117814Y-39772499D01*
X105135488Y-39765781D01*
X105247418Y-39719376D01*
X105266332Y-39711521D01*
X105257857Y-39692814D01*
X105169801Y-39459856D01*
X105163600Y-39440220D01*
X105144169Y-39446937D01*
X105030068Y-39488796D01*
X105026141Y-39490346D01*
X105023040Y-39493547D01*
X105014462Y-39502128D01*
X104906533Y-39502128D01*
X104914170Y-39498592D01*
X105141999Y-39411487D01*
X105365238Y-39349288D01*
X105598415Y-39301142D01*
X105833888Y-39269120D01*
X106064015Y-39255293D01*
X106281155Y-39261729D01*
X106495671Y-39303041D01*
X106678645Y-39380221D01*
X106828821Y-39492413D01*
X106944676Y-39638388D01*
X107025365Y-39816363D01*
X107070667Y-40024680D01*
X107070349Y-40034189D01*
X107114208Y-40312424D01*
X107131143Y-40563874D01*
X107125230Y-40789698D01*
X107101829Y-41095621D01*
X107101252Y-41103167D01*
X107023841Y-41730519D01*
X106919041Y-41748812D01*
X106794708Y-41598021D01*
X106793671Y-41525364D01*
X106837813Y-41525364D01*
X106840602Y-41585929D01*
X106873158Y-41641429D01*
X106942818Y-41704268D01*
X106967519Y-41709226D01*
X106973203Y-41706850D01*
X107048651Y-41095621D01*
X106940639Y-41184280D01*
X106901993Y-41190188D01*
X106890400Y-41205321D01*
X106863546Y-41321654D01*
X106844013Y-41435446D01*
X106844119Y-41435446D01*
X106837814Y-41525363D01*
X106837813Y-41525364D01*
X106793671Y-41525364D01*
X106792885Y-41470267D01*
X106818169Y-41312250D01*
X106801942Y-41098413D01*
X106751299Y-40958163D01*
X106681123Y-41047770D01*
X106545247Y-41252387D01*
X106410648Y-41413226D01*
X106350393Y-41471517D01*
X106386153Y-41496322D01*
X106524853Y-41586032D01*
X106751691Y-41734515D01*
X106900681Y-41846386D01*
X106984773Y-41931437D01*
X107158613Y-42126877D01*
X107158825Y-42073650D01*
X107545881Y-42073333D01*
X107820015Y-42073214D01*
X107935521Y-42073650D01*
X107935627Y-42073650D01*
X107938109Y-42173696D01*
X107938109Y-42272812D01*
X107814292Y-42273431D01*
X107690475Y-42274050D01*
X107690052Y-42290173D01*
X107689628Y-42306400D01*
X107700170Y-42314565D01*
X107736531Y-42341024D01*
X107743062Y-42345777D01*
X107777685Y-42371099D01*
X107798665Y-42386395D01*
X107834735Y-42412543D01*
X107880108Y-42445926D01*
X107922999Y-42476932D01*
X107938089Y-42487887D01*
X107938089Y-42611084D01*
X107938089Y-42734280D01*
X107920415Y-42720534D01*
X107883828Y-42691596D01*
X107860574Y-42673406D01*
X107849205Y-42664104D01*
X107810758Y-42633615D01*
X107774068Y-42604469D01*
X107758875Y-42591860D01*
X107717844Y-42559924D01*
X107685494Y-42534086D01*
X107671025Y-42523750D01*
X107669167Y-42527058D01*
X107665015Y-42535131D01*
X107641262Y-42581318D01*
X107535738Y-42657076D01*
X107422257Y-42673303D01*
X107321488Y-42659246D01*
X107300921Y-42651081D01*
X107284178Y-42656456D01*
X107200875Y-42649634D01*
X107055658Y-42617047D01*
X106945387Y-42577184D01*
X106892884Y-42532019D01*
X106850923Y-42441275D01*
X106792941Y-42339886D01*
X106709677Y-42299683D01*
X106822723Y-42299683D01*
X106894244Y-42420399D01*
X106931244Y-42501531D01*
X106964213Y-42529437D01*
X107187869Y-42594239D01*
X107265797Y-42604057D01*
X107316610Y-42535131D01*
X107268524Y-42497875D01*
X107191919Y-42411314D01*
X107180425Y-42339577D01*
X107342485Y-42339577D01*
X107346104Y-42416472D01*
X107401398Y-42475176D01*
X107489454Y-42459364D01*
X107515913Y-42418436D01*
X107520871Y-42341024D01*
X107519114Y-42273845D01*
X107429404Y-42273316D01*
X107342485Y-42273845D01*
X107342485Y-42339577D01*
X107180425Y-42339577D01*
X107157174Y-42194470D01*
X107031583Y-42074189D01*
X106940442Y-41957172D01*
X106929827Y-42195947D01*
X106822723Y-42299683D01*
X106709677Y-42299683D01*
X106660443Y-42275911D01*
X106461075Y-42194572D01*
X106257063Y-42110872D01*
X106043323Y-42030137D01*
X105885814Y-41992207D01*
X105800340Y-41978151D01*
X105671887Y-42082367D01*
X105599997Y-42140693D01*
X105401163Y-42265780D01*
X105201276Y-42353739D01*
X104997777Y-42404894D01*
X104788103Y-42419571D01*
X104651507Y-42528853D01*
X104498056Y-42614458D01*
X104301734Y-42668455D01*
X104036521Y-42682914D01*
X103917665Y-42726426D01*
X103731733Y-42755675D01*
X103539548Y-42757682D01*
X103387155Y-42712576D01*
X103374132Y-42692836D01*
X103371137Y-42639609D01*
X103378517Y-42620481D01*
X103437306Y-42620481D01*
X103604026Y-42466892D01*
X103731439Y-42391564D01*
X103855491Y-42545247D01*
X104002121Y-42623281D01*
X103867348Y-42675784D01*
X103903418Y-42667929D01*
X104016073Y-42627829D01*
X104033230Y-42623077D01*
X104293038Y-42610779D01*
X104478891Y-42560279D01*
X104622704Y-42477358D01*
X104756390Y-42367795D01*
X104765485Y-42362421D01*
X104769104Y-42359838D01*
X105046567Y-42249305D01*
X105236861Y-42170290D01*
X105351144Y-42116682D01*
X105400573Y-42082367D01*
X105396305Y-42061235D01*
X105349497Y-42047171D01*
X105271306Y-42034066D01*
X105172890Y-42015805D01*
X105065405Y-41986278D01*
X104960009Y-41939371D01*
X104867858Y-41868972D01*
X104800110Y-41768970D01*
X104721355Y-41666134D01*
X104530147Y-41520010D01*
X104288410Y-41428836D01*
X104276525Y-41422324D01*
X104162319Y-41332097D01*
X104257714Y-41414263D01*
X104073509Y-41437424D01*
X103948896Y-41522784D01*
X103804576Y-41409524D01*
X103703639Y-41254480D01*
X103725663Y-41412295D01*
X103830247Y-41616318D01*
X103833453Y-41644430D01*
X103926465Y-41578869D01*
X103929653Y-41666653D01*
X103869110Y-41807521D01*
X103805955Y-41991474D01*
X103797900Y-42125227D01*
X103762675Y-42272247D01*
X103703229Y-42248321D01*
X103696614Y-42224446D01*
X103682662Y-42243153D01*
X103514300Y-42430945D01*
X103437306Y-42620481D01*
X103378517Y-42620481D01*
X103463844Y-42399314D01*
X103636857Y-42205527D01*
X103625436Y-42029211D01*
X103655954Y-41853910D01*
X103771526Y-41633676D01*
X103651975Y-41357302D01*
X103657631Y-41155669D01*
X103678612Y-41134895D01*
X103891595Y-41134831D01*
X104109003Y-41225503D01*
X104310821Y-41373537D01*
X104498174Y-41442941D01*
X104660567Y-41539521D01*
X104659017Y-41534356D01*
X104618496Y-41339601D01*
X104623452Y-41128623D01*
X104670724Y-40906941D01*
X104757150Y-40680069D01*
X104879569Y-40453523D01*
X105034819Y-40232818D01*
X105219739Y-40023472D01*
X105431166Y-39830998D01*
X105503657Y-39722229D01*
X105423581Y-39710105D01*
X105418328Y-39711521D01*
X105276062Y-39749850D01*
G37*
G36*
X107938013Y-40590539D02*
G01*
X107938013Y-40689655D01*
X107811716Y-40689655D01*
X107630228Y-40684696D01*
X107565529Y-40678702D01*
X107555918Y-40680147D01*
X107573591Y-40689758D01*
X107597362Y-40698750D01*
X107664335Y-40725208D01*
X107728827Y-40750530D01*
X107760039Y-40762622D01*
X107798487Y-40777298D01*
X107821741Y-40786290D01*
X107822360Y-40855226D01*
X107822980Y-40924059D01*
X107814298Y-40926435D01*
X107797658Y-40932222D01*
X107778434Y-40939974D01*
X107743811Y-40953410D01*
X107718387Y-40962608D01*
X107697406Y-40970773D01*
X107670327Y-40981108D01*
X107654204Y-40987103D01*
X107577930Y-41016455D01*
X107556122Y-41028547D01*
X107564701Y-41030616D01*
X107647073Y-41023381D01*
X107828974Y-41017800D01*
X107937081Y-41018419D01*
X107937081Y-41117431D01*
X107937081Y-41216444D01*
X107547957Y-41216444D01*
X107158834Y-41216444D01*
X107158834Y-41117741D01*
X107158834Y-41018936D01*
X107181055Y-41008911D01*
X107216402Y-40993718D01*
X107231594Y-40986897D01*
X107248854Y-40979248D01*
X107302391Y-40956408D01*
X107374325Y-40925298D01*
X107396752Y-40915480D01*
X107419800Y-40905455D01*
X107488426Y-40875379D01*
X107505583Y-40868248D01*
X107526460Y-40859359D01*
X107536279Y-40854401D01*
X107513128Y-40843859D01*
X107488736Y-40833420D01*
X107470133Y-40825359D01*
X107451012Y-40817298D01*
X107432202Y-40809339D01*
X107407294Y-40798384D01*
X107336601Y-40767791D01*
X107318514Y-40759936D01*
X107272005Y-40740403D01*
X107252782Y-40731928D01*
X107224463Y-40719319D01*
X107195111Y-40707020D01*
X107172373Y-40697098D01*
X107159764Y-40691933D01*
X107158213Y-40592404D01*
X107158103Y-40592604D01*
X107158526Y-40492972D01*
X107548373Y-40492146D01*
X107938013Y-40491527D01*
X107938013Y-40590539D01*
G37*
G36*
X107434159Y-41335310D02*
G01*
X107710525Y-41335929D01*
X107732745Y-41340374D01*
X107778220Y-41353500D01*
X107796411Y-41361561D01*
X107889635Y-41441557D01*
X107942242Y-41564030D01*
X107946999Y-41593589D01*
X107944210Y-41716372D01*
X107825561Y-41913052D01*
X107761276Y-41945298D01*
X107738331Y-41950879D01*
X107718591Y-41956461D01*
X107438608Y-41956461D01*
X107158728Y-41956461D01*
X107158199Y-41856829D01*
X107157580Y-41757300D01*
X107423507Y-41757300D01*
X107657037Y-41756753D01*
X107701836Y-41753061D01*
X107740697Y-41728566D01*
X107763124Y-41604646D01*
X107692121Y-41537157D01*
X107619202Y-41535493D01*
X107418959Y-41534881D01*
X107157580Y-41534987D01*
X107157580Y-41434838D01*
X107157484Y-41334781D01*
X107434159Y-41335310D01*
G37*
G36*
X107938004Y-40120075D02*
G01*
X107938004Y-40390963D01*
X107843953Y-40390963D01*
X107750005Y-40390963D01*
X107750005Y-40220120D01*
X107750005Y-40049278D01*
X107692335Y-40049278D01*
X107634767Y-40049278D01*
X107634767Y-40205961D01*
X107634767Y-40362644D01*
X107549914Y-40362644D01*
X107464958Y-40362644D01*
X107464958Y-40205961D01*
X107464958Y-40049278D01*
X107404290Y-40049278D01*
X107343622Y-40049278D01*
X107343728Y-40220120D01*
X107343728Y-40390963D01*
X107251227Y-40390344D01*
X107158726Y-40389725D01*
X107158196Y-40119353D01*
X107157484Y-39849187D01*
X107547847Y-39849187D01*
X107938004Y-39849187D01*
X107938004Y-40120075D01*
G37*
G36*
X107937800Y-39512567D02*
G01*
X107937800Y-39770329D01*
X107839718Y-39770434D01*
X107741637Y-39770329D01*
X107741637Y-39611682D01*
X107741637Y-39453036D01*
X107486665Y-39453036D01*
X107235109Y-39453609D01*
X107157486Y-39456549D01*
X107157484Y-39456549D01*
X107157589Y-39254908D01*
X107548883Y-39254908D01*
X107937800Y-39254908D01*
X107937800Y-39512567D01*
G37*
G36*
X104365194Y-41661561D02*
G01*
X104472480Y-41727728D01*
X104390326Y-41886354D01*
X104266188Y-41979496D01*
X104140215Y-41863877D01*
X104048631Y-41689385D01*
X104048630Y-41689385D01*
X104053075Y-41674708D01*
X104175574Y-41639610D01*
X104365194Y-41661561D01*
G37*
G36*
X104305872Y-42259161D02*
G01*
X104334607Y-42424740D01*
X104226089Y-42432616D01*
X104033652Y-42376800D01*
X103936388Y-42295653D01*
X103948170Y-42275602D01*
X104118686Y-42159831D01*
X104245620Y-42121296D01*
X104305872Y-42259161D01*
G37*
G36*
X104723743Y-41996324D02*
G01*
X104758044Y-42138039D01*
X104681220Y-42255304D01*
X104571905Y-42349190D01*
X104400956Y-42238822D01*
X104267220Y-42059698D01*
X104439436Y-41940170D01*
X104648179Y-41883688D01*
X104723743Y-41996324D01*
G37*
X115800000Y-26100000D02*
X115800000Y-32300000D01*
X115800000Y-51950000D02*
X115800000Y-50950000D01*
X115800000Y-51950000D02*
X117300000Y-51950000D01*
X134200000Y-26100000D02*
X115800000Y-26100000D01*
X134200000Y-32900000D02*
X134200000Y-26100000D01*
X134200000Y-32900000D02*
X134600000Y-32900000D01*
X134200000Y-50950000D02*
X134200000Y-51950000D01*
X134200000Y-51950000D02*
X132700000Y-51950000D01*
X109200000Y-86950000D02*
X107700000Y-86950000D01*
X109200000Y-85950000D02*
X109200000Y-86950000D01*
X109200000Y-67900000D02*
X109600000Y-67900000D01*
X109200000Y-67900000D02*
X109200000Y-67000000D01*
X90800000Y-86950000D02*
X92300000Y-86950000D01*
X90800000Y-86950000D02*
X90800000Y-85950000D01*
X90800000Y-67000000D02*
X90800000Y-67300000D01*
G36*
X126059830Y-123439436D02*
G01*
X126116312Y-123648179D01*
X126003676Y-123723743D01*
X125861961Y-123758044D01*
X125744696Y-123681220D01*
X125650810Y-123571905D01*
X125761178Y-123400956D01*
X125940302Y-123267220D01*
X126059830Y-123439436D01*
G37*
G36*
X125724398Y-122948170D02*
G01*
X125840169Y-123118686D01*
X125878704Y-123245620D01*
X125740839Y-123305872D01*
X125575260Y-123334607D01*
X125567384Y-123226089D01*
X125623200Y-123033652D01*
X125704347Y-122936388D01*
X125724398Y-122948170D01*
G37*
G36*
X126325292Y-123053075D02*
G01*
X126360390Y-123175574D01*
X126338439Y-123365194D01*
X126272272Y-123472480D01*
X126113646Y-123390326D01*
X126020504Y-123266188D01*
X126136123Y-123140215D01*
X126310615Y-123048631D01*
X126310615Y-123048630D01*
X126325292Y-123053075D01*
G37*
G36*
X128745092Y-126157589D02*
G01*
X128745092Y-126548883D01*
X128745092Y-126937800D01*
X128487433Y-126937800D01*
X128229671Y-126937800D01*
X128229566Y-126839718D01*
X128229671Y-126741637D01*
X128388318Y-126741637D01*
X128546964Y-126741637D01*
X128546964Y-126486665D01*
X128546391Y-126235109D01*
X128543451Y-126157486D01*
X128543451Y-126157484D01*
X128745092Y-126157589D01*
G37*
G36*
X128150813Y-126547847D02*
G01*
X128150813Y-126938004D01*
X127879925Y-126938004D01*
X127609037Y-126938004D01*
X127609037Y-126843953D01*
X127609037Y-126750005D01*
X127779880Y-126750005D01*
X127950722Y-126750005D01*
X127950722Y-126692335D01*
X127950722Y-126634767D01*
X127794039Y-126634767D01*
X127637356Y-126634767D01*
X127637356Y-126549914D01*
X127637356Y-126464958D01*
X127794039Y-126464958D01*
X127950722Y-126464958D01*
X127950722Y-126404290D01*
X127950722Y-126343622D01*
X127779880Y-126343728D01*
X127609037Y-126343728D01*
X127609656Y-126251227D01*
X127610275Y-126158726D01*
X127880647Y-126158196D01*
X128150813Y-126157484D01*
X128150813Y-126547847D01*
G37*
G36*
X126664690Y-126434159D02*
G01*
X126664071Y-126710525D01*
X126659626Y-126732745D01*
X126646500Y-126778220D01*
X126638439Y-126796411D01*
X126558443Y-126889635D01*
X126435970Y-126942242D01*
X126406411Y-126946999D01*
X126283628Y-126944210D01*
X126086948Y-126825561D01*
X126054702Y-126761276D01*
X126049121Y-126738331D01*
X126043539Y-126718591D01*
X126043539Y-126438608D01*
X126043539Y-126158728D01*
X126143171Y-126158199D01*
X126242700Y-126157580D01*
X126242700Y-126423507D01*
X126243247Y-126657037D01*
X126246939Y-126701836D01*
X126271434Y-126740697D01*
X126395354Y-126763124D01*
X126462843Y-126692121D01*
X126464507Y-126619202D01*
X126465119Y-126418959D01*
X126465013Y-126157580D01*
X126565162Y-126157580D01*
X126665219Y-126157484D01*
X126664690Y-126434159D01*
G37*
G36*
X127507028Y-126158526D02*
G01*
X127507854Y-126548373D01*
X127508473Y-126938013D01*
X127409461Y-126938013D01*
X127310345Y-126938013D01*
X127310345Y-126811716D01*
X127315304Y-126630228D01*
X127321298Y-126565529D01*
X127319853Y-126555918D01*
X127310242Y-126573591D01*
X127301250Y-126597362D01*
X127274792Y-126664335D01*
X127249470Y-126728827D01*
X127237378Y-126760039D01*
X127222702Y-126798487D01*
X127213710Y-126821741D01*
X127144774Y-126822360D01*
X127075941Y-126822980D01*
X127073565Y-126814298D01*
X127067778Y-126797658D01*
X127060026Y-126778434D01*
X127046590Y-126743811D01*
X127037392Y-126718387D01*
X127029227Y-126697406D01*
X127018892Y-126670327D01*
X127012897Y-126654204D01*
X126983545Y-126577930D01*
X126971453Y-126556122D01*
X126969384Y-126564701D01*
X126976619Y-126647073D01*
X126982200Y-126828974D01*
X126981581Y-126937081D01*
X126882569Y-126937081D01*
X126783556Y-126937081D01*
X126783556Y-126547957D01*
X126783556Y-126158834D01*
X126882259Y-126158834D01*
X126981064Y-126158834D01*
X126991089Y-126181055D01*
X127006282Y-126216402D01*
X127013103Y-126231594D01*
X127020752Y-126248854D01*
X127043592Y-126302391D01*
X127074702Y-126374325D01*
X127084520Y-126396752D01*
X127094545Y-126419800D01*
X127124621Y-126488426D01*
X127131752Y-126505583D01*
X127140641Y-126526460D01*
X127145599Y-126536279D01*
X127156141Y-126513128D01*
X127166580Y-126488736D01*
X127174641Y-126470133D01*
X127182702Y-126451012D01*
X127190661Y-126432202D01*
X127201616Y-126407294D01*
X127232209Y-126336601D01*
X127240064Y-126318514D01*
X127259597Y-126272005D01*
X127268072Y-126252782D01*
X127280681Y-126224463D01*
X127292980Y-126195111D01*
X127302902Y-126172373D01*
X127308067Y-126159764D01*
X127407596Y-126158213D01*
X127407396Y-126158103D01*
X127507028Y-126158526D01*
G37*
G36*
X126436709Y-121072411D02*
G01*
X126563520Y-121130504D01*
X126665326Y-121255167D01*
X126630286Y-121407593D01*
X126457468Y-121470567D01*
X126274132Y-121429607D01*
X126112178Y-121519834D01*
X126128094Y-121710830D01*
X126302655Y-121846353D01*
X126498391Y-121932468D01*
X126688680Y-122011173D01*
X126904951Y-122124097D01*
X127113097Y-122251389D01*
X127312394Y-122392266D01*
X127502119Y-122545943D01*
X127681548Y-122711635D01*
X127849959Y-122888558D01*
X128006628Y-123075927D01*
X128150830Y-123272958D01*
X128281843Y-123478865D01*
X128398944Y-123692864D01*
X128501408Y-123914170D01*
X128588513Y-124141999D01*
X128650712Y-124365238D01*
X128698858Y-124598415D01*
X128730880Y-124833888D01*
X128744707Y-125064015D01*
X128738271Y-125281155D01*
X128696959Y-125495671D01*
X128619779Y-125678645D01*
X128507587Y-125828821D01*
X128361612Y-125944676D01*
X128183637Y-126025365D01*
X127975320Y-126070667D01*
X127965811Y-126070349D01*
X127687576Y-126114208D01*
X127436126Y-126131143D01*
X127210302Y-126125230D01*
X126904379Y-126101829D01*
X126896833Y-126101252D01*
X126269481Y-126023841D01*
X126259650Y-125967519D01*
X126290774Y-125967519D01*
X126293150Y-125973203D01*
X126904379Y-126048651D01*
X126815720Y-125940639D01*
X126809812Y-125901993D01*
X126794679Y-125890400D01*
X126678346Y-125863546D01*
X126564554Y-125844013D01*
X126564554Y-125844119D01*
X126474637Y-125837814D01*
X126474636Y-125837813D01*
X126414071Y-125840602D01*
X126358571Y-125873158D01*
X126295732Y-125942818D01*
X126290774Y-125967519D01*
X126259650Y-125967519D01*
X126251188Y-125919041D01*
X126401979Y-125794708D01*
X126529733Y-125792885D01*
X126687750Y-125818169D01*
X126901587Y-125801942D01*
X127041837Y-125751299D01*
X126952230Y-125681123D01*
X126747613Y-125545247D01*
X126586774Y-125410648D01*
X126528483Y-125350393D01*
X126503678Y-125386153D01*
X126413968Y-125524853D01*
X126265485Y-125751691D01*
X126153614Y-125900681D01*
X126068563Y-125984773D01*
X125873123Y-126158613D01*
X125926350Y-126158825D01*
X125926667Y-126545881D01*
X125926786Y-126820015D01*
X125926350Y-126935521D01*
X125926350Y-126935627D01*
X125826304Y-126938109D01*
X125727188Y-126938109D01*
X125726569Y-126814292D01*
X125725950Y-126690475D01*
X125709827Y-126690052D01*
X125693600Y-126689628D01*
X125685435Y-126700170D01*
X125658976Y-126736531D01*
X125654223Y-126743062D01*
X125628901Y-126777685D01*
X125613605Y-126798665D01*
X125587457Y-126834735D01*
X125554074Y-126880108D01*
X125523068Y-126922999D01*
X125512113Y-126938089D01*
X125388916Y-126938089D01*
X125265720Y-126938089D01*
X125279466Y-126920415D01*
X125308404Y-126883828D01*
X125326594Y-126860574D01*
X125335896Y-126849205D01*
X125366385Y-126810758D01*
X125395531Y-126774068D01*
X125408140Y-126758875D01*
X125440076Y-126717844D01*
X125465914Y-126685494D01*
X125476250Y-126671025D01*
X125472942Y-126669167D01*
X125464869Y-126665015D01*
X125418682Y-126641262D01*
X125342924Y-126535738D01*
X125326697Y-126422257D01*
X125329607Y-126401398D01*
X125524824Y-126401398D01*
X125540636Y-126489454D01*
X125581564Y-126515913D01*
X125658976Y-126520871D01*
X125726155Y-126519114D01*
X125726684Y-126429404D01*
X125726155Y-126342485D01*
X125660423Y-126342485D01*
X125583528Y-126346104D01*
X125524824Y-126401398D01*
X125329607Y-126401398D01*
X125340754Y-126321488D01*
X125348919Y-126300921D01*
X125343544Y-126284178D01*
X125345049Y-126265797D01*
X125395943Y-126265797D01*
X125464869Y-126316610D01*
X125502125Y-126268524D01*
X125588686Y-126191919D01*
X125805530Y-126157174D01*
X125925811Y-126031583D01*
X126042828Y-125940442D01*
X125804053Y-125929827D01*
X125700317Y-125822723D01*
X125579601Y-125894244D01*
X125498469Y-125931244D01*
X125470563Y-125964213D01*
X125405761Y-126187869D01*
X125395943Y-126265797D01*
X125345049Y-126265797D01*
X125350366Y-126200875D01*
X125382953Y-126055658D01*
X125422816Y-125945387D01*
X125467981Y-125892884D01*
X125558725Y-125850923D01*
X125660114Y-125792941D01*
X125724089Y-125660443D01*
X125805428Y-125461075D01*
X125889128Y-125257063D01*
X125969863Y-125043323D01*
X126007793Y-124885814D01*
X126021849Y-124800340D01*
X125917633Y-124671887D01*
X125859307Y-124599997D01*
X125734220Y-124401163D01*
X125646261Y-124201276D01*
X125595106Y-123997777D01*
X125580429Y-123788103D01*
X125471147Y-123651507D01*
X125385542Y-123498056D01*
X125331545Y-123301734D01*
X125317086Y-123036521D01*
X125273574Y-122917665D01*
X125265659Y-122867348D01*
X125324216Y-122867348D01*
X125332071Y-122903418D01*
X125372171Y-123016073D01*
X125376923Y-123033230D01*
X125389221Y-123293038D01*
X125439721Y-123478891D01*
X125522642Y-123622704D01*
X125632205Y-123756390D01*
X125637579Y-123765485D01*
X125640162Y-123769104D01*
X125750695Y-124046567D01*
X125829710Y-124236861D01*
X125883318Y-124351144D01*
X125917633Y-124400573D01*
X125938765Y-124396305D01*
X125952829Y-124349497D01*
X125965934Y-124271306D01*
X125984195Y-124172890D01*
X126013722Y-124065405D01*
X126060629Y-123960009D01*
X126131028Y-123867858D01*
X126231030Y-123800110D01*
X126333866Y-123721355D01*
X126479990Y-123530147D01*
X126571164Y-123288410D01*
X126577676Y-123276525D01*
X126667903Y-123162319D01*
X126585737Y-123257714D01*
X126562576Y-123073509D01*
X126477216Y-122948896D01*
X126590476Y-122804576D01*
X126745520Y-122703639D01*
X126587705Y-122725663D01*
X126383682Y-122830247D01*
X126355570Y-122833453D01*
X126421131Y-122926465D01*
X126333347Y-122929653D01*
X126192479Y-122869110D01*
X126008526Y-122805955D01*
X125874773Y-122797900D01*
X125727753Y-122762675D01*
X125751679Y-122703229D01*
X125775554Y-122696614D01*
X125756847Y-122682662D01*
X125569055Y-122514300D01*
X125379518Y-122437306D01*
X125533108Y-122604026D01*
X125608436Y-122731439D01*
X125454753Y-122855491D01*
X125376719Y-123002121D01*
X125324216Y-122867348D01*
X125265659Y-122867348D01*
X125244325Y-122731733D01*
X125242318Y-122539548D01*
X125287424Y-122387155D01*
X125307164Y-122374132D01*
X125360391Y-122371137D01*
X125600686Y-122463844D01*
X125794473Y-122636857D01*
X125970789Y-122625436D01*
X126146090Y-122655954D01*
X126366324Y-122771526D01*
X126642698Y-122651975D01*
X126844331Y-122657631D01*
X126865105Y-122678612D01*
X126865169Y-122891595D01*
X126774497Y-123109003D01*
X126626463Y-123310821D01*
X126557059Y-123498174D01*
X126460479Y-123660567D01*
X126465644Y-123659017D01*
X126660399Y-123618496D01*
X126871377Y-123623452D01*
X127093059Y-123670724D01*
X127319931Y-123757150D01*
X127546477Y-123879569D01*
X127767182Y-124034819D01*
X127976528Y-124219739D01*
X128169002Y-124431166D01*
X128277771Y-124503657D01*
X128289895Y-124423581D01*
X128288479Y-124418328D01*
X128250150Y-124276062D01*
X128203315Y-124146222D01*
X128190989Y-124117814D01*
X128227501Y-124117814D01*
X128234219Y-124135488D01*
X128280624Y-124247418D01*
X128288479Y-124266332D01*
X128307186Y-124257857D01*
X128540144Y-124169801D01*
X128559780Y-124163600D01*
X128553063Y-124144169D01*
X128511204Y-124030068D01*
X128509654Y-124026141D01*
X128506453Y-124023040D01*
X128497872Y-124014462D01*
X128486297Y-124018182D01*
X128244761Y-124110166D01*
X128227501Y-124117814D01*
X128190989Y-124117814D01*
X128158565Y-124043083D01*
X128109461Y-123929910D01*
X128048829Y-123813751D01*
X128088801Y-123813751D01*
X128097587Y-123830804D01*
X128149366Y-123937981D01*
X128158565Y-123957618D01*
X128177375Y-123946869D01*
X128405371Y-123832354D01*
X128424285Y-123824086D01*
X128415500Y-123805482D01*
X128362170Y-123695825D01*
X128353592Y-123678979D01*
X128336331Y-123686627D01*
X128105545Y-123804242D01*
X128088801Y-123813751D01*
X128048829Y-123813751D01*
X128000413Y-123720996D01*
X127999918Y-123720190D01*
X127876956Y-123520286D01*
X127875067Y-123517645D01*
X127915996Y-123517645D01*
X127926744Y-123534077D01*
X127989066Y-123636190D01*
X127999918Y-123654380D01*
X128017488Y-123642495D01*
X128238250Y-123516094D01*
X128258300Y-123506793D01*
X128246931Y-123487775D01*
X128182646Y-123383596D01*
X128173137Y-123368713D01*
X128157221Y-123376258D01*
X127932325Y-123506689D01*
X127915996Y-123517645D01*
X127875067Y-123517645D01*
X127811092Y-123428182D01*
X127739872Y-123328587D01*
X127667306Y-123240556D01*
X127713527Y-123240556D01*
X127726240Y-123256575D01*
X127799103Y-123351557D01*
X127811092Y-123367783D01*
X127827215Y-123355587D01*
X128038262Y-123210790D01*
X128057072Y-123199421D01*
X128044050Y-123181748D01*
X127970049Y-123085010D01*
X127959094Y-123071160D01*
X127944004Y-123080255D01*
X127729650Y-123228153D01*
X127713527Y-123240556D01*
X127667306Y-123240556D01*
X127591984Y-123149182D01*
X127589944Y-123146706D01*
X127433925Y-122981760D01*
X127481603Y-122981760D01*
X127496073Y-122996539D01*
X127578548Y-123083252D01*
X127591984Y-123098032D01*
X127606763Y-123084596D01*
X127805408Y-122923676D01*
X127823598Y-122910653D01*
X127808612Y-122894013D01*
X127725516Y-122804923D01*
X127713527Y-122792418D01*
X127699471Y-122802546D01*
X127496899Y-122967807D01*
X127481603Y-122981760D01*
X127433925Y-122981760D01*
X127427956Y-122975450D01*
X127344868Y-122898807D01*
X127254692Y-122815626D01*
X127167245Y-122745392D01*
X127223118Y-122745392D01*
X127239758Y-122759242D01*
X127330708Y-122836653D01*
X127344868Y-122849468D01*
X127358303Y-122835826D01*
X127548576Y-122664674D01*
X127567283Y-122650101D01*
X127549713Y-122634184D01*
X127457109Y-122552742D01*
X127444500Y-122541890D01*
X127431581Y-122552432D01*
X127238310Y-122729992D01*
X127223118Y-122745392D01*
X127167245Y-122745392D01*
X127072636Y-122669406D01*
X127070935Y-122668039D01*
X126879428Y-122534862D01*
X126940345Y-122534862D01*
X126959258Y-122547678D01*
X127058063Y-122616201D01*
X127072636Y-122626846D01*
X127084728Y-122613411D01*
X127263219Y-122427065D01*
X127280479Y-122410736D01*
X127261358Y-122396576D01*
X127161209Y-122325056D01*
X127147670Y-122315651D01*
X127135888Y-122327123D01*
X126955434Y-122517809D01*
X126940345Y-122534862D01*
X126879428Y-122534862D01*
X126877467Y-122533498D01*
X126786246Y-122479101D01*
X126675073Y-122412808D01*
X126568759Y-122359266D01*
X126645376Y-122359266D01*
X126665633Y-122370118D01*
X126770846Y-122428822D01*
X126786246Y-122437814D01*
X126796994Y-122423551D01*
X126963186Y-122226147D01*
X126980549Y-122207957D01*
X126958948Y-122195141D01*
X126850841Y-122132819D01*
X126837198Y-122125378D01*
X126826553Y-122136747D01*
X126659018Y-122340662D01*
X126645376Y-122359266D01*
X126568759Y-122359266D01*
X126466265Y-122307648D01*
X126464536Y-122306777D01*
X126246639Y-122216211D01*
X126228553Y-122207130D01*
X126317230Y-122207130D01*
X126339657Y-122216122D01*
X126450762Y-122264388D01*
X126466265Y-122271312D01*
X126475566Y-122257153D01*
X126637624Y-122053031D01*
X126655918Y-122033497D01*
X126632146Y-122021405D01*
X126513394Y-121970039D01*
X126500578Y-121965181D01*
X126491483Y-121975413D01*
X126406292Y-122078340D01*
X126330253Y-122186873D01*
X126317230Y-122207130D01*
X126228553Y-122207130D01*
X126128921Y-122157105D01*
X126078049Y-122131563D01*
X125939184Y-122038975D01*
X125990118Y-122038975D01*
X126004794Y-122050137D01*
X126112488Y-122118867D01*
X126128921Y-122127859D01*
X126138946Y-122112046D01*
X126293872Y-121909474D01*
X126311235Y-121890043D01*
X126288084Y-121878262D01*
X126186695Y-121815629D01*
X126172019Y-121804468D01*
X126159720Y-121818110D01*
X126000040Y-122023472D01*
X125990118Y-122038975D01*
X125939184Y-122038975D01*
X125929552Y-122032553D01*
X125787507Y-121878147D01*
X125712303Y-121677178D01*
X125715415Y-121461789D01*
X125808320Y-121264124D01*
X125951229Y-121135735D01*
X126114571Y-121069434D01*
X126290460Y-121052871D01*
X126290565Y-121052782D01*
X126436709Y-121072411D01*
G37*
M02*
