M48
; DRILL file {KiCad 7.0.4-40-g0180cb380f} date Wed Jul  5 14:48:12 2023
; FORMAT={-:-/ absolute / inch / decimal}
; #@! TF.CreationDate,2023-07-05T14:48:12-07:00
; #@! TF.GenerationSoftware,Kicad,Pcbnew,7.0.4-40-g0180cb380f
; #@! TF.FileFunction,NonPlated,1,2,NPTH
FMAT,2
INCH
; #@! TA.AperFunction,NonPlated,NPTH,ComponentDrill
T1C0.0150
; #@! TA.AperFunction,NonPlated,NPTH,ComponentDrill
T2C0.0244
; #@! TA.AperFunction,NonPlated,NPTH,ComponentDrill
T3C0.0256
; #@! TA.AperFunction,NonPlated,NPTH,ComponentDrill
T4C0.0390
; #@! TA.AperFunction,NonPlated,NPTH,ComponentDrill
T5C0.0433
; #@! TA.AperFunction,NonPlated,NPTH,ComponentDrill
T6C0.0454
; #@! TA.AperFunction,NonPlated,NPTH,ComponentDrill
T7C0.0630
; #@! TA.AperFunction,NonPlated,NPTH,ComponentDrill
T8C0.0787
; #@! TA.AperFunction,NonPlated,NPTH,ComponentDrill
T9C0.0827
; #@! TA.AperFunction,NonPlated,NPTH,ComponentDrill
T10C0.0935
; #@! TA.AperFunction,NonPlated,NPTH,ComponentDrill
T11C0.1063
%
G90
G05
T1
X3.4183Y-0.9374
X3.4183Y-1.0311
X3.4183Y-2.1972
X3.4433Y-0.9374
X3.4433Y-1.0311
X3.4433Y-2.1972
X3.4683Y-0.9374
X3.4683Y-1.0311
X3.4683Y-2.1972
X3.4933Y-0.9374
X3.4933Y-1.0311
X3.4933Y-2.1972
X3.5183Y-0.9374
X3.5183Y-1.0311
X3.5183Y-2.1972
X3.5433Y-0.9374
X3.5433Y-1.0311
X3.5433Y-2.1972
X3.5683Y-0.9374
X3.5683Y-1.0311
X3.5683Y-2.1972
X3.5933Y-0.9374
X3.5933Y-1.0311
X3.5933Y-2.1972
X3.6152Y-2.6059
X3.6183Y-0.9374
X3.6183Y-1.0311
X3.6183Y-2.1972
X3.6402Y-2.6059
X3.6433Y-0.9374
X3.6433Y-1.0311
X3.6433Y-2.1972
X3.6652Y-2.6059
X3.6683Y-0.9374
X3.6683Y-1.0311
X3.6683Y-2.1972
X3.6902Y-2.6059
X3.7152Y-2.6059
X3.7402Y-2.6059
X3.7652Y-2.6059
X3.7902Y-2.6059
X3.8152Y-2.6059
X3.8402Y-2.6059
X3.8652Y-2.6059
X4.0089Y-2.6059
X4.0339Y-2.6059
X4.0589Y-2.6059
X4.0839Y-2.6059
X4.1089Y-2.6059
X4.1339Y-2.6059
X4.1589Y-2.6059
X4.1839Y-2.6059
X4.2089Y-2.6059
X4.2339Y-2.6059
X4.2589Y-2.6059
X4.875Y-0.9374
X4.875Y-1.2673
X4.875Y-2.1972
X4.9Y-0.9374
X4.9Y-1.2673
X4.9Y-2.1972
X4.925Y-0.9374
X4.925Y-1.2673
X4.925Y-2.1972
X4.95Y-0.9374
X4.95Y-1.2673
X4.95Y-2.1972
X4.975Y-0.9374
X4.975Y-1.2673
X4.975Y-2.1972
X5.0Y-0.9374
X5.0Y-1.2673
X5.0Y-2.1972
X5.025Y-0.9374
X5.025Y-1.2673
X5.025Y-2.1972
X5.05Y-0.9374
X5.05Y-1.2673
X5.05Y-2.1972
X5.075Y-0.9374
X5.075Y-1.2673
X5.075Y-2.1972
X5.1Y-0.9374
X5.1Y-1.2673
X5.1Y-2.1972
X5.125Y-0.9374
X5.125Y-1.2673
X5.125Y-2.1972
T2
X4.0433Y-0.3071
X4.0433Y-0.4016
T3
X3.8232Y-5.2518
X4.0508Y-5.2518
T4
X3.09Y-3.1465
X3.1465Y-3.09
X3.2597Y-3.2597
X5.2836Y-0.8581
X5.2836Y-2.118
X5.3968Y-0.6884
X5.3968Y-1.9482
X5.4533Y-0.745
X5.4533Y-2.0048
T5
X2.8528Y-0.1685
X2.8528Y-0.6409
T6
X2.4606Y0.1378
X2.4606Y-0.8465
X2.4606Y-1.122
X2.4606Y-2.1063
X2.9528Y-5.0787
X4.9213Y-2.7953
X4.9213Y-5.0787
X5.4134Y0.1378
X5.4134Y-1.122
T8
X5.3898Y-0.3543
X5.3898Y-1.6142
T9
X3.937Y-1.6142
X3.937Y-3.937
T10
X3.1006Y-3.242
X3.189Y-3.3304
X3.242Y-3.1006
X3.3304Y-3.189
T11
X2.7096Y-3.2283
X2.7096Y-4.6457
X3.7402Y-0.0134
X3.7402Y-0.6953
X3.7402Y-1.2732
X3.7402Y-1.9551
X3.937Y0.0394
X3.937Y-0.748
X3.937Y-1.2205
X3.937Y-2.0079
X4.1339Y-0.0134
X4.1339Y-0.6953
X4.1339Y-1.2732
X4.1339Y-1.9551
X5.1644Y-3.2283
X5.1644Y-4.6457
T7
G00X3.937Y-3.7913
M15
G01X3.937Y-3.8071
M16
G05
G00X4.0827Y-1.6142
M15
G01X4.0669Y-1.6142
M16
G05
T0
M30
