G04 #@! TF.GenerationSoftware,KiCad,Pcbnew,7.0.4-40-g0180cb380f*
G04 #@! TF.CreationDate,2023-07-05T14:48:10-07:00*
G04 #@! TF.ProjectId,IotKnob,496f744b-6e6f-4622-9e6b-696361645f70,rev?*
G04 #@! TF.SameCoordinates,Original*
G04 #@! TF.FileFunction,Soldermask,Bot*
G04 #@! TF.FilePolarity,Negative*
%FSLAX46Y46*%
G04 Gerber Fmt 4.6, Leading zero omitted, Abs format (unit mm)*
G04 Created by KiCad (PCBNEW 7.0.4-40-g0180cb380f) date 2023-07-05 14:48:10*
%MOMM*%
%LPD*%
G01*
G04 APERTURE LIST*
G04 Aperture macros list*
%AMRoundRect*
0 Rectangle with rounded corners*
0 $1 Rounding radius*
0 $2 $3 $4 $5 $6 $7 $8 $9 X,Y pos of 4 corners*
0 Add a 4 corners polygon primitive as box body*
4,1,4,$2,$3,$4,$5,$6,$7,$8,$9,$2,$3,0*
0 Add four circle primitives for the rounded corners*
1,1,$1+$1,$2,$3*
1,1,$1+$1,$4,$5*
1,1,$1+$1,$6,$7*
1,1,$1+$1,$8,$9*
0 Add four rect primitives between the rounded corners*
20,1,$1+$1,$2,$3,$4,$5,0*
20,1,$1+$1,$4,$5,$6,$7,0*
20,1,$1+$1,$6,$7,$8,$9,0*
20,1,$1+$1,$8,$9,$2,$3,0*%
%AMHorizOval*
0 Thick line with rounded ends*
0 $1 width*
0 $2 $3 position (X,Y) of the first rounded end (center of the circle)*
0 $4 $5 position (X,Y) of the second rounded end (center of the circle)*
0 Add line between two ends*
20,1,$1,$2,$3,$4,$5,0*
0 Add two circle primitives to create the rounded ends*
1,1,$1,$2,$3*
1,1,$1,$4,$5*%
G04 Aperture macros list end*
%ADD10C,2.500000*%
%ADD11C,0.650000*%
%ADD12C,0.380000*%
%ADD13C,0.620000*%
%ADD14C,2.700000*%
%ADD15R,4.000000X4.000000*%
%ADD16R,1.500000X0.900000*%
%ADD17C,1.152000*%
%ADD18C,2.000000*%
%ADD19C,1.100000*%
%ADD20R,2.030000X1.730000*%
%ADD21O,2.030000X1.730000*%
%ADD22C,0.990600*%
%ADD23R,3.900000X3.900000*%
%ADD24C,0.600000*%
%ADD25R,0.900000X1.500000*%
%ADD26C,2.100000*%
%ADD27C,1.600000*%
%ADD28O,1.750000X1.200000*%
%ADD29RoundRect,0.250000X-0.625000X0.350000X-0.625000X-0.350000X0.625000X-0.350000X0.625000X0.350000X0*%
%ADD30C,2.374900*%
%ADD31RoundRect,0.250000X-0.689429X-0.194454X-0.194454X-0.689429X0.689429X0.194454X0.194454X0.689429X0*%
%ADD32HorizOval,1.200000X-0.194454X-0.194454X0.194454X0.194454X0*%
%ADD33C,0.650000*%
%ADD34O,1.000000X2.100000*%
%ADD35O,1.000000X1.600000*%
G04 APERTURE END LIST*
D10*
X96250000Y-9000000D02*
G75*
G03*
X96250000Y-9000000I-1250000J0D01*
G01*
D11*
X62825000Y-21500000D02*
G75*
G03*
X62825000Y-21500000I-325000J0D01*
G01*
X137825000Y3500000D02*
G75*
G03*
X137825000Y3500000I-325000J0D01*
G01*
X62825000Y3500000D02*
G75*
G03*
X62825000Y3500000I-325000J0D01*
G01*
D10*
X96250000Y-41000000D02*
G75*
G03*
X96250000Y-41000000I-1250000J0D01*
G01*
D11*
X62825000Y-53500000D02*
G75*
G03*
X62825000Y-53500000I-325000J0D01*
G01*
X62825000Y-28500000D02*
G75*
G03*
X62825000Y-28500000I-325000J0D01*
G01*
X137825000Y-28500000D02*
G75*
G03*
X137825000Y-28500000I-325000J0D01*
G01*
X75325000Y-129000000D02*
G75*
G03*
X75325000Y-129000000I-325000J0D01*
G01*
X125325000Y-71000000D02*
G75*
G03*
X125325000Y-71000000I-325000J0D01*
G01*
X125325000Y-129000000D02*
G75*
G03*
X125325000Y-129000000I-325000J0D01*
G01*
D12*
X123825000Y-55810000D03*
X124460000Y-55810000D03*
X125095000Y-55810000D03*
X125730000Y-55810000D03*
X126365000Y-55810000D03*
X127000000Y-55810000D03*
X127635000Y-55810000D03*
X128270000Y-55810000D03*
X128905000Y-55810000D03*
X129540000Y-55810000D03*
X130175000Y-55810000D03*
X93175000Y-55810000D03*
X92540000Y-55810000D03*
X91905000Y-55810000D03*
X91270000Y-55810000D03*
X90635000Y-55810000D03*
X90000000Y-55810000D03*
X89365000Y-55810000D03*
X88730000Y-55810000D03*
X88095000Y-55810000D03*
X87460000Y-55810000D03*
X86825000Y-55810000D03*
X123825000Y-23810000D03*
X124460000Y-23810000D03*
X125095000Y-23810000D03*
X125730000Y-23810000D03*
X126365000Y-23810000D03*
X127000000Y-23810000D03*
X127635000Y-23810000D03*
X128270000Y-23810000D03*
X128905000Y-23810000D03*
X129540000Y-23810000D03*
X130175000Y-23810000D03*
X130175000Y-32190000D03*
X129540000Y-32190000D03*
X128905000Y-32190000D03*
X128270000Y-32190000D03*
X127635000Y-32190000D03*
X127000000Y-32190000D03*
X126365000Y-32190000D03*
X125730000Y-32190000D03*
X125095000Y-32190000D03*
X124460000Y-32190000D03*
X123825000Y-32190000D03*
X86825000Y-23810000D03*
X87460000Y-23810000D03*
X88095000Y-23810000D03*
X88730000Y-23810000D03*
X89365000Y-23810000D03*
X90000000Y-23810000D03*
X90635000Y-23810000D03*
X91270000Y-23810000D03*
X91905000Y-23810000D03*
X92540000Y-23810000D03*
X93175000Y-23810000D03*
X93175000Y-26190000D03*
X92540000Y-26190000D03*
X91905000Y-26190000D03*
X91270000Y-26190000D03*
X90635000Y-26190000D03*
X90000000Y-26190000D03*
X89365000Y-26190000D03*
X88730000Y-26190000D03*
X88095000Y-26190000D03*
X87460000Y-26190000D03*
X86825000Y-26190000D03*
X108175000Y-66190000D03*
X107540000Y-66190000D03*
X106905000Y-66190000D03*
X106270000Y-66190000D03*
X105635000Y-66190000D03*
X105000000Y-66190000D03*
X104365000Y-66190000D03*
X103730000Y-66190000D03*
X103095000Y-66190000D03*
X102460000Y-66190000D03*
X101825000Y-66190000D03*
X91825000Y-66190000D03*
X93095000Y-66190000D03*
X98175000Y-66190000D03*
X93730000Y-66190000D03*
X95635000Y-66190000D03*
X94365000Y-66190000D03*
X97540000Y-66190000D03*
X95000000Y-66190000D03*
X96270000Y-66190000D03*
X96905000Y-66190000D03*
X92460000Y-66190000D03*
D13*
X102700000Y-10200000D03*
X102700000Y-7800000D03*
D14*
X95000000Y-17660254D03*
D15*
X123900000Y-7610000D03*
D16*
X116250000Y-1000000D03*
X116250000Y-2500000D03*
X116250000Y-4000000D03*
X116250000Y-5500000D03*
X116250000Y-7000000D03*
X116250000Y-8500000D03*
X116250000Y-10000000D03*
X116250000Y-11500000D03*
X116250000Y-13000000D03*
X133750000Y-13000000D03*
X133750000Y-11500000D03*
X133750000Y-10000000D03*
X133750000Y-8500000D03*
X133750000Y-7000000D03*
X133750000Y-5500000D03*
X133750000Y-4000000D03*
X133750000Y-2500000D03*
X133750000Y-1000000D03*
D17*
X62500000Y-21500000D03*
D18*
X136900000Y-9000000D03*
D14*
X105000000Y-17660254D03*
X100000000Y1000000D03*
D19*
X72460000Y-4280000D03*
D20*
X70300000Y800000D03*
D21*
X70300000Y-1740000D03*
X70300000Y-4280000D03*
X70300000Y-6820000D03*
D14*
X100000000Y-19000000D03*
X95000000Y-339746D03*
D19*
X72460000Y-16280000D03*
D20*
X70300000Y-11200000D03*
D21*
X70300000Y-13740000D03*
X70300000Y-16280000D03*
X70300000Y-18820000D03*
D14*
X105000000Y-339746D03*
D17*
X137500000Y3500000D03*
D22*
X134203949Y-21796051D03*
X137077631Y-17485528D03*
X138514472Y-18922369D03*
D17*
X62500000Y3500000D03*
D23*
X126500000Y-41460000D03*
D24*
X127200000Y-40060000D03*
X127200000Y-41460000D03*
X127200000Y-42860000D03*
X127900000Y-40760000D03*
X127900000Y-42160000D03*
D16*
X116250000Y-33740000D03*
X116250000Y-35010000D03*
X116250000Y-36280000D03*
X116250000Y-37550000D03*
X116250000Y-38820000D03*
X116250000Y-40090000D03*
X116250000Y-42630000D03*
X116250000Y-43900000D03*
X116250000Y-45170000D03*
X116250000Y-46440000D03*
X116250000Y-47710000D03*
X116250000Y-48980000D03*
X116250000Y-50250000D03*
D25*
X118015000Y-51500000D03*
X119285000Y-51500000D03*
X120555000Y-51500000D03*
X121825000Y-51500000D03*
X123095000Y-51500000D03*
X124365000Y-51500000D03*
X125635000Y-51500000D03*
X126905000Y-51500000D03*
X128175000Y-51500000D03*
X129445000Y-51500000D03*
X131985000Y-51500000D03*
D16*
X133750000Y-50250000D03*
X133750000Y-48980000D03*
X133750000Y-47710000D03*
X133750000Y-46440000D03*
X133750000Y-43900000D03*
X133750000Y-42630000D03*
X133750000Y-41360000D03*
X133750000Y-40090000D03*
X133750000Y-38820000D03*
X133750000Y-37550000D03*
X133750000Y-36280000D03*
X133750000Y-35010000D03*
X133750000Y-33740000D03*
D26*
X100000000Y-41000000D03*
D27*
X103500000Y-41000000D03*
D17*
X62500000Y-53500000D03*
D28*
X64450000Y-34000000D03*
D29*
X64450000Y-32000000D03*
D14*
X100000000Y-31000000D03*
X105000000Y-49660254D03*
X95000000Y-49660254D03*
D28*
X64450000Y-50000000D03*
X64450000Y-48000000D03*
X64450000Y-46000000D03*
X64450000Y-44000000D03*
X64450000Y-42000000D03*
D29*
X64450000Y-40000000D03*
D18*
X136900000Y-41000000D03*
D14*
X105000000Y-32339746D03*
X100000000Y-51000000D03*
D17*
X62500000Y-28500000D03*
D22*
X138514472Y-50922369D03*
X137077631Y-49485528D03*
X134203949Y-53796051D03*
D17*
X137500000Y-28500000D03*
D14*
X95000000Y-32339746D03*
D16*
X108750000Y-68740000D03*
X108750000Y-70010000D03*
X108750000Y-71280000D03*
X108750000Y-72550000D03*
X108750000Y-73820000D03*
X108750000Y-75090000D03*
X108750000Y-76360000D03*
X108750000Y-77630000D03*
X108750000Y-78900000D03*
X108750000Y-80170000D03*
X108750000Y-81440000D03*
X108750000Y-82710000D03*
X108750000Y-83980000D03*
X108750000Y-85250000D03*
D25*
X106985000Y-86500000D03*
X105715000Y-86500000D03*
X104445000Y-86500000D03*
X103175000Y-86500000D03*
X101905000Y-86500000D03*
X100635000Y-86500000D03*
X99365000Y-86500000D03*
X98095000Y-86500000D03*
X96825000Y-86500000D03*
X95555000Y-86500000D03*
X94285000Y-86500000D03*
X93015000Y-86500000D03*
D16*
X91250000Y-85250000D03*
X91250000Y-83980000D03*
X91250000Y-82710000D03*
X91250000Y-81440000D03*
X91250000Y-80170000D03*
X91250000Y-78900000D03*
X91250000Y-77630000D03*
X91250000Y-76360000D03*
X91250000Y-75090000D03*
X91250000Y-73820000D03*
X91250000Y-72550000D03*
X91250000Y-71280000D03*
X91250000Y-70010000D03*
X91250000Y-68740000D03*
D24*
X102900000Y-77160000D03*
X102900000Y-75760000D03*
X102200000Y-77860000D03*
X102200000Y-76460000D03*
X102200000Y-75060000D03*
X101500000Y-77160000D03*
D23*
X101500000Y-76460000D03*
D24*
X101500000Y-75760000D03*
X100800000Y-77860000D03*
X100800000Y-76460000D03*
X100800000Y-75060000D03*
X100100000Y-77160000D03*
X100100000Y-75760000D03*
D14*
X68823085Y-118000000D03*
D30*
X81000000Y-84592102D03*
D22*
X82796051Y-82796051D03*
D30*
X84592102Y-81000000D03*
X78754936Y-82347038D03*
X82347038Y-78754936D03*
D22*
X78485528Y-79922369D03*
X79922369Y-78485528D03*
D17*
X75000000Y-129000000D03*
X125000000Y-71000000D03*
D14*
X68823085Y-82000000D03*
X131176915Y-82000000D03*
X131176915Y-118000000D03*
D27*
X100000000Y-96500000D03*
D26*
X100000000Y-100000000D03*
D31*
X118585786Y-118585786D03*
D32*
X120000000Y-120000000D03*
D17*
X125000000Y-129000000D03*
D33*
X97110000Y-133395000D03*
X102890000Y-133395000D03*
D34*
X95680000Y-132895000D03*
D35*
X95680000Y-137075000D03*
D34*
X104320000Y-132895000D03*
D35*
X104320000Y-137075000D03*
M02*
