G04 #@! TF.GenerationSoftware,KiCad,Pcbnew,7.0.4-40-g0180cb380f*
G04 #@! TF.CreationDate,2023-07-05T14:48:10-07:00*
G04 #@! TF.ProjectId,IotKnob,496f744b-6e6f-4622-9e6b-696361645f70,rev?*
G04 #@! TF.SameCoordinates,Original*
G04 #@! TF.FileFunction,Soldermask,Top*
G04 #@! TF.FilePolarity,Negative*
%FSLAX46Y46*%
G04 Gerber Fmt 4.6, Leading zero omitted, Abs format (unit mm)*
G04 Created by KiCad (PCBNEW 7.0.4-40-g0180cb380f) date 2023-07-05 14:48:10*
%MOMM*%
%LPD*%
G01*
G04 APERTURE LIST*
G04 Aperture macros list*
%AMRoundRect*
0 Rectangle with rounded corners*
0 $1 Rounding radius*
0 $2 $3 $4 $5 $6 $7 $8 $9 X,Y pos of 4 corners*
0 Add a 4 corners polygon primitive as box body*
4,1,4,$2,$3,$4,$5,$6,$7,$8,$9,$2,$3,0*
0 Add four circle primitives for the rounded corners*
1,1,$1+$1,$2,$3*
1,1,$1+$1,$4,$5*
1,1,$1+$1,$6,$7*
1,1,$1+$1,$8,$9*
0 Add four rect primitives between the rounded corners*
20,1,$1+$1,$2,$3,$4,$5,0*
20,1,$1+$1,$4,$5,$6,$7,0*
20,1,$1+$1,$6,$7,$8,$9,0*
20,1,$1+$1,$8,$9,$2,$3,0*%
%AMHorizOval*
0 Thick line with rounded ends*
0 $1 width*
0 $2 $3 position (X,Y) of the first rounded end (center of the circle)*
0 $4 $5 position (X,Y) of the second rounded end (center of the circle)*
0 Add line between two ends*
20,1,$1,$2,$3,$4,$5,0*
0 Add two circle primitives to create the rounded ends*
1,1,$1,$2,$3*
1,1,$1,$4,$5*%
%AMRotRect*
0 Rectangle, with rotation*
0 The origin of the aperture is its center*
0 $1 length*
0 $2 width*
0 $3 Rotation angle, in degrees counterclockwise*
0 Add horizontal line*
21,1,$1,$2,0,0,$3*%
G04 Aperture macros list end*
%ADD10C,0.650000*%
%ADD11C,0.700000*%
%ADD12C,2.500000*%
%ADD13C,0.380000*%
%ADD14R,2.000000X1.500000*%
%ADD15R,2.000000X3.800000*%
%ADD16RotRect,0.500000X0.500000X70.000000*%
%ADD17RoundRect,0.225000X0.250000X-0.225000X0.250000X0.225000X-0.250000X0.225000X-0.250000X-0.225000X0*%
%ADD18RotRect,0.500000X0.500000X190.000000*%
%ADD19C,0.620000*%
%ADD20R,1.300000X1.500000*%
%ADD21R,3.000000X1.700000*%
%ADD22RotRect,0.500000X0.500000X50.000000*%
%ADD23C,2.700000*%
%ADD24C,1.152000*%
%ADD25RotRect,0.500000X0.500000X30.000000*%
%ADD26RoundRect,0.225000X-0.225000X-0.250000X0.225000X-0.250000X0.225000X0.250000X-0.225000X0.250000X0*%
%ADD27C,2.000000*%
%ADD28R,4.400000X3.300000*%
%ADD29R,6.200000X3.900000*%
%ADD30R,0.500000X0.500000*%
%ADD31RoundRect,0.150000X0.587500X0.150000X-0.587500X0.150000X-0.587500X-0.150000X0.587500X-0.150000X0*%
%ADD32C,1.100000*%
%ADD33R,2.030000X1.730000*%
%ADD34O,2.030000X1.730000*%
%ADD35RotRect,0.500000X0.500000X170.000000*%
%ADD36RoundRect,0.200000X0.275000X-0.200000X0.275000X0.200000X-0.275000X0.200000X-0.275000X-0.200000X0*%
%ADD37RoundRect,0.250000X-1.175000X-0.450000X1.175000X-0.450000X1.175000X0.450000X-1.175000X0.450000X0*%
%ADD38RotRect,0.500000X0.500000X210.000000*%
%ADD39RoundRect,0.250000X-0.250000X-0.475000X0.250000X-0.475000X0.250000X0.475000X-0.250000X0.475000X0*%
%ADD40RotRect,0.500000X0.500000X350.000000*%
%ADD41RoundRect,0.225000X0.375000X-0.225000X0.375000X0.225000X-0.375000X0.225000X-0.375000X-0.225000X0*%
%ADD42RotRect,0.500000X0.500000X230.000000*%
%ADD43RoundRect,0.225000X-0.225000X-0.375000X0.225000X-0.375000X0.225000X0.375000X-0.225000X0.375000X0*%
%ADD44RoundRect,0.200000X-0.200000X-0.275000X0.200000X-0.275000X0.200000X0.275000X-0.200000X0.275000X0*%
%ADD45RoundRect,0.250000X-0.325000X-0.650000X0.325000X-0.650000X0.325000X0.650000X-0.325000X0.650000X0*%
%ADD46RoundRect,0.225000X0.225000X0.250000X-0.225000X0.250000X-0.225000X-0.250000X0.225000X-0.250000X0*%
%ADD47RoundRect,0.150000X0.512500X0.150000X-0.512500X0.150000X-0.512500X-0.150000X0.512500X-0.150000X0*%
%ADD48R,1.500000X4.000000*%
%ADD49RoundRect,0.200000X0.200000X0.275000X-0.200000X0.275000X-0.200000X-0.275000X0.200000X-0.275000X0*%
%ADD50RotRect,0.500000X0.500000X10.000000*%
%ADD51RoundRect,0.250000X0.250000X0.475000X-0.250000X0.475000X-0.250000X-0.475000X0.250000X-0.475000X0*%
%ADD52RotRect,0.500000X0.500000X110.000000*%
%ADD53RoundRect,0.250000X1.175000X0.450000X-1.175000X0.450000X-1.175000X-0.450000X1.175000X-0.450000X0*%
%ADD54RotRect,0.500000X0.500000X310.000000*%
%ADD55RoundRect,0.218750X-0.026517X0.335876X-0.335876X0.026517X0.026517X-0.335876X0.335876X-0.026517X0*%
%ADD56RotRect,0.500000X0.500000X130.000000*%
%ADD57RoundRect,0.200000X-0.275000X0.200000X-0.275000X-0.200000X0.275000X-0.200000X0.275000X0.200000X0*%
%ADD58RoundRect,0.250000X-0.450000X1.175000X-0.450000X-1.175000X0.450000X-1.175000X0.450000X1.175000X0*%
%ADD59RoundRect,0.150000X0.825000X0.150000X-0.825000X0.150000X-0.825000X-0.150000X0.825000X-0.150000X0*%
%ADD60RotRect,0.500000X0.500000X330.000000*%
%ADD61C,0.990600*%
%ADD62C,0.787400*%
%ADD63RotRect,0.500000X0.500000X290.000000*%
%ADD64RotRect,0.500000X0.500000X150.000000*%
%ADD65RotRect,0.500000X0.500000X250.000000*%
%ADD66R,2.400000X1.300000*%
%ADD67R,3.200000X2.500000*%
%ADD68R,4.000000X3.750000*%
%ADD69C,2.100000*%
%ADD70C,1.600000*%
%ADD71O,1.750000X1.200000*%
%ADD72RoundRect,0.250000X-0.625000X0.350000X-0.625000X-0.350000X0.625000X-0.350000X0.625000X0.350000X0*%
%ADD73RoundRect,0.225000X0.225000X0.375000X-0.225000X0.375000X-0.225000X-0.375000X0.225000X-0.375000X0*%
%ADD74R,1.700000X5.700000*%
%ADD75R,1.680000X1.880000*%
%ADD76RoundRect,0.100000X0.625000X0.100000X-0.625000X0.100000X-0.625000X-0.100000X0.625000X-0.100000X0*%
%ADD77RoundRect,0.250000X0.325000X0.650000X-0.325000X0.650000X-0.325000X-0.650000X0.325000X-0.650000X0*%
%ADD78RoundRect,0.250000X0.475000X-0.250000X0.475000X0.250000X-0.475000X0.250000X-0.475000X-0.250000X0*%
%ADD79RoundRect,0.225000X-0.250000X0.225000X-0.250000X-0.225000X0.250000X-0.225000X0.250000X0.225000X0*%
%ADD80RoundRect,0.250000X0.450000X-1.175000X0.450000X1.175000X-0.450000X1.175000X-0.450000X-1.175000X0*%
%ADD81RotRect,0.500000X0.500000X307.500000*%
%ADD82RotRect,0.500000X0.500000X337.500000*%
%ADD83RotRect,0.500000X0.500000X37.500000*%
%ADD84RoundRect,0.200000X-0.053033X0.335876X-0.335876X0.053033X0.053033X-0.335876X0.335876X-0.053033X0*%
%ADD85RotRect,0.500000X0.500000X247.500000*%
%ADD86RoundRect,0.100000X-0.100000X0.712500X-0.100000X-0.712500X0.100000X-0.712500X0.100000X0.712500X0*%
%ADD87C,2.374900*%
%ADD88RotRect,0.500000X0.500000X142.500000*%
%ADD89RotRect,1.800000X1.100000X150.000000*%
%ADD90RotRect,0.500000X0.500000X112.500000*%
%ADD91RotRect,0.500000X0.500000X120.000000*%
%ADD92RotRect,0.500000X0.500000X127.500000*%
%ADD93RotRect,0.500000X0.500000X172.500000*%
%ADD94RotRect,1.800000X1.100000X330.000000*%
%ADD95RotRect,1.800000X1.100000X210.000000*%
%ADD96RotRect,0.500000X0.500000X187.500000*%
%ADD97RotRect,0.500000X0.500000X262.500000*%
%ADD98RoundRect,0.218750X0.256250X-0.218750X0.256250X0.218750X-0.256250X0.218750X-0.256250X-0.218750X0*%
%ADD99RotRect,0.500000X0.500000X292.500000*%
%ADD100RoundRect,0.087500X-0.087500X0.187500X-0.087500X-0.187500X0.087500X-0.187500X0.087500X0.187500X0*%
%ADD101RoundRect,0.175000X-0.625000X0.175000X-0.625000X-0.175000X0.625000X-0.175000X0.625000X0.175000X0*%
%ADD102R,1.100000X1.800000*%
%ADD103RotRect,0.500000X0.500000X52.500000*%
%ADD104RoundRect,0.250000X-0.475000X0.250000X-0.475000X-0.250000X0.475000X-0.250000X0.475000X0.250000X0*%
%ADD105RoundRect,0.250000X-0.650000X0.325000X-0.650000X-0.325000X0.650000X-0.325000X0.650000X0.325000X0*%
%ADD106RoundRect,0.225000X0.017678X-0.335876X0.335876X-0.017678X-0.017678X0.335876X-0.335876X0.017678X0*%
%ADD107RotRect,0.500000X0.500000X7.500000*%
%ADD108RotRect,0.500000X0.500000X67.500000*%
%ADD109RotRect,0.500000X0.500000X240.000000*%
%ADD110RotRect,0.500000X0.500000X60.000000*%
%ADD111RotRect,0.500000X0.500000X352.500000*%
%ADD112RotRect,0.500000X0.500000X322.500000*%
%ADD113RotRect,0.500000X0.500000X300.000000*%
%ADD114R,0.300000X1.300000*%
%ADD115R,1.800000X2.200000*%
%ADD116RotRect,0.500000X0.500000X22.500000*%
%ADD117RotRect,0.500000X0.500000X217.500000*%
%ADD118RotRect,0.500000X0.500000X82.500000*%
%ADD119RotRect,0.500000X0.500000X232.500000*%
%ADD120RotRect,1.800000X1.100000X30.000000*%
%ADD121RoundRect,0.150000X0.150000X-0.587500X0.150000X0.587500X-0.150000X0.587500X-0.150000X-0.587500X0*%
%ADD122RotRect,0.500000X0.500000X157.500000*%
%ADD123RotRect,2.000000X1.500000X45.000000*%
%ADD124RotRect,2.000000X3.800000X45.000000*%
%ADD125RotRect,0.500000X0.500000X97.500000*%
%ADD126RotRect,0.500000X0.500000X277.500000*%
%ADD127R,0.550000X0.250000*%
%ADD128R,1.300000X2.400000*%
%ADD129R,2.500000X3.200000*%
%ADD130R,3.750000X4.000000*%
%ADD131RoundRect,0.200000X0.053033X-0.335876X0.335876X-0.053033X-0.053033X0.335876X-0.335876X0.053033X0*%
%ADD132RoundRect,0.250000X-0.689429X-0.194454X-0.194454X-0.689429X0.689429X0.194454X0.194454X0.689429X0*%
%ADD133HorizOval,1.200000X-0.194454X-0.194454X0.194454X0.194454X0*%
%ADD134RoundRect,0.150000X-0.150000X0.512500X-0.150000X-0.512500X0.150000X-0.512500X0.150000X0.512500X0*%
%ADD135C,0.650000*%
%ADD136R,0.300000X1.150000*%
%ADD137O,1.000000X2.100000*%
%ADD138O,1.000000X1.600000*%
%ADD139RotRect,0.500000X0.500000X202.500000*%
G04 APERTURE END LIST*
D10*
X62825000Y-21500000D02*
G75*
G03*
X62825000Y-21500000I-325000J0D01*
G01*
X137825000Y3500000D02*
G75*
G03*
X137825000Y3500000I-325000J0D01*
G01*
X62825000Y3500000D02*
G75*
G03*
X62825000Y3500000I-325000J0D01*
G01*
X62825000Y-53500000D02*
G75*
G03*
X62825000Y-53500000I-325000J0D01*
G01*
X62825000Y-28500000D02*
G75*
G03*
X62825000Y-28500000I-325000J0D01*
G01*
X137825000Y-28500000D02*
G75*
G03*
X137825000Y-28500000I-325000J0D01*
G01*
D11*
X64000000Y-112000000D02*
G75*
G03*
X64000000Y-112000000I-250000J0D01*
G01*
X65500000Y-112000000D02*
G75*
G03*
X65500000Y-112000000I-250000J0D01*
G01*
X67000000Y-112000000D02*
G75*
G03*
X67000000Y-112000000I-250000J0D01*
G01*
X68500000Y-112000000D02*
G75*
G03*
X68500000Y-112000000I-250000J0D01*
G01*
D10*
X75325000Y-129000000D02*
G75*
G03*
X75325000Y-129000000I-325000J0D01*
G01*
D12*
X73250000Y-124000000D02*
G75*
G03*
X73250000Y-124000000I-1250000J0D01*
G01*
D10*
X125325000Y-71000000D02*
G75*
G03*
X125325000Y-71000000I-325000J0D01*
G01*
X125325000Y-129000000D02*
G75*
G03*
X125325000Y-129000000I-325000J0D01*
G01*
D13*
X123825000Y-55810000D03*
X124460000Y-55810000D03*
X125095000Y-55810000D03*
X125730000Y-55810000D03*
X126365000Y-55810000D03*
X127000000Y-55810000D03*
X127635000Y-55810000D03*
X128270000Y-55810000D03*
X128905000Y-55810000D03*
X129540000Y-55810000D03*
X130175000Y-55810000D03*
X93175000Y-55810000D03*
X92540000Y-55810000D03*
X91905000Y-55810000D03*
X91270000Y-55810000D03*
X90635000Y-55810000D03*
X90000000Y-55810000D03*
X89365000Y-55810000D03*
X88730000Y-55810000D03*
X88095000Y-55810000D03*
X87460000Y-55810000D03*
X86825000Y-55810000D03*
X123825000Y-23810000D03*
X124460000Y-23810000D03*
X125095000Y-23810000D03*
X125730000Y-23810000D03*
X126365000Y-23810000D03*
X127000000Y-23810000D03*
X127635000Y-23810000D03*
X128270000Y-23810000D03*
X128905000Y-23810000D03*
X129540000Y-23810000D03*
X130175000Y-23810000D03*
X130175000Y-32190000D03*
X129540000Y-32190000D03*
X128905000Y-32190000D03*
X128270000Y-32190000D03*
X127635000Y-32190000D03*
X127000000Y-32190000D03*
X126365000Y-32190000D03*
X125730000Y-32190000D03*
X125095000Y-32190000D03*
X124460000Y-32190000D03*
X123825000Y-32190000D03*
X86825000Y-23810000D03*
X87460000Y-23810000D03*
X88095000Y-23810000D03*
X88730000Y-23810000D03*
X89365000Y-23810000D03*
X90000000Y-23810000D03*
X90635000Y-23810000D03*
X91270000Y-23810000D03*
X91905000Y-23810000D03*
X92540000Y-23810000D03*
X93175000Y-23810000D03*
X93175000Y-26190000D03*
X92540000Y-26190000D03*
X91905000Y-26190000D03*
X91270000Y-26190000D03*
X90635000Y-26190000D03*
X90000000Y-26190000D03*
X89365000Y-26190000D03*
X88730000Y-26190000D03*
X88095000Y-26190000D03*
X87460000Y-26190000D03*
X86825000Y-26190000D03*
X108175000Y-66190000D03*
X107540000Y-66190000D03*
X106905000Y-66190000D03*
X106270000Y-66190000D03*
X105635000Y-66190000D03*
X105000000Y-66190000D03*
X104365000Y-66190000D03*
X103730000Y-66190000D03*
X103095000Y-66190000D03*
X102460000Y-66190000D03*
X101825000Y-66190000D03*
X91825000Y-66190000D03*
X93095000Y-66190000D03*
X98175000Y-66190000D03*
X93730000Y-66190000D03*
X95635000Y-66190000D03*
X94365000Y-66190000D03*
X97540000Y-66190000D03*
X95000000Y-66190000D03*
X96270000Y-66190000D03*
X96905000Y-66190000D03*
X92460000Y-66190000D03*
D14*
X128150000Y-22300000D03*
X128150000Y-20000000D03*
D15*
X121850000Y-20000000D03*
D14*
X128150000Y-17700000D03*
D16*
X104211229Y3887047D03*
X105056953Y3579229D03*
X105364771Y4424953D03*
X104519047Y4732771D03*
D17*
X126000000Y-2775000D03*
X126000000Y-1225000D03*
D18*
X86734305Y-11796022D03*
X86578022Y-10909695D03*
X85691695Y-11065978D03*
X85847978Y-11952305D03*
D19*
X102700000Y-10200000D03*
X102700000Y-7800000D03*
D20*
X104150000Y-11000000D03*
X104150000Y-7000000D03*
X104150000Y-9000000D03*
D21*
X100000000Y-12800000D03*
X100000000Y-5200000D03*
D22*
X108365026Y1669534D03*
X109054466Y1091026D03*
X109632974Y1780466D03*
X108943534Y2358974D03*
D23*
X95000000Y-17660254D03*
D24*
X62500000Y-21500000D03*
D25*
X111509289Y-1835289D03*
X111959289Y-2614711D03*
X112738711Y-2164711D03*
X112288711Y-1385289D03*
D26*
X131225000Y-19000000D03*
X132775000Y-19000000D03*
D27*
X136900000Y-9000000D03*
D28*
X124100000Y-8300000D03*
D29*
X133100000Y-15450000D03*
X133100000Y-2550000D03*
D23*
X105000000Y-17660254D03*
D30*
X100450000Y-22550000D03*
X99550000Y-22550000D03*
X99550000Y-23450000D03*
X100450000Y-23450000D03*
D31*
X82937500Y-7950000D03*
X82937500Y-6050000D03*
X81062500Y-7000000D03*
D23*
X100000000Y1000000D03*
D17*
X137000000Y-2775000D03*
X137000000Y-1225000D03*
D32*
X72460000Y-4280000D03*
D33*
X70300000Y800000D03*
D34*
X70300000Y-1740000D03*
X70300000Y-4280000D03*
X70300000Y-6820000D03*
D35*
X86578022Y-7090305D03*
X86734305Y-6203978D03*
X85847978Y-6047695D03*
X85691695Y-6934022D03*
D36*
X139000000Y-2825000D03*
X139000000Y-1175000D03*
D31*
X77937500Y-6950000D03*
X77937500Y-5050000D03*
X76062500Y-6000000D03*
D37*
X132000000Y-23000000D03*
D38*
X88490711Y-16164711D03*
X88040711Y-15385289D03*
X87261289Y-15835289D03*
X87711289Y-16614711D03*
D23*
X100000000Y-19000000D03*
D39*
X131050000Y-21000000D03*
X132950000Y-21000000D03*
D40*
X113421978Y-10909695D03*
X113265695Y-11796022D03*
X114152022Y-11952305D03*
X114308305Y-11065978D03*
D41*
X111000000Y-10650000D03*
X111000000Y-7350000D03*
D42*
X91634974Y-19669534D03*
X90945534Y-19091026D03*
X90367026Y-19780466D03*
X91056466Y-20358974D03*
D43*
X125350000Y-15000000D03*
X128650000Y-15000000D03*
D44*
X118175000Y-23000000D03*
X119825000Y-23000000D03*
D45*
X116525000Y-11000000D03*
X119475000Y-11000000D03*
D46*
X122775000Y-11000000D03*
X121225000Y-11000000D03*
D39*
X116050000Y-15000000D03*
X117950000Y-15000000D03*
D46*
X117775000Y-13000000D03*
X116225000Y-13000000D03*
D44*
X116175000Y-9000000D03*
X117825000Y-9000000D03*
D47*
X123137500Y-14950000D03*
X123137500Y-14000000D03*
X123137500Y-13050000D03*
X120862500Y-13050000D03*
X120862500Y-14000000D03*
X120862500Y-14950000D03*
D44*
X114175000Y-23000000D03*
X115825000Y-23000000D03*
D48*
X118800000Y-19000000D03*
X115200000Y-19000000D03*
D23*
X95000000Y-339746D03*
D31*
X82937500Y-20950000D03*
X82937500Y-19050000D03*
X81062500Y-20000000D03*
D32*
X72460000Y-16280000D03*
D33*
X70300000Y-11200000D03*
D34*
X70300000Y-13740000D03*
X70300000Y-16280000D03*
X70300000Y-18820000D03*
D49*
X82825000Y-17000000D03*
X81175000Y-17000000D03*
D50*
X113265695Y-6203978D03*
X113421978Y-7090305D03*
X114308305Y-6934022D03*
X114152022Y-6047695D03*
D36*
X128000000Y-2825000D03*
X128000000Y-1175000D03*
D51*
X122950000Y-5000000D03*
X121050000Y-5000000D03*
D52*
X94943047Y3579229D03*
X95788771Y3887047D03*
X95480953Y4732771D03*
X94635229Y4424953D03*
D53*
X117000000Y-7000000D03*
D54*
X109054466Y-19091026D03*
X108365026Y-19669534D03*
X108943534Y-20358974D03*
X109632974Y-19780466D03*
D36*
X124000000Y-2825000D03*
X124000000Y-1175000D03*
D30*
X99550000Y4550000D03*
X100450000Y4550000D03*
X100450000Y5450000D03*
X99550000Y5450000D03*
D23*
X105000000Y-339746D03*
D55*
X138056847Y-20943153D03*
X136943153Y-22056847D03*
D24*
X137500000Y3500000D03*
D56*
X90945534Y1091026D03*
X91634974Y1669534D03*
X91056466Y2358974D03*
X90367026Y1780466D03*
D57*
X122000000Y-1175000D03*
X122000000Y-2825000D03*
D58*
X139000000Y-16000000D03*
D31*
X77937500Y-19950000D03*
X77937500Y-18050000D03*
X76062500Y-19000000D03*
D59*
X81475000Y-1905000D03*
X81475000Y-635000D03*
X81475000Y635000D03*
X81475000Y1905000D03*
X76525000Y1905000D03*
X76525000Y635000D03*
X76525000Y-635000D03*
X76525000Y-1905000D03*
D53*
X110000000Y-23000000D03*
D59*
X81475000Y-14905000D03*
X81475000Y-13635000D03*
X81475000Y-12365000D03*
X81475000Y-11095000D03*
X76525000Y-11095000D03*
X76525000Y-12365000D03*
X76525000Y-13635000D03*
X76525000Y-14905000D03*
D60*
X111959289Y-15385289D03*
X111509289Y-16164711D03*
X112288711Y-16614711D03*
X112738711Y-15835289D03*
D49*
X82825000Y-4000000D03*
X81175000Y-4000000D03*
D61*
X134203949Y-21796051D03*
X137077631Y-17485528D03*
X138514472Y-18922369D03*
D62*
X135550987Y-21347038D03*
X134652962Y-20449013D03*
X136449013Y-20449013D03*
X135550987Y-19550987D03*
X137347038Y-19550987D03*
X136449013Y-18652962D03*
D63*
X105056953Y-21579229D03*
X104211229Y-21887047D03*
X104519047Y-22732771D03*
X105364771Y-22424953D03*
D64*
X88040711Y-2614711D03*
X88490711Y-1835289D03*
X87711289Y-1385289D03*
X87261289Y-2164711D03*
D65*
X95788771Y-21887047D03*
X94943047Y-21579229D03*
X94635229Y-22424953D03*
X95480953Y-22732771D03*
D24*
X62500000Y3500000D03*
D22*
X108943534Y-29641026D03*
X109632974Y-30219534D03*
X109054466Y-30908974D03*
X108365026Y-30330466D03*
D18*
X85847978Y-43952305D03*
X85691695Y-43065978D03*
X86578022Y-42909695D03*
X86734305Y-43796022D03*
D16*
X104519047Y-27267229D03*
X105364771Y-27575047D03*
X105056953Y-28420771D03*
X104211229Y-28112953D03*
D66*
X93000000Y-43500000D03*
X93000000Y-38500000D03*
D67*
X92100000Y-36000000D03*
X92100000Y-46000000D03*
D68*
X100000000Y-34625000D03*
X100000000Y-47375000D03*
D67*
X107900000Y-36000000D03*
X107900000Y-46000000D03*
D66*
X107300000Y-41000000D03*
X107300000Y-38500000D03*
X107300000Y-43500000D03*
D69*
X100000000Y-41000000D03*
D70*
X103500000Y-41000000D03*
D24*
X62500000Y-53500000D03*
D71*
X64450000Y-34000000D03*
D72*
X64450000Y-32000000D03*
D44*
X82825000Y-47000000D03*
X81175000Y-47000000D03*
X82825000Y-31500000D03*
X81175000Y-31500000D03*
X82825000Y-54500000D03*
X81175000Y-54500000D03*
D14*
X128150000Y-49700000D03*
D15*
X121850000Y-52000000D03*
D14*
X128150000Y-52000000D03*
X128150000Y-54300000D03*
D17*
X126000000Y-33225000D03*
X126000000Y-34775000D03*
X137000000Y-33225000D03*
X137000000Y-34775000D03*
D73*
X75350000Y-54500000D03*
X78650000Y-54500000D03*
D74*
X72250000Y-29500000D03*
X67750000Y-29500000D03*
D23*
X100000000Y-31000000D03*
X105000000Y-49660254D03*
D73*
X75350000Y-31500000D03*
X78650000Y-31500000D03*
X75350000Y-39000000D03*
X78650000Y-39000000D03*
D75*
X77500000Y-43500000D03*
D76*
X75350000Y-44475000D03*
X75350000Y-43825000D03*
X75350000Y-43175000D03*
X75350000Y-42525000D03*
X79650000Y-42525000D03*
X79650000Y-43175000D03*
X79650000Y-43825000D03*
X79650000Y-44475000D03*
D23*
X95000000Y-49660254D03*
D75*
X77500000Y-28000000D03*
D76*
X75350000Y-28975000D03*
X75350000Y-28325000D03*
X75350000Y-27675000D03*
X75350000Y-27025000D03*
X79650000Y-27025000D03*
X79650000Y-27675000D03*
X79650000Y-28325000D03*
X79650000Y-28975000D03*
D41*
X111000000Y-39350000D03*
X111000000Y-42650000D03*
D71*
X64450000Y-50000000D03*
X64450000Y-48000000D03*
X64450000Y-46000000D03*
X64450000Y-44000000D03*
X64450000Y-42000000D03*
D72*
X64450000Y-40000000D03*
D29*
X133100000Y-34550000D03*
X133100000Y-47450000D03*
D28*
X124100000Y-40300000D03*
D27*
X136900000Y-41000000D03*
D52*
X94635229Y-27575047D03*
X95480953Y-27267229D03*
X95788771Y-28112953D03*
X94943047Y-28420771D03*
D23*
X105000000Y-32339746D03*
D37*
X132000000Y-55000000D03*
D40*
X114308305Y-43065978D03*
X114152022Y-43952305D03*
X113265695Y-43796022D03*
X113421978Y-42909695D03*
D36*
X139000000Y-33175000D03*
X139000000Y-34825000D03*
D74*
X72250000Y-45000000D03*
X67750000Y-45000000D03*
D77*
X120525000Y-37000000D03*
X123475000Y-37000000D03*
D53*
X117000000Y-39000000D03*
D30*
X100450000Y-55450000D03*
X99550000Y-55450000D03*
X99550000Y-54550000D03*
X100450000Y-54550000D03*
D23*
X100000000Y-51000000D03*
D74*
X72250000Y-52500000D03*
X67750000Y-52500000D03*
D39*
X132950000Y-53000000D03*
X131050000Y-53000000D03*
D43*
X128650000Y-47000000D03*
X125350000Y-47000000D03*
D38*
X87711289Y-48614711D03*
X87261289Y-47835289D03*
X88040711Y-47385289D03*
X88490711Y-48164711D03*
D42*
X91056466Y-52358974D03*
X90367026Y-51780466D03*
X90945534Y-51091026D03*
X91634974Y-51669534D03*
D25*
X112288711Y-33385289D03*
X112738711Y-34164711D03*
X111959289Y-34614711D03*
X111509289Y-33835289D03*
D35*
X85691695Y-38934022D03*
X85847978Y-38047695D03*
X86734305Y-38203978D03*
X86578022Y-39090305D03*
D78*
X82500000Y-34550000D03*
X82500000Y-36450000D03*
D26*
X132775000Y-51000000D03*
X131225000Y-51000000D03*
D75*
X77500000Y-35500000D03*
D76*
X75350000Y-36475000D03*
X75350000Y-35825000D03*
X75350000Y-35175000D03*
X75350000Y-34525000D03*
X79650000Y-34525000D03*
X79650000Y-35175000D03*
X79650000Y-35825000D03*
X79650000Y-36475000D03*
D73*
X75350000Y-47000000D03*
X78650000Y-47000000D03*
D56*
X90367026Y-30219534D03*
X91056466Y-29641026D03*
X91634974Y-30330466D03*
X90945534Y-30908974D03*
D36*
X128000000Y-33175000D03*
X128000000Y-34825000D03*
D65*
X95480953Y-54732771D03*
X94635229Y-54424953D03*
X94943047Y-53579229D03*
X95788771Y-53887047D03*
D64*
X87261289Y-34164711D03*
X87711289Y-33385289D03*
X88490711Y-33835289D03*
X88040711Y-34614711D03*
D58*
X139000000Y-48000000D03*
D24*
X62500000Y-28500000D03*
D62*
X136449013Y-50652962D03*
X137347038Y-51550987D03*
X135550987Y-51550987D03*
X136449013Y-52449013D03*
X134652962Y-52449013D03*
X135550987Y-53347038D03*
D61*
X138514472Y-50922369D03*
X137077631Y-49485528D03*
X134203949Y-53796051D03*
D60*
X112738711Y-47835289D03*
X112288711Y-48614711D03*
X111509289Y-48164711D03*
X111959289Y-47385289D03*
D36*
X124000000Y-33175000D03*
X124000000Y-34825000D03*
D45*
X119475000Y-43000000D03*
X116525000Y-43000000D03*
D46*
X121225000Y-43000000D03*
X122775000Y-43000000D03*
X116225000Y-45000000D03*
X117775000Y-45000000D03*
D44*
X117825000Y-41000000D03*
X116175000Y-41000000D03*
X115825000Y-55000000D03*
X114175000Y-55000000D03*
D47*
X120862500Y-46950000D03*
X120862500Y-46000000D03*
X120862500Y-45050000D03*
X123137500Y-45050000D03*
X123137500Y-46000000D03*
X123137500Y-46950000D03*
D48*
X115200000Y-51000000D03*
X118800000Y-51000000D03*
D44*
X119825000Y-55000000D03*
X118175000Y-55000000D03*
D39*
X117950000Y-47000000D03*
X116050000Y-47000000D03*
D44*
X82825000Y-39000000D03*
X81175000Y-39000000D03*
D54*
X109632974Y-51780466D03*
X108943534Y-52358974D03*
X108365026Y-51669534D03*
X109054466Y-51091026D03*
D24*
X137500000Y-28500000D03*
D78*
X82500000Y-42550000D03*
X82500000Y-44450000D03*
D50*
X114152022Y-38047695D03*
X114308305Y-38934022D03*
X113421978Y-39090305D03*
X113265695Y-38203978D03*
D78*
X82500000Y-27050000D03*
X82500000Y-28950000D03*
D55*
X136943153Y-54056847D03*
X138056847Y-52943153D03*
D74*
X72250000Y-37000000D03*
X67750000Y-37000000D03*
D75*
X77500000Y-51000000D03*
D76*
X75350000Y-51975000D03*
X75350000Y-51325000D03*
X75350000Y-50675000D03*
X75350000Y-50025000D03*
X79650000Y-50025000D03*
X79650000Y-50675000D03*
X79650000Y-51325000D03*
X79650000Y-51975000D03*
D57*
X122000000Y-34825000D03*
X122000000Y-33175000D03*
D30*
X99550000Y-26550000D03*
X100450000Y-26550000D03*
X100450000Y-27450000D03*
X99550000Y-27450000D03*
D78*
X82500000Y-50050000D03*
X82500000Y-51950000D03*
D63*
X105364771Y-54424953D03*
X104519047Y-54732771D03*
X104211229Y-53887047D03*
X105056953Y-53579229D03*
D53*
X110000000Y-55000000D03*
D23*
X95000000Y-32339746D03*
D79*
X95000000Y-67225000D03*
X95000000Y-68775000D03*
D80*
X89000000Y-135000000D03*
D81*
X112258066Y-115236048D03*
X111544048Y-115783934D03*
X112091934Y-116497952D03*
X112805952Y-115950066D03*
D82*
X118234462Y-107066047D03*
X117890047Y-107897538D03*
X118721538Y-108241953D03*
X119065953Y-107410462D03*
D83*
X115236048Y-87741934D03*
X115783934Y-88455952D03*
X116497952Y-87908066D03*
X115950066Y-87194048D03*
D49*
X100825000Y-88500000D03*
X99175000Y-88500000D03*
D84*
X126583363Y-75416637D03*
X125416637Y-76583363D03*
D30*
X131550000Y-99550000D03*
X131550000Y-100450000D03*
X132450000Y-100450000D03*
X132450000Y-99550000D03*
D85*
X92933953Y-118234462D03*
X92102462Y-117890047D03*
X91758047Y-118721538D03*
X92589538Y-119065953D03*
D30*
X92450000Y-96450000D03*
X92450000Y-95550000D03*
X91550000Y-95550000D03*
X91550000Y-96450000D03*
D17*
X122000000Y-94775000D03*
X122000000Y-93225000D03*
D23*
X68823085Y-118000000D03*
D37*
X94000000Y-129000000D03*
D17*
X124000000Y-94775000D03*
X124000000Y-93225000D03*
D86*
X125975000Y-97887500D03*
X125325000Y-97887500D03*
X124675000Y-97887500D03*
X124025000Y-97887500D03*
X124025000Y-102112500D03*
X124675000Y-102112500D03*
X125325000Y-102112500D03*
X125975000Y-102112500D03*
D87*
X81000000Y-84592102D03*
D61*
X82796051Y-82796051D03*
D87*
X84592102Y-81000000D03*
X78754936Y-82347038D03*
X82347038Y-78754936D03*
D61*
X78485528Y-79922369D03*
X79922369Y-78485528D03*
D62*
X82347038Y-81449013D03*
X81449013Y-82347038D03*
X81449013Y-80550987D03*
X80550987Y-81449013D03*
X80550987Y-79652962D03*
X79652962Y-80550987D03*
D88*
X84216066Y-88455952D03*
X84763952Y-87741934D03*
X84049934Y-87194048D03*
X83502048Y-87908066D03*
D36*
X93000000Y-135825000D03*
X93000000Y-134175000D03*
D89*
X119759679Y-71975147D03*
X114390321Y-68875147D03*
X121609679Y-68770853D03*
X116240321Y-65670853D03*
D24*
X75000000Y-129000000D03*
D30*
X107550000Y-95550000D03*
X107550000Y-96450000D03*
X108450000Y-96450000D03*
X108450000Y-95550000D03*
D90*
X92102462Y-82109953D03*
X92933953Y-81765538D03*
X92589538Y-80934047D03*
X91758047Y-81278462D03*
D79*
X103000000Y-127225000D03*
X103000000Y-128775000D03*
D17*
X103000000Y-85775000D03*
X103000000Y-84225000D03*
D91*
X83835289Y-72901711D03*
X84614711Y-72451711D03*
X84164711Y-71672289D03*
X83385289Y-72122289D03*
D57*
X88000000Y-71175000D03*
X88000000Y-72825000D03*
D92*
X87741934Y-84763952D03*
X88455952Y-84216066D03*
X87908066Y-83502048D03*
X87194048Y-84049934D03*
D37*
X112000000Y-96000000D03*
D36*
X115000000Y-96825000D03*
X115000000Y-95175000D03*
X103000000Y-68825000D03*
X103000000Y-67175000D03*
D93*
X80558413Y-97893887D03*
X80675887Y-97001587D03*
X79783587Y-96884113D03*
X79666113Y-97776413D03*
D79*
X103000000Y-114225000D03*
X103000000Y-115775000D03*
D94*
X80240321Y-128024853D03*
X85609679Y-131124853D03*
X78390321Y-131229147D03*
X83759679Y-134329147D03*
D95*
X85609679Y-68875147D03*
X80240321Y-71975147D03*
X83759679Y-65670853D03*
X78390321Y-68770853D03*
D96*
X80675887Y-102998413D03*
X80558413Y-102106113D03*
X79666113Y-102223587D03*
X79783587Y-103115887D03*
D24*
X125000000Y-71000000D03*
D97*
X97893887Y-119441587D03*
X97001587Y-119324113D03*
X96884113Y-120216413D03*
X97776413Y-120333887D03*
D98*
X87000000Y-92787500D03*
X87000000Y-91212500D03*
D23*
X68823085Y-82000000D03*
D37*
X94000000Y-127000000D03*
D44*
X89175000Y-129000000D03*
X90825000Y-129000000D03*
D99*
X107897538Y-117890047D03*
X107066047Y-118234462D03*
X107410462Y-119065953D03*
X108241953Y-118721538D03*
D100*
X100500000Y-127075000D03*
X99500000Y-127075000D03*
X99500000Y-128925000D03*
X100500000Y-128925000D03*
D101*
X100000000Y-128000000D03*
D80*
X112000000Y-135000000D03*
D102*
X134150000Y-103100000D03*
X134150000Y-96900000D03*
X137850000Y-103100000D03*
X137850000Y-96900000D03*
D36*
X107000000Y-135825000D03*
X107000000Y-134175000D03*
D103*
X111544048Y-84216066D03*
X112258066Y-84763952D03*
X112805952Y-84049934D03*
X112091934Y-83502048D03*
D104*
X105000000Y-114050000D03*
X105000000Y-115950000D03*
D102*
X65850000Y-96900000D03*
X65850000Y-103100000D03*
X62150000Y-96900000D03*
X62150000Y-103100000D03*
D105*
X112000000Y-75525000D03*
X112000000Y-78475000D03*
D73*
X113650000Y-92000000D03*
X110350000Y-92000000D03*
D78*
X107000000Y-68950000D03*
X107000000Y-67050000D03*
D79*
X126000000Y-105225000D03*
X126000000Y-106775000D03*
D104*
X115000000Y-76050000D03*
X115000000Y-77950000D03*
D23*
X131176915Y-82000000D03*
X131176915Y-118000000D03*
D80*
X110000000Y-135000000D03*
D106*
X127451992Y-78548008D03*
X128548008Y-77451992D03*
D57*
X87000000Y-95175000D03*
X87000000Y-96825000D03*
D107*
X119324113Y-97001587D03*
X119441587Y-97893887D03*
X120333887Y-97776413D03*
X120216413Y-96884113D03*
D108*
X107066047Y-81765538D03*
X107897538Y-82109953D03*
X108241953Y-81278462D03*
X107410462Y-80934047D03*
D80*
X128000000Y-90000000D03*
D109*
X84614711Y-127548289D03*
X83835289Y-127098289D03*
X83385289Y-127877711D03*
X84164711Y-128327711D03*
D110*
X115385289Y-72451711D03*
X116164711Y-72901711D03*
X116614711Y-72122289D03*
X115835289Y-71672289D03*
D111*
X119441587Y-102106113D03*
X119324113Y-102998413D03*
X120216413Y-103115887D03*
X120333887Y-102223587D03*
D79*
X93000000Y-67225000D03*
X93000000Y-68775000D03*
D17*
X112000000Y-72775000D03*
X112000000Y-71225000D03*
D112*
X115783934Y-111544048D03*
X115236048Y-112258066D03*
X115950066Y-112805952D03*
X116497952Y-112091934D03*
D17*
X115000000Y-100775000D03*
X115000000Y-99225000D03*
D113*
X116164711Y-127098289D03*
X115385289Y-127548289D03*
X115835289Y-128327711D03*
X116614711Y-127877711D03*
D114*
X92750000Y-71150000D03*
X93250000Y-71150000D03*
X93750000Y-71150000D03*
X94250000Y-71150000D03*
X94750000Y-71150000D03*
X95250000Y-71150000D03*
X95750000Y-71150000D03*
X96250000Y-71150000D03*
X96750000Y-71150000D03*
X97250000Y-71150000D03*
X97750000Y-71150000D03*
X98250000Y-71150000D03*
X98750000Y-71150000D03*
X99250000Y-71150000D03*
X99750000Y-71150000D03*
X100250000Y-71150000D03*
X100750000Y-71150000D03*
X101250000Y-71150000D03*
X101750000Y-71150000D03*
X102250000Y-71150000D03*
X102750000Y-71150000D03*
X103250000Y-71150000D03*
X103750000Y-71150000D03*
X104250000Y-71150000D03*
X104750000Y-71150000D03*
X105250000Y-71150000D03*
X105750000Y-71150000D03*
X106250000Y-71150000D03*
X106750000Y-71150000D03*
X107250000Y-71150000D03*
D115*
X90850000Y-74400000D03*
X109150000Y-74400000D03*
D116*
X117890047Y-92102462D03*
X118234462Y-92933953D03*
X119065953Y-92589538D03*
X118721538Y-91758047D03*
D78*
X105000000Y-68950000D03*
X105000000Y-67050000D03*
D26*
X99225000Y-87000000D03*
X100775000Y-87000000D03*
D17*
X97000000Y-68775000D03*
X97000000Y-67225000D03*
D98*
X89000000Y-92787500D03*
X89000000Y-91212500D03*
D57*
X89000000Y-95175000D03*
X89000000Y-96825000D03*
D117*
X84763952Y-112258066D03*
X84216066Y-111544048D03*
X83502048Y-112091934D03*
X84049934Y-112805952D03*
D79*
X88000000Y-76225000D03*
X88000000Y-77775000D03*
D118*
X102106113Y-80558413D03*
X102998413Y-80675887D03*
X103115887Y-79783587D03*
X102223587Y-79666113D03*
D30*
X107550000Y-103550000D03*
X107550000Y-104450000D03*
X108450000Y-104450000D03*
X108450000Y-103550000D03*
D119*
X88455952Y-115783934D03*
X87741934Y-115236048D03*
X87194048Y-115950066D03*
X87908066Y-116497952D03*
D120*
X114390321Y-131124853D03*
X119759679Y-128024853D03*
X116240321Y-134329147D03*
X121609679Y-131229147D03*
D121*
X99050000Y-123937500D03*
X100950000Y-123937500D03*
X100000000Y-122062500D03*
D30*
X68450000Y-100450000D03*
X68450000Y-99550000D03*
X67550000Y-99550000D03*
X67550000Y-100450000D03*
D122*
X81765538Y-92933953D03*
X82109953Y-92102462D03*
X81278462Y-91758047D03*
X80934047Y-92589538D03*
D123*
X115146268Y-81601041D03*
X116772614Y-83227386D03*
D124*
X121227386Y-78772614D03*
D123*
X118398959Y-84853732D03*
D17*
X99000000Y-68775000D03*
X99000000Y-67225000D03*
D30*
X100800000Y-113400000D03*
X100790000Y-114200000D03*
X100800000Y-115000000D03*
X100800000Y-115800000D03*
X100800000Y-116600000D03*
X100000000Y-116600000D03*
X99200000Y-116600000D03*
X99200000Y-115800000D03*
X99200000Y-115000000D03*
X99200000Y-114200000D03*
X99200000Y-113400000D03*
X100000000Y-113400000D03*
D125*
X97001587Y-80675887D03*
X97893887Y-80558413D03*
X97776413Y-79666113D03*
X96884113Y-79783587D03*
D126*
X102998413Y-119324113D03*
X102106113Y-119441587D03*
X102223587Y-120333887D03*
X103115887Y-120216413D03*
D127*
X101380000Y-85500000D03*
X101380000Y-85000000D03*
X101380000Y-84500000D03*
X98620000Y-84500000D03*
X98620000Y-85000000D03*
X98620000Y-85500000D03*
D70*
X100000000Y-96500000D03*
D69*
X100000000Y-100000000D03*
D128*
X102500000Y-92700000D03*
X97500000Y-92700000D03*
X100000000Y-92700000D03*
D129*
X105000000Y-92100000D03*
X95000000Y-92100000D03*
D130*
X106375000Y-100000000D03*
X93625000Y-100000000D03*
D129*
X105000000Y-107900000D03*
X95000000Y-107900000D03*
D128*
X97500000Y-107000000D03*
X102500000Y-107000000D03*
D17*
X128000000Y-94775000D03*
X128000000Y-93225000D03*
D44*
X89175000Y-127000000D03*
X90825000Y-127000000D03*
D131*
X123416637Y-74583363D03*
X124583363Y-73416637D03*
D132*
X118585786Y-118585786D03*
D133*
X120000000Y-120000000D03*
D24*
X125000000Y-129000000D03*
D134*
X112950000Y-98862500D03*
X112000000Y-98862500D03*
X111050000Y-98862500D03*
X111050000Y-101137500D03*
X112950000Y-101137500D03*
D30*
X92450000Y-104450000D03*
X92450000Y-103550000D03*
X91550000Y-103550000D03*
X91550000Y-104450000D03*
D57*
X126000000Y-93175000D03*
X126000000Y-94825000D03*
D104*
X124000000Y-105050000D03*
X124000000Y-106950000D03*
D135*
X97110000Y-133395000D03*
X102890000Y-133395000D03*
D136*
X96650000Y-132330000D03*
X97450000Y-132330000D03*
X98750000Y-132330000D03*
X99750000Y-132330000D03*
X100250000Y-132330000D03*
X101250000Y-132330000D03*
X102550000Y-132330000D03*
X103350000Y-132330000D03*
X103050000Y-132330000D03*
X102250000Y-132330000D03*
X101750000Y-132330000D03*
X100750000Y-132330000D03*
X99250000Y-132330000D03*
X98250000Y-132330000D03*
X97750000Y-132330000D03*
X96950000Y-132330000D03*
D137*
X95680000Y-132895000D03*
D138*
X95680000Y-137075000D03*
D137*
X104320000Y-132895000D03*
D138*
X104320000Y-137075000D03*
D139*
X82109953Y-107897538D03*
X81765538Y-107066047D03*
X80934047Y-107410462D03*
X81278462Y-108241953D03*
M02*
