M48
; DRILL file {KiCad 7.0.4-40-g0180cb380f} date Wed Jul  5 14:48:12 2023
; FORMAT={-:-/ absolute / inch / decimal}
; #@! TF.CreationDate,2023-07-05T14:48:12-07:00
; #@! TF.GenerationSoftware,Kicad,Pcbnew,7.0.4-40-g0180cb380f
; #@! TF.FileFunction,Plated,1,2,PTH
FMAT,2
INCH
; #@! TA.AperFunction,Plated,PTH,ViaDrill
T1C0.0118
; #@! TA.AperFunction,Plated,PTH,ComponentDrill
T2C0.0118
; #@! TA.AperFunction,Plated,PTH,ViaDrill
T3C0.0197
; #@! TA.AperFunction,Plated,PTH,ComponentDrill
T4C0.0236
; #@! TA.AperFunction,Plated,PTH,ComponentDrill
T5C0.0295
; #@! TA.AperFunction,Plated,PTH,ComponentDrill
T6C0.0402
%
G90
G05
T1
X2.5984Y-3.7402
X2.9921Y-0.2756
X2.9921Y-0.7874
X3.0709Y-3.3268
X3.189Y-0.315
X3.189Y-0.8268
X3.189Y-1.063
X3.189Y-1.1417
X3.189Y-1.437
X3.189Y-1.6732
X3.189Y-1.752
X3.189Y-1.9685
X3.189Y-2.0472
X3.189Y-3.0512
X3.1904Y-1.3583
X3.2283Y-2.8366
X3.2283Y-5.0403
X3.3071Y-2.9921
X3.3268Y-3.0512
X3.3858Y-5.0787
X3.4055Y-3.0512
X3.4843Y-1.5551
X3.4843Y-1.6929
X3.4843Y-1.7323
X3.5039Y-3.2283
X3.5039Y-3.5039
X3.5039Y-3.5433
X3.5108Y-5.0394
X3.5433Y-0.5118
X3.5433Y-0.5512
X3.5433Y-0.5906
X3.5827Y-0.0394
X3.5827Y-1.2992
X3.5827Y-1.6535
X3.5827Y-1.6929
X3.5827Y-1.7323
X3.6614Y-3.0512
X3.6614Y-5.3839
X3.6811Y-4.1535
X3.7008Y-2.874
X3.7402Y-2.9528
X3.7402Y-3.0709
X3.7598Y-4.5276
X3.7795Y-5.0
X3.7795Y-5.0394
X3.7992Y-4.5276
X3.8189Y-0.5118
X3.8189Y-0.5512
X3.8189Y-0.5906
X3.8189Y-5.1575
X3.8386Y-3.3071
X3.8386Y-3.3465
X3.8583Y-2.6772
X3.8583Y-2.9528
X3.8976Y-2.874
X3.9173Y-4.9213
X3.9173Y-5.1181
X3.937Y-2.7165
X3.9567Y-4.9213
X3.9567Y-5.1181
X3.9773Y-2.874
X4.0157Y-2.874
X4.0551Y-4.4488
X4.0551Y-4.9606
X4.0551Y-5.1181
X4.0551Y-5.1575
X4.0945Y-0.1969
X4.0945Y-1.5354
X4.1339Y-0.1969
X4.1339Y-1.5354
X4.1339Y-1.5748
X4.1339Y-2.9528
X4.1732Y-2.6772
X4.1732Y-2.874
X4.1732Y-3.3071
X4.1732Y-3.3465
X4.2126Y-5.3839
X4.3307Y-3.3858
X4.4094Y-3.4252
X4.4882Y-0.0787
X4.4882Y-0.1181
X4.4882Y-1.3386
X4.4882Y-1.378
X4.4882Y-5.0787
X4.5276Y-3.7008
X4.6358Y-0.0984
X4.6358Y-0.1378
X4.6358Y-1.3976
X4.6358Y-1.437
X4.6457Y-2.8337
X4.6457Y-5.0374
X4.7047Y-0.4921
X4.7047Y-1.752
X4.7244Y-2.9921
X4.8228Y-2.9528
X4.8425Y-0.0787
X4.8425Y-0.6693
X4.8425Y-1.3386
X4.8425Y-1.9291
X4.9213Y-0.8661
X4.9213Y-2.126
X4.9213Y-3.0512
X4.9409Y-2.9331
X4.9606Y-3.622
X5.0Y-0.0787
X5.0Y-1.3386
X5.0197Y-0.2756
X5.0197Y-0.315
X5.0197Y-1.5354
X5.0394Y-3.622
X5.0591Y-1.5354
X5.2756Y-0.7874
X5.2756Y-2.0472
X5.2756Y-3.7402
X5.315Y-0.748
X5.315Y-2.0079
X5.3543Y-0.7087
X5.3543Y-1.9685
X5.374Y-0.2362
X5.374Y-0.2756
X5.374Y-0.9055
X5.374Y-1.4961
X5.374Y-1.5354
X5.374Y-2.1654
X5.3888Y-0.8219
X5.3888Y-2.0817
X5.3937Y-0.1575
X5.3937Y-1.4173
X5.4724Y-0.8071
X5.4724Y-2.0669
X5.4921Y-0.5315
X5.4921Y-1.7913
T2
X3.0295Y-1.0768
X3.0295Y-1.128
X3.0295Y-1.372
X3.0295Y-1.4232
X3.0295Y-1.687
X3.0295Y-1.7382
X3.0295Y-1.9823
X3.0295Y-2.0335
X3.0728Y-1.0768
X3.0728Y-1.128
X3.0728Y-1.372
X3.0728Y-1.4232
X3.0728Y-1.687
X3.0728Y-1.7382
X3.0728Y-1.9823
X3.0728Y-2.0335
X3.9409Y-2.9827
X3.9409Y-3.0378
X3.9685Y-2.9551
X3.9685Y-3.0102
X3.9685Y-3.0654
X3.9961Y-2.9827
X3.9961Y-3.0378
X4.0236Y-2.9551
X4.0236Y-3.0102
X4.0236Y-3.0654
X4.0512Y-2.9827
X4.0512Y-3.0378
X5.0079Y-1.5772
X5.0079Y-1.6323
X5.0079Y-1.6874
X5.0354Y-1.6047
X5.0354Y-1.6598
T3
X2.4016Y-3.937
X2.7559Y-3.937
X2.9921Y-0.1969
X2.9921Y-0.7087
X3.0512Y-1.3189
X3.0512Y-1.6339
X3.0512Y-1.9315
X3.1102Y-4.1339
X3.189Y-0.2362
X3.189Y-0.748
X3.189Y-1.9291
X3.189Y-3.937
X3.2083Y-2.5855
X3.2171Y-5.2974
X3.248Y-1.3189
X3.248Y-1.6339
X3.2677Y-1.5748
X3.2677Y-1.8898
X3.2677Y-4.1339
X3.3071Y-1.063
X3.3071Y-1.2402
X3.3071Y-2.1457
X3.3071Y-3.937
X3.3071Y-1.1417
X3.3858Y-1.6142
X3.4646Y0.1575
X3.4646Y-1.1024
X3.5039Y0.1969
X3.5039Y0.1575
X3.5039Y-1.063
X3.5039Y-1.1024
X3.5039Y-1.1811
X3.5039Y-3.937
X3.5039Y-5.1969
X3.5433Y0.1969
X3.5433Y0.1575
X3.5433Y-1.063
X3.5433Y-1.1024
X3.5827Y0.1969
X3.5827Y0.1575
X3.5827Y-1.063
X3.5827Y-1.1024
X3.622Y0.1969
X3.622Y-1.063
X3.6398Y-3.7205
X3.6398Y-4.0453
X3.6614Y-2.9133
X3.6614Y-0.9055
X3.6614Y-2.1654
X3.6614Y-2.9921
X3.7402Y-3.1102
X3.7402Y-3.2677
X3.7402Y-4.6063
X3.7402Y-4.7638
X3.8583Y-4.0551
X3.937Y-3.7205
X3.937Y-4.2126
X4.0157Y-4.0551
X4.0354Y-3.4646
X4.0551Y-0.3543
X4.1339Y-3.1102
X4.1339Y-3.2677
X4.1339Y-4.6063
X4.1339Y-4.7638
X4.1535Y-3.5039
X4.2126Y-0.9055
X4.2126Y-2.1654
X4.218Y-0.7535
X4.218Y-2.0133
X4.2323Y-4.1535
X4.2343Y-3.8287
X4.252Y0.1969
X4.252Y-1.063
X4.2913Y0.1969
X4.2913Y0.1575
X4.2913Y-1.063
X4.2913Y-1.1024
X4.311Y-1.6142
X4.3307Y0.1969
X4.3307Y0.1575
X4.3307Y-1.063
X4.3307Y-1.1024
X4.3307Y-5.2362
X4.3701Y0.1969
X4.3701Y0.1575
X4.3701Y-1.063
X4.3701Y-1.1024
X4.4094Y0.1575
X4.4094Y-0.9055
X4.4094Y-1.1024
X4.4094Y-2.1654
X4.4094Y-2.9134
X4.4094Y-3.1496
X4.4291Y-0.3543
X4.4291Y-1.6142
X4.4488Y0.0
X4.4488Y-0.8268
X4.4488Y-1.2598
X4.4488Y-2.0866
X4.4685Y-2.8543
X4.4882Y-0.0394
X4.5276Y-3.1496
X4.5276Y-3.622
X4.5276Y-3.8583
X4.5276Y-4.0157
X4.6063Y-0.8071
X4.6063Y-2.0669
X4.6063Y-3.8583
X4.6063Y-4.0157
X4.6063Y-4.1339
X4.6457Y-3.2283
X4.6657Y-2.5855
X4.6657Y-5.2885
X4.685Y-0.5906
X4.685Y-1.8504
X4.685Y-3.937
X4.7244Y-0.6299
X4.7244Y-1.8898
X4.7441Y-1.3976
X4.7638Y-4.1339
X4.8031Y-0.9055
X4.8031Y-2.1654
X4.9015Y-3.1694
X4.9213Y-0.0394
X4.9213Y-1.2992
X4.9213Y-1.752
X4.9213Y-4.252
X4.9804Y-3.1299
X5.0Y-0.5118
X5.0787Y-0.2362
X5.0886Y-0.0394
X5.0886Y-1.2992
X5.1181Y-1.5748
X5.1181Y-3.937
X5.1575Y-0.4724
X5.1575Y-0.5118
X5.1575Y-1.7323
X5.1575Y-1.7717
X5.1969Y-0.4724
X5.1969Y-0.5118
X5.1969Y-1.7323
X5.1969Y-1.7717
X5.4331Y-0.0394
X5.4331Y-1.2992
X5.4724Y-3.937
T5
X2.5374Y-1.2598
X2.5374Y-1.3386
X2.5374Y-1.5748
X2.5374Y-1.6535
X2.5374Y-1.7323
X2.5374Y-1.811
X2.5374Y-1.8898
X2.5374Y-1.9685
X4.6687Y-4.6687
X4.7244Y-4.7244
T6
X2.7677Y0.0315
X2.7677Y-0.0685
X2.7677Y-0.1685
X2.7677Y-0.2685
X2.7677Y-0.4409
X2.7677Y-0.5409
X2.7677Y-0.6409
X2.7677Y-0.7409
T4
G00X3.7669Y-5.2104
M15
G01X3.7669Y-5.2537
M16
G05
G00X3.7669Y-5.3848
M15
G01X3.7669Y-5.4085
M16
G05
G00X4.1071Y-5.2104
M15
G01X4.1071Y-5.2537
M16
G05
G00X4.1071Y-5.3848
M15
G01X4.1071Y-5.4085
M16
G05
T0
M30
