M48
; DRILL file {KiCad 8.0.5} date 2026-06-23T02:00:21-0700
; FORMAT={-:-/ absolute / inch / decimal}
; #@! TF.CreationDate,2026-06-23T02:00:21-07:00
; #@! TF.GenerationSoftware,Kicad,Pcbnew,8.0.5
; #@! TF.FileFunction,Plated,1,2,PTH
FMAT,2
INCH
; #@! TA.AperFunction,Plated,PTH,ViaDrill
T1C0.0118
; #@! TA.AperFunction,Plated,PTH,ComponentDrill
T2C0.0118
; #@! TA.AperFunction,Plated,PTH,ComponentDrill
T3C0.0236
; #@! TA.AperFunction,Plated,PTH,ComponentDrill
T4C0.0315
; #@! TA.AperFunction,Plated,PTH,ComponentDrill
T5C0.0354
; #@! TA.AperFunction,Plated,PTH,ComponentDrill
T6C0.0394
; #@! TA.AperFunction,Plated,PTH,ComponentDrill
T7C0.0402
; #@! TA.AperFunction,Plated,PTH,ComponentDrill
T8C0.0630
%
G90
G05
T1
X-4.6457Y-2.8346
X-4.6063Y-1.2992
X-4.6063Y-2.8346
X-4.6063Y-3.189
X-4.6063Y-3.2283
X-4.5669Y-2.0472
X-4.5669Y-2.0866
X-4.5669Y-2.7165
X-4.5276Y-2.7165
X-4.5276Y-3.0315
X-4.5276Y-3.1299
X-4.5276Y-3.3268
X-4.4882Y-1.6142
X-4.4882Y-1.6535
X-4.4882Y-1.8504
X-4.4882Y-1.8898
X-4.4488Y-1.4961
X-4.4488Y-3.0709
X-4.4094Y-2.815
X-4.4028Y-2.3766
X-4.4028Y-2.5053
X-4.3701Y-1.8898
X-4.3701Y-1.9685
X-4.3701Y-2.1654
X-4.3701Y-2.6772
X-4.3701Y-2.7165
X-4.3634Y-2.3084
X-4.3634Y-2.5735
X-4.3307Y-2.0866
X-4.3307Y-2.6772
X-4.2913Y-1.8898
X-4.2913Y-1.9685
X-4.2913Y-2.874
X-4.252Y-2.2441
X-4.252Y-2.6378
X-4.2126Y-1.811
X-4.2126Y-1.9685
X-4.1732Y-1.4961
X-4.1732Y-2.2441
X-4.1732Y-2.6378
X-4.1339Y-1.811
X-4.1339Y-1.9685
X-4.1339Y-2.874
X-4.0945Y-1.378
X-4.0945Y-2.6772
X-4.0618Y-2.3084
X-4.0618Y-2.5735
X-4.0224Y-2.3766
X-4.0224Y-2.5053
X-4.0157Y-1.4567
X-4.0157Y-1.5354
X-4.0157Y-1.5748
X-4.0157Y-1.9685
X-4.0157Y-2.7756
X-4.0157Y-2.815
X-4.0157Y-2.8543
X-4.0157Y-2.8937
X-3.9764Y-2.0079
X-3.937Y-2.1457
X-3.937Y-1.4173
X-3.937Y-1.4567
X-3.937Y-1.5748
X-3.937Y-1.6535
X-3.937Y-1.7323
X-3.937Y-1.811
X-3.8976Y-2.0472
X-3.8976Y-2.0866
X-3.8976Y-2.3622
X-3.8583Y-2.4409
X-3.8583Y-2.5197
X-3.8189Y-1.2992
X-3.8189Y-2.5197
X-3.8189Y-2.8346
X-3.8189Y-3.189
X-3.8189Y-3.2677
X-3.7795Y-2.2441
X-3.7598Y-2.3031
X-3.5827Y-2.874
X-3.5827Y-2.9134
X-3.5433Y-1.1024
X-3.5236Y-2.7953
X-3.5236Y-2.9528
X-3.5039Y-1.9291
X-3.5039Y-1.9685
X-3.5039Y-2.0079
X-3.4646Y-1.1811
X-3.4646Y-1.4961
X-3.4252Y-1.1811
X-3.4252Y-1.2205
X-3.4055Y-2.9528
X-3.3465Y-1.4173
X-3.3465Y-1.6929
X-3.3465Y-1.9291
X-3.3465Y-1.9685
X-3.3465Y-2.0079
X-3.2677Y-2.4409
X-3.2087Y-1.4173
X-3.189Y-1.9685
X-3.15Y-1.5731
X-3.1496Y-1.9291
X-3.1496Y-1.9685
X-3.1102Y-1.5748
X-3.0709Y-0.9843
X-3.0709Y-1.5748
X-2.9924Y-2.008
X-2.9921Y-1.9291
X-2.9921Y-1.9685
X-2.9921Y-3.1102
X-2.9528Y-1.1417
X-2.9528Y-1.1811
X-2.9528Y-1.2205
X-2.9134Y-1.063
X-2.9134Y-1.1811
X-2.9134Y-2.4016
X-2.9134Y-2.4803
X-2.9134Y-3.0709
X-2.874Y-1.6535
X-2.8346Y-1.0236
X-2.8346Y-1.1024
X-2.8346Y-2.874
X-2.8346Y-2.9134
X-2.7953Y-1.6929
X-2.7953Y-2.874
X-2.7953Y-2.9134
X-2.7953Y-3.0709
X-2.7953Y-3.1102
X-2.7559Y-1.063
X-2.5984Y-2.8346
X-2.5591Y-1.2992
X-2.5591Y-2.8346
X-2.5591Y-3.189
X-2.5591Y-3.2283
X-2.5197Y-2.0472
X-2.5197Y-2.0866
X-2.5197Y-2.7165
X-2.4803Y-2.7165
X-2.4803Y-3.0315
X-2.4803Y-3.1299
X-2.4803Y-3.3268
X-2.4409Y-1.6142
X-2.4409Y-1.6535
X-2.4409Y-1.8504
X-2.4409Y-1.8898
X-2.4016Y-1.4961
X-2.4016Y-3.0709
X-2.3622Y-2.815
X-2.3555Y-2.3766
X-2.3555Y-2.5053
X-2.3228Y-1.8898
X-2.3228Y-1.9685
X-2.3228Y-2.1654
X-2.3228Y-2.6772
X-2.3228Y-2.7165
X-2.3161Y-2.3084
X-2.3161Y-2.5735
X-2.2835Y-2.0866
X-2.2835Y-2.6772
X-2.2441Y-1.8898
X-2.2441Y-1.9685
X-2.2441Y-2.874
X-2.2047Y-2.2441
X-2.2047Y-2.6378
X-2.1654Y-1.811
X-2.1654Y-1.9685
X-2.126Y-1.4961
X-2.126Y-2.2441
X-2.126Y-2.6378
X-2.0866Y-1.811
X-2.0866Y-1.9685
X-2.0866Y-2.874
X-2.0472Y-1.378
X-2.0472Y-2.6772
X-2.0146Y-2.3084
X-2.0146Y-2.5735
X-1.9752Y-2.3766
X-1.9752Y-2.5053
X-1.9685Y-1.4567
X-1.9685Y-1.5354
X-1.9685Y-1.5748
X-1.9685Y-1.9685
X-1.9685Y-2.7756
X-1.9685Y-2.815
X-1.9685Y-2.8543
X-1.9685Y-2.8937
X-1.9291Y-2.0079
X-1.8898Y-2.1457
X-1.8898Y-1.4173
X-1.8898Y-1.4567
X-1.8898Y-1.5748
X-1.8898Y-1.6535
X-1.8898Y-1.7323
X-1.8898Y-1.811
X-1.8504Y-2.0472
X-1.8504Y-2.0866
X-1.8504Y-2.3622
X-1.811Y-2.4409
X-1.811Y-2.5197
X-1.7717Y-1.2992
X-1.7717Y-2.5197
X-1.7717Y-2.8346
X-1.7717Y-3.189
X-1.7717Y-3.2677
X-1.7323Y-2.2441
X-1.7126Y-2.3031
X-1.5354Y-2.874
X-1.5354Y-2.9134
X-1.4961Y-1.1024
X-1.4764Y-2.7953
X-1.4764Y-2.9528
X-1.4567Y-1.9291
X-1.4567Y-1.9685
X-1.4567Y-2.0079
X-1.4173Y-1.1811
X-1.4173Y-1.4961
X-1.378Y-1.1811
X-1.378Y-1.2205
X-1.3583Y-2.9528
X-1.2992Y-1.4173
X-1.2992Y-1.6929
X-1.2992Y-1.9291
X-1.2992Y-1.9685
X-1.2992Y-2.0079
X-1.2205Y-2.4409
X-1.1614Y-1.4173
X-1.1417Y-1.9685
X-1.1028Y-1.5731
X-1.1024Y-1.9291
X-1.1024Y-1.9685
X-1.063Y-1.5748
X-1.0236Y-0.9843
X-1.0236Y-1.5748
X-0.9452Y-2.008
X-0.9449Y-1.9291
X-0.9449Y-1.9685
X-0.9449Y-3.1102
X-0.9055Y-1.1417
X-0.9055Y-1.1811
X-0.9055Y-1.2205
X-0.8661Y-1.063
X-0.8661Y-1.1811
X-0.8661Y-2.4016
X-0.8661Y-2.4803
X-0.8661Y-3.0709
X-0.8268Y-1.6535
X-0.7874Y-1.0236
X-0.7874Y-1.1024
X-0.7874Y-2.874
X-0.7874Y-2.9134
X-0.748Y-1.6929
X-0.748Y-2.874
X-0.748Y-2.9134
X-0.748Y-3.0709
X-0.748Y-3.1102
X-0.7087Y-1.063
X-0.5512Y0.0
X-0.5512Y-0.748
X-0.5512Y-0.7874
X-0.5512Y-1.1024
X-0.5512Y-1.1417
X-0.5512Y-1.1811
X-0.5118Y-0.0984
X-0.5118Y-0.9449
X-0.4921Y-1.6929
X-0.4724Y-0.7874
X-0.4724Y-0.8268
X-0.4621Y-1.1667
X-0.4429Y-2.5197
X-0.4345Y-2.3221
X-0.4331Y0.1969
X-0.4331Y-1.378
X-0.4331Y-1.4173
X-0.3839Y-2.5197
X-0.3839Y-2.5886
X-0.374Y-1.5945
X-0.374Y-1.7323
X-0.374Y-1.7717
X-0.3543Y-0.7087
X-0.3543Y-0.9449
X-0.3346Y-1.5945
X-0.315Y-0.6299
X-0.315Y-0.6693
X-0.315Y-2.4016
X-0.315Y-2.4606
X-0.315Y-2.5197
X-0.315Y-2.5984
X-0.2953Y-0.0394
X-0.2953Y-0.0787
X-0.2953Y-1.5945
X-0.2756Y-0.2756
X-0.2756Y-0.3543
X-0.2756Y-0.8268
X-0.2756Y-1.7323
X-0.2756Y-1.811
X-0.2756Y-2.0079
X-0.2756Y-2.1654
X-0.2756Y-2.3425
X-0.2657Y-1.4173
X-0.2559Y-1.1417
X-0.2362Y-0.6693
X-0.2362Y-0.9449
X-0.2362Y-1.3386
X-0.2362Y-2.0079
X-0.2362Y-2.4016
X-0.2362Y-2.4606
X-0.2067Y-1.4567
X-0.1969Y-0.3937
X-0.1969Y-1.2205
X-0.1969Y-1.2598
X-0.1969Y-2.0079
X-0.1969Y-2.1654
X-0.1575Y-0.3937
X-0.1575Y-0.9055
X-0.1575Y-2.1654
X-0.1181Y0.1969
X-0.1181Y0.0
X-0.1181Y-0.0787
X-0.1181Y-0.1181
X-0.1181Y-0.1575
X-0.1181Y-0.2165
X-0.1181Y-0.3937
X-0.1181Y-0.5512
X-0.1181Y-0.748
X-0.1181Y-1.4173
X-0.1181Y-1.4961
X-0.1181Y-1.7323
X-0.1181Y-2.0079
X-0.1181Y-2.0866
X-0.1181Y-2.1654
X-0.0787Y0.0
X-0.0787Y-0.3937
X-0.0787Y-0.5512
X-0.0492Y-1.4567
X-0.0394Y0.0
X-0.0394Y-0.7874
X-0.0394Y-1.1417
X-0.0394Y-1.7323
X-0.0394Y-1.811
X0.0Y-0.3937
X0.0Y-0.5512
X0.0Y-0.6299
X0.0Y-1.378
X0.0Y-1.8898
X0.0Y-2.2638
X0.0Y-2.3228
X0.0Y-2.5984
X0.0394Y0.0
X0.0394Y-0.3937
X0.0394Y-0.5512
X0.0394Y-0.7087
X0.0394Y-1.1024
X0.0394Y-1.1417
X0.0394Y-1.2402
X0.0394Y-1.378
X0.0394Y-1.7323
X0.0492Y-1.4567
X0.0591Y-2.0079
X0.0591Y-2.1654
X0.0591Y-2.2244
X0.0591Y-2.2835
X0.0787Y0.0
X0.0787Y-0.3937
X0.0787Y-0.5512
X0.0787Y-2.5984
X0.1083Y-1.8504
X0.1181Y-0.1969
X0.1181Y-0.3937
X0.1181Y-0.5512
X0.1181Y-0.8268
X0.1181Y-1.6929
X0.1181Y-1.8898
X0.1181Y-2.3622
X0.1378Y-1.4173
X0.1575Y-0.3937
X0.1575Y-0.5512
X0.1575Y-1.2598
X0.1575Y-1.2992
X0.1575Y-1.7323
X0.1575Y-1.9685
X0.1575Y-2.0374
X0.1575Y-2.1358
X0.1575Y-2.1949
X0.1575Y-2.2539
X0.1969Y0.1969
X0.1969Y-0.3937
X0.1969Y-0.8268
X0.1969Y-1.5748
X0.1969Y-1.6142
X0.1969Y-1.6535
X0.1969Y-2.5197
X0.1969Y-2.5591
X0.1969Y-2.5984
X0.2362Y-2.5984
X0.2362Y-2.7953
X0.2657Y-1.4567
X0.2756Y0.2362
X0.2756Y0.1181
X0.2756Y-0.8268
X0.2756Y-1.6142
X0.2756Y-1.6535
X0.2756Y-3.0118
X0.2756Y-3.1299
X0.2953Y-1.2205
X0.315Y-3.2805
X0.3543Y-0.6299
X0.3543Y-1.2992
X0.3543Y-2.7559
X0.3543Y-2.8346
X0.374Y-3.1693
X0.3937Y-0.3543
X0.3937Y-0.5512
X0.3937Y-2.0866
X0.3937Y-2.2047
X0.3937Y-2.3228
X0.4331Y0.1969
X0.4331Y0.0787
X0.4331Y-0.3543
X0.4331Y-0.5512
X0.4331Y-3.0118
X0.4331Y-3.1693
X0.4724Y-0.3543
X0.4724Y-0.5512
X0.4724Y-2.126
X0.4724Y-3.0709
X0.4724Y-3.2805
X0.5118Y0.1181
X0.5118Y-0.4331
X0.5118Y-0.5512
X0.5118Y-0.6299
X0.5118Y-1.1811
X0.5118Y-1.2598
X0.5118Y-2.7559
X0.5118Y-2.8346
X0.5512Y-3.0709
X1.0256Y-1.1339
X1.1024Y-1.0571
X1.1024Y-1.8071
X1.1024Y-2.5571
X1.1024Y-3.3071
X1.1063Y0.3602
X1.1063Y-0.3484
X1.185Y-0.3878
X1.2598Y-0.8602
X1.2598Y-1.0571
X1.2598Y-1.6102
X1.2598Y-1.8071
X1.2598Y-2.3602
X1.2598Y-2.5571
X1.2598Y-3.1102
X1.2598Y-3.3071
X1.2638Y0.3996
X1.2638Y-0.3484
X1.3031Y0.0846
X1.4567Y-0.7421
X1.4567Y-1.5295
X1.4567Y-2.2421
X1.4567Y-3.0295
X1.4606Y0.2421
X1.4606Y-0.4272
X1.5Y-0.4272
X1.5Y-3.3445
X1.5394Y0.1634
X1.6181Y0.2028
X1.6181Y0.0453
X1.6181Y-0.2697
X1.6181Y-0.4272
X1.6969Y-0.2697
X1.6969Y-0.4272
X1.7362Y0.2421
X1.7756Y-0.2697
X1.7756Y-1.1358
X1.815Y0.2815
X1.815Y-0.3878
X1.8524Y-1.0571
X1.8524Y-1.8071
X1.8524Y-2.5571
X1.8524Y-3.3071
X1.8543Y0.2815
X1.8543Y0.0059
X1.8937Y0.124
X1.9331Y0.2815
X1.9331Y0.0846
X1.9331Y-0.5059
X1.9724Y0.2815
X1.9724Y-0.1909
X1.9724Y-0.3091
X1.9724Y-0.3878
X1.9724Y-0.5059
X2.0098Y-0.8602
X2.0098Y-1.0571
X2.0098Y-1.6102
X2.0098Y-1.8071
X2.0098Y-2.3602
X2.0098Y-2.5571
X2.0098Y-3.1102
X2.0098Y-3.3071
X2.0512Y0.3602
X2.0512Y-0.3091
X2.1299Y-0.3091
X2.1299Y-0.3878
X2.2067Y-0.7421
X2.2067Y-1.5295
X2.2067Y-2.2421
X2.2067Y-3.0295
X2.2087Y0.0453
X2.2087Y-0.3091
X2.2087Y-0.3878
X2.248Y-0.1122
X2.248Y-2.5965
X2.291Y-0.1086
X2.3281Y-0.1109
X2.3661Y-0.1122
X2.4843Y-0.1516
X2.4843Y-0.2303
X2.5236Y-1.1358
X2.6024Y0.2421
X2.6024Y-1.0571
X2.6024Y-1.8071
X2.6024Y-2.5571
X2.6024Y-3.3071
X2.6417Y0.3602
X2.7205Y0.2421
X2.7598Y0.2421
X2.7598Y-0.3091
X2.7598Y-0.8602
X2.7598Y-1.0571
X2.7598Y-1.6102
X2.7598Y-1.8071
X2.7598Y-2.3602
X2.7598Y-2.5571
X2.7598Y-3.1102
X2.7598Y-3.3071
X2.7992Y0.2421
X2.7992Y0.2028
X2.878Y-0.1516
X2.9567Y-0.7421
X2.9567Y-1.5295
X2.9567Y-2.2421
X2.9567Y-3.0295
X2.9961Y-1.8445
X3.0354Y-1.0965
X3.2963Y0.3604
X3.3107Y-0.6024
X3.311Y-0.0906
X3.3504Y-2.3622
X3.3701Y-0.6614
X3.3898Y-0.7992
X3.3898Y-2.2835
X3.3937Y-0.3288
X3.4076Y0.249
X3.4076Y-0.3983
X3.4094Y-2.7165
X3.4246Y0.1933
X3.4291Y0.0669
X3.4291Y-0.0118
X3.4291Y-0.0512
X3.4291Y-0.1299
X3.4291Y-0.7008
X3.4291Y-3.5039
X3.4685Y-0.4055
X3.4685Y-2.5
X3.4685Y-2.5602
X3.4685Y-2.6772
X3.4685Y-2.874
X3.4685Y-2.9528
X3.4685Y-2.9921
X3.4685Y-3.2283
X3.4685Y-3.5827
X3.5079Y-0.248
X3.5079Y-0.9173
X3.5079Y-3.4449
X3.5079Y-3.563
X3.5321Y0.2222
X3.5423Y-2.6378
X3.5472Y-1.1614
X3.5472Y-3.4252
X3.5472Y-3.5827
X3.549Y-2.9152
X3.5773Y0.1189
X3.5866Y-0.2874
X3.5866Y-3.0709
X3.5866Y-3.1102
X3.5886Y-0.9134
X3.6063Y-0.1693
X3.626Y-1.2598
X3.626Y-2.3622
X3.626Y-2.6969
X3.626Y-2.7362
X3.6457Y-0.1102
X3.6582Y-0.8994
X3.6654Y-0.8386
X3.6654Y-2.5197
X3.6654Y-3.1102
X3.6737Y0.1746
X3.7047Y0.126
X3.7047Y-0.0118
X3.7047Y-0.9961
X3.7047Y-1.2598
X3.7047Y-2.9921
X3.7047Y-3.4646
X3.7441Y-0.6811
X3.7835Y-0.5236
X3.7835Y-0.563
X3.7835Y-0.6417
X3.7835Y-2.5197
X3.7835Y-2.6772
X3.7835Y-2.9134
X3.7835Y-3.189
X3.7835Y-3.5039
X3.8228Y-0.3661
X3.8228Y-0.6024
X3.8228Y-0.6811
X3.8228Y-2.5984
X3.8228Y-2.6772
X3.8228Y-3.0709
X3.8228Y-3.189
X3.8425Y-3.6614
X3.8622Y0.126
X3.8622Y-0.9964
X3.8622Y-2.9134
X3.8622Y-3.4646
X3.9016Y-0.2087
X3.9016Y-1.1811
X3.9016Y-2.874
X3.9016Y-3.2283
X3.9016Y-3.2677
X3.9087Y-0.1478
X3.9213Y-0.937
X3.9311Y0.185
X3.9409Y-2.7165
X3.9606Y-0.878
X3.9783Y-0.1339
X3.9803Y0.0669
X3.9803Y-1.1417
X3.9803Y-3.3465
X3.9803Y-3.5433
X4.0197Y-2.4016
X4.0197Y-2.4803
X4.0197Y-3.3465
X4.0197Y-3.5827
X4.0197Y-3.7402
X4.0591Y-0.2482
X4.0591Y-0.2874
X4.0591Y-0.9173
X4.0591Y-1.3386
X4.0591Y-3.3465
X4.0742Y0.154
X4.0984Y-0.6417
X4.0984Y-2.8937
X4.0984Y-3.1102
X4.0984Y-3.4252
X4.103Y0.2615
X4.1181Y-2.5984
X4.1378Y-0.0118
X4.1378Y-0.3465
X4.1378Y-2.4803
X4.1378Y-2.9921
X4.1378Y-3.4252
X4.139Y-3.6626
X4.1593Y-0.6489
X4.1593Y0.249
X4.1732Y-0.7185
X4.1772Y0.0276
X4.1772Y-0.7992
X4.1772Y-2.3228
X4.1772Y-2.8346
X4.1772Y-3.0315
X4.1772Y-3.5827
X4.1969Y-0.3858
X4.2165Y-3.0315
X4.2559Y0.0768
X4.2559Y-0.6024
X4.2559Y-2.2835
X4.2559Y-3.2283
T2
X-4.3268Y-1.6047
X-4.3268Y-1.6598
X-4.2992Y-1.5772
X-4.2992Y-1.6323
X-4.2992Y-1.6874
X-4.2717Y-1.6047
X-4.2717Y-1.6598
X-4.2441Y-1.5772
X-4.2441Y-1.6323
X-4.2441Y-1.6874
X-4.2165Y-1.6047
X-4.2165Y-1.6598
X-3.1713Y-1.313
X-3.1713Y-1.3642
X-3.128Y-1.313
X-3.128Y-1.3642
X-2.2795Y-1.6047
X-2.2795Y-1.6598
X-2.252Y-1.5772
X-2.252Y-1.6323
X-2.252Y-1.6874
X-2.2244Y-1.6047
X-2.2244Y-1.6598
X-2.1969Y-1.5772
X-2.1969Y-1.6323
X-2.1969Y-1.6874
X-2.1693Y-1.6047
X-2.1693Y-1.6598
X-1.124Y-1.313
X-1.124Y-1.3642
X-1.0807Y-1.313
X-1.0807Y-1.3642
X0.0039Y-0.0693
X0.0039Y-0.1244
X0.0315Y-0.0417
X0.0315Y-0.0969
X0.0315Y-0.152
X0.0591Y-0.0693
X0.0591Y-0.1244
X0.0866Y-0.0417
X0.0866Y-0.0969
X0.0866Y-0.152
X0.1142Y-0.0693
X0.1142Y-0.1244
X0.3561Y-1.878
X0.3561Y-1.9291
X0.3561Y-1.9803
X0.3561Y-2.4685
X0.3561Y-2.5197
X0.3561Y-2.5709
X0.4313Y-1.878
X0.4313Y-1.9291
X0.4313Y-1.9803
X0.4313Y-2.4685
X0.4313Y-2.5197
X0.4313Y-2.5709
T4
X-4.6457Y-1.4961
X-4.6457Y-1.5748
X-4.6457Y-1.6535
X-4.6457Y-1.7323
X-4.6457Y-1.811
X-4.6457Y-1.8898
X-4.6457Y-1.9685
X-4.6457Y-2.0472
X-3.7795Y-1.4961
X-3.7795Y-1.5748
X-3.7795Y-1.6535
X-3.7795Y-1.7323
X-3.7795Y-1.811
X-3.7795Y-1.8898
X-3.7795Y-1.9685
X-3.7795Y-2.0472
X-3.622Y-1.4961
X-3.622Y-1.5748
X-3.622Y-1.6535
X-3.622Y-1.7323
X-3.622Y-1.811
X-3.622Y-1.8898
X-3.622Y-1.9685
X-3.622Y-2.0472
X-2.9528Y-1.3386
X-2.9528Y-1.4173
X-2.7559Y-1.4961
X-2.7559Y-1.5748
X-2.7559Y-1.6535
X-2.7559Y-1.7323
X-2.7559Y-1.811
X-2.7559Y-1.8898
X-2.7559Y-1.9685
X-2.7559Y-2.0472
X-2.5984Y-1.4961
X-2.5984Y-1.5748
X-2.5984Y-1.6535
X-2.5984Y-1.7323
X-2.5984Y-1.811
X-2.5984Y-1.8898
X-2.5984Y-1.9685
X-2.5984Y-2.0472
X-1.7323Y-1.4961
X-1.7323Y-1.5748
X-1.7323Y-1.6535
X-1.7323Y-1.7323
X-1.7323Y-1.811
X-1.7323Y-1.8898
X-1.7323Y-1.9685
X-1.7323Y-2.0472
X-1.5748Y-1.4961
X-1.5748Y-1.5748
X-1.5748Y-1.6535
X-1.5748Y-1.7323
X-1.5748Y-1.811
X-1.5748Y-1.8898
X-1.5748Y-1.9685
X-1.5748Y-2.0472
X-0.9055Y-1.3386
X-0.9055Y-1.4173
X-0.7087Y-1.4961
X-0.7087Y-1.5748
X-0.7087Y-1.6535
X-0.7087Y-1.7323
X-0.7087Y-1.811
X-0.7087Y-1.8898
X-0.7087Y-1.9685
X-0.7087Y-2.0472
X4.1772Y-2.4409
X4.2559Y-2.4409
T5
X-0.4219Y-2.722
X-0.3719Y-2.822
X-0.3219Y-2.722
X-0.2719Y-2.822
X-0.2219Y-2.722
X-0.1719Y-2.822
X-0.1219Y-2.722
X-0.0719Y-2.822
X-0.0219Y-2.722
X0.0281Y-2.822
T6
X1.7433Y0.439
X1.8433Y0.439
X1.9433Y0.439
X2.0433Y0.439
T7
X-3.3394Y-0.878
X-3.2394Y-0.878
X-3.1394Y-0.878
X-3.0394Y-0.878
X-1.2921Y-0.878
X-1.1921Y-0.878
X-1.0921Y-0.878
X-0.9921Y-0.878
X-0.4579Y-3.2327
X-0.3579Y-3.2327
X-0.0358Y-3.2327
X0.0642Y-3.2327
T8
X-0.5018Y-2.952
X0.1081Y-2.952
T3
G00X-3.3591Y-3.2547
M15
G01X-3.3591Y-3.298
M16
G05
G00X-3.3591Y-3.4291
M15
G01X-3.3591Y-3.4528
M16
G05
G00X-3.0189Y-3.2547
M15
G01X-3.0189Y-3.298
M16
G05
G00X-3.0189Y-3.4291
M15
G01X-3.0189Y-3.4528
M16
G05
G00X-1.3118Y-3.2547
M15
G01X-1.3118Y-3.298
M16
G05
G00X-1.3118Y-3.4291
M15
G01X-1.3118Y-3.4528
M16
G05
G00X-0.9717Y-3.2547
M15
G01X-0.9717Y-3.298
M16
G05
G00X-0.9717Y-3.4291
M15
G01X-0.9717Y-3.4528
M16
G05
G00X0.2236Y-3.2154
M15
G01X0.2236Y-3.2587
M16
G05
G00X0.2236Y-3.3898
M15
G01X0.2236Y-3.4134
M16
G05
G00X0.5638Y-3.2154
M15
G01X0.5638Y-3.2587
M16
G05
G00X0.5638Y-3.3898
M15
G01X0.5638Y-3.4134
M16
G05
G00X2.511Y0.5059
M15
G01X2.511Y0.4823
M16
G05
G00X2.511Y0.3512
M15
G01X2.511Y0.3079
M16
G05
G00X2.8512Y0.5059
M15
G01X2.8512Y0.4823
M16
G05
G00X2.8512Y0.3512
M15
G01X2.8512Y0.3079
M16
G05
G00X3.6134Y-3.6091
M15
G01X3.6134Y-3.6524
M16
G05
G00X3.6134Y-3.7835
M15
G01X3.6134Y-3.8071
M16
G05
G00X3.9535Y-3.6091
M15
G01X3.9535Y-3.6524
M16
G05
G00X3.9535Y-3.7835
M15
G01X3.9535Y-3.8071
M16
G05
M30
