M48
; DRILL file {KiCad 8.0.5} date 2026-06-23T02:00:21-0700
; FORMAT={-:-/ absolute / inch / decimal}
; #@! TF.CreationDate,2026-06-23T02:00:21-07:00
; #@! TF.GenerationSoftware,Kicad,Pcbnew,8.0.5
; #@! TF.FileFunction,NonPlated,1,2,NPTH
FMAT,2
INCH
; #@! TA.AperFunction,NonPlated,NPTH,ComponentDrill
T1C0.0150
; #@! TA.AperFunction,NonPlated,NPTH,ComponentDrill
T2C0.0256
; #@! TA.AperFunction,NonPlated,NPTH,ComponentDrill
T3C0.0276
; #@! TA.AperFunction,NonPlated,NPTH,ComponentDrill
T4C0.0390
; #@! TA.AperFunction,NonPlated,NPTH,ComponentDrill
T5C0.0433
; #@! TA.AperFunction,NonPlated,NPTH,ComponentDrill
T6C0.0454
; #@! TA.AperFunction,NonPlated,NPTH,ComponentDrill
T7C0.0610
; #@! TA.AperFunction,NonPlated,NPTH,ComponentDrill
T8C0.0630
; #@! TA.AperFunction,NonPlated,NPTH,ComponentDrill
T9C0.0689
; #@! TA.AperFunction,NonPlated,NPTH,ComponentDrill
T10C0.0787
; #@! TA.AperFunction,NonPlated,NPTH,ComponentDrill
T11C0.0807
; #@! TA.AperFunction,NonPlated,NPTH,ComponentDrill
T12C0.0827
; #@! TA.AperFunction,NonPlated,NPTH,ComponentDrill
T13C0.1063
; #@! TA.AperFunction,NonPlated,NPTH,ComponentDrill
T14C0.1201
; #@! TA.AperFunction,NonPlated,NPTH,ComponentDrill
T15C0.1280
; #@! TA.AperFunction,NonPlated,NPTH,ComponentDrill
T16C0.1575
%
G90
G05
T1
X-3.7476Y-0.938
X-3.7476Y-0.963
X-3.7476Y-0.988
X-3.7476Y-1.013
X-3.7476Y-1.038
X-3.7476Y-1.063
X-3.7476Y-1.088
X-3.7476Y-1.113
X-3.7476Y-1.138
X-3.7476Y-1.163
X-3.7476Y-1.188
X-3.7476Y-3.1427
X-3.7476Y-3.1677
X-3.7476Y-3.1927
X-3.7476Y-3.2177
X-3.7476Y-3.2427
X-3.7476Y-3.2677
X-3.7476Y-3.2927
X-3.7476Y-3.3177
X-3.7476Y-3.3427
X-3.7476Y-3.3677
X-3.7476Y-3.3927
X-3.6539Y-0.938
X-3.6539Y-0.963
X-3.6539Y-0.988
X-3.6539Y-1.013
X-3.6539Y-1.038
X-3.6539Y-1.063
X-3.6539Y-1.088
X-3.6539Y-1.113
X-3.6539Y-1.138
X-3.6539Y-1.163
X-3.6539Y-1.188
X-3.6539Y-3.1427
X-3.6539Y-3.1677
X-3.6539Y-3.1927
X-3.6539Y-3.2177
X-3.6539Y-3.2427
X-3.6539Y-3.2677
X-3.6539Y-3.2927
X-3.6539Y-3.3177
X-3.6539Y-3.3427
X-3.6539Y-3.3677
X-3.6539Y-3.3927
X-2.724Y-2.0797
X-2.724Y-2.1047
X-2.724Y-2.1297
X-2.724Y-2.1547
X-2.724Y-2.1797
X-2.724Y-2.2047
X-2.724Y-2.2297
X-2.724Y-2.2547
X-2.724Y-2.2797
X-2.724Y-2.3047
X-2.724Y-2.3297
X-2.724Y-3.1427
X-2.724Y-3.1677
X-2.724Y-3.1927
X-2.724Y-3.2177
X-2.724Y-3.2427
X-2.724Y-3.2677
X-2.724Y-3.2927
X-2.724Y-3.3177
X-2.724Y-3.3427
X-2.724Y-3.3677
X-2.724Y-3.3927
X-2.6303Y-2.0797
X-2.6303Y-2.1047
X-2.6303Y-2.1297
X-2.6303Y-2.1547
X-2.6303Y-2.1797
X-2.6303Y-2.2047
X-2.6303Y-2.2297
X-2.6303Y-2.2547
X-2.6303Y-2.2797
X-2.6303Y-2.3047
X-2.6303Y-2.3297
X-2.6303Y-3.1427
X-2.6303Y-3.1677
X-2.6303Y-3.1927
X-2.6303Y-3.2177
X-2.6303Y-3.2427
X-2.6303Y-3.2677
X-2.6303Y-3.2927
X-2.6303Y-3.3177
X-2.6303Y-3.3427
X-2.6303Y-3.3677
X-2.6303Y-3.3927
X-1.7004Y-0.938
X-1.7004Y-0.963
X-1.7004Y-0.988
X-1.7004Y-1.013
X-1.7004Y-1.038
X-1.7004Y-1.063
X-1.7004Y-1.088
X-1.7004Y-1.113
X-1.7004Y-1.138
X-1.7004Y-1.163
X-1.7004Y-1.188
X-1.7004Y-3.1427
X-1.7004Y-3.1677
X-1.7004Y-3.1927
X-1.7004Y-3.2177
X-1.7004Y-3.2427
X-1.7004Y-3.2677
X-1.7004Y-3.2927
X-1.7004Y-3.3177
X-1.7004Y-3.3427
X-1.7004Y-3.3677
X-1.7004Y-3.3927
X-1.6067Y-0.938
X-1.6067Y-0.963
X-1.6067Y-0.988
X-1.6067Y-1.013
X-1.6067Y-1.038
X-1.6067Y-1.063
X-1.6067Y-1.088
X-1.6067Y-1.113
X-1.6067Y-1.138
X-1.6067Y-1.163
X-1.6067Y-1.188
X-1.6067Y-3.1427
X-1.6067Y-3.1677
X-1.6067Y-3.1927
X-1.6067Y-3.2177
X-1.6067Y-3.2427
X-1.6067Y-3.2677
X-1.6067Y-3.2927
X-1.6067Y-3.3177
X-1.6067Y-3.3427
X-1.6067Y-3.3677
X-1.6067Y-3.3927
X-0.6768Y-2.0797
X-0.6768Y-2.1047
X-0.6768Y-2.1297
X-0.6768Y-2.1547
X-0.6768Y-2.1797
X-0.6768Y-2.2047
X-0.6768Y-2.2297
X-0.6768Y-2.2547
X-0.6768Y-2.2797
X-0.6768Y-2.3047
X-0.6768Y-2.3297
X-0.6768Y-3.1427
X-0.6768Y-3.1677
X-0.6768Y-3.1927
X-0.6768Y-3.2177
X-0.6768Y-3.2427
X-0.6768Y-3.2677
X-0.6768Y-3.2927
X-0.6768Y-3.3177
X-0.6768Y-3.3427
X-0.6768Y-3.3677
X-0.6768Y-3.3927
X-0.5831Y-2.0797
X-0.5831Y-2.1047
X-0.5831Y-2.1297
X-0.5831Y-2.1547
X-0.5831Y-2.1797
X-0.5831Y-2.2047
X-0.5831Y-2.2297
X-0.5831Y-2.2547
X-0.5831Y-2.2797
X-0.5831Y-2.3047
X-0.5831Y-2.3297
X-0.5831Y-3.1427
X-0.5831Y-3.1677
X-0.5831Y-3.1927
X-0.5831Y-3.2177
X-0.5831Y-3.2427
X-0.5831Y-3.2677
X-0.5831Y-3.2927
X-0.5831Y-3.3177
X-0.5831Y-3.3427
X-0.5831Y-3.3677
X-0.5831Y-3.3927
X0.5831Y0.2037
X0.5831Y0.1787
X0.5831Y0.1537
X0.5831Y0.1287
X0.5831Y0.1037
X0.5831Y0.0787
X0.5831Y0.0537
X0.5831Y0.0287
X0.5831Y0.0037
X0.5831Y-0.0213
X0.5831Y-0.0463
X0.5831Y-1.3317
X0.5831Y-1.3567
X0.5831Y-1.3817
X0.5831Y-1.4067
X0.5831Y-1.4317
X0.5831Y-1.4567
X0.5831Y-1.4817
X0.5831Y-1.5067
X0.5831Y-1.5317
X0.5831Y-1.5567
X0.5831Y-1.5817
X0.5831Y-2.0797
X0.5831Y-2.1047
X0.5831Y-2.1297
X0.5831Y-2.1547
X0.5831Y-2.1797
X0.5831Y-2.2047
X0.5831Y-2.2297
X0.5831Y-2.2547
X0.5831Y-2.2797
X0.5831Y-2.3047
X0.5831Y-2.3297
X0.6768Y0.2037
X0.6768Y0.1787
X0.6768Y0.1537
X0.6768Y0.1287
X0.6768Y0.1037
X0.6768Y0.0787
X0.6768Y0.0537
X0.6768Y0.0287
X0.6768Y0.0037
X0.6768Y-0.0213
X0.6768Y-0.0463
X0.6768Y-1.3317
X0.6768Y-1.3567
X0.6768Y-1.3817
X0.6768Y-1.4067
X0.6768Y-1.4317
X0.6768Y-1.4567
X0.6768Y-1.4817
X0.6768Y-1.5067
X0.6768Y-1.5317
X0.6768Y-1.5567
X0.6768Y-1.5817
X0.6768Y-2.0797
X0.6768Y-2.1047
X0.6768Y-2.1297
X0.6768Y-2.1547
X0.6768Y-2.1797
X0.6768Y-2.2047
X0.6768Y-2.2297
X0.6768Y-2.2547
X0.6768Y-2.2797
X0.6768Y-2.3047
X0.6768Y-2.3297
X3.1854Y0.2431
X3.1854Y0.2181
X3.1854Y0.1931
X3.1854Y0.1681
X3.1854Y0.1431
X3.1854Y0.1181
X3.1854Y0.0931
X3.1854Y0.0681
X3.1854Y0.0431
X3.1854Y0.0181
X3.1854Y-0.0069
X3.1854Y-0.0719
X3.1854Y-0.0969
X3.1854Y-0.1219
X3.1854Y-0.1469
X3.1854Y-0.1719
X3.1854Y-0.1969
X3.1854Y-0.2219
X3.1854Y-0.2469
X3.1854Y-0.2719
X3.1854Y-0.2969
X3.1854Y-0.3219
X3.1854Y-1.4498
X3.1854Y-1.4748
X3.1854Y-1.4998
X3.1854Y-1.5248
X3.1854Y-1.5498
X3.1854Y-1.5748
X3.1854Y-1.5998
X3.1854Y-1.6248
X3.1854Y-1.6498
X3.1854Y-1.6748
X3.1854Y-1.6998
X3.1854Y-2.5522
X3.1854Y-2.5772
X3.1854Y-2.6022
X3.1854Y-2.6272
X3.1854Y-2.6522
X3.1854Y-2.6772
X3.1854Y-2.7022
X3.1854Y-2.7272
X3.1854Y-2.7522
X3.1854Y-2.7772
X3.1854Y-2.8022
X3.2791Y0.2431
X3.2791Y0.2181
X3.2791Y0.1931
X3.2791Y0.1681
X3.2791Y0.1431
X3.2791Y0.1181
X3.2791Y0.0931
X3.2791Y0.0681
X3.2791Y0.0431
X3.2791Y0.0181
X3.2791Y-0.0069
X3.2791Y-0.0719
X3.2791Y-0.0969
X3.2791Y-0.1219
X3.2791Y-0.1469
X3.2791Y-0.1719
X3.2791Y-0.1969
X3.2791Y-0.2219
X3.2791Y-0.2469
X3.2791Y-0.2719
X3.2791Y-0.2969
X3.2791Y-0.3219
X3.2791Y-1.4498
X3.2791Y-1.4748
X3.2791Y-1.4998
X3.2791Y-1.5248
X3.2791Y-1.5498
X3.2791Y-1.5748
X3.2791Y-1.5998
X3.2791Y-1.6248
X3.2791Y-1.6498
X3.2791Y-1.6748
X3.2791Y-1.6998
X3.2791Y-2.5522
X3.2791Y-2.5772
X3.2791Y-2.6022
X3.2791Y-2.6272
X3.2791Y-2.6522
X3.2791Y-2.6772
X3.2791Y-2.7022
X3.2791Y-2.7272
X3.2791Y-2.7522
X3.2791Y-2.7772
X3.2791Y-2.8022
T2
X-3.3028Y-3.2961
X-3.0752Y-3.2961
X-1.2555Y-3.2961
X-1.028Y-3.2961
X0.2799Y-3.2567
X0.5075Y-3.2567
X2.5673Y0.3492
X2.7949Y0.3492
X3.6697Y-3.6504
X3.8972Y-3.6504
T3
X3.7835Y-1.126
X3.7835Y-1.1969
T4
X-3.8589Y-2.1441
X-3.8189Y-2.3441
X-3.7789Y-2.1441
X-1.8117Y-2.1441
X-1.7717Y-2.3441
X-1.7317Y-2.1441
X-0.5518Y-0.8874
X-0.5518Y-1.2417
X-0.5118Y-0.6874
X-0.5118Y-1.0417
X-0.4718Y-0.8874
X-0.4718Y-1.2417
X3.3291Y-2.3222
X3.3291Y-2.4022
X3.5291Y-2.3622
X4.1765Y-0.0724
X4.2165Y0.1276
X4.2565Y-0.0724
T5
X-3.2394Y-0.963
X-1.1921Y-0.963
T6
X-3.4252Y-0.8268
X-3.4252Y-3.5039
X-2.9528Y-3.5039
X-1.378Y-0.8268
X-1.378Y-3.5039
X-0.9055Y-3.5039
X-0.5118Y0.1969
X-0.5118Y-3.3858
X0.5118Y0.1969
X3.3504Y-3.3858
X3.3898Y-1.4961
X4.1772Y-1.4961
T9
X0.9811Y-0.7421
X0.9811Y-1.4921
X0.9811Y-2.2421
X0.9811Y-2.9921
X1.3811Y-0.7421
X1.3811Y-1.4921
X1.3811Y-2.2421
X1.3811Y-2.9921
X1.7311Y-0.7421
X1.7311Y-1.4921
X1.7311Y-2.2421
X1.7311Y-2.9921
X2.1311Y-0.7421
X2.1311Y-1.4921
X2.1311Y-2.2421
X2.1311Y-2.9921
X2.4811Y-0.7421
X2.4811Y-1.4921
X2.4811Y-2.2421
X2.4811Y-2.9921
X2.8811Y-0.7421
X2.8811Y-1.4921
X2.8811Y-2.2421
X2.8811Y-2.9921
T10
X-3.189Y-3.4252
X-1.1417Y-3.4252
T11
X1.1811Y0.0079
T12
X-3.189Y-2.4409
X-1.1417Y-2.4409
T13
X-4.5669Y-0.9055
X-4.5669Y-3.4252
X-3.8583Y-0.9055
X-3.8583Y-3.4252
X-3.5433Y-0.9055
X-3.5433Y-3.4252
X-2.8346Y-0.9055
X-2.8346Y-3.4252
X-2.5197Y-0.9055
X-2.5197Y-3.4252
X-1.811Y-0.9055
X-1.811Y-3.4252
X-1.4961Y-0.9055
X-1.4961Y-3.4252
X-0.7874Y-0.9055
X-0.7874Y-3.4252
X0.7874Y0.439
X0.7874Y-3.3858
X3.0748Y0.439
X3.0748Y-3.3858
T14
X1.0811Y-0.5421
X1.0811Y-1.2921
X1.0811Y-2.0421
X1.0811Y-2.7921
X1.3311Y-0.6421
X1.3311Y-1.3921
X1.3311Y-2.1421
X1.3311Y-2.8921
X1.8311Y-0.5421
X1.8311Y-1.2921
X1.8311Y-2.0421
X1.8311Y-2.7921
X2.0811Y-0.6421
X2.0811Y-1.3921
X2.0811Y-2.1421
X2.0811Y-2.8921
X2.5811Y-0.5421
X2.5811Y-1.2921
X2.5811Y-2.0421
X2.5811Y-2.7921
X2.8311Y-0.6421
X2.8311Y-1.3921
X2.8311Y-2.1421
X2.8311Y-2.8921
T15
X-0.4219Y-3.072
X0.0281Y-3.072
T16
X1.1811Y-0.7421
X1.1811Y-1.4921
X1.1811Y-2.2421
X1.1811Y-2.9921
X1.9311Y-0.7421
X1.9311Y-1.4921
X1.9311Y-2.2421
X1.9311Y-2.9921
X2.6811Y-0.7421
X2.6811Y-1.4921
X2.6811Y-2.2421
X2.6811Y-2.9921
T7
G00X1.1811Y-0.1821
M15
G01X1.1811Y-0.1565
M16
G05
T8
G00X-3.372Y-2.4409
M15
G01X-3.3602Y-2.4409
M16
G05
G00X-1.3248Y-2.4409
M15
G01X-1.313Y-2.4409
M16
G05
M30
