G04 #@! TF.GenerationSoftware,KiCad,Pcbnew,8.0.5*
G04 #@! TF.CreationDate,2026-06-23T02:00:20-07:00*
G04 #@! TF.ProjectId,IotThermalCamera,496f7454-6865-4726-9d61-6c43616d6572,rev?*
G04 #@! TF.SameCoordinates,PX5f5e100PY5f5e100*
G04 #@! TF.FileFunction,Soldermask,Top*
G04 #@! TF.FilePolarity,Negative*
%FSLAX46Y46*%
G04 Gerber Fmt 4.6, Leading zero omitted, Abs format (unit mm)*
G04 Created by KiCad (PCBNEW 8.0.5) date 2026-06-23 02:00:20*
%MOMM*%
%LPD*%
G01*
G04 APERTURE LIST*
G04 Aperture macros list*
%AMRoundRect*
0 Rectangle with rounded corners*
0 $1 Rounding radius*
0 $2 $3 $4 $5 $6 $7 $8 $9 X,Y pos of 4 corners*
0 Add a 4 corners polygon primitive as box body*
4,1,4,$2,$3,$4,$5,$6,$7,$8,$9,$2,$3,0*
0 Add four circle primitives for the rounded corners*
1,1,$1+$1,$2,$3*
1,1,$1+$1,$4,$5*
1,1,$1+$1,$6,$7*
1,1,$1+$1,$8,$9*
0 Add four rect primitives between the rounded corners*
20,1,$1+$1,$2,$3,$4,$5,0*
20,1,$1+$1,$4,$5,$6,$7,0*
20,1,$1+$1,$6,$7,$8,$9,0*
20,1,$1+$1,$8,$9,$2,$3,0*%
%AMRotRect*
0 Rectangle, with rotation*
0 The origin of the aperture is its center*
0 $1 length*
0 $2 width*
0 $3 Rotation angle, in degrees counterclockwise*
0 Add horizontal line*
21,1,$1,$2,0,0,$3*%
%AMFreePoly0*
4,1,9,2.100000,-2.000000,2.350000,-2.000000,2.350000,-3.500000,-2.350000,-3.500000,-2.350000,-2.000000,-2.100000,-2.000000,-2.100000,1.100000,2.100000,1.100000,2.100000,-2.000000,2.100000,-2.000000,$1*%
G04 Aperture macros list end*
%ADD10C,0.650000*%
%ADD11C,0.380000*%
%ADD12RoundRect,0.200000X-0.200000X-0.275000X0.200000X-0.275000X0.200000X0.275000X-0.200000X0.275000X0*%
%ADD13RoundRect,0.175000X-0.400000X0.175000X-0.400000X-0.175000X0.400000X-0.175000X0.400000X0.175000X0*%
%ADD14FreePoly0,270.000000*%
%ADD15RoundRect,0.150000X0.587500X0.150000X-0.587500X0.150000X-0.587500X-0.150000X0.587500X-0.150000X0*%
%ADD16RoundRect,0.125000X-0.537500X-0.125000X0.537500X-0.125000X0.537500X0.125000X-0.537500X0.125000X0*%
%ADD17RoundRect,0.225000X-0.225000X-0.250000X0.225000X-0.250000X0.225000X0.250000X-0.225000X0.250000X0*%
%ADD18RoundRect,0.150000X0.512500X0.150000X-0.512500X0.150000X-0.512500X-0.150000X0.512500X-0.150000X0*%
%ADD19RoundRect,0.150000X-0.587500X-0.150000X0.587500X-0.150000X0.587500X0.150000X-0.587500X0.150000X0*%
%ADD20RoundRect,0.200000X0.200000X0.275000X-0.200000X0.275000X-0.200000X-0.275000X0.200000X-0.275000X0*%
%ADD21RoundRect,0.225000X0.225000X0.250000X-0.225000X0.250000X-0.225000X-0.250000X0.225000X-0.250000X0*%
%ADD22RoundRect,0.218750X-0.218750X-0.381250X0.218750X-0.381250X0.218750X0.381250X-0.218750X0.381250X0*%
%ADD23RoundRect,0.250000X0.250000X0.475000X-0.250000X0.475000X-0.250000X-0.475000X0.250000X-0.475000X0*%
%ADD24RoundRect,0.150000X-0.512500X-0.150000X0.512500X-0.150000X0.512500X0.150000X-0.512500X0.150000X0*%
%ADD25RoundRect,0.250000X-0.250000X-0.475000X0.250000X-0.475000X0.250000X0.475000X-0.250000X0.475000X0*%
%ADD26RoundRect,0.062500X-0.062500X0.275000X-0.062500X-0.275000X0.062500X-0.275000X0.062500X0.275000X0*%
%ADD27RoundRect,0.062500X-0.275000X0.062500X-0.275000X-0.062500X0.275000X-0.062500X0.275000X0.062500X0*%
%ADD28R,1.450000X1.450000*%
%ADD29C,0.650000*%
%ADD30R,0.300000X1.150000*%
%ADD31O,1.000000X2.100000*%
%ADD32O,1.000000X1.600000*%
%ADD33RoundRect,0.100000X-0.625000X-0.100000X0.625000X-0.100000X0.625000X0.100000X-0.625000X0.100000X0*%
%ADD34R,1.680000X1.880000*%
%ADD35R,1.350000X1.350000*%
%ADD36O,1.350000X1.350000*%
%ADD37C,2.000000*%
%ADD38R,3.300000X4.400000*%
%ADD39R,3.900000X6.200000*%
%ADD40C,1.152000*%
%ADD41C,1.600000*%
%ADD42C,2.100000*%
%ADD43R,2.400000X1.300000*%
%ADD44R,3.200000X2.500000*%
%ADD45R,4.000000X3.750000*%
%ADD46C,2.700000*%
%ADD47RoundRect,0.250000X0.450000X-1.175000X0.450000X1.175000X-0.450000X1.175000X-0.450000X-1.175000X0*%
%ADD48RoundRect,0.225000X0.375000X-0.225000X0.375000X0.225000X-0.375000X0.225000X-0.375000X-0.225000X0*%
%ADD49RoundRect,0.250000X-0.450000X1.175000X-0.450000X-1.175000X0.450000X-1.175000X0.450000X1.175000X0*%
%ADD50RoundRect,0.250000X-1.175000X-0.450000X1.175000X-0.450000X1.175000X0.450000X-1.175000X0.450000X0*%
%ADD51C,1.100000*%
%ADD52R,1.730000X2.030000*%
%ADD53O,1.730000X2.030000*%
%ADD54R,4.000000X1.500000*%
%ADD55RoundRect,0.250000X-0.475000X0.250000X-0.475000X-0.250000X0.475000X-0.250000X0.475000X0.250000X0*%
%ADD56RoundRect,0.250000X0.325000X0.650000X-0.325000X0.650000X-0.325000X-0.650000X0.325000X-0.650000X0*%
%ADD57RoundRect,0.225000X-0.104006X0.319856X-0.329006X-0.069856X0.104006X-0.319856X0.329006X0.069856X0*%
%ADD58RotRect,0.700000X0.700000X60.000000*%
%ADD59R,0.700000X0.700000*%
%ADD60C,0.990600*%
%ADD61C,0.787400*%
%ADD62RoundRect,0.150000X-0.625000X0.150000X-0.625000X-0.150000X0.625000X-0.150000X0.625000X0.150000X0*%
%ADD63RoundRect,0.250000X-0.650000X0.350000X-0.650000X-0.350000X0.650000X-0.350000X0.650000X0.350000X0*%
%ADD64RoundRect,0.225000X-0.250000X0.225000X-0.250000X-0.225000X0.250000X-0.225000X0.250000X0.225000X0*%
%ADD65RoundRect,0.150000X0.625000X-0.150000X0.625000X0.150000X-0.625000X0.150000X-0.625000X-0.150000X0*%
%ADD66RoundRect,0.250000X0.650000X-0.350000X0.650000X0.350000X-0.650000X0.350000X-0.650000X-0.350000X0*%
%ADD67RoundRect,0.225000X-0.329006X0.069856X-0.104006X-0.319856X0.329006X-0.069856X0.104006X0.319856X0*%
%ADD68RotRect,0.700000X0.700000X120.000000*%
%ADD69RoundRect,0.218750X-0.218750X-0.256250X0.218750X-0.256250X0.218750X0.256250X-0.218750X0.256250X0*%
%ADD70RoundRect,0.062500X-0.212500X0.062500X-0.212500X-0.062500X0.212500X-0.062500X0.212500X0.062500X0*%
%ADD71R,1.600000X1.600000*%
%ADD72RoundRect,0.225000X0.250000X-0.225000X0.250000X0.225000X-0.250000X0.225000X-0.250000X-0.225000X0*%
%ADD73RotRect,0.700000X0.700000X300.000000*%
%ADD74RoundRect,0.225000X0.329006X-0.069856X0.104006X0.319856X-0.329006X0.069856X-0.104006X-0.319856X0*%
%ADD75RoundRect,0.250000X0.475000X-0.250000X0.475000X0.250000X-0.475000X0.250000X-0.475000X-0.250000X0*%
%ADD76R,1.500000X0.900000*%
%ADD77C,0.600000*%
%ADD78R,3.900000X3.900000*%
%ADD79RotRect,0.700000X0.700000X240.000000*%
%ADD80RoundRect,0.225000X0.104006X-0.319856X0.329006X0.069856X-0.104006X0.319856X-0.329006X-0.069856X0*%
%ADD81R,0.500000X0.500000*%
%ADD82RoundRect,0.200000X-0.275000X0.200000X-0.275000X-0.200000X0.275000X-0.200000X0.275000X0.200000X0*%
%ADD83RoundRect,0.200000X0.275000X-0.200000X0.275000X0.200000X-0.275000X0.200000X-0.275000X-0.200000X0*%
%ADD84RoundRect,0.150000X-0.150000X0.587500X-0.150000X-0.587500X0.150000X-0.587500X0.150000X0.587500X0*%
%ADD85RoundRect,0.250000X0.650000X-0.325000X0.650000X0.325000X-0.650000X0.325000X-0.650000X-0.325000X0*%
%ADD86RoundRect,0.100000X-0.637500X-0.100000X0.637500X-0.100000X0.637500X0.100000X-0.637500X0.100000X0*%
%ADD87R,1.200000X1.400000*%
%ADD88R,1.400000X4.200000*%
%ADD89RoundRect,0.218750X-0.256250X0.218750X-0.256250X-0.218750X0.256250X-0.218750X0.256250X0.218750X0*%
%ADD90RoundRect,0.150000X-0.650000X-0.150000X0.650000X-0.150000X0.650000X0.150000X-0.650000X0.150000X0*%
%ADD91R,2.410000X3.100000*%
%ADD92RoundRect,0.250000X1.000000X0.650000X-1.000000X0.650000X-1.000000X-0.650000X1.000000X-0.650000X0*%
%ADD93RoundRect,0.150000X0.650000X0.150000X-0.650000X0.150000X-0.650000X-0.150000X0.650000X-0.150000X0*%
%ADD94RoundRect,0.250000X1.175000X0.450000X-1.175000X0.450000X-1.175000X-0.450000X1.175000X-0.450000X0*%
%ADD95C,3.250000*%
%ADD96R,1.500000X1.500000*%
%ADD97C,1.500000*%
%ADD98C,2.200000*%
%ADD99RoundRect,0.062500X0.275000X0.062500X-0.275000X0.062500X-0.275000X-0.062500X0.275000X-0.062500X0*%
%ADD100RoundRect,0.062500X0.062500X0.275000X-0.062500X0.275000X-0.062500X-0.275000X0.062500X-0.275000X0*%
%ADD101R,0.300000X1.100000*%
%ADD102R,2.300000X3.100000*%
%ADD103RoundRect,0.250000X-0.325000X-0.650000X0.325000X-0.650000X0.325000X0.650000X-0.325000X0.650000X0*%
%ADD104RoundRect,0.075000X0.075000X-0.662500X0.075000X0.662500X-0.075000X0.662500X-0.075000X-0.662500X0*%
%ADD105RoundRect,0.075000X0.662500X-0.075000X0.662500X0.075000X-0.662500X0.075000X-0.662500X-0.075000X0*%
%ADD106R,0.200000X0.600000*%
%ADD107R,2.316000X1.200000*%
%ADD108R,3.700000X1.100000*%
%ADD109R,1.400000X1.200000*%
%ADD110R,0.840000X0.500000*%
%ADD111R,0.500000X0.840000*%
%ADD112R,0.650000X1.100000*%
%ADD113R,0.650000X0.650000*%
%ADD114R,1.100000X0.650000*%
%ADD115RoundRect,0.218750X0.256250X-0.218750X0.256250X0.218750X-0.256250X0.218750X-0.256250X-0.218750X0*%
%ADD116RoundRect,0.205000X0.545000X0.205000X-0.545000X0.205000X-0.545000X-0.205000X0.545000X-0.205000X0*%
%ADD117RoundRect,0.205000X-0.545000X-0.205000X0.545000X-0.205000X0.545000X0.205000X-0.545000X0.205000X0*%
%ADD118C,1.750000*%
%ADD119C,3.050000*%
%ADD120C,4.000000*%
%ADD121RoundRect,0.250000X1.025000X1.000000X-1.025000X1.000000X-1.025000X-1.000000X1.025000X-1.000000X0*%
%ADD122C,1.550000*%
%ADD123C,2.050000*%
%ADD124R,1.700000X1.700000*%
%ADD125O,1.700000X1.700000*%
%ADD126RoundRect,0.112500X0.112500X-0.187500X0.112500X0.187500X-0.112500X0.187500X-0.112500X-0.187500X0*%
%ADD127RoundRect,0.218750X0.218750X0.256250X-0.218750X0.256250X-0.218750X-0.256250X0.218750X-0.256250X0*%
%ADD128RoundRect,0.150000X-0.150000X0.512500X-0.150000X-0.512500X0.150000X-0.512500X0.150000X0.512500X0*%
%ADD129RoundRect,0.125000X-0.625000X-0.125000X0.625000X-0.125000X0.625000X0.125000X-0.625000X0.125000X0*%
%ADD130RoundRect,0.125000X-0.125000X-0.625000X0.125000X-0.625000X0.125000X0.625000X-0.125000X0.625000X0*%
%ADD131RoundRect,0.250000X-0.650000X0.325000X-0.650000X-0.325000X0.650000X-0.325000X0.650000X0.325000X0*%
%ADD132RoundRect,0.375000X0.375000X-0.625000X0.375000X0.625000X-0.375000X0.625000X-0.375000X-0.625000X0*%
%ADD133RoundRect,0.500000X1.400000X-0.500000X1.400000X0.500000X-1.400000X0.500000X-1.400000X-0.500000X0*%
%ADD134RoundRect,0.225000X0.317074X-0.112202X0.144866X0.303544X-0.317074X0.112202X-0.144866X-0.303544X0*%
%ADD135RoundRect,0.250000X1.018494X0.738779X-1.251431X0.130554X-1.018494X-0.738779X1.251431X-0.130554X0*%
%ADD136RoundRect,0.225000X-0.112202X-0.317074X0.303544X-0.144866X0.112202X0.317074X-0.303544X0.144866X0*%
%ADD137RoundRect,0.200000X-0.424264X0.707107X-0.707107X0.424264X0.424264X-0.707107X0.707107X-0.424264X0*%
%ADD138RoundRect,0.200000X-0.800000X0.200000X-0.800000X-0.200000X0.800000X-0.200000X0.800000X0.200000X0*%
%ADD139RoundRect,0.225000X0.303544X0.144866X-0.112202X0.317074X-0.303544X-0.144866X0.112202X-0.317074X0*%
%ADD140RoundRect,0.200000X0.800000X-0.200000X0.800000X0.200000X-0.800000X0.200000X-0.800000X-0.200000X0*%
%ADD141RoundRect,0.225000X0.282038X0.183247X-0.152629X0.299716X-0.282038X-0.183247X0.152629X-0.299716X0*%
%ADD142RotRect,0.700000X0.700000X45.000000*%
%ADD143RotRect,0.700000X0.700000X315.000000*%
%ADD144RoundRect,0.200000X-0.200000X-0.800000X0.200000X-0.800000X0.200000X0.800000X-0.200000X0.800000X0*%
%ADD145RoundRect,0.225000X-0.303544X-0.144866X0.112202X-0.317074X0.303544X0.144866X-0.112202X0.317074X0*%
%ADD146RoundRect,0.225000X-0.144866X0.303544X-0.317074X-0.112202X0.144866X-0.303544X0.317074X0.112202X0*%
%ADD147RoundRect,0.200000X-0.707107X-0.424264X-0.424264X-0.707107X0.707107X0.424264X0.424264X0.707107X0*%
%ADD148RoundRect,0.225000X0.144866X-0.303544X0.317074X0.112202X-0.144866X0.303544X-0.317074X-0.112202X0*%
%ADD149RotRect,0.700000X0.700000X135.000000*%
%ADD150RoundRect,0.200000X0.424264X-0.707107X0.707107X-0.424264X-0.424264X0.707107X-0.707107X0.424264X0*%
%ADD151RoundRect,0.225000X0.319856X0.104006X-0.069856X0.329006X-0.319856X-0.104006X0.069856X-0.329006X0*%
%ADD152RoundRect,0.200000X0.707107X0.424264X0.424264X0.707107X-0.707107X-0.424264X-0.424264X-0.707107X0*%
%ADD153RotRect,0.700000X0.700000X225.000000*%
%ADD154RoundRect,0.200000X0.200000X0.800000X-0.200000X0.800000X-0.200000X-0.800000X0.200000X-0.800000X0*%
%ADD155RoundRect,0.225000X0.069856X0.329006X-0.319856X0.104006X-0.069856X-0.329006X0.319856X-0.104006X0*%
%ADD156RoundRect,0.225000X-0.317074X0.112202X-0.144866X-0.303544X0.317074X-0.112202X0.144866X0.303544X0*%
%ADD157RoundRect,0.225000X0.112202X0.317074X-0.303544X0.144866X-0.112202X-0.317074X0.303544X-0.144866X0*%
%ADD158RoundRect,0.225000X-0.375000X0.225000X-0.375000X-0.225000X0.375000X-0.225000X0.375000X0.225000X0*%
%ADD159RoundRect,0.150000X0.150000X-0.587500X0.150000X0.587500X-0.150000X0.587500X-0.150000X-0.587500X0*%
%ADD160RoundRect,0.200000X-0.249807X-0.230698X0.142507X-0.308734X0.249807X0.230698X-0.142507X0.308734X0*%
%ADD161R,0.450000X0.300000*%
%ADD162R,0.300000X0.450000*%
%ADD163C,0.700000*%
%ADD164RoundRect,0.250000X0.450000X0.275000X-0.450000X0.275000X-0.450000X-0.275000X0.450000X-0.275000X0*%
%ADD165R,0.675000X0.250000*%
%ADD166R,0.250000X0.675000*%
%ADD167RoundRect,0.250000X0.312500X0.625000X-0.312500X0.625000X-0.312500X-0.625000X0.312500X-0.625000X0*%
%ADD168R,0.300000X1.300000*%
%ADD169R,1.800000X2.200000*%
%ADD170RoundRect,0.112500X-0.112500X0.187500X-0.112500X-0.187500X0.112500X-0.187500X0.112500X0.187500X0*%
G04 APERTURE END LIST*
D10*
X-86675000Y-21000000D02*
G75*
G02*
X-87325000Y-21000000I-325000J0D01*
G01*
X-87325000Y-21000000D02*
G75*
G02*
X-86675000Y-21000000I325000J0D01*
G01*
X-74675000Y-89000000D02*
G75*
G02*
X-75325000Y-89000000I-325000J0D01*
G01*
X-75325000Y-89000000D02*
G75*
G02*
X-74675000Y-89000000I325000J0D01*
G01*
X-86675000Y-89000000D02*
G75*
G02*
X-87325000Y-89000000I-325000J0D01*
G01*
X-87325000Y-89000000D02*
G75*
G02*
X-86675000Y-89000000I325000J0D01*
G01*
X13325000Y5000000D02*
G75*
G02*
X12675000Y5000000I-325000J0D01*
G01*
X12675000Y5000000D02*
G75*
G02*
X13325000Y5000000I325000J0D01*
G01*
X-12675000Y5000000D02*
G75*
G02*
X-13325000Y5000000I-325000J0D01*
G01*
X-13325000Y5000000D02*
G75*
G02*
X-12675000Y5000000I325000J0D01*
G01*
X-12675000Y-86000000D02*
G75*
G02*
X-13325000Y-86000000I-325000J0D01*
G01*
X-13325000Y-86000000D02*
G75*
G02*
X-12675000Y-86000000I325000J0D01*
G01*
X-34675000Y-89000000D02*
G75*
G02*
X-35325000Y-89000000I-325000J0D01*
G01*
X-35325000Y-89000000D02*
G75*
G02*
X-34675000Y-89000000I325000J0D01*
G01*
X-22675000Y-89000000D02*
G75*
G02*
X-23325000Y-89000000I-325000J0D01*
G01*
X-23325000Y-89000000D02*
G75*
G02*
X-22675000Y-89000000I325000J0D01*
G01*
X-34675000Y-21000000D02*
G75*
G02*
X-35325000Y-21000000I-325000J0D01*
G01*
X-35325000Y-21000000D02*
G75*
G02*
X-34675000Y-21000000I325000J0D01*
G01*
X86425000Y-38000000D02*
G75*
G02*
X85775000Y-38000000I-325000J0D01*
G01*
X85775000Y-38000000D02*
G75*
G02*
X86425000Y-38000000I325000J0D01*
G01*
X106425000Y-38000000D02*
G75*
G02*
X105775000Y-38000000I-325000J0D01*
G01*
X105775000Y-38000000D02*
G75*
G02*
X106425000Y-38000000I325000J0D01*
G01*
X85425000Y-86000000D02*
G75*
G02*
X84775000Y-86000000I-325000J0D01*
G01*
X84775000Y-86000000D02*
G75*
G02*
X85425000Y-86000000I325000J0D01*
G01*
D11*
X-95190000Y-30175000D03*
X-92810000Y-30175000D03*
X-95190000Y-29540000D03*
X-92810000Y-29540000D03*
X-95190000Y-28905000D03*
X-92810000Y-28905000D03*
X-95190000Y-28270000D03*
X-92810000Y-28270000D03*
X-95190000Y-27635000D03*
X-92810000Y-27635000D03*
X-95190000Y-27000000D03*
X-92810000Y-27000000D03*
X-95190000Y-26365000D03*
X-92810000Y-26365000D03*
X-95190000Y-25730000D03*
X-92810000Y-25730000D03*
X-95190000Y-25095000D03*
X-92810000Y-25095000D03*
X-95190000Y-24460000D03*
X-92810000Y-24460000D03*
X-95190000Y-23825000D03*
X-92810000Y-23825000D03*
X-95190000Y-86175000D03*
X-92810000Y-86175000D03*
X-95190000Y-85540000D03*
X-92810000Y-85540000D03*
X-95190000Y-84905000D03*
X-92810000Y-84905000D03*
X-95190000Y-84270000D03*
X-92810000Y-84270000D03*
X-95190000Y-83635000D03*
X-92810000Y-83635000D03*
X-95190000Y-83000000D03*
X-92810000Y-83000000D03*
X-95190000Y-82365000D03*
X-92810000Y-82365000D03*
X-95190000Y-81730000D03*
X-92810000Y-81730000D03*
X-95190000Y-81095000D03*
X-92810000Y-81095000D03*
X-95190000Y-80460000D03*
X-92810000Y-80460000D03*
X-95190000Y-79825000D03*
X-92810000Y-79825000D03*
X-69190000Y-86175000D03*
X-66810000Y-86175000D03*
X-69190000Y-85540000D03*
X-66810000Y-85540000D03*
X-69190000Y-84905000D03*
X-66810000Y-84905000D03*
X-69190000Y-84270000D03*
X-66810000Y-84270000D03*
X-69190000Y-83635000D03*
X-66810000Y-83635000D03*
X-69190000Y-83000000D03*
X-66810000Y-83000000D03*
X-69190000Y-82365000D03*
X-66810000Y-82365000D03*
X-69190000Y-81730000D03*
X-66810000Y-81730000D03*
X-69190000Y-81095000D03*
X-66810000Y-81095000D03*
X-69190000Y-80460000D03*
X-66810000Y-80460000D03*
X-69190000Y-79825000D03*
X-66810000Y-79825000D03*
X-66810000Y-52825000D03*
X-69190000Y-52825000D03*
X-66810000Y-53460000D03*
X-69190000Y-53460000D03*
X-66810000Y-54095000D03*
X-69190000Y-54095000D03*
X-66810000Y-54730000D03*
X-69190000Y-54730000D03*
X-66810000Y-55365000D03*
X-69190000Y-55365000D03*
X-66810000Y-56000000D03*
X-69190000Y-56000000D03*
X-66810000Y-56635000D03*
X-69190000Y-56635000D03*
X-66810000Y-57270000D03*
X-69190000Y-57270000D03*
X-66810000Y-57905000D03*
X-69190000Y-57905000D03*
X-66810000Y-58540000D03*
X-69190000Y-58540000D03*
X-66810000Y-59175000D03*
X-69190000Y-59175000D03*
D12*
X-73825000Y-31000000D03*
X-72175000Y-31000000D03*
D13*
X-76275000Y-30905000D03*
X-76275000Y-29635000D03*
X-76275000Y-28365000D03*
X-76275000Y-27095000D03*
D14*
X-79000000Y-29000000D03*
D15*
X-72062500Y-28950000D03*
X-72062500Y-27050000D03*
X-73937500Y-28000000D03*
D16*
X-75137500Y-75525000D03*
X-75137500Y-76175000D03*
X-75137500Y-76825000D03*
X-75137500Y-77475000D03*
X-72862500Y-77475000D03*
X-72862500Y-76825000D03*
X-72862500Y-76175000D03*
X-72862500Y-75525000D03*
D17*
X-74775000Y-79000000D03*
X-73225000Y-79000000D03*
D12*
X-74825000Y-74000000D03*
X-73175000Y-74000000D03*
D18*
X-87862500Y-28950000D03*
X-87862500Y-28000000D03*
X-87862500Y-27050000D03*
X-90137500Y-27050000D03*
X-90137500Y-28950000D03*
D19*
X-85937500Y-29050000D03*
X-85937500Y-30950000D03*
X-84062500Y-30000000D03*
D17*
X-89775000Y-31000000D03*
X-88225000Y-31000000D03*
D12*
X-85825000Y-27000000D03*
X-84175000Y-27000000D03*
X-83825000Y-50000000D03*
X-82175000Y-50000000D03*
D20*
X-82175000Y-48000000D03*
X-83825000Y-48000000D03*
D21*
X-86225000Y-50000000D03*
X-87775000Y-50000000D03*
D22*
X-88062500Y-44000000D03*
X-85937500Y-44000000D03*
D23*
X-86050000Y-52000000D03*
X-87950000Y-52000000D03*
D24*
X-88137500Y-46050000D03*
X-88137500Y-47000000D03*
X-88137500Y-47950000D03*
X-85862500Y-47950000D03*
X-85862500Y-47000000D03*
X-85862500Y-46050000D03*
D17*
X-83775000Y-46000000D03*
X-82225000Y-46000000D03*
D12*
X-83825000Y-52000000D03*
X-82175000Y-52000000D03*
D25*
X-83950000Y-44000000D03*
X-82050000Y-44000000D03*
D26*
X-87500000Y-71737500D03*
X-88000000Y-71737500D03*
X-88500000Y-71737500D03*
D27*
X-89262500Y-72250000D03*
X-89262500Y-72750000D03*
X-89262500Y-73250000D03*
X-89262500Y-73750000D03*
D26*
X-88500000Y-74262500D03*
X-88000000Y-74262500D03*
X-87500000Y-74262500D03*
D27*
X-86737500Y-73750000D03*
X-86737500Y-73250000D03*
X-86737500Y-72750000D03*
X-86737500Y-72250000D03*
D28*
X-88000000Y-73000000D03*
D17*
X-88775000Y-78000000D03*
X-87225000Y-78000000D03*
X-88775000Y-76000000D03*
X-87225000Y-76000000D03*
D29*
X-83890000Y-83720000D03*
X-78110000Y-83720000D03*
D30*
X-84350000Y-82655000D03*
X-83550000Y-82655000D03*
X-82250000Y-82655000D03*
X-81250000Y-82655000D03*
X-80750000Y-82655000D03*
X-79750000Y-82655000D03*
X-78450000Y-82655000D03*
X-77650000Y-82655000D03*
X-77950000Y-82655000D03*
X-78750000Y-82655000D03*
X-79250000Y-82655000D03*
X-80250000Y-82655000D03*
X-81750000Y-82655000D03*
X-82750000Y-82655000D03*
X-83250000Y-82655000D03*
X-84050000Y-82655000D03*
D31*
X-85320000Y-83220000D03*
D32*
X-85320000Y-87400000D03*
D31*
X-76680000Y-83220000D03*
D32*
X-76680000Y-87400000D03*
D12*
X-85825000Y-33000000D03*
X-84175000Y-33000000D03*
D21*
X-87225000Y-33000000D03*
X-88775000Y-33000000D03*
D17*
X-85775000Y-37000000D03*
X-84225000Y-37000000D03*
D12*
X-85825000Y-35000000D03*
X-84175000Y-35000000D03*
D25*
X-82450000Y-37000000D03*
X-80550000Y-37000000D03*
D21*
X-87225000Y-35000000D03*
X-88775000Y-35000000D03*
X-77225000Y-37000000D03*
X-78775000Y-37000000D03*
D12*
X-88825000Y-37000000D03*
X-87175000Y-37000000D03*
D33*
X-82150000Y-33025000D03*
X-82150000Y-33675000D03*
X-82150000Y-34325000D03*
X-82150000Y-34975000D03*
X-77850000Y-34975000D03*
X-77850000Y-34325000D03*
X-77850000Y-33675000D03*
X-77850000Y-33025000D03*
D34*
X-80000000Y-34000000D03*
D35*
X-70000000Y-38000000D03*
D36*
X-70000000Y-40000000D03*
X-70000000Y-42000000D03*
X-70000000Y-44000000D03*
X-70000000Y-46000000D03*
X-70000000Y-48000000D03*
X-70000000Y-50000000D03*
X-70000000Y-52000000D03*
D37*
X-81000000Y-87000000D03*
D38*
X-80300000Y-74200000D03*
D39*
X-87450000Y-83200000D03*
X-74550000Y-83200000D03*
D40*
X-87000000Y-21000000D03*
D41*
X-85500000Y-62000000D03*
D42*
X-81000000Y-62000000D03*
D43*
X-88300000Y-59500000D03*
X-88300000Y-64500000D03*
X-88300000Y-62000000D03*
D44*
X-88900000Y-57000000D03*
X-88900000Y-67000000D03*
D45*
X-81000000Y-55625000D03*
X-81000000Y-68375000D03*
D44*
X-73100000Y-57000000D03*
X-73100000Y-67000000D03*
D43*
X-74000000Y-64500000D03*
X-74000000Y-59500000D03*
D46*
X-90000000Y-87000000D03*
X-90000000Y-23000000D03*
D35*
X-75000000Y-34000000D03*
D36*
X-75000000Y-36000000D03*
D47*
X-91000000Y-77000000D03*
D40*
X-75000000Y-89000000D03*
D48*
X-92000000Y-35650000D03*
X-92000000Y-32350000D03*
D46*
X-72000000Y-87000000D03*
D35*
X-92000000Y-38000000D03*
D36*
X-92000000Y-40000000D03*
X-92000000Y-42000000D03*
X-92000000Y-44000000D03*
X-92000000Y-46000000D03*
X-92000000Y-48000000D03*
X-92000000Y-50000000D03*
X-92000000Y-52000000D03*
D47*
X-70000000Y-56000000D03*
D48*
X-70000000Y-35650000D03*
X-70000000Y-32350000D03*
D49*
X-70000000Y-29000000D03*
D50*
X-74000000Y-72000000D03*
D51*
X-82280000Y-24460000D03*
D52*
X-77200000Y-22300000D03*
D53*
X-79740000Y-22300000D03*
X-82280000Y-22300000D03*
X-84820000Y-22300000D03*
D12*
X-74825000Y-50000000D03*
X-73175000Y-50000000D03*
D17*
X-74775000Y-46000000D03*
X-73225000Y-46000000D03*
D12*
X-74825000Y-52000000D03*
X-73175000Y-52000000D03*
D24*
X-79137500Y-46050000D03*
X-79137500Y-47000000D03*
X-79137500Y-47950000D03*
X-76862500Y-47950000D03*
X-76862500Y-47000000D03*
X-76862500Y-46050000D03*
D23*
X-77050000Y-52000000D03*
X-78950000Y-52000000D03*
D20*
X-73175000Y-48000000D03*
X-74825000Y-48000000D03*
D21*
X-77225000Y-50000000D03*
X-78775000Y-50000000D03*
D54*
X-75000000Y-43800000D03*
X-75000000Y-40200000D03*
D55*
X-79000000Y-41050000D03*
X-79000000Y-42950000D03*
D40*
X-87000000Y-89000000D03*
D46*
X-72000000Y-23000000D03*
D56*
X-114525000Y-54000000D03*
X-117475000Y-54000000D03*
D57*
X-101416348Y-64328830D03*
X-102191348Y-65671170D03*
D58*
X-101005611Y-66517413D03*
X-100052983Y-67067413D03*
X-99137983Y-65482587D03*
X-100090611Y-64932587D03*
D46*
X-116000000Y-87000000D03*
D21*
X-106225000Y-68000000D03*
X-107775000Y-68000000D03*
D59*
X-107915000Y-69450000D03*
X-107915000Y-70550000D03*
X-106085000Y-70550000D03*
X-106085000Y-69450000D03*
D60*
X-97000000Y-59540000D03*
X-98016000Y-54460000D03*
X-95984000Y-54460000D03*
D61*
X-96365000Y-58270000D03*
X-97635000Y-58270000D03*
X-96365000Y-57000000D03*
X-97635000Y-57000000D03*
X-96365000Y-55730000D03*
X-97635000Y-55730000D03*
D62*
X-114000000Y-70500000D03*
X-114000000Y-71500000D03*
X-114000000Y-72500000D03*
X-114000000Y-73500000D03*
D63*
X-117875000Y-69200000D03*
X-117875000Y-74800000D03*
D46*
X-116000000Y-23000000D03*
D64*
X-96000000Y-81225000D03*
X-96000000Y-82775000D03*
D20*
X-109175000Y-72000000D03*
X-110825000Y-72000000D03*
D59*
X-106085000Y-54550000D03*
X-106085000Y-53450000D03*
X-107915000Y-53450000D03*
X-107915000Y-54550000D03*
D17*
X-107775000Y-56000000D03*
X-106225000Y-56000000D03*
D18*
X-95862500Y-62950000D03*
X-95862500Y-62000000D03*
X-95862500Y-61050000D03*
X-98137500Y-61050000D03*
X-98137500Y-62950000D03*
D65*
X-100000000Y-73500000D03*
X-100000000Y-72500000D03*
X-100000000Y-71500000D03*
X-100000000Y-70500000D03*
D66*
X-96125000Y-74800000D03*
X-96125000Y-69200000D03*
D20*
X-110175000Y-54000000D03*
X-111825000Y-54000000D03*
D67*
X-102191348Y-58328830D03*
X-101416348Y-59671170D03*
D68*
X-100090611Y-59067413D03*
X-99137983Y-58517413D03*
X-100052983Y-56932587D03*
X-101005611Y-57482587D03*
D21*
X-114225000Y-78000000D03*
X-115775000Y-78000000D03*
D12*
X-97825000Y-79000000D03*
X-96175000Y-79000000D03*
D69*
X-103787500Y-54000000D03*
X-102212500Y-54000000D03*
D17*
X-97775000Y-67000000D03*
X-96225000Y-67000000D03*
D46*
X-98000000Y-87000000D03*
D70*
X-100380000Y-81500000D03*
X-100380000Y-82000000D03*
X-100380000Y-82500000D03*
X-97620000Y-82500000D03*
X-97620000Y-82000000D03*
X-97620000Y-81500000D03*
D71*
X-99000000Y-82000000D03*
D35*
X-118000000Y-38000000D03*
D36*
X-118000000Y-40000000D03*
X-118000000Y-42000000D03*
X-118000000Y-44000000D03*
X-118000000Y-46000000D03*
X-118000000Y-48000000D03*
X-118000000Y-50000000D03*
X-118000000Y-52000000D03*
D46*
X-98000000Y-23000000D03*
D47*
X-96000000Y-34000000D03*
D20*
X-109175000Y-74000000D03*
X-110825000Y-74000000D03*
D35*
X-96000000Y-38000000D03*
D36*
X-96000000Y-40000000D03*
X-96000000Y-42000000D03*
X-96000000Y-44000000D03*
X-96000000Y-46000000D03*
X-96000000Y-48000000D03*
X-96000000Y-50000000D03*
X-96000000Y-52000000D03*
D72*
X-118000000Y-34775000D03*
X-118000000Y-33225000D03*
D73*
X-113909389Y-64932587D03*
X-114862017Y-65482587D03*
X-113947017Y-67067413D03*
X-112994389Y-66517413D03*
D74*
X-111808652Y-65671170D03*
X-112583652Y-64328830D03*
D12*
X-103825000Y-56000000D03*
X-102175000Y-56000000D03*
D75*
X-117500000Y-78950000D03*
X-117500000Y-77050000D03*
D21*
X-99225000Y-79000000D03*
X-100775000Y-79000000D03*
D76*
X-115750000Y-33740000D03*
X-115750000Y-35010000D03*
X-115750000Y-36280000D03*
X-115750000Y-37550000D03*
X-115750000Y-38820000D03*
X-115750000Y-40090000D03*
X-115750000Y-41360000D03*
X-115750000Y-42630000D03*
X-115750000Y-43900000D03*
X-115750000Y-45170000D03*
X-115750000Y-46440000D03*
X-115750000Y-47710000D03*
X-115750000Y-48980000D03*
X-115750000Y-50250000D03*
X-98250000Y-50250000D03*
X-98250000Y-48980000D03*
X-98250000Y-47710000D03*
X-98250000Y-46440000D03*
X-98250000Y-45170000D03*
X-98250000Y-43900000D03*
X-98250000Y-42630000D03*
X-98250000Y-41360000D03*
X-98250000Y-40090000D03*
X-98250000Y-38820000D03*
X-98250000Y-37550000D03*
X-98250000Y-36280000D03*
X-98250000Y-35010000D03*
X-98250000Y-33740000D03*
D77*
X-109900000Y-40760000D03*
X-109900000Y-42160000D03*
X-109200000Y-40060000D03*
X-109200000Y-41460000D03*
X-109200000Y-42860000D03*
X-108500000Y-40760000D03*
D78*
X-108500000Y-41460000D03*
D77*
X-108500000Y-42160000D03*
X-107800000Y-40060000D03*
X-107800000Y-41460000D03*
X-107800000Y-42860000D03*
X-107100000Y-40760000D03*
X-107100000Y-42160000D03*
D79*
X-112994389Y-57482587D03*
X-113947017Y-56932587D03*
X-114862017Y-58517413D03*
X-113909389Y-59067413D03*
D80*
X-112583652Y-59671170D03*
X-111808652Y-58328830D03*
D81*
X-114200000Y-80400000D03*
X-114210000Y-81200000D03*
X-114200000Y-82000000D03*
X-114200000Y-82800000D03*
X-114200000Y-83600000D03*
X-115000000Y-83600000D03*
X-115800000Y-83600000D03*
X-115800000Y-82800000D03*
X-115800000Y-82000000D03*
X-115800000Y-81200000D03*
X-115800000Y-80400000D03*
X-115000000Y-80400000D03*
D12*
X-104825000Y-74000000D03*
X-103175000Y-74000000D03*
X-104825000Y-72000000D03*
X-103175000Y-72000000D03*
D17*
X-111775000Y-56000000D03*
X-110225000Y-56000000D03*
D11*
X80910000Y-71175000D03*
X83290000Y-71175000D03*
X80910000Y-70540000D03*
X83290000Y-70540000D03*
X80910000Y-69905000D03*
X83290000Y-69905000D03*
X80910000Y-69270000D03*
X83290000Y-69270000D03*
X80910000Y-68635000D03*
X83290000Y-68635000D03*
X80910000Y-68000000D03*
X83290000Y-68000000D03*
X80910000Y-67365000D03*
X83290000Y-67365000D03*
X80910000Y-66730000D03*
X83290000Y-66730000D03*
X80910000Y-66095000D03*
X83290000Y-66095000D03*
X80910000Y-65460000D03*
X83290000Y-65460000D03*
X80910000Y-64825000D03*
X83290000Y-64825000D03*
X80910000Y-43175000D03*
X83290000Y-43175000D03*
X80910000Y-42540000D03*
X83290000Y-42540000D03*
X80910000Y-41905000D03*
X83290000Y-41905000D03*
X80910000Y-41270000D03*
X83290000Y-41270000D03*
X80910000Y-40635000D03*
X83290000Y-40635000D03*
X80910000Y-40000000D03*
X83290000Y-40000000D03*
X80910000Y-39365000D03*
X83290000Y-39365000D03*
X80910000Y-38730000D03*
X83290000Y-38730000D03*
X80910000Y-38095000D03*
X83290000Y-38095000D03*
X80910000Y-37460000D03*
X83290000Y-37460000D03*
X80910000Y-36825000D03*
X83290000Y-36825000D03*
X80910000Y-175000D03*
X83290000Y-175000D03*
X80910000Y460000D03*
X83290000Y460000D03*
X80910000Y1095000D03*
X83290000Y1095000D03*
X80910000Y1730000D03*
X83290000Y1730000D03*
X80910000Y2365000D03*
X83290000Y2365000D03*
X80910000Y3000000D03*
X83290000Y3000000D03*
X80910000Y3635000D03*
X83290000Y3635000D03*
X80910000Y4270000D03*
X83290000Y4270000D03*
X80910000Y4905000D03*
X83290000Y4905000D03*
X80910000Y5540000D03*
X83290000Y5540000D03*
X80910000Y6175000D03*
X83290000Y6175000D03*
X80910000Y-8175000D03*
X83290000Y-8175000D03*
X80910000Y-7540000D03*
X83290000Y-7540000D03*
X80910000Y-6905000D03*
X83290000Y-6905000D03*
X80910000Y-6270000D03*
X83290000Y-6270000D03*
X80910000Y-5635000D03*
X83290000Y-5635000D03*
X80910000Y-5000000D03*
X83290000Y-5000000D03*
X80910000Y-4365000D03*
X83290000Y-4365000D03*
X80910000Y-3730000D03*
X83290000Y-3730000D03*
X80910000Y-3095000D03*
X83290000Y-3095000D03*
X80910000Y-2460000D03*
X83290000Y-2460000D03*
X80910000Y-1825000D03*
X83290000Y-1825000D03*
X14810000Y-1175000D03*
X17190000Y-1175000D03*
X14810000Y-540000D03*
X17190000Y-540000D03*
X14810000Y95000D03*
X17190000Y95000D03*
X14810000Y730000D03*
X17190000Y730000D03*
X14810000Y1365000D03*
X17190000Y1365000D03*
X14810000Y2000000D03*
X17190000Y2000000D03*
X14810000Y2635000D03*
X17190000Y2635000D03*
X14810000Y3270000D03*
X17190000Y3270000D03*
X14810000Y3905000D03*
X17190000Y3905000D03*
X14810000Y4540000D03*
X17190000Y4540000D03*
X14810000Y5175000D03*
X17190000Y5175000D03*
X14810000Y-40175000D03*
X17190000Y-40175000D03*
X14810000Y-39540000D03*
X17190000Y-39540000D03*
X14810000Y-38905000D03*
X17190000Y-38905000D03*
X14810000Y-38270000D03*
X17190000Y-38270000D03*
X14810000Y-37635000D03*
X17190000Y-37635000D03*
X14810000Y-37000000D03*
X17190000Y-37000000D03*
X14810000Y-36365000D03*
X17190000Y-36365000D03*
X14810000Y-35730000D03*
X17190000Y-35730000D03*
X14810000Y-35095000D03*
X17190000Y-35095000D03*
X14810000Y-34460000D03*
X17190000Y-34460000D03*
X14810000Y-33825000D03*
X17190000Y-33825000D03*
X14810000Y-59175000D03*
X17190000Y-59175000D03*
X14810000Y-58540000D03*
X17190000Y-58540000D03*
X14810000Y-57905000D03*
X17190000Y-57905000D03*
X14810000Y-57270000D03*
X17190000Y-57270000D03*
X14810000Y-56635000D03*
X17190000Y-56635000D03*
X14810000Y-56000000D03*
X17190000Y-56000000D03*
X14810000Y-55365000D03*
X17190000Y-55365000D03*
X14810000Y-54730000D03*
X17190000Y-54730000D03*
X14810000Y-54095000D03*
X17190000Y-54095000D03*
X14810000Y-53460000D03*
X17190000Y-53460000D03*
X14810000Y-52825000D03*
X17190000Y-52825000D03*
X-17190000Y-59175000D03*
X-14810000Y-59175000D03*
X-17190000Y-58540000D03*
X-14810000Y-58540000D03*
X-17190000Y-57905000D03*
X-14810000Y-57905000D03*
X-17190000Y-57270000D03*
X-14810000Y-57270000D03*
X-17190000Y-56635000D03*
X-14810000Y-56635000D03*
X-17190000Y-56000000D03*
X-14810000Y-56000000D03*
X-17190000Y-55365000D03*
X-14810000Y-55365000D03*
X-17190000Y-54730000D03*
X-14810000Y-54730000D03*
X-17190000Y-54095000D03*
X-14810000Y-54095000D03*
X-17190000Y-53460000D03*
X-14810000Y-53460000D03*
X-17190000Y-52825000D03*
X-14810000Y-52825000D03*
X-17190000Y-86175000D03*
X-14810000Y-86175000D03*
X-17190000Y-85540000D03*
X-14810000Y-85540000D03*
X-17190000Y-84905000D03*
X-14810000Y-84905000D03*
X-17190000Y-84270000D03*
X-14810000Y-84270000D03*
X-17190000Y-83635000D03*
X-14810000Y-83635000D03*
X-17190000Y-83000000D03*
X-14810000Y-83000000D03*
X-17190000Y-82365000D03*
X-14810000Y-82365000D03*
X-17190000Y-81730000D03*
X-14810000Y-81730000D03*
X-17190000Y-81095000D03*
X-14810000Y-81095000D03*
X-17190000Y-80460000D03*
X-14810000Y-80460000D03*
X-17190000Y-79825000D03*
X-14810000Y-79825000D03*
X-43190000Y-30175000D03*
X-40810000Y-30175000D03*
X-43190000Y-29540000D03*
X-40810000Y-29540000D03*
X-43190000Y-28905000D03*
X-40810000Y-28905000D03*
X-43190000Y-28270000D03*
X-40810000Y-28270000D03*
X-43190000Y-27635000D03*
X-40810000Y-27635000D03*
X-43190000Y-27000000D03*
X-40810000Y-27000000D03*
X-43190000Y-26365000D03*
X-40810000Y-26365000D03*
X-43190000Y-25730000D03*
X-40810000Y-25730000D03*
X-43190000Y-25095000D03*
X-40810000Y-25095000D03*
X-43190000Y-24460000D03*
X-40810000Y-24460000D03*
X-43190000Y-23825000D03*
X-40810000Y-23825000D03*
X-43190000Y-86175000D03*
X-40810000Y-86175000D03*
X-43190000Y-85540000D03*
X-40810000Y-85540000D03*
X-43190000Y-84905000D03*
X-40810000Y-84905000D03*
X-43190000Y-84270000D03*
X-40810000Y-84270000D03*
X-43190000Y-83635000D03*
X-40810000Y-83635000D03*
X-43190000Y-83000000D03*
X-40810000Y-83000000D03*
X-43190000Y-82365000D03*
X-40810000Y-82365000D03*
X-43190000Y-81730000D03*
X-40810000Y-81730000D03*
X-43190000Y-81095000D03*
X-40810000Y-81095000D03*
X-43190000Y-80460000D03*
X-40810000Y-80460000D03*
X-43190000Y-79825000D03*
X-40810000Y-79825000D03*
D17*
X-8775000Y-34000000D03*
X-7225000Y-34000000D03*
D21*
X9775000Y-6000000D03*
X8225000Y-6000000D03*
D20*
X13825000Y-29000000D03*
X12175000Y-29000000D03*
D40*
X13000000Y5000000D03*
D17*
X8225000Y2000000D03*
X9775000Y2000000D03*
D82*
X4500000Y-36175000D03*
X4500000Y-37825000D03*
D83*
X-9000000Y-64825000D03*
X-9000000Y-63175000D03*
D84*
X13950000Y-77062500D03*
X12050000Y-77062500D03*
X13000000Y-78937500D03*
D17*
X2225000Y-56500000D03*
X3775000Y-56500000D03*
D85*
X3000000Y-63975000D03*
X3000000Y-61025000D03*
D12*
X-825000Y-32500000D03*
X825000Y-32500000D03*
D25*
X2050000Y-53000000D03*
X3950000Y-53000000D03*
D17*
X-9775000Y-2000000D03*
X-8225000Y-2000000D03*
D86*
X-8862500Y-26075000D03*
X-8862500Y-26725000D03*
X-8862500Y-27375000D03*
X-8862500Y-28025000D03*
X-8862500Y-28675000D03*
X-8862500Y-29325000D03*
X-8862500Y-29975000D03*
X-8862500Y-30625000D03*
X-8862500Y-31275000D03*
X-8862500Y-31925000D03*
X-3137500Y-31925000D03*
X-3137500Y-31275000D03*
X-3137500Y-30625000D03*
X-3137500Y-29975000D03*
X-3137500Y-29325000D03*
X-3137500Y-28675000D03*
X-3137500Y-28025000D03*
X-3137500Y-27375000D03*
X-3137500Y-26725000D03*
X-3137500Y-26075000D03*
D83*
X-14000000Y-64825000D03*
X-14000000Y-63175000D03*
D75*
X4000000Y-46950000D03*
X4000000Y-45050000D03*
D87*
X-9850000Y-5900000D03*
X-9850000Y-8100000D03*
X-8150000Y-8100000D03*
X-8150000Y-5900000D03*
D24*
X-2137500Y-19050000D03*
X-2137500Y-20000000D03*
X-2137500Y-20950000D03*
X137500Y-20950000D03*
X137500Y-19050000D03*
D88*
X12850000Y-41500000D03*
X9150000Y-41500000D03*
D89*
X2000000Y-45212500D03*
X2000000Y-46787500D03*
D20*
X12825000Y-53000000D03*
X11175000Y-53000000D03*
D23*
X8950000Y-68000000D03*
X7050000Y-68000000D03*
D90*
X7350000Y-47095000D03*
X7350000Y-48365000D03*
X7350000Y-49635000D03*
X7350000Y-50905000D03*
X12650000Y-50905000D03*
X12650000Y-49635000D03*
X12650000Y-48365000D03*
X12650000Y-47095000D03*
D91*
X10000000Y-49000000D03*
D17*
X2225000Y-58000000D03*
X3775000Y-58000000D03*
D20*
X13825000Y-31000000D03*
X12175000Y-31000000D03*
D17*
X8225000Y-4000000D03*
X9775000Y-4000000D03*
D83*
X-14000000Y-61825000D03*
X-14000000Y-60175000D03*
X-8000000Y-20825000D03*
X-8000000Y-19175000D03*
D72*
X-3500000Y-64775000D03*
X-3500000Y-63225000D03*
D25*
X7050000Y-45250000D03*
X8950000Y-45250000D03*
D92*
X12000000Y-71000000D03*
X8000000Y-71000000D03*
D82*
X6000000Y-36175000D03*
X6000000Y-37825000D03*
D20*
X825000Y-34000000D03*
X-825000Y-34000000D03*
D25*
X7050000Y-55000000D03*
X8950000Y-55000000D03*
D21*
X12775000Y-45000000D03*
X11225000Y-45000000D03*
D72*
X-7000000Y-64775000D03*
X-7000000Y-63225000D03*
D48*
X0Y-30650000D03*
X0Y-27350000D03*
D72*
X-12000000Y-61775000D03*
X-12000000Y-60225000D03*
D83*
X0Y-64825000D03*
X0Y-63175000D03*
D47*
X-12000000Y-56000000D03*
D64*
X4500000Y-77225000D03*
X4500000Y-78775000D03*
X6000000Y-19225000D03*
X6000000Y-20775000D03*
D17*
X2225000Y-49000000D03*
X3775000Y-49000000D03*
D24*
X7862500Y-27050000D03*
X7862500Y-28000000D03*
X7862500Y-28950000D03*
X10137500Y-28950000D03*
X10137500Y-28000000D03*
X10137500Y-27050000D03*
D40*
X-13000000Y5000000D03*
D82*
X-9000000Y-60175000D03*
X-9000000Y-61825000D03*
D24*
X-10137500Y1950000D03*
X-10137500Y1000000D03*
X-10137500Y50000D03*
X-7862500Y50000D03*
X-7862500Y1950000D03*
D18*
X10137500Y-1950000D03*
X10137500Y-1000000D03*
X10137500Y-50000D03*
X7862500Y-50000D03*
X7862500Y-1950000D03*
D29*
X7110000Y-82720000D03*
X12890000Y-82720000D03*
D30*
X6650000Y-81655000D03*
X7450000Y-81655000D03*
X8750000Y-81655000D03*
X9750000Y-81655000D03*
X10250000Y-81655000D03*
X11250000Y-81655000D03*
X12550000Y-81655000D03*
X13350000Y-81655000D03*
X13050000Y-81655000D03*
X12250000Y-81655000D03*
X11750000Y-81655000D03*
X10750000Y-81655000D03*
X9250000Y-81655000D03*
X8250000Y-81655000D03*
X7750000Y-81655000D03*
X6950000Y-81655000D03*
D31*
X5680000Y-82220000D03*
D32*
X5680000Y-86400000D03*
D31*
X14320000Y-82220000D03*
D32*
X14320000Y-86400000D03*
D83*
X7500000Y-37825000D03*
X7500000Y-36175000D03*
D40*
X-13000000Y-86000000D03*
D82*
X-14000000Y-14175000D03*
X-14000000Y-15825000D03*
D49*
X11000000Y-37000000D03*
D17*
X2225000Y-55000000D03*
X3775000Y-55000000D03*
D93*
X12650000Y-65905000D03*
X12650000Y-64635000D03*
X12650000Y-63365000D03*
X12650000Y-62095000D03*
X7350000Y-62095000D03*
X7350000Y-63365000D03*
X7350000Y-64635000D03*
X7350000Y-65905000D03*
D91*
X10000000Y-64000000D03*
D89*
X-12000000Y-14212500D03*
X-12000000Y-15787500D03*
D21*
X-8225000Y4000000D03*
X-9775000Y4000000D03*
D12*
X11175000Y-60000000D03*
X12825000Y-60000000D03*
D94*
X3000000Y-23000000D03*
D82*
X-2000000Y-60175000D03*
X-2000000Y-61825000D03*
D72*
X-2000000Y-46775000D03*
X-2000000Y-45225000D03*
D95*
X-10715000Y-78030000D03*
X715000Y-78030000D03*
D96*
X-10715000Y-69140000D03*
D97*
X-9445000Y-71680000D03*
X-8175000Y-69140000D03*
X-6905000Y-71680000D03*
X-5635000Y-69140000D03*
X-4365000Y-71680000D03*
X-3095000Y-69140000D03*
X-1825000Y-71680000D03*
X-555000Y-69140000D03*
X715000Y-71680000D03*
D41*
X-11630000Y-82110000D03*
X-9090000Y-82110000D03*
X-910000Y-82110000D03*
X1630000Y-82110000D03*
D98*
X-12745000Y-74980000D03*
X2745000Y-74980000D03*
D99*
X10262500Y-78500000D03*
X10262500Y-78000000D03*
X10262500Y-77500000D03*
D100*
X9750000Y-76737500D03*
X9250000Y-76737500D03*
X8750000Y-76737500D03*
X8250000Y-76737500D03*
D99*
X7737500Y-77500000D03*
X7737500Y-78000000D03*
X7737500Y-78500000D03*
D100*
X8250000Y-79262500D03*
X8750000Y-79262500D03*
X9250000Y-79262500D03*
X9750000Y-79262500D03*
D28*
X9000000Y-78000000D03*
D25*
X7050000Y-57000000D03*
X8950000Y-57000000D03*
D64*
X-6000000Y-45225000D03*
X-6000000Y-46775000D03*
D20*
X8825000Y-53000000D03*
X7175000Y-53000000D03*
D12*
X12175000Y-33000000D03*
X13825000Y-33000000D03*
D17*
X8225000Y4000000D03*
X9775000Y4000000D03*
D12*
X11175000Y-55000000D03*
X12825000Y-55000000D03*
D83*
X-12000000Y-64825000D03*
X-12000000Y-63175000D03*
D64*
X4000000Y-19225000D03*
X4000000Y-20775000D03*
D25*
X11050000Y-57000000D03*
X12950000Y-57000000D03*
D48*
X7000000Y-43150000D03*
X7000000Y-39850000D03*
D72*
X-2000000Y-64775000D03*
X-2000000Y-63225000D03*
D21*
X-3225000Y-34000000D03*
X-4775000Y-34000000D03*
D101*
X-5750000Y-11650000D03*
X-5250000Y-11650000D03*
X-4750000Y-11650000D03*
X-4250000Y-11650000D03*
X-3750000Y-11650000D03*
X-3250000Y-11650000D03*
X-2750000Y-11650000D03*
X-2250000Y-11650000D03*
X-1750000Y-11650000D03*
X-1250000Y-11650000D03*
X-750000Y-11650000D03*
X-250000Y-11650000D03*
X250000Y-11650000D03*
X750000Y-11650000D03*
X1250000Y-11650000D03*
X1750000Y-11650000D03*
X2250000Y-11650000D03*
X2750000Y-11650000D03*
X3250000Y-11650000D03*
X3750000Y-11650000D03*
X4250000Y-11650000D03*
X4750000Y-11650000D03*
X5250000Y-11650000D03*
X5750000Y-11650000D03*
D102*
X-7420000Y-13350000D03*
X7420000Y-13350000D03*
D64*
X0Y-60225000D03*
X0Y-61775000D03*
D75*
X-8000000Y-37950000D03*
X-8000000Y-36050000D03*
D60*
X-13000000Y-26460000D03*
X-11984000Y-31540000D03*
X-14016000Y-31540000D03*
D61*
X-13635000Y-27730000D03*
X-12365000Y-27730000D03*
X-13635000Y-29000000D03*
X-12365000Y-29000000D03*
X-13635000Y-30270000D03*
X-12365000Y-30270000D03*
D82*
X-4500000Y-36175000D03*
X-4500000Y-37825000D03*
D64*
X-7000000Y-60225000D03*
X-7000000Y-61775000D03*
D103*
X7525000Y-33000000D03*
X10475000Y-33000000D03*
D56*
X1475000Y5000000D03*
X-1475000Y5000000D03*
X5475000Y-33000000D03*
X2525000Y-33000000D03*
D82*
X-10500000Y-60175000D03*
X-10500000Y-61825000D03*
D104*
X-7750000Y-57162500D03*
X-7250000Y-57162500D03*
X-6750000Y-57162500D03*
X-6250000Y-57162500D03*
X-5750000Y-57162500D03*
X-5250000Y-57162500D03*
X-4750000Y-57162500D03*
X-4250000Y-57162500D03*
X-3750000Y-57162500D03*
X-3250000Y-57162500D03*
X-2750000Y-57162500D03*
X-2250000Y-57162500D03*
D105*
X-837500Y-55750000D03*
X-837500Y-55250000D03*
X-837500Y-54750000D03*
X-837500Y-54250000D03*
X-837500Y-53750000D03*
X-837500Y-53250000D03*
X-837500Y-52750000D03*
X-837500Y-52250000D03*
X-837500Y-51750000D03*
X-837500Y-51250000D03*
X-837500Y-50750000D03*
X-837500Y-50250000D03*
D104*
X-2250000Y-48837500D03*
X-2750000Y-48837500D03*
X-3250000Y-48837500D03*
X-3750000Y-48837500D03*
X-4250000Y-48837500D03*
X-4750000Y-48837500D03*
X-5250000Y-48837500D03*
X-5750000Y-48837500D03*
X-6250000Y-48837500D03*
X-6750000Y-48837500D03*
X-7250000Y-48837500D03*
X-7750000Y-48837500D03*
D105*
X-9162500Y-50250000D03*
X-9162500Y-50750000D03*
X-9162500Y-51250000D03*
X-9162500Y-51750000D03*
X-9162500Y-52250000D03*
X-9162500Y-52750000D03*
X-9162500Y-53250000D03*
X-9162500Y-53750000D03*
X-9162500Y-54250000D03*
X-9162500Y-54750000D03*
X-9162500Y-55250000D03*
X-9162500Y-55750000D03*
D64*
X-4000000Y-19225000D03*
X-4000000Y-20775000D03*
D17*
X-9775000Y6000000D03*
X-8225000Y6000000D03*
D83*
X-10500000Y-64825000D03*
X-10500000Y-63175000D03*
D17*
X-5775000Y4000000D03*
X-4225000Y4000000D03*
D64*
X6000000Y-77225000D03*
X6000000Y-78775000D03*
D60*
X-13000000Y-17460000D03*
X-11984000Y-22540000D03*
X-14016000Y-22540000D03*
D61*
X-13635000Y-18730000D03*
X-12365000Y-18730000D03*
X-13635000Y-20000000D03*
X-12365000Y-20000000D03*
X-13635000Y-21270000D03*
X-12365000Y-21270000D03*
D75*
X0Y-46950000D03*
X0Y-45050000D03*
D106*
X2400000Y-38000000D03*
D81*
X2250000Y-38050000D03*
X1500000Y-38050000D03*
X750000Y-38040000D03*
X0Y-38050000D03*
X-750000Y-38050000D03*
X-1500000Y-38050000D03*
X-2250000Y-38050000D03*
X2650000Y-37000000D03*
D107*
X0Y-37000000D03*
D81*
X-2650000Y-37000000D03*
X2250000Y-35950000D03*
X1500000Y-35950000D03*
X750000Y-35950000D03*
X0Y-35950000D03*
X-750000Y-35950000D03*
X-1500000Y-35950000D03*
X-2250000Y-35950000D03*
D108*
X4000000Y-27500000D03*
X4000000Y-30500000D03*
D12*
X4175000Y4000000D03*
X5825000Y4000000D03*
D17*
X-9775000Y-4000000D03*
X-8225000Y-4000000D03*
D49*
X-12000000Y-50000000D03*
D82*
X-3500000Y-60175000D03*
X-3500000Y-61825000D03*
D64*
X8000000Y-19225000D03*
X8000000Y-20775000D03*
D83*
X-5000000Y-64825000D03*
X-5000000Y-63175000D03*
D17*
X8225000Y-31000000D03*
X9775000Y-31000000D03*
X8225000Y6000000D03*
X9775000Y6000000D03*
D83*
X-6000000Y-20825000D03*
X-6000000Y-19175000D03*
D17*
X2225000Y-51000000D03*
X3775000Y-51000000D03*
D72*
X-6000000Y-37775000D03*
X-6000000Y-36225000D03*
D64*
X2000000Y-19225000D03*
X2000000Y-20775000D03*
D17*
X12225000Y-27000000D03*
X13775000Y-27000000D03*
D109*
X-3900000Y-41150000D03*
X-6100000Y-41150000D03*
X-6100000Y-42850000D03*
X-3900000Y-42850000D03*
D82*
X-5000000Y-60175000D03*
X-5000000Y-61825000D03*
D110*
X4310000Y-6150000D03*
X4310000Y-5250000D03*
X4310000Y-4350000D03*
X4310000Y-3450000D03*
X4310000Y-2550000D03*
X4310000Y-1650000D03*
X4310000Y-750000D03*
X4310000Y150000D03*
D111*
X3150000Y1310000D03*
X2250000Y1310000D03*
X1350000Y1310000D03*
X450000Y1310000D03*
X-450000Y1310000D03*
X-1350000Y1310000D03*
X-2250000Y1310000D03*
X-3150000Y1310000D03*
D110*
X-4310000Y150000D03*
X-4310000Y-750000D03*
X-4310000Y-1650000D03*
X-4310000Y-2550000D03*
X-4310000Y-3450000D03*
X-4310000Y-4350000D03*
X-4310000Y-5250000D03*
X-4310000Y-6150000D03*
D111*
X-3150000Y-7310000D03*
X-2250000Y-7310000D03*
X-1350000Y-7310000D03*
X-450000Y-7310000D03*
X450000Y-7310000D03*
X1350000Y-7310000D03*
X2250000Y-7310000D03*
X3150000Y-7310000D03*
D112*
X5305000Y-6825000D03*
D113*
X5305000Y-5700000D03*
X5305000Y-4800000D03*
X5305000Y-3900000D03*
X5305000Y-3000000D03*
X5305000Y-2100000D03*
X5305000Y-1200000D03*
X5305000Y-300000D03*
D112*
X5305000Y825000D03*
D114*
X3825000Y-8305000D03*
X3825000Y2305000D03*
D113*
X2700000Y-8305000D03*
X2700000Y2305000D03*
X1800000Y-8305000D03*
X1800000Y2305000D03*
X900000Y-8305000D03*
X900000Y2305000D03*
X0Y-8305000D03*
X0Y2305000D03*
X-900000Y-8305000D03*
X-900000Y2305000D03*
X-1800000Y-8305000D03*
X-1800000Y2305000D03*
X-2700000Y-8305000D03*
X-2700000Y2305000D03*
D114*
X-3825000Y-8305000D03*
X-3825000Y2305000D03*
D112*
X-5305000Y-6825000D03*
D113*
X-5305000Y-5700000D03*
X-5305000Y-4800000D03*
X-5305000Y-3900000D03*
X-5305000Y-3000000D03*
X-5305000Y-2100000D03*
X-5305000Y-1200000D03*
X-5305000Y-300000D03*
D112*
X-5305000Y825000D03*
D12*
X11175000Y-68000000D03*
X12825000Y-68000000D03*
D115*
X9000000Y-37787500D03*
X9000000Y-36212500D03*
D50*
X8000000Y-60000000D03*
D94*
X3000000Y-25000000D03*
D72*
X-4000000Y-46775000D03*
X-4000000Y-45225000D03*
D116*
X32650000Y-80200000D03*
X32650000Y-81800000D03*
X27350000Y-81800000D03*
X27350000Y-80200000D03*
D46*
X78100000Y-86000000D03*
D117*
X65450000Y-24650000D03*
X65450000Y-23050000D03*
X70750000Y-23050000D03*
X70750000Y-24650000D03*
D118*
X54130000Y-37900000D03*
D119*
X52860000Y-35360000D03*
D120*
X49050000Y-37900000D03*
D119*
X46510000Y-32820000D03*
D118*
X43970000Y-37900000D03*
D121*
X56135000Y-35360000D03*
X43208000Y-32820000D03*
D116*
X32650000Y-42100000D03*
X32650000Y-43700000D03*
X27350000Y-43700000D03*
X27350000Y-42100000D03*
D118*
X54130000Y-76000000D03*
D119*
X52860000Y-73460000D03*
D120*
X49050000Y-76000000D03*
D119*
X46510000Y-70920000D03*
D118*
X43970000Y-76000000D03*
D121*
X56135000Y-73460000D03*
X43208000Y-70920000D03*
D118*
X73180000Y-76000000D03*
D119*
X71910000Y-73460000D03*
D120*
X68100000Y-76000000D03*
D119*
X65560000Y-70920000D03*
D118*
X63020000Y-76000000D03*
D121*
X75185000Y-73460000D03*
X62258000Y-70920000D03*
D29*
X65210000Y8870000D03*
X70990000Y8870000D03*
D31*
X63780000Y8370000D03*
D32*
X63780000Y12550000D03*
D31*
X72420000Y8370000D03*
D32*
X72420000Y12550000D03*
D118*
X73180000Y-37900000D03*
D119*
X71910000Y-35360000D03*
D120*
X68100000Y-37900000D03*
D119*
X65560000Y-32820000D03*
D118*
X63020000Y-37900000D03*
D121*
X75185000Y-35360000D03*
X62258000Y-32820000D03*
D118*
X35080000Y-18850000D03*
D119*
X33810000Y-16310000D03*
D120*
X30000000Y-18850000D03*
D119*
X27460000Y-13770000D03*
D118*
X24920000Y-18850000D03*
D121*
X37085000Y-16310000D03*
X24158000Y-13770000D03*
D118*
X73180000Y-18850000D03*
D119*
X71910000Y-16310000D03*
D120*
X68100000Y-18850000D03*
D119*
X65560000Y-13770000D03*
D118*
X63020000Y-18850000D03*
D121*
X75185000Y-16310000D03*
X62258000Y-13770000D03*
D117*
X46400000Y-24650000D03*
X46400000Y-23050000D03*
X51700000Y-23050000D03*
X51700000Y-24650000D03*
X27350000Y-62750000D03*
X27350000Y-61150000D03*
X32650000Y-61150000D03*
X32650000Y-62750000D03*
X27350000Y-24650000D03*
X27350000Y-23050000D03*
X32650000Y-23050000D03*
X32650000Y-24650000D03*
D116*
X51700000Y-42100000D03*
X51700000Y-43700000D03*
X46400000Y-43700000D03*
X46400000Y-42100000D03*
D122*
X30000000Y-4300000D03*
D123*
X30000000Y200000D03*
D46*
X20000000Y11150000D03*
D118*
X35080000Y-37900000D03*
D119*
X33810000Y-35360000D03*
D120*
X30000000Y-37900000D03*
D119*
X27460000Y-32820000D03*
D118*
X24920000Y-37900000D03*
D121*
X37085000Y-35360000D03*
X24158000Y-32820000D03*
D118*
X54130000Y-56950000D03*
D119*
X52860000Y-54410000D03*
D120*
X49050000Y-56950000D03*
D119*
X46510000Y-51870000D03*
D118*
X43970000Y-56950000D03*
D121*
X56135000Y-54410000D03*
X43208000Y-51870000D03*
D46*
X78100000Y11150000D03*
D118*
X54130000Y-18850000D03*
D119*
X52860000Y-16310000D03*
D120*
X49050000Y-18850000D03*
D119*
X46510000Y-13770000D03*
D118*
X43970000Y-18850000D03*
D121*
X56135000Y-16310000D03*
X43208000Y-13770000D03*
D124*
X51900000Y11150000D03*
D125*
X49360000Y11150000D03*
X46820000Y11150000D03*
X44280000Y11150000D03*
D117*
X65450000Y-62750000D03*
X65450000Y-61150000D03*
X70750000Y-61150000D03*
X70750000Y-62750000D03*
D118*
X35080000Y-76000000D03*
D119*
X33810000Y-73460000D03*
D120*
X30000000Y-76000000D03*
D119*
X27460000Y-70920000D03*
D118*
X24920000Y-76000000D03*
D121*
X37085000Y-73460000D03*
X24158000Y-70920000D03*
D116*
X51700000Y-80200000D03*
X51700000Y-81800000D03*
X46400000Y-81800000D03*
X46400000Y-80200000D03*
D117*
X46400000Y-62750000D03*
X46400000Y-61150000D03*
X51700000Y-61150000D03*
X51700000Y-62750000D03*
D116*
X70750000Y-80200000D03*
X70750000Y-81800000D03*
X65450000Y-81800000D03*
X65450000Y-80200000D03*
D46*
X20000000Y-86000000D03*
D116*
X70750000Y-42100000D03*
X70750000Y-43700000D03*
X65450000Y-43700000D03*
X65450000Y-42100000D03*
D118*
X35080000Y-56950000D03*
D119*
X33810000Y-54410000D03*
D120*
X30000000Y-56950000D03*
D119*
X27460000Y-51870000D03*
D118*
X24920000Y-56950000D03*
D121*
X37085000Y-54410000D03*
X24158000Y-51870000D03*
D118*
X73180000Y-56950000D03*
D119*
X71910000Y-54410000D03*
D120*
X68100000Y-56950000D03*
D119*
X65560000Y-51870000D03*
D118*
X63020000Y-56950000D03*
D121*
X75185000Y-54410000D03*
X62258000Y-51870000D03*
D72*
X71100000Y-9625000D03*
X71100000Y-8075000D03*
D126*
X43050000Y-63000000D03*
X43050000Y-60900000D03*
D21*
X37875000Y150000D03*
X36325000Y150000D03*
D126*
X62100000Y-82050000D03*
X62100000Y-79950000D03*
D55*
X43100000Y-7900000D03*
X43100000Y-9800000D03*
D21*
X41875000Y150000D03*
X40325000Y150000D03*
X49825000Y-45900000D03*
X48275000Y-45900000D03*
D20*
X58925000Y9150000D03*
X57275000Y9150000D03*
D17*
X48275000Y-26850000D03*
X49825000Y-26850000D03*
D21*
X68875000Y-84000000D03*
X67325000Y-84000000D03*
D127*
X58887500Y11150000D03*
X57312500Y11150000D03*
D84*
X69050000Y12087500D03*
X67150000Y12087500D03*
X68100000Y10212500D03*
D126*
X62100000Y-43950000D03*
X62100000Y-41850000D03*
D21*
X41875000Y4150000D03*
X40325000Y4150000D03*
D126*
X43050000Y-82050000D03*
X43050000Y-79950000D03*
X43050000Y-24900000D03*
X43050000Y-22800000D03*
X43050000Y-43950000D03*
X43050000Y-41850000D03*
D128*
X69050000Y-7712500D03*
X68100000Y-7712500D03*
X67150000Y-7712500D03*
X67150000Y-9987500D03*
X69050000Y-9987500D03*
D64*
X73100000Y-75000D03*
X73100000Y-1625000D03*
D126*
X24000000Y-63000000D03*
X24000000Y-60900000D03*
D129*
X43925000Y3950000D03*
X43925000Y3150000D03*
X43925000Y2350000D03*
X43925000Y1550000D03*
X43925000Y750000D03*
X43925000Y-50000D03*
X43925000Y-850000D03*
X43925000Y-1650000D03*
D130*
X45300000Y-3025000D03*
X46100000Y-3025000D03*
X46900000Y-3025000D03*
X47700000Y-3025000D03*
X48500000Y-3025000D03*
X49300000Y-3025000D03*
X50100000Y-3025000D03*
X50900000Y-3025000D03*
D129*
X52275000Y-1650000D03*
X52275000Y-850000D03*
X52275000Y-50000D03*
X52275000Y750000D03*
X52275000Y1550000D03*
X52275000Y2350000D03*
X52275000Y3150000D03*
X52275000Y3950000D03*
D130*
X50900000Y5325000D03*
X50100000Y5325000D03*
X49300000Y5325000D03*
X48500000Y5325000D03*
X47700000Y5325000D03*
X46900000Y5325000D03*
X46100000Y5325000D03*
X45300000Y5325000D03*
D17*
X67325000Y-26850000D03*
X68875000Y-26850000D03*
D55*
X41100000Y-7900000D03*
X41100000Y-9800000D03*
D21*
X30775000Y-84000000D03*
X29225000Y-84000000D03*
D64*
X55100000Y-8075000D03*
X55100000Y-9625000D03*
D83*
X45100000Y-9675000D03*
X45100000Y-8025000D03*
D17*
X43325000Y7150000D03*
X44875000Y7150000D03*
D126*
X24000000Y-24900000D03*
X24000000Y-22800000D03*
X24000000Y-82050000D03*
X24000000Y-79950000D03*
D17*
X29225000Y-64950000D03*
X30775000Y-64950000D03*
D131*
X63100000Y625000D03*
X63100000Y-2325000D03*
D21*
X68875000Y-45900000D03*
X67325000Y-45900000D03*
D17*
X29225000Y-26850000D03*
X30775000Y-26850000D03*
D82*
X65100000Y11975000D03*
X65100000Y10325000D03*
X71100000Y11975000D03*
X71100000Y10325000D03*
D12*
X40275000Y9150000D03*
X41925000Y9150000D03*
X40275000Y7150000D03*
X41925000Y7150000D03*
D64*
X49100000Y-8075000D03*
X49100000Y-9625000D03*
D17*
X40325000Y2150000D03*
X41875000Y2150000D03*
D64*
X53100000Y-8075000D03*
X53100000Y-9625000D03*
D21*
X49825000Y-84000000D03*
X48275000Y-84000000D03*
D132*
X65800000Y-4000000D03*
X68100000Y-4000000D03*
D133*
X68100000Y2300000D03*
D132*
X70400000Y-4000000D03*
D21*
X30775000Y-45900000D03*
X29225000Y-45900000D03*
D126*
X24000000Y-43950000D03*
X24000000Y-41850000D03*
D87*
X36250000Y4250000D03*
X36250000Y2050000D03*
X37950000Y2050000D03*
X37950000Y4250000D03*
D64*
X51100000Y-8075000D03*
X51100000Y-9625000D03*
D126*
X62100000Y-63000000D03*
X62100000Y-60900000D03*
D17*
X67325000Y-64950000D03*
X68875000Y-64950000D03*
D21*
X52875000Y-4850000D03*
X51325000Y-4850000D03*
D126*
X62100000Y-24900000D03*
X62100000Y-22800000D03*
D17*
X48275000Y-64950000D03*
X49825000Y-64950000D03*
D47*
X-18000000Y-56000000D03*
D15*
X-20062500Y-28950000D03*
X-20062500Y-27050000D03*
X-21937500Y-28000000D03*
D12*
X-33825000Y-27000000D03*
X-32175000Y-27000000D03*
D17*
X-36775000Y-76000000D03*
X-35225000Y-76000000D03*
D49*
X-18000000Y-29000000D03*
D17*
X-37775000Y-31000000D03*
X-36225000Y-31000000D03*
D54*
X-23000000Y-43800000D03*
X-23000000Y-40200000D03*
D20*
X-21175000Y-48000000D03*
X-22825000Y-48000000D03*
D21*
X-25225000Y-37000000D03*
X-26775000Y-37000000D03*
D17*
X-22775000Y-79000000D03*
X-21225000Y-79000000D03*
D40*
X-35000000Y-89000000D03*
D17*
X-36775000Y-78000000D03*
X-35225000Y-78000000D03*
D13*
X-24275000Y-30905000D03*
X-24275000Y-29635000D03*
X-24275000Y-28365000D03*
X-24275000Y-27095000D03*
D14*
X-27000000Y-29000000D03*
D21*
X-35225000Y-35000000D03*
X-36775000Y-35000000D03*
D24*
X-27137500Y-46050000D03*
X-27137500Y-47000000D03*
X-27137500Y-47950000D03*
X-24862500Y-47950000D03*
X-24862500Y-47000000D03*
X-24862500Y-46050000D03*
D12*
X-22825000Y-52000000D03*
X-21175000Y-52000000D03*
D25*
X-30450000Y-37000000D03*
X-28550000Y-37000000D03*
D46*
X-20000000Y-23000000D03*
D50*
X-22000000Y-72000000D03*
D17*
X-22775000Y-46000000D03*
X-21225000Y-46000000D03*
D29*
X-31890000Y-83720000D03*
X-26110000Y-83720000D03*
D30*
X-32350000Y-82655000D03*
X-31550000Y-82655000D03*
X-30250000Y-82655000D03*
X-29250000Y-82655000D03*
X-28750000Y-82655000D03*
X-27750000Y-82655000D03*
X-26450000Y-82655000D03*
X-25650000Y-82655000D03*
X-25950000Y-82655000D03*
X-26750000Y-82655000D03*
X-27250000Y-82655000D03*
X-28250000Y-82655000D03*
X-29750000Y-82655000D03*
X-30750000Y-82655000D03*
X-31250000Y-82655000D03*
X-32050000Y-82655000D03*
D31*
X-33320000Y-83220000D03*
D32*
X-33320000Y-87400000D03*
D31*
X-24680000Y-83220000D03*
D32*
X-24680000Y-87400000D03*
D25*
X-31950000Y-44000000D03*
X-30050000Y-44000000D03*
D55*
X-27000000Y-41050000D03*
X-27000000Y-42950000D03*
D40*
X-23000000Y-89000000D03*
D22*
X-36062500Y-44000000D03*
X-33937500Y-44000000D03*
D33*
X-30150000Y-33025000D03*
X-30150000Y-33675000D03*
X-30150000Y-34325000D03*
X-30150000Y-34975000D03*
X-25850000Y-34975000D03*
X-25850000Y-34325000D03*
X-25850000Y-33675000D03*
X-25850000Y-33025000D03*
D34*
X-28000000Y-34000000D03*
D12*
X-33825000Y-35000000D03*
X-32175000Y-35000000D03*
D17*
X-33775000Y-37000000D03*
X-32225000Y-37000000D03*
D12*
X-21825000Y-31000000D03*
X-20175000Y-31000000D03*
D17*
X-31775000Y-46000000D03*
X-30225000Y-46000000D03*
D21*
X-25225000Y-50000000D03*
X-26775000Y-50000000D03*
X-34225000Y-50000000D03*
X-35775000Y-50000000D03*
D48*
X-40000000Y-35650000D03*
X-40000000Y-32350000D03*
D19*
X-33937500Y-29050000D03*
X-33937500Y-30950000D03*
X-32062500Y-30000000D03*
D18*
X-35862500Y-28950000D03*
X-35862500Y-28000000D03*
X-35862500Y-27050000D03*
X-38137500Y-27050000D03*
X-38137500Y-28950000D03*
D47*
X-39000000Y-77000000D03*
D35*
X-40000000Y-38000000D03*
D36*
X-40000000Y-40000000D03*
X-40000000Y-42000000D03*
X-40000000Y-44000000D03*
X-40000000Y-46000000D03*
X-40000000Y-48000000D03*
X-40000000Y-50000000D03*
X-40000000Y-52000000D03*
D20*
X-30175000Y-48000000D03*
X-31825000Y-48000000D03*
D26*
X-35500000Y-71737500D03*
X-36000000Y-71737500D03*
X-36500000Y-71737500D03*
D27*
X-37262500Y-72250000D03*
X-37262500Y-72750000D03*
X-37262500Y-73250000D03*
X-37262500Y-73750000D03*
D26*
X-36500000Y-74262500D03*
X-36000000Y-74262500D03*
X-35500000Y-74262500D03*
D27*
X-34737500Y-73750000D03*
X-34737500Y-73250000D03*
X-34737500Y-72750000D03*
X-34737500Y-72250000D03*
D28*
X-36000000Y-73000000D03*
D46*
X-20000000Y-87000000D03*
D21*
X-35225000Y-33000000D03*
X-36775000Y-33000000D03*
D48*
X-18000000Y-35650000D03*
X-18000000Y-32350000D03*
D37*
X-29000000Y-87000000D03*
D38*
X-28300000Y-74200000D03*
D39*
X-35450000Y-83200000D03*
X-22550000Y-83200000D03*
D12*
X-31825000Y-52000000D03*
X-30175000Y-52000000D03*
D35*
X-18000000Y-38000000D03*
D36*
X-18000000Y-40000000D03*
X-18000000Y-42000000D03*
X-18000000Y-44000000D03*
X-18000000Y-46000000D03*
X-18000000Y-48000000D03*
X-18000000Y-50000000D03*
X-18000000Y-52000000D03*
D23*
X-25050000Y-52000000D03*
X-26950000Y-52000000D03*
D12*
X-22825000Y-74000000D03*
X-21175000Y-74000000D03*
D16*
X-23137500Y-75525000D03*
X-23137500Y-76175000D03*
X-23137500Y-76825000D03*
X-23137500Y-77475000D03*
X-20862500Y-77475000D03*
X-20862500Y-76825000D03*
X-20862500Y-76175000D03*
X-20862500Y-75525000D03*
D46*
X-38000000Y-23000000D03*
X-38000000Y-87000000D03*
D35*
X-23000000Y-34000000D03*
D36*
X-23000000Y-36000000D03*
D23*
X-34050000Y-52000000D03*
X-35950000Y-52000000D03*
D12*
X-36825000Y-37000000D03*
X-35175000Y-37000000D03*
D24*
X-36137500Y-46050000D03*
X-36137500Y-47000000D03*
X-36137500Y-47950000D03*
X-33862500Y-47950000D03*
X-33862500Y-47000000D03*
X-33862500Y-46050000D03*
D12*
X-22825000Y-50000000D03*
X-21175000Y-50000000D03*
D41*
X-33500000Y-62000000D03*
D42*
X-29000000Y-62000000D03*
D43*
X-36300000Y-59500000D03*
X-36300000Y-64500000D03*
X-36300000Y-62000000D03*
D44*
X-36900000Y-57000000D03*
X-36900000Y-67000000D03*
D45*
X-29000000Y-55625000D03*
X-29000000Y-68375000D03*
D44*
X-21100000Y-57000000D03*
X-21100000Y-67000000D03*
D43*
X-22000000Y-64500000D03*
X-22000000Y-59500000D03*
D51*
X-30280000Y-24460000D03*
D52*
X-25200000Y-22300000D03*
D53*
X-27740000Y-22300000D03*
X-30280000Y-22300000D03*
X-32820000Y-22300000D03*
D40*
X-35000000Y-21000000D03*
D12*
X-31825000Y-50000000D03*
X-30175000Y-50000000D03*
X-33825000Y-33000000D03*
X-32175000Y-33000000D03*
D20*
X-57175000Y-74000000D03*
X-58825000Y-74000000D03*
D59*
X-55915000Y-69450000D03*
X-55915000Y-70550000D03*
X-54085000Y-70550000D03*
X-54085000Y-69450000D03*
D69*
X-51787500Y-54000000D03*
X-50212500Y-54000000D03*
D68*
X-48090611Y-59067413D03*
X-47137983Y-58517413D03*
X-48052983Y-56932587D03*
X-49005611Y-57482587D03*
D74*
X-59808652Y-65671170D03*
X-60583652Y-64328830D03*
D21*
X-54225000Y-68000000D03*
X-55775000Y-68000000D03*
D56*
X-62525000Y-54000000D03*
X-65475000Y-54000000D03*
D46*
X-46000000Y-23000000D03*
D76*
X-63750000Y-33740000D03*
X-63750000Y-35010000D03*
X-63750000Y-36280000D03*
X-63750000Y-37550000D03*
X-63750000Y-38820000D03*
X-63750000Y-40090000D03*
X-63750000Y-41360000D03*
X-63750000Y-42630000D03*
X-63750000Y-43900000D03*
X-63750000Y-45170000D03*
X-63750000Y-46440000D03*
X-63750000Y-47710000D03*
X-63750000Y-48980000D03*
X-63750000Y-50250000D03*
X-46250000Y-50250000D03*
X-46250000Y-48980000D03*
X-46250000Y-47710000D03*
X-46250000Y-46440000D03*
X-46250000Y-45170000D03*
X-46250000Y-43900000D03*
X-46250000Y-42630000D03*
X-46250000Y-41360000D03*
X-46250000Y-40090000D03*
X-46250000Y-38820000D03*
X-46250000Y-37550000D03*
X-46250000Y-36280000D03*
X-46250000Y-35010000D03*
X-46250000Y-33740000D03*
D77*
X-57900000Y-40760000D03*
X-57900000Y-42160000D03*
X-57200000Y-40060000D03*
X-57200000Y-41460000D03*
X-57200000Y-42860000D03*
X-56500000Y-40760000D03*
D78*
X-56500000Y-41460000D03*
D77*
X-56500000Y-42160000D03*
X-55800000Y-40060000D03*
X-55800000Y-41460000D03*
X-55800000Y-42860000D03*
X-55100000Y-40760000D03*
X-55100000Y-42160000D03*
D75*
X-65500000Y-78950000D03*
X-65500000Y-77050000D03*
D17*
X-55775000Y-56000000D03*
X-54225000Y-56000000D03*
D12*
X-51825000Y-56000000D03*
X-50175000Y-56000000D03*
D17*
X-59775000Y-56000000D03*
X-58225000Y-56000000D03*
D64*
X-44000000Y-81225000D03*
X-44000000Y-82775000D03*
D20*
X-58175000Y-54000000D03*
X-59825000Y-54000000D03*
D58*
X-49005611Y-66517413D03*
X-48052983Y-67067413D03*
X-47137983Y-65482587D03*
X-48090611Y-64932587D03*
D80*
X-60583652Y-59671170D03*
X-59808652Y-58328830D03*
D72*
X-66000000Y-34775000D03*
X-66000000Y-33225000D03*
D12*
X-45825000Y-79000000D03*
X-44175000Y-79000000D03*
D67*
X-50191348Y-58328830D03*
X-49416348Y-59671170D03*
D18*
X-43862500Y-62950000D03*
X-43862500Y-62000000D03*
X-43862500Y-61050000D03*
X-46137500Y-61050000D03*
X-46137500Y-62950000D03*
D12*
X-52825000Y-74000000D03*
X-51175000Y-74000000D03*
D59*
X-54085000Y-54550000D03*
X-54085000Y-53450000D03*
X-55915000Y-53450000D03*
X-55915000Y-54550000D03*
D46*
X-46000000Y-87000000D03*
D17*
X-45775000Y-67000000D03*
X-44225000Y-67000000D03*
D79*
X-60994389Y-57482587D03*
X-61947017Y-56932587D03*
X-62862017Y-58517413D03*
X-61909389Y-59067413D03*
D47*
X-44000000Y-34000000D03*
D21*
X-47225000Y-79000000D03*
X-48775000Y-79000000D03*
D65*
X-48000000Y-73500000D03*
X-48000000Y-72500000D03*
X-48000000Y-71500000D03*
X-48000000Y-70500000D03*
D66*
X-44125000Y-74800000D03*
X-44125000Y-69200000D03*
D20*
X-57175000Y-72000000D03*
X-58825000Y-72000000D03*
D12*
X-52825000Y-72000000D03*
X-51175000Y-72000000D03*
D57*
X-49416348Y-64328830D03*
X-50191348Y-65671170D03*
D73*
X-61909389Y-64932587D03*
X-62862017Y-65482587D03*
X-61947017Y-67067413D03*
X-60994389Y-66517413D03*
D46*
X-64000000Y-23000000D03*
X-64000000Y-87000000D03*
D21*
X-62225000Y-78000000D03*
X-63775000Y-78000000D03*
D62*
X-62000000Y-70500000D03*
X-62000000Y-71500000D03*
X-62000000Y-72500000D03*
X-62000000Y-73500000D03*
D63*
X-65875000Y-69200000D03*
X-65875000Y-74800000D03*
D81*
X-62200000Y-80400000D03*
X-62210000Y-81200000D03*
X-62200000Y-82000000D03*
X-62200000Y-82800000D03*
X-62200000Y-83600000D03*
X-63000000Y-83600000D03*
X-63800000Y-83600000D03*
X-63800000Y-82800000D03*
X-63800000Y-82000000D03*
X-63800000Y-81200000D03*
X-63800000Y-80400000D03*
X-63000000Y-80400000D03*
D70*
X-48380000Y-81500000D03*
X-48380000Y-82000000D03*
X-48380000Y-82500000D03*
X-45620000Y-82500000D03*
X-45620000Y-82000000D03*
X-45620000Y-81500000D03*
D71*
X-47000000Y-82000000D03*
D60*
X-45000000Y-59540000D03*
X-46016000Y-54460000D03*
X-43984000Y-54460000D03*
D61*
X-44365000Y-58270000D03*
X-45635000Y-58270000D03*
X-44365000Y-57000000D03*
X-45635000Y-57000000D03*
X-44365000Y-55730000D03*
X-45635000Y-55730000D03*
D35*
X-66000000Y-38000000D03*
D36*
X-66000000Y-40000000D03*
X-66000000Y-42000000D03*
X-66000000Y-44000000D03*
X-66000000Y-46000000D03*
X-66000000Y-48000000D03*
X-66000000Y-50000000D03*
X-66000000Y-52000000D03*
D35*
X-44000000Y-38000000D03*
D36*
X-44000000Y-40000000D03*
X-44000000Y-42000000D03*
X-44000000Y-44000000D03*
X-44000000Y-46000000D03*
X-44000000Y-48000000D03*
X-44000000Y-50000000D03*
X-44000000Y-52000000D03*
D134*
X107483134Y-9423806D03*
X106889974Y-7991792D03*
D135*
X100111695Y3728150D03*
D50*
X85100000Y-300000D03*
D136*
X99976194Y-24683134D03*
X101408208Y-24089974D03*
D137*
X91928070Y-6158222D03*
X88958222Y-9128070D03*
D138*
X104100000Y-11200000D03*
X104100000Y-15400000D03*
D139*
X101408208Y-2510026D03*
X99976194Y-1916866D03*
D59*
X107550000Y-14215000D03*
X108650000Y-14215000D03*
X108650000Y-12385000D03*
X107550000Y-12385000D03*
D50*
X85100000Y1700000D03*
D140*
X88100000Y-15400000D03*
X88100000Y-11200000D03*
D141*
X92836898Y3527565D03*
X91339712Y3928735D03*
D86*
X93237500Y-10375000D03*
X93237500Y-11025000D03*
X93237500Y-11675000D03*
X93237500Y-12325000D03*
X93237500Y-12975000D03*
X93237500Y-13625000D03*
X93237500Y-14275000D03*
X93237500Y-14925000D03*
X93237500Y-15575000D03*
X93237500Y-16225000D03*
X98962500Y-16225000D03*
X98962500Y-15575000D03*
X98962500Y-14925000D03*
X98962500Y-14275000D03*
X98962500Y-13625000D03*
X98962500Y-12975000D03*
X98962500Y-12325000D03*
X98962500Y-11675000D03*
X98962500Y-11025000D03*
X98962500Y-10375000D03*
D50*
X89100000Y-300000D03*
D17*
X95325000Y-8300000D03*
X96875000Y-8300000D03*
D142*
X103549370Y-22043375D03*
X104327187Y-22821192D03*
X105621192Y-21527187D03*
X104843375Y-20749370D03*
D17*
X95325000Y-18300000D03*
X96875000Y-18300000D03*
D143*
X87356625Y-20749370D03*
X86578808Y-21527187D03*
X87872813Y-22821192D03*
X88650630Y-22043375D03*
D59*
X95185000Y-24750000D03*
X95185000Y-25850000D03*
X97015000Y-25850000D03*
X97015000Y-24750000D03*
X84650000Y-12385000D03*
X83550000Y-12385000D03*
X83550000Y-14215000D03*
X84650000Y-14215000D03*
D50*
X103100000Y-300000D03*
D144*
X94000000Y-5300000D03*
X98200000Y-5300000D03*
D145*
X90791792Y-24089974D03*
X92223806Y-24683134D03*
D146*
X85310026Y-7991792D03*
X84716866Y-9423806D03*
D147*
X88958222Y-17471930D03*
X91928070Y-20441778D03*
D60*
X107100000Y3240000D03*
X108116000Y-1840000D03*
X106084000Y-1840000D03*
D61*
X106465000Y1970000D03*
X107735000Y1970000D03*
X106465000Y700000D03*
X107735000Y700000D03*
X106465000Y-570000D03*
X107735000Y-570000D03*
D59*
X97015000Y-1850000D03*
X97015000Y-750000D03*
X95185000Y-750000D03*
X95185000Y-1850000D03*
D148*
X106889974Y-18608208D03*
X107483134Y-17176194D03*
D149*
X85397939Y6703934D03*
X86175756Y7481751D03*
X84881751Y8775756D03*
X84103934Y7997939D03*
X104843375Y-5850630D03*
X105621192Y-5072813D03*
X104327187Y-3778808D03*
X103549370Y-4556625D03*
D150*
X100271930Y-20441778D03*
X103241778Y-17471930D03*
D151*
X89205906Y4826396D03*
X87863566Y5601396D03*
D152*
X103241778Y-9128070D03*
X100271930Y-6158222D03*
D59*
X97015000Y2650000D03*
X97015000Y3750000D03*
X95185000Y3750000D03*
X95185000Y2650000D03*
D153*
X88650630Y-4556625D03*
X87872813Y-3778808D03*
X86578808Y-5072813D03*
X87356625Y-5850630D03*
D154*
X98200000Y-21300000D03*
X94000000Y-21300000D03*
D153*
X108096066Y7997939D03*
X107318249Y8775756D03*
X106024244Y7481751D03*
X106802061Y6703934D03*
D155*
X104667847Y5792738D03*
X103325507Y5017738D03*
D50*
X103100000Y1700000D03*
D156*
X84716866Y-17176194D03*
X85310026Y-18608208D03*
D157*
X92223806Y-1916866D03*
X90791792Y-2510026D03*
D158*
X101600000Y-80350000D03*
X101600000Y-83650000D03*
D82*
X93100000Y-87175000D03*
X93100000Y-88825000D03*
D72*
X90100000Y-89775000D03*
X90100000Y-88225000D03*
D159*
X106150000Y-80937500D03*
X108050000Y-80937500D03*
X107100000Y-79062500D03*
D16*
X105962500Y-74025000D03*
X105962500Y-74675000D03*
X105962500Y-75325000D03*
X105962500Y-75975000D03*
X108237500Y-75975000D03*
X108237500Y-75325000D03*
X108237500Y-74675000D03*
X108237500Y-74025000D03*
D75*
X101100000Y-88950000D03*
X101100000Y-87050000D03*
D23*
X88050000Y-62000000D03*
X86150000Y-62000000D03*
D29*
X93210000Y-92720000D03*
X98990000Y-92720000D03*
D30*
X92750000Y-91655000D03*
X93550000Y-91655000D03*
X94850000Y-91655000D03*
X95850000Y-91655000D03*
X96350000Y-91655000D03*
X97350000Y-91655000D03*
X98650000Y-91655000D03*
X99450000Y-91655000D03*
X99150000Y-91655000D03*
X98350000Y-91655000D03*
X97850000Y-91655000D03*
X96850000Y-91655000D03*
X95350000Y-91655000D03*
X94350000Y-91655000D03*
X93850000Y-91655000D03*
X93050000Y-91655000D03*
D31*
X91780000Y-92220000D03*
D32*
X91780000Y-96400000D03*
D31*
X100420000Y-92220000D03*
D32*
X100420000Y-96400000D03*
D159*
X95150000Y-88937500D03*
X97050000Y-88937500D03*
X96100000Y-87062500D03*
D64*
X106100000Y-82725000D03*
X106100000Y-84275000D03*
D40*
X86100000Y-38000000D03*
D15*
X106037500Y-65950000D03*
X106037500Y-64050000D03*
X104162500Y-65000000D03*
D64*
X108100000Y-82725000D03*
X108100000Y-84275000D03*
D19*
X88162500Y-72050000D03*
X88162500Y-73950000D03*
X90037500Y-73000000D03*
D82*
X108100000Y-64175000D03*
X108100000Y-65825000D03*
D47*
X89100000Y-84000000D03*
D159*
X90150000Y-30937500D03*
X92050000Y-30937500D03*
X91100000Y-29062500D03*
D21*
X105875000Y-92000000D03*
X104325000Y-92000000D03*
D47*
X89100000Y-80000000D03*
D19*
X106162500Y-58050000D03*
X106162500Y-59950000D03*
X108037500Y-59000000D03*
D25*
X87150000Y-92000000D03*
X89050000Y-92000000D03*
D19*
X106162500Y-68050000D03*
X106162500Y-69950000D03*
X108037500Y-69000000D03*
D160*
X98412297Y-32146486D03*
X100030593Y-32468386D03*
D35*
X108100000Y-62000000D03*
D36*
X106100000Y-62000000D03*
D161*
X88375000Y-89750000D03*
X88375000Y-89250000D03*
X88375000Y-88750000D03*
X88375000Y-88250000D03*
D162*
X87850000Y-87725000D03*
X87350000Y-87725000D03*
X86850000Y-87725000D03*
X86350000Y-87725000D03*
D161*
X85825000Y-88250000D03*
X85825000Y-88750000D03*
X85825000Y-89250000D03*
X85825000Y-89750000D03*
D162*
X86350000Y-90275000D03*
X86850000Y-90275000D03*
X87350000Y-90275000D03*
X87850000Y-90275000D03*
D163*
X96100000Y-30400000D03*
X96100000Y-28600000D03*
D164*
X97900000Y-30220000D03*
X94300000Y-30220000D03*
X97900000Y-28780000D03*
X94300000Y-28780000D03*
D83*
X90100000Y-69825000D03*
X90100000Y-68175000D03*
X95100000Y-84825000D03*
X95100000Y-83175000D03*
D165*
X103837500Y-88250000D03*
X103837500Y-88750000D03*
X103837500Y-89250000D03*
X103837500Y-89750000D03*
D166*
X104600000Y-90012500D03*
X105100000Y-90012500D03*
X105600000Y-90012500D03*
D165*
X106362500Y-89750000D03*
X106362500Y-89250000D03*
X106362500Y-88750000D03*
X106362500Y-88250000D03*
D166*
X105600000Y-87987500D03*
X105100000Y-87987500D03*
X104600000Y-87987500D03*
D94*
X87100000Y-60000000D03*
D83*
X104100000Y-69825000D03*
X104100000Y-68175000D03*
D23*
X92050000Y-62000000D03*
X90150000Y-62000000D03*
D25*
X100150000Y-72000000D03*
X102050000Y-72000000D03*
D18*
X90237500Y-65950000D03*
X90237500Y-65000000D03*
X90237500Y-64050000D03*
X87962500Y-64050000D03*
X87962500Y-65950000D03*
D83*
X91100000Y-84825000D03*
X91100000Y-83175000D03*
D17*
X102325000Y-94000000D03*
X103875000Y-94000000D03*
D83*
X97100000Y-84825000D03*
X97100000Y-83175000D03*
D126*
X102100000Y-66050000D03*
X102100000Y-63950000D03*
D167*
X107562500Y-72000000D03*
X104637500Y-72000000D03*
D40*
X106100000Y-38000000D03*
D168*
X97850000Y-69850000D03*
X97350000Y-69850000D03*
X96850000Y-69850000D03*
X96350000Y-69850000D03*
X95850000Y-69850000D03*
X95350000Y-69850000D03*
X94850000Y-69850000D03*
X94350000Y-69850000D03*
D169*
X99750000Y-66600000D03*
X92450000Y-66600000D03*
D49*
X104100000Y-82000000D03*
D64*
X100100000Y-29225000D03*
X100100000Y-30775000D03*
D83*
X93100000Y-84825000D03*
X93100000Y-83175000D03*
D82*
X99100000Y-87175000D03*
X99100000Y-88825000D03*
D72*
X104100000Y-75775000D03*
X104100000Y-74225000D03*
D19*
X86162500Y-68050000D03*
X86162500Y-69950000D03*
X88037500Y-69000000D03*
D127*
X96887500Y-32000000D03*
X95312500Y-32000000D03*
D40*
X85100000Y-86000000D03*
D170*
X102100000Y-67950000D03*
X102100000Y-70050000D03*
D168*
X97850000Y-79850000D03*
X97350000Y-79850000D03*
X96850000Y-79850000D03*
X96350000Y-79850000D03*
X95850000Y-79850000D03*
X95350000Y-79850000D03*
X94850000Y-79850000D03*
X94350000Y-79850000D03*
D169*
X99750000Y-76600000D03*
X92450000Y-76600000D03*
D47*
X102100000Y-31000000D03*
D60*
X89640000Y-60000000D03*
X84560000Y-61016000D03*
X84560000Y-58984000D03*
M02*
