M48
; DRILL file {KiCad 8.0.5} date 2025-07-01T00:21:59-0700
; FORMAT={-:-/ absolute / inch / decimal}
; #@! TF.CreationDate,2025-07-01T00:21:59-07:00
; #@! TF.GenerationSoftware,Kicad,Pcbnew,8.0.5
; #@! TF.FileFunction,Plated,1,2,PTH
FMAT,2
INCH
; #@! TA.AperFunction,Plated,PTH,ViaDrill
T1C0.0118
; #@! TA.AperFunction,Plated,PTH,ViaDrill
T2C0.0197
; #@! TA.AperFunction,Plated,PTH,ComponentDrill
T3C0.0236
; #@! TA.AperFunction,Plated,PTH,ComponentDrill
T4C0.0295
; #@! TA.AperFunction,Plated,PTH,ViaDrill
T5C0.0315
; #@! TA.AperFunction,Plated,PTH,ComponentDrill
T6C0.0374
; #@! TA.AperFunction,Plated,PTH,ComponentDrill
T7C0.0394
; #@! TA.AperFunction,Plated,PTH,ComponentDrill
T8C0.0512
%
G90
G05
T1
X1.0839Y-5.1169
X1.1417Y-2.8346
X1.1417Y-3.0709
X1.2205Y-2.7953
X1.2205Y-3.0315
X1.3386Y-2.7953
X1.3386Y-2.874
X1.3386Y-3.0315
X1.378Y-4.5866
X1.437Y-5.1181
X1.4961Y-2.8346
X1.4961Y-3.0315
X1.5551Y-4.5669
X1.6535Y-2.7953
X1.6535Y-3.3858
X1.7126Y-4.6457
X1.7126Y-5.0787
X1.7323Y-4.9213
X1.7717Y-2.7953
X1.7717Y-2.9134
X1.7717Y-4.9213
X1.7913Y-2.5591
X1.7913Y-2.6378
X1.8307Y-2.5591
X1.8307Y-2.6378
X1.8307Y-5.0984
X1.8504Y-3.1496
X1.8701Y-4.1339
X1.8701Y-4.2126
X1.9094Y-4.1339
X1.9094Y-4.2126
X1.9291Y-5.0984
X1.9685Y-2.7953
X1.9685Y-2.9134
X1.9685Y-2.9528
X1.9685Y-3.0315
X1.9882Y-2.5394
X1.9882Y-4.5276
X1.9882Y-4.8031
X1.9882Y-4.8819
X2.0079Y-2.5984
X2.0079Y-2.6378
X2.1063Y-5.0591
X2.126Y-4.2126
X2.126Y-4.252
X2.1457Y-4.8031
X2.1654Y-2.8543
X2.1654Y-2.9134
X2.1654Y-3.189
X2.1654Y-3.2677
X2.1654Y-3.3465
X2.2441Y-3.3858
X2.3031Y-4.8031
X2.4016Y-4.5276
X2.5591Y-3.0315
X2.5591Y-3.7402
X2.6378Y-3.7795
X2.6378Y-3.8583
X2.6378Y-4.1732
X2.7756Y-2.4606
X2.7756Y-2.6181
X2.7953Y-2.9528
X2.9528Y-3.8583
X2.9921Y-2.4409
X2.9921Y-2.9921
X2.9921Y-3.189
X3.1496Y-2.4409
X3.1496Y-2.5591
X3.1496Y-2.6378
X3.1496Y-3.0906
X3.1496Y-3.2087
X3.1693Y-4.8031
X3.2283Y-4.9016
X3.2283Y-4.9409
X3.2874Y-3.248
X3.3071Y-2.4409
X3.3268Y-3.248
X3.3268Y-5.0394
X3.3268Y-5.1969
X3.3465Y-4.8425
X3.3661Y-5.0394
X3.3661Y-5.1969
X3.3858Y-4.8031
X3.3858Y-4.8425
X3.4055Y-5.0394
X3.4055Y-5.1969
X3.4449Y-5.1969
X3.4843Y-2.6378
X3.4843Y-3.2087
X3.5236Y-5.0394
X3.5433Y-3.2087
X3.5433Y-4.7835
X3.5433Y-4.8228
X3.563Y-5.0
X3.563Y-5.0394
X3.5827Y-2.9134
X3.5827Y-3.0118
X3.5827Y-4.7835
X3.5827Y-4.8228
X3.6024Y-4.9016
X3.6024Y-4.937
X3.6024Y-5.0
X3.6024Y-5.0394
X3.6811Y-2.9134
X3.6811Y-3.0118
X3.7008Y-5.0
X3.7205Y-4.6063
X3.7205Y-4.8031
X3.7598Y-4.8425
X3.7598Y-4.8819
X3.7598Y-4.9213
X3.7795Y-2.4409
X3.7795Y-4.6063
X3.7992Y-4.9213
X3.8386Y-2.6181
X3.937Y-4.9606
X4.1929Y-4.7638
X4.2323Y-4.6457
X4.2323Y-5.1181
X4.252Y-5.1969
X4.2913Y-5.2953
X4.311Y-4.7244
X4.4291Y-4.6457
X4.4291Y-4.7835
X4.4291Y-5.1378
X4.4291Y-5.374
X4.4488Y-2.5394
X4.4488Y-4.2913
X4.4685Y-2.4213
X4.4882Y-2.7953
X4.5276Y-2.4213
X4.5276Y-4.1339
X4.545Y-2.9603
X4.5472Y-2.0472
X4.5472Y-2.7953
X4.5472Y-4.5276
X4.5669Y-2.126
X4.5669Y-2.4213
X4.5669Y-5.2362
X4.5669Y-5.2756
X4.5768Y-4.9213
X4.5866Y-4.6457
X4.5866Y-4.8425
X4.5866Y-5.0
X4.5868Y-2.9186
X4.6063Y-2.4213
X4.6146Y-2.8907
X4.6146Y-3.0578
X4.626Y-1.9882
X4.626Y-2.2835
X4.626Y-5.0984
X4.626Y-5.1378
X4.6425Y-2.8629
X4.6457Y-2.5984
X4.6457Y-4.1142
X4.6457Y-4.2323
X4.6618Y-2.4803
X4.6654Y-2.2244
X4.6654Y-5.1772
X4.685Y-2.0866
X4.7047Y-1.9291
X4.7244Y-4.7441
X4.7638Y-2.0866
X4.7835Y-1.8701
X4.7835Y-2.0079
X4.7933Y-2.1161
X4.8031Y-2.9528
X4.8031Y-5.0197
X4.8228Y-2.2835
X4.8228Y-4.5079
X4.8228Y-5.3346
X4.8234Y-3.2109
X4.8622Y-2.2638
X4.8622Y-5.3346
X4.8652Y-3.1691
X4.8819Y-1.8307
X4.8819Y-1.9291
X4.8819Y-4.1339
X4.9016Y-2.0472
X4.9016Y-2.126
X4.9016Y-2.2441
X4.9016Y-4.9213
X4.9016Y-5.0197
X4.9114Y-1.9685
X4.9409Y-1.8307
X4.9409Y-2.2244
X4.9803Y-3.1496
X4.9803Y-3.189
X4.9803Y-3.2283
X4.9803Y-3.2874
X5.0Y-4.9803
X5.0197Y-2.0472
X5.0197Y-2.0866
X5.0197Y-2.126
X5.0394Y-3.622
X5.0591Y-4.685
X5.0689Y-1.7569
X5.0689Y-1.8701
X5.0984Y-3.3071
X5.0984Y-5.0394
X5.1083Y-1.9587
X5.1083Y-2.0571
X5.128Y-2.1457
X5.1575Y-3.1102
X5.1709Y-1.8701
X5.1772Y-3.6614
X5.1772Y-4.2323
X5.187Y-2.1457
X5.2067Y-1.9587
X5.2067Y-2.0571
X5.2362Y-4.2323
X5.2461Y-1.7569
X5.2953Y-2.0866
X5.2953Y-2.1492
X5.2953Y-3.937
X5.2953Y-4.0157
X5.315Y-1.7913
X5.3384Y-2.1948
X5.3543Y-2.126
X5.3543Y-3.2087
X5.3543Y-3.2677
X5.3663Y-2.2226
X5.374Y-2.0079
X5.374Y-3.937
X5.374Y-4.0157
X5.3955Y-1.8931
X5.4146Y-1.8469
X5.4219Y-3.1134
X5.4498Y-2.1391
X5.4498Y-3.1413
X5.4776Y-3.1691
X5.4879Y-1.9314
X5.4915Y-2.0695
X5.4921Y-3.6614
X5.5118Y-2.9528
X5.5194Y-3.2109
X5.5333Y-2.2226
X5.5333Y-2.3896
X5.5611Y-2.2504
X5.5611Y-2.4175
X5.5906Y-2.7165
X5.5906Y-2.7559
X5.6168Y-3.1413
X5.6299Y-2.7165
X5.6299Y-2.7559
X5.6307Y-2.153
X5.6398Y-2.8445
X5.7282Y-2.8907
X5.7699Y-2.9325
X5.8858Y-2.6772
X5.8858Y-2.5
X5.8858Y-2.5394
X5.8858Y-2.6181
T2
X1.0433Y-5.1181
X1.1417Y-4.4488
X1.2402Y-4.7638
X1.2402Y-4.8425
X1.3189Y-4.7638
X1.3189Y-4.8425
X1.4961Y-5.1181
X1.5945Y-4.9213
X1.5945Y-5.2362
X1.6732Y-4.9213
X1.7913Y-5.2362
X1.9685Y-2.4803
X2.3228Y-2.7953
X2.4213Y-4.8819
X3.0709Y-2.7953
X3.0709Y-2.874
X3.1496Y-2.7953
X3.1496Y-2.874
X3.2677Y-2.7362
X3.4252Y-2.6378
X3.5236Y-2.9528
X3.5433Y-2.6378
X3.6417Y-2.8346
X3.6417Y-3.0709
X3.7598Y-2.9528
X3.7795Y-3.2087
X3.8386Y-2.6772
X3.9173Y-4.685
X4.3701Y-3.6811
X4.4685Y-4.2126
X4.5669Y-3.7795
X4.7244Y-3.6614
X4.7835Y-4.6457
X4.8819Y-3.6614
X4.9213Y-3.9567
X4.9213Y-4.0945
X4.9803Y-4.4488
X5.0Y-3.9567
X5.0Y-4.0945
X5.0Y-5.0394
X5.0Y-5.1969
X5.0394Y-4.1929
X5.1181Y-3.6614
X5.1181Y-4.6457
X5.2165Y-3.9764
X5.2362Y-3.6614
X5.3346Y-3.8583
X5.3346Y-4.0945
X5.4528Y-3.9764
X5.4724Y-4.2323
X5.5512Y-3.6614
X5.6447Y-2.2504
X5.7283Y-2.4409
X5.748Y-2.2638
X5.8268Y-2.4409
X5.8486Y-2.3122
X5.9063Y-2.2457
X5.9364Y-2.3184
T4
X2.7165Y-2.7165
X2.7165Y-2.7953
X2.7165Y-3.0315
X2.7165Y-3.1102
X3.248Y-4.5276
X3.248Y-4.6063
X3.5433Y-3.6614
X3.5433Y-3.7402
X3.8189Y-3.6614
X3.8189Y-3.7402
T5
X1.3386Y-4.1339
X1.4168Y-2.5787
X1.4173Y-4.1339
X1.4567Y-2.4409
X1.5945Y-3.3858
X1.7717Y-2.7165
X1.8307Y-3.3858
X1.8504Y-2.7165
X1.8898Y-3.3071
X1.9291Y-4.2913
X2.0079Y-4.0157
X2.0472Y-3.3071
X2.0472Y-4.0551
X2.0472Y-4.2913
X2.0866Y-3.3858
X2.2638Y-4.8819
X2.3425Y-5.2165
X2.3622Y-3.8583
X2.3622Y-4.0157
X2.4213Y-5.2165
X2.4803Y-3.3858
X2.5197Y-3.8583
X2.5197Y-4.0157
X2.7165Y-3.6614
X2.7362Y-3.9764
X2.7559Y-3.7402
X2.8543Y-2.6378
X2.874Y-4.0551
X2.9134Y-3.7402
X2.9528Y-4.0551
X3.189Y-3.6614
T6
X1.2411Y-3.6909
X1.2411Y-3.7894
X1.2411Y-3.8878
X1.2411Y-3.9862
X1.2411Y-4.0846
X1.2411Y-4.1831
T7
X3.3957Y-4.7008
X3.3976Y-4.5276
X3.4252Y-5.2618
X3.5236Y-5.2618
X3.622Y-5.2618
X3.6496Y-4.5276
X3.6496Y-4.7008
X3.8642Y-4.8228
X3.8642Y-4.9213
X3.8642Y-5.0197
T8
X3.2736Y-4.7244
X3.2736Y-5.1181
X3.7736Y-4.7244
X3.7736Y-5.1181
T3
G00X2.8268Y-4.7512
M15
G01X2.8504Y-4.7512
M16
G05
G00X2.8268Y-5.0913
M15
G01X2.8504Y-5.0913
M16
G05
G00X2.9815Y-4.7512
M15
G01X3.0248Y-4.7512
M16
G05
G00X2.9815Y-5.0913
M15
G01X3.0248Y-5.0913
M16
G05
M30
