G04 #@! TF.GenerationSoftware,KiCad,Pcbnew,8.0.5*
G04 #@! TF.CreationDate,2025-07-01T00:21:57-07:00*
G04 #@! TF.ProjectId,IotRollerBlinds,496f7452-6f6c-46c6-9572-426c696e6473,rev?*
G04 #@! TF.SameCoordinates,Original*
G04 #@! TF.FileFunction,Soldermask,Bot*
G04 #@! TF.FilePolarity,Negative*
%FSLAX46Y46*%
G04 Gerber Fmt 4.6, Leading zero omitted, Abs format (unit mm)*
G04 Created by KiCad (PCBNEW 8.0.5) date 2025-07-01 00:21:57*
%MOMM*%
%LPD*%
G01*
G04 APERTURE LIST*
G04 Aperture macros list*
%AMRoundRect*
0 Rectangle with rounded corners*
0 $1 Rounding radius*
0 $2 $3 $4 $5 $6 $7 $8 $9 X,Y pos of 4 corners*
0 Add a 4 corners polygon primitive as box body*
4,1,4,$2,$3,$4,$5,$6,$7,$8,$9,$2,$3,0*
0 Add four circle primitives for the rounded corners*
1,1,$1+$1,$2,$3*
1,1,$1+$1,$4,$5*
1,1,$1+$1,$6,$7*
1,1,$1+$1,$8,$9*
0 Add four rect primitives between the rounded corners*
20,1,$1+$1,$2,$3,$4,$5,0*
20,1,$1+$1,$4,$5,$6,$7,0*
20,1,$1+$1,$6,$7,$8,$9,0*
20,1,$1+$1,$8,$9,$2,$3,0*%
G04 Aperture macros list end*
%ADD10C,0.650000*%
%ADD11C,2.050000*%
%ADD12C,2.500000*%
%ADD13C,0.700000*%
%ADD14C,0.380000*%
%ADD15C,1.152000*%
%ADD16C,2.374900*%
%ADD17C,0.990600*%
%ADD18RoundRect,0.250000X-0.625000X0.350000X-0.625000X-0.350000X0.625000X-0.350000X0.625000X0.350000X0*%
%ADD19O,1.750000X1.200000*%
%ADD20RoundRect,0.575000X0.575000X0.925000X-0.575000X0.925000X-0.575000X-0.925000X0.575000X-0.925000X0*%
%ADD21RoundRect,0.250000X0.625000X-0.350000X0.625000X0.350000X-0.625000X0.350000X-0.625000X-0.350000X0*%
%ADD22RoundRect,0.125000X-0.000010X0.446000X-0.000010X-0.446000X0.000010X-0.446000X0.000010X0.446000X0*%
%ADD23RoundRect,0.125000X-0.000010X1.202500X-0.000010X-1.202500X0.000010X-1.202500X0.000010X1.202500X0*%
%ADD24RoundRect,0.125000X-0.000010X1.715000X-0.000010X-1.715000X0.000010X-1.715000X0.000010X1.715000X0*%
%ADD25RoundRect,0.125000X-0.000010X1.548500X-0.000010X-1.548500X0.000010X-1.548500X0.000010X1.548500X0*%
%ADD26C,0.650000*%
%ADD27R,1.150000X0.300000*%
%ADD28O,1.600000X1.000000*%
%ADD29O,2.100000X1.000000*%
%ADD30C,1.700000*%
%ADD31C,2.200000*%
%ADD32RoundRect,0.250000X-0.725000X0.600000X-0.725000X-0.600000X0.725000X-0.600000X0.725000X0.600000X0*%
%ADD33O,1.950000X1.700000*%
G04 APERTURE END LIST*
D10*
X99325000Y-86000000D02*
G75*
G02*
X98675000Y-86000000I-325000J0D01*
G01*
X98675000Y-86000000D02*
G75*
G02*
X99325000Y-86000000I325000J0D01*
G01*
X86325000Y-62000000D02*
G75*
G02*
X85675000Y-62000000I-325000J0D01*
G01*
X85675000Y-62000000D02*
G75*
G02*
X86325000Y-62000000I325000J0D01*
G01*
X27325000Y-86000000D02*
G75*
G02*
X26675000Y-86000000I-325000J0D01*
G01*
X26675000Y-86000000D02*
G75*
G02*
X27325000Y-86000000I325000J0D01*
G01*
X64325000Y-119000000D02*
G75*
G02*
X63675000Y-119000000I-325000J0D01*
G01*
X63675000Y-119000000D02*
G75*
G02*
X64325000Y-119000000I325000J0D01*
G01*
X62825000Y-127000000D02*
G75*
G02*
X62175000Y-127000000I-325000J0D01*
G01*
X62175000Y-127000000D02*
G75*
G02*
X62825000Y-127000000I325000J0D01*
G01*
X45825000Y-115000000D02*
G75*
G02*
X45175000Y-115000000I-325000J0D01*
G01*
X45175000Y-115000000D02*
G75*
G02*
X45825000Y-115000000I325000J0D01*
G01*
X79825000Y-135000000D02*
G75*
G02*
X79175000Y-135000000I-325000J0D01*
G01*
X79175000Y-135000000D02*
G75*
G02*
X79825000Y-135000000I325000J0D01*
G01*
X129825000Y-136000000D02*
G75*
G02*
X129175000Y-136000000I-325000J0D01*
G01*
X129175000Y-136000000D02*
G75*
G02*
X129825000Y-136000000I325000J0D01*
G01*
X79825000Y-115000000D02*
G75*
G02*
X79175000Y-115000000I-325000J0D01*
G01*
X79175000Y-115000000D02*
G75*
G02*
X79825000Y-115000000I325000J0D01*
G01*
D11*
X120525000Y-115000000D02*
G75*
G02*
X118475000Y-115000000I-1025000J0D01*
G01*
X118475000Y-115000000D02*
G75*
G02*
X120525000Y-115000000I1025000J0D01*
G01*
D12*
X120750000Y-125000000D02*
G75*
G02*
X118250000Y-125000000I-1250000J0D01*
G01*
X118250000Y-125000000D02*
G75*
G02*
X120750000Y-125000000I1250000J0D01*
G01*
D13*
X104750000Y-127250000D02*
G75*
G02*
X104250000Y-127250000I-250000J0D01*
G01*
X104250000Y-127250000D02*
G75*
G02*
X104750000Y-127250000I250000J0D01*
G01*
X104750000Y-125750000D02*
G75*
G02*
X104250000Y-125750000I-250000J0D01*
G01*
X104250000Y-125750000D02*
G75*
G02*
X104750000Y-125750000I250000J0D01*
G01*
X104750000Y-124250000D02*
G75*
G02*
X104250000Y-124250000I-250000J0D01*
G01*
X104250000Y-124250000D02*
G75*
G02*
X104750000Y-124250000I250000J0D01*
G01*
X104750000Y-122750000D02*
G75*
G02*
X104250000Y-122750000I-250000J0D01*
G01*
X104250000Y-122750000D02*
G75*
G02*
X104750000Y-122750000I250000J0D01*
G01*
D11*
X130525000Y-125000000D02*
G75*
G02*
X128475000Y-125000000I-1025000J0D01*
G01*
X128475000Y-125000000D02*
G75*
G02*
X130525000Y-125000000I1025000J0D01*
G01*
X110525000Y-125000000D02*
G75*
G02*
X108475000Y-125000000I-1025000J0D01*
G01*
X108475000Y-125000000D02*
G75*
G02*
X110525000Y-125000000I1025000J0D01*
G01*
X120525000Y-135000000D02*
G75*
G02*
X118475000Y-135000000I-1025000J0D01*
G01*
X118475000Y-135000000D02*
G75*
G02*
X120525000Y-135000000I1025000J0D01*
G01*
D10*
X36325000Y-92000000D02*
G75*
G02*
X35675000Y-92000000I-325000J0D01*
G01*
X35675000Y-92000000D02*
G75*
G02*
X36325000Y-92000000I325000J0D01*
G01*
X36325000Y-108000000D02*
G75*
G02*
X35675000Y-108000000I-325000J0D01*
G01*
X35675000Y-108000000D02*
G75*
G02*
X36325000Y-108000000I325000J0D01*
G01*
X122325000Y-93000000D02*
G75*
G02*
X121675000Y-93000000I-325000J0D01*
G01*
X121675000Y-93000000D02*
G75*
G02*
X122325000Y-93000000I325000J0D01*
G01*
X149802591Y-73653669D02*
G75*
G02*
X149152591Y-73653669I-325000J0D01*
G01*
X149152591Y-73653669D02*
G75*
G02*
X149802591Y-73653669I325000J0D01*
G01*
X125393407Y-80320133D02*
G75*
G02*
X124743407Y-80320133I-325000J0D01*
G01*
X124743407Y-80320133D02*
G75*
G02*
X125393407Y-80320133I325000J0D01*
G01*
X118575000Y-49500000D02*
G75*
G02*
X117925000Y-49500000I-325000J0D01*
G01*
X117925000Y-49500000D02*
G75*
G02*
X118575000Y-49500000I325000J0D01*
G01*
D12*
X115250000Y-67500000D02*
G75*
G02*
X112750000Y-67500000I-1250000J0D01*
G01*
X112750000Y-67500000D02*
G75*
G02*
X115250000Y-67500000I1250000J0D01*
G01*
D14*
X106810000Y-69175000D03*
X106810000Y-68540000D03*
X106810000Y-67905000D03*
X106810000Y-67270000D03*
X106810000Y-66635000D03*
X106810000Y-66000000D03*
X106810000Y-65365000D03*
X106810000Y-64730000D03*
X106810000Y-64095000D03*
X106810000Y-63460000D03*
X106810000Y-62825000D03*
X134175000Y-90190000D03*
X133540000Y-90190000D03*
X132905000Y-90190000D03*
X132270000Y-90190000D03*
X131635000Y-90190000D03*
X131000000Y-90190000D03*
X130365000Y-90190000D03*
X129730000Y-90190000D03*
X129095000Y-90190000D03*
X128460000Y-90190000D03*
X127825000Y-90190000D03*
X33175000Y-112190000D03*
X33175000Y-109810000D03*
X32540000Y-112190000D03*
X32540000Y-109810000D03*
X31905000Y-112190000D03*
X31905000Y-109810000D03*
X31270000Y-112190000D03*
X31270000Y-109810000D03*
X30635000Y-112190000D03*
X30635000Y-109810000D03*
X30000000Y-112190000D03*
X30000000Y-109810000D03*
X29365000Y-112190000D03*
X29365000Y-109810000D03*
X28730000Y-112190000D03*
X28730000Y-109810000D03*
X28095000Y-112190000D03*
X28095000Y-109810000D03*
X27460000Y-112190000D03*
X27460000Y-109810000D03*
X26825000Y-112190000D03*
X26825000Y-109810000D03*
X33175000Y-90190000D03*
X33175000Y-87810000D03*
X32540000Y-90190000D03*
X32540000Y-87810000D03*
X31905000Y-90190000D03*
X31905000Y-87810000D03*
X31270000Y-90190000D03*
X31270000Y-87810000D03*
X30635000Y-90190000D03*
X30635000Y-87810000D03*
X30000000Y-90190000D03*
X30000000Y-87810000D03*
X29365000Y-90190000D03*
X29365000Y-87810000D03*
X28730000Y-90190000D03*
X28730000Y-87810000D03*
X28095000Y-90190000D03*
X28095000Y-87810000D03*
X27460000Y-90190000D03*
X27460000Y-87810000D03*
X26825000Y-90190000D03*
X26825000Y-87810000D03*
X96175000Y-90190000D03*
X96175000Y-87810000D03*
X95540000Y-90190000D03*
X95540000Y-87810000D03*
X94905000Y-90190000D03*
X94905000Y-87810000D03*
X94270000Y-90190000D03*
X94270000Y-87810000D03*
X93635000Y-90190000D03*
X93635000Y-87810000D03*
X93000000Y-90190000D03*
X93000000Y-87810000D03*
X92365000Y-90190000D03*
X92365000Y-87810000D03*
X91730000Y-90190000D03*
X91730000Y-87810000D03*
X91095000Y-90190000D03*
X91095000Y-87810000D03*
X90460000Y-90190000D03*
X90460000Y-87810000D03*
X89825000Y-90190000D03*
X89825000Y-87810000D03*
X66175000Y-112190000D03*
X66175000Y-109810000D03*
X65540000Y-112190000D03*
X65540000Y-109810000D03*
X64905000Y-112190000D03*
X64905000Y-109810000D03*
X64270000Y-112190000D03*
X64270000Y-109810000D03*
X63635000Y-112190000D03*
X63635000Y-109810000D03*
X63000000Y-112190000D03*
X63000000Y-109810000D03*
X62365000Y-112190000D03*
X62365000Y-109810000D03*
X61730000Y-112190000D03*
X61730000Y-109810000D03*
X61095000Y-112190000D03*
X61095000Y-109810000D03*
X60460000Y-112190000D03*
X60460000Y-109810000D03*
X59825000Y-112190000D03*
X59825000Y-109810000D03*
X109175000Y-112190000D03*
X109175000Y-109810000D03*
X108540000Y-112190000D03*
X108540000Y-109810000D03*
X107905000Y-112190000D03*
X107905000Y-109810000D03*
X107270000Y-112190000D03*
X107270000Y-109810000D03*
X106635000Y-112190000D03*
X106635000Y-109810000D03*
X106000000Y-112190000D03*
X106000000Y-109810000D03*
X105365000Y-112190000D03*
X105365000Y-109810000D03*
X104730000Y-112190000D03*
X104730000Y-109810000D03*
X104095000Y-112190000D03*
X104095000Y-109810000D03*
X103460000Y-112190000D03*
X103460000Y-109810000D03*
X102825000Y-112190000D03*
X102825000Y-109810000D03*
X86175000Y-112190000D03*
X86175000Y-109810000D03*
X85540000Y-112190000D03*
X85540000Y-109810000D03*
X84905000Y-112190000D03*
X84905000Y-109810000D03*
X84270000Y-112190000D03*
X84270000Y-109810000D03*
X83635000Y-112190000D03*
X83635000Y-109810000D03*
X83000000Y-112190000D03*
X83000000Y-109810000D03*
X82365000Y-112190000D03*
X82365000Y-109810000D03*
X81730000Y-112190000D03*
X81730000Y-109810000D03*
X81095000Y-112190000D03*
X81095000Y-109810000D03*
X80460000Y-112190000D03*
X80460000Y-109810000D03*
X79825000Y-112190000D03*
X79825000Y-109810000D03*
D15*
X99000000Y-86000000D03*
D16*
X78460000Y-77460000D03*
D17*
X78460000Y-80000000D03*
D16*
X78460000Y-82540000D03*
X81635000Y-77460000D03*
X81635000Y-82540000D03*
D17*
X83540000Y-78984000D03*
X83540000Y-81016000D03*
D15*
X86000000Y-62000000D03*
X27000000Y-86000000D03*
D18*
X69000000Y-69000000D03*
D19*
X69000000Y-71000000D03*
D18*
X69000000Y-77000000D03*
D19*
X69000000Y-79000000D03*
D15*
X64000000Y-119000000D03*
X62500000Y-127000000D03*
D17*
X41500000Y-119540000D03*
X40484000Y-114460000D03*
X42516000Y-114460000D03*
D15*
X45500000Y-115000000D03*
D20*
X30500000Y-118500000D03*
X46500000Y-118500000D03*
X50500000Y-118500000D03*
X30500000Y-127500000D03*
X50500000Y-127500000D03*
X58500000Y-127500000D03*
D15*
X79500000Y-135000000D03*
D21*
X82500000Y-117000000D03*
D19*
X82500000Y-115000000D03*
D15*
X129500000Y-136000000D03*
D16*
X114040000Y-134540000D03*
D17*
X114040000Y-132000000D03*
D16*
X114040000Y-129460000D03*
X110865000Y-134540000D03*
X110865000Y-129460000D03*
D17*
X108960000Y-133016000D03*
X108960000Y-130984000D03*
D15*
X79500000Y-115000000D03*
D22*
X117750000Y-114625000D03*
D23*
X120750000Y-114750000D03*
D24*
X119750000Y-114750000D03*
D25*
X118750000Y-114750000D03*
X120250000Y-115250000D03*
D24*
X119250000Y-115250000D03*
D23*
X118250000Y-115250000D03*
D22*
X121250000Y-115375000D03*
X127750000Y-124625000D03*
D23*
X130750000Y-124750000D03*
D24*
X129750000Y-124750000D03*
D25*
X128750000Y-124750000D03*
X130250000Y-125250000D03*
D24*
X129250000Y-125250000D03*
D23*
X128250000Y-125250000D03*
D22*
X131250000Y-125375000D03*
X107750000Y-124625000D03*
D23*
X110750000Y-124750000D03*
D24*
X109750000Y-124750000D03*
D25*
X108750000Y-124750000D03*
X110250000Y-125250000D03*
D24*
X109250000Y-125250000D03*
D23*
X108250000Y-125250000D03*
D22*
X111250000Y-125375000D03*
X117750000Y-134625000D03*
D23*
X120750000Y-134750000D03*
D24*
X119750000Y-134750000D03*
D25*
X118750000Y-134750000D03*
X120250000Y-135250000D03*
D24*
X119250000Y-135250000D03*
D23*
X118250000Y-135250000D03*
D22*
X121250000Y-135375000D03*
D26*
X75780000Y-127890000D03*
X75780000Y-122110000D03*
D27*
X76845000Y-128350000D03*
X76845000Y-127550000D03*
X76845000Y-126250000D03*
X76845000Y-125250000D03*
X76845000Y-124750000D03*
X76845000Y-123750000D03*
X76845000Y-122450000D03*
X76845000Y-121650000D03*
X76845000Y-121950000D03*
X76845000Y-122750000D03*
X76845000Y-123250000D03*
X76845000Y-124250000D03*
X76845000Y-125750000D03*
X76845000Y-126750000D03*
X76845000Y-127250000D03*
X76845000Y-128050000D03*
D28*
X72100000Y-129320000D03*
D29*
X76280000Y-129320000D03*
D28*
X72100000Y-120680000D03*
D29*
X76280000Y-120680000D03*
D30*
X92700000Y-115000000D03*
X86300000Y-115000000D03*
X92700000Y-119400000D03*
X86250000Y-119400000D03*
X98150000Y-122500000D03*
X98150000Y-125000000D03*
X98150000Y-127500000D03*
X92000000Y-133650000D03*
X89500000Y-133650000D03*
X87000000Y-133650000D03*
D31*
X95850000Y-120000000D03*
X83150000Y-120000000D03*
X95850000Y-130000000D03*
X83150000Y-130000000D03*
D32*
X31525000Y-93750000D03*
D33*
X31525000Y-96250000D03*
X31525000Y-98750000D03*
X31525000Y-101250000D03*
X31525000Y-103750000D03*
X31525000Y-106250000D03*
D15*
X36000000Y-92000000D03*
D18*
X97000000Y-93000000D03*
D19*
X97000000Y-95000000D03*
D15*
X36000000Y-108000000D03*
D16*
X116460000Y-103460000D03*
D17*
X116460000Y-106000000D03*
D16*
X116460000Y-108540000D03*
X119635000Y-103460000D03*
X119635000Y-108540000D03*
D17*
X121540000Y-104984000D03*
X121540000Y-107016000D03*
D15*
X122000000Y-93000000D03*
D18*
X90000000Y-93000000D03*
D19*
X90000000Y-95000000D03*
D17*
X140808981Y-48956365D03*
X135726865Y-47950995D03*
X136504478Y-46073671D03*
D15*
X149477591Y-73653669D03*
D14*
X127825000Y-87604500D03*
X128460000Y-87604500D03*
X129095000Y-87604500D03*
X129730000Y-87604500D03*
X130365000Y-87604500D03*
X131000000Y-87604500D03*
X131635000Y-87604500D03*
X132270000Y-87604500D03*
X132905000Y-87604500D03*
X133540000Y-87604500D03*
X134175000Y-87604500D03*
X109395499Y-62825000D03*
X109395499Y-63460000D03*
X109395499Y-64095001D03*
X109395499Y-64729999D03*
X109395499Y-65365000D03*
X109395499Y-66000000D03*
X109395499Y-66635000D03*
X109395499Y-67270001D03*
X109395499Y-67904999D03*
X109395499Y-68540000D03*
X109395499Y-69175000D03*
D15*
X125068407Y-80320133D03*
X118250000Y-49500000D03*
M02*
