M48
; DRILL file {KiCad 8.0.5} date 2025-07-01T00:57:50-0700
; FORMAT={-:-/ absolute / inch / decimal}
; #@! TF.CreationDate,2025-07-01T00:57:50-07:00
; #@! TF.GenerationSoftware,Kicad,Pcbnew,8.0.5
; #@! TF.FileFunction,NonPlated,1,2,NPTH
FMAT,2
INCH
; #@! TA.AperFunction,NonPlated,NPTH,ComponentDrill
T1C0.0150
; #@! TA.AperFunction,NonPlated,NPTH,ComponentDrill
T2C0.0256
; #@! TA.AperFunction,NonPlated,NPTH,ComponentDrill
T3C0.0390
; #@! TA.AperFunction,NonPlated,NPTH,ComponentDrill
T4C0.0454
; #@! TA.AperFunction,NonPlated,NPTH,ComponentDrill
T5C0.0935
%
G90
G05
T1
X1.0561Y-3.4571
X1.0561Y-3.5508
X1.0561Y-4.3232
X1.0561Y-4.4169
X1.0811Y-3.4571
X1.0811Y-3.5508
X1.0811Y-4.3232
X1.0811Y-4.4169
X1.1061Y-3.4571
X1.1061Y-3.5508
X1.1061Y-4.3232
X1.1061Y-4.4169
X1.1311Y-3.4571
X1.1311Y-3.5508
X1.1311Y-4.3232
X1.1311Y-4.4169
X1.1561Y-3.4571
X1.1561Y-3.5508
X1.1561Y-4.3232
X1.1561Y-4.4169
X1.1811Y-3.4571
X1.1811Y-3.5508
X1.1811Y-4.3232
X1.1811Y-4.4169
X1.2061Y-3.4571
X1.2061Y-3.5508
X1.2061Y-4.3232
X1.2061Y-4.4169
X1.2311Y-3.4571
X1.2311Y-3.5508
X1.2311Y-4.3232
X1.2311Y-4.4169
X1.2561Y-3.4571
X1.2561Y-3.5508
X1.2561Y-4.3232
X1.2561Y-4.4169
X1.2811Y-3.4571
X1.2811Y-3.5508
X1.2811Y-4.3232
X1.2811Y-4.4169
X1.3061Y-3.4571
X1.3061Y-3.5508
X1.3061Y-4.3232
X1.3061Y-4.4169
X2.3553Y-4.3232
X2.3553Y-4.4169
X2.3803Y-4.3232
X2.3803Y-4.4169
X2.4053Y-4.3232
X2.4053Y-4.4169
X2.4303Y-4.3232
X2.4303Y-4.4169
X2.4553Y-4.3232
X2.4553Y-4.4169
X2.4803Y-4.3232
X2.4803Y-4.4169
X2.5053Y-4.3232
X2.5053Y-4.4169
X2.5303Y-4.3232
X2.5303Y-4.4169
X2.5553Y-4.3232
X2.5553Y-4.4169
X2.5803Y-4.3232
X2.5803Y-4.4169
X2.6053Y-4.3232
X2.6053Y-4.4169
X3.1427Y-4.3232
X3.1427Y-4.4169
X3.1677Y-4.3232
X3.1677Y-4.4169
X3.1927Y-4.3232
X3.1927Y-4.4169
X3.2177Y-4.3232
X3.2177Y-4.4169
X3.2427Y-4.3232
X3.2427Y-4.4169
X3.2677Y-4.3232
X3.2677Y-4.4169
X3.2927Y-4.3232
X3.2927Y-4.4169
X3.3177Y-4.3232
X3.3177Y-4.4169
X3.3427Y-4.3232
X3.3427Y-4.4169
X3.3677Y-4.3232
X3.3677Y-4.4169
X3.3927Y-4.3232
X3.3927Y-4.4169
X3.5364Y-3.4571
X3.5364Y-3.5508
X3.5614Y-3.4571
X3.5614Y-3.5508
X3.5864Y-3.4571
X3.5864Y-3.5508
X3.6114Y-3.4571
X3.6114Y-3.5508
X3.6364Y-3.4571
X3.6364Y-3.5508
X3.6614Y-3.4571
X3.6614Y-3.5508
X3.6864Y-3.4571
X3.6864Y-3.5508
X3.7114Y-3.4571
X3.7114Y-3.5508
X3.7364Y-3.4571
X3.7364Y-3.5508
X3.7614Y-3.4571
X3.7614Y-3.5508
X3.7864Y-3.4571
X3.7864Y-3.5508
X4.0482Y-4.3232
X4.0482Y-4.4169
X4.0732Y-4.3232
X4.0732Y-4.4169
X4.0982Y-4.3232
X4.0982Y-4.4169
X4.1232Y-4.3232
X4.1232Y-4.4169
X4.1482Y-4.3232
X4.1482Y-4.4169
X4.1732Y-4.3232
X4.1732Y-4.4169
X4.1982Y-4.3232
X4.1982Y-4.4169
X4.2051Y-2.4734
X4.2051Y-2.4984
X4.2051Y-2.5234
X4.2051Y-2.5484
X4.2051Y-2.5734
X4.2051Y-2.5984
X4.2051Y-2.6234
X4.2051Y-2.6484
X4.2051Y-2.6734
X4.2051Y-2.6984
X4.2051Y-2.7234
X4.2232Y-4.3232
X4.2232Y-4.4169
X4.2482Y-4.3232
X4.2482Y-4.4169
X4.2732Y-4.3232
X4.2732Y-4.4169
X4.2982Y-4.3232
X4.2982Y-4.4169
X4.3069Y-2.4734
X4.3069Y-2.4984
X4.3069Y-2.5234
X4.3069Y-2.5484
X4.3069Y-2.5734
X4.3069Y-2.5984
X4.3069Y-2.6234
X4.3069Y-2.6484
X4.3069Y-2.6734
X4.3069Y-2.6984
X4.3069Y-2.7234
X5.0325Y-3.449
X5.0325Y-3.5508
X5.0575Y-3.449
X5.0575Y-3.5508
X5.0825Y-3.449
X5.0825Y-3.5508
X5.1075Y-3.449
X5.1075Y-3.5508
X5.1325Y-3.449
X5.1325Y-3.5508
X5.1575Y-3.449
X5.1575Y-3.5508
X5.1825Y-3.449
X5.1825Y-3.5508
X5.2075Y-3.449
X5.2075Y-3.5508
X5.2325Y-3.449
X5.2325Y-3.5508
X5.2575Y-3.449
X5.2575Y-3.5508
X5.2825Y-3.449
X5.2825Y-3.5508
T2
X2.9835Y-4.8075
X2.9835Y-5.035
T3
X1.5939Y-4.5063
X1.6339Y-4.7063
X1.6739Y-4.5063
X3.089Y-3.1496
X3.289Y-3.1096
X3.289Y-3.1896
X4.2898Y-5.1569
X4.2898Y-5.2369
X4.4898Y-5.1969
X4.585Y-4.1732
X4.785Y-4.1332
X4.785Y-4.2132
X5.3436Y-1.8878
X5.3742Y-1.8139
X5.5437Y-1.9274
T4
X1.063Y-3.3858
X1.4173Y-3.622
X1.4173Y-4.252
X1.7913Y-4.5276
X2.4606Y-5.0
X2.5197Y-4.685
X3.1299Y-4.5276
X3.1299Y-5.315
X3.3858Y-2.4409
X3.8976Y-3.3858
X4.6555Y-1.9488
X4.8031Y-3.6614
X4.924Y-3.1622
X5.0984Y-5.3543
X5.8849Y-2.8998
T5
X3.089Y-3.0496
X3.089Y-3.2496
X3.214Y-3.0496
X3.214Y-3.2496
X4.3648Y-5.0969
X4.3648Y-5.2969
X4.4898Y-5.0969
X4.4898Y-5.2969
X4.585Y-4.0732
X4.585Y-4.2732
X4.71Y-4.0732
X4.71Y-4.2732
M30
