M48
; DRILL file {KiCad 7.0.2} date Wed Jan  3 16:57:30 2024
; FORMAT={-:-/ absolute / inch / decimal}
; #@! TF.CreationDate,2024-01-03T16:57:30-08:00
; #@! TF.GenerationSoftware,Kicad,Pcbnew,7.0.2
; #@! TF.FileFunction,Plated,1,4,PTH
FMAT,2
INCH
; #@! TA.AperFunction,Plated,PTH,ViaDrill
T1C0.0118
; #@! TA.AperFunction,Plated,PTH,ComponentDrill
T2C0.0118
; #@! TA.AperFunction,Plated,PTH,ViaDrill
T3C0.0197
; #@! TA.AperFunction,Plated,PTH,ComponentDrill
T4C0.0236
; #@! TA.AperFunction,Plated,PTH,ViaDrill
T5C0.0315
; #@! TA.AperFunction,Plated,PTH,ComponentDrill
T6C0.0630
%
G90
G05
T1
X-2.5197Y0.748
X-2.5197Y0.5906
X-2.3819Y1.063
X-2.3622Y0.7874
X-2.3622Y0.7087
X-2.3622Y0.6299
X-2.3622Y0.5512
X-2.3622Y-0.4331
X-2.2072Y0.2559
X-2.2072Y0.2165
X-2.1457Y0.9449
X-2.0866Y0.4134
X-2.0669Y0.1575
X-2.0669Y0.0787
X-2.0472Y0.7874
X-2.0472Y0.7087
X-2.0472Y0.6299
X-2.0472Y0.5512
X-1.9882Y0.374
X-1.9882Y0.3346
X-1.9882Y0.2953
X-1.9685Y-0.315
X-1.9685Y-0.3543
X-1.9291Y0.2362
X-1.8898Y0.3543
X-1.8898Y-0.3543
X-1.8504Y-0.1575
X-1.811Y-0.315
X-1.7717Y-0.1575
X-1.7323Y0.9055
X-1.7323Y0.6693
X-1.7323Y-0.1575
X-1.7323Y-0.315
X-1.6929Y0.748
X-1.6535Y1.0236
X-1.6535Y0.9843
X-1.6142Y0.5906
X-1.2205Y-0.1575
X-1.2205Y-0.1969
X-1.2205Y-0.315
X-1.2205Y-0.3937
X-1.1811Y1.063
X-1.1811Y0.5906
X-1.1024Y0.8268
X-0.9449Y0.8268
X-0.8661Y1.063
X-0.8661Y0.5906
X-0.8268Y-0.2362
X-0.7087Y0.3937
X-0.7087Y0.0787
X-0.689Y-0.1575
X-0.6693Y1.2205
X-0.6693Y-0.0591
X-0.6299Y-0.315
X-0.5906Y-0.0591
X-0.5709Y-0.1575
X-0.5118Y-0.315
X-0.4331Y0.9055
X-0.4331Y0.3937
X-0.3937Y1.1417
X-0.3937Y1.063
X-0.3937Y0.8268
X-0.3937Y0.7087
X-0.2756Y0.315
X-0.2756Y-0.1181
X-0.2756Y-0.1772
X-0.2756Y-0.2362
X-0.2524Y0.2756
X-0.2362Y-0.1181
X-0.2292Y0.2362
X-0.1969Y0.1969
X-0.1575Y1.1811
X-0.1575Y0.9449
X-0.1575Y0.7087
X-0.1575Y-0.0787
X-0.1181Y-0.1969
X-0.0787Y0.9449
X-0.0787Y0.7087
X-0.0787Y-0.1575
X-0.0394Y-0.1181
X-0.0197Y1.1417
X0.0787Y0.7087
X0.1575Y1.1417
X0.1575Y0.2933
X0.1575Y0.2579
X0.1969Y1.0236
X0.2165Y0.9252
X0.2362Y0.8268
X0.2362Y0.748
X0.2559Y0.9252
X0.2756Y0.1969
X0.2756Y0.0787
X0.2756Y0.0394
X0.2756Y-0.315
X0.315Y0.9449
X0.315Y0.8661
X0.315Y0.6299
X0.3937Y1.1811
X0.3937Y0.9843
X0.4528Y0.0787
X0.4724Y0.9449
X0.4921Y0.1181
X0.5118Y0.9055
X0.5118Y0.8268
X0.5118Y0.7087
X0.5118Y0.3543
X0.5315Y1.1417
X0.5906Y0.9449
X0.5906Y0.7087
X0.5906Y0.3543
X0.5906Y-0.1575
X0.6102Y0.1969
X0.6299Y0.2362
X0.6496Y0.2756
X0.6693Y0.9449
X0.6693Y0.7087
X0.7101Y0.4724
X0.7874Y0.9843
X0.7874Y0.9055
X0.7874Y0.3543
X0.8268Y0.4724
X0.8465Y0.2362
X0.8465Y0.1969
X0.9449Y1.1417
X0.9843Y0.7443
X0.9843Y0.6299
X1.0236Y1.1811
X1.0236Y0.7874
X1.0236Y0.4724
X1.1004Y1.1811
X1.1024Y0.7874
X1.1417Y0.8268
X1.2205Y0.4724
X1.3189Y0.7677
X1.3189Y-0.374
X1.3386Y1.1417
X1.378Y0.3543
X1.4567Y0.3543
X1.4961Y1.063
X1.4961Y0.9843
X1.4961Y0.9055
X1.4961Y0.748
X1.4961Y0.6693
X1.4961Y0.5906
X1.4961Y0.3937
X1.5354Y-0.3346
X1.5945Y0.315
X1.5945Y0.2756
X1.6142Y0.4331
X2.126Y0.7283
X2.1654Y0.4724
X2.1654Y0.1575
X2.2047Y0.7283
X2.2441Y0.6693
X2.2638Y-0.2362
X2.4016Y0.0
X2.4016Y-0.0787
X2.4016Y-0.1181
X2.5591Y-0.1575
T2
X0.0039Y0.0457
X0.0039Y-0.0094
X0.0315Y0.0732
X0.0315Y0.0181
X0.0315Y-0.037
X0.0591Y0.0457
X0.0591Y-0.0094
X0.0866Y0.0732
X0.0866Y0.0181
X0.0866Y-0.037
X0.1142Y0.0457
X0.1142Y-0.0094
T3
X-2.2072Y0.3937
X-2.2072Y0.3346
X-2.2072Y0.1378
X-2.2072Y0.0787
T5
X-2.5197Y0.9055
X-2.3622Y0.9055
X-2.2835Y1.0236
X-2.0866Y1.2205
X-2.0079Y1.2205
X-1.8504Y1.1024
X-1.8504Y0.5512
X-1.6929Y1.1417
X-1.6929Y0.5512
X-1.6929Y0.3543
X-1.6929Y-0.1181
X-1.4961Y0.9449
X-1.4961Y0.7874
X-1.4567Y0.3543
X-1.4567Y-0.1181
X-1.3583Y1.0236
X-1.3583Y0.8858
X-1.3583Y0.8268
X-1.2008Y0.7874
X-1.2008Y0.7087
X-0.8465Y0.9449
X-0.8465Y0.8661
X-0.7677Y0.5906
X-0.689Y0.7874
X-0.689Y0.7283
X-0.689Y0.5906
X-0.6693Y0.315
X-0.6693Y0.1575
X-0.5709Y1.063
X-0.5709Y0.8661
X-0.5709Y0.6693
X0.3543Y0.748
X0.4327Y-0.2358
X0.5906Y-0.2362
X0.8268Y-0.2362
X1.5748Y1.063
X1.5748Y0.9843
X1.5748Y0.9055
X1.5748Y0.748
X1.5748Y0.6693
X1.5748Y0.5906
T6
X2.3591Y0.415
X2.3591Y0.215
X2.3622Y1.0449
X2.3622Y0.8449
X2.5591Y0.415
X2.5591Y0.215
X2.5622Y1.0449
X2.5622Y0.8449
T4
G00X-2.4405Y0.4063
M15
G01X-2.4642Y0.4063
M16
G05
G00X-2.4405Y0.0661
M15
G01X-2.4642Y0.0661
M16
G05
G00X-2.2661Y0.4063
M15
G01X-2.3094Y0.4063
M16
G05
G00X-2.2661Y0.0661
M15
G01X-2.3094Y0.0661
M16
G05
T0
M30
