G04 #@! TF.GenerationSoftware,KiCad,Pcbnew,7.0.2*
G04 #@! TF.CreationDate,2024-01-03T16:57:31-08:00*
G04 #@! TF.ProjectId,UsbSourceMeasure,55736253-6f75-4726-9365-4d6561737572,rev?*
G04 #@! TF.SameCoordinates,PX8f0d180PY7270e00*
G04 #@! TF.FileFunction,Soldermask,Top*
G04 #@! TF.FilePolarity,Negative*
%FSLAX46Y46*%
G04 Gerber Fmt 4.6, Leading zero omitted, Abs format (unit mm)*
G04 Created by KiCad (PCBNEW 7.0.2) date 2024-01-03 16:57:31*
%MOMM*%
%LPD*%
G01*
G04 APERTURE LIST*
G04 Aperture macros list*
%AMRoundRect*
0 Rectangle with rounded corners*
0 $1 Rounding radius*
0 $2 $3 $4 $5 $6 $7 $8 $9 X,Y pos of 4 corners*
0 Add a 4 corners polygon primitive as box body*
4,1,4,$2,$3,$4,$5,$6,$7,$8,$9,$2,$3,0*
0 Add four circle primitives for the rounded corners*
1,1,$1+$1,$2,$3*
1,1,$1+$1,$4,$5*
1,1,$1+$1,$6,$7*
1,1,$1+$1,$8,$9*
0 Add four rect primitives between the rounded corners*
20,1,$1+$1,$2,$3,$4,$5,0*
20,1,$1+$1,$4,$5,$6,$7,0*
20,1,$1+$1,$6,$7,$8,$9,0*
20,1,$1+$1,$8,$9,$2,$3,0*%
%AMRotRect*
0 Rectangle, with rotation*
0 The origin of the aperture is its center*
0 $1 length*
0 $2 width*
0 $3 Rotation angle, in degrees counterclockwise*
0 Add horizontal line*
21,1,$1,$2,0,0,$3*%
%AMFreePoly0*
4,1,596,0.029440,-0.000717,0.058811,-0.002883,0.088039,-0.006486,0.117055,-0.011519,0.145788,-0.017968,0.174172,-0.025819,0.202135,-0.035052,0.229611,-0.045645,0.256536,-0.057576,0.282841,-0.070810,0.308463,-0.085317,0.333343,-0.101065,0.357421,-0.118014,0.380637,-0.136123,0.402936,-0.155349,0.424266,-0.175647,0.444572,-0.196965,0.463808,-0.219253,0.481926,-0.242458,0.498883,-0.266524,
0.514639,-0.291393,0.529154,-0.317004,0.542396,-0.343296,0.554330,-0.370206,0.564929,-0.397668,0.574167,-0.425619,0.582021,-0.453987,0.588474,-0.482707,0.593509,-0.511708,0.597114,-0.540923,0.599280,-0.570278,0.600003,-0.599704,0.598396,-0.643017,0.593668,-0.686061,0.593795,-0.685749,0.593802,-0.685754,0.607867,-0.710266,0.622961,-0.734161,0.639055,-0.757396,0.656120,-0.779927,
0.674125,-0.801715,0.693039,-0.822719,0.712825,-0.842904,0.733452,-0.862232,0.754879,-0.880669,0.777069,-0.898181,0.799983,-0.914737,0.823577,-0.930307,0.847811,-0.944863,0.872644,-0.958379,0.898021,-0.970829,0.923911,-0.982196,0.923907,-0.982203,0.896618,-0.989595,0.869040,-0.995825,0.841222,-1.000879,0.813215,-1.004751,0.785069,-1.007431,0.756835,-1.008917,0.728563,-1.009205,
0.700304,-1.008294,0.672109,-1.006187,0.644029,-1.002887,0.616114,-0.998399,0.588415,-0.992733,0.560980,-0.985898,0.533861,-0.977906,0.507105,-0.968772,0.480758,-0.958510,0.481363,-0.957024,0.462548,-0.981125,0.442502,-1.004262,0.421301,-1.026348,0.399000,-1.047323,0.375658,-1.067134,0.351335,-1.085728,0.326090,-1.103060,0.299998,-1.119080,0.299515,-1.119048,0.324998,-1.142825,
0.349704,-1.167410,0.373603,-1.192774,0.396677,-1.218896,0.418907,-1.245757,0.440275,-1.273334,0.460764,-1.301605,0.480358,-1.330547,0.499040,-1.360138,0.516797,-1.390355,0.533613,-1.421172,0.549476,-1.452564,0.564372,-1.484506,0.578289,-1.516974,0.591217,-1.549941,0.603145,-1.583380,0.614063,-1.617267,0.623963,-1.651571,0.632837,-1.686266,0.640677,-1.721324,0.647478,-1.756718,
0.653234,-1.792418,0.657941,-1.828397,0.661594,-1.864627,0.664190,-1.901076,0.665728,-1.937716,0.666207,-1.974517,0.665625,-2.011453,0.663984,-2.048489,0.661285,-2.085600,0.657529,-2.122752,0.652721,-2.159921,0.646863,-2.197071,0.639961,-2.234176,0.632019,-2.271206,0.623045,-2.308129,0.613046,-2.344919,0.602029,-2.381543,0.590003,-2.417974,0.576979,-2.454182,0.562964,-2.490139,
0.547976,-2.525812,0.532018,-2.561179,0.515112,-2.596205,0.497264,-2.630867,0.478492,-2.665135,0.458809,-2.698984,0.438233,-2.732386,0.416783,-2.765307,0.394470,-2.797729,0.371315,-2.829625,0.347337,-2.860968,0.322554,-2.891732,0.296986,-2.921894,0.270653,-2.951430,0.243579,-2.980314,0.215779,-3.008527,0.187287,-3.036039,0.158115,-3.062837,0.128289,-3.088893,0.097835,-3.114190,
0.066777,-3.138705,0.035139,-3.162419,0.003065,-3.185229,0.006784,-3.191718,0.009651,-3.199064,0.114415,-3.544087,0.139714,-3.533658,0.165294,-3.523923,0.191131,-3.514891,0.217207,-3.506569,0.243500,-3.498963,0.269991,-3.492080,0.296661,-3.485923,0.323489,-3.480499,0.350456,-3.475811,0.377541,-3.471862,0.404726,-3.468656,0.431986,-3.466194,0.459304,-3.464479,0.486659,-3.463512,
0.514030,-3.463294,0.541402,-3.463827,0.541403,-3.463831,0.494284,-3.483372,0.474774,-3.530476,0.494284,-3.577580,0.541402,-3.597121,0.541398,-3.597128,0.493785,-3.616381,0.473999,-3.663753,0.493785,-3.711125,0.541402,-3.730381,0.541397,-3.730388,0.513052,-3.730933,0.484703,-3.730675,0.456372,-3.729614,0.428085,-3.727750,0.399859,-3.725085,0.371721,-3.721621,0.343693,-3.717362,
0.315798,-3.712312,0.288056,-3.706472,0.260491,-3.699849,0.233126,-3.692447,0.205981,-3.684273,0.179076,-3.675332,0.152441,-3.665635,0.126089,-3.655185,0.100045,-3.643993,0.095258,-3.646286,0.090259,-3.648090,0.049610,-3.644109,0.023696,-3.612548,0.021217,-3.604392,0.014625,-3.600785,0.008057,-3.597121,0.012742,-3.594505,0.017425,-3.591922,-0.088345,-3.243604,-0.135148,-3.270352,
-0.182738,-3.295394,-0.231042,-3.318693,-0.279988,-3.340214,-0.329502,-3.359924,-0.379511,-3.377793,-0.429936,-3.393795,-0.480708,-3.407906,-0.480963,-3.407547,-0.480207,-3.415243,-0.446066,-3.761711,-0.421205,-3.751719,-0.396077,-3.742395,-0.370708,-3.733747,-0.345117,-3.725782,-0.319321,-3.718505,-0.293340,-3.711922,-0.267191,-3.706037,-0.240894,-3.700855,-0.214467,-3.696379,-0.187930,-3.692612,
-0.161301,-3.689558,-0.134600,-3.687218,-0.107846,-3.685594,-0.081058,-3.684688,-0.054255,-3.684499,-0.027452,-3.685032,-0.027455,-3.685039,-0.075068,-3.704291,-0.094854,-3.751664,-0.075068,-3.799036,-0.027452,-3.818296,-0.074117,-3.838071,-0.093382,-3.884923,-0.074116,-3.931775,-0.027452,-3.951552,-0.027457,-3.951559,-0.055804,-3.952105,-0.084155,-3.951847,-0.112489,-3.950786,-0.140779,-3.948923,
-0.169006,-3.946259,-0.197146,-3.942795,-0.225176,-3.938536,-0.253074,-3.933486,-0.280819,-3.927646,-0.308385,-3.921023,-0.335753,-3.913621,-0.362900,-3.905446,-0.389804,-3.896506,-0.416444,-3.886806,-0.442798,-3.876356,-0.468843,-3.865164,-0.478580,-3.869226,-0.488931,-3.871292,-0.526879,-3.860219,-0.546775,-3.826078,-0.553799,-3.822217,-0.560798,-3.818296,-0.560793,-3.818289,-0.554640,-3.814842,
-0.548464,-3.811438,-0.585976,-3.430657,-0.615532,-3.435636,-0.645370,-3.439999,-0.675217,-3.443700,-0.705053,-3.446737,-0.734864,-3.449108,-0.764637,-3.450813,-0.794355,-3.451850,-0.824003,-3.452219,-0.853567,-3.451919,-0.883030,-3.450951,-0.912379,-3.449316,-0.941598,-3.447014,-0.970672,-3.444046,-0.999586,-3.440413,-1.028326,-3.436119,-1.056877,-3.431164,-1.085225,-3.425551,-1.113355,-3.419284,
-1.141254,-3.412365,-1.168905,-3.404799,-1.196297,-3.396587,-1.223414,-3.387735,-1.250242,-3.378250,-1.276768,-3.368132,-1.302980,-3.357389,-1.328862,-3.346026,-1.354403,-3.334049,-1.379589,-3.321462,-1.404408,-3.308275,-1.428846,-3.294493,-1.452891,-3.280122,-1.476529,-3.265172,-1.477022,-3.265077,-1.446543,-3.224474,-1.417636,-3.182746,-1.390340,-3.139949,-1.364694,-3.096144,-1.340734,-3.051392,
-1.318499,-3.005764,-1.298017,-2.959321,-1.279319,-2.912132,-1.262431,-2.864265,-1.247380,-2.815791,-1.246537,-2.812658,-1.035179,-2.812658,-1.033529,-2.862646,-1.030089,-2.912768,-1.024842,-2.962983,-1.015737,-2.991432,-0.996824,-3.014556,-0.970743,-3.029130,-0.941130,-3.033121,-0.890667,-3.029564,-0.840655,-3.024246,-0.791131,-3.017197,-0.742127,-3.008447,-0.693679,-2.998023,-0.645821,-2.985953,
-0.598587,-2.972267,-0.552011,-2.956992,-0.506126,-2.940157,-0.460968,-2.921791,-0.416568,-2.901922,-0.372967,-2.880580,-0.330193,-2.857790,-0.288281,-2.833583,-0.247267,-2.807986,-0.207183,-2.781029,-0.168065,-2.752739,-0.129947,-2.723145,-0.092862,-2.692276,-0.056844,-2.660160,-0.021929,-2.626825,0.011849,-2.592302,0.044458,-2.556614,0.075863,-2.519795,0.106028,-2.481872,0.134921,-2.442871,
0.162507,-2.402822,0.188752,-2.361755,0.213623,-2.319694,0.237085,-2.276672,0.259099,-2.232720,0.279638,-2.187859,0.298665,-2.142121,0.316147,-2.095534,0.332048,-2.048126,0.346335,-1.999927,0.358974,-1.950965,0.360185,-1.919774,0.349355,-1.890493,0.328135,-1.867593,0.299755,-1.854556,0.268577,-1.853380,0.239320,-1.864214,0.216435,-1.885410,0.203403,-1.913745,0.190602,-1.962852,
0.175932,-2.011059,0.159440,-2.058331,0.141167,-2.104634,0.121157,-2.149933,0.099458,-2.194194,0.076110,-2.237380,0.051158,-2.279460,0.024646,-2.320397,-0.003382,-2.360157,-0.032882,-2.398706,-0.063811,-2.436010,-0.096124,-2.472031,-0.129779,-2.506738,-0.164729,-2.540095,-0.200932,-2.572068,-0.238344,-2.602621,-0.276920,-2.631721,-0.316618,-2.659332,-0.357394,-2.685422,-0.399202,-2.709952,
-0.441999,-2.732892,-0.485741,-2.754204,-0.530386,-2.773856,-0.575886,-2.791811,-0.622201,-2.808036,-0.669286,-2.822497,-0.717096,-2.835157,-0.765588,-2.845983,-0.814718,-2.854941,-0.864447,-2.861994,-0.866313,-2.810556,-0.866142,-2.759330,-0.863956,-2.708369,-0.859776,-2.657727,-0.853620,-2.607465,-0.845511,-2.557638,-0.835467,-2.508304,-0.823508,-2.459517,-0.809658,-2.411339,-0.793932,-2.363823,
-0.776354,-2.317028,-0.756943,-2.271009,-0.735716,-2.225822,-0.712699,-2.181529,-0.687911,-2.138186,-0.661369,-2.095845,-0.633097,-2.054569,-0.603110,-2.014409,-0.571432,-1.975424,-0.538086,-1.937676,-0.503087,-1.901216,-0.466457,-1.866103,-0.428216,-1.832395,-0.388385,-1.800146,-0.346984,-1.769416,-0.304033,-1.740261,-0.281666,-1.718500,-0.269334,-1.689839,-0.268914,-1.658646,-0.280470,-1.629664,
-0.302272,-1.607322,-0.330972,-1.595026,-0.337858,-1.593864,-0.344820,-1.593305,-0.348300,-1.593264,-0.351779,-1.593374,-0.372286,-1.597143,-0.391121,-1.606080,-0.433000,-1.634308,-0.473649,-1.663862,-0.513046,-1.694699,-0.551172,-1.726779,-0.588009,-1.760062,-0.623536,-1.794505,-0.657733,-1.830066,-0.690584,-1.866708,-0.722069,-1.904387,-0.752167,-1.943062,-0.780860,-1.982694,-0.808129,-2.023239,
-0.833954,-2.064658,-0.858315,-2.106909,-0.881196,-2.149952,-0.902575,-2.193745,-0.922434,-2.238247,-0.940754,-2.283417,-0.957515,-2.329215,-0.972698,-2.375600,-0.986285,-2.422528,-0.998254,-2.469961,-1.008589,-2.517857,-1.017269,-2.566176,-1.024275,-2.614875,-1.029589,-2.663914,-1.033190,-2.713250,-1.035060,-2.762846,-1.035179,-2.812658,-1.246537,-2.812658,-1.234187,-2.766780,-1.222871,-2.717303,
-1.213448,-2.667430,-1.205931,-2.617234,-1.200331,-2.566788,-1.196659,-2.516168,-1.194194,-2.479536,-1.190722,-2.442989,-1.186243,-2.406550,-1.180762,-2.370248,-1.174282,-2.334111,-1.166809,-2.298166,-1.158348,-2.262438,-1.148906,-2.226959,-1.138490,-2.191754,-1.127108,-2.156849,-1.114767,-2.122270,-1.101479,-2.088044,-1.087252,-2.054196,-1.072096,-2.020752,-1.056025,-1.987737,-1.039051,-1.955180,
-1.021189,-1.923104,-1.002447,-1.891530,-0.982841,-1.860483,-0.962388,-1.829988,-0.941103,-1.800069,-0.919000,-1.770746,-0.896096,-1.742041,-0.872414,-1.713982,-0.847965,-1.686582,-0.822772,-1.659868,-0.796850,-1.633856,-0.770222,-1.608568,-0.742907,-1.584023,-0.714926,-1.560239,-0.686300,-1.537235,-0.657052,-1.515027,-0.630307,-1.494769,-0.604080,-1.473844,-0.578389,-1.452266,-0.553250,-1.430049,
-0.528677,-1.407207,-0.504689,-1.383754,-0.481296,-1.359704,-0.458518,-1.335074,-0.436367,-1.309878,-0.414858,-1.284135,-0.394004,-1.257857,-0.373816,-1.231063,-0.354312,-1.203771,-0.335500,-1.175996,-0.317393,-1.147757,-0.300005,-1.119075,-0.333345,-1.098353,-0.365260,-1.075495,-0.395613,-1.050596,-0.424268,-1.023772,-0.451108,-0.995128,-0.476018,-0.964788,-0.498887,-0.932887,-0.519621,-0.899560,
-0.538129,-0.864954,-0.554333,-0.829207,-0.568163,-0.792476,-0.579560,-0.754921,-0.588475,-0.716702,-0.594871,-0.677980,-0.598719,-0.638927,-0.600003,-0.599704,-0.599280,-0.570278,-0.597113,-0.540922,-0.593508,-0.511708,-0.588474,-0.482707,-0.582020,-0.453985,-0.578804,-0.442370,-0.008102,-0.442370,0.001954,-0.471895,0.022546,-0.495328,0.050540,-0.509103,0.081659,-0.511123,0.111189,-0.501098,
0.134638,-0.480549,0.148446,-0.452598,0.168442,-0.420921,0.200025,-0.413066,0.231581,-0.420918,0.251565,-0.452600,0.265374,-0.480559,0.288833,-0.501113,0.318374,-0.511135,0.349504,-0.509103,0.377499,-0.495327,0.398089,-0.471896,0.408146,-0.442370,0.406137,-0.411248,0.387621,-0.364843,0.360167,-0.325866,0.325727,-0.294766,0.286255,-0.271993,0.243699,-0.257998,0.200021,-0.253233,
0.156344,-0.257999,0.113790,-0.271993,0.074317,-0.294766,0.039877,-0.325866,0.012423,-0.364844,-0.006093,-0.411248,-0.008102,-0.442370,-0.578804,-0.442370,-0.574167,-0.425618,-0.564929,-0.397668,-0.554330,-0.370206,-0.542393,-0.343292,-0.529152,-0.317001,-0.514639,-0.291392,-0.498883,-0.266524,-0.481925,-0.242457,-0.463808,-0.219253,-0.444571,-0.196964,-0.424265,-0.175646,-0.402936,-0.155349,
-0.380634,-0.136121,-0.357421,-0.118014,-0.333343,-0.101065,-0.308461,-0.085316,-0.282838,-0.070808,-0.256534,-0.057574,-0.229611,-0.045645,-0.202135,-0.035052,-0.174171,-0.025819,-0.145788,-0.017968,-0.117055,-0.011519,-0.088039,-0.006486,-0.058810,-0.002883,-0.029440,-0.000717,0.000000,0.000005,0.029440,-0.000717,0.029440,-0.000717,$1*%
G04 Aperture macros list end*
%ADD10C,0.650000*%
%ADD11R,1.400000X0.300000*%
%ADD12FreePoly0,0.000000*%
%ADD13RoundRect,0.225000X0.225000X0.250000X-0.225000X0.250000X-0.225000X-0.250000X0.225000X-0.250000X0*%
%ADD14R,0.700000X0.340000*%
%ADD15RoundRect,0.200000X0.200000X0.275000X-0.200000X0.275000X-0.200000X-0.275000X0.200000X-0.275000X0*%
%ADD16RoundRect,0.200000X-0.200000X-0.275000X0.200000X-0.275000X0.200000X0.275000X-0.200000X0.275000X0*%
%ADD17RoundRect,0.112500X-0.187500X-0.112500X0.187500X-0.112500X0.187500X0.112500X-0.187500X0.112500X0*%
%ADD18RoundRect,0.225000X-0.225000X-0.250000X0.225000X-0.250000X0.225000X0.250000X-0.225000X0.250000X0*%
%ADD19RoundRect,0.150000X-0.512500X-0.150000X0.512500X-0.150000X0.512500X0.150000X-0.512500X0.150000X0*%
%ADD20RoundRect,0.250000X0.250000X0.475000X-0.250000X0.475000X-0.250000X-0.475000X0.250000X-0.475000X0*%
%ADD21RoundRect,0.112500X0.187500X0.112500X-0.187500X0.112500X-0.187500X-0.112500X0.187500X-0.112500X0*%
%ADD22RoundRect,0.250000X0.325000X0.650000X-0.325000X0.650000X-0.325000X-0.650000X0.325000X-0.650000X0*%
%ADD23RoundRect,0.150000X0.825000X0.150000X-0.825000X0.150000X-0.825000X-0.150000X0.825000X-0.150000X0*%
%ADD24RoundRect,0.250000X-1.175000X-0.450000X1.175000X-0.450000X1.175000X0.450000X-1.175000X0.450000X0*%
%ADD25RoundRect,0.250000X-0.475000X0.250000X-0.475000X-0.250000X0.475000X-0.250000X0.475000X0.250000X0*%
%ADD26RoundRect,0.150000X-0.587500X-0.150000X0.587500X-0.150000X0.587500X0.150000X-0.587500X0.150000X0*%
%ADD27RoundRect,0.250000X-0.250000X-0.475000X0.250000X-0.475000X0.250000X0.475000X-0.250000X0.475000X0*%
%ADD28RoundRect,0.250000X0.475000X-0.250000X0.475000X0.250000X-0.475000X0.250000X-0.475000X-0.250000X0*%
%ADD29R,0.650000X0.400000*%
%ADD30RoundRect,0.250000X-0.650000X0.325000X-0.650000X-0.325000X0.650000X-0.325000X0.650000X0.325000X0*%
%ADD31C,1.550000*%
%ADD32C,2.050000*%
%ADD33R,2.400000X1.300000*%
%ADD34R,3.200000X2.500000*%
%ADD35R,4.000000X3.750000*%
%ADD36C,2.374900*%
%ADD37C,0.990600*%
%ADD38C,0.787400*%
%ADD39C,0.650000*%
%ADD40R,1.150000X0.300000*%
%ADD41O,2.100000X1.000000*%
%ADD42O,1.600000X1.000000*%
%ADD43C,2.600000*%
%ADD44RoundRect,0.150000X-0.825000X-0.150000X0.825000X-0.150000X0.825000X0.150000X-0.825000X0.150000X0*%
%ADD45R,1.500000X0.900000*%
%ADD46R,0.900000X1.500000*%
%ADD47C,0.600000*%
%ADD48R,3.900000X3.900000*%
%ADD49RoundRect,0.250000X0.850000X0.350000X-0.850000X0.350000X-0.850000X-0.350000X0.850000X-0.350000X0*%
%ADD50RoundRect,0.249997X2.950003X2.650003X-2.950003X2.650003X-2.950003X-2.650003X2.950003X-2.650003X0*%
%ADD51R,0.850000X0.650000*%
%ADD52C,1.152000*%
%ADD53R,1.500000X2.000000*%
%ADD54R,3.800000X2.000000*%
%ADD55RoundRect,0.062500X0.062500X-0.275000X0.062500X0.275000X-0.062500X0.275000X-0.062500X-0.275000X0*%
%ADD56RoundRect,0.062500X0.275000X-0.062500X0.275000X0.062500X-0.275000X0.062500X-0.275000X-0.062500X0*%
%ADD57R,1.450000X1.450000*%
%ADD58RoundRect,0.250000X-1.000000X-0.650000X1.000000X-0.650000X1.000000X0.650000X-1.000000X0.650000X0*%
%ADD59RoundRect,0.650000X-0.650000X-0.950000X0.650000X-0.950000X0.650000X0.950000X-0.650000X0.950000X0*%
%ADD60RoundRect,0.225000X0.250000X-0.225000X0.250000X0.225000X-0.250000X0.225000X-0.250000X-0.225000X0*%
%ADD61R,2.000000X1.780000*%
%ADD62RoundRect,0.218750X-0.218750X-0.256250X0.218750X-0.256250X0.218750X0.256250X-0.218750X0.256250X0*%
%ADD63RoundRect,0.100000X-0.637500X-0.100000X0.637500X-0.100000X0.637500X0.100000X-0.637500X0.100000X0*%
%ADD64R,1.400000X4.200000*%
%ADD65RoundRect,0.250000X-1.425000X0.362500X-1.425000X-0.362500X1.425000X-0.362500X1.425000X0.362500X0*%
%ADD66C,0.750000*%
%ADD67C,1.050000*%
%ADD68RotRect,1.350000X1.000000X315.000000*%
%ADD69RotRect,2.000000X1.800000X315.000000*%
%ADD70R,0.300000X1.300000*%
%ADD71R,1.800000X2.200000*%
G04 APERTURE END LIST*
D10*
X-62675000Y-13000000D02*
G75*
G03*
X-62675000Y-13000000I-325000J0D01*
G01*
X-62675000Y31000000D02*
G75*
G03*
X-62675000Y31000000I-325000J0D01*
G01*
X66325000Y31000000D02*
G75*
G03*
X66325000Y31000000I-325000J0D01*
G01*
D11*
X13800000Y7000000D03*
X13800000Y6500000D03*
X13800000Y6000000D03*
X13800000Y5500000D03*
X13800000Y5000000D03*
X18200000Y5000000D03*
X18200000Y5500000D03*
X18200000Y6000000D03*
X18200000Y6500000D03*
X18200000Y7000000D03*
D12*
X-27166678Y-8071546D03*
D13*
X-25225000Y-5000000D03*
X-26775000Y-5000000D03*
X55775000Y15000000D03*
X54225000Y15000000D03*
D14*
X-26750000Y-2500000D03*
X-26750000Y-3000000D03*
X-26750000Y-3500000D03*
X-25250000Y-3500000D03*
X-25250000Y-3000000D03*
X-25250000Y-2500000D03*
X54250000Y17500000D03*
X54250000Y17000000D03*
X54250000Y16500000D03*
X55750000Y16500000D03*
X55750000Y17000000D03*
X55750000Y17500000D03*
D15*
X-11175000Y15000000D03*
X-12825000Y15000000D03*
D16*
X-12825000Y17000000D03*
X-11175000Y17000000D03*
D17*
X20950000Y-4000000D03*
X23050000Y-4000000D03*
D15*
X40825000Y10000000D03*
X39175000Y10000000D03*
D18*
X29225000Y13000000D03*
X30775000Y13000000D03*
D19*
X-4137500Y16950000D03*
X-4137500Y16000000D03*
X-4137500Y15050000D03*
X-1862500Y15050000D03*
X-1862500Y16000000D03*
X-1862500Y16950000D03*
D13*
X-58225000Y-12000000D03*
X-59775000Y-12000000D03*
D20*
X27950000Y31000000D03*
X26050000Y31000000D03*
D16*
X-62825000Y18000000D03*
X-61175000Y18000000D03*
D18*
X-54775000Y14000000D03*
X-53225000Y14000000D03*
D15*
X36825000Y27000000D03*
X35175000Y27000000D03*
D21*
X-15950000Y3000000D03*
X-18050000Y3000000D03*
D16*
X10175000Y17000000D03*
X11825000Y17000000D03*
X35175000Y21000000D03*
X36825000Y21000000D03*
D13*
X-2225000Y25000000D03*
X-3775000Y25000000D03*
D19*
X-4137500Y28950000D03*
X-4137500Y28000000D03*
X-4137500Y27050000D03*
X-1862500Y27050000D03*
X-1862500Y28000000D03*
X-1862500Y28950000D03*
D21*
X23050000Y31000000D03*
X20950000Y31000000D03*
D16*
X10175000Y21000000D03*
X11825000Y21000000D03*
D22*
X7475000Y19000000D03*
X4525000Y19000000D03*
D23*
X-40525000Y22095000D03*
X-40525000Y23365000D03*
X-40525000Y24635000D03*
X-40525000Y25905000D03*
X-45475000Y25905000D03*
X-45475000Y24635000D03*
X-45475000Y23365000D03*
X-45475000Y22095000D03*
D15*
X2825000Y27000000D03*
X1175000Y27000000D03*
D16*
X-8825000Y29000000D03*
X-7175000Y29000000D03*
D17*
X34950000Y31000000D03*
X37050000Y31000000D03*
D16*
X62175000Y-4000000D03*
X63825000Y-4000000D03*
D24*
X-30000000Y31000000D03*
D23*
X-40525000Y16095000D03*
X-40525000Y17365000D03*
X-40525000Y18635000D03*
X-40525000Y19905000D03*
X-45475000Y19905000D03*
X-45475000Y18635000D03*
X-45475000Y17365000D03*
X-45475000Y16095000D03*
D15*
X2825000Y23000000D03*
X1175000Y23000000D03*
D23*
X-27525000Y22095000D03*
X-27525000Y23365000D03*
X-27525000Y24635000D03*
X-27525000Y25905000D03*
X-32475000Y25905000D03*
X-32475000Y24635000D03*
X-32475000Y23365000D03*
X-32475000Y22095000D03*
D18*
X12225000Y-6000000D03*
X13775000Y-6000000D03*
D13*
X-61225000Y23000000D03*
X-62775000Y23000000D03*
D25*
X-49000000Y3950000D03*
X-49000000Y2050000D03*
D15*
X-29175000Y14000000D03*
X-30825000Y14000000D03*
D26*
X-53937500Y3950000D03*
X-53937500Y2050000D03*
X-52062500Y3000000D03*
D19*
X-4137500Y22950000D03*
X-4137500Y22000000D03*
X-4137500Y21050000D03*
X-1862500Y21050000D03*
X-1862500Y22000000D03*
X-1862500Y22950000D03*
X14862500Y16950000D03*
X14862500Y16000000D03*
X14862500Y15050000D03*
X17137500Y15050000D03*
X17137500Y16000000D03*
X17137500Y16950000D03*
X4862500Y16950000D03*
X4862500Y16000000D03*
X4862500Y15050000D03*
X7137500Y15050000D03*
X7137500Y16950000D03*
D16*
X15175000Y27000000D03*
X16825000Y27000000D03*
D18*
X-54775000Y16000000D03*
X-53225000Y16000000D03*
D20*
X-39050000Y9000000D03*
X-40950000Y9000000D03*
D27*
X-52900000Y29000000D03*
X-51000000Y29000000D03*
D28*
X-16000000Y15050000D03*
X-16000000Y16950000D03*
D29*
X5050000Y22650000D03*
X5050000Y22000000D03*
X5050000Y21350000D03*
X6950000Y21350000D03*
X6950000Y22000000D03*
X6950000Y22650000D03*
D16*
X-33825000Y-11000000D03*
X-32175000Y-11000000D03*
D15*
X63825000Y0D03*
X62175000Y0D03*
D16*
X-33825000Y-5000000D03*
X-32175000Y-5000000D03*
D15*
X63825000Y-2000000D03*
X62175000Y-2000000D03*
D16*
X-58825000Y14000000D03*
X-57175000Y14000000D03*
X-22825000Y-3000000D03*
X-21175000Y-3000000D03*
D30*
X-36000000Y22475000D03*
X-36000000Y19525000D03*
X-36000000Y17475000D03*
X-36000000Y14525000D03*
D31*
X52500000Y-6000000D03*
D32*
X48000000Y-6000000D03*
D33*
X55300000Y-8500000D03*
X55300000Y-3500000D03*
X55300000Y-6000000D03*
D34*
X55900000Y-11000000D03*
X55900000Y-1000000D03*
D35*
X48000000Y-12375000D03*
X48000000Y375000D03*
D34*
X40100000Y-11000000D03*
X40100000Y-1000000D03*
D33*
X41000000Y-3500000D03*
X41000000Y-8500000D03*
D13*
X-58225000Y-6000000D03*
X-59775000Y-6000000D03*
D16*
X-62825000Y27000000D03*
X-61175000Y27000000D03*
D15*
X-21175000Y14000000D03*
X-22825000Y14000000D03*
D17*
X950000Y21000000D03*
X3050000Y21000000D03*
D36*
X-13460000Y-2460000D03*
D37*
X-16000000Y-2460000D03*
D36*
X-18540000Y-2460000D03*
X-13460000Y-5635000D03*
X-18540000Y-5635000D03*
D37*
X-14984000Y-7540000D03*
X-17016000Y-7540000D03*
D38*
X-16635000Y-3730000D03*
X-15365000Y-3730000D03*
X-16635000Y-5000000D03*
X-15365000Y-5000000D03*
X-16635000Y-6270000D03*
X-15365000Y-6270000D03*
D24*
X16000000Y31000000D03*
D15*
X26825000Y13000000D03*
X25175000Y13000000D03*
D39*
X-58609500Y8890000D03*
X-58609500Y3110000D03*
D40*
X-57544500Y9350000D03*
X-57544500Y8550000D03*
X-57544500Y7250000D03*
X-57544500Y6250000D03*
X-57544500Y5750000D03*
X-57544500Y4750000D03*
X-57544500Y3450000D03*
X-57544500Y2650000D03*
X-57544500Y2950000D03*
X-57544500Y3750000D03*
X-57544500Y4250000D03*
X-57544500Y5250000D03*
X-57544500Y6750000D03*
X-57544500Y7750000D03*
X-57544500Y8250000D03*
X-57544500Y9050000D03*
D41*
X-58109500Y10320000D03*
D42*
X-62289500Y10320000D03*
D41*
X-58109500Y1680000D03*
D42*
X-62289500Y1680000D03*
D43*
X65080000Y21460000D03*
X65080000Y26540000D03*
X60000000Y21460000D03*
X60000000Y26540000D03*
D24*
X-54000000Y12000000D03*
D44*
X26525000Y18905000D03*
X26525000Y17635000D03*
X26525000Y16365000D03*
X26525000Y15095000D03*
X31475000Y15095000D03*
X31475000Y16365000D03*
X31475000Y17635000D03*
X31475000Y18905000D03*
D13*
X-12225000Y5000000D03*
X-13775000Y5000000D03*
D23*
X-19525000Y22095000D03*
X-19525000Y23365000D03*
X-19525000Y24635000D03*
X-19525000Y25905000D03*
X-24475000Y25905000D03*
X-24475000Y24635000D03*
X-24475000Y23365000D03*
X-24475000Y22095000D03*
D28*
X-13000000Y20050000D03*
X-13000000Y21950000D03*
D16*
X-8825000Y27000000D03*
X-7175000Y27000000D03*
D45*
X8750000Y-7260000D03*
X8750000Y-5990000D03*
X8750000Y-4720000D03*
X8750000Y-3450000D03*
X8750000Y-2180000D03*
X8750000Y-910000D03*
X8750000Y360000D03*
X8750000Y1630000D03*
X8750000Y2900000D03*
X8750000Y4170000D03*
X8750000Y5440000D03*
X8750000Y6710000D03*
X8750000Y7980000D03*
X8750000Y9250000D03*
D46*
X6985000Y10500000D03*
X5715000Y10500000D03*
X4445000Y10500000D03*
X3175000Y10500000D03*
X1905000Y10500000D03*
X635000Y10500000D03*
X-635000Y10500000D03*
X-1905000Y10500000D03*
X-3175000Y10500000D03*
X-4445000Y10500000D03*
X-5715000Y10500000D03*
X-6985000Y10500000D03*
D45*
X-8750000Y9250000D03*
X-8750000Y7980000D03*
X-8750000Y6710000D03*
X-8750000Y5440000D03*
X-8750000Y4170000D03*
X-8750000Y2900000D03*
X-8750000Y1630000D03*
X-8750000Y360000D03*
X-8750000Y-910000D03*
X-8750000Y-2180000D03*
X-8750000Y-3450000D03*
X-8750000Y-4720000D03*
X-8750000Y-5990000D03*
X-8750000Y-7260000D03*
D47*
X2900000Y-240000D03*
X2900000Y1160000D03*
X2200000Y-940000D03*
X2200000Y460000D03*
X2200000Y1860000D03*
X1500000Y-240000D03*
D48*
X1500000Y460000D03*
D47*
X1500000Y1160000D03*
X800000Y-940000D03*
X800000Y460000D03*
X800000Y1860000D03*
X100000Y-240000D03*
X100000Y1160000D03*
D15*
X36825000Y17000000D03*
X35175000Y17000000D03*
D24*
X-13000000Y1000000D03*
D49*
X51040000Y14720000D03*
D50*
X44740000Y17000000D03*
D49*
X51040000Y19280000D03*
D27*
X-33950000Y-9000000D03*
X-32050000Y-9000000D03*
D51*
X62275000Y-6425000D03*
X62275000Y-5575000D03*
X63725000Y-5575000D03*
X63725000Y-6425000D03*
D19*
X14862500Y22950000D03*
X14862500Y22000000D03*
X14862500Y21050000D03*
X17137500Y21050000D03*
X17137500Y22000000D03*
X17137500Y22950000D03*
D16*
X-8825000Y21000000D03*
X-7175000Y21000000D03*
D52*
X-63000000Y-13000000D03*
D15*
X36825000Y19000000D03*
X35175000Y19000000D03*
D13*
X-58225000Y-8000000D03*
X-59775000Y-8000000D03*
X-2225000Y19000000D03*
X-3775000Y19000000D03*
D28*
X-13000000Y25050000D03*
X-13000000Y26950000D03*
D13*
X-39225000Y-3000000D03*
X-40775000Y-3000000D03*
D24*
X-54000000Y0D03*
D13*
X-2225000Y31000000D03*
X-3775000Y31000000D03*
X13225000Y10000000D03*
X14775000Y10000000D03*
X-44225000Y14000000D03*
X-45775000Y14000000D03*
D16*
X25175000Y11000000D03*
X26825000Y11000000D03*
D24*
X-50000000Y18000000D03*
D53*
X-42300000Y-150000D03*
X-40000000Y-150000D03*
D54*
X-40000000Y6150000D03*
D53*
X-37700000Y-150000D03*
D44*
X26525000Y28905000D03*
X26525000Y27635000D03*
X26525000Y26365000D03*
X26525000Y25095000D03*
X31475000Y25095000D03*
X31475000Y26365000D03*
X31475000Y27635000D03*
X31475000Y28905000D03*
D13*
X22775000Y13000000D03*
X21225000Y13000000D03*
D15*
X36825000Y15000000D03*
X35175000Y15000000D03*
D13*
X-51225000Y27000000D03*
X-52775000Y27000000D03*
D15*
X11825000Y15000000D03*
X10175000Y15000000D03*
D16*
X-62825000Y20000000D03*
X-61175000Y20000000D03*
X-58825000Y16000000D03*
X-57175000Y16000000D03*
D24*
X-46000000Y7000000D03*
D16*
X-8825000Y17000000D03*
X-7175000Y17000000D03*
D18*
X-17775000Y11000000D03*
X-16225000Y11000000D03*
D16*
X-22825000Y28000000D03*
X-21175000Y28000000D03*
D55*
X-53500000Y6737500D03*
X-53000000Y6737500D03*
X-52500000Y6737500D03*
D56*
X-51737500Y7250000D03*
X-51737500Y7750000D03*
X-51737500Y8250000D03*
X-51737500Y8750000D03*
D55*
X-52500000Y9262500D03*
X-53000000Y9262500D03*
X-53500000Y9262500D03*
D56*
X-54262500Y8750000D03*
X-54262500Y8250000D03*
X-54262500Y7750000D03*
X-54262500Y7250000D03*
D57*
X-53000000Y8000000D03*
D16*
X-58825000Y20000000D03*
X-57175000Y20000000D03*
D24*
X-50000000Y14000000D03*
D20*
X22950000Y1000000D03*
X21050000Y1000000D03*
D18*
X-54775000Y18000000D03*
X-53225000Y18000000D03*
D15*
X2825000Y17000000D03*
X1175000Y17000000D03*
D43*
X65000000Y5460000D03*
X65000000Y10540000D03*
X59920000Y5460000D03*
X59920000Y10540000D03*
D27*
X18950000Y10000000D03*
X17050000Y10000000D03*
X-33950000Y-7000000D03*
X-32050000Y-7000000D03*
D13*
X16775000Y19000000D03*
X15225000Y19000000D03*
D44*
X-32475000Y19905000D03*
X-32475000Y18635000D03*
X-32475000Y17365000D03*
X-32475000Y16095000D03*
X-27525000Y16095000D03*
X-27525000Y17365000D03*
X-27525000Y18635000D03*
X-27525000Y19905000D03*
D13*
X11775000Y23000000D03*
X10225000Y23000000D03*
D17*
X-14050000Y9000000D03*
X-11950000Y9000000D03*
D58*
X-24000000Y31000000D03*
X-20000000Y31000000D03*
D13*
X22775000Y11000000D03*
X21225000Y11000000D03*
D16*
X-30825000Y28000000D03*
X-29175000Y28000000D03*
D28*
X-16000000Y25050000D03*
X-16000000Y26950000D03*
D21*
X48050000Y31000000D03*
X45950000Y31000000D03*
D59*
X-31550000Y6000000D03*
X-20450000Y6000000D03*
D13*
X11775000Y31000000D03*
X10225000Y31000000D03*
D24*
X-15000000Y31000000D03*
D16*
X-62825000Y14000000D03*
X-61175000Y14000000D03*
X-8825000Y23000000D03*
X-7175000Y23000000D03*
D13*
X-58225000Y-10000000D03*
X-59775000Y-10000000D03*
D16*
X21175000Y27000000D03*
X22825000Y27000000D03*
D15*
X18825000Y-4000000D03*
X17175000Y-4000000D03*
D16*
X5175000Y29000000D03*
X6825000Y29000000D03*
D17*
X-18050000Y7000000D03*
X-15950000Y7000000D03*
D24*
X-48000000Y31000000D03*
D15*
X43825000Y31000000D03*
X42175000Y31000000D03*
D18*
X-54775000Y20000000D03*
X-53225000Y20000000D03*
D60*
X-49000000Y7225000D03*
X-49000000Y8775000D03*
D16*
X-33825000Y-3000000D03*
X-32175000Y-3000000D03*
D15*
X22825000Y29000000D03*
X21175000Y29000000D03*
D16*
X5175000Y27000000D03*
X6825000Y27000000D03*
D61*
X43190000Y10540000D03*
X43190000Y8000000D03*
X43190000Y5460000D03*
X50810000Y5460000D03*
X50810000Y8000000D03*
X50810000Y10540000D03*
D13*
X-40225000Y28000000D03*
X-41775000Y28000000D03*
D18*
X12225000Y-4000000D03*
X13775000Y-4000000D03*
D20*
X-61050000Y25000000D03*
X-62950000Y25000000D03*
D24*
X-50000000Y16000000D03*
D52*
X-63000000Y31000000D03*
D13*
X6775000Y25000000D03*
X5225000Y25000000D03*
D18*
X1225000Y19000000D03*
X2775000Y19000000D03*
D16*
X21175000Y17000000D03*
X22825000Y17000000D03*
D15*
X36825000Y23000000D03*
X35175000Y23000000D03*
D16*
X-52825000Y23000000D03*
X-51175000Y23000000D03*
D13*
X-40225000Y14000000D03*
X-41775000Y14000000D03*
X-44225000Y28000000D03*
X-45775000Y28000000D03*
D24*
X-13000000Y11000000D03*
D18*
X29225000Y11000000D03*
X30775000Y11000000D03*
D16*
X21175000Y23000000D03*
X22825000Y23000000D03*
D13*
X16775000Y25000000D03*
X15225000Y25000000D03*
D62*
X-22787500Y-5000000D03*
X-21212500Y-5000000D03*
D21*
X-11950000Y3000000D03*
X-14050000Y3000000D03*
D16*
X-62825000Y16000000D03*
X-61175000Y16000000D03*
D13*
X36775000Y10000000D03*
X35225000Y10000000D03*
D22*
X19475000Y-6000000D03*
X16525000Y-6000000D03*
D52*
X66000000Y31000000D03*
D63*
X33137500Y8275000D03*
X33137500Y7625000D03*
X33137500Y6975000D03*
X33137500Y6325000D03*
X33137500Y5675000D03*
X33137500Y5025000D03*
X33137500Y4375000D03*
X33137500Y3725000D03*
X38862500Y3725000D03*
X38862500Y4375000D03*
X38862500Y5025000D03*
X38862500Y5675000D03*
X38862500Y6325000D03*
X38862500Y6975000D03*
X38862500Y7625000D03*
X38862500Y8275000D03*
D15*
X-51175000Y25000000D03*
X-52825000Y25000000D03*
D21*
X32050000Y21000000D03*
X29950000Y21000000D03*
D16*
X-8825000Y15000000D03*
X-7175000Y15000000D03*
D19*
X-58137500Y24950000D03*
X-58137500Y24000000D03*
X-58137500Y23050000D03*
X-55862500Y23050000D03*
X-55862500Y24000000D03*
X-55862500Y24950000D03*
D17*
X-18050000Y9000000D03*
X-15950000Y9000000D03*
D18*
X-13775000Y7000000D03*
X-12225000Y7000000D03*
D21*
X-15950000Y5000000D03*
X-18050000Y5000000D03*
D64*
X-58850000Y29000000D03*
X-55150000Y29000000D03*
D17*
X49950000Y31000000D03*
X52050000Y31000000D03*
D20*
X27950000Y21000000D03*
X26050000Y21000000D03*
D16*
X35175000Y29000000D03*
X36825000Y29000000D03*
X-58825000Y18000000D03*
X-57175000Y18000000D03*
D65*
X55000000Y10962500D03*
X55000000Y5037500D03*
D49*
X51040000Y22720000D03*
D50*
X44740000Y25000000D03*
D49*
X51040000Y27280000D03*
D21*
X3050000Y15000000D03*
X950000Y15000000D03*
D15*
X36825000Y25000000D03*
X35175000Y25000000D03*
D16*
X21175000Y25000000D03*
X22825000Y25000000D03*
D63*
X23137500Y8925000D03*
X23137500Y8275000D03*
X23137500Y7625000D03*
X23137500Y6975000D03*
X23137500Y6325000D03*
X23137500Y5675000D03*
X23137500Y5025000D03*
X23137500Y4375000D03*
X23137500Y3725000D03*
X23137500Y3075000D03*
X28862500Y3075000D03*
X28862500Y3725000D03*
X28862500Y4375000D03*
X28862500Y5025000D03*
X28862500Y5675000D03*
X28862500Y6325000D03*
X28862500Y6975000D03*
X28862500Y7625000D03*
X28862500Y8275000D03*
X28862500Y8925000D03*
D24*
X-46000000Y9000000D03*
D13*
X-16225000Y1000000D03*
X-17775000Y1000000D03*
D24*
X-50000000Y20000000D03*
D44*
X-24475000Y19905000D03*
X-24475000Y18635000D03*
X-24475000Y17365000D03*
X-24475000Y16095000D03*
X-19525000Y16095000D03*
X-19525000Y17365000D03*
X-19525000Y18635000D03*
X-19525000Y19905000D03*
D19*
X9862500Y28950000D03*
X9862500Y28000000D03*
X9862500Y27050000D03*
X12137500Y27050000D03*
X12137500Y28000000D03*
X12137500Y28950000D03*
D66*
X31343503Y-4656497D03*
D67*
X28656497Y-7343503D03*
D68*
X28479720Y-2464466D03*
X27472093Y-3472093D03*
X26464466Y-4479720D03*
X33535534Y-7520280D03*
X32527907Y-8527907D03*
X31520280Y-9535534D03*
D69*
X32863782Y-3136218D03*
X27136218Y-8863782D03*
D30*
X-36000000Y27475000D03*
X-36000000Y24525000D03*
D15*
X22825000Y15000000D03*
X21175000Y15000000D03*
D70*
X-53250000Y-6150000D03*
X-52750000Y-6150000D03*
X-52250000Y-6150000D03*
X-51750000Y-6150000D03*
X-51250000Y-6150000D03*
X-50750000Y-6150000D03*
X-50250000Y-6150000D03*
X-49750000Y-6150000D03*
X-49250000Y-6150000D03*
X-48750000Y-6150000D03*
X-48250000Y-6150000D03*
X-47750000Y-6150000D03*
X-47250000Y-6150000D03*
X-46750000Y-6150000D03*
X-46250000Y-6150000D03*
X-45750000Y-6150000D03*
X-45250000Y-6150000D03*
X-44750000Y-6150000D03*
X-44250000Y-6150000D03*
X-43750000Y-6150000D03*
X-43250000Y-6150000D03*
X-42750000Y-6150000D03*
X-42250000Y-6150000D03*
X-41750000Y-6150000D03*
X-41250000Y-6150000D03*
X-40750000Y-6150000D03*
X-40250000Y-6150000D03*
X-39750000Y-6150000D03*
X-39250000Y-6150000D03*
X-38750000Y-6150000D03*
D71*
X-55150000Y-9400000D03*
X-36850000Y-9400000D03*
D28*
X-16000000Y20050000D03*
X-16000000Y21950000D03*
M02*
