G04 #@! TF.GenerationSoftware,KiCad,Pcbnew,7.0.2*
G04 #@! TF.CreationDate,2024-01-03T16:57:31-08:00*
G04 #@! TF.ProjectId,UsbSourceMeasure,55736253-6f75-4726-9365-4d6561737572,rev?*
G04 #@! TF.SameCoordinates,PX8f0d180PY7270e00*
G04 #@! TF.FileFunction,Copper,L2,Inr*
G04 #@! TF.FilePolarity,Positive*
%FSLAX46Y46*%
G04 Gerber Fmt 4.6, Leading zero omitted, Abs format (unit mm)*
G04 Created by KiCad (PCBNEW 7.0.2) date 2024-01-03 16:57:31*
%MOMM*%
%LPD*%
G01*
G04 APERTURE LIST*
G04 #@! TA.AperFunction,ComponentPad*
%ADD10O,2.100000X1.000000*%
G04 #@! TD*
G04 #@! TA.AperFunction,ComponentPad*
%ADD11O,1.600000X1.000000*%
G04 #@! TD*
G04 #@! TA.AperFunction,ComponentPad*
%ADD12C,2.600000*%
G04 #@! TD*
G04 #@! TA.AperFunction,HeatsinkPad*
%ADD13C,0.600000*%
G04 #@! TD*
G04 #@! TA.AperFunction,ViaPad*
%ADD14C,0.700000*%
G04 #@! TD*
G04 #@! TA.AperFunction,ViaPad*
%ADD15C,1.200000*%
G04 #@! TD*
G04 #@! TA.AperFunction,ViaPad*
%ADD16C,0.900000*%
G04 #@! TD*
G04 APERTURE END LIST*
D10*
X-58109500Y10320000D03*
D11*
X-62289500Y10320000D03*
D10*
X-58109500Y1680000D03*
D11*
X-62289500Y1680000D03*
D12*
X65080000Y21460000D03*
X65080000Y26540000D03*
X60000000Y21460000D03*
X60000000Y26540000D03*
D13*
X2900000Y-240000D03*
X2900000Y1160000D03*
X2200000Y-940000D03*
X2200000Y460000D03*
X2200000Y1860000D03*
X1500000Y-240000D03*
X1500000Y1160000D03*
X800000Y-940000D03*
X800000Y460000D03*
X800000Y1860000D03*
X100000Y-240000D03*
X100000Y1160000D03*
D12*
X65000000Y5460000D03*
X65000000Y10540000D03*
X59920000Y5460000D03*
X59920000Y10540000D03*
D14*
X56000000Y18500000D03*
X54000000Y18500000D03*
X57000000Y17000000D03*
D15*
X-21500000Y22000000D03*
D14*
X-64000000Y15000000D03*
D15*
X15000000Y-6000000D03*
D14*
X-4000000Y24000000D03*
X15000000Y18000000D03*
D15*
X-43000000Y9000000D03*
X-47000000Y14000000D03*
D14*
X-16000000Y-8000000D03*
X-64000000Y19000000D03*
X39000000Y-8500000D03*
X-52000000Y14000000D03*
D15*
X-30500000Y20000000D03*
X-14500000Y22000000D03*
X-14500000Y27000000D03*
D14*
X-50000000Y-8000000D03*
X57500000Y-6000000D03*
X-4000000Y30000000D03*
D15*
X-38000000Y20000000D03*
D14*
X-52000000Y16000000D03*
D15*
X-30500000Y18000000D03*
D14*
X10000000Y30000000D03*
X-31000000Y-10000000D03*
X-52000000Y18000000D03*
X31000000Y12000000D03*
X-4000000Y18000000D03*
X38000000Y10000000D03*
X26000000Y30000000D03*
X-46000000Y-8000000D03*
D15*
X-21500000Y24000000D03*
X-17000000Y4000000D03*
D14*
X-53000000Y10500000D03*
D15*
X-38000000Y24000000D03*
D14*
X21000000Y12000000D03*
X-52000000Y20000000D03*
X20000000Y9000000D03*
X13000000Y9000000D03*
X5500000Y23500000D03*
X-44000000Y-8000000D03*
X33500000Y-9500000D03*
D15*
X40000000Y17000000D03*
D14*
X-60000000Y-11000000D03*
D15*
X-14500000Y17000000D03*
X40000000Y15000000D03*
D14*
X29000000Y21000000D03*
X-31000000Y-8000000D03*
D15*
X-64000000Y23000000D03*
D14*
X15000000Y-4000000D03*
D15*
X40000000Y19000000D03*
D14*
X15000000Y24000000D03*
X35000000Y9000000D03*
D15*
X-58000000Y26000000D03*
X-47000000Y28000000D03*
X-43000000Y-3000000D03*
D14*
X6000000Y19000000D03*
D16*
X-56062500Y8500000D03*
X-56062500Y3500000D03*
X-56062500Y2000000D03*
D15*
X-34500000Y26000000D03*
X-60000000Y23000000D03*
X-34500000Y21000000D03*
D16*
X-56062500Y10000000D03*
D15*
X-34500000Y22500000D03*
D14*
X-17000000Y-1500000D03*
X61000000Y-3000000D03*
D15*
X10990000Y-5990000D03*
D14*
X37000000Y9000000D03*
X-50000000Y-9000000D03*
X-48000000Y-9000000D03*
X15000000Y9000000D03*
D15*
X21000000Y-6000000D03*
D14*
X-49000000Y6000000D03*
D15*
X-37000000Y9000000D03*
D14*
X-21000000Y-6000000D03*
D15*
X-17000000Y8000000D03*
D14*
X-17000000Y31000000D03*
X13500000Y29000000D03*
X17000000Y18000000D03*
X-500000Y29000000D03*
X17000000Y24000000D03*
X26000000Y12000000D03*
D15*
X9000000Y19000000D03*
D14*
X6500000Y23500000D03*
X18037048Y12000000D03*
X-2000000Y18000000D03*
X-2000000Y24000000D03*
X38000000Y23000000D03*
X13000000Y21000000D03*
X8000000Y24000000D03*
X4000000Y29000000D03*
X12000000Y24000000D03*
X20000000Y23000000D03*
X13000000Y18000000D03*
X38000000Y17000000D03*
X38000000Y25000000D03*
X55000000Y12000000D03*
X20000000Y25000000D03*
X38000000Y27000000D03*
X38000000Y19000000D03*
X55000000Y4000000D03*
D15*
X-37000000Y-3000000D03*
X-43000000Y14000000D03*
X-43000000Y29000000D03*
D14*
X2000000Y18000000D03*
D15*
X-53000000Y31000000D03*
X-51000000Y31000000D03*
D14*
X25000000Y18905000D03*
X38000000Y15000000D03*
X-54500000Y24000000D03*
X-60500000Y27000000D03*
X-10000000Y21000000D03*
X34000000Y29000000D03*
X21500000Y6000000D03*
X21500000Y5000000D03*
X-10000000Y27000000D03*
X24000000Y29000000D03*
X7000000Y-8000000D03*
X-13000000Y-8000000D03*
X40500000Y7000000D03*
X-31000000Y-5000000D03*
X11500000Y2000000D03*
X7000000Y1000000D03*
X-50500000Y8500000D03*
X-45000000Y-4000000D03*
X61000000Y-2000000D03*
X-2000000Y-4000000D03*
X61000000Y0D03*
X-1000000Y-3000000D03*
X65000000Y-4000000D03*
X-3000000Y-5000000D03*
X-30000000Y15000000D03*
X-44000000Y17000000D03*
X-43000000Y19000000D03*
X-30000000Y27000000D03*
X-22000000Y27000000D03*
X-44000000Y23000000D03*
X-42000000Y25000000D03*
X-22000000Y15000000D03*
X6000000Y21000000D03*
X10000000Y25000000D03*
X-11000000Y23000000D03*
X16000000Y6000000D03*
X-10000000Y18000000D03*
X16500000Y7000000D03*
X15500000Y5000000D03*
X-10000000Y29000000D03*
X-50500000Y7500000D03*
X-7000000Y-6000000D03*
X41000000Y11000000D03*
X7000000Y5000000D03*
X7000000Y2000000D03*
X12500000Y3000000D03*
X-31000000Y-4000000D03*
X-48000000Y9000000D03*
X-50500000Y9500000D03*
X-44000000Y-4000000D03*
X40500000Y8000000D03*
X8000000Y16000000D03*
X8000000Y22000000D03*
X-6000000Y-3000000D03*
X-15000000Y-1500000D03*
X-14500000Y-4000000D03*
X-7000000Y-3000000D03*
X-17500000Y-4000000D03*
X-7000000Y-4500000D03*
D15*
X-17500000Y18500000D03*
X40000000Y23000000D03*
X-17500000Y20000000D03*
X-17500000Y15000000D03*
X-19500000Y15000000D03*
X40000000Y25000000D03*
D14*
X27950000Y30000000D03*
D15*
X40000000Y27000000D03*
D14*
X-42000000Y26000000D03*
X-24000000Y21000000D03*
X-41000000Y15000000D03*
X-28000000Y21000000D03*
X5000000Y26000000D03*
X33500000Y19500000D03*
X25000000Y16000000D03*
X13000000Y23000000D03*
X-47000000Y-4000000D03*
X-4000000Y-2000000D03*
X-52500000Y2000000D03*
X-56062500Y5500000D03*
X4000000Y7450000D03*
X-56062500Y6500000D03*
X-52500000Y4000000D03*
X4000000Y6550000D03*
X-5821000Y6000000D03*
X-60000000Y16000000D03*
X-60000000Y18000000D03*
X-6410500Y7000000D03*
X-7000000Y8000000D03*
X-60000000Y20000000D03*
X-5000000Y5000000D03*
X-60000000Y14000000D03*
X28000000Y20000000D03*
X-18000000Y10000000D03*
X-11000000Y10000000D03*
X26000000Y20000000D03*
X-18000000Y2000000D03*
G04 #@! TA.AperFunction,Conductor*
G36*
X488873Y-487453D02*
G01*
X550578Y-549157D01*
X791422Y-790000D01*
X780254Y-790000D01*
X722355Y-805514D01*
X665514Y-862354D01*
X647640Y-929060D01*
X411127Y-692547D01*
X401409Y-682830D01*
X108579Y-390000D01*
X119746Y-390000D01*
X177645Y-374486D01*
X234486Y-317646D01*
X252359Y-250938D01*
X488873Y-487453D01*
G37*
G04 #@! TD.AperFunction*
G04 #@! TA.AperFunction,Conductor*
G36*
X665514Y382355D02*
G01*
X722355Y325514D01*
X780254Y310000D01*
X791421Y310000D01*
X490801Y9383D01*
X490796Y9376D01*
X488890Y7469D01*
X252359Y-229061D01*
X234486Y-162355D01*
X177645Y-105514D01*
X119746Y-90000D01*
X108578Y-90000D01*
X382691Y184114D01*
X411128Y212549D01*
X647639Y449062D01*
X665514Y382355D01*
G37*
G04 #@! TD.AperFunction*
G04 #@! TA.AperFunction,Conductor*
G36*
X1365514Y-317645D02*
G01*
X1422355Y-374486D01*
X1480254Y-390000D01*
X1491421Y-390000D01*
X1190801Y-690617D01*
X1190796Y-690624D01*
X1188890Y-692531D01*
X952359Y-929060D01*
X934486Y-862355D01*
X877645Y-805514D01*
X819746Y-790000D01*
X808578Y-790000D01*
X1082691Y-515886D01*
X1111128Y-487451D01*
X1347639Y-250938D01*
X1365514Y-317645D01*
G37*
G04 #@! TD.AperFunction*
G04 #@! TA.AperFunction,Conductor*
G36*
X1888873Y-487452D02*
G01*
X2191422Y-790000D01*
X2180254Y-790000D01*
X2122355Y-805514D01*
X2065514Y-862354D01*
X2047640Y-929060D01*
X1811127Y-692547D01*
X1801409Y-682830D01*
X1508579Y-390000D01*
X1519746Y-390000D01*
X1577645Y-374486D01*
X1634486Y-317646D01*
X1652360Y-250938D01*
X1888873Y-487452D01*
G37*
G04 #@! TD.AperFunction*
G04 #@! TA.AperFunction,Conductor*
G36*
X665514Y1782355D02*
G01*
X722355Y1725514D01*
X780254Y1710000D01*
X791421Y1710000D01*
X490801Y1409383D01*
X490796Y1409376D01*
X488890Y1407469D01*
X252359Y1170940D01*
X234486Y1237645D01*
X177645Y1294486D01*
X119746Y1310000D01*
X108578Y1310000D01*
X382691Y1584114D01*
X411128Y1612549D01*
X647639Y1849062D01*
X665514Y1782355D01*
G37*
G04 #@! TD.AperFunction*
G04 #@! TA.AperFunction,Conductor*
G36*
X1365514Y1082355D02*
G01*
X1422355Y1025514D01*
X1480254Y1010000D01*
X1491421Y1010000D01*
X1190801Y709383D01*
X1190796Y709376D01*
X1188890Y707469D01*
X952359Y470939D01*
X934486Y537645D01*
X877645Y594486D01*
X819746Y610000D01*
X808578Y610000D01*
X1082691Y884114D01*
X1111128Y912549D01*
X1347639Y1149062D01*
X1365514Y1082355D01*
G37*
G04 #@! TD.AperFunction*
G04 #@! TA.AperFunction,Conductor*
G36*
X2065514Y382355D02*
G01*
X2122355Y325514D01*
X2180254Y310000D01*
X2191421Y310000D01*
X1890801Y9383D01*
X1890796Y9376D01*
X1888890Y7469D01*
X1652359Y-229060D01*
X1634486Y-162355D01*
X1577645Y-105514D01*
X1519746Y-90000D01*
X1508576Y-90000D01*
X1780271Y181694D01*
X1811127Y212548D01*
X2047639Y449062D01*
X2065514Y382355D01*
G37*
G04 #@! TD.AperFunction*
G04 #@! TA.AperFunction,Conductor*
G36*
X2765514Y-317645D02*
G01*
X2822355Y-374486D01*
X2880254Y-390000D01*
X2891421Y-390000D01*
X2590801Y-690617D01*
X2590796Y-690624D01*
X2588890Y-692531D01*
X2352359Y-929060D01*
X2334486Y-862355D01*
X2277645Y-805514D01*
X2219746Y-790000D01*
X2208578Y-790000D01*
X2482691Y-515886D01*
X2511128Y-487451D01*
X2747639Y-250938D01*
X2765514Y-317645D01*
G37*
G04 #@! TD.AperFunction*
G04 #@! TA.AperFunction,Conductor*
G36*
X1188873Y212547D02*
G01*
X1250578Y150843D01*
X1491422Y-90000D01*
X1480254Y-90000D01*
X1422355Y-105514D01*
X1365514Y-162354D01*
X1347640Y-229060D01*
X1111127Y7452D01*
X1109220Y9358D01*
X1109217Y9363D01*
X808579Y310000D01*
X819746Y310000D01*
X877645Y325514D01*
X934486Y382354D01*
X952359Y449062D01*
X1188873Y212547D01*
G37*
G04 #@! TD.AperFunction*
G04 #@! TA.AperFunction,Conductor*
G36*
X2588873Y212547D02*
G01*
X2650578Y150843D01*
X2891422Y-90000D01*
X2880254Y-90000D01*
X2822355Y-105514D01*
X2765514Y-162354D01*
X2747640Y-229060D01*
X2511127Y7453D01*
X2501409Y17170D01*
X2208579Y310000D01*
X2219746Y310000D01*
X2277645Y325514D01*
X2334486Y382354D01*
X2352359Y449062D01*
X2588873Y212547D01*
G37*
G04 #@! TD.AperFunction*
G04 #@! TA.AperFunction,Conductor*
G36*
X2065514Y1782355D02*
G01*
X2122355Y1725514D01*
X2180254Y1710000D01*
X2191421Y1710000D01*
X1890801Y1409383D01*
X1890796Y1409376D01*
X1888890Y1407469D01*
X1652359Y1170939D01*
X1634486Y1237645D01*
X1577645Y1294486D01*
X1519746Y1310000D01*
X1508578Y1310000D01*
X1782691Y1584114D01*
X1811128Y1612549D01*
X2047639Y1849062D01*
X2065514Y1782355D01*
G37*
G04 #@! TD.AperFunction*
G04 #@! TA.AperFunction,Conductor*
G36*
X2765514Y1082355D02*
G01*
X2822355Y1025514D01*
X2880254Y1010000D01*
X2891421Y1010000D01*
X2590801Y709383D01*
X2590796Y709376D01*
X2588890Y707469D01*
X2352359Y470939D01*
X2334486Y537645D01*
X2277645Y594486D01*
X2219746Y610000D01*
X2208578Y610000D01*
X2482691Y884114D01*
X2511128Y912549D01*
X2747639Y1149062D01*
X2765514Y1082355D01*
G37*
G04 #@! TD.AperFunction*
G04 #@! TA.AperFunction,Conductor*
G36*
X488873Y912548D02*
G01*
X791422Y610000D01*
X780254Y610000D01*
X722355Y594486D01*
X665514Y537646D01*
X647640Y470940D01*
X411127Y707453D01*
X401409Y717170D01*
X108579Y1010000D01*
X119746Y1010000D01*
X177645Y1025514D01*
X234486Y1082354D01*
X252360Y1149062D01*
X488873Y912548D01*
G37*
G04 #@! TD.AperFunction*
G04 #@! TA.AperFunction,Conductor*
G36*
X1888873Y912547D02*
G01*
X1950578Y850843D01*
X2191422Y610000D01*
X2180254Y610000D01*
X2122355Y594486D01*
X2065514Y537646D01*
X2047640Y470940D01*
X1811127Y707453D01*
X1801409Y717170D01*
X1508579Y1010000D01*
X1519746Y1010000D01*
X1577645Y1025514D01*
X1634486Y1082354D01*
X1652359Y1149062D01*
X1888873Y912547D01*
G37*
G04 #@! TD.AperFunction*
G04 #@! TA.AperFunction,Conductor*
G36*
X1188873Y1612548D02*
G01*
X1491422Y1310000D01*
X1480254Y1310000D01*
X1422355Y1294486D01*
X1365514Y1237646D01*
X1347640Y1170940D01*
X1111127Y1407453D01*
X1088582Y1429997D01*
X808579Y1710000D01*
X819746Y1710000D01*
X877645Y1725514D01*
X934486Y1782354D01*
X952360Y1849062D01*
X1188873Y1612548D01*
G37*
G04 #@! TD.AperFunction*
G04 #@! TA.AperFunction,Conductor*
G36*
X2588873Y1612547D02*
G01*
X2650578Y1550843D01*
X2891422Y1310000D01*
X2880254Y1310000D01*
X2822355Y1294486D01*
X2765514Y1237646D01*
X2747640Y1170940D01*
X2511127Y1407452D01*
X2509220Y1409358D01*
X2509217Y1409363D01*
X2208579Y1710000D01*
X2219746Y1710000D01*
X2277645Y1725514D01*
X2334486Y1782354D01*
X2352359Y1849062D01*
X2588873Y1612547D01*
G37*
G04 #@! TD.AperFunction*
G04 #@! TA.AperFunction,Conductor*
G36*
X66003234Y32974289D02*
G01*
X66251254Y32958033D01*
X66264078Y32956344D01*
X66504679Y32908486D01*
X66517179Y32905137D01*
X66749474Y32826283D01*
X66761421Y32821334D01*
X66949345Y32728660D01*
X66981430Y32712837D01*
X66992645Y32706362D01*
X67196605Y32570080D01*
X67206878Y32562197D01*
X67391303Y32400461D01*
X67400460Y32391304D01*
X67562196Y32206879D01*
X67570079Y32196606D01*
X67706361Y31992646D01*
X67712836Y31981431D01*
X67821329Y31761430D01*
X67826285Y31749466D01*
X67905134Y31517185D01*
X67908486Y31504676D01*
X67956342Y31264087D01*
X67958032Y31251248D01*
X67974288Y31003236D01*
X67974500Y30996761D01*
X67974500Y-12996759D01*
X67974288Y-13003234D01*
X67958032Y-13251247D01*
X67956342Y-13264086D01*
X67908486Y-13504675D01*
X67905134Y-13517184D01*
X67826285Y-13749465D01*
X67821329Y-13761429D01*
X67712836Y-13981430D01*
X67706361Y-13992645D01*
X67570079Y-14196605D01*
X67562196Y-14206878D01*
X67400460Y-14391303D01*
X67391303Y-14400460D01*
X67206878Y-14562196D01*
X67196605Y-14570079D01*
X66992645Y-14706361D01*
X66981430Y-14712836D01*
X66761429Y-14821329D01*
X66749465Y-14826285D01*
X66517184Y-14905134D01*
X66504675Y-14908486D01*
X66264086Y-14956342D01*
X66251247Y-14958032D01*
X66003235Y-14974288D01*
X65996760Y-14974500D01*
X26003240Y-14974500D01*
X25996765Y-14974288D01*
X25748752Y-14958032D01*
X25735913Y-14956342D01*
X25495324Y-14908486D01*
X25482815Y-14905134D01*
X25250534Y-14826285D01*
X25238570Y-14821329D01*
X25236917Y-14820514D01*
X25210817Y-14807643D01*
X25018569Y-14712836D01*
X25007354Y-14706361D01*
X24803394Y-14570079D01*
X24793121Y-14562196D01*
X24608696Y-14400460D01*
X24599539Y-14391303D01*
X24437803Y-14206878D01*
X24429920Y-14196605D01*
X24293638Y-13992645D01*
X24287163Y-13981430D01*
X24203578Y-13811937D01*
X24178666Y-13761421D01*
X24173717Y-13749474D01*
X24094863Y-13517179D01*
X24091513Y-13504675D01*
X24043657Y-13264086D01*
X24041967Y-13251247D01*
X24040077Y-13222417D01*
X24025712Y-13003234D01*
X24025500Y-12996759D01*
X24025500Y-10870482D01*
X24025500Y-10867242D01*
X24000847Y-10679984D01*
X24000000Y-10667062D01*
X24000000Y-8750001D01*
X24000000Y-8750000D01*
X7031173Y-8750000D01*
X7003820Y-8741112D01*
X6968827Y-8750000D01*
X-12968827Y-8750000D01*
X-12996180Y-8741112D01*
X-13031173Y-8750000D01*
X-24000000Y-8750000D01*
X-24000000Y-8750001D01*
X-24000000Y-10667062D01*
X-24000847Y-10679984D01*
X-24025500Y-10867242D01*
X-24025501Y-10870468D01*
X-24025501Y-10870483D01*
X-24025501Y-11014616D01*
X-24025500Y-11014621D01*
X-24025500Y-12996759D01*
X-24025712Y-13003234D01*
X-24041968Y-13251247D01*
X-24043658Y-13264086D01*
X-24091514Y-13504675D01*
X-24094866Y-13517184D01*
X-24173715Y-13749465D01*
X-24178671Y-13761429D01*
X-24287164Y-13981430D01*
X-24293639Y-13992645D01*
X-24429921Y-14196605D01*
X-24437804Y-14206878D01*
X-24599540Y-14391303D01*
X-24608697Y-14400460D01*
X-24793122Y-14562196D01*
X-24803395Y-14570079D01*
X-25007355Y-14706361D01*
X-25018570Y-14712836D01*
X-25238571Y-14821329D01*
X-25250535Y-14826285D01*
X-25482816Y-14905134D01*
X-25495325Y-14908486D01*
X-25735914Y-14956342D01*
X-25748753Y-14958032D01*
X-25996765Y-14974288D01*
X-26003240Y-14974500D01*
X-62996760Y-14974500D01*
X-63003235Y-14974288D01*
X-63251248Y-14958032D01*
X-63264087Y-14956342D01*
X-63504676Y-14908486D01*
X-63517185Y-14905134D01*
X-63749466Y-14826285D01*
X-63761430Y-14821329D01*
X-63763083Y-14820514D01*
X-63789183Y-14807643D01*
X-63981431Y-14712836D01*
X-63992646Y-14706361D01*
X-64196606Y-14570079D01*
X-64206879Y-14562196D01*
X-64391304Y-14400460D01*
X-64400461Y-14391303D01*
X-64562197Y-14206878D01*
X-64570080Y-14196605D01*
X-64706362Y-13992645D01*
X-64712837Y-13981430D01*
X-64796422Y-13811937D01*
X-64821334Y-13761421D01*
X-64826283Y-13749474D01*
X-64905137Y-13517179D01*
X-64908487Y-13504675D01*
X-64956343Y-13264086D01*
X-64958033Y-13251247D01*
X-64959923Y-13222417D01*
X-64974288Y-13003234D01*
X-64974500Y-12996759D01*
X-64974500Y-12954989D01*
X-63830156Y-12954989D01*
X-63820422Y-13134504D01*
X-63772329Y-13307718D01*
X-63772328Y-13307720D01*
X-63772327Y-13307723D01*
X-63688119Y-13466556D01*
X-63645115Y-13517184D01*
X-63571735Y-13603574D01*
X-63428620Y-13712368D01*
X-63428619Y-13712368D01*
X-63428618Y-13712369D01*
X-63265459Y-13787854D01*
X-63177673Y-13807176D01*
X-63089889Y-13826500D01*
X-63089887Y-13826500D01*
X-62957864Y-13826500D01*
X-62955184Y-13826500D01*
X-62821279Y-13811937D01*
X-62650915Y-13754535D01*
X-62496874Y-13661851D01*
X-62496874Y-13661850D01*
X-62496871Y-13661849D01*
X-62366360Y-13538222D01*
X-62366360Y-13538221D01*
X-62366358Y-13538220D01*
X-62265471Y-13389423D01*
X-62198930Y-13222416D01*
X-62169845Y-13045010D01*
X-62179578Y-12865499D01*
X-62227673Y-12692277D01*
X-62311881Y-12533444D01*
X-62428265Y-12396426D01*
X-62428266Y-12396425D01*
X-62571381Y-12287631D01*
X-62662523Y-12245465D01*
X-62734541Y-12212146D01*
X-62734543Y-12212145D01*
X-62734544Y-12212145D01*
X-62910111Y-12173500D01*
X-62910113Y-12173500D01*
X-63044816Y-12173500D01*
X-63047469Y-12173788D01*
X-63047478Y-12173789D01*
X-63178721Y-12188062D01*
X-63349086Y-12245465D01*
X-63503130Y-12338150D01*
X-63633641Y-12461777D01*
X-63734530Y-12610577D01*
X-63801070Y-12777582D01*
X-63830156Y-12954989D01*
X-64974500Y-12954989D01*
X-64974500Y-8999999D01*
X-50555250Y-8999999D01*
X-50536331Y-9143709D01*
X-50497108Y-9238401D01*
X-50480861Y-9277625D01*
X-50442550Y-9327552D01*
X-50392622Y-9392621D01*
X-50342694Y-9430932D01*
X-50277625Y-9480861D01*
X-50182933Y-9520083D01*
X-50143710Y-9536330D01*
X-50126992Y-9538531D01*
X-50000000Y-9555250D01*
X-49856291Y-9536330D01*
X-49722375Y-9480861D01*
X-49607379Y-9392621D01*
X-49519139Y-9277625D01*
X-49463670Y-9143709D01*
X-49444750Y-9000000D01*
X-48555250Y-9000000D01*
X-48536331Y-9143709D01*
X-48497108Y-9238401D01*
X-48480861Y-9277625D01*
X-48442550Y-9327552D01*
X-48392622Y-9392621D01*
X-48342694Y-9430932D01*
X-48277625Y-9480861D01*
X-48182933Y-9520083D01*
X-48143710Y-9536330D01*
X-48126992Y-9538531D01*
X-48000000Y-9555250D01*
X-47856291Y-9536330D01*
X-47722375Y-9480861D01*
X-47607379Y-9392621D01*
X-47519139Y-9277625D01*
X-47463670Y-9143709D01*
X-47444750Y-9000000D01*
X-47463670Y-8856291D01*
X-47519139Y-8722375D01*
X-47569068Y-8657306D01*
X-47607379Y-8607378D01*
X-47672448Y-8557450D01*
X-47722375Y-8519139D01*
X-47761599Y-8502892D01*
X-47856291Y-8463669D01*
X-48000000Y-8444750D01*
X-48143710Y-8463669D01*
X-48277625Y-8519139D01*
X-48392622Y-8607378D01*
X-48480861Y-8722375D01*
X-48536331Y-8856290D01*
X-48555250Y-9000000D01*
X-49444750Y-9000000D01*
X-49463670Y-8856291D01*
X-49519139Y-8722375D01*
X-49569068Y-8657306D01*
X-49607379Y-8607378D01*
X-49672448Y-8557450D01*
X-49722375Y-8519139D01*
X-49761599Y-8502892D01*
X-49856291Y-8463669D01*
X-50000000Y-8444750D01*
X-50143710Y-8463669D01*
X-50277625Y-8519139D01*
X-50392622Y-8607378D01*
X-50480861Y-8722375D01*
X-50536331Y-8856290D01*
X-50555250Y-8999999D01*
X-64974500Y-8999999D01*
X-64974500Y-7583661D01*
X-17765607Y-7583661D01*
X-17735333Y-7755355D01*
X-17666280Y-7915436D01*
X-17666279Y-7915438D01*
X-17562168Y-8055283D01*
X-17486230Y-8119003D01*
X-17428617Y-8167347D01*
X-17428616Y-8167347D01*
X-17428614Y-8167349D01*
X-17272815Y-8245594D01*
X-17272814Y-8245594D01*
X-17272812Y-8245595D01*
X-17103173Y-8285800D01*
X-17103171Y-8285800D01*
X-16975448Y-8285800D01*
X-16972564Y-8285800D01*
X-16842836Y-8270637D01*
X-16679007Y-8211008D01*
X-16533346Y-8115205D01*
X-16413704Y-7988393D01*
X-16326533Y-7837407D01*
X-16276531Y-7670388D01*
X-16271479Y-7583661D01*
X-15733607Y-7583661D01*
X-15703333Y-7755355D01*
X-15634280Y-7915436D01*
X-15634279Y-7915438D01*
X-15530168Y-8055283D01*
X-15454230Y-8119003D01*
X-15396617Y-8167347D01*
X-15396616Y-8167347D01*
X-15396614Y-8167349D01*
X-15240815Y-8245594D01*
X-15240814Y-8245594D01*
X-15240812Y-8245595D01*
X-15071173Y-8285800D01*
X-15071171Y-8285800D01*
X-14943448Y-8285800D01*
X-14940564Y-8285800D01*
X-14810836Y-8270637D01*
X-14647007Y-8211008D01*
X-14501346Y-8115205D01*
X-14392655Y-8000000D01*
X-13555250Y-8000000D01*
X-13536331Y-8143709D01*
X-13497108Y-8238401D01*
X-13480861Y-8277625D01*
X-13442550Y-8327552D01*
X-13392622Y-8392621D01*
X-13342694Y-8430932D01*
X-13277625Y-8480861D01*
X-13185212Y-8519139D01*
X-13143710Y-8536330D01*
X-13088156Y-8543643D01*
X-13018251Y-8552847D01*
X-13001626Y-8560776D01*
X-12981750Y-8552847D01*
X-12856291Y-8536330D01*
X-12722375Y-8480861D01*
X-12607379Y-8392621D01*
X-12519139Y-8277625D01*
X-12463670Y-8143709D01*
X-12444750Y-8000000D01*
X6444750Y-8000000D01*
X6463669Y-8143709D01*
X6502892Y-8238401D01*
X6519139Y-8277625D01*
X6557450Y-8327552D01*
X6607378Y-8392621D01*
X6657306Y-8430932D01*
X6722375Y-8480861D01*
X6814788Y-8519139D01*
X6856290Y-8536330D01*
X6911844Y-8543643D01*
X6981749Y-8552847D01*
X6998374Y-8560776D01*
X7018250Y-8552847D01*
X7143709Y-8536330D01*
X7277625Y-8480861D01*
X7392621Y-8392621D01*
X7480861Y-8277625D01*
X7536330Y-8143709D01*
X7555250Y-8000000D01*
X7536330Y-7856291D01*
X7480861Y-7722375D01*
X7430932Y-7657306D01*
X7392621Y-7607378D01*
X7327552Y-7557450D01*
X7277625Y-7519139D01*
X7222578Y-7496338D01*
X7143709Y-7463669D01*
X7000000Y-7444750D01*
X6856290Y-7463669D01*
X6722375Y-7519139D01*
X6607378Y-7607378D01*
X6519139Y-7722375D01*
X6463669Y-7856290D01*
X6444750Y-8000000D01*
X-12444750Y-8000000D01*
X-12463670Y-7856291D01*
X-12519139Y-7722375D01*
X-12569068Y-7657306D01*
X-12607379Y-7607378D01*
X-12672448Y-7557450D01*
X-12722375Y-7519139D01*
X-12777422Y-7496338D01*
X-12856291Y-7463669D01*
X-13000000Y-7444750D01*
X-13143710Y-7463669D01*
X-13277625Y-7519139D01*
X-13392622Y-7607378D01*
X-13480861Y-7722375D01*
X-13536331Y-7856290D01*
X-13555250Y-8000000D01*
X-14392655Y-8000000D01*
X-14381704Y-7988393D01*
X-14294533Y-7837407D01*
X-14244531Y-7670388D01*
X-14234393Y-7496340D01*
X-14261343Y-7343503D01*
X27876090Y-7343503D01*
X27895656Y-7517163D01*
X27927225Y-7607378D01*
X27953375Y-7682109D01*
X28046350Y-7830079D01*
X28169921Y-7953650D01*
X28317891Y-8046625D01*
X28482840Y-8104344D01*
X28612945Y-8119003D01*
X28615712Y-8119003D01*
X28697282Y-8119003D01*
X28700049Y-8119003D01*
X28830154Y-8104344D01*
X28995103Y-8046625D01*
X29143073Y-7953650D01*
X29266644Y-7830079D01*
X29359619Y-7682109D01*
X29417338Y-7517160D01*
X29436904Y-7343503D01*
X29417338Y-7169846D01*
X29415489Y-7164563D01*
X29392679Y-7099377D01*
X29359619Y-7004897D01*
X29266644Y-6856927D01*
X29143073Y-6733356D01*
X28995103Y-6640381D01*
X28984150Y-6636548D01*
X28830156Y-6582662D01*
X28702794Y-6568312D01*
X28702789Y-6568311D01*
X28700049Y-6568003D01*
X28612945Y-6568003D01*
X28610205Y-6568311D01*
X28610199Y-6568312D01*
X28482837Y-6582662D01*
X28317893Y-6640380D01*
X28169922Y-6733355D01*
X28046349Y-6856928D01*
X28011336Y-6912652D01*
X27956643Y-6999697D01*
X27953374Y-7004899D01*
X27895656Y-7169842D01*
X27876090Y-7343503D01*
X-14261343Y-7343503D01*
X-14264668Y-7324646D01*
X-14264668Y-7324644D01*
X-14331442Y-7169846D01*
X-14333721Y-7164562D01*
X-14437832Y-7024717D01*
X-14509686Y-6964424D01*
X-14571384Y-6912652D01*
X-14727189Y-6834404D01*
X-14896827Y-6794200D01*
X-14896829Y-6794200D01*
X-15027436Y-6794200D01*
X-15030292Y-6794533D01*
X-15030296Y-6794534D01*
X-15157164Y-6809363D01*
X-15320995Y-6868992D01*
X-15466654Y-6964794D01*
X-15586296Y-7091606D01*
X-15673467Y-7242593D01*
X-15723469Y-7409611D01*
X-15733607Y-7583661D01*
X-16271479Y-7583661D01*
X-16266393Y-7496340D01*
X-16296668Y-7324646D01*
X-16296668Y-7324644D01*
X-16363442Y-7169846D01*
X-16365721Y-7164562D01*
X-16469832Y-7024717D01*
X-16541686Y-6964424D01*
X-16603384Y-6912652D01*
X-16759189Y-6834404D01*
X-16928827Y-6794200D01*
X-16928829Y-6794200D01*
X-17059436Y-6794200D01*
X-17062292Y-6794533D01*
X-17062296Y-6794534D01*
X-17189164Y-6809363D01*
X-17352995Y-6868992D01*
X-17498654Y-6964794D01*
X-17618296Y-7091606D01*
X-17705467Y-7242593D01*
X-17755469Y-7409611D01*
X-17765607Y-7583661D01*
X-64974500Y-7583661D01*
X-64974500Y-6000000D01*
X-21555250Y-6000000D01*
X-21536331Y-6143709D01*
X-21512587Y-6201031D01*
X-21480861Y-6277625D01*
X-21442550Y-6327552D01*
X-21392622Y-6392621D01*
X-21351494Y-6424179D01*
X-21277625Y-6480861D01*
X-21182933Y-6520083D01*
X-21143710Y-6536330D01*
X-21124791Y-6538820D01*
X-21000000Y-6555250D01*
X-20856291Y-6536330D01*
X-20722375Y-6480861D01*
X-20607379Y-6392621D01*
X-20519139Y-6277625D01*
X-20463670Y-6143709D01*
X-20444750Y-6000000D01*
X-20463670Y-5856291D01*
X-20505977Y-5754152D01*
X-19977950Y-5754152D01*
X-19970471Y-5798968D01*
X-19938727Y-5989204D01*
X-19915296Y-6057456D01*
X-19861349Y-6214597D01*
X-19747929Y-6424179D01*
X-19601560Y-6612235D01*
X-19426234Y-6773633D01*
X-19226734Y-6903973D01*
X-19226729Y-6903975D01*
X-19088921Y-6964424D01*
X-19008502Y-6999699D01*
X-18777490Y-7058199D01*
X-18599472Y-7072950D01*
X-18597438Y-7072950D01*
X-18482562Y-7072950D01*
X-18480528Y-7072950D01*
X-18302510Y-7058199D01*
X-18071498Y-6999699D01*
X-17853266Y-6903973D01*
X-17653766Y-6773633D01*
X-17478440Y-6612235D01*
X-17332071Y-6424179D01*
X-17218651Y-6214597D01*
X-17141274Y-5989206D01*
X-17102050Y-5754152D01*
X-17102050Y-5515848D01*
X-17141274Y-5280794D01*
X-17218651Y-5055403D01*
X-17332071Y-4845821D01*
X-17385150Y-4777625D01*
X-17446655Y-4698602D01*
X-17467476Y-4641068D01*
X-17450503Y-4582284D01*
X-17402219Y-4544703D01*
X-17381453Y-4539642D01*
X-17356291Y-4536330D01*
X-17222375Y-4480861D01*
X-17107379Y-4392621D01*
X-17019139Y-4277625D01*
X-16963670Y-4143709D01*
X-16944750Y-4000000D01*
X-16963670Y-3856291D01*
X-17019139Y-3722375D01*
X-17090162Y-3629816D01*
X-17107379Y-3607378D01*
X-17222375Y-3519139D01*
X-17344168Y-3468691D01*
X-17390693Y-3428954D01*
X-17404977Y-3369459D01*
X-17384408Y-3316421D01*
X-17332071Y-3249179D01*
X-17218651Y-3039597D01*
X-17141274Y-2814206D01*
X-17102050Y-2579152D01*
X-17102050Y-2340848D01*
X-17131061Y-2166998D01*
X-17121989Y-2106491D01*
X-17079084Y-2062870D01*
X-17020491Y-2052552D01*
X-17000000Y-2055250D01*
X-16856291Y-2036330D01*
X-16810664Y-2017430D01*
X-16749671Y-2012630D01*
X-16697502Y-2044599D01*
X-16674086Y-2101126D01*
X-16687041Y-2158389D01*
X-16689466Y-2162588D01*
X-16739469Y-2329611D01*
X-16749607Y-2503661D01*
X-16719333Y-2675355D01*
X-16659438Y-2814206D01*
X-16650279Y-2835438D01*
X-16546168Y-2975283D01*
X-16474756Y-3035205D01*
X-16412617Y-3087347D01*
X-16412616Y-3087347D01*
X-16412614Y-3087349D01*
X-16256815Y-3165594D01*
X-16256814Y-3165594D01*
X-16256812Y-3165595D01*
X-16087173Y-3205800D01*
X-16087171Y-3205800D01*
X-15959448Y-3205800D01*
X-15956564Y-3205800D01*
X-15826836Y-3190637D01*
X-15663007Y-3131008D01*
X-15517346Y-3035205D01*
X-15397704Y-2908393D01*
X-15310533Y-2757407D01*
X-15260531Y-2590388D01*
X-15250393Y-2416340D01*
X-15280668Y-2244646D01*
X-15280668Y-2244644D01*
X-15323221Y-2145996D01*
X-15328909Y-2085076D01*
X-15297702Y-2032447D01*
X-15241520Y-2008213D01*
X-15194433Y-2015319D01*
X-15143709Y-2036330D01*
X-15000000Y-2055250D01*
X-14979512Y-2052552D01*
X-14919353Y-2063701D01*
X-14877235Y-2108083D01*
X-14868940Y-2167000D01*
X-14897950Y-2340848D01*
X-14897950Y-2579152D01*
X-14886969Y-2644959D01*
X-14858727Y-2814204D01*
X-14781349Y-3039597D01*
X-14667929Y-3249179D01*
X-14615594Y-3316420D01*
X-14594773Y-3373954D01*
X-14611746Y-3432738D01*
X-14655833Y-3468691D01*
X-14777626Y-3519139D01*
X-14892622Y-3607378D01*
X-14980861Y-3722375D01*
X-15036331Y-3856290D01*
X-15055250Y-4000000D01*
X-15036331Y-4143709D01*
X-15008126Y-4211801D01*
X-14980861Y-4277625D01*
X-14949363Y-4318674D01*
X-14892622Y-4392621D01*
X-14855040Y-4421458D01*
X-14777625Y-4480861D01*
X-14643709Y-4536330D01*
X-14618550Y-4539642D01*
X-14563325Y-4565982D01*
X-14534129Y-4619752D01*
X-14542114Y-4680414D01*
X-14553346Y-4698601D01*
X-14667927Y-4845816D01*
X-14781349Y-5055402D01*
X-14858727Y-5280795D01*
X-14886086Y-5444750D01*
X-14897950Y-5515848D01*
X-14897950Y-5754152D01*
X-14890471Y-5798968D01*
X-14858727Y-5989204D01*
X-14835296Y-6057456D01*
X-14781349Y-6214597D01*
X-14667929Y-6424179D01*
X-14521560Y-6612235D01*
X-14346234Y-6773633D01*
X-14146734Y-6903973D01*
X-14146729Y-6903975D01*
X-14008921Y-6964424D01*
X-13928502Y-6999699D01*
X-13697490Y-7058199D01*
X-13519472Y-7072950D01*
X-13517438Y-7072950D01*
X-13402562Y-7072950D01*
X-13400528Y-7072950D01*
X-13222510Y-7058199D01*
X-12991498Y-6999699D01*
X-12773266Y-6903973D01*
X-12573766Y-6773633D01*
X-12398440Y-6612235D01*
X-12252071Y-6424179D01*
X-12138651Y-6214597D01*
X-12064980Y-6000000D01*
X-7555250Y-6000000D01*
X-7536331Y-6143709D01*
X-7512587Y-6201031D01*
X-7480861Y-6277625D01*
X-7442550Y-6327552D01*
X-7392622Y-6392621D01*
X-7351494Y-6424179D01*
X-7277625Y-6480861D01*
X-7182933Y-6520083D01*
X-7143710Y-6536330D01*
X-7126992Y-6538531D01*
X-7000000Y-6555250D01*
X-6856291Y-6536330D01*
X-6722375Y-6480861D01*
X-6607379Y-6392621D01*
X-6519139Y-6277625D01*
X-6463670Y-6143709D01*
X-6444750Y-6000000D01*
X-6446067Y-5990000D01*
X10184435Y-5990000D01*
X10204632Y-6169258D01*
X10245123Y-6284973D01*
X10264211Y-6339522D01*
X10360184Y-6492262D01*
X10487738Y-6619816D01*
X10640478Y-6715789D01*
X10748851Y-6753710D01*
X10810741Y-6775367D01*
X10810742Y-6775367D01*
X10810745Y-6775368D01*
X10990000Y-6795565D01*
X11169255Y-6775368D01*
X11339522Y-6715789D01*
X11492262Y-6619816D01*
X11619816Y-6492262D01*
X11715789Y-6339522D01*
X11775368Y-6169255D01*
X11794438Y-6000000D01*
X20194435Y-6000000D01*
X20214632Y-6179258D01*
X20251624Y-6284973D01*
X20274211Y-6349522D01*
X20370184Y-6502262D01*
X20497738Y-6629816D01*
X20650478Y-6725789D01*
X20758851Y-6763710D01*
X20820741Y-6785367D01*
X20820742Y-6785367D01*
X20820745Y-6785368D01*
X21000000Y-6805565D01*
X21179255Y-6785368D01*
X21349522Y-6725789D01*
X21502262Y-6629816D01*
X21629816Y-6502262D01*
X21725789Y-6349522D01*
X21785368Y-6179255D01*
X21799092Y-6057454D01*
X46720633Y-6057454D01*
X46751452Y-6284971D01*
X46822401Y-6503330D01*
X46931200Y-6705512D01*
X47074345Y-6885012D01*
X47105981Y-6912651D01*
X47247249Y-7036072D01*
X47444344Y-7153831D01*
X47659298Y-7234505D01*
X47885203Y-7275500D01*
X48055064Y-7275500D01*
X48057287Y-7275500D01*
X48228670Y-7260075D01*
X48449990Y-7198995D01*
X48656848Y-7099378D01*
X48842593Y-6964425D01*
X49001257Y-6798476D01*
X49127740Y-6606863D01*
X49217976Y-6395744D01*
X49269066Y-6171907D01*
X49276786Y-6000000D01*
X51144537Y-6000000D01*
X51164337Y-6201031D01*
X51222976Y-6394341D01*
X51318200Y-6572492D01*
X51346408Y-6606863D01*
X51446353Y-6728647D01*
X51544706Y-6809363D01*
X51602507Y-6856799D01*
X51780658Y-6952023D01*
X51877313Y-6981342D01*
X51973967Y-7010662D01*
X52124620Y-7025500D01*
X52127059Y-7025500D01*
X52872941Y-7025500D01*
X52875380Y-7025500D01*
X53026033Y-7010662D01*
X53219341Y-6952023D01*
X53397494Y-6856798D01*
X53553647Y-6728647D01*
X53681798Y-6572494D01*
X53777023Y-6394341D01*
X53835662Y-6201033D01*
X53855462Y-6000000D01*
X53835662Y-5798967D01*
X53777545Y-5607379D01*
X53777023Y-5605658D01*
X53681799Y-5427507D01*
X53626548Y-5360184D01*
X53553647Y-5271353D01*
X53397494Y-5143202D01*
X53397495Y-5143202D01*
X53397492Y-5143200D01*
X53219341Y-5047976D01*
X53026031Y-4989337D01*
X52877812Y-4974739D01*
X52877801Y-4974738D01*
X52875380Y-4974500D01*
X52124620Y-4974500D01*
X52122199Y-4974738D01*
X52122187Y-4974739D01*
X51973968Y-4989337D01*
X51780658Y-5047976D01*
X51602507Y-5143200D01*
X51446353Y-5271353D01*
X51318200Y-5427507D01*
X51222976Y-5605658D01*
X51164337Y-5798968D01*
X51144537Y-6000000D01*
X49276786Y-6000000D01*
X49279366Y-5942544D01*
X49248547Y-5715027D01*
X49177599Y-5496670D01*
X49068801Y-5294490D01*
X49068799Y-5294487D01*
X48925654Y-5114987D01*
X48794039Y-5000000D01*
X48752751Y-4963928D01*
X48555656Y-4846169D01*
X48435315Y-4801004D01*
X48340703Y-4765495D01*
X48114797Y-4724500D01*
X47942713Y-4724500D01*
X47940510Y-4724698D01*
X47940493Y-4724699D01*
X47771330Y-4739924D01*
X47550009Y-4801004D01*
X47343151Y-4900622D01*
X47157405Y-5035575D01*
X46998746Y-5201519D01*
X46872258Y-5393140D01*
X46802970Y-5555249D01*
X46782024Y-5604256D01*
X46773756Y-5640480D01*
X46730933Y-5828095D01*
X46720633Y-6057454D01*
X21799092Y-6057454D01*
X21805565Y-6000000D01*
X21785368Y-5820745D01*
X21781867Y-5810741D01*
X21748376Y-5715028D01*
X21725789Y-5650478D01*
X21629816Y-5497738D01*
X21502262Y-5370184D01*
X21349522Y-5274211D01*
X21320941Y-5264210D01*
X21179258Y-5214632D01*
X21044813Y-5199484D01*
X21000000Y-5194435D01*
X20999999Y-5194435D01*
X20820741Y-5214632D01*
X20650480Y-5274210D01*
X20650478Y-5274210D01*
X20650478Y-5274211D01*
X20638087Y-5281997D01*
X20497739Y-5370183D01*
X20370183Y-5497739D01*
X20358804Y-5515849D01*
X20280495Y-5640478D01*
X20274210Y-5650480D01*
X20214632Y-5820741D01*
X20194435Y-6000000D01*
X11794438Y-6000000D01*
X11795565Y-5990000D01*
X11775368Y-5810745D01*
X11715789Y-5640478D01*
X11619816Y-5487738D01*
X11492262Y-5360184D01*
X11339522Y-5264211D01*
X11331815Y-5261514D01*
X11169258Y-5204632D01*
X10990000Y-5184435D01*
X10810741Y-5204632D01*
X10640480Y-5264210D01*
X10640478Y-5264210D01*
X10640478Y-5264211D01*
X10612172Y-5281997D01*
X10487739Y-5360183D01*
X10360183Y-5487739D01*
X10264210Y-5640480D01*
X10204632Y-5810741D01*
X10184435Y-5990000D01*
X-6446067Y-5990000D01*
X-6463670Y-5856291D01*
X-6519139Y-5722375D01*
X-6574308Y-5650478D01*
X-6607379Y-5607378D01*
X-6672448Y-5557450D01*
X-6722375Y-5519139D01*
X-6774042Y-5497738D01*
X-6856291Y-5463669D01*
X-6983283Y-5446951D01*
X-7000000Y-5444750D01*
X-7000001Y-5444750D01*
X-7143710Y-5463669D01*
X-7277625Y-5519139D01*
X-7392622Y-5607378D01*
X-7480861Y-5722375D01*
X-7536331Y-5856290D01*
X-7555250Y-6000000D01*
X-12064980Y-6000000D01*
X-12061274Y-5989206D01*
X-12022050Y-5754152D01*
X-12022050Y-5515848D01*
X-12061274Y-5280794D01*
X-12138651Y-5055403D01*
X-12252071Y-4845821D01*
X-12398440Y-4657765D01*
X-12569819Y-4500000D01*
X-7555250Y-4500000D01*
X-7536331Y-4643709D01*
X-7513593Y-4698602D01*
X-7480861Y-4777625D01*
X-7442550Y-4827552D01*
X-7392622Y-4892621D01*
X-7350505Y-4924938D01*
X-7277625Y-4980861D01*
X-7182933Y-5020083D01*
X-7143710Y-5036330D01*
X-7124790Y-5038820D01*
X-7000000Y-5055250D01*
X-6856291Y-5036330D01*
X-6768579Y-4999999D01*
X-3555250Y-4999999D01*
X-3536331Y-5143709D01*
X-3509293Y-5208983D01*
X-3480861Y-5277625D01*
X-3442550Y-5327552D01*
X-3392622Y-5392621D01*
X-3347158Y-5427506D01*
X-3277625Y-5480861D01*
X-3193155Y-5515849D01*
X-3143710Y-5536330D01*
X-3126992Y-5538531D01*
X-3000000Y-5555250D01*
X-2856291Y-5536330D01*
X-2722375Y-5480861D01*
X-2607379Y-5392621D01*
X-2519139Y-5277625D01*
X-2463670Y-5143709D01*
X-2444750Y-5000000D01*
X-2463670Y-4856291D01*
X-2465728Y-4851323D01*
X-2496254Y-4777625D01*
X-2519139Y-4722375D01*
X-2581528Y-4641068D01*
X-2600066Y-4616909D01*
X30714276Y-4616909D01*
X30724199Y-4774635D01*
X30765135Y-4900622D01*
X30773037Y-4924940D01*
X30855831Y-5055403D01*
X30857717Y-5058374D01*
X30972921Y-5166559D01*
X31111411Y-5242694D01*
X31264484Y-5281997D01*
X31264486Y-5281997D01*
X31379748Y-5281997D01*
X31382853Y-5281997D01*
X31500295Y-5267161D01*
X31647235Y-5208983D01*
X31775090Y-5116091D01*
X31875827Y-4994320D01*
X31943117Y-4851323D01*
X31972730Y-4696085D01*
X31962807Y-4538359D01*
X31913970Y-4388056D01*
X31839241Y-4270302D01*
X31829291Y-4254623D01*
X31829290Y-4254622D01*
X31829289Y-4254620D01*
X31714085Y-4146435D01*
X31712441Y-4145531D01*
X31575598Y-4070301D01*
X31575595Y-4070300D01*
X31422522Y-4030997D01*
X31304153Y-4030997D01*
X31301080Y-4031385D01*
X31301067Y-4031386D01*
X31186712Y-4045832D01*
X31039772Y-4104010D01*
X30911915Y-4196904D01*
X30811179Y-4318673D01*
X30743887Y-4461674D01*
X30714276Y-4616905D01*
X30714276Y-4616908D01*
X30714276Y-4616909D01*
X-2600066Y-4616909D01*
X-2607379Y-4607378D01*
X-2672448Y-4557450D01*
X-2722375Y-4519139D01*
X-2777352Y-4496367D01*
X-2856291Y-4463669D01*
X-3000000Y-4444750D01*
X-3143710Y-4463669D01*
X-3277625Y-4519139D01*
X-3392622Y-4607378D01*
X-3480861Y-4722375D01*
X-3536331Y-4856290D01*
X-3555250Y-4999999D01*
X-6768579Y-4999999D01*
X-6722375Y-4980861D01*
X-6607379Y-4892621D01*
X-6519139Y-4777625D01*
X-6463670Y-4643709D01*
X-6444750Y-4500000D01*
X-6463670Y-4356291D01*
X-6464188Y-4355041D01*
X-6496254Y-4277625D01*
X-6519139Y-4222375D01*
X-6579502Y-4143709D01*
X-6607379Y-4107378D01*
X-6687588Y-4045832D01*
X-6722375Y-4019139D01*
X-6768582Y-4000000D01*
X-2555250Y-4000000D01*
X-2536331Y-4143709D01*
X-2508126Y-4211801D01*
X-2480861Y-4277625D01*
X-2449363Y-4318674D01*
X-2392622Y-4392621D01*
X-2355040Y-4421458D01*
X-2277625Y-4480861D01*
X-2185212Y-4519139D01*
X-2143710Y-4536330D01*
X-2128298Y-4538359D01*
X-2000000Y-4555250D01*
X-1856291Y-4536330D01*
X-1722375Y-4480861D01*
X-1607379Y-4392621D01*
X-1519139Y-4277625D01*
X-1463670Y-4143709D01*
X-1444750Y-4000000D01*
X64444750Y-4000000D01*
X64463669Y-4143709D01*
X64491874Y-4211801D01*
X64519139Y-4277625D01*
X64550637Y-4318674D01*
X64607378Y-4392621D01*
X64644960Y-4421458D01*
X64722375Y-4480861D01*
X64814788Y-4519139D01*
X64856290Y-4536330D01*
X64871702Y-4538359D01*
X65000000Y-4555250D01*
X65143709Y-4536330D01*
X65277625Y-4480861D01*
X65392621Y-4392621D01*
X65480861Y-4277625D01*
X65536330Y-4143709D01*
X65555250Y-4000000D01*
X65536330Y-3856291D01*
X65480861Y-3722375D01*
X65409838Y-3629816D01*
X65392621Y-3607378D01*
X65327552Y-3557450D01*
X65277625Y-3519139D01*
X65236875Y-3502260D01*
X65143709Y-3463669D01*
X65000000Y-3444750D01*
X64856290Y-3463669D01*
X64722375Y-3519139D01*
X64607378Y-3607378D01*
X64519139Y-3722375D01*
X64463669Y-3856290D01*
X64444750Y-4000000D01*
X-1444750Y-4000000D01*
X-1463670Y-3856291D01*
X-1519139Y-3722375D01*
X-1590162Y-3629816D01*
X-1607379Y-3607378D01*
X-1672448Y-3557450D01*
X-1722375Y-3519139D01*
X-1763125Y-3502260D01*
X-1856291Y-3463669D01*
X-2000000Y-3444750D01*
X-2143710Y-3463669D01*
X-2277625Y-3519139D01*
X-2392622Y-3607378D01*
X-2480861Y-3722375D01*
X-2536331Y-3856290D01*
X-2555250Y-4000000D01*
X-6768582Y-4000000D01*
X-6768584Y-3999999D01*
X-6856291Y-3963669D01*
X-6983283Y-3946951D01*
X-7000000Y-3944750D01*
X-7000001Y-3944750D01*
X-7143710Y-3963669D01*
X-7277625Y-4019139D01*
X-7392622Y-4107378D01*
X-7480861Y-4222375D01*
X-7536331Y-4356290D01*
X-7555250Y-4500000D01*
X-12569819Y-4500000D01*
X-12573766Y-4496367D01*
X-12773266Y-4366027D01*
X-12773271Y-4366025D01*
X-12773272Y-4366024D01*
X-12991494Y-4270302D01*
X-13053421Y-4254620D01*
X-13222510Y-4211801D01*
X-13242950Y-4210107D01*
X-13398505Y-4197217D01*
X-13398521Y-4197216D01*
X-13400528Y-4197050D01*
X-13519472Y-4197050D01*
X-13521479Y-4197216D01*
X-13521496Y-4197217D01*
X-13697491Y-4211801D01*
X-13697490Y-4211801D01*
X-13840615Y-4248044D01*
X-13901666Y-4244001D01*
X-13948681Y-4204844D01*
X-13963701Y-4145531D01*
X-13963070Y-4139152D01*
X-13958444Y-4104011D01*
X-13944750Y-4000000D01*
X-13950132Y-3959123D01*
X-13938982Y-3898964D01*
X-13894600Y-3856846D01*
X-13833938Y-3848860D01*
X-13827692Y-3850227D01*
X-13697490Y-3883199D01*
X-13519472Y-3897950D01*
X-13517438Y-3897950D01*
X-13402562Y-3897950D01*
X-13400528Y-3897950D01*
X-13222510Y-3883199D01*
X-12991498Y-3824699D01*
X-12773266Y-3728973D01*
X-12573766Y-3598633D01*
X-12398440Y-3437235D01*
X-12252071Y-3249179D01*
X-12138651Y-3039597D01*
X-12125057Y-2999999D01*
X-7555250Y-2999999D01*
X-7536331Y-3143709D01*
X-7500000Y-3231418D01*
X-7480861Y-3277625D01*
X-7451092Y-3316420D01*
X-7392622Y-3392621D01*
X-7345271Y-3428954D01*
X-7277625Y-3480861D01*
X-7185212Y-3519139D01*
X-7143710Y-3536330D01*
X-7126992Y-3538531D01*
X-7000000Y-3555250D01*
X-6856291Y-3536330D01*
X-6722375Y-3480861D01*
X-6607379Y-3392621D01*
X-6589606Y-3369459D01*
X-6578542Y-3355041D01*
X-6528118Y-3320385D01*
X-6466953Y-3321986D01*
X-6421458Y-3355041D01*
X-6392622Y-3392621D01*
X-6345271Y-3428954D01*
X-6277625Y-3480861D01*
X-6185212Y-3519139D01*
X-6143710Y-3536330D01*
X-6126992Y-3538531D01*
X-6000000Y-3555250D01*
X-5856291Y-3536330D01*
X-5722375Y-3480861D01*
X-5607379Y-3392621D01*
X-5519139Y-3277625D01*
X-5463670Y-3143709D01*
X-5444750Y-3000000D01*
X-1555250Y-3000000D01*
X-1536331Y-3143709D01*
X-1500000Y-3231418D01*
X-1480861Y-3277625D01*
X-1451092Y-3316420D01*
X-1392622Y-3392621D01*
X-1345271Y-3428954D01*
X-1277625Y-3480861D01*
X-1185212Y-3519139D01*
X-1143710Y-3536330D01*
X-1124791Y-3538820D01*
X-1000000Y-3555250D01*
X-856291Y-3536330D01*
X-722375Y-3480861D01*
X-607379Y-3392621D01*
X-519139Y-3277625D01*
X-463670Y-3143709D01*
X-444750Y-3000000D01*
X60444750Y-3000000D01*
X60463669Y-3143709D01*
X60500000Y-3231418D01*
X60519139Y-3277625D01*
X60548908Y-3316420D01*
X60607378Y-3392621D01*
X60654729Y-3428954D01*
X60722375Y-3480861D01*
X60814788Y-3519139D01*
X60856290Y-3536330D01*
X60873008Y-3538531D01*
X61000000Y-3555250D01*
X61143709Y-3536330D01*
X61277625Y-3480861D01*
X61392621Y-3392621D01*
X61480861Y-3277625D01*
X61536330Y-3143709D01*
X61555250Y-3000000D01*
X61536330Y-2856291D01*
X61480861Y-2722375D01*
X61421457Y-2644959D01*
X61392621Y-2607378D01*
X61355041Y-2578542D01*
X61320385Y-2528118D01*
X61321986Y-2466953D01*
X61355041Y-2421458D01*
X61392621Y-2392621D01*
X61392620Y-2392620D01*
X61480861Y-2277625D01*
X61536330Y-2143709D01*
X61555250Y-2000000D01*
X61536330Y-1856291D01*
X61480861Y-1722375D01*
X61420498Y-1643709D01*
X61392621Y-1607378D01*
X61327552Y-1557450D01*
X61277625Y-1519139D01*
X61231416Y-1499999D01*
X61143709Y-1463669D01*
X61000000Y-1444750D01*
X60856290Y-1463669D01*
X60722375Y-1519139D01*
X60607378Y-1607378D01*
X60519139Y-1722375D01*
X60463669Y-1856290D01*
X60444750Y-2000000D01*
X60463669Y-2143709D01*
X60473317Y-2167000D01*
X60519139Y-2277625D01*
X60557450Y-2327552D01*
X60607378Y-2392621D01*
X60644959Y-2421458D01*
X60679615Y-2471882D01*
X60678014Y-2533047D01*
X60644959Y-2578542D01*
X60607378Y-2607378D01*
X60519139Y-2722375D01*
X60463669Y-2856290D01*
X60444750Y-3000000D01*
X-444750Y-3000000D01*
X-463670Y-2856291D01*
X-519139Y-2722375D01*
X-578543Y-2644959D01*
X-607379Y-2607378D01*
X-672448Y-2557450D01*
X-722375Y-2519139D01*
X-774042Y-2497738D01*
X-856291Y-2463669D01*
X-983283Y-2446951D01*
X-1000000Y-2444750D01*
X-1000001Y-2444750D01*
X-1143710Y-2463669D01*
X-1277625Y-2519139D01*
X-1392622Y-2607378D01*
X-1480861Y-2722375D01*
X-1536331Y-2856290D01*
X-1555250Y-3000000D01*
X-5444750Y-3000000D01*
X-5463670Y-2856291D01*
X-5519139Y-2722375D01*
X-5578543Y-2644959D01*
X-5607379Y-2607378D01*
X-5672448Y-2557450D01*
X-5722375Y-2519139D01*
X-5774042Y-2497738D01*
X-5856291Y-2463669D01*
X-6000000Y-2444750D01*
X-6143710Y-2463669D01*
X-6277625Y-2519139D01*
X-6392622Y-2607378D01*
X-6421458Y-2644959D01*
X-6471882Y-2679615D01*
X-6533047Y-2678014D01*
X-6578542Y-2644959D01*
X-6607379Y-2607378D01*
X-6672448Y-2557450D01*
X-6722375Y-2519139D01*
X-6774042Y-2497738D01*
X-6856291Y-2463669D01*
X-7000000Y-2444750D01*
X-7143710Y-2463669D01*
X-7277625Y-2519139D01*
X-7392622Y-2607378D01*
X-7480861Y-2722375D01*
X-7536331Y-2856290D01*
X-7555250Y-2999999D01*
X-12125057Y-2999999D01*
X-12061274Y-2814206D01*
X-12022050Y-2579152D01*
X-12022050Y-2340848D01*
X-12061274Y-2105794D01*
X-12097593Y-2000000D01*
X-4555250Y-2000000D01*
X-4536331Y-2143709D01*
X-4526683Y-2167000D01*
X-4480861Y-2277625D01*
X-4442550Y-2327552D01*
X-4392622Y-2392621D01*
X-4361713Y-2416338D01*
X-4277625Y-2480861D01*
X-4185212Y-2519139D01*
X-4143710Y-2536330D01*
X-4126992Y-2538531D01*
X-4000000Y-2555250D01*
X-3856291Y-2536330D01*
X-3722375Y-2480861D01*
X-3607379Y-2392621D01*
X-3519139Y-2277625D01*
X-3463670Y-2143709D01*
X-3444750Y-2000000D01*
X-3463670Y-1856291D01*
X-3519139Y-1722375D01*
X-3579502Y-1643709D01*
X-3607379Y-1607378D01*
X-3672448Y-1557450D01*
X-3722375Y-1519139D01*
X-3768584Y-1499999D01*
X-3856291Y-1463669D01*
X-4000000Y-1444750D01*
X-4143710Y-1463669D01*
X-4277625Y-1519139D01*
X-4392622Y-1607378D01*
X-4480861Y-1722375D01*
X-4536331Y-1856290D01*
X-4555250Y-2000000D01*
X-12097593Y-2000000D01*
X-12138651Y-1880403D01*
X-12252071Y-1670821D01*
X-12398440Y-1482765D01*
X-12573766Y-1321367D01*
X-12773266Y-1191027D01*
X-12773271Y-1191025D01*
X-12773272Y-1191024D01*
X-12991494Y-1095302D01*
X-13073695Y-1074486D01*
X-13222510Y-1036801D01*
X-13242950Y-1035107D01*
X-13398505Y-1022217D01*
X-13398521Y-1022216D01*
X-13400528Y-1022050D01*
X-13519472Y-1022050D01*
X-13521479Y-1022216D01*
X-13521496Y-1022217D01*
X-13697490Y-1036801D01*
X-13928507Y-1095302D01*
X-14146732Y-1191025D01*
X-14350113Y-1323900D01*
X-14409169Y-1339898D01*
X-14466351Y-1318129D01*
X-14495724Y-1278905D01*
X-14519139Y-1222375D01*
X-14543196Y-1191024D01*
X-14607379Y-1107378D01*
X-14699358Y-1036801D01*
X-14722375Y-1019139D01*
X-14761599Y-1002892D01*
X-14856291Y-963669D01*
X-15000000Y-944750D01*
X-15143710Y-963669D01*
X-15277625Y-1019139D01*
X-15392622Y-1107378D01*
X-15480861Y-1222375D01*
X-15536331Y-1356290D01*
X-15555250Y-1500000D01*
X-15536331Y-1643708D01*
X-15525881Y-1668935D01*
X-15521080Y-1729932D01*
X-15553049Y-1782101D01*
X-15609577Y-1805516D01*
X-15661776Y-1795291D01*
X-15743188Y-1754404D01*
X-15912827Y-1714200D01*
X-15912829Y-1714200D01*
X-16043436Y-1714200D01*
X-16046292Y-1714533D01*
X-16046296Y-1714534D01*
X-16173166Y-1729363D01*
X-16345595Y-1792122D01*
X-16406743Y-1794257D01*
X-16457467Y-1760042D01*
X-16478394Y-1702546D01*
X-16470917Y-1661205D01*
X-16463670Y-1643709D01*
X-16458887Y-1607378D01*
X-16444750Y-1500000D01*
X-16463670Y-1356291D01*
X-16519139Y-1222375D01*
X-16569068Y-1157306D01*
X-16607379Y-1107378D01*
X-16699358Y-1036801D01*
X-16722375Y-1019139D01*
X-16761599Y-1002892D01*
X-16856291Y-963669D01*
X-16983283Y-946951D01*
X-17000000Y-944750D01*
X-17000001Y-944750D01*
X-17143710Y-963669D01*
X-17277625Y-1019139D01*
X-17392622Y-1107378D01*
X-17480861Y-1222374D01*
X-17504277Y-1278906D01*
X-17544014Y-1325432D01*
X-17603509Y-1339715D01*
X-17649889Y-1323900D01*
X-17658722Y-1318129D01*
X-17853266Y-1191027D01*
X-17853271Y-1191025D01*
X-17853272Y-1191024D01*
X-18071494Y-1095302D01*
X-18153695Y-1074486D01*
X-18302510Y-1036801D01*
X-18322950Y-1035107D01*
X-18478505Y-1022217D01*
X-18478521Y-1022216D01*
X-18480528Y-1022050D01*
X-18599472Y-1022050D01*
X-18601479Y-1022216D01*
X-18601496Y-1022217D01*
X-18777490Y-1036801D01*
X-19008507Y-1095302D01*
X-19226729Y-1191024D01*
X-19426235Y-1321367D01*
X-19601561Y-1482766D01*
X-19747929Y-1670820D01*
X-19861349Y-1880402D01*
X-19938727Y-2105795D01*
X-19948940Y-2167000D01*
X-19977950Y-2340848D01*
X-19977950Y-2579152D01*
X-19966969Y-2644959D01*
X-19938727Y-2814204D01*
X-19883428Y-2975283D01*
X-19861349Y-3039597D01*
X-19747929Y-3249179D01*
X-19601560Y-3437235D01*
X-19426234Y-3598633D01*
X-19226734Y-3728973D01*
X-19008502Y-3824699D01*
X-18777490Y-3883199D01*
X-18599472Y-3897950D01*
X-18597438Y-3897950D01*
X-18482562Y-3897950D01*
X-18480528Y-3897950D01*
X-18302510Y-3883199D01*
X-18172323Y-3850231D01*
X-18111273Y-3854275D01*
X-18064259Y-3893432D01*
X-18049238Y-3952745D01*
X-18049869Y-3959123D01*
X-18055250Y-3999999D01*
X-18036931Y-4139152D01*
X-18048081Y-4199313D01*
X-18092464Y-4241430D01*
X-18153126Y-4249416D01*
X-18159374Y-4248047D01*
X-18302510Y-4211801D01*
X-18322950Y-4210107D01*
X-18478505Y-4197217D01*
X-18478521Y-4197216D01*
X-18480528Y-4197050D01*
X-18599472Y-4197050D01*
X-18601479Y-4197216D01*
X-18601496Y-4197217D01*
X-18777490Y-4211801D01*
X-19008507Y-4270302D01*
X-19226729Y-4366024D01*
X-19426235Y-4496367D01*
X-19601561Y-4657766D01*
X-19747929Y-4845820D01*
X-19861349Y-5055402D01*
X-19938727Y-5280795D01*
X-19966086Y-5444750D01*
X-19977950Y-5515848D01*
X-19977950Y-5754152D01*
X-20505977Y-5754152D01*
X-20519139Y-5722375D01*
X-20574308Y-5650478D01*
X-20607379Y-5607378D01*
X-20672448Y-5557450D01*
X-20722375Y-5519139D01*
X-20774042Y-5497738D01*
X-20856291Y-5463669D01*
X-21000000Y-5444750D01*
X-21143710Y-5463669D01*
X-21277625Y-5519139D01*
X-21392622Y-5607378D01*
X-21480861Y-5722375D01*
X-21536331Y-5856290D01*
X-21555250Y-6000000D01*
X-64974500Y-6000000D01*
X-64974500Y-5000000D01*
X-31555250Y-5000000D01*
X-31536331Y-5143709D01*
X-31509293Y-5208983D01*
X-31480861Y-5277625D01*
X-31442550Y-5327552D01*
X-31392622Y-5392621D01*
X-31347158Y-5427506D01*
X-31277625Y-5480861D01*
X-31193155Y-5515849D01*
X-31143710Y-5536330D01*
X-31126992Y-5538531D01*
X-31000000Y-5555250D01*
X-30856291Y-5536330D01*
X-30722375Y-5480861D01*
X-30607379Y-5392621D01*
X-30519139Y-5277625D01*
X-30463670Y-5143709D01*
X-30444750Y-5000000D01*
X-30463670Y-4856291D01*
X-30465728Y-4851323D01*
X-30496254Y-4777625D01*
X-30519139Y-4722375D01*
X-30581528Y-4641068D01*
X-30607379Y-4607378D01*
X-30644959Y-4578542D01*
X-30679615Y-4528118D01*
X-30678014Y-4466953D01*
X-30644959Y-4421458D01*
X-30607379Y-4392621D01*
X-30586973Y-4366027D01*
X-30519139Y-4277625D01*
X-30463670Y-4143709D01*
X-30444750Y-4000000D01*
X-30463670Y-3856291D01*
X-30519139Y-3722375D01*
X-30590162Y-3629816D01*
X-30607379Y-3607378D01*
X-30672448Y-3557450D01*
X-30722375Y-3519139D01*
X-30763125Y-3502260D01*
X-30856291Y-3463669D01*
X-31000000Y-3444750D01*
X-31143710Y-3463669D01*
X-31277625Y-3519139D01*
X-31392622Y-3607378D01*
X-31480861Y-3722375D01*
X-31536331Y-3856290D01*
X-31555250Y-4000000D01*
X-31536331Y-4143709D01*
X-31508126Y-4211801D01*
X-31480861Y-4277625D01*
X-31449363Y-4318674D01*
X-31392622Y-4392621D01*
X-31355041Y-4421458D01*
X-31320385Y-4471882D01*
X-31321986Y-4533047D01*
X-31355041Y-4578542D01*
X-31392622Y-4607378D01*
X-31480861Y-4722375D01*
X-31536331Y-4856290D01*
X-31555250Y-5000000D01*
X-64974500Y-5000000D01*
X-64974500Y-4000000D01*
X-47555250Y-4000000D01*
X-47536331Y-4143709D01*
X-47508126Y-4211801D01*
X-47480861Y-4277625D01*
X-47449363Y-4318674D01*
X-47392622Y-4392621D01*
X-47355040Y-4421458D01*
X-47277625Y-4480861D01*
X-47185212Y-4519139D01*
X-47143710Y-4536330D01*
X-47128298Y-4538359D01*
X-47000000Y-4555250D01*
X-46856291Y-4536330D01*
X-46722375Y-4480861D01*
X-46607379Y-4392621D01*
X-46519139Y-4277625D01*
X-46463670Y-4143709D01*
X-46444750Y-4000000D01*
X-45555250Y-4000000D01*
X-45536331Y-4143709D01*
X-45508126Y-4211801D01*
X-45480861Y-4277625D01*
X-45449363Y-4318674D01*
X-45392622Y-4392621D01*
X-45355040Y-4421458D01*
X-45277625Y-4480861D01*
X-45185212Y-4519139D01*
X-45143710Y-4536330D01*
X-45128298Y-4538359D01*
X-45000000Y-4555250D01*
X-44856291Y-4536330D01*
X-44722375Y-4480861D01*
X-44607379Y-4392621D01*
X-44603874Y-4388053D01*
X-44578542Y-4355041D01*
X-44528118Y-4320385D01*
X-44466953Y-4321986D01*
X-44421458Y-4355041D01*
X-44392622Y-4392621D01*
X-44355040Y-4421458D01*
X-44277625Y-4480861D01*
X-44185212Y-4519139D01*
X-44143710Y-4536330D01*
X-44128298Y-4538359D01*
X-44000000Y-4555250D01*
X-43856291Y-4536330D01*
X-43722375Y-4480861D01*
X-43607379Y-4392621D01*
X-43519139Y-4277625D01*
X-43463670Y-4143709D01*
X-43444750Y-4000000D01*
X-43463670Y-3856291D01*
X-43519139Y-3722375D01*
X-43590162Y-3629816D01*
X-43607379Y-3607378D01*
X-43672448Y-3557450D01*
X-43722375Y-3519139D01*
X-43763125Y-3502260D01*
X-43856291Y-3463669D01*
X-44000000Y-3444750D01*
X-44143710Y-3463669D01*
X-44277625Y-3519139D01*
X-44392623Y-3607379D01*
X-44421460Y-3644960D01*
X-44471885Y-3679615D01*
X-44533049Y-3678013D01*
X-44578543Y-3644958D01*
X-44592941Y-3626195D01*
X-44607380Y-3607377D01*
X-44678256Y-3552992D01*
X-44722375Y-3519139D01*
X-44763125Y-3502260D01*
X-44856291Y-3463669D01*
X-44988280Y-3446293D01*
X-45000000Y-3444750D01*
X-45000001Y-3444750D01*
X-45143710Y-3463669D01*
X-45277625Y-3519139D01*
X-45392622Y-3607378D01*
X-45480861Y-3722375D01*
X-45536331Y-3856290D01*
X-45555250Y-4000000D01*
X-46444750Y-4000000D01*
X-46463670Y-3856291D01*
X-46519139Y-3722375D01*
X-46590162Y-3629816D01*
X-46607379Y-3607378D01*
X-46672448Y-3557450D01*
X-46722375Y-3519139D01*
X-46763125Y-3502260D01*
X-46856291Y-3463669D01*
X-47000000Y-3444750D01*
X-47143710Y-3463669D01*
X-47277625Y-3519139D01*
X-47392622Y-3607378D01*
X-47480861Y-3722375D01*
X-47536331Y-3856290D01*
X-47555250Y-4000000D01*
X-64974500Y-4000000D01*
X-64974500Y-2999999D01*
X-37805565Y-2999999D01*
X-37785368Y-3179258D01*
X-37735424Y-3321986D01*
X-37725789Y-3349522D01*
X-37629816Y-3502262D01*
X-37502262Y-3629816D01*
X-37349522Y-3725789D01*
X-37241149Y-3763710D01*
X-37179259Y-3785367D01*
X-37179258Y-3785367D01*
X-37179255Y-3785368D01*
X-37000000Y-3805565D01*
X-36820745Y-3785368D01*
X-36650478Y-3725789D01*
X-36497738Y-3629816D01*
X-36370184Y-3502262D01*
X-36274211Y-3349522D01*
X-36214632Y-3179255D01*
X-36194435Y-3000000D01*
X-36214632Y-2820745D01*
X-36216921Y-2814204D01*
X-36264576Y-2678014D01*
X-36274211Y-2650478D01*
X-36370184Y-2497738D01*
X-36497738Y-2370184D01*
X-36650478Y-2274211D01*
X-36658185Y-2271514D01*
X-36820742Y-2214632D01*
X-36955187Y-2199484D01*
X-37000000Y-2194435D01*
X-37000001Y-2194435D01*
X-37179259Y-2214632D01*
X-37349520Y-2274210D01*
X-37349522Y-2274210D01*
X-37349522Y-2274211D01*
X-37354955Y-2277625D01*
X-37502261Y-2370183D01*
X-37629817Y-2497739D01*
X-37725790Y-2650480D01*
X-37785368Y-2820741D01*
X-37805565Y-2999999D01*
X-64974500Y-2999999D01*
X-64974500Y-239999D01*
X-405143Y-239999D01*
X-384681Y-382314D01*
X-324952Y-513100D01*
X-320111Y-518688D01*
X-320110Y-518688D01*
X-52361Y-250938D01*
X-34486Y-317645D01*
X22355Y-374486D01*
X80254Y-390000D01*
X91421Y-390000D01*
X-175731Y-657149D01*
X-109844Y-699493D01*
X28111Y-740000D01*
X171886Y-740000D01*
X182490Y-736886D01*
X243650Y-738631D01*
X292105Y-775992D01*
X309345Y-834698D01*
X308377Y-845963D01*
X294857Y-939999D01*
X315319Y-1082314D01*
X375048Y-1213100D01*
X379889Y-1218688D01*
X379890Y-1218688D01*
X647639Y-950938D01*
X665514Y-1017645D01*
X722355Y-1074486D01*
X780254Y-1090000D01*
X791421Y-1090000D01*
X524269Y-1357149D01*
X590156Y-1399493D01*
X728111Y-1440000D01*
X871888Y-1440000D01*
X1009845Y-1399491D01*
X1075728Y-1357149D01*
X1075729Y-1357149D01*
X808579Y-1090000D01*
X819746Y-1090000D01*
X877645Y-1074486D01*
X934486Y-1017646D01*
X952360Y-950938D01*
X1220109Y-1218687D01*
X1224951Y-1213100D01*
X1284680Y-1082314D01*
X1305142Y-940000D01*
X1291622Y-845964D01*
X1302055Y-785675D01*
X1345933Y-743033D01*
X1406496Y-734325D01*
X1417508Y-736886D01*
X1428112Y-740000D01*
X1571886Y-740000D01*
X1582490Y-736886D01*
X1643650Y-738631D01*
X1692105Y-775992D01*
X1709345Y-834698D01*
X1708377Y-845963D01*
X1694857Y-939999D01*
X1715319Y-1082314D01*
X1775048Y-1213100D01*
X1779889Y-1218688D01*
X1779890Y-1218688D01*
X2047639Y-950938D01*
X2065514Y-1017645D01*
X2122355Y-1074486D01*
X2180254Y-1090000D01*
X2191421Y-1090000D01*
X1924269Y-1357149D01*
X1990156Y-1399493D01*
X2128111Y-1440000D01*
X2271888Y-1440000D01*
X2409845Y-1399491D01*
X2475728Y-1357149D01*
X2475729Y-1357149D01*
X2208579Y-1090000D01*
X2219746Y-1090000D01*
X2277645Y-1074486D01*
X2334486Y-1017646D01*
X2352360Y-950938D01*
X2620109Y-1218687D01*
X2624951Y-1213100D01*
X2684680Y-1082314D01*
X2705142Y-940000D01*
X2691622Y-845964D01*
X2702055Y-785675D01*
X2745933Y-743033D01*
X2806496Y-734325D01*
X2817508Y-736886D01*
X2828112Y-740000D01*
X2971888Y-740000D01*
X3109845Y-699491D01*
X3175728Y-657149D01*
X3175729Y-657149D01*
X2908579Y-390000D01*
X2919746Y-390000D01*
X2977645Y-374486D01*
X3034486Y-317646D01*
X3052360Y-250938D01*
X3320109Y-518687D01*
X3324951Y-513100D01*
X3384680Y-382314D01*
X3405142Y-240000D01*
X3384680Y-97685D01*
X3340068Y0D01*
X60444750Y0D01*
X60463669Y-143709D01*
X60471393Y-162355D01*
X60519139Y-277625D01*
X60557450Y-327552D01*
X60607378Y-392621D01*
X60622212Y-404003D01*
X60722375Y-480861D01*
X60800208Y-513100D01*
X60856290Y-536330D01*
X60875210Y-538820D01*
X61000000Y-555250D01*
X61143709Y-536330D01*
X61277625Y-480861D01*
X61392621Y-392621D01*
X61480861Y-277625D01*
X61536330Y-143709D01*
X61555250Y0D01*
X61536330Y143709D01*
X61480861Y277625D01*
X61413075Y365965D01*
X61392621Y392622D01*
X61327552Y442550D01*
X61277625Y480861D01*
X61238401Y497108D01*
X61143709Y536331D01*
X61009213Y554037D01*
X61000000Y555250D01*
X60999999Y555250D01*
X60856290Y536331D01*
X60722375Y480861D01*
X60607378Y392622D01*
X60519139Y277625D01*
X60463669Y143710D01*
X60444750Y0D01*
X3340068Y0D01*
X3324952Y33098D01*
X3320108Y38688D01*
X3052359Y-229060D01*
X3034486Y-162355D01*
X2977645Y-105514D01*
X2919746Y-90000D01*
X2908578Y-90000D01*
X3175729Y177151D01*
X3109843Y219494D01*
X2971889Y260000D01*
X2828111Y260000D01*
X2817505Y256886D01*
X2756344Y258634D01*
X2707892Y295997D01*
X2690654Y354704D01*
X2691622Y365965D01*
X2705142Y460001D01*
X2691622Y554036D01*
X2702055Y614325D01*
X2745933Y656967D01*
X2806496Y665675D01*
X2817508Y663114D01*
X2828112Y660000D01*
X2971888Y660000D01*
X3109845Y700509D01*
X3175728Y742851D01*
X3175729Y742851D01*
X2908579Y1010000D01*
X2919746Y1010000D01*
X2977645Y1025514D01*
X3034486Y1082354D01*
X3052360Y1149062D01*
X3320109Y881313D01*
X3324951Y886900D01*
X3376603Y1000000D01*
X6444750Y1000000D01*
X6463669Y856291D01*
X6502892Y761599D01*
X6519139Y722375D01*
X6535919Y700507D01*
X6607378Y607379D01*
X6624181Y594486D01*
X6722375Y519139D01*
X6814788Y480861D01*
X6856290Y463670D01*
X6873008Y461469D01*
X7000000Y444750D01*
X7143709Y463670D01*
X7277625Y519139D01*
X7392621Y607379D01*
X7480861Y722375D01*
X7536330Y856291D01*
X7555250Y1000000D01*
X7536330Y1143709D01*
X7480861Y1277625D01*
X7425709Y1349500D01*
X7392621Y1392622D01*
X7355041Y1421458D01*
X7320385Y1471882D01*
X7321986Y1533047D01*
X7355041Y1578542D01*
X7392621Y1607379D01*
X7392620Y1607380D01*
X7480861Y1722375D01*
X7536330Y1856291D01*
X7555250Y2000000D01*
X7555250Y2000001D01*
X10944750Y2000001D01*
X10963669Y1856291D01*
X10987782Y1798078D01*
X11019139Y1722375D01*
X11039380Y1695997D01*
X11107378Y1607379D01*
X11157306Y1569068D01*
X11222375Y1519139D01*
X11314788Y1480861D01*
X11356290Y1463670D01*
X11373008Y1461469D01*
X11500000Y1444750D01*
X11643709Y1463670D01*
X11777625Y1519139D01*
X11892621Y1607379D01*
X11980861Y1722375D01*
X12036330Y1856291D01*
X12055250Y2000000D01*
X12036330Y2143709D01*
X11980861Y2277625D01*
X11917652Y2360000D01*
X11892621Y2392622D01*
X11827552Y2442550D01*
X11777625Y2480861D01*
X11738401Y2497108D01*
X11643709Y2536331D01*
X11500000Y2555250D01*
X11356290Y2536331D01*
X11222375Y2480861D01*
X11107378Y2392622D01*
X11019139Y2277625D01*
X10963669Y2143710D01*
X10944750Y2000001D01*
X7555250Y2000001D01*
X7536330Y2143709D01*
X7480861Y2277625D01*
X7417652Y2360000D01*
X7392621Y2392622D01*
X7327552Y2442550D01*
X7277625Y2480861D01*
X7238401Y2497108D01*
X7143709Y2536331D01*
X7000000Y2555250D01*
X6856290Y2536331D01*
X6722375Y2480861D01*
X6607378Y2392622D01*
X6519139Y2277625D01*
X6463669Y2143710D01*
X6444750Y2000000D01*
X6463669Y1856291D01*
X6487782Y1798078D01*
X6519139Y1722375D01*
X6539380Y1695997D01*
X6607378Y1607379D01*
X6644958Y1578543D01*
X6679614Y1528119D01*
X6678013Y1466955D01*
X6644960Y1421460D01*
X6607378Y1392622D01*
X6519139Y1277625D01*
X6463669Y1143710D01*
X6444750Y1000000D01*
X3376603Y1000000D01*
X3384680Y1017686D01*
X3405142Y1160001D01*
X3384680Y1302315D01*
X3324952Y1433098D01*
X3320108Y1438689D01*
X3052359Y1170940D01*
X3034486Y1237645D01*
X2977645Y1294486D01*
X2919746Y1310000D01*
X2908578Y1310000D01*
X3175729Y1577151D01*
X3109843Y1619494D01*
X2971889Y1660000D01*
X2828111Y1660000D01*
X2817505Y1656886D01*
X2756344Y1658634D01*
X2707892Y1695997D01*
X2690654Y1754704D01*
X2691622Y1765965D01*
X2705142Y1860001D01*
X2684680Y2002315D01*
X2624952Y2133098D01*
X2620108Y2138689D01*
X2352359Y1870940D01*
X2334486Y1937645D01*
X2277645Y1994486D01*
X2219746Y2010000D01*
X2208578Y2010000D01*
X2475729Y2277151D01*
X2409843Y2319494D01*
X2271889Y2360000D01*
X2128111Y2360000D01*
X1990154Y2319493D01*
X1924270Y2277152D01*
X2191422Y2010000D01*
X2180254Y2010000D01*
X2122355Y1994486D01*
X2065514Y1937646D01*
X2047640Y1870940D01*
X1779890Y2138690D01*
X1779889Y2138689D01*
X1775048Y2133101D01*
X1715319Y2002315D01*
X1694857Y1860000D01*
X1708377Y1765964D01*
X1697943Y1705675D01*
X1654065Y1663033D01*
X1593503Y1654326D01*
X1582493Y1656886D01*
X1571888Y1660000D01*
X1428111Y1660000D01*
X1417505Y1656886D01*
X1356344Y1658634D01*
X1307892Y1695997D01*
X1290654Y1754704D01*
X1291622Y1765965D01*
X1305142Y1860001D01*
X1284680Y2002315D01*
X1224952Y2133098D01*
X1220108Y2138688D01*
X952359Y1870940D01*
X934486Y1937645D01*
X877645Y1994486D01*
X819746Y2010000D01*
X808578Y2010000D01*
X1075729Y2277151D01*
X1009843Y2319494D01*
X871889Y2360000D01*
X728111Y2360000D01*
X590154Y2319493D01*
X524270Y2277152D01*
X791422Y2010000D01*
X780254Y2010000D01*
X722355Y1994486D01*
X665514Y1937646D01*
X647639Y1870939D01*
X379889Y2138689D01*
X375048Y2133101D01*
X315319Y2002315D01*
X294857Y1860000D01*
X308377Y1765964D01*
X297943Y1705675D01*
X254065Y1663033D01*
X193503Y1654326D01*
X182493Y1656886D01*
X171888Y1660000D01*
X28111Y1660000D01*
X-109846Y1619493D01*
X-175730Y1577152D01*
X91422Y1310000D01*
X80254Y1310000D01*
X22355Y1294486D01*
X-34486Y1237646D01*
X-52361Y1170939D01*
X-320111Y1438689D01*
X-324952Y1433101D01*
X-384681Y1302315D01*
X-405143Y1160000D01*
X-384681Y1017686D01*
X-324952Y886900D01*
X-320111Y881312D01*
X-320110Y881312D01*
X-52361Y1149062D01*
X-34486Y1082355D01*
X22355Y1025514D01*
X80254Y1010000D01*
X91421Y1010000D01*
X-175731Y742851D01*
X-109844Y700507D01*
X28111Y660000D01*
X171886Y660000D01*
X182490Y663114D01*
X243650Y661369D01*
X292105Y624008D01*
X309345Y565302D01*
X308377Y554037D01*
X294857Y460001D01*
X308377Y365964D01*
X297943Y305675D01*
X254065Y263033D01*
X193503Y254326D01*
X182493Y256886D01*
X171888Y260000D01*
X28111Y260000D01*
X-109846Y219493D01*
X-175731Y177152D01*
X91422Y-90000D01*
X80254Y-90000D01*
X22355Y-105514D01*
X-34486Y-162354D01*
X-52361Y-229061D01*
X-320111Y38689D01*
X-324952Y33101D01*
X-384681Y-97685D01*
X-405143Y-239999D01*
X-64974500Y-239999D01*
X-64974500Y1580000D01*
X-63285802Y1580000D01*
X-63248818Y1429953D01*
X-63169822Y1279437D01*
X-63057095Y1152195D01*
X-62917196Y1055630D01*
X-62758249Y995349D01*
X-62634808Y980361D01*
X-62628853Y980000D01*
X-62389501Y980000D01*
X-62389500Y980002D01*
X-62389500Y1380000D01*
X-62189500Y1380000D01*
X-62189500Y980002D01*
X-62189499Y980000D01*
X-61950147Y980000D01*
X-61944193Y980361D01*
X-61820752Y995349D01*
X-61661805Y1055630D01*
X-61521906Y1152195D01*
X-61409179Y1279437D01*
X-61330183Y1429953D01*
X-61293198Y1580000D01*
X-59355802Y1580000D01*
X-59318818Y1429953D01*
X-59239822Y1279437D01*
X-59127095Y1152195D01*
X-58987196Y1055630D01*
X-58828249Y995349D01*
X-58704808Y980361D01*
X-58698853Y980000D01*
X-58209501Y980000D01*
X-58209500Y980001D01*
X-58209500Y1380000D01*
X-58009500Y1380000D01*
X-58009500Y980002D01*
X-58009499Y980000D01*
X-57520147Y980000D01*
X-57514193Y980361D01*
X-57390752Y995349D01*
X-57231805Y1055630D01*
X-57091906Y1152195D01*
X-56979179Y1279437D01*
X-56900183Y1429953D01*
X-56863198Y1580000D01*
X-57276045Y1580000D01*
X-57255605Y1651840D01*
X-57265954Y1763521D01*
X-57274160Y1780000D01*
X-56863199Y1780000D01*
X-56844490Y1803881D01*
X-56793720Y1838028D01*
X-56732574Y1835811D01*
X-56684410Y1798078D01*
X-56673993Y1777936D01*
X-56642720Y1695477D01*
X-56552983Y1565470D01*
X-56434740Y1460717D01*
X-56376125Y1429953D01*
X-56294864Y1387303D01*
X-56141487Y1349500D01*
X-56141485Y1349500D01*
X-55983513Y1349500D01*
X-55830137Y1387303D01*
X-55830135Y1387304D01*
X-55690260Y1460717D01*
X-55572017Y1565470D01*
X-55482280Y1695477D01*
X-55426263Y1843182D01*
X-55407222Y2000000D01*
X-53055250Y2000000D01*
X-53036331Y1856291D01*
X-53012218Y1798078D01*
X-52980861Y1722375D01*
X-52960620Y1695997D01*
X-52892622Y1607379D01*
X-52842694Y1569068D01*
X-52777625Y1519139D01*
X-52685212Y1480861D01*
X-52643710Y1463670D01*
X-52626992Y1461469D01*
X-52500000Y1444750D01*
X-52356291Y1463670D01*
X-52222375Y1519139D01*
X-52107379Y1607379D01*
X-52019139Y1722375D01*
X-51963670Y1856291D01*
X-51944750Y2000000D01*
X-18555250Y2000000D01*
X-18536331Y1856291D01*
X-18512218Y1798078D01*
X-18480861Y1722375D01*
X-18460620Y1695997D01*
X-18392622Y1607379D01*
X-18342694Y1569068D01*
X-18277625Y1519139D01*
X-18185212Y1480861D01*
X-18143710Y1463670D01*
X-18126992Y1461469D01*
X-18000000Y1444750D01*
X-17856291Y1463670D01*
X-17722375Y1519139D01*
X-17607379Y1607379D01*
X-17519139Y1722375D01*
X-17463670Y1856291D01*
X-17444750Y2000000D01*
X-17463670Y2143709D01*
X-17519139Y2277625D01*
X-17582348Y2360000D01*
X-17607379Y2392622D01*
X-17672448Y2442550D01*
X-17722375Y2480861D01*
X-17761599Y2497108D01*
X-17856291Y2536331D01*
X-18000000Y2555250D01*
X-18143710Y2536331D01*
X-18277625Y2480861D01*
X-18392622Y2392622D01*
X-18480861Y2277625D01*
X-18536331Y2143710D01*
X-18555250Y2000000D01*
X-51944750Y2000000D01*
X-51963670Y2143709D01*
X-52019139Y2277625D01*
X-52082348Y2360000D01*
X-52107379Y2392622D01*
X-52172448Y2442550D01*
X-52222375Y2480861D01*
X-52261599Y2497108D01*
X-52356291Y2536331D01*
X-52500000Y2555250D01*
X-52643710Y2536331D01*
X-52777625Y2480861D01*
X-52892622Y2392622D01*
X-52980861Y2277625D01*
X-53036331Y2143710D01*
X-53055250Y2000000D01*
X-55407222Y2000000D01*
X-55426263Y2156818D01*
X-55482280Y2304523D01*
X-55572017Y2434530D01*
X-55690260Y2539283D01*
X-55728004Y2559093D01*
X-55830137Y2612698D01*
X-55983513Y2650500D01*
X-55983515Y2650500D01*
X-56141485Y2650500D01*
X-56141487Y2650500D01*
X-56294864Y2612698D01*
X-56434739Y2539284D01*
X-56552983Y2434530D01*
X-56642720Y2304524D01*
X-56698738Y2156816D01*
X-56717779Y2000000D01*
X-56716944Y1993126D01*
X-56728703Y1933081D01*
X-56773509Y1891415D01*
X-56834249Y1884043D01*
X-56887721Y1913781D01*
X-56902884Y1935191D01*
X-56979182Y2080567D01*
X-57091906Y2207806D01*
X-57231805Y2304371D01*
X-57390752Y2364652D01*
X-57514193Y2379640D01*
X-57520147Y2380000D01*
X-58009499Y2380000D01*
X-58009500Y2379999D01*
X-58009500Y1980000D01*
X-58209500Y1980000D01*
X-58209500Y2379999D01*
X-58209501Y2380000D01*
X-58370316Y2380000D01*
X-58428507Y2398907D01*
X-58464471Y2448407D01*
X-58464471Y2509593D01*
X-58428507Y2559093D01*
X-58408205Y2570463D01*
X-58319267Y2607302D01*
X-58199049Y2699549D01*
X-58106802Y2819767D01*
X-58048813Y2959764D01*
X-58029034Y3110000D01*
X-58048813Y3260236D01*
X-58106802Y3400233D01*
X-58183356Y3500000D01*
X-58183357Y3500001D01*
X-56717779Y3500001D01*
X-56698738Y3343185D01*
X-56698738Y3343183D01*
X-56698737Y3343182D01*
X-56642720Y3195477D01*
X-56552983Y3065470D01*
X-56434740Y2960717D01*
X-56361326Y2922186D01*
X-56294864Y2887303D01*
X-56141487Y2849500D01*
X-56141485Y2849500D01*
X-55983513Y2849500D01*
X-55830137Y2887303D01*
X-55830135Y2887304D01*
X-55690260Y2960717D01*
X-55645918Y3000000D01*
X11944750Y3000000D01*
X11963669Y2856291D01*
X12002892Y2761599D01*
X12019139Y2722375D01*
X12057450Y2672448D01*
X12107378Y2607379D01*
X12155487Y2570464D01*
X12222375Y2519139D01*
X12314788Y2480861D01*
X12356290Y2463670D01*
X12373008Y2461469D01*
X12500000Y2444750D01*
X12643709Y2463670D01*
X12777625Y2519139D01*
X12892621Y2607379D01*
X12980861Y2722375D01*
X13036330Y2856291D01*
X13055250Y3000000D01*
X13036330Y3143709D01*
X12980861Y3277625D01*
X12930555Y3343185D01*
X12892621Y3392622D01*
X12827552Y3442550D01*
X12777625Y3480861D01*
X12731416Y3500001D01*
X12643709Y3536331D01*
X12516717Y3553049D01*
X12500000Y3555250D01*
X12499999Y3555250D01*
X12356290Y3536331D01*
X12222375Y3480861D01*
X12107378Y3392622D01*
X12019139Y3277625D01*
X11963669Y3143710D01*
X11944750Y3000000D01*
X-55645918Y3000000D01*
X-55572017Y3065470D01*
X-55482280Y3195477D01*
X-55426263Y3343182D01*
X-55407222Y3500000D01*
X-55426263Y3656818D01*
X-55482280Y3804523D01*
X-55572017Y3934530D01*
X-55645918Y4000000D01*
X-53055250Y4000000D01*
X-53036331Y3856291D01*
X-52997108Y3761599D01*
X-52980861Y3722375D01*
X-52952241Y3685077D01*
X-52892622Y3607379D01*
X-52842694Y3569068D01*
X-52777625Y3519139D01*
X-52685212Y3480861D01*
X-52643710Y3463670D01*
X-52624791Y3461180D01*
X-52500000Y3444750D01*
X-52356291Y3463670D01*
X-52222375Y3519139D01*
X-52107379Y3607379D01*
X-52019139Y3722375D01*
X-51963670Y3856291D01*
X-51944750Y4000000D01*
X54444750Y4000000D01*
X54463669Y3856291D01*
X54502892Y3761599D01*
X54519139Y3722375D01*
X54547759Y3685077D01*
X54607378Y3607379D01*
X54657306Y3569068D01*
X54722375Y3519139D01*
X54814788Y3480861D01*
X54856290Y3463670D01*
X54875209Y3461180D01*
X55000000Y3444750D01*
X55143709Y3463670D01*
X55277625Y3519139D01*
X55392621Y3607379D01*
X55480861Y3722375D01*
X55536330Y3856291D01*
X55555250Y4000000D01*
X55536330Y4143709D01*
X55480861Y4277625D01*
X55423590Y4352262D01*
X55392621Y4392622D01*
X55327552Y4442550D01*
X55277625Y4480861D01*
X55238401Y4497108D01*
X55143709Y4536331D01*
X55016717Y4553049D01*
X55000000Y4555250D01*
X54999999Y4555250D01*
X54856290Y4536331D01*
X54722375Y4480861D01*
X54607378Y4392622D01*
X54519139Y4277625D01*
X54463669Y4143710D01*
X54444750Y4000000D01*
X-51944750Y4000000D01*
X-51963670Y4143709D01*
X-52019139Y4277625D01*
X-52076410Y4352262D01*
X-52107379Y4392622D01*
X-52172448Y4442550D01*
X-52222375Y4480861D01*
X-52261599Y4497108D01*
X-52356291Y4536331D01*
X-52483283Y4553049D01*
X-52500000Y4555250D01*
X-52500001Y4555250D01*
X-52643710Y4536331D01*
X-52777625Y4480861D01*
X-52892622Y4392622D01*
X-52980861Y4277625D01*
X-53036331Y4143710D01*
X-53055250Y4000000D01*
X-55645918Y4000000D01*
X-55690260Y4039283D01*
X-55697213Y4042933D01*
X-55830137Y4112698D01*
X-55983513Y4150500D01*
X-55983515Y4150500D01*
X-56141485Y4150500D01*
X-56141487Y4150500D01*
X-56294864Y4112698D01*
X-56434739Y4039284D01*
X-56552983Y3934530D01*
X-56642720Y3804524D01*
X-56698738Y3656816D01*
X-56717779Y3500001D01*
X-58183357Y3500001D01*
X-58199049Y3520452D01*
X-58319267Y3612698D01*
X-58459265Y3670688D01*
X-58568567Y3685077D01*
X-58571780Y3685500D01*
X-58647220Y3685500D01*
X-58650433Y3685078D01*
X-58650434Y3685077D01*
X-58759736Y3670688D01*
X-58899734Y3612698D01*
X-59019952Y3520452D01*
X-59112198Y3400234D01*
X-59170188Y3260236D01*
X-59189966Y3110000D01*
X-59170188Y2959765D01*
X-59112198Y2819767D01*
X-59019952Y2699549D01*
X-58927705Y2628766D01*
X-58899733Y2607302D01*
X-58778868Y2557238D01*
X-58732342Y2517501D01*
X-58718059Y2458006D01*
X-58741474Y2401478D01*
X-58793643Y2369509D01*
X-58804820Y2367496D01*
X-58828249Y2364652D01*
X-58987196Y2304371D01*
X-59127095Y2207806D01*
X-59239822Y2080564D01*
X-59318818Y1930048D01*
X-59355802Y1780000D01*
X-58942955Y1780000D01*
X-58963395Y1708160D01*
X-58953046Y1596479D01*
X-58944840Y1580000D01*
X-59355802Y1580000D01*
X-61293198Y1580000D01*
X-61706045Y1580000D01*
X-61685605Y1651840D01*
X-61695954Y1763521D01*
X-61704160Y1780000D01*
X-61293199Y1780000D01*
X-61330183Y1930048D01*
X-61409179Y2080564D01*
X-61521906Y2207806D01*
X-61661805Y2304371D01*
X-61820752Y2364652D01*
X-61944193Y2379640D01*
X-61950147Y2380000D01*
X-62189499Y2380000D01*
X-62189500Y2379999D01*
X-62189500Y1980000D01*
X-62389500Y1980000D01*
X-62389500Y2379999D01*
X-62389501Y2380000D01*
X-62628853Y2380000D01*
X-62634808Y2379640D01*
X-62758249Y2364652D01*
X-62917196Y2304371D01*
X-63057095Y2207806D01*
X-63169822Y2080564D01*
X-63248818Y1930048D01*
X-63285802Y1780000D01*
X-62872955Y1780000D01*
X-62893395Y1708160D01*
X-62883046Y1596479D01*
X-62874840Y1580000D01*
X-63285802Y1580000D01*
X-64974500Y1580000D01*
X-64974500Y5500000D01*
X-56617750Y5500000D01*
X-56598831Y5356291D01*
X-56566246Y5277625D01*
X-56543361Y5222375D01*
X-56535537Y5212179D01*
X-56455122Y5107379D01*
X-56405194Y5069068D01*
X-56340125Y5019139D01*
X-56245433Y4979917D01*
X-56206210Y4963670D01*
X-56187291Y4961180D01*
X-56062500Y4944750D01*
X-55918791Y4963670D01*
X-55831079Y5000001D01*
X-5555250Y5000001D01*
X-5536331Y4856291D01*
X-5497108Y4761599D01*
X-5480861Y4722375D01*
X-5442550Y4672448D01*
X-5392622Y4607379D01*
X-5342694Y4569068D01*
X-5277625Y4519139D01*
X-5185212Y4480861D01*
X-5143710Y4463670D01*
X-5124791Y4461180D01*
X-5000000Y4444750D01*
X-4856291Y4463670D01*
X-4722375Y4519139D01*
X-4607379Y4607379D01*
X-4519139Y4722375D01*
X-4463670Y4856291D01*
X-4444750Y5000000D01*
X-4444750Y5000001D01*
X6444750Y5000001D01*
X6463669Y4856291D01*
X6502892Y4761599D01*
X6519139Y4722375D01*
X6557450Y4672448D01*
X6607378Y4607379D01*
X6657306Y4569068D01*
X6722375Y4519139D01*
X6814788Y4480861D01*
X6856290Y4463670D01*
X6875209Y4461180D01*
X7000000Y4444750D01*
X7143709Y4463670D01*
X7277625Y4519139D01*
X7392621Y4607379D01*
X7480861Y4722375D01*
X7536330Y4856291D01*
X7555250Y5000000D01*
X7555250Y5000001D01*
X14944750Y5000001D01*
X14963669Y4856291D01*
X15002892Y4761599D01*
X15019139Y4722375D01*
X15057450Y4672448D01*
X15107378Y4607379D01*
X15157306Y4569068D01*
X15222375Y4519139D01*
X15314788Y4480861D01*
X15356290Y4463670D01*
X15373008Y4461469D01*
X15500000Y4444750D01*
X15643709Y4463670D01*
X15777625Y4519139D01*
X15892621Y4607379D01*
X15980861Y4722375D01*
X16036330Y4856291D01*
X16055250Y5000000D01*
X20944750Y5000000D01*
X20963669Y4856291D01*
X21002892Y4761599D01*
X21019139Y4722375D01*
X21057450Y4672448D01*
X21107378Y4607379D01*
X21157306Y4569068D01*
X21222375Y4519139D01*
X21314788Y4480861D01*
X21356290Y4463670D01*
X21373008Y4461469D01*
X21500000Y4444750D01*
X21643709Y4463670D01*
X21777625Y4519139D01*
X21892621Y4607379D01*
X21980861Y4722375D01*
X22036330Y4856291D01*
X22055250Y5000000D01*
X22036330Y5143709D01*
X21980861Y5277625D01*
X21920498Y5356291D01*
X21892621Y5392622D01*
X21855041Y5421458D01*
X21828551Y5460000D01*
X58414357Y5460000D01*
X58434892Y5212179D01*
X58452231Y5143710D01*
X58495938Y4971115D01*
X58546305Y4856291D01*
X58595827Y4743393D01*
X58731836Y4535215D01*
X58900256Y4352262D01*
X59096491Y4199526D01*
X59315190Y4081172D01*
X59550386Y4000429D01*
X59795665Y3959500D01*
X59795666Y3959500D01*
X60044334Y3959500D01*
X60044335Y3959500D01*
X60289614Y4000429D01*
X60524810Y4081172D01*
X60743509Y4199526D01*
X60939744Y4352262D01*
X61108164Y4535215D01*
X61244173Y4743393D01*
X61344063Y4971119D01*
X61405108Y5212179D01*
X61425643Y5460000D01*
X63494357Y5460000D01*
X63514892Y5212179D01*
X63532231Y5143710D01*
X63575938Y4971115D01*
X63626305Y4856291D01*
X63675827Y4743393D01*
X63811836Y4535215D01*
X63980256Y4352262D01*
X64176491Y4199526D01*
X64395190Y4081172D01*
X64630386Y4000429D01*
X64875665Y3959500D01*
X64875666Y3959500D01*
X65124334Y3959500D01*
X65124335Y3959500D01*
X65369614Y4000429D01*
X65604810Y4081172D01*
X65823509Y4199526D01*
X66019744Y4352262D01*
X66188164Y4535215D01*
X66324173Y4743393D01*
X66424063Y4971119D01*
X66485108Y5212179D01*
X66505643Y5460000D01*
X66485108Y5707821D01*
X66424063Y5948881D01*
X66324173Y6176607D01*
X66188164Y6384785D01*
X66019744Y6567738D01*
X65823509Y6720474D01*
X65604810Y6838828D01*
X65448114Y6892622D01*
X65369612Y6919572D01*
X65173460Y6952303D01*
X65124335Y6960500D01*
X64875665Y6960500D01*
X64834736Y6953671D01*
X64630387Y6919572D01*
X64395189Y6838828D01*
X64176490Y6720474D01*
X63980257Y6567739D01*
X63811836Y6384786D01*
X63675824Y6176602D01*
X63575938Y5948886D01*
X63561690Y5892622D01*
X63518579Y5722378D01*
X63514892Y5707820D01*
X63495036Y5468189D01*
X63494357Y5460000D01*
X61425643Y5460000D01*
X61405108Y5707821D01*
X61344063Y5948881D01*
X61244173Y6176607D01*
X61108164Y6384785D01*
X60939744Y6567738D01*
X60743509Y6720474D01*
X60524810Y6838828D01*
X60368114Y6892622D01*
X60289612Y6919572D01*
X60093460Y6952303D01*
X60044335Y6960500D01*
X59795665Y6960500D01*
X59754736Y6953671D01*
X59550387Y6919572D01*
X59315189Y6838828D01*
X59096490Y6720474D01*
X58900257Y6567739D01*
X58731836Y6384786D01*
X58595824Y6176602D01*
X58495938Y5948886D01*
X58481690Y5892622D01*
X58434892Y5707821D01*
X58414357Y5460000D01*
X21828551Y5460000D01*
X21820385Y5471882D01*
X21821986Y5533047D01*
X21855041Y5578542D01*
X21892621Y5607379D01*
X21920498Y5643709D01*
X21980861Y5722375D01*
X22036330Y5856291D01*
X22055250Y6000000D01*
X22036330Y6143709D01*
X22022705Y6176602D01*
X22003746Y6222375D01*
X21980861Y6277625D01*
X21898634Y6384785D01*
X21892621Y6392622D01*
X21824778Y6444679D01*
X21777625Y6480861D01*
X21731416Y6500001D01*
X21643709Y6536331D01*
X21500000Y6555250D01*
X21356290Y6536331D01*
X21222375Y6480861D01*
X21107378Y6392622D01*
X21019139Y6277625D01*
X20963669Y6143710D01*
X20944750Y6000001D01*
X20963669Y5856291D01*
X20996254Y5777625D01*
X21019139Y5722375D01*
X21030307Y5707821D01*
X21107378Y5607379D01*
X21144959Y5578542D01*
X21179615Y5528118D01*
X21178014Y5466953D01*
X21144959Y5421458D01*
X21107378Y5392622D01*
X21019139Y5277625D01*
X20963669Y5143710D01*
X20944750Y5000000D01*
X16055250Y5000000D01*
X16036330Y5143709D01*
X15980861Y5277625D01*
X15970529Y5291090D01*
X15950105Y5348766D01*
X15967483Y5407432D01*
X16016025Y5444679D01*
X16036143Y5449509D01*
X16143709Y5463670D01*
X16277625Y5519139D01*
X16392621Y5607379D01*
X16480861Y5722375D01*
X16536330Y5856291D01*
X16555250Y6000000D01*
X16536330Y6143709D01*
X16522705Y6176602D01*
X16503746Y6222375D01*
X16480861Y6277625D01*
X16470529Y6291090D01*
X16450105Y6348766D01*
X16467483Y6407432D01*
X16516025Y6444679D01*
X16536143Y6449509D01*
X16643709Y6463670D01*
X16777625Y6519139D01*
X16892621Y6607379D01*
X16980861Y6722375D01*
X17036330Y6856291D01*
X17055250Y7000000D01*
X17055250Y7000001D01*
X39944750Y7000001D01*
X39963669Y6856291D01*
X39975544Y6827623D01*
X40019139Y6722375D01*
X40057450Y6672448D01*
X40107378Y6607379D01*
X40157306Y6569068D01*
X40222375Y6519139D01*
X40314788Y6480861D01*
X40356290Y6463670D01*
X40375210Y6461180D01*
X40500000Y6444750D01*
X40643709Y6463670D01*
X40777625Y6519139D01*
X40892621Y6607379D01*
X40980861Y6722375D01*
X41036330Y6856291D01*
X41055250Y7000000D01*
X41036330Y7143709D01*
X40980861Y7277625D01*
X40909838Y7370184D01*
X40892620Y7392623D01*
X40855040Y7421460D01*
X40820385Y7471885D01*
X40821987Y7533049D01*
X40855041Y7578543D01*
X40892621Y7607379D01*
X40980861Y7722375D01*
X41036330Y7856291D01*
X41055250Y8000000D01*
X41036330Y8143709D01*
X40980861Y8277625D01*
X40909838Y8370184D01*
X40892621Y8392622D01*
X40827552Y8442550D01*
X40777625Y8480861D01*
X40725958Y8502262D01*
X40643709Y8536331D01*
X40516717Y8553049D01*
X40500000Y8555250D01*
X40499999Y8555250D01*
X40356290Y8536331D01*
X40222375Y8480861D01*
X40107378Y8392622D01*
X40019139Y8277625D01*
X39963669Y8143710D01*
X39944750Y8000000D01*
X39963669Y7856291D01*
X39996254Y7777625D01*
X40019139Y7722375D01*
X40028497Y7710180D01*
X40107378Y7607379D01*
X40144959Y7578542D01*
X40179615Y7528118D01*
X40178014Y7466953D01*
X40144959Y7421458D01*
X40107378Y7392622D01*
X40019139Y7277625D01*
X39963669Y7143710D01*
X39944750Y7000001D01*
X17055250Y7000001D01*
X17036330Y7143709D01*
X16980861Y7277625D01*
X16909838Y7370184D01*
X16892621Y7392622D01*
X16827552Y7442550D01*
X16777625Y7480861D01*
X16731416Y7500001D01*
X16643709Y7536331D01*
X16516717Y7553049D01*
X16500000Y7555250D01*
X16499999Y7555250D01*
X16356290Y7536331D01*
X16222375Y7480861D01*
X16107378Y7392622D01*
X16019139Y7277625D01*
X15963669Y7143710D01*
X15944750Y7000000D01*
X15963669Y6856291D01*
X16019138Y6722376D01*
X16029471Y6708910D01*
X16049894Y6651234D01*
X16032516Y6592569D01*
X15983974Y6555322D01*
X15963850Y6550491D01*
X15856290Y6536331D01*
X15722375Y6480861D01*
X15607378Y6392622D01*
X15519139Y6277625D01*
X15463669Y6143710D01*
X15444750Y6000001D01*
X15463669Y5856291D01*
X15519138Y5722376D01*
X15529471Y5708910D01*
X15549894Y5651234D01*
X15532516Y5592569D01*
X15483974Y5555322D01*
X15463850Y5550491D01*
X15356290Y5536331D01*
X15222375Y5480861D01*
X15107378Y5392622D01*
X15019139Y5277625D01*
X14963669Y5143710D01*
X14944750Y5000001D01*
X7555250Y5000001D01*
X7536330Y5143709D01*
X7480861Y5277625D01*
X7420498Y5356291D01*
X7392621Y5392622D01*
X7324778Y5444679D01*
X7277625Y5480861D01*
X7231416Y5500001D01*
X7143709Y5536331D01*
X7016717Y5553049D01*
X7000000Y5555250D01*
X6999999Y5555250D01*
X6856290Y5536331D01*
X6722375Y5480861D01*
X6607378Y5392622D01*
X6519139Y5277625D01*
X6463669Y5143710D01*
X6444750Y5000001D01*
X-4444750Y5000001D01*
X-4463670Y5143709D01*
X-4519139Y5277625D01*
X-4579502Y5356291D01*
X-4607379Y5392622D01*
X-4675222Y5444679D01*
X-4722375Y5480861D01*
X-4768584Y5500001D01*
X-4856291Y5536331D01*
X-4983283Y5553049D01*
X-5000000Y5555250D01*
X-5000001Y5555250D01*
X-5143710Y5536331D01*
X-5277628Y5480860D01*
X-5283740Y5476170D01*
X-5341417Y5455748D01*
X-5383411Y5468189D01*
X-5382073Y5417172D01*
X-5398455Y5385020D01*
X-5480861Y5277626D01*
X-5536331Y5143710D01*
X-5555250Y5000001D01*
X-55831079Y5000001D01*
X-55784875Y5019139D01*
X-55669879Y5107379D01*
X-55581639Y5222375D01*
X-55526170Y5356291D01*
X-55507250Y5500000D01*
X-55526170Y5643709D01*
X-55581639Y5777625D01*
X-55642002Y5856291D01*
X-55669879Y5892622D01*
X-55707459Y5921458D01*
X-55742115Y5971882D01*
X-55741379Y6000000D01*
X-49555250Y6000000D01*
X-49536331Y5856291D01*
X-49503746Y5777625D01*
X-49480861Y5722375D01*
X-49469693Y5707821D01*
X-49392622Y5607379D01*
X-49360635Y5582835D01*
X-49277625Y5519139D01*
X-49185212Y5480861D01*
X-49143710Y5463670D01*
X-49126992Y5461469D01*
X-49000000Y5444750D01*
X-48856291Y5463670D01*
X-48722375Y5519139D01*
X-48607379Y5607379D01*
X-48519139Y5722375D01*
X-48463670Y5856291D01*
X-48444750Y6000000D01*
X-48463670Y6143709D01*
X-48477295Y6176602D01*
X-48496254Y6222375D01*
X-48519139Y6277625D01*
X-48601366Y6384785D01*
X-48607379Y6392622D01*
X-48675222Y6444679D01*
X-48722375Y6480861D01*
X-48768584Y6500001D01*
X-48856291Y6536331D01*
X-48983283Y6553049D01*
X-49000000Y6555250D01*
X-49000001Y6555250D01*
X-49143710Y6536331D01*
X-49277625Y6480861D01*
X-49392622Y6392622D01*
X-49480861Y6277625D01*
X-49536331Y6143710D01*
X-49555250Y6000000D01*
X-55741379Y6000000D01*
X-55740514Y6033047D01*
X-55707459Y6078542D01*
X-55669879Y6107379D01*
X-55642002Y6143709D01*
X-55581639Y6222375D01*
X-55526170Y6356291D01*
X-55507250Y6500000D01*
X-55526170Y6643709D01*
X-55581639Y6777625D01*
X-55642002Y6856291D01*
X-55669879Y6892622D01*
X-55736742Y6943927D01*
X-55784875Y6980861D01*
X-55837341Y7002593D01*
X-55918791Y7036331D01*
X-56045783Y7053049D01*
X-56062500Y7055250D01*
X-56062501Y7055250D01*
X-56206210Y7036331D01*
X-56340125Y6980861D01*
X-56455122Y6892622D01*
X-56543361Y6777625D01*
X-56598831Y6643710D01*
X-56617750Y6500001D01*
X-56598831Y6356291D01*
X-56566246Y6277625D01*
X-56543361Y6222375D01*
X-56508242Y6176607D01*
X-56455122Y6107379D01*
X-56417541Y6078542D01*
X-56382885Y6028118D01*
X-56384486Y5966953D01*
X-56417541Y5921458D01*
X-56455122Y5892622D01*
X-56543361Y5777625D01*
X-56598831Y5643710D01*
X-56617750Y5500000D01*
X-64974500Y5500000D01*
X-64974500Y7500000D01*
X-51055250Y7500000D01*
X-51036331Y7356291D01*
X-51003746Y7277625D01*
X-50980861Y7222375D01*
X-50942550Y7172448D01*
X-50892622Y7107379D01*
X-50842694Y7069068D01*
X-50777625Y7019139D01*
X-50685212Y6980861D01*
X-50643710Y6963670D01*
X-50626992Y6961469D01*
X-50500000Y6944750D01*
X-50356291Y6963670D01*
X-50222375Y7019139D01*
X-50107379Y7107379D01*
X-50019139Y7222375D01*
X-49963670Y7356291D01*
X-49944750Y7500000D01*
X-49963670Y7643709D01*
X-49966474Y7650478D01*
X-49996254Y7722375D01*
X-50019139Y7777625D01*
X-50103298Y7887303D01*
X-50107379Y7892622D01*
X-50144959Y7921458D01*
X-50179615Y7971882D01*
X-50178879Y8000000D01*
X-17805565Y8000000D01*
X-17785368Y7820742D01*
X-17750947Y7722375D01*
X-17725789Y7650478D01*
X-17629816Y7497738D01*
X-17502262Y7370184D01*
X-17349522Y7274211D01*
X-17241149Y7236290D01*
X-17179259Y7214633D01*
X-17179258Y7214633D01*
X-17179255Y7214632D01*
X-17000000Y7194435D01*
X-16820745Y7214632D01*
X-16650478Y7274211D01*
X-16497738Y7370184D01*
X-16370184Y7497738D01*
X-16274211Y7650478D01*
X-16214632Y7820745D01*
X-16194435Y8000000D01*
X-7555250Y8000000D01*
X-7536331Y7856291D01*
X-7503746Y7777625D01*
X-7480861Y7722375D01*
X-7471503Y7710180D01*
X-7392622Y7607379D01*
X-7355043Y7578544D01*
X-7277625Y7519139D01*
X-7185212Y7480861D01*
X-7143710Y7463670D01*
X-7121922Y7460802D01*
X-7000000Y7444750D01*
X-6973464Y7448244D01*
X-6913305Y7437094D01*
X-6871187Y7392712D01*
X-6863201Y7332051D01*
X-6882000Y7289825D01*
X-6891361Y7277626D01*
X-6946831Y7143710D01*
X-6965750Y7000000D01*
X-6946831Y6856291D01*
X-6934956Y6827623D01*
X-6891361Y6722375D01*
X-6853050Y6672448D01*
X-6803122Y6607379D01*
X-6753194Y6569068D01*
X-6688125Y6519139D01*
X-6595712Y6480861D01*
X-6554210Y6463670D01*
X-6532422Y6460802D01*
X-6410500Y6444750D01*
X-6383964Y6448244D01*
X-6323805Y6437094D01*
X-6281687Y6392712D01*
X-6273701Y6332051D01*
X-6292500Y6289825D01*
X-6301861Y6277626D01*
X-6357331Y6143710D01*
X-6376250Y6000000D01*
X-6357331Y5856291D01*
X-6324746Y5777625D01*
X-6301861Y5722375D01*
X-6290693Y5707821D01*
X-6213622Y5607379D01*
X-6181635Y5582835D01*
X-6098625Y5519139D01*
X-6006212Y5480861D01*
X-5964710Y5463670D01*
X-5947992Y5461469D01*
X-5821000Y5444750D01*
X-5677291Y5463670D01*
X-5543375Y5519139D01*
X-5537266Y5523828D01*
X-5479591Y5544253D01*
X-5437593Y5531814D01*
X-5438926Y5582835D01*
X-5422549Y5614979D01*
X-5340139Y5722375D01*
X-5284670Y5856291D01*
X-5265750Y6000000D01*
X-5284670Y6143709D01*
X-5298295Y6176602D01*
X-5317254Y6222375D01*
X-5340139Y6277625D01*
X-5422366Y6384785D01*
X-5428379Y6392622D01*
X-5496222Y6444679D01*
X-5543375Y6480861D01*
X-5589584Y6500001D01*
X-5677291Y6536331D01*
X-5781117Y6550000D01*
X3444750Y6550000D01*
X3463669Y6406291D01*
X3484380Y6356291D01*
X3519139Y6272375D01*
X3557450Y6222448D01*
X3607378Y6157379D01*
X3657306Y6119068D01*
X3722375Y6069139D01*
X3809510Y6033047D01*
X3856290Y6013670D01*
X3873008Y6011469D01*
X4000000Y5994750D01*
X4143709Y6013670D01*
X4277625Y6069139D01*
X4392621Y6157379D01*
X4480861Y6272375D01*
X4536330Y6406291D01*
X4555250Y6550000D01*
X4536330Y6693709D01*
X4480861Y6827625D01*
X4394836Y6939734D01*
X4374413Y6997408D01*
X4391790Y7056074D01*
X4394822Y7060248D01*
X4480861Y7172375D01*
X4536330Y7306291D01*
X4555250Y7450000D01*
X4536330Y7593709D01*
X4530704Y7607291D01*
X4512816Y7650478D01*
X4480861Y7727625D01*
X4430932Y7792694D01*
X4392621Y7842622D01*
X4327459Y7892622D01*
X4277625Y7930861D01*
X4238401Y7947108D01*
X4143709Y7986331D01*
X4000000Y8005250D01*
X3856290Y7986331D01*
X3722375Y7930861D01*
X3607378Y7842622D01*
X3519139Y7727625D01*
X3463669Y7593710D01*
X3444750Y7450001D01*
X3463669Y7306291D01*
X3519138Y7172376D01*
X3605162Y7060268D01*
X3625586Y7002593D01*
X3608209Y6943927D01*
X3605162Y6939734D01*
X3519139Y6827626D01*
X3463669Y6693710D01*
X3444750Y6550000D01*
X-5781117Y6550000D01*
X-5821002Y6555251D01*
X-5847538Y6551757D01*
X-5907698Y6562908D01*
X-5949815Y6607291D01*
X-5957800Y6667953D01*
X-5939000Y6710176D01*
X-5929639Y6722375D01*
X-5874170Y6856291D01*
X-5855250Y7000000D01*
X-5874170Y7143709D01*
X-5929639Y7277625D01*
X-6000662Y7370184D01*
X-6017879Y7392622D01*
X-6082948Y7442550D01*
X-6132875Y7480861D01*
X-6179084Y7500001D01*
X-6266791Y7536331D01*
X-6410502Y7555251D01*
X-6437038Y7551757D01*
X-6497198Y7562908D01*
X-6539315Y7607291D01*
X-6547300Y7667953D01*
X-6528500Y7710176D01*
X-6519139Y7722375D01*
X-6463670Y7856291D01*
X-6444750Y8000000D01*
X-6463670Y8143709D01*
X-6519139Y8277625D01*
X-6590162Y8370184D01*
X-6607379Y8392622D01*
X-6672448Y8442550D01*
X-6722375Y8480861D01*
X-6774042Y8502262D01*
X-6856291Y8536331D01*
X-6983283Y8553049D01*
X-7000000Y8555250D01*
X-7000001Y8555250D01*
X-7143710Y8536331D01*
X-7277625Y8480861D01*
X-7392622Y8392622D01*
X-7480861Y8277625D01*
X-7536331Y8143710D01*
X-7555250Y8000000D01*
X-16194435Y8000000D01*
X-16214632Y8179255D01*
X-16219944Y8194435D01*
X-16249053Y8277625D01*
X-16274211Y8349522D01*
X-16370184Y8502262D01*
X-16497738Y8629816D01*
X-16650478Y8725789D01*
X-16690419Y8739765D01*
X-16820742Y8785368D01*
X-16955187Y8800516D01*
X-17000000Y8805565D01*
X-17000001Y8805565D01*
X-17179259Y8785368D01*
X-17349520Y8725790D01*
X-17349522Y8725790D01*
X-17349522Y8725789D01*
X-17354955Y8722375D01*
X-17502261Y8629817D01*
X-17629817Y8502261D01*
X-17632659Y8497738D01*
X-17702049Y8387303D01*
X-17725790Y8349520D01*
X-17785368Y8179259D01*
X-17805565Y8000000D01*
X-50178879Y8000000D01*
X-50178014Y8033047D01*
X-50144959Y8078542D01*
X-50107379Y8107379D01*
X-50079502Y8143709D01*
X-50019139Y8222375D01*
X-49963670Y8356291D01*
X-49944750Y8500000D01*
X-49963670Y8643709D01*
X-49966474Y8650478D01*
X-49996254Y8722375D01*
X-50019139Y8777625D01*
X-50079502Y8856291D01*
X-50107380Y8892623D01*
X-50144960Y8921460D01*
X-50179615Y8971885D01*
X-50178879Y9000001D01*
X-48555250Y9000001D01*
X-48536331Y8856291D01*
X-48506953Y8785368D01*
X-48480861Y8722375D01*
X-48442550Y8672448D01*
X-48392622Y8607379D01*
X-48342694Y8569068D01*
X-48277625Y8519139D01*
X-48185212Y8480861D01*
X-48143710Y8463670D01*
X-48126992Y8461469D01*
X-48000000Y8444750D01*
X-47856291Y8463670D01*
X-47722375Y8519139D01*
X-47607379Y8607379D01*
X-47519139Y8722375D01*
X-47463670Y8856291D01*
X-47444750Y9000000D01*
X-47444750Y9000001D01*
X-37805565Y9000001D01*
X-37785368Y8820742D01*
X-37750947Y8722375D01*
X-37725789Y8650478D01*
X-37629816Y8497738D01*
X-37502262Y8370184D01*
X-37349522Y8274211D01*
X-37241149Y8236290D01*
X-37179259Y8214633D01*
X-37179258Y8214633D01*
X-37179255Y8214632D01*
X-37000000Y8194435D01*
X-36820745Y8214632D01*
X-36650478Y8274211D01*
X-36497738Y8370184D01*
X-36370184Y8497738D01*
X-36274211Y8650478D01*
X-36214632Y8820745D01*
X-36194435Y9000000D01*
X-36194435Y9000001D01*
X14444750Y9000001D01*
X14463669Y8856291D01*
X14493047Y8785368D01*
X14519139Y8722375D01*
X14557450Y8672448D01*
X14607378Y8607379D01*
X14657306Y8569068D01*
X14722375Y8519139D01*
X14814788Y8480861D01*
X14856290Y8463670D01*
X14873008Y8461469D01*
X15000000Y8444750D01*
X15143709Y8463670D01*
X15277625Y8519139D01*
X15392621Y8607379D01*
X15480861Y8722375D01*
X15536330Y8856291D01*
X15555250Y9000000D01*
X36444750Y9000000D01*
X36463669Y8856291D01*
X36493047Y8785368D01*
X36519139Y8722375D01*
X36557450Y8672448D01*
X36607378Y8607379D01*
X36657306Y8569068D01*
X36722375Y8519139D01*
X36814788Y8480861D01*
X36856290Y8463670D01*
X36875210Y8461180D01*
X37000000Y8444750D01*
X37143709Y8463670D01*
X37277625Y8519139D01*
X37392621Y8607379D01*
X37480861Y8722375D01*
X37536330Y8856291D01*
X37555250Y9000000D01*
X37536330Y9143709D01*
X37529096Y9161173D01*
X37503746Y9222375D01*
X37480861Y9277625D01*
X37396702Y9387303D01*
X37392621Y9392622D01*
X37327275Y9442763D01*
X37277625Y9480861D01*
X37225958Y9502262D01*
X37143709Y9536331D01*
X37015191Y9553250D01*
X37000000Y9555250D01*
X36999999Y9555250D01*
X36856290Y9536331D01*
X36722375Y9480861D01*
X36607378Y9392622D01*
X36519139Y9277625D01*
X36463669Y9143710D01*
X36444750Y9000000D01*
X15555250Y9000000D01*
X15536330Y9143709D01*
X15529096Y9161173D01*
X15503746Y9222375D01*
X15480861Y9277625D01*
X15396702Y9387303D01*
X15392621Y9392622D01*
X15327275Y9442763D01*
X15277625Y9480861D01*
X15225958Y9502262D01*
X15143709Y9536331D01*
X15000000Y9555250D01*
X14856290Y9536331D01*
X14722375Y9480861D01*
X14607378Y9392622D01*
X14519139Y9277625D01*
X14463669Y9143710D01*
X14444750Y9000001D01*
X-36194435Y9000001D01*
X-36214632Y9179255D01*
X-36214975Y9180234D01*
X-36249053Y9277625D01*
X-36274211Y9349522D01*
X-36370184Y9502262D01*
X-36497738Y9629816D01*
X-36650478Y9725789D01*
X-36658185Y9728486D01*
X-36820742Y9785368D01*
X-36955187Y9800516D01*
X-37000000Y9805565D01*
X-37000001Y9805565D01*
X-37179259Y9785368D01*
X-37349520Y9725790D01*
X-37349522Y9725790D01*
X-37349522Y9725789D01*
X-37354955Y9722375D01*
X-37502261Y9629817D01*
X-37629817Y9502261D01*
X-37665953Y9444751D01*
X-37702049Y9387303D01*
X-37725790Y9349520D01*
X-37785368Y9179259D01*
X-37805565Y9000001D01*
X-47444750Y9000001D01*
X-47463670Y9143709D01*
X-47470904Y9161173D01*
X-47496254Y9222375D01*
X-47519139Y9277625D01*
X-47603298Y9387303D01*
X-47607379Y9392622D01*
X-47672725Y9442763D01*
X-47722375Y9480861D01*
X-47774042Y9502262D01*
X-47856291Y9536331D01*
X-48000000Y9555250D01*
X-48143710Y9536331D01*
X-48277625Y9480861D01*
X-48392622Y9392622D01*
X-48480861Y9277625D01*
X-48536331Y9143710D01*
X-48555250Y9000001D01*
X-50178879Y9000001D01*
X-50178013Y9033049D01*
X-50144959Y9078543D01*
X-50107379Y9107379D01*
X-50103297Y9112698D01*
X-50074291Y9150500D01*
X-50019139Y9222375D01*
X-49963670Y9356291D01*
X-49944750Y9500000D01*
X-49963670Y9643709D01*
X-50019139Y9777625D01*
X-50079502Y9856291D01*
X-50107379Y9892622D01*
X-50172448Y9942550D01*
X-50222375Y9980861D01*
X-50268581Y10000000D01*
X-18555250Y10000000D01*
X-18536331Y9856291D01*
X-18515319Y9805565D01*
X-18480861Y9722375D01*
X-18460221Y9695477D01*
X-18392622Y9607379D01*
X-18363842Y9585296D01*
X-18277625Y9519139D01*
X-18185212Y9480861D01*
X-18143710Y9463670D01*
X-18126992Y9461469D01*
X-18000000Y9444750D01*
X-17856291Y9463670D01*
X-17722375Y9519139D01*
X-17607379Y9607379D01*
X-17519139Y9722375D01*
X-17463670Y9856291D01*
X-17444750Y10000000D01*
X-11555250Y10000000D01*
X-11536331Y9856291D01*
X-11515319Y9805565D01*
X-11480861Y9722375D01*
X-11460221Y9695477D01*
X-11392622Y9607379D01*
X-11363842Y9585296D01*
X-11277625Y9519139D01*
X-11185212Y9480861D01*
X-11143710Y9463670D01*
X-11126992Y9461469D01*
X-11000000Y9444750D01*
X-10856291Y9463670D01*
X-10722375Y9519139D01*
X-10607379Y9607379D01*
X-10519139Y9722375D01*
X-10463670Y9856291D01*
X-10444750Y10000000D01*
X-10463670Y10143709D01*
X-10469710Y10158290D01*
X-10495270Y10219999D01*
X-10519139Y10277625D01*
X-10573263Y10348160D01*
X-10607379Y10392622D01*
X-10672448Y10442550D01*
X-10722375Y10480861D01*
X-10778050Y10503922D01*
X-10856291Y10536331D01*
X-10983283Y10553049D01*
X-11000000Y10555250D01*
X-11000001Y10555250D01*
X-11143710Y10536331D01*
X-11277625Y10480861D01*
X-11392622Y10392622D01*
X-11480861Y10277625D01*
X-11536331Y10143710D01*
X-11555250Y10000000D01*
X-17444750Y10000000D01*
X-17463670Y10143709D01*
X-17469710Y10158290D01*
X-17495270Y10219999D01*
X-17519139Y10277625D01*
X-17573263Y10348160D01*
X-17607379Y10392622D01*
X-17672448Y10442550D01*
X-17722375Y10480861D01*
X-17778050Y10503922D01*
X-17856291Y10536331D01*
X-18000000Y10555250D01*
X-18143710Y10536331D01*
X-18277625Y10480861D01*
X-18392622Y10392622D01*
X-18480861Y10277625D01*
X-18536331Y10143710D01*
X-18555250Y10000000D01*
X-50268581Y10000000D01*
X-50268586Y10000002D01*
X-50356291Y10036331D01*
X-50500000Y10055250D01*
X-50643710Y10036331D01*
X-50777625Y9980861D01*
X-50892622Y9892622D01*
X-50980861Y9777625D01*
X-51036331Y9643710D01*
X-51055250Y9500001D01*
X-51036331Y9356291D01*
X-51003746Y9277625D01*
X-50980861Y9222375D01*
X-50948525Y9180234D01*
X-50892622Y9107379D01*
X-50855041Y9078542D01*
X-50820385Y9028118D01*
X-50821986Y8966953D01*
X-50855041Y8921458D01*
X-50892622Y8892622D01*
X-50980861Y8777625D01*
X-51036331Y8643710D01*
X-51055250Y8500001D01*
X-51036331Y8356291D01*
X-51019020Y8314500D01*
X-50980861Y8222375D01*
X-50947777Y8179259D01*
X-50892622Y8107379D01*
X-50855041Y8078542D01*
X-50820385Y8028118D01*
X-50821986Y7966953D01*
X-50855041Y7921458D01*
X-50892622Y7892622D01*
X-50980861Y7777625D01*
X-51036331Y7643710D01*
X-51055250Y7500000D01*
X-64974500Y7500000D01*
X-64974500Y10220000D01*
X-63285802Y10220000D01*
X-63248818Y10069953D01*
X-63169822Y9919437D01*
X-63057095Y9792195D01*
X-62917196Y9695630D01*
X-62758249Y9635349D01*
X-62634808Y9620361D01*
X-62628853Y9620000D01*
X-62389501Y9620000D01*
X-62389500Y9620002D01*
X-62389500Y10020000D01*
X-62189500Y10020000D01*
X-62189500Y9620001D01*
X-62189499Y9620000D01*
X-61950147Y9620000D01*
X-61944193Y9620361D01*
X-61820752Y9635349D01*
X-61661805Y9695630D01*
X-61521906Y9792195D01*
X-61409179Y9919437D01*
X-61330183Y10069953D01*
X-61293198Y10220000D01*
X-59355802Y10220000D01*
X-59318818Y10069953D01*
X-59239822Y9919437D01*
X-59127095Y9792195D01*
X-58987196Y9695630D01*
X-58828249Y9635349D01*
X-58804823Y9632505D01*
X-58749335Y9606723D01*
X-58719599Y9553250D01*
X-58726972Y9492510D01*
X-58768640Y9447705D01*
X-58778867Y9442763D01*
X-58899735Y9392697D01*
X-59019952Y9300452D01*
X-59112198Y9180234D01*
X-59170188Y9040236D01*
X-59189966Y8890000D01*
X-59170188Y8739765D01*
X-59112198Y8599767D01*
X-59019952Y8479549D01*
X-58927705Y8408766D01*
X-58899733Y8387302D01*
X-58759736Y8329313D01*
X-58647220Y8314500D01*
X-58643979Y8314500D01*
X-58575021Y8314500D01*
X-58571780Y8314500D01*
X-58459264Y8329313D01*
X-58319267Y8387302D01*
X-58199049Y8479549D01*
X-58183356Y8500000D01*
X-56717779Y8500000D01*
X-56698738Y8343185D01*
X-56698738Y8343183D01*
X-56698737Y8343182D01*
X-56642720Y8195477D01*
X-56552983Y8065470D01*
X-56434740Y7960717D01*
X-56377855Y7930861D01*
X-56294864Y7887303D01*
X-56141487Y7849500D01*
X-56141485Y7849500D01*
X-55983513Y7849500D01*
X-55830137Y7887303D01*
X-55830135Y7887304D01*
X-55690260Y7960717D01*
X-55572017Y8065470D01*
X-55482280Y8195477D01*
X-55426263Y8343182D01*
X-55407222Y8500000D01*
X-55407497Y8502261D01*
X-55420260Y8607379D01*
X-55426263Y8656818D01*
X-55482280Y8804523D01*
X-55572017Y8934530D01*
X-55690260Y9039283D01*
X-55697213Y9042933D01*
X-55830137Y9112698D01*
X-55983513Y9150500D01*
X-55983515Y9150500D01*
X-56141485Y9150500D01*
X-56141487Y9150500D01*
X-56294864Y9112698D01*
X-56434739Y9039284D01*
X-56552983Y8934530D01*
X-56642720Y8804524D01*
X-56698738Y8656816D01*
X-56717779Y8500000D01*
X-58183356Y8500000D01*
X-58106802Y8599767D01*
X-58048813Y8739764D01*
X-58029034Y8890000D01*
X-58048813Y9040236D01*
X-58106802Y9180233D01*
X-58139140Y9222376D01*
X-58199049Y9300452D01*
X-58319267Y9392698D01*
X-58319268Y9392698D01*
X-58408203Y9429537D01*
X-58454728Y9469273D01*
X-58469011Y9528768D01*
X-58445596Y9585296D01*
X-58393427Y9617265D01*
X-58370316Y9620000D01*
X-58209501Y9620000D01*
X-58209500Y9620001D01*
X-58209500Y10020000D01*
X-58009500Y10020000D01*
X-58009500Y9620001D01*
X-58009499Y9620000D01*
X-57520147Y9620000D01*
X-57514193Y9620361D01*
X-57390752Y9635349D01*
X-57231805Y9695630D01*
X-57091906Y9792195D01*
X-56979180Y9919435D01*
X-56902884Y10064809D01*
X-56859100Y10107549D01*
X-56798557Y10116390D01*
X-56744380Y10087957D01*
X-56717262Y10033109D01*
X-56716944Y10006876D01*
X-56717779Y10000002D01*
X-56698738Y9843185D01*
X-56698738Y9843183D01*
X-56698737Y9843182D01*
X-56642720Y9695477D01*
X-56552983Y9565470D01*
X-56434740Y9460717D01*
X-56380524Y9432262D01*
X-56294864Y9387303D01*
X-56141487Y9349500D01*
X-56141485Y9349500D01*
X-55983513Y9349500D01*
X-55830137Y9387303D01*
X-55830135Y9387304D01*
X-55690260Y9460717D01*
X-55572017Y9565470D01*
X-55482280Y9695477D01*
X-55426263Y9843182D01*
X-55407222Y10000000D01*
X-55426263Y10156818D01*
X-55482280Y10304523D01*
X-55572017Y10434530D01*
X-55690260Y10539283D01*
X-55720682Y10555250D01*
X-55830137Y10612698D01*
X-55983513Y10650500D01*
X-55983515Y10650500D01*
X-56141485Y10650500D01*
X-56141487Y10650500D01*
X-56294864Y10612698D01*
X-56434739Y10539284D01*
X-56552983Y10434530D01*
X-56642722Y10304520D01*
X-56673992Y10222068D01*
X-56712305Y10174363D01*
X-56771342Y10158290D01*
X-56828551Y10179987D01*
X-56844490Y10196119D01*
X-56863199Y10220000D01*
X-57276045Y10220000D01*
X-57255605Y10291840D01*
X-57265954Y10403521D01*
X-57274160Y10420000D01*
X-56863199Y10420000D01*
X-56900183Y10570048D01*
X-56979179Y10720564D01*
X-57091906Y10847806D01*
X-57231805Y10944371D01*
X-57378488Y11000001D01*
X40444750Y11000001D01*
X40463669Y10856291D01*
X40492031Y10787821D01*
X40519139Y10722375D01*
X40520529Y10720564D01*
X40607378Y10607379D01*
X40643732Y10579484D01*
X40722375Y10519139D01*
X40814788Y10480861D01*
X40856290Y10463670D01*
X40873008Y10461469D01*
X41000000Y10444750D01*
X41143709Y10463670D01*
X41277625Y10519139D01*
X41304811Y10540000D01*
X58414357Y10540000D01*
X58434892Y10292179D01*
X58479408Y10116390D01*
X58495938Y10051115D01*
X58595824Y9823399D01*
X58595827Y9823393D01*
X58731836Y9615215D01*
X58900256Y9432262D01*
X59096491Y9279526D01*
X59315190Y9161172D01*
X59550386Y9080429D01*
X59795665Y9039500D01*
X59795666Y9039500D01*
X60044334Y9039500D01*
X60044335Y9039500D01*
X60289614Y9080429D01*
X60524810Y9161172D01*
X60743509Y9279526D01*
X60939744Y9432262D01*
X61108164Y9615215D01*
X61244173Y9823393D01*
X61344063Y10051119D01*
X61405108Y10292179D01*
X61425643Y10540000D01*
X63494357Y10540000D01*
X63514892Y10292179D01*
X63559408Y10116390D01*
X63575938Y10051115D01*
X63675824Y9823399D01*
X63675827Y9823393D01*
X63811836Y9615215D01*
X63980256Y9432262D01*
X64176491Y9279526D01*
X64395190Y9161172D01*
X64630386Y9080429D01*
X64875665Y9039500D01*
X64875666Y9039500D01*
X65124334Y9039500D01*
X65124335Y9039500D01*
X65369614Y9080429D01*
X65604810Y9161172D01*
X65823509Y9279526D01*
X66019744Y9432262D01*
X66188164Y9615215D01*
X66324173Y9823393D01*
X66424063Y10051119D01*
X66485108Y10292179D01*
X66505643Y10540000D01*
X66485108Y10787821D01*
X66424063Y11028881D01*
X66324173Y11256607D01*
X66188164Y11464785D01*
X66019744Y11647738D01*
X65823509Y11800474D01*
X65604810Y11918828D01*
X65604810Y11918829D01*
X65369612Y11999572D01*
X65173460Y12032303D01*
X65124335Y12040500D01*
X64875665Y12040500D01*
X64834736Y12033671D01*
X64630387Y11999572D01*
X64395189Y11918828D01*
X64176490Y11800474D01*
X63980257Y11647739D01*
X63811836Y11464786D01*
X63675824Y11256602D01*
X63575938Y11028886D01*
X63568623Y11000000D01*
X63514892Y10787821D01*
X63494357Y10540000D01*
X61425643Y10540000D01*
X61405108Y10787821D01*
X61344063Y11028881D01*
X61244173Y11256607D01*
X61108164Y11464785D01*
X60939744Y11647738D01*
X60743509Y11800474D01*
X60524810Y11918828D01*
X60524809Y11918829D01*
X60289612Y11999572D01*
X60093460Y12032303D01*
X60044335Y12040500D01*
X59795665Y12040500D01*
X59754736Y12033671D01*
X59550387Y11999572D01*
X59315189Y11918828D01*
X59096490Y11800474D01*
X58900257Y11647739D01*
X58731836Y11464786D01*
X58595824Y11256602D01*
X58495938Y11028886D01*
X58488623Y11000000D01*
X58434892Y10787821D01*
X58414357Y10540000D01*
X41304811Y10540000D01*
X41392621Y10607379D01*
X41480861Y10722375D01*
X41536330Y10856291D01*
X41555250Y11000000D01*
X41536330Y11143709D01*
X41480861Y11277625D01*
X41430932Y11342694D01*
X41392621Y11392622D01*
X41327552Y11442550D01*
X41277625Y11480861D01*
X41238401Y11497108D01*
X41143709Y11536331D01*
X41000000Y11555250D01*
X40856290Y11536331D01*
X40722375Y11480861D01*
X40607378Y11392622D01*
X40519139Y11277625D01*
X40463669Y11143710D01*
X40444750Y11000001D01*
X-57378488Y11000001D01*
X-57390752Y11004652D01*
X-57514193Y11019640D01*
X-57520147Y11020000D01*
X-58009499Y11020000D01*
X-58009500Y11019999D01*
X-58009500Y10620000D01*
X-58209500Y10620000D01*
X-58209500Y11019999D01*
X-58209501Y11020000D01*
X-58698853Y11020000D01*
X-58704808Y11019640D01*
X-58828249Y11004652D01*
X-58987196Y10944371D01*
X-59127095Y10847806D01*
X-59239822Y10720564D01*
X-59318818Y10570048D01*
X-59355802Y10420000D01*
X-58942955Y10420000D01*
X-58963395Y10348160D01*
X-58953046Y10236479D01*
X-58944840Y10220000D01*
X-59355802Y10220000D01*
X-61293198Y10220000D01*
X-61706045Y10220000D01*
X-61685605Y10291840D01*
X-61695954Y10403521D01*
X-61704160Y10420000D01*
X-61293199Y10420000D01*
X-61330183Y10570048D01*
X-61409179Y10720564D01*
X-61521906Y10847806D01*
X-61661805Y10944371D01*
X-61820752Y11004652D01*
X-61944193Y11019640D01*
X-61950147Y11020000D01*
X-62189499Y11020000D01*
X-62189500Y11019999D01*
X-62189500Y10620000D01*
X-62389500Y10620000D01*
X-62389500Y11019999D01*
X-62389501Y11020000D01*
X-62628853Y11020000D01*
X-62634808Y11019640D01*
X-62758249Y11004652D01*
X-62917196Y10944371D01*
X-63057095Y10847806D01*
X-63169822Y10720564D01*
X-63248818Y10570048D01*
X-63285802Y10420000D01*
X-62872955Y10420000D01*
X-62893395Y10348160D01*
X-62883046Y10236479D01*
X-62874840Y10220000D01*
X-63285802Y10220000D01*
X-64974500Y10220000D01*
X-64974500Y12000000D01*
X17481798Y12000000D01*
X17500717Y11856291D01*
X17539940Y11761599D01*
X17556187Y11722375D01*
X17594498Y11672448D01*
X17644426Y11607379D01*
X17694354Y11569068D01*
X17759423Y11519139D01*
X17851836Y11480861D01*
X17893338Y11463670D01*
X17910056Y11461469D01*
X18037048Y11444750D01*
X18180757Y11463670D01*
X18314673Y11519139D01*
X18429669Y11607379D01*
X18517909Y11722375D01*
X18573378Y11856291D01*
X18592298Y12000000D01*
X25444750Y12000000D01*
X25463669Y11856291D01*
X25502892Y11761599D01*
X25519139Y11722375D01*
X25557450Y11672448D01*
X25607378Y11607379D01*
X25657306Y11569068D01*
X25722375Y11519139D01*
X25814788Y11480861D01*
X25856290Y11463670D01*
X25873008Y11461469D01*
X26000000Y11444750D01*
X26143709Y11463670D01*
X26277625Y11519139D01*
X26392621Y11607379D01*
X26480861Y11722375D01*
X26536330Y11856291D01*
X26555250Y12000000D01*
X54444750Y12000000D01*
X54463669Y11856291D01*
X54502892Y11761599D01*
X54519139Y11722375D01*
X54557450Y11672448D01*
X54607378Y11607379D01*
X54657306Y11569068D01*
X54722375Y11519139D01*
X54814788Y11480861D01*
X54856290Y11463670D01*
X54875209Y11461180D01*
X55000000Y11444750D01*
X55143709Y11463670D01*
X55277625Y11519139D01*
X55392621Y11607379D01*
X55480861Y11722375D01*
X55536330Y11856291D01*
X55555250Y12000000D01*
X55536330Y12143709D01*
X55480861Y12277625D01*
X55430932Y12342694D01*
X55392621Y12392622D01*
X55327552Y12442550D01*
X55277625Y12480861D01*
X55238401Y12497108D01*
X55143709Y12536331D01*
X55016717Y12553049D01*
X55000000Y12555250D01*
X54999999Y12555250D01*
X54856290Y12536331D01*
X54722375Y12480861D01*
X54607378Y12392622D01*
X54519139Y12277625D01*
X54463669Y12143710D01*
X54444750Y12000000D01*
X26555250Y12000000D01*
X26536330Y12143709D01*
X26480861Y12277625D01*
X26430932Y12342694D01*
X26392621Y12392622D01*
X26327552Y12442550D01*
X26277625Y12480861D01*
X26238401Y12497108D01*
X26143709Y12536331D01*
X26000000Y12555250D01*
X25856290Y12536331D01*
X25722375Y12480861D01*
X25607378Y12392622D01*
X25519139Y12277625D01*
X25463669Y12143710D01*
X25444750Y12000000D01*
X18592298Y12000000D01*
X18573378Y12143709D01*
X18517909Y12277625D01*
X18467980Y12342694D01*
X18429669Y12392622D01*
X18364600Y12442550D01*
X18314673Y12480861D01*
X18275449Y12497108D01*
X18180757Y12536331D01*
X18037048Y12555250D01*
X17893338Y12536331D01*
X17759423Y12480861D01*
X17644426Y12392622D01*
X17556187Y12277625D01*
X17500717Y12143710D01*
X17481798Y12000000D01*
X-64974500Y12000000D01*
X-64974500Y14000001D01*
X-60555250Y14000001D01*
X-60536331Y13856291D01*
X-60497108Y13761599D01*
X-60480861Y13722375D01*
X-60442550Y13672448D01*
X-60392622Y13607379D01*
X-60342694Y13569068D01*
X-60277625Y13519139D01*
X-60182933Y13479917D01*
X-60143710Y13463670D01*
X-60126992Y13461469D01*
X-60000000Y13444750D01*
X-59856291Y13463670D01*
X-59722375Y13519139D01*
X-59607379Y13607379D01*
X-59519139Y13722375D01*
X-59463670Y13856291D01*
X-59444750Y14000000D01*
X-59444750Y14000001D01*
X-43805565Y14000001D01*
X-43785368Y13820742D01*
X-43750947Y13722375D01*
X-43725789Y13650478D01*
X-43629816Y13497738D01*
X-43502262Y13370184D01*
X-43349522Y13274211D01*
X-43241149Y13236290D01*
X-43179259Y13214633D01*
X-43179258Y13214633D01*
X-43179255Y13214632D01*
X-43000000Y13194435D01*
X-42820745Y13214632D01*
X-42650478Y13274211D01*
X-42497738Y13370184D01*
X-42370184Y13497738D01*
X-42274211Y13650478D01*
X-42214632Y13820745D01*
X-42194435Y14000000D01*
X-42214632Y14179255D01*
X-42219944Y14194435D01*
X-42249053Y14277625D01*
X-42274211Y14349522D01*
X-42370184Y14502262D01*
X-42497738Y14629816D01*
X-42650478Y14725789D01*
X-42658185Y14728486D01*
X-42820742Y14785368D01*
X-42955187Y14800516D01*
X-43000000Y14805565D01*
X-43000001Y14805565D01*
X-43179259Y14785368D01*
X-43349520Y14725790D01*
X-43349522Y14725790D01*
X-43349522Y14725789D01*
X-43354955Y14722375D01*
X-43502261Y14629817D01*
X-43629817Y14502261D01*
X-43725790Y14349520D01*
X-43785368Y14179259D01*
X-43805565Y14000001D01*
X-59444750Y14000001D01*
X-59463670Y14143709D01*
X-59519139Y14277625D01*
X-59590162Y14370184D01*
X-59607379Y14392622D01*
X-59672448Y14442550D01*
X-59722375Y14480861D01*
X-59774042Y14502262D01*
X-59856291Y14536331D01*
X-60000000Y14555250D01*
X-60143710Y14536331D01*
X-60277625Y14480861D01*
X-60392622Y14392622D01*
X-60480861Y14277625D01*
X-60536331Y14143710D01*
X-60555250Y14000001D01*
X-64974500Y14000001D01*
X-64974500Y15000001D01*
X-41555250Y15000001D01*
X-41536331Y14856291D01*
X-41515319Y14805565D01*
X-41480861Y14722375D01*
X-41442550Y14672448D01*
X-41392622Y14607379D01*
X-41342694Y14569068D01*
X-41277625Y14519139D01*
X-41185212Y14480861D01*
X-41143710Y14463670D01*
X-41126992Y14461469D01*
X-41000000Y14444750D01*
X-40856291Y14463670D01*
X-40722375Y14519139D01*
X-40607379Y14607379D01*
X-40519139Y14722375D01*
X-40463670Y14856291D01*
X-40444750Y15000000D01*
X-30555250Y15000000D01*
X-30536331Y14856291D01*
X-30515319Y14805565D01*
X-30480861Y14722375D01*
X-30442550Y14672448D01*
X-30392622Y14607379D01*
X-30342694Y14569068D01*
X-30277625Y14519139D01*
X-30185212Y14480861D01*
X-30143710Y14463670D01*
X-30126992Y14461469D01*
X-30000000Y14444750D01*
X-29856291Y14463670D01*
X-29722375Y14519139D01*
X-29607379Y14607379D01*
X-29519139Y14722375D01*
X-29463670Y14856291D01*
X-29444750Y15000000D01*
X-22555250Y15000000D01*
X-22536331Y14856291D01*
X-22515319Y14805565D01*
X-22480861Y14722375D01*
X-22442550Y14672448D01*
X-22392622Y14607379D01*
X-22342694Y14569068D01*
X-22277625Y14519139D01*
X-22185212Y14480861D01*
X-22143710Y14463670D01*
X-22126992Y14461469D01*
X-22000000Y14444750D01*
X-21856291Y14463670D01*
X-21722375Y14519139D01*
X-21607379Y14607379D01*
X-21519139Y14722375D01*
X-21463670Y14856291D01*
X-21444750Y15000000D01*
X-20305565Y15000000D01*
X-20285368Y14820742D01*
X-20250947Y14722375D01*
X-20225789Y14650478D01*
X-20129816Y14497738D01*
X-20002262Y14370184D01*
X-19849522Y14274211D01*
X-19741149Y14236290D01*
X-19679259Y14214633D01*
X-19679258Y14214633D01*
X-19679255Y14214632D01*
X-19500000Y14194435D01*
X-19320745Y14214632D01*
X-19150478Y14274211D01*
X-18997738Y14370184D01*
X-18870184Y14497738D01*
X-18774211Y14650478D01*
X-18714632Y14820745D01*
X-18694435Y15000000D01*
X-18305565Y15000000D01*
X-18285368Y14820742D01*
X-18250947Y14722375D01*
X-18225789Y14650478D01*
X-18129816Y14497738D01*
X-18002262Y14370184D01*
X-17849522Y14274211D01*
X-17741149Y14236290D01*
X-17679259Y14214633D01*
X-17679258Y14214633D01*
X-17679255Y14214632D01*
X-17500000Y14194435D01*
X-17320745Y14214632D01*
X-17150478Y14274211D01*
X-16997738Y14370184D01*
X-16870184Y14497738D01*
X-16774211Y14650478D01*
X-16714632Y14820745D01*
X-16694435Y15000000D01*
X37444750Y15000000D01*
X37463669Y14856291D01*
X37484681Y14805565D01*
X37519139Y14722375D01*
X37557450Y14672448D01*
X37607378Y14607379D01*
X37657306Y14569068D01*
X37722375Y14519139D01*
X37814788Y14480861D01*
X37856290Y14463670D01*
X37873008Y14461469D01*
X38000000Y14444750D01*
X38143709Y14463670D01*
X38277625Y14519139D01*
X38392621Y14607379D01*
X38480861Y14722375D01*
X38536330Y14856291D01*
X38555250Y15000000D01*
X38536330Y15143709D01*
X38480861Y15277625D01*
X38425692Y15349522D01*
X38392621Y15392622D01*
X38327552Y15442550D01*
X38277625Y15480861D01*
X38225958Y15502262D01*
X38143709Y15536331D01*
X38000000Y15555250D01*
X37856290Y15536331D01*
X37722375Y15480861D01*
X37607378Y15392622D01*
X37519139Y15277625D01*
X37463669Y15143710D01*
X37444750Y15000000D01*
X-16694435Y15000000D01*
X-16714632Y15179255D01*
X-16774211Y15349522D01*
X-16870184Y15502262D01*
X-16997738Y15629816D01*
X-17150478Y15725789D01*
X-17158185Y15728486D01*
X-17320742Y15785368D01*
X-17455187Y15800516D01*
X-17500000Y15805565D01*
X-17500001Y15805565D01*
X-17679259Y15785368D01*
X-17849520Y15725790D01*
X-17849522Y15725790D01*
X-17849522Y15725789D01*
X-17854955Y15722375D01*
X-18002261Y15629817D01*
X-18129817Y15502261D01*
X-18225790Y15349520D01*
X-18285368Y15179259D01*
X-18305565Y15000000D01*
X-18694435Y15000000D01*
X-18714632Y15179255D01*
X-18774211Y15349522D01*
X-18870184Y15502262D01*
X-18997738Y15629816D01*
X-19150478Y15725789D01*
X-19158185Y15728486D01*
X-19320742Y15785368D01*
X-19455187Y15800516D01*
X-19500000Y15805565D01*
X-19500001Y15805565D01*
X-19679259Y15785368D01*
X-19849520Y15725790D01*
X-19849522Y15725790D01*
X-19849522Y15725789D01*
X-19854955Y15722375D01*
X-20002261Y15629817D01*
X-20129817Y15502261D01*
X-20225790Y15349520D01*
X-20285368Y15179259D01*
X-20305565Y15000000D01*
X-21444750Y15000000D01*
X-21463670Y15143709D01*
X-21519139Y15277625D01*
X-21574308Y15349522D01*
X-21607379Y15392622D01*
X-21672448Y15442550D01*
X-21722375Y15480861D01*
X-21774042Y15502262D01*
X-21856291Y15536331D01*
X-22000000Y15555250D01*
X-22143710Y15536331D01*
X-22277625Y15480861D01*
X-22392622Y15392622D01*
X-22480861Y15277625D01*
X-22536331Y15143710D01*
X-22555250Y15000000D01*
X-29444750Y15000000D01*
X-29463670Y15143709D01*
X-29519139Y15277625D01*
X-29574308Y15349522D01*
X-29607379Y15392622D01*
X-29672448Y15442550D01*
X-29722375Y15480861D01*
X-29774042Y15502262D01*
X-29856291Y15536331D01*
X-30000000Y15555250D01*
X-30143710Y15536331D01*
X-30277625Y15480861D01*
X-30392622Y15392622D01*
X-30480861Y15277625D01*
X-30536331Y15143710D01*
X-30555250Y15000000D01*
X-40444750Y15000000D01*
X-40463670Y15143709D01*
X-40519139Y15277625D01*
X-40574308Y15349522D01*
X-40607379Y15392622D01*
X-40672448Y15442550D01*
X-40722375Y15480861D01*
X-40774042Y15502262D01*
X-40856291Y15536331D01*
X-41000000Y15555250D01*
X-41143710Y15536331D01*
X-41277625Y15480861D01*
X-41392622Y15392622D01*
X-41480861Y15277625D01*
X-41536331Y15143710D01*
X-41555250Y15000001D01*
X-64974500Y15000001D01*
X-64974500Y16000000D01*
X-60555250Y16000000D01*
X-60536331Y15856291D01*
X-60515319Y15805565D01*
X-60480861Y15722375D01*
X-60442550Y15672448D01*
X-60392622Y15607379D01*
X-60342694Y15569068D01*
X-60277625Y15519139D01*
X-60185212Y15480861D01*
X-60143710Y15463670D01*
X-60126992Y15461469D01*
X-60000000Y15444750D01*
X-59856291Y15463670D01*
X-59722375Y15519139D01*
X-59607379Y15607379D01*
X-59519139Y15722375D01*
X-59463670Y15856291D01*
X-59444750Y16000000D01*
X7444750Y16000000D01*
X7463669Y15856291D01*
X7484681Y15805565D01*
X7519139Y15722375D01*
X7557450Y15672448D01*
X7607378Y15607379D01*
X7657306Y15569068D01*
X7722375Y15519139D01*
X7814788Y15480861D01*
X7856290Y15463670D01*
X7873008Y15461469D01*
X8000000Y15444750D01*
X8143709Y15463670D01*
X8277625Y15519139D01*
X8392621Y15607379D01*
X8480861Y15722375D01*
X8536330Y15856291D01*
X8555250Y16000000D01*
X24444750Y16000000D01*
X24463669Y15856291D01*
X24484681Y15805565D01*
X24519139Y15722375D01*
X24557450Y15672448D01*
X24607378Y15607379D01*
X24657306Y15569068D01*
X24722375Y15519139D01*
X24814788Y15480861D01*
X24856290Y15463670D01*
X24875210Y15461180D01*
X25000000Y15444750D01*
X25143709Y15463670D01*
X25277625Y15519139D01*
X25392621Y15607379D01*
X25480861Y15722375D01*
X25536330Y15856291D01*
X25555250Y16000000D01*
X25536330Y16143709D01*
X25480861Y16277625D01*
X25430932Y16342694D01*
X25392621Y16392622D01*
X25327552Y16442550D01*
X25277625Y16480861D01*
X25238401Y16497108D01*
X25143709Y16536331D01*
X25016717Y16553049D01*
X25000000Y16555250D01*
X24999999Y16555250D01*
X24856290Y16536331D01*
X24722375Y16480861D01*
X24607378Y16392622D01*
X24519139Y16277625D01*
X24463669Y16143710D01*
X24444750Y16000000D01*
X8555250Y16000000D01*
X8536330Y16143709D01*
X8480861Y16277625D01*
X8430932Y16342694D01*
X8392621Y16392622D01*
X8327552Y16442550D01*
X8277625Y16480861D01*
X8238401Y16497108D01*
X8143709Y16536331D01*
X8000000Y16555250D01*
X7856290Y16536331D01*
X7722375Y16480861D01*
X7607378Y16392622D01*
X7519139Y16277625D01*
X7463669Y16143710D01*
X7444750Y16000000D01*
X-59444750Y16000000D01*
X-59463670Y16143709D01*
X-59519139Y16277625D01*
X-59569068Y16342694D01*
X-59607379Y16392622D01*
X-59672448Y16442550D01*
X-59722375Y16480861D01*
X-59761599Y16497108D01*
X-59856291Y16536331D01*
X-60000000Y16555250D01*
X-60143710Y16536331D01*
X-60277625Y16480861D01*
X-60392622Y16392622D01*
X-60480861Y16277625D01*
X-60536331Y16143710D01*
X-60555250Y16000000D01*
X-64974500Y16000000D01*
X-64974500Y17000000D01*
X-44555250Y17000000D01*
X-44536331Y16856291D01*
X-44497108Y16761599D01*
X-44480861Y16722375D01*
X-44442550Y16672448D01*
X-44392622Y16607379D01*
X-44342694Y16569068D01*
X-44277625Y16519139D01*
X-44185212Y16480861D01*
X-44143710Y16463670D01*
X-44126992Y16461469D01*
X-44000000Y16444750D01*
X-43856291Y16463670D01*
X-43722375Y16519139D01*
X-43607379Y16607379D01*
X-43519139Y16722375D01*
X-43463670Y16856291D01*
X-43444750Y17000000D01*
X-43444750Y17000001D01*
X37444750Y17000001D01*
X37463669Y16856291D01*
X37502892Y16761599D01*
X37519139Y16722375D01*
X37557450Y16672448D01*
X37607378Y16607379D01*
X37657306Y16569068D01*
X37722375Y16519139D01*
X37814788Y16480861D01*
X37856290Y16463670D01*
X37875209Y16461180D01*
X38000000Y16444750D01*
X38143709Y16463670D01*
X38277625Y16519139D01*
X38392621Y16607379D01*
X38480861Y16722375D01*
X38536330Y16856291D01*
X38555250Y17000000D01*
X56444750Y17000000D01*
X56463669Y16856291D01*
X56502892Y16761599D01*
X56519139Y16722375D01*
X56557450Y16672448D01*
X56607378Y16607379D01*
X56657306Y16569068D01*
X56722375Y16519139D01*
X56814788Y16480861D01*
X56856290Y16463670D01*
X56873008Y16461469D01*
X57000000Y16444750D01*
X57143709Y16463670D01*
X57277625Y16519139D01*
X57392621Y16607379D01*
X57480861Y16722375D01*
X57536330Y16856291D01*
X57555250Y17000000D01*
X57536330Y17143709D01*
X57480861Y17277625D01*
X57430932Y17342694D01*
X57392621Y17392622D01*
X57327552Y17442550D01*
X57277625Y17480861D01*
X57238401Y17497108D01*
X57143709Y17536331D01*
X57000000Y17555250D01*
X56856290Y17536331D01*
X56722375Y17480861D01*
X56607378Y17392622D01*
X56519139Y17277625D01*
X56463669Y17143710D01*
X56444750Y17000000D01*
X38555250Y17000000D01*
X38536330Y17143709D01*
X38480861Y17277625D01*
X38430932Y17342694D01*
X38392621Y17392622D01*
X38327552Y17442550D01*
X38277625Y17480861D01*
X38238401Y17497108D01*
X38143709Y17536331D01*
X38016717Y17553049D01*
X38000000Y17555250D01*
X37999999Y17555250D01*
X37856290Y17536331D01*
X37722375Y17480861D01*
X37607378Y17392622D01*
X37519139Y17277625D01*
X37463669Y17143710D01*
X37444750Y17000001D01*
X-43444750Y17000001D01*
X-43463670Y17143709D01*
X-43519139Y17277625D01*
X-43569068Y17342694D01*
X-43607379Y17392622D01*
X-43672448Y17442550D01*
X-43722375Y17480861D01*
X-43761599Y17497108D01*
X-43856291Y17536331D01*
X-44000000Y17555250D01*
X-44143710Y17536331D01*
X-44277625Y17480861D01*
X-44392622Y17392622D01*
X-44480861Y17277625D01*
X-44536331Y17143710D01*
X-44555250Y17000000D01*
X-64974500Y17000000D01*
X-64974500Y18000001D01*
X-60555250Y18000001D01*
X-60536331Y17856291D01*
X-60502332Y17774211D01*
X-60480861Y17722375D01*
X-60442550Y17672448D01*
X-60392622Y17607379D01*
X-60342694Y17569068D01*
X-60277625Y17519139D01*
X-60185212Y17480861D01*
X-60143710Y17463670D01*
X-60126992Y17461469D01*
X-60000000Y17444750D01*
X-59856291Y17463670D01*
X-59722375Y17519139D01*
X-59607379Y17607379D01*
X-59519139Y17722375D01*
X-59463670Y17856291D01*
X-59444750Y18000000D01*
X-59463670Y18143709D01*
X-59466474Y18150478D01*
X-59484681Y18194435D01*
X-59519139Y18277625D01*
X-59574483Y18349750D01*
X-59607379Y18392622D01*
X-59672448Y18442550D01*
X-59722375Y18480861D01*
X-59768584Y18500001D01*
X-59856291Y18536331D01*
X-60000000Y18555250D01*
X-60143710Y18536331D01*
X-60277625Y18480861D01*
X-60392622Y18392622D01*
X-60480861Y18277625D01*
X-60536331Y18143710D01*
X-60555250Y18000001D01*
X-64974500Y18000001D01*
X-64974500Y19000001D01*
X-43555250Y19000001D01*
X-43536331Y18856291D01*
X-43503746Y18777625D01*
X-43480861Y18722375D01*
X-43447777Y18679259D01*
X-43392622Y18607379D01*
X-43342694Y18569068D01*
X-43277625Y18519139D01*
X-43185212Y18480861D01*
X-43143710Y18463670D01*
X-43126992Y18461469D01*
X-43000000Y18444750D01*
X-42856291Y18463670D01*
X-42768581Y18500000D01*
X-18305565Y18500000D01*
X-18285368Y18320742D01*
X-18241171Y18194436D01*
X-18225789Y18150478D01*
X-18129816Y17997738D01*
X-18002262Y17870184D01*
X-17849522Y17774211D01*
X-17741149Y17736290D01*
X-17679259Y17714633D01*
X-17679258Y17714633D01*
X-17679255Y17714632D01*
X-17500000Y17694435D01*
X-17320745Y17714632D01*
X-17150478Y17774211D01*
X-16997738Y17870184D01*
X-16870184Y17997738D01*
X-16868763Y18000000D01*
X-10555250Y18000000D01*
X-10536331Y17856291D01*
X-10502332Y17774211D01*
X-10480861Y17722375D01*
X-10442550Y17672448D01*
X-10392622Y17607379D01*
X-10342694Y17569068D01*
X-10277625Y17519139D01*
X-10185212Y17480861D01*
X-10143710Y17463670D01*
X-10126992Y17461469D01*
X-10000000Y17444750D01*
X-9856291Y17463670D01*
X-9722375Y17519139D01*
X-9607379Y17607379D01*
X-9519139Y17722375D01*
X-9463670Y17856291D01*
X-9444750Y18000000D01*
X-2555250Y18000000D01*
X-2536331Y17856291D01*
X-2502332Y17774211D01*
X-2480861Y17722375D01*
X-2442550Y17672448D01*
X-2392622Y17607379D01*
X-2342694Y17569068D01*
X-2277625Y17519139D01*
X-2185212Y17480861D01*
X-2143710Y17463670D01*
X-2126992Y17461469D01*
X-2000000Y17444750D01*
X-1856291Y17463670D01*
X-1722375Y17519139D01*
X-1607379Y17607379D01*
X-1519139Y17722375D01*
X-1463670Y17856291D01*
X-1444750Y18000000D01*
X1444750Y18000000D01*
X1463669Y17856291D01*
X1497668Y17774211D01*
X1519139Y17722375D01*
X1557450Y17672448D01*
X1607378Y17607379D01*
X1657306Y17569068D01*
X1722375Y17519139D01*
X1814788Y17480861D01*
X1856290Y17463670D01*
X1873008Y17461469D01*
X2000000Y17444750D01*
X2143709Y17463670D01*
X2277625Y17519139D01*
X2392621Y17607379D01*
X2480861Y17722375D01*
X2536330Y17856291D01*
X2555250Y18000000D01*
X12444750Y18000000D01*
X12463669Y17856291D01*
X12497668Y17774211D01*
X12519139Y17722375D01*
X12557450Y17672448D01*
X12607378Y17607379D01*
X12657306Y17569068D01*
X12722375Y17519139D01*
X12814788Y17480861D01*
X12856290Y17463670D01*
X12873008Y17461469D01*
X13000000Y17444750D01*
X13143709Y17463670D01*
X13277625Y17519139D01*
X13392621Y17607379D01*
X13480861Y17722375D01*
X13536330Y17856291D01*
X13555250Y18000000D01*
X13555250Y18000001D01*
X16444750Y18000001D01*
X16463669Y17856291D01*
X16497668Y17774211D01*
X16519139Y17722375D01*
X16557450Y17672448D01*
X16607378Y17607379D01*
X16657306Y17569068D01*
X16722375Y17519139D01*
X16814788Y17480861D01*
X16856290Y17463670D01*
X16873008Y17461469D01*
X17000000Y17444750D01*
X17143709Y17463670D01*
X17277625Y17519139D01*
X17392621Y17607379D01*
X17480861Y17722375D01*
X17536330Y17856291D01*
X17555250Y18000000D01*
X17536330Y18143709D01*
X17533526Y18150478D01*
X17515319Y18194435D01*
X17480861Y18277625D01*
X17425517Y18349750D01*
X17392621Y18392622D01*
X17327552Y18442550D01*
X17277625Y18480861D01*
X17231416Y18500001D01*
X17143709Y18536331D01*
X17000000Y18555250D01*
X16856290Y18536331D01*
X16722375Y18480861D01*
X16607378Y18392622D01*
X16519139Y18277625D01*
X16463669Y18143710D01*
X16444750Y18000001D01*
X13555250Y18000001D01*
X13536330Y18143709D01*
X13533526Y18150478D01*
X13515319Y18194435D01*
X13480861Y18277625D01*
X13425517Y18349750D01*
X13392621Y18392622D01*
X13327552Y18442550D01*
X13277625Y18480861D01*
X13231416Y18500001D01*
X13143709Y18536331D01*
X13000000Y18555250D01*
X12856290Y18536331D01*
X12722375Y18480861D01*
X12607378Y18392622D01*
X12519139Y18277625D01*
X12463669Y18143710D01*
X12444750Y18000000D01*
X2555250Y18000000D01*
X2536330Y18143709D01*
X2533526Y18150478D01*
X2515319Y18194435D01*
X2480861Y18277625D01*
X2425517Y18349750D01*
X2392621Y18392622D01*
X2327552Y18442550D01*
X2277625Y18480861D01*
X2231416Y18500001D01*
X2143709Y18536331D01*
X2000000Y18555250D01*
X1856290Y18536331D01*
X1722375Y18480861D01*
X1607378Y18392622D01*
X1519139Y18277625D01*
X1463669Y18143710D01*
X1444750Y18000000D01*
X-1444750Y18000000D01*
X-1463670Y18143709D01*
X-1466474Y18150478D01*
X-1484681Y18194435D01*
X-1519139Y18277625D01*
X-1574483Y18349750D01*
X-1607379Y18392622D01*
X-1672448Y18442550D01*
X-1722375Y18480861D01*
X-1768584Y18500001D01*
X-1856291Y18536331D01*
X-2000000Y18555250D01*
X-2143710Y18536331D01*
X-2277625Y18480861D01*
X-2392622Y18392622D01*
X-2480861Y18277625D01*
X-2536331Y18143710D01*
X-2555250Y18000000D01*
X-9444750Y18000000D01*
X-9463670Y18143709D01*
X-9466474Y18150478D01*
X-9484681Y18194435D01*
X-9519139Y18277625D01*
X-9574483Y18349750D01*
X-9607379Y18392622D01*
X-9672448Y18442550D01*
X-9722375Y18480861D01*
X-9768584Y18500001D01*
X-9856291Y18536331D01*
X-10000000Y18555250D01*
X-10143710Y18536331D01*
X-10277625Y18480861D01*
X-10392622Y18392622D01*
X-10480861Y18277625D01*
X-10536331Y18143710D01*
X-10555250Y18000000D01*
X-16868763Y18000000D01*
X-16774211Y18150478D01*
X-16714632Y18320745D01*
X-16694435Y18500000D01*
X-16714632Y18679255D01*
X-16774211Y18849522D01*
X-16868763Y19000000D01*
X8194435Y19000000D01*
X8214632Y18820742D01*
X8249053Y18722375D01*
X8274211Y18650478D01*
X8370184Y18497738D01*
X8497738Y18370184D01*
X8650478Y18274211D01*
X8758851Y18236290D01*
X8820741Y18214633D01*
X8820742Y18214633D01*
X8820745Y18214632D01*
X9000000Y18194435D01*
X9179255Y18214632D01*
X9349522Y18274211D01*
X9502262Y18370184D01*
X9629816Y18497738D01*
X9725789Y18650478D01*
X9785368Y18820745D01*
X9794861Y18905001D01*
X24444750Y18905001D01*
X24463669Y18761291D01*
X24479789Y18722375D01*
X24519139Y18627375D01*
X24534483Y18607379D01*
X24607378Y18512379D01*
X24626459Y18497738D01*
X24722375Y18424139D01*
X24817067Y18384917D01*
X24856290Y18368670D01*
X24873008Y18366469D01*
X25000000Y18349750D01*
X25143709Y18368670D01*
X25277625Y18424139D01*
X25392621Y18512379D01*
X25480861Y18627375D01*
X25536330Y18761291D01*
X25555250Y18905000D01*
X25536330Y19048709D01*
X25480861Y19182625D01*
X25429162Y19250000D01*
X25392621Y19297622D01*
X25316161Y19356291D01*
X25277625Y19385861D01*
X25238401Y19402108D01*
X25143709Y19441331D01*
X25000000Y19460250D01*
X24856290Y19441331D01*
X24722375Y19385861D01*
X24607378Y19297622D01*
X24519139Y19182625D01*
X24463669Y19048710D01*
X24444750Y18905001D01*
X9794861Y18905001D01*
X9805565Y19000000D01*
X9785368Y19179255D01*
X9773510Y19213142D01*
X9743950Y19297621D01*
X9725789Y19349522D01*
X9629816Y19502262D01*
X9502262Y19629816D01*
X9349522Y19725789D01*
X9341815Y19728486D01*
X9179258Y19785368D01*
X9044813Y19800516D01*
X9000000Y19805565D01*
X8999999Y19805565D01*
X8820741Y19785368D01*
X8650480Y19725790D01*
X8650478Y19725790D01*
X8650478Y19725789D01*
X8645045Y19722375D01*
X8497739Y19629817D01*
X8370183Y19502261D01*
X8274210Y19349520D01*
X8214632Y19179259D01*
X8194435Y19000000D01*
X-16868763Y19000000D01*
X-16870184Y19002262D01*
X-16997738Y19129816D01*
X-17055605Y19166177D01*
X-17094815Y19213142D01*
X-17098931Y19274189D01*
X-17066379Y19325996D01*
X-17055614Y19333819D01*
X-16997738Y19370184D01*
X-16870184Y19497738D01*
X-16774211Y19650478D01*
X-16714632Y19820745D01*
X-16694435Y20000000D01*
X25444750Y20000000D01*
X25463669Y19856291D01*
X25484681Y19805565D01*
X25519139Y19722375D01*
X25557450Y19672448D01*
X25607378Y19607379D01*
X25657306Y19569068D01*
X25722375Y19519139D01*
X25814788Y19480861D01*
X25856290Y19463670D01*
X25873008Y19461469D01*
X26000000Y19444750D01*
X26143709Y19463670D01*
X26277625Y19519139D01*
X26392621Y19607379D01*
X26480861Y19722375D01*
X26536330Y19856291D01*
X26555250Y20000000D01*
X27444750Y20000000D01*
X27463669Y19856291D01*
X27484681Y19805565D01*
X27519139Y19722375D01*
X27557450Y19672448D01*
X27607378Y19607379D01*
X27657306Y19569068D01*
X27722375Y19519139D01*
X27814788Y19480861D01*
X27856290Y19463670D01*
X27875210Y19461180D01*
X28000000Y19444750D01*
X28143709Y19463670D01*
X28231419Y19500000D01*
X32944750Y19500000D01*
X32963669Y19356291D01*
X32992430Y19286857D01*
X33019139Y19222375D01*
X33052223Y19179259D01*
X33107378Y19107379D01*
X33157306Y19069068D01*
X33222375Y19019139D01*
X33314788Y18980861D01*
X33356290Y18963670D01*
X33375210Y18961180D01*
X33500000Y18944750D01*
X33643709Y18963670D01*
X33731421Y19000001D01*
X37444750Y19000001D01*
X37463669Y18856291D01*
X37496254Y18777625D01*
X37519139Y18722375D01*
X37552223Y18679259D01*
X37607378Y18607379D01*
X37657306Y18569068D01*
X37722375Y18519139D01*
X37814788Y18480861D01*
X37856290Y18463670D01*
X37873008Y18461469D01*
X38000000Y18444750D01*
X38143709Y18463670D01*
X38231421Y18500001D01*
X53444750Y18500001D01*
X53463669Y18356291D01*
X53496254Y18277625D01*
X53519139Y18222375D01*
X53557450Y18172448D01*
X53607378Y18107379D01*
X53657306Y18069068D01*
X53722375Y18019139D01*
X53817067Y17979917D01*
X53856290Y17963670D01*
X53873008Y17961469D01*
X54000000Y17944750D01*
X54143709Y17963670D01*
X54277625Y18019139D01*
X54392621Y18107379D01*
X54480861Y18222375D01*
X54536330Y18356291D01*
X54555250Y18500000D01*
X54555250Y18500001D01*
X55444750Y18500001D01*
X55463669Y18356291D01*
X55496254Y18277625D01*
X55519139Y18222375D01*
X55557450Y18172448D01*
X55607378Y18107379D01*
X55657306Y18069068D01*
X55722375Y18019139D01*
X55817067Y17979917D01*
X55856290Y17963670D01*
X55873008Y17961469D01*
X56000000Y17944750D01*
X56143709Y17963670D01*
X56277625Y18019139D01*
X56392621Y18107379D01*
X56480861Y18222375D01*
X56536330Y18356291D01*
X56555250Y18500000D01*
X56536330Y18643709D01*
X56533526Y18650478D01*
X56503746Y18722375D01*
X56480861Y18777625D01*
X56420498Y18856291D01*
X56392621Y18892622D01*
X56327552Y18942550D01*
X56277625Y18980861D01*
X56225958Y19002262D01*
X56143709Y19036331D01*
X56000000Y19055250D01*
X55856290Y19036331D01*
X55722375Y18980861D01*
X55607378Y18892622D01*
X55519139Y18777625D01*
X55463669Y18643710D01*
X55444750Y18500001D01*
X54555250Y18500001D01*
X54536330Y18643709D01*
X54533526Y18650478D01*
X54503746Y18722375D01*
X54480861Y18777625D01*
X54420498Y18856291D01*
X54392621Y18892622D01*
X54327552Y18942550D01*
X54277625Y18980861D01*
X54225958Y19002262D01*
X54143709Y19036331D01*
X54000000Y19055250D01*
X53856290Y19036331D01*
X53722375Y18980861D01*
X53607378Y18892622D01*
X53519139Y18777625D01*
X53463669Y18643710D01*
X53444750Y18500001D01*
X38231421Y18500001D01*
X38277625Y18519139D01*
X38392621Y18607379D01*
X38480861Y18722375D01*
X38536330Y18856291D01*
X38555250Y19000000D01*
X38536330Y19143709D01*
X38480861Y19277625D01*
X38409838Y19370184D01*
X38392621Y19392622D01*
X38327552Y19442550D01*
X38277625Y19480861D01*
X38225958Y19502262D01*
X38143709Y19536331D01*
X38000000Y19555250D01*
X37856290Y19536331D01*
X37722375Y19480861D01*
X37607378Y19392622D01*
X37519139Y19277625D01*
X37463669Y19143710D01*
X37444750Y19000001D01*
X33731421Y19000001D01*
X33777625Y19019139D01*
X33892621Y19107379D01*
X33980861Y19222375D01*
X34036330Y19356291D01*
X34055250Y19500000D01*
X34036330Y19643709D01*
X34033526Y19650478D01*
X34003746Y19722375D01*
X33980861Y19777625D01*
X33920498Y19856291D01*
X33892621Y19892622D01*
X33804811Y19960000D01*
X33777625Y19980861D01*
X33729205Y20000917D01*
X33643709Y20036331D01*
X33516717Y20053049D01*
X33500000Y20055250D01*
X33499999Y20055250D01*
X33356290Y20036331D01*
X33222375Y19980861D01*
X33107378Y19892622D01*
X33019139Y19777625D01*
X32963669Y19643710D01*
X32944750Y19500000D01*
X28231419Y19500000D01*
X28277625Y19519139D01*
X28392621Y19607379D01*
X28480861Y19722375D01*
X28536330Y19856291D01*
X28555250Y20000000D01*
X28536330Y20143709D01*
X28480861Y20277625D01*
X28409838Y20370184D01*
X28392621Y20392622D01*
X28327552Y20442550D01*
X28277625Y20480861D01*
X28225958Y20502262D01*
X28143709Y20536331D01*
X28000000Y20555250D01*
X27856290Y20536331D01*
X27722375Y20480861D01*
X27607378Y20392622D01*
X27519139Y20277625D01*
X27463669Y20143710D01*
X27444750Y20000000D01*
X26555250Y20000000D01*
X26536330Y20143709D01*
X26480861Y20277625D01*
X26409838Y20370184D01*
X26392621Y20392622D01*
X26327552Y20442550D01*
X26277625Y20480861D01*
X26225958Y20502262D01*
X26143709Y20536331D01*
X26000000Y20555250D01*
X25856290Y20536331D01*
X25722375Y20480861D01*
X25607378Y20392622D01*
X25519139Y20277625D01*
X25463669Y20143710D01*
X25444750Y20000000D01*
X-16694435Y20000000D01*
X-16714632Y20179255D01*
X-16719944Y20194435D01*
X-16767113Y20329236D01*
X-16774211Y20349522D01*
X-16870184Y20502262D01*
X-16997738Y20629816D01*
X-17150478Y20725789D01*
X-17175841Y20734664D01*
X-17320742Y20785368D01*
X-17455187Y20800516D01*
X-17500000Y20805565D01*
X-17500001Y20805565D01*
X-17679259Y20785368D01*
X-17849520Y20725790D01*
X-17849522Y20725790D01*
X-17849522Y20725789D01*
X-17854955Y20722375D01*
X-18002261Y20629817D01*
X-18129817Y20502261D01*
X-18225790Y20349520D01*
X-18285368Y20179259D01*
X-18305565Y20000000D01*
X-18285368Y19820742D01*
X-18250947Y19722375D01*
X-18225789Y19650478D01*
X-18129816Y19497738D01*
X-18002262Y19370184D01*
X-17944398Y19333826D01*
X-17905186Y19286857D01*
X-17901070Y19225810D01*
X-17933622Y19174003D01*
X-17944394Y19166177D01*
X-17974311Y19147380D01*
X-18002261Y19129817D01*
X-18129817Y19002261D01*
X-18225790Y18849520D01*
X-18285368Y18679259D01*
X-18305565Y18500000D01*
X-42768581Y18500000D01*
X-42722375Y18519139D01*
X-42607379Y18607379D01*
X-42519139Y18722375D01*
X-42463670Y18856291D01*
X-42444750Y19000000D01*
X-42463670Y19143709D01*
X-42519139Y19277625D01*
X-42590162Y19370184D01*
X-42607379Y19392622D01*
X-42672448Y19442550D01*
X-42722375Y19480861D01*
X-42774042Y19502262D01*
X-42856291Y19536331D01*
X-43000000Y19555250D01*
X-43143710Y19536331D01*
X-43277625Y19480861D01*
X-43392622Y19392622D01*
X-43480861Y19277625D01*
X-43536331Y19143710D01*
X-43555250Y19000001D01*
X-64974500Y19000001D01*
X-64974500Y20000000D01*
X-60555250Y20000000D01*
X-60536331Y19856291D01*
X-60515319Y19805565D01*
X-60480861Y19722375D01*
X-60442550Y19672448D01*
X-60392622Y19607379D01*
X-60342694Y19569068D01*
X-60277625Y19519139D01*
X-60185212Y19480861D01*
X-60143710Y19463670D01*
X-60126992Y19461469D01*
X-60000000Y19444750D01*
X-59856291Y19463670D01*
X-59722375Y19519139D01*
X-59607379Y19607379D01*
X-59519139Y19722375D01*
X-59463670Y19856291D01*
X-59444750Y20000000D01*
X-59463670Y20143709D01*
X-59519139Y20277625D01*
X-59590162Y20370184D01*
X-59607379Y20392622D01*
X-59672448Y20442550D01*
X-59722375Y20480861D01*
X-59774042Y20502262D01*
X-59856291Y20536331D01*
X-60000000Y20555250D01*
X-60143710Y20536331D01*
X-60277625Y20480861D01*
X-60392622Y20392622D01*
X-60480861Y20277625D01*
X-60536331Y20143710D01*
X-60555250Y20000000D01*
X-64974500Y20000000D01*
X-64974500Y21000000D01*
X-35305565Y21000000D01*
X-35300839Y20958052D01*
X-35285368Y20820742D01*
X-35250947Y20722375D01*
X-35225789Y20650478D01*
X-35129816Y20497738D01*
X-35002262Y20370184D01*
X-34849522Y20274211D01*
X-34741149Y20236290D01*
X-34679259Y20214633D01*
X-34679258Y20214633D01*
X-34679255Y20214632D01*
X-34500000Y20194435D01*
X-34320745Y20214632D01*
X-34150478Y20274211D01*
X-33997738Y20370184D01*
X-33870184Y20497738D01*
X-33774211Y20650478D01*
X-33714632Y20820745D01*
X-33694435Y21000000D01*
X-28555250Y21000000D01*
X-28536331Y20856291D01*
X-28515319Y20805565D01*
X-28480861Y20722375D01*
X-28444603Y20675123D01*
X-28392622Y20607379D01*
X-28342694Y20569068D01*
X-28277625Y20519139D01*
X-28185212Y20480861D01*
X-28143710Y20463670D01*
X-28126992Y20461469D01*
X-28000000Y20444750D01*
X-27856291Y20463670D01*
X-27722375Y20519139D01*
X-27607379Y20607379D01*
X-27519139Y20722375D01*
X-27463670Y20856291D01*
X-27444750Y21000000D01*
X-27444750Y21000001D01*
X-24555250Y21000001D01*
X-24536331Y20856291D01*
X-24515319Y20805565D01*
X-24480861Y20722375D01*
X-24444603Y20675123D01*
X-24392622Y20607379D01*
X-24342694Y20569068D01*
X-24277625Y20519139D01*
X-24185212Y20480861D01*
X-24143710Y20463670D01*
X-24126992Y20461469D01*
X-24000000Y20444750D01*
X-23856291Y20463670D01*
X-23722375Y20519139D01*
X-23607379Y20607379D01*
X-23519139Y20722375D01*
X-23463670Y20856291D01*
X-23444750Y21000000D01*
X-10555250Y21000000D01*
X-10536331Y20856291D01*
X-10515319Y20805565D01*
X-10480861Y20722375D01*
X-10444603Y20675123D01*
X-10392622Y20607379D01*
X-10342694Y20569068D01*
X-10277625Y20519139D01*
X-10185212Y20480861D01*
X-10143710Y20463670D01*
X-10126992Y20461469D01*
X-10000000Y20444750D01*
X-9856291Y20463670D01*
X-9722375Y20519139D01*
X-9607379Y20607379D01*
X-9519139Y20722375D01*
X-9463670Y20856291D01*
X-9444750Y21000000D01*
X5444750Y21000000D01*
X5463669Y20856291D01*
X5484681Y20805565D01*
X5519139Y20722375D01*
X5555397Y20675123D01*
X5607378Y20607379D01*
X5657306Y20569068D01*
X5722375Y20519139D01*
X5814788Y20480861D01*
X5856290Y20463670D01*
X5873008Y20461469D01*
X6000000Y20444750D01*
X6143709Y20463670D01*
X6277625Y20519139D01*
X6392621Y20607379D01*
X6480861Y20722375D01*
X6536330Y20856291D01*
X6555250Y21000000D01*
X12444750Y21000000D01*
X12463669Y20856291D01*
X12484681Y20805565D01*
X12519139Y20722375D01*
X12555397Y20675123D01*
X12607378Y20607379D01*
X12657306Y20569068D01*
X12722375Y20519139D01*
X12814788Y20480861D01*
X12856290Y20463670D01*
X12873008Y20461469D01*
X13000000Y20444750D01*
X13143709Y20463670D01*
X13277625Y20519139D01*
X13392621Y20607379D01*
X13480861Y20722375D01*
X13536330Y20856291D01*
X13555250Y21000000D01*
X13536330Y21143709D01*
X13480861Y21277625D01*
X13425692Y21349522D01*
X13392621Y21392622D01*
X13327552Y21442550D01*
X13304810Y21460001D01*
X58494859Y21460001D01*
X58515387Y21212264D01*
X58576411Y20971284D01*
X58676268Y20743633D01*
X58812232Y20535523D01*
X58870645Y20472070D01*
X59365194Y20966619D01*
X59370577Y20958052D01*
X59498052Y20830577D01*
X59506615Y20825196D01*
X59010657Y20329237D01*
X59176768Y20199946D01*
X59395393Y20081632D01*
X59630508Y20000917D01*
X59875708Y19960000D01*
X60124292Y19960000D01*
X60369491Y20000917D01*
X60604606Y20081632D01*
X60823235Y20199948D01*
X60989342Y20329236D01*
X60493382Y20825196D01*
X60501948Y20830577D01*
X60629423Y20958052D01*
X60634804Y20966618D01*
X61129354Y20472068D01*
X61129354Y20472069D01*
X61187767Y20535521D01*
X61323729Y20743630D01*
X61423588Y20971284D01*
X61484612Y21212264D01*
X61505140Y21460001D01*
X63574859Y21460001D01*
X63595387Y21212264D01*
X63656411Y20971284D01*
X63756268Y20743633D01*
X63892232Y20535523D01*
X63950645Y20472070D01*
X64445194Y20966619D01*
X64450577Y20958052D01*
X64578052Y20830577D01*
X64586615Y20825196D01*
X64090657Y20329237D01*
X64256768Y20199946D01*
X64475393Y20081632D01*
X64710508Y20000917D01*
X64955708Y19960000D01*
X65204292Y19960000D01*
X65449491Y20000917D01*
X65684606Y20081632D01*
X65903235Y20199948D01*
X66069342Y20329236D01*
X65573382Y20825196D01*
X65581948Y20830577D01*
X65709423Y20958052D01*
X65714805Y20966618D01*
X66209354Y20472069D01*
X66267767Y20535521D01*
X66403729Y20743630D01*
X66503588Y20971284D01*
X66564612Y21212264D01*
X66585140Y21460001D01*
X66564612Y21707737D01*
X66503588Y21948717D01*
X66403731Y22176368D01*
X66267767Y22384478D01*
X66209352Y22447933D01*
X65714803Y21953385D01*
X65709423Y21961948D01*
X65581948Y22089423D01*
X65573381Y22094806D01*
X66069342Y22590766D01*
X65903235Y22720053D01*
X65684606Y22838369D01*
X65449491Y22919084D01*
X65204292Y22960000D01*
X64955708Y22960000D01*
X64710508Y22919084D01*
X64475390Y22838368D01*
X64256767Y22720056D01*
X64090656Y22590766D01*
X64090656Y22590765D01*
X64586616Y22094805D01*
X64578052Y22089423D01*
X64450577Y21961948D01*
X64445195Y21953383D01*
X63950645Y22447933D01*
X63892235Y22384482D01*
X63756268Y22176368D01*
X63656411Y21948717D01*
X63595387Y21707737D01*
X63574859Y21460001D01*
X61505140Y21460001D01*
X61484612Y21707737D01*
X61423588Y21948717D01*
X61323731Y22176368D01*
X61187767Y22384478D01*
X61129352Y22447933D01*
X60634803Y21953385D01*
X60629423Y21961948D01*
X60501948Y22089423D01*
X60493381Y22094806D01*
X60989342Y22590766D01*
X60823235Y22720053D01*
X60604606Y22838369D01*
X60369491Y22919084D01*
X60124292Y22960000D01*
X59875708Y22960000D01*
X59630508Y22919084D01*
X59395390Y22838368D01*
X59176767Y22720056D01*
X59010656Y22590766D01*
X59010656Y22590765D01*
X59506616Y22094805D01*
X59498052Y22089423D01*
X59370577Y21961948D01*
X59365195Y21953383D01*
X58870645Y22447933D01*
X58812235Y22384482D01*
X58676268Y22176368D01*
X58576411Y21948717D01*
X58515387Y21707737D01*
X58494859Y21460001D01*
X13304810Y21460001D01*
X13277625Y21480861D01*
X13225958Y21502262D01*
X13143709Y21536331D01*
X13000000Y21555250D01*
X12856290Y21536331D01*
X12722375Y21480861D01*
X12607378Y21392622D01*
X12519139Y21277625D01*
X12463669Y21143710D01*
X12444750Y21000000D01*
X6555250Y21000000D01*
X6536330Y21143709D01*
X6480861Y21277625D01*
X6425692Y21349522D01*
X6392621Y21392622D01*
X6327552Y21442550D01*
X6277625Y21480861D01*
X6225958Y21502262D01*
X6143709Y21536331D01*
X6000000Y21555250D01*
X5856290Y21536331D01*
X5722375Y21480861D01*
X5607378Y21392622D01*
X5519139Y21277625D01*
X5463669Y21143710D01*
X5444750Y21000000D01*
X-9444750Y21000000D01*
X-9463670Y21143709D01*
X-9519139Y21277625D01*
X-9574308Y21349522D01*
X-9607379Y21392622D01*
X-9672448Y21442550D01*
X-9722375Y21480861D01*
X-9774042Y21502262D01*
X-9856291Y21536331D01*
X-10000000Y21555250D01*
X-10143710Y21536331D01*
X-10277625Y21480861D01*
X-10392622Y21392622D01*
X-10480861Y21277625D01*
X-10536331Y21143710D01*
X-10555250Y21000000D01*
X-23444750Y21000000D01*
X-23463670Y21143709D01*
X-23519139Y21277625D01*
X-23574308Y21349522D01*
X-23607379Y21392622D01*
X-23672448Y21442550D01*
X-23722375Y21480861D01*
X-23774042Y21502262D01*
X-23856291Y21536331D01*
X-24000000Y21555250D01*
X-24143710Y21536331D01*
X-24277625Y21480861D01*
X-24392622Y21392622D01*
X-24480861Y21277625D01*
X-24536331Y21143710D01*
X-24555250Y21000001D01*
X-27444750Y21000001D01*
X-27463670Y21143709D01*
X-27519139Y21277625D01*
X-27574308Y21349522D01*
X-27607379Y21392622D01*
X-27672448Y21442550D01*
X-27722375Y21480861D01*
X-27774042Y21502262D01*
X-27856291Y21536331D01*
X-28000000Y21555250D01*
X-28143710Y21536331D01*
X-28277625Y21480861D01*
X-28392622Y21392622D01*
X-28480861Y21277625D01*
X-28536331Y21143710D01*
X-28555250Y21000000D01*
X-33694435Y21000000D01*
X-33714632Y21179255D01*
X-33774211Y21349522D01*
X-33870184Y21502262D01*
X-33997738Y21629816D01*
X-34055605Y21666177D01*
X-34094815Y21713142D01*
X-34098931Y21774189D01*
X-34066379Y21825996D01*
X-34055614Y21833819D01*
X-33997738Y21870184D01*
X-33870184Y21997738D01*
X-33868763Y22000000D01*
X7444750Y22000000D01*
X7463669Y21856291D01*
X7492430Y21786857D01*
X7519139Y21722375D01*
X7556256Y21674003D01*
X7607378Y21607379D01*
X7657306Y21569068D01*
X7722375Y21519139D01*
X7814788Y21480861D01*
X7856290Y21463670D01*
X7873008Y21461469D01*
X8000000Y21444750D01*
X8143709Y21463670D01*
X8277625Y21519139D01*
X8392621Y21607379D01*
X8480861Y21722375D01*
X8536330Y21856291D01*
X8555250Y22000000D01*
X8536330Y22143709D01*
X8533526Y22150478D01*
X8515319Y22194435D01*
X8480861Y22277625D01*
X8409838Y22370184D01*
X8392621Y22392622D01*
X8327552Y22442550D01*
X8277625Y22480861D01*
X8231416Y22500001D01*
X8143709Y22536331D01*
X8016717Y22553049D01*
X8000000Y22555250D01*
X7999999Y22555250D01*
X7856290Y22536331D01*
X7722375Y22480861D01*
X7607378Y22392622D01*
X7519139Y22277625D01*
X7463669Y22143710D01*
X7444750Y22000000D01*
X-33868763Y22000000D01*
X-33774211Y22150478D01*
X-33714632Y22320745D01*
X-33694435Y22500000D01*
X-33714632Y22679255D01*
X-33774211Y22849522D01*
X-33868763Y23000001D01*
X-11555250Y23000001D01*
X-11536331Y22856291D01*
X-11497108Y22761599D01*
X-11480861Y22722375D01*
X-11479079Y22720053D01*
X-11392622Y22607379D01*
X-11342694Y22569068D01*
X-11277625Y22519139D01*
X-11185212Y22480861D01*
X-11143710Y22463670D01*
X-11124790Y22461180D01*
X-11000000Y22444750D01*
X-10856291Y22463670D01*
X-10722375Y22519139D01*
X-10607379Y22607379D01*
X-10519139Y22722375D01*
X-10463670Y22856291D01*
X-10444750Y23000000D01*
X-10463670Y23143709D01*
X-10519139Y23277625D01*
X-10579502Y23356291D01*
X-10607379Y23392622D01*
X-10672448Y23442550D01*
X-10722375Y23480861D01*
X-10774042Y23502262D01*
X-10856291Y23536331D01*
X-10983283Y23553049D01*
X-11000000Y23555250D01*
X-11000001Y23555250D01*
X-11143710Y23536331D01*
X-11277625Y23480861D01*
X-11392622Y23392622D01*
X-11480861Y23277625D01*
X-11536331Y23143710D01*
X-11555250Y23000001D01*
X-33868763Y23000001D01*
X-33870184Y23002262D01*
X-33997738Y23129816D01*
X-34150478Y23225789D01*
X-34158185Y23228486D01*
X-34320742Y23285368D01*
X-34500000Y23305565D01*
X-34679259Y23285368D01*
X-34849520Y23225790D01*
X-34849522Y23225790D01*
X-34849522Y23225789D01*
X-34854955Y23222375D01*
X-35002261Y23129817D01*
X-35129817Y23002261D01*
X-35225790Y22849520D01*
X-35285368Y22679259D01*
X-35305565Y22500001D01*
X-35285368Y22320742D01*
X-35234848Y22176368D01*
X-35225789Y22150478D01*
X-35129816Y21997738D01*
X-35002262Y21870184D01*
X-34944398Y21833826D01*
X-34905186Y21786857D01*
X-34901070Y21725810D01*
X-34933622Y21674003D01*
X-34944394Y21666177D01*
X-34974311Y21647380D01*
X-35002261Y21629817D01*
X-35129817Y21502261D01*
X-35225790Y21349520D01*
X-35285368Y21179259D01*
X-35285368Y21179255D01*
X-35305565Y21000000D01*
X-64974500Y21000000D01*
X-64974500Y23000000D01*
X-60805565Y23000000D01*
X-60785368Y22820742D01*
X-60735860Y22679259D01*
X-60725789Y22650478D01*
X-60629816Y22497738D01*
X-60502262Y22370184D01*
X-60349522Y22274211D01*
X-60265690Y22244877D01*
X-60179259Y22214633D01*
X-60179258Y22214633D01*
X-60179255Y22214632D01*
X-60000000Y22194435D01*
X-59820745Y22214632D01*
X-59650478Y22274211D01*
X-59497738Y22370184D01*
X-59370184Y22497738D01*
X-59274211Y22650478D01*
X-59214632Y22820745D01*
X-59194435Y23000000D01*
X-59194435Y23000001D01*
X-44555250Y23000001D01*
X-44536331Y22856291D01*
X-44497108Y22761599D01*
X-44480861Y22722375D01*
X-44479079Y22720053D01*
X-44392622Y22607379D01*
X-44342694Y22569068D01*
X-44277625Y22519139D01*
X-44185212Y22480861D01*
X-44143710Y22463670D01*
X-44126992Y22461469D01*
X-44000000Y22444750D01*
X-43856291Y22463670D01*
X-43722375Y22519139D01*
X-43607379Y22607379D01*
X-43519139Y22722375D01*
X-43463670Y22856291D01*
X-43444750Y23000000D01*
X-43463670Y23143709D01*
X-43519139Y23277625D01*
X-43579502Y23356291D01*
X-43607379Y23392622D01*
X-43672448Y23442550D01*
X-43722375Y23480861D01*
X-43774042Y23502262D01*
X-43856291Y23536331D01*
X-44000000Y23555250D01*
X-44143710Y23536331D01*
X-44277625Y23480861D01*
X-44392622Y23392622D01*
X-44480861Y23277625D01*
X-44536331Y23143710D01*
X-44555250Y23000001D01*
X-59194435Y23000001D01*
X-59214632Y23179255D01*
X-59274211Y23349522D01*
X-59370184Y23502262D01*
X-59497738Y23629816D01*
X-59650478Y23725789D01*
X-59658185Y23728486D01*
X-59820742Y23785368D01*
X-60000000Y23805565D01*
X-60179259Y23785368D01*
X-60349520Y23725790D01*
X-60349522Y23725790D01*
X-60349522Y23725789D01*
X-60354955Y23722375D01*
X-60502261Y23629817D01*
X-60629817Y23502261D01*
X-60725790Y23349520D01*
X-60785368Y23179259D01*
X-60805565Y23000000D01*
X-64974500Y23000000D01*
X-64974500Y24000000D01*
X-55055250Y24000000D01*
X-55036331Y23856291D01*
X-55015319Y23805565D01*
X-54980861Y23722375D01*
X-54942550Y23672448D01*
X-54892622Y23607379D01*
X-54842694Y23569068D01*
X-54777625Y23519139D01*
X-54685212Y23480861D01*
X-54643710Y23463670D01*
X-54624790Y23461180D01*
X-54500000Y23444750D01*
X-54356291Y23463670D01*
X-54222375Y23519139D01*
X-54107379Y23607379D01*
X-54019139Y23722375D01*
X-53963670Y23856291D01*
X-53944750Y24000000D01*
X-2555250Y24000000D01*
X-2536331Y23856291D01*
X-2515319Y23805565D01*
X-2480861Y23722375D01*
X-2442550Y23672448D01*
X-2392622Y23607379D01*
X-2342694Y23569068D01*
X-2277625Y23519139D01*
X-2185212Y23480861D01*
X-2143710Y23463670D01*
X-2124791Y23461180D01*
X-2000000Y23444750D01*
X-1856291Y23463670D01*
X-1768581Y23500000D01*
X5944750Y23500000D01*
X5963669Y23356291D01*
X5984681Y23305565D01*
X6019139Y23222375D01*
X6052223Y23179259D01*
X6107378Y23107379D01*
X6157306Y23069068D01*
X6222375Y23019139D01*
X6317067Y22979917D01*
X6356290Y22963670D01*
X6375210Y22961180D01*
X6500000Y22944750D01*
X6643709Y22963670D01*
X6731419Y23000000D01*
X12444750Y23000000D01*
X12463669Y22856291D01*
X12502892Y22761599D01*
X12519139Y22722375D01*
X12520921Y22720053D01*
X12607378Y22607379D01*
X12657306Y22569068D01*
X12722375Y22519139D01*
X12814788Y22480861D01*
X12856290Y22463670D01*
X12875210Y22461180D01*
X13000000Y22444750D01*
X13143709Y22463670D01*
X13277625Y22519139D01*
X13392621Y22607379D01*
X13480861Y22722375D01*
X13536330Y22856291D01*
X13555250Y23000000D01*
X19444750Y23000000D01*
X19463669Y22856291D01*
X19502892Y22761599D01*
X19519139Y22722375D01*
X19520921Y22720053D01*
X19607378Y22607379D01*
X19657306Y22569068D01*
X19722375Y22519139D01*
X19814788Y22480861D01*
X19856290Y22463670D01*
X19873008Y22461469D01*
X20000000Y22444750D01*
X20143709Y22463670D01*
X20277625Y22519139D01*
X20392621Y22607379D01*
X20480861Y22722375D01*
X20536330Y22856291D01*
X20555250Y23000000D01*
X37444750Y23000000D01*
X37463669Y22856291D01*
X37502892Y22761599D01*
X37519139Y22722375D01*
X37520921Y22720053D01*
X37607378Y22607379D01*
X37657306Y22569068D01*
X37722375Y22519139D01*
X37814788Y22480861D01*
X37856290Y22463670D01*
X37873008Y22461469D01*
X38000000Y22444750D01*
X38143709Y22463670D01*
X38277625Y22519139D01*
X38392621Y22607379D01*
X38480861Y22722375D01*
X38536330Y22856291D01*
X38555250Y23000000D01*
X39194435Y23000000D01*
X39214632Y22820742D01*
X39264140Y22679259D01*
X39274211Y22650478D01*
X39370184Y22497738D01*
X39497738Y22370184D01*
X39650478Y22274211D01*
X39734310Y22244877D01*
X39820741Y22214633D01*
X39820742Y22214633D01*
X39820745Y22214632D01*
X40000000Y22194435D01*
X40179255Y22214632D01*
X40349522Y22274211D01*
X40502262Y22370184D01*
X40629816Y22497738D01*
X40725789Y22650478D01*
X40785368Y22820745D01*
X40805565Y23000000D01*
X40785368Y23179255D01*
X40725789Y23349522D01*
X40629816Y23502262D01*
X40502262Y23629816D01*
X40349522Y23725789D01*
X40341815Y23728486D01*
X40179258Y23785368D01*
X40044813Y23800516D01*
X40000000Y23805565D01*
X39999999Y23805565D01*
X39820741Y23785368D01*
X39650480Y23725790D01*
X39650478Y23725790D01*
X39650478Y23725789D01*
X39645045Y23722375D01*
X39497739Y23629817D01*
X39370183Y23502261D01*
X39274210Y23349520D01*
X39214632Y23179259D01*
X39194435Y23000000D01*
X38555250Y23000000D01*
X38536330Y23143709D01*
X38480861Y23277625D01*
X38420498Y23356291D01*
X38392621Y23392622D01*
X38327552Y23442550D01*
X38277625Y23480861D01*
X38225958Y23502262D01*
X38143709Y23536331D01*
X38000000Y23555250D01*
X37856290Y23536331D01*
X37722375Y23480861D01*
X37607378Y23392622D01*
X37519139Y23277625D01*
X37463669Y23143710D01*
X37444750Y23000000D01*
X20555250Y23000000D01*
X20536330Y23143709D01*
X20480861Y23277625D01*
X20420498Y23356291D01*
X20392621Y23392622D01*
X20327552Y23442550D01*
X20277625Y23480861D01*
X20225958Y23502262D01*
X20143709Y23536331D01*
X20000000Y23555250D01*
X19856290Y23536331D01*
X19722375Y23480861D01*
X19607378Y23392622D01*
X19519139Y23277625D01*
X19463669Y23143710D01*
X19444750Y23000000D01*
X13555250Y23000000D01*
X13536330Y23143709D01*
X13480861Y23277625D01*
X13420498Y23356291D01*
X13392621Y23392622D01*
X13327552Y23442550D01*
X13277625Y23480861D01*
X13225958Y23502262D01*
X13143709Y23536331D01*
X13016717Y23553049D01*
X13000000Y23555250D01*
X12999999Y23555250D01*
X12856290Y23536331D01*
X12722375Y23480861D01*
X12607378Y23392622D01*
X12519139Y23277625D01*
X12463669Y23143710D01*
X12444750Y23000000D01*
X6731419Y23000000D01*
X6777625Y23019139D01*
X6892621Y23107379D01*
X6980861Y23222375D01*
X7036330Y23356291D01*
X7055250Y23500000D01*
X7036330Y23643709D01*
X6980861Y23777625D01*
X6920498Y23856291D01*
X6892621Y23892622D01*
X6827552Y23942550D01*
X6777625Y23980861D01*
X6731418Y24000000D01*
X7444750Y24000000D01*
X7463669Y23856291D01*
X7484681Y23805565D01*
X7519139Y23722375D01*
X7557450Y23672448D01*
X7607378Y23607379D01*
X7657306Y23569068D01*
X7722375Y23519139D01*
X7814788Y23480861D01*
X7856290Y23463670D01*
X7873008Y23461469D01*
X8000000Y23444750D01*
X8143709Y23463670D01*
X8277625Y23519139D01*
X8392621Y23607379D01*
X8480861Y23722375D01*
X8536330Y23856291D01*
X8555250Y24000000D01*
X11444750Y24000000D01*
X11463669Y23856291D01*
X11484681Y23805565D01*
X11519139Y23722375D01*
X11557450Y23672448D01*
X11607378Y23607379D01*
X11657306Y23569068D01*
X11722375Y23519139D01*
X11814788Y23480861D01*
X11856290Y23463670D01*
X11873008Y23461469D01*
X12000000Y23444750D01*
X12143709Y23463670D01*
X12277625Y23519139D01*
X12392621Y23607379D01*
X12480861Y23722375D01*
X12536330Y23856291D01*
X12555250Y24000000D01*
X16444750Y24000000D01*
X16463669Y23856291D01*
X16484681Y23805565D01*
X16519139Y23722375D01*
X16557450Y23672448D01*
X16607378Y23607379D01*
X16657306Y23569068D01*
X16722375Y23519139D01*
X16814788Y23480861D01*
X16856290Y23463670D01*
X16873008Y23461469D01*
X17000000Y23444750D01*
X17143709Y23463670D01*
X17277625Y23519139D01*
X17392621Y23607379D01*
X17480861Y23722375D01*
X17536330Y23856291D01*
X17555250Y24000000D01*
X17536330Y24143709D01*
X17480861Y24277625D01*
X17409838Y24370184D01*
X17392621Y24392622D01*
X17327552Y24442550D01*
X17277625Y24480861D01*
X17236875Y24497740D01*
X17143709Y24536331D01*
X17016717Y24553049D01*
X17000000Y24555250D01*
X16999999Y24555250D01*
X16856290Y24536331D01*
X16722375Y24480861D01*
X16607378Y24392622D01*
X16519139Y24277625D01*
X16463669Y24143710D01*
X16444750Y24000000D01*
X12555250Y24000000D01*
X12536330Y24143709D01*
X12480861Y24277625D01*
X12409838Y24370184D01*
X12392621Y24392622D01*
X12327552Y24442550D01*
X12277625Y24480861D01*
X12236875Y24497740D01*
X12143709Y24536331D01*
X12000000Y24555250D01*
X11856290Y24536331D01*
X11722375Y24480861D01*
X11607378Y24392622D01*
X11519139Y24277625D01*
X11463669Y24143710D01*
X11444750Y24000000D01*
X8555250Y24000000D01*
X8536330Y24143709D01*
X8480861Y24277625D01*
X8409838Y24370184D01*
X8392621Y24392622D01*
X8327552Y24442550D01*
X8277625Y24480861D01*
X8236875Y24497740D01*
X8143709Y24536331D01*
X8000000Y24555250D01*
X7856290Y24536331D01*
X7722375Y24480861D01*
X7607378Y24392622D01*
X7519139Y24277625D01*
X7463669Y24143710D01*
X7444750Y24000000D01*
X6731418Y24000000D01*
X6731416Y24000001D01*
X6643709Y24036331D01*
X6516717Y24053049D01*
X6500000Y24055250D01*
X6499999Y24055250D01*
X6356290Y24036331D01*
X6222375Y23980861D01*
X6107378Y23892622D01*
X6019139Y23777625D01*
X5963669Y23643710D01*
X5944750Y23500000D01*
X-1768581Y23500000D01*
X-1722375Y23519139D01*
X-1607379Y23607379D01*
X-1519139Y23722375D01*
X-1463670Y23856291D01*
X-1444750Y24000000D01*
X-1463670Y24143709D01*
X-1519139Y24277625D01*
X-1590162Y24370184D01*
X-1607379Y24392622D01*
X-1672448Y24442550D01*
X-1722375Y24480861D01*
X-1763125Y24497740D01*
X-1856291Y24536331D01*
X-2000000Y24555250D01*
X-2143710Y24536331D01*
X-2277625Y24480861D01*
X-2392622Y24392622D01*
X-2480861Y24277625D01*
X-2536331Y24143710D01*
X-2555250Y24000000D01*
X-53944750Y24000000D01*
X-53963670Y24143709D01*
X-54019139Y24277625D01*
X-54090162Y24370184D01*
X-54107379Y24392622D01*
X-54172448Y24442550D01*
X-54222375Y24480861D01*
X-54263125Y24497740D01*
X-54356291Y24536331D01*
X-54483283Y24553049D01*
X-54500000Y24555250D01*
X-54500001Y24555250D01*
X-54643710Y24536331D01*
X-54777625Y24480861D01*
X-54892622Y24392622D01*
X-54980861Y24277625D01*
X-55036331Y24143710D01*
X-55055250Y24000000D01*
X-64974500Y24000000D01*
X-64974500Y25000000D01*
X-42555250Y25000000D01*
X-42536331Y24856291D01*
X-42497108Y24761599D01*
X-42480861Y24722375D01*
X-42442550Y24672448D01*
X-42392622Y24607379D01*
X-42342694Y24569068D01*
X-42277625Y24519139D01*
X-42185212Y24480861D01*
X-42143710Y24463670D01*
X-42126992Y24461469D01*
X-42000000Y24444750D01*
X-41856291Y24463670D01*
X-41722375Y24519139D01*
X-41607379Y24607379D01*
X-41519139Y24722375D01*
X-41463670Y24856291D01*
X-41444750Y25000000D01*
X9444750Y25000000D01*
X9463669Y24856291D01*
X9502892Y24761599D01*
X9519139Y24722375D01*
X9557450Y24672448D01*
X9607378Y24607379D01*
X9657306Y24569068D01*
X9722375Y24519139D01*
X9814788Y24480861D01*
X9856290Y24463670D01*
X9875209Y24461180D01*
X10000000Y24444750D01*
X10143709Y24463670D01*
X10277625Y24519139D01*
X10392621Y24607379D01*
X10480861Y24722375D01*
X10536330Y24856291D01*
X10555250Y25000000D01*
X10555250Y25000001D01*
X19444750Y25000001D01*
X19463669Y24856291D01*
X19502892Y24761599D01*
X19519139Y24722375D01*
X19557450Y24672448D01*
X19607378Y24607379D01*
X19657306Y24569068D01*
X19722375Y24519139D01*
X19814788Y24480861D01*
X19856290Y24463670D01*
X19873008Y24461469D01*
X20000000Y24444750D01*
X20143709Y24463670D01*
X20277625Y24519139D01*
X20392621Y24607379D01*
X20480861Y24722375D01*
X20536330Y24856291D01*
X20555250Y25000000D01*
X20555250Y25000001D01*
X37444750Y25000001D01*
X37463669Y24856291D01*
X37502892Y24761599D01*
X37519139Y24722375D01*
X37557450Y24672448D01*
X37607378Y24607379D01*
X37657306Y24569068D01*
X37722375Y24519139D01*
X37814788Y24480861D01*
X37856290Y24463670D01*
X37875209Y24461180D01*
X38000000Y24444750D01*
X38143709Y24463670D01*
X38277625Y24519139D01*
X38392621Y24607379D01*
X38480861Y24722375D01*
X38536330Y24856291D01*
X38555250Y25000000D01*
X39194435Y25000000D01*
X39214632Y24820742D01*
X39249053Y24722375D01*
X39274211Y24650478D01*
X39370184Y24497738D01*
X39497738Y24370184D01*
X39650478Y24274211D01*
X39758851Y24236290D01*
X39820741Y24214633D01*
X39820742Y24214633D01*
X39820745Y24214632D01*
X40000000Y24194435D01*
X40179255Y24214632D01*
X40349522Y24274211D01*
X40502262Y24370184D01*
X40629816Y24497738D01*
X40725789Y24650478D01*
X40785368Y24820745D01*
X40805565Y25000000D01*
X40785368Y25179255D01*
X40780056Y25194435D01*
X40750947Y25277625D01*
X40725789Y25349522D01*
X40629816Y25502262D01*
X40502262Y25629816D01*
X40349522Y25725789D01*
X40341815Y25728486D01*
X40179258Y25785368D01*
X40044813Y25800516D01*
X40000000Y25805565D01*
X39999999Y25805565D01*
X39820741Y25785368D01*
X39650480Y25725790D01*
X39650478Y25725790D01*
X39650478Y25725789D01*
X39645045Y25722375D01*
X39497739Y25629817D01*
X39370183Y25502261D01*
X39274210Y25349520D01*
X39214632Y25179259D01*
X39194435Y25000000D01*
X38555250Y25000000D01*
X38536330Y25143709D01*
X38480861Y25277625D01*
X38409838Y25370184D01*
X38392621Y25392622D01*
X38327552Y25442550D01*
X38277625Y25480861D01*
X38225958Y25502262D01*
X38143709Y25536331D01*
X38016717Y25553049D01*
X38000000Y25555250D01*
X37999999Y25555250D01*
X37856290Y25536331D01*
X37722375Y25480861D01*
X37607378Y25392622D01*
X37519139Y25277625D01*
X37463669Y25143710D01*
X37444750Y25000001D01*
X20555250Y25000001D01*
X20536330Y25143709D01*
X20480861Y25277625D01*
X20409838Y25370184D01*
X20392621Y25392622D01*
X20327552Y25442550D01*
X20277625Y25480861D01*
X20225958Y25502262D01*
X20143709Y25536331D01*
X20000000Y25555250D01*
X19856290Y25536331D01*
X19722375Y25480861D01*
X19607378Y25392622D01*
X19519139Y25277625D01*
X19463669Y25143710D01*
X19444750Y25000001D01*
X10555250Y25000001D01*
X10536330Y25143709D01*
X10480861Y25277625D01*
X10409838Y25370184D01*
X10392621Y25392622D01*
X10327552Y25442550D01*
X10277625Y25480861D01*
X10225958Y25502262D01*
X10143709Y25536331D01*
X10016717Y25553049D01*
X10000000Y25555250D01*
X9999999Y25555250D01*
X9856290Y25536331D01*
X9722375Y25480861D01*
X9607378Y25392622D01*
X9519139Y25277625D01*
X9463669Y25143710D01*
X9444750Y25000000D01*
X-41444750Y25000000D01*
X-41463670Y25143709D01*
X-41519139Y25277625D01*
X-41590162Y25370184D01*
X-41607380Y25392623D01*
X-41644960Y25421460D01*
X-41679615Y25471885D01*
X-41678013Y25533049D01*
X-41644959Y25578543D01*
X-41607379Y25607379D01*
X-41519139Y25722375D01*
X-41463670Y25856291D01*
X-41444750Y26000000D01*
X-41444750Y26000001D01*
X-35305565Y26000001D01*
X-35285368Y25820742D01*
X-35250947Y25722375D01*
X-35225789Y25650478D01*
X-35129816Y25497738D01*
X-35002262Y25370184D01*
X-34849522Y25274211D01*
X-34741149Y25236290D01*
X-34679259Y25214633D01*
X-34679258Y25214633D01*
X-34679255Y25214632D01*
X-34500000Y25194435D01*
X-34320745Y25214632D01*
X-34150478Y25274211D01*
X-33997738Y25370184D01*
X-33870184Y25497738D01*
X-33774211Y25650478D01*
X-33714632Y25820745D01*
X-33694435Y26000000D01*
X4444750Y26000000D01*
X4463669Y25856291D01*
X4480912Y25814664D01*
X4519139Y25722375D01*
X4557450Y25672448D01*
X4607378Y25607379D01*
X4644957Y25578544D01*
X4722375Y25519139D01*
X4814788Y25480861D01*
X4856290Y25463670D01*
X4873008Y25461469D01*
X5000000Y25444750D01*
X5143709Y25463670D01*
X5277625Y25519139D01*
X5392621Y25607379D01*
X5480861Y25722375D01*
X5536330Y25856291D01*
X5555250Y26000000D01*
X5536330Y26143709D01*
X5480861Y26277625D01*
X5409838Y26370184D01*
X5392621Y26392622D01*
X5327552Y26442550D01*
X5277625Y26480861D01*
X5225958Y26502262D01*
X5143709Y26536331D01*
X5000000Y26555250D01*
X4856290Y26536331D01*
X4722375Y26480861D01*
X4607378Y26392622D01*
X4519139Y26277625D01*
X4463669Y26143710D01*
X4444750Y26000000D01*
X-33694435Y26000000D01*
X-33714632Y26179255D01*
X-33718636Y26190697D01*
X-33754176Y26292264D01*
X-33774211Y26349522D01*
X-33870184Y26502262D01*
X-33997738Y26629816D01*
X-34150478Y26725789D01*
X-34158185Y26728486D01*
X-34320742Y26785368D01*
X-34500000Y26805565D01*
X-34679259Y26785368D01*
X-34849520Y26725790D01*
X-34849522Y26725790D01*
X-34849522Y26725789D01*
X-34854955Y26722375D01*
X-35002261Y26629817D01*
X-35129817Y26502261D01*
X-35225790Y26349520D01*
X-35285368Y26179259D01*
X-35305565Y26000001D01*
X-41444750Y26000001D01*
X-41463670Y26143709D01*
X-41519139Y26277625D01*
X-41590162Y26370184D01*
X-41607379Y26392622D01*
X-41672448Y26442550D01*
X-41722375Y26480861D01*
X-41774042Y26502262D01*
X-41856291Y26536331D01*
X-41983283Y26553049D01*
X-42000000Y26555250D01*
X-42000001Y26555250D01*
X-42143710Y26536331D01*
X-42277625Y26480861D01*
X-42392622Y26392622D01*
X-42480861Y26277625D01*
X-42536331Y26143710D01*
X-42555250Y26000000D01*
X-42536331Y25856291D01*
X-42519088Y25814664D01*
X-42480861Y25722375D01*
X-42442550Y25672448D01*
X-42392622Y25607379D01*
X-42355041Y25578542D01*
X-42320385Y25528118D01*
X-42321986Y25466953D01*
X-42355041Y25421458D01*
X-42392622Y25392622D01*
X-42480861Y25277625D01*
X-42536331Y25143710D01*
X-42555250Y25000000D01*
X-64974500Y25000000D01*
X-64974500Y27000001D01*
X-61055250Y27000001D01*
X-61036331Y26856291D01*
X-61006953Y26785368D01*
X-60980861Y26722375D01*
X-60949437Y26681423D01*
X-60892622Y26607379D01*
X-60842694Y26569068D01*
X-60777625Y26519139D01*
X-60685212Y26480861D01*
X-60643710Y26463670D01*
X-60624791Y26461180D01*
X-60500000Y26444750D01*
X-60356291Y26463670D01*
X-60222375Y26519139D01*
X-60107379Y26607379D01*
X-60019139Y26722375D01*
X-59963670Y26856291D01*
X-59944750Y27000000D01*
X-30555250Y27000000D01*
X-30536331Y26856291D01*
X-30506953Y26785368D01*
X-30480861Y26722375D01*
X-30449437Y26681423D01*
X-30392622Y26607379D01*
X-30342694Y26569068D01*
X-30277625Y26519139D01*
X-30185212Y26480861D01*
X-30143710Y26463670D01*
X-30126992Y26461469D01*
X-30000000Y26444750D01*
X-29856291Y26463670D01*
X-29722375Y26519139D01*
X-29607379Y26607379D01*
X-29519139Y26722375D01*
X-29463670Y26856291D01*
X-29444750Y27000000D01*
X-22555250Y27000000D01*
X-22536331Y26856291D01*
X-22506953Y26785368D01*
X-22480861Y26722375D01*
X-22449437Y26681423D01*
X-22392622Y26607379D01*
X-22342694Y26569068D01*
X-22277625Y26519139D01*
X-22185212Y26480861D01*
X-22143710Y26463670D01*
X-22126992Y26461469D01*
X-22000000Y26444750D01*
X-21856291Y26463670D01*
X-21722375Y26519139D01*
X-21607379Y26607379D01*
X-21519139Y26722375D01*
X-21463670Y26856291D01*
X-21444750Y27000000D01*
X-21444750Y27000001D01*
X-10555250Y27000001D01*
X-10536331Y26856291D01*
X-10506953Y26785368D01*
X-10480861Y26722375D01*
X-10449437Y26681423D01*
X-10392622Y26607379D01*
X-10342694Y26569068D01*
X-10277625Y26519139D01*
X-10185212Y26480861D01*
X-10143710Y26463670D01*
X-10126992Y26461469D01*
X-10000000Y26444750D01*
X-9856291Y26463670D01*
X-9722375Y26519139D01*
X-9607379Y26607379D01*
X-9519139Y26722375D01*
X-9463670Y26856291D01*
X-9444750Y27000000D01*
X-9444750Y27000001D01*
X37444750Y27000001D01*
X37463669Y26856291D01*
X37493047Y26785368D01*
X37519139Y26722375D01*
X37550563Y26681423D01*
X37607378Y26607379D01*
X37657306Y26569068D01*
X37722375Y26519139D01*
X37814788Y26480861D01*
X37856290Y26463670D01*
X37873008Y26461469D01*
X38000000Y26444750D01*
X38143709Y26463670D01*
X38277625Y26519139D01*
X38392621Y26607379D01*
X38480861Y26722375D01*
X38536330Y26856291D01*
X38555250Y27000000D01*
X39194435Y27000000D01*
X39214632Y26820742D01*
X39249053Y26722375D01*
X39274211Y26650478D01*
X39370184Y26497738D01*
X39497738Y26370184D01*
X39650478Y26274211D01*
X39758851Y26236290D01*
X39820741Y26214633D01*
X39820742Y26214633D01*
X39820745Y26214632D01*
X40000000Y26194435D01*
X40179255Y26214632D01*
X40349522Y26274211D01*
X40502262Y26370184D01*
X40629816Y26497738D01*
X40656371Y26540000D01*
X58494859Y26540000D01*
X58515387Y26292264D01*
X58576411Y26051284D01*
X58676268Y25823633D01*
X58812232Y25615523D01*
X58870645Y25552070D01*
X59365194Y26046619D01*
X59370577Y26038052D01*
X59498052Y25910577D01*
X59506615Y25905196D01*
X59010657Y25409237D01*
X59176768Y25279946D01*
X59395393Y25161632D01*
X59630508Y25080917D01*
X59875708Y25040000D01*
X60124292Y25040000D01*
X60369491Y25080917D01*
X60604606Y25161632D01*
X60823235Y25279948D01*
X60989342Y25409236D01*
X60493382Y25905196D01*
X60501948Y25910577D01*
X60629423Y26038052D01*
X60634804Y26046618D01*
X61129354Y25552068D01*
X61129354Y25552069D01*
X61187767Y25615521D01*
X61323729Y25823630D01*
X61423588Y26051284D01*
X61484612Y26292264D01*
X61505140Y26540000D01*
X63574859Y26540000D01*
X63595387Y26292264D01*
X63656411Y26051284D01*
X63756268Y25823633D01*
X63892232Y25615523D01*
X63950645Y25552070D01*
X64445194Y26046619D01*
X64450577Y26038052D01*
X64578052Y25910577D01*
X64586615Y25905196D01*
X64090657Y25409237D01*
X64256768Y25279946D01*
X64475393Y25161632D01*
X64710508Y25080917D01*
X64955708Y25040000D01*
X65204292Y25040000D01*
X65449491Y25080917D01*
X65684606Y25161632D01*
X65903235Y25279948D01*
X66069342Y25409236D01*
X65573382Y25905196D01*
X65581948Y25910577D01*
X65709423Y26038052D01*
X65714805Y26046618D01*
X66209354Y25552069D01*
X66267767Y25615521D01*
X66403729Y25823630D01*
X66503588Y26051284D01*
X66564612Y26292264D01*
X66585140Y26540000D01*
X66564612Y26787737D01*
X66503588Y27028717D01*
X66403731Y27256368D01*
X66267767Y27464478D01*
X66209352Y27527933D01*
X65714803Y27033385D01*
X65709423Y27041948D01*
X65581948Y27169423D01*
X65573381Y27174806D01*
X66069342Y27670766D01*
X65903235Y27800053D01*
X65684606Y27918369D01*
X65449491Y27999084D01*
X65204292Y28040000D01*
X64955708Y28040000D01*
X64710508Y27999084D01*
X64475390Y27918368D01*
X64256767Y27800056D01*
X64090656Y27670766D01*
X64090656Y27670765D01*
X64586616Y27174805D01*
X64578052Y27169423D01*
X64450577Y27041948D01*
X64445195Y27033383D01*
X63950645Y27527933D01*
X63892235Y27464482D01*
X63756268Y27256368D01*
X63656411Y27028717D01*
X63595387Y26787737D01*
X63574859Y26540000D01*
X61505140Y26540000D01*
X61484612Y26787737D01*
X61423588Y27028717D01*
X61323731Y27256368D01*
X61187767Y27464478D01*
X61129352Y27527933D01*
X60634803Y27033385D01*
X60629423Y27041948D01*
X60501948Y27169423D01*
X60493381Y27174806D01*
X60989342Y27670766D01*
X60823235Y27800053D01*
X60604606Y27918369D01*
X60369491Y27999084D01*
X60124292Y28040000D01*
X59875708Y28040000D01*
X59630508Y27999084D01*
X59395390Y27918368D01*
X59176767Y27800056D01*
X59010656Y27670766D01*
X59506617Y27174805D01*
X59498052Y27169423D01*
X59370577Y27041948D01*
X59365195Y27033383D01*
X58870645Y27527933D01*
X58812235Y27464482D01*
X58676268Y27256368D01*
X58576411Y27028717D01*
X58515387Y26787737D01*
X58494859Y26540000D01*
X40656371Y26540000D01*
X40725789Y26650478D01*
X40785368Y26820745D01*
X40805565Y27000000D01*
X40785368Y27179255D01*
X40725789Y27349522D01*
X40629816Y27502262D01*
X40502262Y27629816D01*
X40349522Y27725789D01*
X40341815Y27728486D01*
X40179258Y27785368D01*
X40000000Y27805565D01*
X39820741Y27785368D01*
X39650480Y27725790D01*
X39497739Y27629817D01*
X39370183Y27502261D01*
X39274210Y27349520D01*
X39214632Y27179259D01*
X39194435Y27000000D01*
X38555250Y27000000D01*
X38536330Y27143709D01*
X38480861Y27277625D01*
X38425692Y27349522D01*
X38392621Y27392622D01*
X38327552Y27442550D01*
X38277625Y27480861D01*
X38225958Y27502262D01*
X38143709Y27536331D01*
X38000000Y27555250D01*
X37856290Y27536331D01*
X37722375Y27480861D01*
X37607378Y27392622D01*
X37519139Y27277625D01*
X37463669Y27143710D01*
X37444750Y27000001D01*
X-9444750Y27000001D01*
X-9463670Y27143709D01*
X-9519139Y27277625D01*
X-9574308Y27349522D01*
X-9607379Y27392622D01*
X-9672448Y27442550D01*
X-9722375Y27480861D01*
X-9774042Y27502262D01*
X-9856291Y27536331D01*
X-10000000Y27555250D01*
X-10143710Y27536331D01*
X-10277625Y27480861D01*
X-10392622Y27392622D01*
X-10480861Y27277625D01*
X-10536331Y27143710D01*
X-10555250Y27000001D01*
X-21444750Y27000001D01*
X-21463670Y27143709D01*
X-21519139Y27277625D01*
X-21574308Y27349522D01*
X-21607379Y27392622D01*
X-21672448Y27442550D01*
X-21722375Y27480861D01*
X-21774042Y27502262D01*
X-21856291Y27536331D01*
X-22000000Y27555250D01*
X-22143710Y27536331D01*
X-22277625Y27480861D01*
X-22392622Y27392622D01*
X-22480861Y27277625D01*
X-22536331Y27143710D01*
X-22555250Y27000000D01*
X-29444750Y27000000D01*
X-29463670Y27143709D01*
X-29519139Y27277625D01*
X-29574308Y27349522D01*
X-29607379Y27392622D01*
X-29672448Y27442550D01*
X-29722375Y27480861D01*
X-29774042Y27502262D01*
X-29856291Y27536331D01*
X-30000000Y27555250D01*
X-30143710Y27536331D01*
X-30277625Y27480861D01*
X-30392622Y27392622D01*
X-30480861Y27277625D01*
X-30536331Y27143710D01*
X-30555250Y27000000D01*
X-59944750Y27000000D01*
X-59963670Y27143709D01*
X-60019139Y27277625D01*
X-60074308Y27349522D01*
X-60107379Y27392622D01*
X-60172448Y27442550D01*
X-60222375Y27480861D01*
X-60274042Y27502262D01*
X-60356291Y27536331D01*
X-60500000Y27555250D01*
X-60643710Y27536331D01*
X-60777625Y27480861D01*
X-60892622Y27392622D01*
X-60980861Y27277625D01*
X-61036331Y27143710D01*
X-61055250Y27000001D01*
X-64974500Y27000001D01*
X-64974500Y29000001D01*
X-43805565Y29000001D01*
X-43785368Y28820742D01*
X-43750947Y28722375D01*
X-43725789Y28650478D01*
X-43629816Y28497738D01*
X-43502262Y28370184D01*
X-43349522Y28274211D01*
X-43241149Y28236290D01*
X-43179259Y28214633D01*
X-43179258Y28214633D01*
X-43179255Y28214632D01*
X-43000000Y28194435D01*
X-42820745Y28214632D01*
X-42650478Y28274211D01*
X-42497738Y28370184D01*
X-42370184Y28497738D01*
X-42274211Y28650478D01*
X-42214632Y28820745D01*
X-42194435Y29000000D01*
X-10555250Y29000000D01*
X-10536331Y28856291D01*
X-10497108Y28761599D01*
X-10480861Y28722375D01*
X-10442550Y28672448D01*
X-10392622Y28607379D01*
X-10342694Y28569068D01*
X-10277625Y28519139D01*
X-10182933Y28479917D01*
X-10143710Y28463670D01*
X-10126992Y28461469D01*
X-10000000Y28444750D01*
X-9856291Y28463670D01*
X-9722375Y28519139D01*
X-9607379Y28607379D01*
X-9519139Y28722375D01*
X-9463670Y28856291D01*
X-9444750Y29000000D01*
X-9444750Y29000001D01*
X-1055250Y29000001D01*
X-1036331Y28856291D01*
X-997108Y28761599D01*
X-980861Y28722375D01*
X-942550Y28672448D01*
X-892622Y28607379D01*
X-842694Y28569068D01*
X-777625Y28519139D01*
X-682933Y28479917D01*
X-643710Y28463670D01*
X-624791Y28461180D01*
X-500000Y28444750D01*
X-356291Y28463670D01*
X-222375Y28519139D01*
X-107379Y28607379D01*
X-19139Y28722375D01*
X36330Y28856291D01*
X55250Y29000000D01*
X3444750Y29000000D01*
X3463669Y28856291D01*
X3502892Y28761599D01*
X3519139Y28722375D01*
X3557450Y28672448D01*
X3607378Y28607379D01*
X3657306Y28569068D01*
X3722375Y28519139D01*
X3817067Y28479917D01*
X3856290Y28463670D01*
X3875209Y28461180D01*
X4000000Y28444750D01*
X4143709Y28463670D01*
X4277625Y28519139D01*
X4392621Y28607379D01*
X4480861Y28722375D01*
X4536330Y28856291D01*
X4555250Y29000000D01*
X4555250Y29000001D01*
X12944750Y29000001D01*
X12963669Y28856291D01*
X13002892Y28761599D01*
X13019139Y28722375D01*
X13057450Y28672448D01*
X13107378Y28607379D01*
X13157306Y28569068D01*
X13222375Y28519139D01*
X13317067Y28479917D01*
X13356290Y28463670D01*
X13373008Y28461469D01*
X13500000Y28444750D01*
X13643709Y28463670D01*
X13777625Y28519139D01*
X13892621Y28607379D01*
X13980861Y28722375D01*
X14036330Y28856291D01*
X14055250Y29000000D01*
X23444750Y29000000D01*
X23463669Y28856291D01*
X23502892Y28761599D01*
X23519139Y28722375D01*
X23557450Y28672448D01*
X23607378Y28607379D01*
X23657306Y28569068D01*
X23722375Y28519139D01*
X23817067Y28479917D01*
X23856290Y28463670D01*
X23875209Y28461180D01*
X24000000Y28444750D01*
X24143709Y28463670D01*
X24277625Y28519139D01*
X24392621Y28607379D01*
X24480861Y28722375D01*
X24536330Y28856291D01*
X24555250Y29000000D01*
X33444750Y29000000D01*
X33463669Y28856291D01*
X33502892Y28761599D01*
X33519139Y28722375D01*
X33557450Y28672448D01*
X33607378Y28607379D01*
X33657306Y28569068D01*
X33722375Y28519139D01*
X33817067Y28479917D01*
X33856290Y28463670D01*
X33873008Y28461469D01*
X34000000Y28444750D01*
X34143709Y28463670D01*
X34277625Y28519139D01*
X34392621Y28607379D01*
X34480861Y28722375D01*
X34536330Y28856291D01*
X34555250Y29000000D01*
X34536330Y29143709D01*
X34480861Y29277625D01*
X34425692Y29349522D01*
X34392621Y29392622D01*
X34327552Y29442550D01*
X34277625Y29480861D01*
X34225958Y29502262D01*
X34143709Y29536331D01*
X34000000Y29555250D01*
X33856290Y29536331D01*
X33722375Y29480861D01*
X33607378Y29392622D01*
X33519139Y29277625D01*
X33463669Y29143710D01*
X33444750Y29000000D01*
X24555250Y29000000D01*
X24536330Y29143709D01*
X24480861Y29277625D01*
X24425692Y29349522D01*
X24392621Y29392622D01*
X24327552Y29442550D01*
X24277625Y29480861D01*
X24225958Y29502262D01*
X24143709Y29536331D01*
X24016717Y29553049D01*
X24000000Y29555250D01*
X23999999Y29555250D01*
X23856290Y29536331D01*
X23722375Y29480861D01*
X23607378Y29392622D01*
X23519139Y29277625D01*
X23463669Y29143710D01*
X23444750Y29000000D01*
X14055250Y29000000D01*
X14036330Y29143709D01*
X13980861Y29277625D01*
X13925692Y29349522D01*
X13892621Y29392622D01*
X13827552Y29442550D01*
X13777625Y29480861D01*
X13725958Y29502262D01*
X13643709Y29536331D01*
X13500000Y29555250D01*
X13356290Y29536331D01*
X13222375Y29480861D01*
X13107378Y29392622D01*
X13019139Y29277625D01*
X12963669Y29143710D01*
X12944750Y29000001D01*
X4555250Y29000001D01*
X4536330Y29143709D01*
X4480861Y29277625D01*
X4425692Y29349522D01*
X4392621Y29392622D01*
X4327552Y29442550D01*
X4277625Y29480861D01*
X4225958Y29502262D01*
X4143709Y29536331D01*
X4016717Y29553049D01*
X4000000Y29555250D01*
X3999999Y29555250D01*
X3856290Y29536331D01*
X3722375Y29480861D01*
X3607378Y29392622D01*
X3519139Y29277625D01*
X3463669Y29143710D01*
X3444750Y29000000D01*
X55250Y29000000D01*
X36330Y29143709D01*
X-19139Y29277625D01*
X-74308Y29349522D01*
X-107379Y29392622D01*
X-172448Y29442550D01*
X-222375Y29480861D01*
X-274042Y29502262D01*
X-356291Y29536331D01*
X-483283Y29553049D01*
X-500000Y29555250D01*
X-500001Y29555250D01*
X-643710Y29536331D01*
X-777625Y29480861D01*
X-892622Y29392622D01*
X-980861Y29277625D01*
X-1036331Y29143710D01*
X-1055250Y29000001D01*
X-9444750Y29000001D01*
X-9463670Y29143709D01*
X-9519139Y29277625D01*
X-9574308Y29349522D01*
X-9607379Y29392622D01*
X-9672448Y29442550D01*
X-9722375Y29480861D01*
X-9774042Y29502262D01*
X-9856291Y29536331D01*
X-10000000Y29555250D01*
X-10143710Y29536331D01*
X-10277625Y29480861D01*
X-10392622Y29392622D01*
X-10480861Y29277625D01*
X-10536331Y29143710D01*
X-10555250Y29000000D01*
X-42194435Y29000000D01*
X-42214632Y29179255D01*
X-42274211Y29349522D01*
X-42370184Y29502262D01*
X-42497738Y29629816D01*
X-42650478Y29725789D01*
X-42658185Y29728486D01*
X-42820742Y29785368D01*
X-43000000Y29805565D01*
X-43179259Y29785368D01*
X-43349520Y29725790D01*
X-43349522Y29725790D01*
X-43349522Y29725789D01*
X-43354955Y29722375D01*
X-43502261Y29629817D01*
X-43629817Y29502261D01*
X-43725790Y29349520D01*
X-43785368Y29179259D01*
X-43805565Y29000001D01*
X-64974500Y29000001D01*
X-64974500Y30000000D01*
X27394750Y30000000D01*
X27413669Y29856291D01*
X27434681Y29805565D01*
X27469139Y29722375D01*
X27507450Y29672448D01*
X27557378Y29607379D01*
X27607306Y29569068D01*
X27672375Y29519139D01*
X27764788Y29480861D01*
X27806290Y29463670D01*
X27825210Y29461180D01*
X27950000Y29444750D01*
X28093709Y29463670D01*
X28227625Y29519139D01*
X28342621Y29607379D01*
X28430861Y29722375D01*
X28486330Y29856291D01*
X28505250Y30000000D01*
X28486330Y30143709D01*
X28430861Y30277625D01*
X28359838Y30370184D01*
X28342621Y30392622D01*
X28277552Y30442550D01*
X28227625Y30480861D01*
X28186875Y30497740D01*
X28093709Y30536331D01*
X27966717Y30553049D01*
X27950000Y30555250D01*
X27949999Y30555250D01*
X27806290Y30536331D01*
X27672375Y30480861D01*
X27557378Y30392622D01*
X27469139Y30277625D01*
X27413669Y30143710D01*
X27394750Y30000000D01*
X-64974500Y30000000D01*
X-64974500Y30996760D01*
X-64974288Y31003235D01*
X-64971550Y31045011D01*
X-63830156Y31045011D01*
X-63820422Y30865496D01*
X-63772329Y30692282D01*
X-63772328Y30692280D01*
X-63772327Y30692277D01*
X-63688119Y30533444D01*
X-63612782Y30444750D01*
X-63571735Y30396426D01*
X-63428620Y30287632D01*
X-63428619Y30287632D01*
X-63428618Y30287631D01*
X-63265459Y30212146D01*
X-63185001Y30194436D01*
X-63089889Y30173500D01*
X-63089887Y30173500D01*
X-62957864Y30173500D01*
X-62955184Y30173500D01*
X-62821279Y30188063D01*
X-62650915Y30245465D01*
X-62496874Y30338149D01*
X-62496874Y30338150D01*
X-62496871Y30338151D01*
X-62366360Y30461778D01*
X-62366360Y30461779D01*
X-62366358Y30461780D01*
X-62265471Y30610577D01*
X-62198930Y30777584D01*
X-62169845Y30954990D01*
X-62172285Y31000000D01*
X-53805565Y31000000D01*
X-53785368Y30820742D01*
X-53750947Y30722375D01*
X-53725789Y30650478D01*
X-53629816Y30497738D01*
X-53502262Y30370184D01*
X-53349522Y30274211D01*
X-53241149Y30236290D01*
X-53179259Y30214633D01*
X-53179258Y30214633D01*
X-53179255Y30214632D01*
X-53000000Y30194435D01*
X-52820745Y30214632D01*
X-52650478Y30274211D01*
X-52497738Y30370184D01*
X-52370184Y30497738D01*
X-52274211Y30650478D01*
X-52214632Y30820745D01*
X-52194435Y31000000D01*
X-51805565Y31000000D01*
X-51785368Y30820742D01*
X-51750947Y30722375D01*
X-51725789Y30650478D01*
X-51629816Y30497738D01*
X-51502262Y30370184D01*
X-51349522Y30274211D01*
X-51241149Y30236290D01*
X-51179259Y30214633D01*
X-51179258Y30214633D01*
X-51179255Y30214632D01*
X-51000000Y30194435D01*
X-50820745Y30214632D01*
X-50650478Y30274211D01*
X-50497738Y30370184D01*
X-50370184Y30497738D01*
X-50274211Y30650478D01*
X-50214632Y30820745D01*
X-50194435Y31000000D01*
X-17555250Y31000000D01*
X-17554823Y30996760D01*
X-17536331Y30856291D01*
X-17503729Y30777584D01*
X-17480861Y30722375D01*
X-17457766Y30692277D01*
X-17392622Y30607379D01*
X-17342694Y30569068D01*
X-17277625Y30519139D01*
X-17185212Y30480861D01*
X-17143710Y30463670D01*
X-17129353Y30461780D01*
X-17000000Y30444750D01*
X-16856291Y30463670D01*
X-16722375Y30519139D01*
X-16607379Y30607379D01*
X-16519139Y30722375D01*
X-16463670Y30856291D01*
X-16444750Y31000000D01*
X-16450676Y31045011D01*
X65169844Y31045011D01*
X65179578Y30865496D01*
X65227671Y30692282D01*
X65227672Y30692280D01*
X65227673Y30692277D01*
X65311881Y30533444D01*
X65387218Y30444750D01*
X65428265Y30396426D01*
X65571380Y30287632D01*
X65571381Y30287632D01*
X65571382Y30287631D01*
X65734541Y30212146D01*
X65814999Y30194436D01*
X65910111Y30173500D01*
X65910113Y30173500D01*
X66042136Y30173500D01*
X66044816Y30173500D01*
X66178721Y30188063D01*
X66349085Y30245465D01*
X66503126Y30338149D01*
X66503126Y30338150D01*
X66503129Y30338151D01*
X66633640Y30461778D01*
X66633640Y30461779D01*
X66633642Y30461780D01*
X66734529Y30610577D01*
X66801070Y30777584D01*
X66830155Y30954990D01*
X66820422Y31134501D01*
X66817865Y31143709D01*
X66786209Y31257724D01*
X66772327Y31307723D01*
X66688119Y31466556D01*
X66571735Y31603574D01*
X66571734Y31603575D01*
X66428619Y31712369D01*
X66270832Y31785368D01*
X66265459Y31787854D01*
X66265457Y31787855D01*
X66265456Y31787855D01*
X66089889Y31826500D01*
X66089887Y31826500D01*
X65955184Y31826500D01*
X65952531Y31826212D01*
X65952522Y31826211D01*
X65821279Y31811938D01*
X65650914Y31754535D01*
X65496870Y31661850D01*
X65366359Y31538223D01*
X65265470Y31389423D01*
X65198930Y31222418D01*
X65169844Y31045011D01*
X-16450676Y31045011D01*
X-16463670Y31143709D01*
X-16519139Y31277625D01*
X-16574308Y31349522D01*
X-16607379Y31392622D01*
X-16672448Y31442550D01*
X-16722375Y31480861D01*
X-16779870Y31504676D01*
X-16856291Y31536331D01*
X-17000000Y31555250D01*
X-17143710Y31536331D01*
X-17277625Y31480861D01*
X-17392622Y31392622D01*
X-17480861Y31277625D01*
X-17536331Y31143710D01*
X-17554582Y31005073D01*
X-17555250Y31000000D01*
X-50194435Y31000000D01*
X-50214632Y31179255D01*
X-50274211Y31349522D01*
X-50370184Y31502262D01*
X-50497738Y31629816D01*
X-50650478Y31725789D01*
X-50658185Y31728486D01*
X-50820742Y31785368D01*
X-51000000Y31805565D01*
X-51179259Y31785368D01*
X-51349520Y31725790D01*
X-51502261Y31629817D01*
X-51502263Y31629816D01*
X-51502262Y31629816D01*
X-51629816Y31502262D01*
X-51700717Y31389423D01*
X-51725790Y31349520D01*
X-51785368Y31179259D01*
X-51805565Y31000000D01*
X-52194435Y31000000D01*
X-52214632Y31179255D01*
X-52274211Y31349522D01*
X-52370184Y31502262D01*
X-52497738Y31629816D01*
X-52650478Y31725789D01*
X-52658185Y31728486D01*
X-52820742Y31785368D01*
X-53000000Y31805565D01*
X-53179259Y31785368D01*
X-53349520Y31725790D01*
X-53502261Y31629817D01*
X-53502263Y31629816D01*
X-53502262Y31629816D01*
X-53629816Y31502262D01*
X-53700717Y31389423D01*
X-53725790Y31349520D01*
X-53785368Y31179259D01*
X-53805565Y31000000D01*
X-62172285Y31000000D01*
X-62179578Y31134501D01*
X-62182135Y31143709D01*
X-62213791Y31257724D01*
X-62227673Y31307723D01*
X-62311881Y31466556D01*
X-62428265Y31603574D01*
X-62428266Y31603575D01*
X-62571381Y31712369D01*
X-62729168Y31785368D01*
X-62734541Y31787854D01*
X-62734543Y31787855D01*
X-62734544Y31787855D01*
X-62910111Y31826500D01*
X-62910113Y31826500D01*
X-63044816Y31826500D01*
X-63047469Y31826212D01*
X-63047478Y31826211D01*
X-63178721Y31811938D01*
X-63349086Y31754535D01*
X-63503130Y31661850D01*
X-63633641Y31538223D01*
X-63734530Y31389423D01*
X-63801070Y31222418D01*
X-63830156Y31045011D01*
X-64971550Y31045011D01*
X-64965799Y31132758D01*
X-64958032Y31251257D01*
X-64956345Y31264078D01*
X-64908485Y31504684D01*
X-64905138Y31517177D01*
X-64826281Y31749481D01*
X-64821336Y31761417D01*
X-64712835Y31981436D01*
X-64706362Y31992646D01*
X-64570077Y32196612D01*
X-64562202Y32206874D01*
X-64400453Y32391313D01*
X-64391313Y32400453D01*
X-64206874Y32562202D01*
X-64196612Y32570077D01*
X-63992641Y32706366D01*
X-63981436Y32712835D01*
X-63761417Y32821336D01*
X-63749481Y32826281D01*
X-63517177Y32905138D01*
X-63504684Y32908485D01*
X-63264078Y32956345D01*
X-63251257Y32958032D01*
X-63003235Y32974289D01*
X-62996760Y32974500D01*
X-62991715Y32974500D01*
X65991715Y32974500D01*
X65996760Y32974500D01*
X66003234Y32974289D01*
G37*
G04 #@! TD.AperFunction*
M02*
