G04 #@! TF.GenerationSoftware,KiCad,Pcbnew,7.0.4-40-g0180cb380f*
G04 #@! TF.CreationDate,2023-07-07T01:52:34-07:00*
G04 #@! TF.ProjectId,RobotOwl,526f626f-744f-4776-9c2e-6b696361645f,rev?*
G04 #@! TF.SameCoordinates,Original*
G04 #@! TF.FileFunction,Soldermask,Top*
G04 #@! TF.FilePolarity,Negative*
%FSLAX46Y46*%
G04 Gerber Fmt 4.6, Leading zero omitted, Abs format (unit mm)*
G04 Created by KiCad (PCBNEW 7.0.4-40-g0180cb380f) date 2023-07-07 01:52:34*
%MOMM*%
%LPD*%
G01*
G04 APERTURE LIST*
G04 Aperture macros list*
%AMRoundRect*
0 Rectangle with rounded corners*
0 $1 Rounding radius*
0 $2 $3 $4 $5 $6 $7 $8 $9 X,Y pos of 4 corners*
0 Add a 4 corners polygon primitive as box body*
4,1,4,$2,$3,$4,$5,$6,$7,$8,$9,$2,$3,0*
0 Add four circle primitives for the rounded corners*
1,1,$1+$1,$2,$3*
1,1,$1+$1,$4,$5*
1,1,$1+$1,$6,$7*
1,1,$1+$1,$8,$9*
0 Add four rect primitives between the rounded corners*
20,1,$1+$1,$2,$3,$4,$5,0*
20,1,$1+$1,$4,$5,$6,$7,0*
20,1,$1+$1,$6,$7,$8,$9,0*
20,1,$1+$1,$8,$9,$2,$3,0*%
%AMHorizOval*
0 Thick line with rounded ends*
0 $1 width*
0 $2 $3 position (X,Y) of the first rounded end (center of the circle)*
0 $4 $5 position (X,Y) of the second rounded end (center of the circle)*
0 Add line between two ends*
20,1,$1,$2,$3,$4,$5,0*
0 Add two circle primitives to create the rounded ends*
1,1,$1,$2,$3*
1,1,$1,$4,$5*%
%AMRotRect*
0 Rectangle, with rotation*
0 The origin of the aperture is its center*
0 $1 length*
0 $2 width*
0 $3 Rotation angle, in degrees counterclockwise*
0 Add horizontal line*
21,1,$1,$2,0,0,$3*%
%AMFreePoly0*
4,1,53,0.180798,1.454629,0.352531,1.394537,0.506585,1.297738,0.635238,1.169085,0.732037,1.015031,0.792129,0.843298,0.812500,0.662500,0.792129,0.481702,0.732037,0.309969,0.635238,0.155915,0.506585,0.027262,0.352531,-0.069537,0.180798,-0.129629,0.000000,-0.150000,-0.180798,-0.129629,-0.352531,-0.069537,-0.506585,0.027262,-0.635238,0.155915,-0.732037,0.309969,-0.792129,0.481702,
-0.812500,0.662500,-0.517770,0.662500,-0.496797,0.516627,-0.435576,0.382572,-0.339067,0.271196,-0.215089,0.191520,-0.073686,0.150000,0.073686,0.150000,0.215089,0.191520,0.339067,0.271196,0.435576,0.382572,0.496797,0.516627,0.517770,0.662500,0.496797,0.808373,0.435576,0.942428,0.339067,1.053804,0.215089,1.133480,0.073686,1.175000,-0.073686,1.175000,-0.215089,1.133480,
-0.339067,1.053804,-0.435576,0.942428,-0.496797,0.808373,-0.517770,0.662500,-0.812500,0.662500,-0.792129,0.843298,-0.732037,1.015031,-0.635238,1.169085,-0.506585,1.297738,-0.352531,1.394537,-0.180798,1.454629,0.000000,1.475000,0.180798,1.454629,0.180798,1.454629,$1*%
G04 Aperture macros list end*
%ADD10C,0.700000*%
%ADD11C,2.500000*%
%ADD12C,0.650000*%
%ADD13RotRect,1.500000X0.900000X75.000000*%
%ADD14RoundRect,0.200000X0.200000X0.275000X-0.200000X0.275000X-0.200000X-0.275000X0.200000X-0.275000X0*%
%ADD15RoundRect,0.250000X-0.375000X-1.075000X0.375000X-1.075000X0.375000X1.075000X-0.375000X1.075000X0*%
%ADD16RoundRect,0.250000X-1.175000X-0.450000X1.175000X-0.450000X1.175000X0.450000X-1.175000X0.450000X0*%
%ADD17RoundRect,0.200000X-0.275000X0.200000X-0.275000X-0.200000X0.275000X-0.200000X0.275000X0.200000X0*%
%ADD18RoundRect,0.250000X0.650000X-0.325000X0.650000X0.325000X-0.650000X0.325000X-0.650000X-0.325000X0*%
%ADD19RotRect,1.500000X0.900000X255.000000*%
%ADD20RoundRect,0.200000X-0.200000X-0.275000X0.200000X-0.275000X0.200000X0.275000X-0.200000X0.275000X0*%
%ADD21RoundRect,0.225000X0.225000X0.375000X-0.225000X0.375000X-0.225000X-0.375000X0.225000X-0.375000X0*%
%ADD22RotRect,1.700000X1.700000X300.000000*%
%ADD23HorizOval,1.700000X0.000000X0.000000X0.000000X0.000000X0*%
%ADD24RoundRect,0.250000X0.475000X-0.250000X0.475000X0.250000X-0.475000X0.250000X-0.475000X-0.250000X0*%
%ADD25RotRect,1.500000X0.900000X345.000000*%
%ADD26RoundRect,0.187500X-0.562500X-0.862500X0.562500X-0.862500X0.562500X0.862500X-0.562500X0.862500X0*%
%ADD27RoundRect,0.162500X-0.587500X-0.487500X0.587500X-0.487500X0.587500X0.487500X-0.587500X0.487500X0*%
%ADD28RoundRect,0.175000X-0.525000X-0.825000X0.525000X-0.825000X0.525000X0.825000X-0.525000X0.825000X0*%
%ADD29RoundRect,0.150000X-0.550000X-0.450000X0.550000X-0.450000X0.550000X0.450000X-0.550000X0.450000X0*%
%ADD30RotRect,1.700000X1.700000X240.000000*%
%ADD31HorizOval,1.700000X0.000000X0.000000X0.000000X0.000000X0*%
%ADD32RotRect,1.500000X0.900000X135.000000*%
%ADD33RotRect,1.500000X0.900000X15.000000*%
%ADD34R,1.524000X1.524000*%
%ADD35C,1.524000*%
%ADD36RoundRect,0.225000X0.225000X0.250000X-0.225000X0.250000X-0.225000X-0.250000X0.225000X-0.250000X0*%
%ADD37C,1.152000*%
%ADD38C,0.800000*%
%ADD39C,5.400000*%
%ADD40RotRect,1.500000X0.900000X45.000000*%
%ADD41RoundRect,0.150000X0.150000X-0.587500X0.150000X0.587500X-0.150000X0.587500X-0.150000X-0.587500X0*%
%ADD42RotRect,1.500000X0.900000X225.000000*%
%ADD43R,1.800000X2.200000*%
%ADD44R,0.300000X1.300000*%
%ADD45RotRect,1.500000X0.900000X195.000000*%
%ADD46RoundRect,0.150000X0.512500X0.150000X-0.512500X0.150000X-0.512500X-0.150000X0.512500X-0.150000X0*%
%ADD47RotRect,1.500000X0.900000X285.000000*%
%ADD48RoundRect,0.250000X0.250000X0.475000X-0.250000X0.475000X-0.250000X-0.475000X0.250000X-0.475000X0*%
%ADD49RoundRect,0.250000X-0.475000X0.250000X-0.475000X-0.250000X0.475000X-0.250000X0.475000X0.250000X0*%
%ADD50RoundRect,0.225000X-0.250000X0.225000X-0.250000X-0.225000X0.250000X-0.225000X0.250000X0.225000X0*%
%ADD51RotRect,1.500000X0.900000X105.000000*%
%ADD52C,0.250000*%
%ADD53RoundRect,0.225000X0.250000X-0.225000X0.250000X0.225000X-0.250000X0.225000X-0.250000X-0.225000X0*%
%ADD54RotRect,1.500000X0.900000X315.000000*%
%ADD55R,1.700000X1.700000*%
%ADD56O,1.700000X1.700000*%
%ADD57RotRect,1.500000X0.900000X165.000000*%
%ADD58RoundRect,0.200000X0.275000X-0.200000X0.275000X0.200000X-0.275000X0.200000X-0.275000X-0.200000X0*%
%ADD59C,0.500000*%
%ADD60R,0.725000X0.522000*%
%ADD61FreePoly0,0.000000*%
G04 APERTURE END LIST*
D10*
X156000000Y-135000000D02*
G75*
G03*
X156000000Y-135000000I-250000J0D01*
G01*
X157500000Y-135000000D02*
G75*
G03*
X157500000Y-135000000I-250000J0D01*
G01*
X159000000Y-135000000D02*
G75*
G03*
X159000000Y-135000000I-250000J0D01*
G01*
X160500000Y-135000000D02*
G75*
G03*
X160500000Y-135000000I-250000J0D01*
G01*
D11*
X151250000Y-136000000D02*
G75*
G03*
X151250000Y-136000000I-1250000J0D01*
G01*
D12*
X198325000Y-100000000D02*
G75*
G03*
X198325000Y-100000000I-325000J0D01*
G01*
X150325000Y-148000000D02*
G75*
G03*
X150325000Y-148000000I-325000J0D01*
G01*
X102325000Y-100000000D02*
G75*
G03*
X102325000Y-100000000I-325000J0D01*
G01*
D13*
X192205116Y-113845467D03*
X195392671Y-114699570D03*
X196660884Y-109966533D03*
X193473329Y-109112430D03*
D14*
X125825000Y-110000000D03*
X124175000Y-110000000D03*
X120825000Y-110000000D03*
X119175000Y-110000000D03*
D15*
X123600000Y-117000000D03*
X126400000Y-117000000D03*
D16*
X130000000Y-110000000D03*
D17*
X149000000Y-113175000D03*
X149000000Y-114825000D03*
D18*
X154000000Y-119475000D03*
X154000000Y-116525000D03*
D19*
X107794884Y-86154533D03*
X104607329Y-85300430D03*
X103339116Y-90033467D03*
X106526671Y-90887570D03*
D20*
X149175000Y-57000000D03*
X150825000Y-57000000D03*
D21*
X131650000Y-117000000D03*
X128350000Y-117000000D03*
D22*
X172199705Y-132730000D03*
D23*
X170000000Y-134000000D03*
X167800296Y-135270000D03*
D24*
X143000000Y-117050000D03*
X143000000Y-118950000D03*
D25*
X136154533Y-142205116D03*
X135300430Y-145392671D03*
X140033467Y-146660884D03*
X140887570Y-143473329D03*
D26*
X153050000Y-53000000D03*
D27*
X146950000Y-53000000D03*
D28*
X153050000Y-53000000D03*
D29*
X146950000Y-53000000D03*
D16*
X164000000Y-117000000D03*
D30*
X132199705Y-135270000D03*
D31*
X130000000Y-134000000D03*
X127800296Y-132730000D03*
D32*
X183092685Y-70372138D03*
X185426138Y-68038685D03*
X181961315Y-64573862D03*
X179627862Y-66907315D03*
D33*
X159112430Y-143473329D03*
X159966533Y-146660884D03*
X164699570Y-145392671D03*
X163845467Y-142205116D03*
D34*
X134760000Y-63902500D03*
X137300000Y-63902500D03*
D35*
X134760000Y-66442500D03*
X137300000Y-66442500D03*
X134760000Y-68982500D03*
X137300000Y-68982500D03*
X134760000Y-71522500D03*
X137300000Y-71522500D03*
X134760000Y-74062500D03*
X137300000Y-74062500D03*
X134760000Y-76602500D03*
X137300000Y-76602500D03*
X134760000Y-79142500D03*
X137300000Y-79142500D03*
X134760000Y-81682500D03*
X137300000Y-81682500D03*
X134760000Y-84222500D03*
X137300000Y-84222500D03*
X134760000Y-86762500D03*
X137300000Y-86762500D03*
X134760000Y-89302500D03*
X137300000Y-89302500D03*
X134760000Y-91842500D03*
X137300000Y-91842500D03*
X134760000Y-94382500D03*
X137300000Y-94382500D03*
X134760000Y-96922500D03*
X137300000Y-96922500D03*
X134760000Y-99462500D03*
X137300000Y-99462500D03*
X134760000Y-102002500D03*
X137300000Y-102002500D03*
X134760000Y-104542500D03*
X137300000Y-104542500D03*
X134760000Y-107082500D03*
X137300000Y-107082500D03*
X134760000Y-109622500D03*
X137300000Y-109622500D03*
X134760000Y-112162500D03*
X137300000Y-112162500D03*
X162700000Y-112162500D03*
X165240000Y-112162500D03*
X162700000Y-109622500D03*
X165240000Y-109622500D03*
X162700000Y-107082500D03*
X165240000Y-107082500D03*
X162700000Y-104542500D03*
X165240000Y-104542500D03*
X162700000Y-102002500D03*
X165240000Y-102002500D03*
X162700000Y-99462500D03*
X165240000Y-99462500D03*
X162700000Y-96922500D03*
X165240000Y-96922500D03*
X162700000Y-94382500D03*
X165240000Y-94382500D03*
X162700000Y-91842500D03*
X165240000Y-91842500D03*
X162700000Y-89302500D03*
X165240000Y-89302500D03*
X162700000Y-86762500D03*
X165240000Y-86762500D03*
X162700000Y-84222500D03*
X165240000Y-84222500D03*
X162700000Y-81682500D03*
X165240000Y-81682500D03*
X162700000Y-79142500D03*
X165240000Y-79142500D03*
X162700000Y-76602500D03*
X165240000Y-76602500D03*
X162700000Y-74062500D03*
X165240000Y-74062500D03*
X162700000Y-71522500D03*
X165240000Y-71522500D03*
X162700000Y-68982500D03*
X165240000Y-68982500D03*
X162700000Y-66442500D03*
X165240000Y-66442500D03*
X162700000Y-63902500D03*
X165240000Y-63902500D03*
D36*
X115775000Y-95000000D03*
X114225000Y-95000000D03*
D37*
X198000000Y-100000000D03*
D38*
X122975000Y-125000000D03*
X123568109Y-123568109D03*
X123568109Y-126431891D03*
X125000000Y-122975000D03*
D39*
X125000000Y-125000000D03*
D38*
X125000000Y-127025000D03*
X126431891Y-123568109D03*
X126431891Y-126431891D03*
X127025000Y-125000000D03*
D37*
X150000000Y-148000000D03*
D40*
X179627862Y-133092685D03*
X181961315Y-135426138D03*
X185426138Y-131961315D03*
X183092685Y-129627862D03*
D41*
X147050000Y-118937500D03*
X148950000Y-118937500D03*
X148000000Y-117062500D03*
D42*
X120372138Y-66907315D03*
X118038685Y-64573862D03*
X114573862Y-68038685D03*
X116907315Y-70372138D03*
D38*
X122975000Y-75000000D03*
X123568109Y-73568109D03*
X123568109Y-76431891D03*
X125000000Y-72975000D03*
D39*
X125000000Y-75000000D03*
D38*
X125000000Y-77025000D03*
X126431891Y-73568109D03*
X126431891Y-76431891D03*
X127025000Y-75000000D03*
D43*
X157650000Y-126400000D03*
X142350000Y-126400000D03*
D44*
X155750000Y-123150000D03*
X155250000Y-123150000D03*
X154750000Y-123150000D03*
X154250000Y-123150000D03*
X153750000Y-123150000D03*
X153250000Y-123150000D03*
X152750000Y-123150000D03*
X152250000Y-123150000D03*
X151750000Y-123150000D03*
X151250000Y-123150000D03*
X150750000Y-123150000D03*
X150250000Y-123150000D03*
X149750000Y-123150000D03*
X149250000Y-123150000D03*
X148750000Y-123150000D03*
X148250000Y-123150000D03*
X147750000Y-123150000D03*
X147250000Y-123150000D03*
X146750000Y-123150000D03*
X146250000Y-123150000D03*
X145750000Y-123150000D03*
X145250000Y-123150000D03*
X144750000Y-123150000D03*
X144250000Y-123150000D03*
D45*
X140887570Y-56526671D03*
X140033467Y-53339116D03*
X135300430Y-54607329D03*
X136154533Y-57794884D03*
D46*
X126137500Y-113950000D03*
X126137500Y-113000000D03*
X126137500Y-112050000D03*
X123862500Y-112050000D03*
X123862500Y-113950000D03*
D47*
X106526671Y-109112430D03*
X103339116Y-109966533D03*
X104607329Y-114699570D03*
X107794884Y-113845467D03*
D48*
X120950000Y-113000000D03*
X119050000Y-113000000D03*
D49*
X172000000Y-99050000D03*
X172000000Y-100950000D03*
D48*
X130950000Y-113000000D03*
X129050000Y-113000000D03*
D50*
X175000000Y-99225000D03*
X175000000Y-100775000D03*
D51*
X193473329Y-90887570D03*
X196660884Y-90033467D03*
X195392671Y-85300430D03*
X192205116Y-86154533D03*
D52*
X179600000Y-99600000D03*
X180000000Y-99600000D03*
X180400000Y-99600000D03*
X179600000Y-100000000D03*
X180000000Y-100000000D03*
X180400000Y-100000000D03*
X179600000Y-100400000D03*
X180000000Y-100400000D03*
X180400000Y-100400000D03*
D53*
X156000000Y-118775000D03*
X156000000Y-117225000D03*
D54*
X116907315Y-129627862D03*
X114573862Y-131961315D03*
X118038685Y-135426138D03*
X120372138Y-133092685D03*
D53*
X145000000Y-118775000D03*
X145000000Y-117225000D03*
D38*
X172975000Y-125000000D03*
X173568109Y-123568109D03*
X173568109Y-126431891D03*
X175000000Y-122975000D03*
D39*
X175000000Y-125000000D03*
D38*
X175000000Y-127025000D03*
X176431891Y-123568109D03*
X176431891Y-126431891D03*
X177025000Y-125000000D03*
D16*
X136000000Y-61000000D03*
D55*
X111000000Y-102540000D03*
D56*
X111000000Y-100000000D03*
X111000000Y-97460000D03*
D57*
X163845467Y-57794884D03*
X164699570Y-54607329D03*
X159966533Y-53339116D03*
X159112430Y-56526671D03*
D24*
X158000000Y-118950000D03*
X158000000Y-117050000D03*
D55*
X189000000Y-98460000D03*
D56*
X189000000Y-101000000D03*
D58*
X152000000Y-118825000D03*
X152000000Y-117175000D03*
D38*
X172975000Y-75000000D03*
X173568109Y-73568109D03*
X173568109Y-76431891D03*
X175000000Y-72975000D03*
D39*
X175000000Y-75000000D03*
D38*
X175000000Y-77025000D03*
X176431891Y-73568109D03*
X176431891Y-76431891D03*
X177025000Y-75000000D03*
D16*
X136000000Y-117000000D03*
D59*
X115000000Y-100000000D03*
D60*
X114162500Y-97926000D03*
X114162500Y-98748000D03*
D61*
X115000000Y-100662500D03*
D60*
X115837500Y-98748000D03*
X115837500Y-97926000D03*
D37*
X102000000Y-100000000D03*
M02*
