G04 #@! TF.GenerationSoftware,KiCad,Pcbnew,7.0.4-40-g0180cb380f*
G04 #@! TF.CreationDate,2023-07-07T01:52:34-07:00*
G04 #@! TF.ProjectId,RobotOwl,526f626f-744f-4776-9c2e-6b696361645f,rev?*
G04 #@! TF.SameCoordinates,Original*
G04 #@! TF.FileFunction,Legend,Bot*
G04 #@! TF.FilePolarity,Positive*
%FSLAX46Y46*%
G04 Gerber Fmt 4.6, Leading zero omitted, Abs format (unit mm)*
G04 Created by KiCad (PCBNEW 7.0.4-40-g0180cb380f) date 2023-07-07 01:52:34*
%MOMM*%
%LPD*%
G01*
G04 APERTURE LIST*
%ADD10C,0.150000*%
G04 APERTURE END LIST*
D10*
X167380952Y-133298390D02*
X166619047Y-133298390D01*
X167228571Y-133584104D02*
X166771428Y-133584104D01*
X166999999Y-132869819D02*
X166999999Y-133298390D01*
X166923809Y-133869819D02*
X167076190Y-133869819D01*
X172342857Y-130869819D02*
X172152380Y-130869819D01*
X172152380Y-130869819D02*
X172152380Y-130107914D01*
X172152380Y-130107914D02*
X171847618Y-130107914D01*
X171847618Y-130107914D02*
X171847618Y-130869819D01*
X171847618Y-130869819D02*
X171657142Y-130869819D01*
X128380952Y-130798390D02*
X127619047Y-130798390D01*
X128228571Y-131084104D02*
X127771428Y-131084104D01*
X127999999Y-130369819D02*
X127999999Y-130798390D01*
X127923809Y-131369819D02*
X128076190Y-131369819D01*
X169652380Y-131369819D02*
X170033332Y-131369819D01*
X170033332Y-131369819D02*
X170071428Y-131846009D01*
X170071428Y-131846009D02*
X170033332Y-131798390D01*
X170033332Y-131798390D02*
X169957142Y-131750771D01*
X169957142Y-131750771D02*
X169766666Y-131750771D01*
X169766666Y-131750771D02*
X169690475Y-131798390D01*
X169690475Y-131798390D02*
X169652380Y-131846009D01*
X169652380Y-131846009D02*
X169614285Y-131941247D01*
X169614285Y-131941247D02*
X169614285Y-132179342D01*
X169614285Y-132179342D02*
X169652380Y-132274580D01*
X169652380Y-132274580D02*
X169690475Y-132322200D01*
X169690475Y-132322200D02*
X169766666Y-132369819D01*
X169766666Y-132369819D02*
X169957142Y-132369819D01*
X169957142Y-132369819D02*
X170033332Y-132322200D01*
X170033332Y-132322200D02*
X170071428Y-132274580D01*
X169385713Y-131369819D02*
X169119046Y-132369819D01*
X169119046Y-132369819D02*
X168852380Y-131369819D01*
X130652380Y-131369819D02*
X131033332Y-131369819D01*
X131033332Y-131369819D02*
X131071428Y-131846009D01*
X131071428Y-131846009D02*
X131033332Y-131798390D01*
X131033332Y-131798390D02*
X130957142Y-131750771D01*
X130957142Y-131750771D02*
X130766666Y-131750771D01*
X130766666Y-131750771D02*
X130690475Y-131798390D01*
X130690475Y-131798390D02*
X130652380Y-131846009D01*
X130652380Y-131846009D02*
X130614285Y-131941247D01*
X130614285Y-131941247D02*
X130614285Y-132179342D01*
X130614285Y-132179342D02*
X130652380Y-132274580D01*
X130652380Y-132274580D02*
X130690475Y-132322200D01*
X130690475Y-132322200D02*
X130766666Y-132369819D01*
X130766666Y-132369819D02*
X130957142Y-132369819D01*
X130957142Y-132369819D02*
X131033332Y-132322200D01*
X131033332Y-132322200D02*
X131071428Y-132274580D01*
X130385713Y-131369819D02*
X130119046Y-132369819D01*
X130119046Y-132369819D02*
X129852380Y-131369819D01*
X112842857Y-100369819D02*
X112652380Y-100369819D01*
X112652380Y-100369819D02*
X112652380Y-99607914D01*
X112652380Y-99607914D02*
X112347618Y-99607914D01*
X112347618Y-99607914D02*
X112347618Y-100369819D01*
X112347618Y-100369819D02*
X112157142Y-100369819D01*
X111152380Y-104369819D02*
X111533332Y-104369819D01*
X111533332Y-104369819D02*
X111571428Y-104846009D01*
X111571428Y-104846009D02*
X111533332Y-104798390D01*
X111533332Y-104798390D02*
X111457142Y-104750771D01*
X111457142Y-104750771D02*
X111266666Y-104750771D01*
X111266666Y-104750771D02*
X111190475Y-104798390D01*
X111190475Y-104798390D02*
X111152380Y-104846009D01*
X111152380Y-104846009D02*
X111114285Y-104941247D01*
X111114285Y-104941247D02*
X111114285Y-105179342D01*
X111114285Y-105179342D02*
X111152380Y-105274580D01*
X111152380Y-105274580D02*
X111190475Y-105322200D01*
X111190475Y-105322200D02*
X111266666Y-105369819D01*
X111266666Y-105369819D02*
X111457142Y-105369819D01*
X111457142Y-105369819D02*
X111533332Y-105322200D01*
X111533332Y-105322200D02*
X111571428Y-105274580D01*
X110885713Y-104369819D02*
X110619046Y-105369819D01*
X110619046Y-105369819D02*
X110352380Y-104369819D01*
X111380952Y-95298390D02*
X110619047Y-95298390D01*
X111228571Y-95584104D02*
X110771428Y-95584104D01*
X110999999Y-94869819D02*
X110999999Y-95298390D01*
X110923809Y-95869819D02*
X111076190Y-95869819D01*
X191209524Y-103822200D02*
X191095238Y-103869819D01*
X191095238Y-103869819D02*
X190904762Y-103869819D01*
X190904762Y-103869819D02*
X190828571Y-103822200D01*
X190828571Y-103822200D02*
X190790476Y-103774580D01*
X190790476Y-103774580D02*
X190752381Y-103679342D01*
X190752381Y-103679342D02*
X190752381Y-103584104D01*
X190752381Y-103584104D02*
X190790476Y-103488866D01*
X190790476Y-103488866D02*
X190828571Y-103441247D01*
X190828571Y-103441247D02*
X190904762Y-103393628D01*
X190904762Y-103393628D02*
X191057143Y-103346009D01*
X191057143Y-103346009D02*
X191133333Y-103298390D01*
X191133333Y-103298390D02*
X191171428Y-103250771D01*
X191171428Y-103250771D02*
X191209524Y-103155533D01*
X191209524Y-103155533D02*
X191209524Y-103060295D01*
X191209524Y-103060295D02*
X191171428Y-102965057D01*
X191171428Y-102965057D02*
X191133333Y-102917438D01*
X191133333Y-102917438D02*
X191057143Y-102869819D01*
X191057143Y-102869819D02*
X190866666Y-102869819D01*
X190866666Y-102869819D02*
X190752381Y-102917438D01*
X190409523Y-103203152D02*
X190409523Y-104203152D01*
X190409523Y-103250771D02*
X190333333Y-103203152D01*
X190333333Y-103203152D02*
X190180952Y-103203152D01*
X190180952Y-103203152D02*
X190104761Y-103250771D01*
X190104761Y-103250771D02*
X190066666Y-103298390D01*
X190066666Y-103298390D02*
X190028571Y-103393628D01*
X190028571Y-103393628D02*
X190028571Y-103679342D01*
X190028571Y-103679342D02*
X190066666Y-103774580D01*
X190066666Y-103774580D02*
X190104761Y-103822200D01*
X190104761Y-103822200D02*
X190180952Y-103869819D01*
X190180952Y-103869819D02*
X190333333Y-103869819D01*
X190333333Y-103869819D02*
X190409523Y-103822200D01*
X189380951Y-103822200D02*
X189457142Y-103869819D01*
X189457142Y-103869819D02*
X189609523Y-103869819D01*
X189609523Y-103869819D02*
X189685713Y-103822200D01*
X189685713Y-103822200D02*
X189723809Y-103726961D01*
X189723809Y-103726961D02*
X189723809Y-103346009D01*
X189723809Y-103346009D02*
X189685713Y-103250771D01*
X189685713Y-103250771D02*
X189609523Y-103203152D01*
X189609523Y-103203152D02*
X189457142Y-103203152D01*
X189457142Y-103203152D02*
X189380951Y-103250771D01*
X189380951Y-103250771D02*
X189342856Y-103346009D01*
X189342856Y-103346009D02*
X189342856Y-103441247D01*
X189342856Y-103441247D02*
X189723809Y-103536485D01*
X188657142Y-103869819D02*
X188657142Y-103346009D01*
X188657142Y-103346009D02*
X188695237Y-103250771D01*
X188695237Y-103250771D02*
X188771428Y-103203152D01*
X188771428Y-103203152D02*
X188923809Y-103203152D01*
X188923809Y-103203152D02*
X188999999Y-103250771D01*
X188657142Y-103822200D02*
X188733333Y-103869819D01*
X188733333Y-103869819D02*
X188923809Y-103869819D01*
X188923809Y-103869819D02*
X188999999Y-103822200D01*
X188999999Y-103822200D02*
X189038095Y-103726961D01*
X189038095Y-103726961D02*
X189038095Y-103631723D01*
X189038095Y-103631723D02*
X188999999Y-103536485D01*
X188999999Y-103536485D02*
X188923809Y-103488866D01*
X188923809Y-103488866D02*
X188733333Y-103488866D01*
X188733333Y-103488866D02*
X188657142Y-103441247D01*
X188276189Y-103869819D02*
X188276189Y-102869819D01*
X188199999Y-103488866D02*
X187971427Y-103869819D01*
X187971427Y-103203152D02*
X188276189Y-103584104D01*
X187323808Y-103822200D02*
X187399999Y-103869819D01*
X187399999Y-103869819D02*
X187552380Y-103869819D01*
X187552380Y-103869819D02*
X187628570Y-103822200D01*
X187628570Y-103822200D02*
X187666666Y-103726961D01*
X187666666Y-103726961D02*
X187666666Y-103346009D01*
X187666666Y-103346009D02*
X187628570Y-103250771D01*
X187628570Y-103250771D02*
X187552380Y-103203152D01*
X187552380Y-103203152D02*
X187399999Y-103203152D01*
X187399999Y-103203152D02*
X187323808Y-103250771D01*
X187323808Y-103250771D02*
X187285713Y-103346009D01*
X187285713Y-103346009D02*
X187285713Y-103441247D01*
X187285713Y-103441247D02*
X187666666Y-103536485D01*
X186942856Y-103869819D02*
X186942856Y-103203152D01*
X186942856Y-103393628D02*
X186904761Y-103298390D01*
X186904761Y-103298390D02*
X186866666Y-103250771D01*
X186866666Y-103250771D02*
X186790475Y-103203152D01*
X186790475Y-103203152D02*
X186714285Y-103203152D01*
X133342857Y-133869819D02*
X133152380Y-133869819D01*
X133152380Y-133869819D02*
X133152380Y-133107914D01*
X133152380Y-133107914D02*
X132847618Y-133107914D01*
X132847618Y-133107914D02*
X132847618Y-133869819D01*
X132847618Y-133869819D02*
X132657142Y-133869819D01*
M02*
