G04 #@! TF.GenerationSoftware,KiCad,Pcbnew,8.0.5*
G04 #@! TF.CreationDate,2025-10-29T22:00:45-07:00*
G04 #@! TF.ProjectId,UsbSourceMeasure,55736253-6f75-4726-9365-4d6561737572,rev?*
G04 #@! TF.SameCoordinates,PX8f0d180PY5f5e100*
G04 #@! TF.FileFunction,Soldermask,Top*
G04 #@! TF.FilePolarity,Negative*
%FSLAX46Y46*%
G04 Gerber Fmt 4.6, Leading zero omitted, Abs format (unit mm)*
G04 Created by KiCad (PCBNEW 8.0.5) date 2025-10-29 22:00:45*
%MOMM*%
%LPD*%
G01*
G04 APERTURE LIST*
G04 Aperture macros list*
%AMRoundRect*
0 Rectangle with rounded corners*
0 $1 Rounding radius*
0 $2 $3 $4 $5 $6 $7 $8 $9 X,Y pos of 4 corners*
0 Add a 4 corners polygon primitive as box body*
4,1,4,$2,$3,$4,$5,$6,$7,$8,$9,$2,$3,0*
0 Add four circle primitives for the rounded corners*
1,1,$1+$1,$2,$3*
1,1,$1+$1,$4,$5*
1,1,$1+$1,$6,$7*
1,1,$1+$1,$8,$9*
0 Add four rect primitives between the rounded corners*
20,1,$1+$1,$2,$3,$4,$5,0*
20,1,$1+$1,$4,$5,$6,$7,0*
20,1,$1+$1,$6,$7,$8,$9,0*
20,1,$1+$1,$8,$9,$2,$3,0*%
%AMRotRect*
0 Rectangle, with rotation*
0 The origin of the aperture is its center*
0 $1 length*
0 $2 width*
0 $3 Rotation angle, in degrees counterclockwise*
0 Add horizontal line*
21,1,$1,$2,0,0,$3*%
%AMFreePoly0*
4,1,9,2.100000,-2.000000,2.350000,-2.000000,2.350000,-3.500000,-2.350000,-3.500000,-2.350000,-2.000000,-2.100000,-2.000000,-2.100000,1.100000,2.100000,1.100000,2.100000,-2.000000,2.100000,-2.000000,$1*%
%AMFreePoly1*
4,1,128,4.000131,0.000004,4.000132,0.000000,4.000132,-3.982975,4.000131,-3.982979,4.000127,-3.982980,0.000000,-3.982980,-0.000004,-3.982979,-0.000005,-3.982975,-0.000005,-0.858863,0.936157,-0.858863,0.940434,-3.134843,1.588893,-3.134843,1.611883,-3.100845,1.633175,-3.065879,1.652739,-3.030011,1.670551,-2.993306,1.686586,-2.955827,1.700818,-2.917640,1.713220,-2.878808,1.723766,-2.839398,
1.732432,-2.799472,1.739192,-2.759095,1.743745,-2.717395,1.746248,-2.675653,1.746712,-2.633941,1.745148,-2.592331,1.741569,-2.550898,1.735985,-2.509712,1.728408,-2.468846,1.718850,-2.428373,1.707323,-2.388367,1.693838,-2.348899,1.678406,-2.310041,1.661039,-2.271867,1.661039,-2.271866,1.641750,-2.234449,1.641750,-2.234450,1.620549,-2.197861,1.597447,-2.162173,1.597446,-2.162169,
1.597448,-2.162166,1.597452,-2.162165,1.597453,-2.162166,1.629284,-2.179133,1.629285,-2.179133,1.660284,-2.197709,1.690331,-2.217715,1.719304,-2.238974,1.747082,-2.261307,1.773546,-2.284537,1.802314,-2.311059,1.831203,-2.337822,1.861047,-2.362916,1.892678,-2.384431,1.926935,-2.400458,1.926934,-2.400458,1.964649,-2.409088,1.964648,-2.409088,2.003031,-2.409908,2.038540,-2.402782,
2.071524,-2.388774,2.102329,-2.368957,2.131305,-2.344397,2.158799,-2.316167,2.185161,-2.285334,2.210737,-2.252968,2.235876,-2.220138,2.260926,-2.187916,2.287705,-2.155213,2.316440,-2.124163,2.316441,-2.124162,2.347032,-2.094865,2.379374,-2.067422,2.413367,-2.041933,2.413371,-2.041932,2.413374,-2.041934,2.413375,-2.041938,2.413375,-2.041939,2.397989,-2.076913,2.383091,-2.111925,
2.368645,-2.147012,2.354612,-2.182212,2.340954,-2.217562,2.327635,-2.253099,2.314614,-2.288862,2.301936,-2.325857,2.289635,-2.363044,2.277663,-2.400405,2.265971,-2.437919,2.254511,-2.475569,2.243236,-2.513335,2.232095,-2.551198,2.221042,-2.589139,2.210028,-2.627139,2.199005,-2.665178,2.187924,-2.703237,2.176159,-2.742420,2.164289,-2.781507,2.152314,-2.820506,2.140232,-2.859429,
2.128045,-2.898284,2.128045,-2.898285,2.115751,-2.937081,2.103350,-2.975830,2.090843,-3.014539,2.078229,-3.053220,2.065507,-3.091880,2.052680,-3.130524,3.063970,-3.130524,3.063970,-0.856687,2.406959,-0.856687,2.406959,-1.631839,2.406958,-1.631843,2.406954,-1.631844,2.406952,-1.631843,1.998995,-1.432141,1.591036,-1.625386,1.591032,-1.625386,1.591029,-1.625383,1.591029,-0.854548,
0.936157,-0.854548,0.936157,-0.858863,-0.000005,-0.858863,-0.000005,0.000000,-0.000004,0.000004,0.000000,0.000005,4.000127,0.000005,4.000131,0.000004,4.000131,0.000004,$1*%
%AMFreePoly2*
4,1,61,0.036027,-0.003545,0.036028,-0.003545,0.070671,-0.014057,0.070672,-0.014058,0.102597,-0.031126,0.102598,-0.031126,0.130581,-0.054095,0.130582,-0.054096,0.153544,-0.082083,0.153544,-0.082084,0.170605,-0.114014,0.170606,-0.114015,0.181110,-0.148660,0.181110,-0.148661,0.184652,-0.184689,0.181103,-0.220711,0.181103,-0.220712,0.170594,-0.255350,0.170593,-0.255351,0.153530,-0.287273,
0.153530,-0.287274,0.130567,-0.315255,0.130566,-0.315256,0.102585,-0.338219,0.102584,-0.338219,0.070662,-0.355282,0.070661,-0.355283,0.036023,-0.365792,0.036022,-0.365792,0.000000,-0.369341,-0.036028,-0.365799,-0.036029,-0.365799,-0.070674,-0.355295,-0.070675,-0.355294,-0.102605,-0.338233,-0.102606,-0.338233,-0.130593,-0.315270,-0.130594,-0.315269,-0.153563,-0.287287,-0.153563,-0.287286,
-0.170631,-0.255361,-0.170632,-0.255360,-0.181144,-0.220717,-0.181144,-0.220716,-0.184694,-0.184689,-0.181151,-0.148656,-0.181151,-0.148655,-0.170644,-0.114005,-0.170643,-0.114004,-0.153578,-0.082071,-0.153578,-0.082070,-0.130609,-0.054081,-0.130608,-0.054080,-0.102619,-0.031111,-0.102618,-0.031111,-0.070685,-0.014046,-0.070684,-0.014045,-0.036034,-0.003538,-0.036033,-0.003538,0.000000,0.000005,
0.036027,-0.003545,0.036027,-0.003545,$1*%
%AMFreePoly3*
4,1,672,0.539101,1.999822,0.607558,1.997641,0.674360,1.987085,0.738750,1.966967,0.799970,1.936100,0.857261,1.893296,0.909867,1.837368,0.947295,1.779784,0.972828,1.717646,0.987031,1.652537,0.990468,1.586037,0.983704,1.519730,0.967304,1.455197,0.941833,1.394021,0.907855,1.337782,0.865936,1.288063,0.816639,1.246447,0.762246,1.208846,0.702445,1.170308,0.663309,1.148315,
0.638782,1.134532,0.572800,1.105214,0.500333,1.076862,0.428842,1.046260,0.403892,1.034646,0.358375,1.013458,0.288979,0.978504,0.220702,0.941447,0.157827,0.904805,0.153590,0.902336,0.087693,0.861220,0.023055,0.818147,-0.040273,0.773167,-0.062408,0.756437,-0.102246,0.726327,-0.162816,0.677678,-0.221936,0.627268,-0.271754,0.582204,-0.279557,0.575145,-0.335634,0.521359,
-0.390117,0.465958,-0.442960,0.408991,-0.461786,0.387468,-0.494116,0.350508,-0.543537,0.290556,-0.591175,0.229185,-0.630280,0.175624,-0.636983,0.166443,-0.680914,0.102380,-0.722920,0.037044,-0.762955,-0.029516,-0.775487,-0.051847,-0.800969,-0.097251,-0.836917,-0.166112,-0.870750,-0.236051,-0.897487,-0.295959,-0.902422,-0.307018,-0.931884,-0.378965,-0.946361,-0.417472,-0.963538,-0.465849,
-0.980395,-0.518348,-0.993907,-0.569222,-0.997391,-0.590437,-1.001051,-0.612725,-0.998806,-0.643109,-0.984147,-0.654629,-0.954052,-0.641537,-0.905498,-0.598087,-0.848121,-0.530761,-0.788262,-0.466464,-0.726190,-0.405350,-0.662178,-0.347576,-0.596498,-0.293296,-0.529420,-0.242667,-0.461216,-0.195844,-0.392157,-0.152983,-0.322515,-0.114239,-0.252562,-0.079768,-0.182569,-0.049726,-0.112807,-0.024268,
-0.043548,-0.003550,0.024937,0.012273,0.092376,0.023046,0.158498,0.028611,0.223032,0.028815,0.285705,0.023500,0.346246,0.012513,0.404385,-0.004304,0.408357,-0.005496,0.368444,0.054794,0.334086,0.119384,0.304953,0.188773,0.280715,0.263459,0.228172,0.327517,0.181038,0.395393,0.141332,0.465874,0.111074,0.537750,0.092286,0.609808,0.086988,0.680838,0.094342,0.730381,
0.189144,0.730381,0.250139,0.698352,0.308373,0.652761,0.358574,0.598830,0.395470,0.541779,0.350337,0.497117,0.329829,0.445952,0.321278,0.383330,0.312018,0.304298,0.281548,0.338867,0.248832,0.377656,0.282139,0.332819,0.318217,0.289832,0.323224,0.280692,0.347778,0.201607,0.376724,0.128835,0.411641,0.062312,0.454109,0.001974,0.505706,-0.052242,0.542835,-0.085665,
0.584787,-0.112805,0.619671,-0.131536,0.650185,-0.154342,0.676663,-0.180615,0.699436,-0.209746,0.718839,-0.241128,0.735205,-0.274152,0.748865,-0.308211,0.760154,-0.342697,0.769405,-0.377003,0.776950,-0.410519,0.783122,-0.442639,0.788255,-0.472754,0.792681,-0.500257,0.796734,-0.524539,0.800746,-0.544993,0.805051,-0.561011,0.809982,-0.571985,0.815871,-0.577307,0.823052,-0.576369,
0.831857,-0.568563,0.842620,-0.553282,0.855674,-0.529917,0.871352,-0.497861,0.889986,-0.456505,0.911910,-0.405242,0.937457,-0.343465,0.966960,-0.270564,1.000752,-0.185932,1.039165,-0.088961,1.041151,-0.086178,1.045284,-0.079184,1.089694,-0.027221,1.129538,0.023621,1.164260,0.076409,1.193304,0.134212,1.216116,0.200098,1.232138,0.277133,1.240817,0.368387,1.241595,0.476926,
1.245250,0.490120,1.260567,0.523843,1.276087,0.576751,1.282128,0.604489,1.262599,0.545794,1.241752,0.500849,1.212676,0.553102,1.181745,0.613607,1.136270,0.669772,1.063562,0.709003,1.082841,0.745254,1.121490,0.806984,1.175186,0.876272,1.239599,0.935191,1.168720,0.914744,1.093846,0.875983,1.030010,0.829953,0.979282,0.783640,0.949434,0.746513,0.935048,0.735784,
0.953408,0.730697,0.994801,0.710555,0.987773,0.692825,0.950583,0.677886,0.901489,0.666116,0.858749,0.657895,0.812120,0.654325,0.755893,0.651701,0.690015,0.638484,0.614433,0.603134,0.559986,0.574983,0.506106,0.556576,0.462431,0.550422,0.438600,0.559028,0.444249,0.584903,0.489016,0.630554,0.467398,0.633020,0.384470,0.682968,0.310504,0.713445,0.245422,0.728050,
0.189144,0.730381,0.094342,0.730381,0.097199,0.749627,0.113174,0.765762,0.167587,0.775563,0.232265,0.775198,0.306495,0.761173,0.389564,0.729997,0.480762,0.678176,0.571969,0.732862,0.650122,0.767051,0.719636,0.784889,0.784928,0.790520,0.850416,0.788088,0.920515,0.781737,0.957270,0.825789,1.007863,0.871142,1.069537,0.914784,1.130204,0.949026,1.192633,0.974340,
1.254325,0.986076,1.295256,0.983772,1.310436,0.973758,1.333537,0.921076,1.345122,0.856568,1.347650,0.784410,1.343579,0.708777,1.334498,0.634237,1.321086,0.565796,1.305880,0.514405,1.287626,0.474396,1.286828,0.375931,1.279356,0.290126,1.265743,0.215225,1.246526,0.149470,1.222240,0.091107,1.193420,0.038378,1.160603,-0.010474,1.124322,-0.057205,1.085115,-0.103571,
1.083446,-0.177576,1.076010,-0.250378,1.062782,-0.322162,1.043740,-0.393113,1.018860,-0.463416,0.988118,-0.533256,0.951492,-0.602817,0.908956,-0.672286,0.860489,-0.741846,0.815871,-0.799101,0.806065,-0.811683,0.745663,-0.881982,0.756472,-0.947711,0.770287,-1.014301,0.785641,-1.068836,0.813632,-1.145055,0.840752,-1.216629,0.867101,-1.284661,0.892779,-1.350253,0.917886,-1.414509,
0.942522,-1.478530,0.966788,-1.543419,0.995910,-1.566312,1.044757,-1.588007,1.114539,-1.620275,1.149271,-1.660650,1.170141,-1.713305,1.189088,-1.780579,1.204985,-1.857120,1.204578,-1.935837,1.164771,-1.974521,1.134344,-1.992754,1.123577,-1.993491,1.110603,-1.994380,1.090852,-1.983243,1.072396,-1.963189,1.052539,-1.938060,1.028587,-1.911701,0.997845,-1.887956,0.957616,-1.870669,
0.905207,-1.863685,0.837921,-1.870847,0.790739,-1.821326,0.738478,-1.767941,0.689627,-1.721032,0.652676,-1.690938,0.610474,-1.656847,0.672466,-1.656847,0.717101,-1.686805,0.762452,-1.726934,0.808431,-1.773687,0.854948,-1.823514,0.937657,-1.826875,0.998358,-1.840582,1.041037,-1.861171,1.069678,-1.885180,1.088267,-1.909143,1.100790,-1.929596,1.111231,-1.943078,1.123577,-1.946122,
1.141811,-1.935266,1.169921,-1.907045,1.162370,-1.847119,1.147207,-1.778334,1.130000,-1.719125,1.112538,-1.675128,1.091078,-1.649774,1.028688,-1.621321,0.974150,-1.596768,0.935857,-1.566322,0.902902,-1.617607,0.856084,-1.648684,0.783305,-1.661212,0.672466,-1.656847,0.610474,-1.656847,0.599741,-1.648177,0.550497,-1.593563,0.504178,-1.530891,0.460018,-1.463956,0.417254,-1.396551,
0.375121,-1.332472,0.356046,-1.304973,0.311220,-1.351308,0.270587,-1.389044,0.217366,-1.432260,0.156358,-1.477409,0.092364,-1.520940,0.030185,-1.559303,-0.022276,-1.593506,-0.038723,-1.613269,-0.005080,-1.629350,0.069129,-1.652214,0.143252,-1.670774,0.186679,-1.674061,0.233570,-1.664692,0.314460,-1.649623,0.393123,-1.643189,0.453327,-1.646650,0.513146,-1.679772,0.569286,-1.742263,
0.578539,-1.788453,0.555219,-1.822854,0.479669,-1.832427,0.404325,-1.842175,0.329128,-1.851650,0.254019,-1.860408,0.178940,-1.868002,0.103831,-1.873987,0.066982,-1.875911,0.028633,-1.877915,-0.046712,-1.879341,-0.122263,-1.877819,-0.198080,-1.872903,-0.274221,-1.864147,-0.349911,-1.869629,-0.424301,-1.874062,-0.497422,-1.876816,-0.569307,-1.877257,-0.639986,-1.874753,-0.709492,-1.868674,
-0.777858,-1.858385,-0.845114,-1.843257,-0.849367,-1.841933,0.066982,-1.841933,0.537017,-1.783914,0.538844,-1.779542,0.535031,-1.760547,0.486708,-1.706979,0.444028,-1.681943,0.397454,-1.679798,0.397453,-1.679799,0.328307,-1.684647,0.328307,-1.684566,0.283465,-1.690808,0.240802,-1.699587,0.181923,-1.713413,0.151341,-1.720237,0.140215,-1.724128,0.139704,-1.729153,0.140966,-1.739378,
0.135160,-1.758871,0.113446,-1.791701,0.066982,-1.841933,-0.849367,-1.841933,-0.911294,-1.822656,-0.976429,-1.795950,-1.040551,-1.762507,-1.103692,-1.721696,-1.165885,-1.672884,-1.212348,-1.618354,-1.252161,-1.557398,-1.285243,-1.490137,-1.311512,-1.416691,-1.330885,-1.337181,-1.343281,-1.251728,-1.347564,-1.177441,-1.348448,-1.100429,-1.346083,-1.021242,-1.340618,-0.940434,-1.332202,-0.858555,
-1.320985,-0.776158,-1.307116,-0.693795,-1.290746,-0.612017,-1.272023,-0.531377,-1.251097,-0.452427,-1.233093,-0.392328,-1.206022,-0.392328,-1.190921,-0.397097,-1.131191,-0.417022,-1.071645,-0.439421,-1.011776,-0.464812,-0.997391,-0.471329,-0.991351,-0.456785,-0.973468,-0.414926,-0.955665,-0.370710,-0.950499,-0.357119,-0.963772,-0.351238,-1.023700,-0.325892,-1.085894,-0.302167,-1.149513,-0.280502,
-1.158414,-0.277641,-1.165013,-0.284238,-1.167474,-0.286623,-1.168667,-0.289642,-1.185134,-0.333344,-1.200856,-0.377386,-1.206022,-0.392328,-1.233093,-0.392328,-1.228117,-0.375718,-1.201868,-0.302651,-1.173540,-0.230383,-1.143174,-0.158956,-1.130459,-0.131242,-1.101825,-0.131242,-1.087281,-0.137600,-1.028718,-0.164327,-0.970553,-0.193585,-0.911952,-0.225663,-0.897487,-0.233928,-0.890413,-0.218827,
-0.870811,-0.177318,-0.850595,-0.136408,-0.843839,-0.123294,-0.856714,-0.115982,-0.913735,-0.084696,-0.973001,-0.054224,-1.034189,-0.025536,-1.047463,-0.019655,-1.054059,-0.032609,-1.074941,-0.074637,-1.095070,-0.116936,-1.101825,-0.131242,-1.130459,-0.131242,-1.110809,-0.088412,-1.076483,-0.018796,-1.040237,0.049852,-1.004776,0.112756,-0.974183,0.112756,-0.958765,0.105603,-0.901341,0.076836,
-0.844946,0.044516,-0.788999,0.008401,-0.775487,-0.000739,-0.767142,0.013250,-0.743414,0.052895,-0.719217,0.091774,-0.710951,0.104411,-0.723509,0.112836,-0.778131,0.148142,-0.836070,0.182053,-0.896454,0.213138,-0.908693,0.218940,-0.916005,0.207495,-0.941062,0.167633,-0.965441,0.127381,-0.974183,0.112756,-1.004776,0.112756,-1.002109,0.117487,-0.962140,0.184068,-0.920369,0.249551,
-0.876834,0.313894,-0.851589,0.349125,-0.819439,0.349125,-0.804974,0.340382,-0.750711,0.306107,-0.696836,0.268967,-0.642679,0.229033,-0.630280,0.219655,-0.621061,0.232133,-0.593328,0.268939,-0.565029,0.305174,-0.555253,0.317493,-0.567652,0.327030,-0.619609,0.365670,-0.674924,0.404138,-0.732490,0.440764,-0.744094,0.447758,-0.752518,0.437107,-0.781263,0.400157,-0.809425,0.362716,
-0.819439,0.349125,-0.851589,0.349125,-0.831576,0.377054,-0.784634,0.438987,-0.736047,0.499653,-0.685855,0.559007,-0.674985,0.571188,-0.639897,0.571188,-0.625909,0.561173,-0.574343,0.522672,-0.523735,0.481675,-0.473152,0.437426,-0.461786,0.427093,-0.451454,0.438459,-0.420100,0.471995,-0.388031,0.505141,-0.376903,0.516507,-0.388666,0.527236,-0.437989,0.570687,-0.490177,0.613448,
-0.544444,0.654322,-0.555253,0.662111,-0.564473,0.652494,-0.596716,0.618480,-0.628373,0.583984,-0.639897,0.571188,-0.674985,0.571188,-0.634097,0.617007,-0.580813,0.673610,-0.526041,0.728773,-0.481240,0.771552,-0.442791,0.771552,-0.428406,0.760346,-0.378284,0.719168,-0.329697,0.675354,-0.282086,0.628730,-0.271754,0.618239,-0.260865,0.628094,-0.226316,0.658016,-0.190924,0.687623,
-0.178128,0.698273,-0.189811,0.710116,-0.236743,0.756540,-0.286368,0.802378,-0.338436,0.846660,-0.348371,0.854767,-0.358067,0.846421,-0.393922,0.815408,-0.429280,0.783792,-0.442791,0.771552,-0.481240,0.771552,-0.469822,0.782455,-0.412195,0.834611,-0.353199,0.885199,-0.292874,0.934177,-0.264950,0.955624,-0.222239,0.955624,-0.208966,0.943067,-0.163067,0.897795,-0.117585,0.850019,
-0.071707,0.799767,-0.062408,0.789435,-0.051201,0.797621,-0.013563,0.824218,0.024780,0.850316,0.039324,0.860171,0.027721,0.873285,-0.016237,0.921930,-0.062630,0.971223,-0.111049,1.019922,-0.120109,1.028745,-0.130521,1.021512,-0.169226,0.994357,-0.207535,0.966513,-0.222239,0.955624,-0.264950,0.955624,-0.231259,0.981501,-0.168393,1.027130,-0.104316,1.071019,-0.041495,1.111561,
0.008408,1.111561,0.021760,1.097573,0.065671,1.049643,0.108075,0.999192,0.149561,0.945769,0.157827,0.934801,0.169669,0.941715,0.209867,0.964619,0.250578,0.986859,0.266156,0.995205,0.255665,1.009511,0.215784,1.061849,0.172640,1.114719,0.126830,1.166322,0.118644,1.175064,0.108153,1.169342,0.066345,1.145725,0.025018,1.121416,0.008408,1.111561,-0.041495,1.111561,
-0.039068,1.113127,0.027313,1.153410,0.094786,1.191827,0.163313,1.228334,0.198303,1.245720,0.258049,1.245720,0.272117,1.230699,0.316509,1.180743,0.358391,1.128010,0.396739,1.073729,0.403892,1.062841,0.415814,1.068166,0.458510,1.087186,0.501253,1.105282,0.518500,1.112197,0.508485,1.127774,0.470389,1.183780,0.428851,1.238214,0.384499,1.290387,0.377505,1.298255,
0.367649,1.294520,0.320718,1.275681,0.276329,1.255019,0.258049,1.245720,0.198303,1.245720,0.232854,1.262888,0.293742,1.290200,0.357548,1.315170,0.422661,1.340339,0.459112,1.356037,0.523109,1.356037,0.536462,1.341094,0.580772,1.288958,0.620883,1.236456,0.655600,1.185317,0.663309,1.173156,0.675946,1.180071,0.718232,1.204903,0.758763,1.232925,0.770049,1.241508,
0.762419,1.253430,0.725662,1.306841,0.684391,1.359600,0.639625,1.411353,0.630167,1.421844,0.618881,1.413261,0.580894,1.387379,0.540913,1.365097,0.523109,1.356037,0.459112,1.356037,0.487468,1.368249,0.550359,1.401443,0.609722,1.442463,0.663945,1.493852,0.686429,1.535811,0.692671,1.589111,0.676185,1.640728,0.625980,1.693086,0.551642,1.710113,0.493154,1.700896,
0.437645,1.685006,0.383992,1.675418,0.331071,1.685105,0.277760,1.727041,0.247097,1.786282,0.250814,1.844256,0.280839,1.896894,0.329103,1.940123,0.392626,1.973563,0.462266,1.992742,0.539005,1.999890,0.539101,1.999822,0.539101,1.999822,$1*%
%AMFreePoly4*
4,1,754,0.029440,-0.000717,0.058810,-0.002883,0.058811,-0.002883,0.088039,-0.006486,0.117055,-0.011519,0.145788,-0.017968,0.174171,-0.025819,0.174172,-0.025819,0.202135,-0.035052,0.229611,-0.045645,0.256534,-0.057574,0.256534,-0.057575,0.282839,-0.070809,0.308462,-0.085317,0.308463,-0.085317,0.333343,-0.101065,0.357421,-0.118014,0.380637,-0.136123,0.402936,-0.155349,0.424265,-0.175646,
0.424266,-0.175647,0.444572,-0.196965,0.463808,-0.219253,0.481926,-0.242458,0.498883,-0.266524,0.514639,-0.291392,0.514639,-0.291393,0.529154,-0.317004,0.542395,-0.343296,0.542396,-0.343296,0.554330,-0.370206,0.564929,-0.397668,0.574167,-0.425618,0.574167,-0.425619,0.582021,-0.453987,0.588474,-0.482707,0.593509,-0.511708,0.597114,-0.540922,0.597114,-0.540923,0.599280,-0.570278,
0.600003,-0.599704,0.598396,-0.643016,0.598396,-0.643017,0.593668,-0.686061,0.593792,-0.685753,0.593795,-0.685750,0.593799,-0.685750,0.593801,-0.685753,0.607866,-0.710266,0.607867,-0.710266,0.622961,-0.734161,0.639055,-0.757396,0.656120,-0.779927,0.674125,-0.801715,0.693038,-0.822719,0.693039,-0.822719,0.712826,-0.842904,0.712825,-0.842904,0.733452,-0.862232,0.754879,-0.880669,
0.777069,-0.898181,0.799983,-0.914737,0.823577,-0.930307,0.847812,-0.944863,0.847811,-0.944863,0.872641,-0.958378,0.898020,-0.970829,0.898021,-0.970829,0.923908,-0.982193,0.923911,-0.982196,0.923911,-0.982200,0.923908,-0.982203,0.923907,-0.982203,0.896618,-0.989595,0.869040,-0.995825,0.841223,-1.000879,0.813216,-1.004751,0.813215,-1.004751,0.785069,-1.007431,0.756835,-1.008917,
0.728563,-1.009205,0.700304,-1.008294,0.672110,-1.006187,0.672109,-1.006187,0.644029,-1.002887,0.616114,-0.998399,0.588415,-0.992733,0.560981,-0.985898,0.533862,-0.977906,0.533861,-0.977906,0.507105,-0.968772,0.480761,-0.958513,0.480758,-0.958510,0.480758,-0.958506,0.481363,-0.957024,0.462548,-0.981125,0.442502,-1.004262,0.421302,-1.026347,0.421301,-1.026348,0.399000,-1.047323,
0.375658,-1.067134,0.351335,-1.085728,0.326094,-1.103058,0.318377,-1.107795,0.318377,-1.107796,0.318376,-1.107796,0.300002,-1.119078,0.299999,-1.119079,0.299515,-1.119048,0.324997,-1.142825,0.324998,-1.142825,0.349704,-1.167409,0.349704,-1.167410,0.373603,-1.192774,0.396677,-1.218896,0.418907,-1.245757,0.440275,-1.273334,0.460764,-1.301605,0.480358,-1.330547,0.499040,-1.360138,
0.516797,-1.390354,0.516797,-1.390355,0.533613,-1.421172,0.549475,-1.452564,0.549476,-1.452564,0.564372,-1.484506,0.578289,-1.516974,0.591217,-1.549941,0.603145,-1.583380,0.614063,-1.617266,0.614063,-1.617267,0.623963,-1.651571,0.632837,-1.686266,0.640677,-1.721324,0.647478,-1.756718,0.653234,-1.792418,0.657941,-1.828397,0.661594,-1.864626,0.661594,-1.864627,0.664190,-1.901076,
0.665728,-1.937716,0.666207,-1.974517,0.665625,-2.011452,0.663984,-2.048489,0.661285,-2.085599,0.661285,-2.085600,0.657529,-2.122753,0.652721,-2.159921,0.646863,-2.197071,0.639961,-2.234176,0.632019,-2.271206,0.623045,-2.308129,0.613046,-2.344918,0.602029,-2.381543,0.602029,-2.381544,0.590003,-2.417974,0.576979,-2.454182,0.562966,-2.490138,0.547976,-2.525812,0.532020,-2.561178,
0.515112,-2.596205,0.515111,-2.596205,0.497264,-2.630867,0.478492,-2.665135,0.478492,-2.665136,0.458811,-2.698984,0.438236,-2.732383,0.416783,-2.765307,0.394470,-2.797729,0.371315,-2.829625,0.347337,-2.860967,0.322554,-2.891732,0.296986,-2.921894,0.270654,-2.951429,0.243579,-2.980314,0.243579,-2.980315,0.215782,-3.008526,0.215781,-3.008526,0.187286,-3.036040,0.158114,-3.062837,
0.128289,-3.088893,0.097835,-3.114190,0.066777,-3.138705,0.035139,-3.162419,0.003065,-3.185229,0.006783,-3.191718,0.006784,-3.191718,0.009651,-3.199063,0.009651,-3.199064,0.114415,-3.544087,0.139714,-3.533658,0.165294,-3.523923,0.191131,-3.514891,0.217206,-3.506569,0.217207,-3.506569,0.243500,-3.498963,0.269991,-3.492080,0.296661,-3.485923,0.323489,-3.480499,0.350456,-3.475811,
0.377541,-3.471862,0.404725,-3.468656,0.404726,-3.468656,0.431986,-3.466194,0.459304,-3.464479,0.486659,-3.463512,0.514030,-3.463294,0.541397,-3.463824,0.541401,-3.463826,0.541402,-3.463829,0.541400,-3.463833,0.541399,-3.463834,0.494284,-3.483372,0.474774,-3.530476,0.494284,-3.577580,0.541399,-3.597118,0.541402,-3.597121,0.541402,-3.597125,0.541399,-3.597128,0.493785,-3.616381,
0.473999,-3.663753,0.493785,-3.711125,0.541399,-3.730378,0.541402,-3.730381,0.541402,-3.730385,0.541399,-3.730388,0.541397,-3.730388,0.513052,-3.730933,0.484703,-3.730675,0.456373,-3.729614,0.428085,-3.727750,0.399860,-3.725085,0.399859,-3.725085,0.371722,-3.721622,0.343694,-3.717363,0.315798,-3.712312,0.288056,-3.706472,0.260492,-3.699849,0.233126,-3.692447,0.205981,-3.684273,
0.205980,-3.684273,0.179078,-3.675333,0.152441,-3.665635,0.126089,-3.655185,0.100046,-3.643993,0.095258,-3.646286,0.090264,-3.648091,0.090262,-3.648091,0.049614,-3.644110,0.049610,-3.644108,0.023698,-3.612553,0.023697,-3.612551,0.021217,-3.604391,0.014626,-3.600785,0.008060,-3.597127,0.008057,-3.597124,0.008058,-3.597121,0.008060,-3.597119,0.012738,-3.594507,0.017426,-3.591922,
-0.088345,-3.243603,-0.088346,-3.243604,-0.135148,-3.270351,-0.182738,-3.295393,-0.182738,-3.295394,-0.231042,-3.318693,-0.279988,-3.340214,-0.329502,-3.359924,-0.379510,-3.377793,-0.429936,-3.393795,-0.429937,-3.393795,-0.480704,-3.407906,-0.480707,-3.407905,-0.480709,-3.407904,-0.480963,-3.407547,-0.480207,-3.415243,-0.446066,-3.761711,-0.421205,-3.751719,-0.396077,-3.742395,-0.370709,-3.733747,
-0.370708,-3.733747,-0.345117,-3.725782,-0.319321,-3.718505,-0.293340,-3.711922,-0.267191,-3.706037,-0.240894,-3.700855,-0.214467,-3.696379,-0.187930,-3.692612,-0.161302,-3.689558,-0.161301,-3.689558,-0.134600,-3.687218,-0.107846,-3.685594,-0.081058,-3.684688,-0.054255,-3.684499,-0.027457,-3.685029,-0.027453,-3.685031,-0.027452,-3.685034,-0.027454,-3.685038,-0.027455,-3.685039,-0.075068,-3.704291,
-0.094854,-3.751664,-0.075068,-3.799036,-0.027455,-3.818289,-0.027452,-3.818292,-0.027452,-3.818296,-0.027455,-3.818299,-0.074116,-3.838071,-0.093382,-3.884923,-0.074116,-3.931775,-0.027455,-3.951549,-0.027452,-3.951552,-0.027452,-3.951556,-0.027455,-3.951559,-0.027457,-3.951559,-0.055804,-3.952105,-0.084155,-3.951847,-0.112488,-3.950786,-0.140778,-3.948923,-0.169005,-3.946259,-0.169006,-3.946259,
-0.197146,-3.942796,-0.225176,-3.938537,-0.253074,-3.933486,-0.280818,-3.927646,-0.308384,-3.921023,-0.335752,-3.913621,-0.362899,-3.905446,-0.362900,-3.905446,-0.389804,-3.896506,-0.416444,-3.886806,-0.442798,-3.876356,-0.468843,-3.865164,-0.478579,-3.869226,-0.478580,-3.869226,-0.488927,-3.871293,-0.488929,-3.871293,-0.526875,-3.860221,-0.526878,-3.860219,-0.546775,-3.826079,-0.546774,-3.826078,
-0.553799,-3.822217,-0.560795,-3.818298,-0.560798,-3.818295,-0.560797,-3.818292,-0.560795,-3.818290,-0.554640,-3.814842,-0.548464,-3.811438,-0.585976,-3.430657,-0.615531,-3.435636,-0.645370,-3.439999,-0.675216,-3.443700,-0.705052,-3.446737,-0.705053,-3.446737,-0.734865,-3.449108,-0.764637,-3.450813,-0.794355,-3.451850,-0.824003,-3.452219,-0.853567,-3.451919,-0.883030,-3.450951,-0.912378,-3.449316,
-0.941131,-3.447050,-0.941597,-3.447014,-0.941598,-3.447014,-0.970672,-3.444046,-0.999586,-3.440413,-1.028326,-3.436119,-1.056877,-3.431164,-1.085225,-3.425551,-1.113355,-3.419284,-1.141253,-3.412365,-1.168905,-3.404799,-1.196296,-3.396587,-1.196297,-3.396587,-1.223413,-3.387736,-1.250242,-3.378250,-1.276768,-3.368132,-1.302980,-3.357389,-1.328862,-3.346026,-1.354403,-3.334049,-1.354403,-3.334048,
-1.379589,-3.321462,-1.404407,-3.308275,-1.428845,-3.294493,-1.428846,-3.294493,-1.452891,-3.280122,-1.476529,-3.265172,-1.477017,-3.265081,-1.477020,-3.265079,-1.477021,-3.265075,-1.477020,-3.265073,-1.446544,-3.224475,-1.417637,-3.182747,-1.390340,-3.139949,-1.364694,-3.096143,-1.364693,-3.096143,-1.340735,-3.051394,-1.318498,-3.005764,-1.318499,-3.005764,-1.298017,-2.959321,-1.279319,-2.912132,
-1.262432,-2.864266,-1.247381,-2.815793,-1.246537,-2.812658,-1.035179,-2.812658,-1.033529,-2.862646,-1.030089,-2.912769,-1.024842,-2.962983,-1.015738,-2.991432,-0.996825,-3.014556,-0.970745,-3.029130,-0.941130,-3.033121,-0.890666,-3.029564,-0.890667,-3.029564,-0.840655,-3.024246,-0.791131,-3.017197,-0.742127,-3.008447,-0.693679,-2.998023,-0.645821,-2.985953,-0.598586,-2.972267,-0.598587,-2.972267,
-0.552011,-2.956992,-0.506126,-2.940157,-0.460968,-2.921791,-0.416570,-2.901922,-0.416569,-2.901922,-0.372967,-2.880580,-0.330192,-2.857790,-0.330193,-2.857790,-0.288281,-2.833583,-0.247267,-2.807986,-0.207183,-2.781029,-0.168065,-2.752739,-0.129947,-2.723145,-0.092862,-2.692276,-0.056844,-2.660160,-0.021929,-2.626825,0.011849,-2.592302,0.044458,-2.556615,0.075862,-2.519796,0.106028,-2.481872,
0.134921,-2.442871,0.162507,-2.402822,0.188752,-2.361755,0.213622,-2.319696,0.237083,-2.276675,0.259099,-2.232720,0.279638,-2.187859,0.298665,-2.142121,0.316147,-2.095534,0.332048,-2.048127,0.346335,-1.999929,0.358974,-1.950966,0.360186,-1.919775,0.349355,-1.890494,0.349355,-1.890493,0.328135,-1.867593,0.299756,-1.854557,0.299756,-1.854556,0.268578,-1.853380,0.239320,-1.864214,
0.216436,-1.885409,0.203403,-1.913746,0.190602,-1.962852,0.175932,-2.011058,0.175932,-2.011059,0.159440,-2.058331,0.141167,-2.104634,0.121159,-2.149932,0.121158,-2.149932,0.099458,-2.194193,0.076110,-2.237380,0.076110,-2.237381,0.051158,-2.279460,0.024646,-2.320397,-0.003382,-2.360157,-0.032882,-2.398706,-0.063811,-2.436009,-0.096124,-2.472031,-0.129778,-2.506737,-0.129779,-2.506738,
-0.164729,-2.540095,-0.200932,-2.572068,-0.238344,-2.602621,-0.276920,-2.631721,-0.316618,-2.659332,-0.357393,-2.685421,-0.399201,-2.709952,-0.399202,-2.709952,-0.441999,-2.732891,-0.485741,-2.754204,-0.485741,-2.754205,-0.530385,-2.773856,-0.575886,-2.791811,-0.622201,-2.808036,-0.622202,-2.808036,-0.669286,-2.822497,-0.717096,-2.835157,-0.765588,-2.845983,-0.814718,-2.854941,-0.864442,-2.861995,
-0.864446,-2.861994,-0.864448,-2.861991,-0.864448,-2.861990,-0.866313,-2.810556,-0.866142,-2.759330,-0.863956,-2.708369,-0.859776,-2.657728,-0.859776,-2.657727,-0.853620,-2.607465,-0.845511,-2.557638,-0.835467,-2.508304,-0.823509,-2.459519,-0.809658,-2.411340,-0.809658,-2.411339,-0.793932,-2.363823,-0.776354,-2.317028,-0.756943,-2.271009,-0.735719,-2.225825,-0.735718,-2.225825,-0.712701,-2.181532,
-0.687911,-2.138187,-0.687911,-2.138186,-0.661370,-2.095846,-0.633097,-2.054569,-0.603111,-2.014410,-0.571435,-1.975427,-0.538087,-1.937677,-0.503088,-1.901217,-0.503087,-1.901216,-0.466457,-1.866103,-0.428216,-1.832395,-0.388385,-1.800146,-0.346984,-1.769416,-0.304033,-1.740261,-0.281666,-1.718500,-0.269335,-1.689840,-0.268914,-1.658647,-0.280470,-1.629665,-0.280469,-1.629664,-0.302271,-1.607324,
-0.330972,-1.595027,-0.330971,-1.595026,-0.337858,-1.593864,-0.337857,-1.593863,-0.344820,-1.593305,-0.348300,-1.593264,-0.351778,-1.593373,-0.351778,-1.593374,-0.372284,-1.597142,-0.372284,-1.597143,-0.391120,-1.606080,-0.433000,-1.634308,-0.473649,-1.663862,-0.513046,-1.694699,-0.551172,-1.726779,-0.588009,-1.760062,-0.623536,-1.794505,-0.657733,-1.830066,-0.690584,-1.866708,-0.722069,-1.904387,
-0.752167,-1.943062,-0.780860,-1.982694,-0.808129,-2.023239,-0.833954,-2.064658,-0.833954,-2.064657,-0.858316,-2.106909,-0.881197,-2.149952,-0.902575,-2.193744,-0.902575,-2.193745,-0.922434,-2.238247,-0.940754,-2.283418,-0.957515,-2.329216,-0.972698,-2.375600,-0.986285,-2.422528,-0.998254,-2.469961,-1.008589,-2.517857,-1.017269,-2.566176,-1.024275,-2.614875,-1.029589,-2.663914,-1.033190,-2.713250,
-1.035060,-2.762846,-1.035179,-2.812658,-1.246537,-2.812658,-1.234188,-2.766782,-1.222871,-2.717303,-1.213448,-2.667430,-1.205931,-2.617234,-1.200332,-2.566789,-1.196659,-2.516168,-1.194195,-2.479538,-1.190722,-2.442990,-1.190722,-2.442989,-1.186243,-2.406550,-1.180762,-2.370248,-1.174282,-2.334111,-1.166809,-2.298166,-1.158349,-2.262440,-1.148907,-2.226961,-1.138490,-2.191755,-1.138490,-2.191754,
-1.127108,-2.156849,-1.114767,-2.122270,-1.101479,-2.088044,-1.087252,-2.054196,-1.072098,-2.020754,-1.072097,-2.020754,-1.056027,-1.987741,-1.039053,-1.955183,-1.021189,-1.923105,-1.021189,-1.923104,-1.002447,-1.891530,-0.982842,-1.860484,-0.962389,-1.829989,-0.941103,-1.800069,-0.919001,-1.770747,-0.896099,-1.742044,-0.872415,-1.713983,-0.847967,-1.686584,-0.822772,-1.659869,-0.822772,-1.659868,
-0.796851,-1.633856,-0.796850,-1.633856,-0.770222,-1.608568,-0.742907,-1.584023,-0.714926,-1.560239,-0.686300,-1.537235,-0.657052,-1.515027,-0.630307,-1.494769,-0.604080,-1.473844,-0.578389,-1.452266,-0.553250,-1.430049,-0.528677,-1.407207,-0.504688,-1.383753,-0.481297,-1.359705,-0.458519,-1.335075,-0.436368,-1.309879,-0.414858,-1.284135,-0.394004,-1.257857,-0.373817,-1.231064,-0.354312,-1.203771,
-0.335500,-1.175996,-0.317393,-1.147757,-0.300005,-1.119075,-0.333344,-1.098354,-0.365259,-1.075495,-0.395610,-1.050599,-0.424267,-1.023772,-0.424268,-1.023771,-0.451108,-0.995127,-0.476016,-0.964791,-0.498886,-0.932892,-0.519620,-0.899565,-0.519620,-0.899564,-0.538128,-0.864954,-0.538129,-0.864954,-0.554333,-0.829207,-0.568163,-0.792478,-0.568163,-0.792477,-0.579560,-0.754923,-0.588475,-0.716704,
-0.594871,-0.677984,-0.594871,-0.677983,-0.598719,-0.638927,-0.600003,-0.599704,-0.599280,-0.570278,-0.597113,-0.540923,-0.597113,-0.540922,-0.593508,-0.511708,-0.588474,-0.482707,-0.582021,-0.453987,-0.578805,-0.442370,-0.008102,-0.442370,0.001955,-0.471896,0.022546,-0.495328,0.050540,-0.509103,0.081659,-0.511123,0.111190,-0.501098,0.134639,-0.480549,0.148445,-0.452600,0.148445,-0.452599,
0.168443,-0.420921,0.168446,-0.420919,0.200021,-0.413066,0.200023,-0.413066,0.231581,-0.420919,0.231584,-0.420921,0.251565,-0.452599,0.251565,-0.452600,0.265374,-0.480559,0.288833,-0.501113,0.318374,-0.511135,0.349505,-0.509103,0.377497,-0.495328,0.398089,-0.471896,0.408147,-0.442370,0.406137,-0.411248,0.387621,-0.364844,0.387621,-0.364843,0.360168,-0.325867,0.325727,-0.294766,
0.325727,-0.294765,0.286254,-0.271992,0.286254,-0.271993,0.243700,-0.257999,0.243700,-0.257998,0.200022,-0.253233,0.156343,-0.257998,0.156344,-0.257999,0.113790,-0.271993,0.113790,-0.271992,0.074316,-0.294765,0.074317,-0.294766,0.039876,-0.325867,0.012422,-0.364843,0.012423,-0.364844,-0.006093,-0.411248,-0.008102,-0.442370,-0.578805,-0.442370,-0.574167,-0.425619,-0.574167,-0.425618,
-0.564929,-0.397668,-0.554330,-0.370206,-0.542396,-0.343296,-0.542395,-0.343296,-0.529154,-0.317004,-0.514639,-0.291393,-0.514639,-0.291392,-0.498883,-0.266524,-0.481926,-0.242458,-0.463808,-0.219253,-0.444572,-0.196965,-0.424266,-0.175647,-0.424265,-0.175646,-0.402936,-0.155349,-0.380637,-0.136123,-0.357421,-0.118014,-0.333343,-0.101065,-0.308463,-0.085317,-0.308462,-0.085317,-0.282839,-0.070809,
-0.256534,-0.057575,-0.256534,-0.057574,-0.229611,-0.045645,-0.202135,-0.035052,-0.174172,-0.025819,-0.174171,-0.025819,-0.145788,-0.017968,-0.117055,-0.011519,-0.088039,-0.006486,-0.058811,-0.002883,-0.058810,-0.002883,-0.029440,-0.000717,0.000000,0.000005,0.029440,-0.000717,0.029440,-0.000717,$1*%
G04 Aperture macros list end*
%ADD10C,2.500000*%
%ADD11C,0.700000*%
%ADD12C,0.650000*%
%ADD13C,0.000000*%
%ADD14RoundRect,0.112500X0.187500X0.112500X-0.187500X0.112500X-0.187500X-0.112500X0.187500X-0.112500X0*%
%ADD15RoundRect,0.112500X-0.187500X-0.112500X0.187500X-0.112500X0.187500X0.112500X-0.187500X0.112500X0*%
%ADD16RoundRect,0.218750X-0.218750X-0.381250X0.218750X-0.381250X0.218750X0.381250X-0.218750X0.381250X0*%
%ADD17RoundRect,0.250000X0.650000X-1.000000X0.650000X1.000000X-0.650000X1.000000X-0.650000X-1.000000X0*%
%ADD18RoundRect,0.250000X-0.650000X1.000000X-0.650000X-1.000000X0.650000X-1.000000X0.650000X1.000000X0*%
%ADD19RoundRect,0.250000X0.650000X-0.325000X0.650000X0.325000X-0.650000X0.325000X-0.650000X-0.325000X0*%
%ADD20RoundRect,0.225000X-0.250000X0.225000X-0.250000X-0.225000X0.250000X-0.225000X0.250000X0.225000X0*%
%ADD21RoundRect,0.225000X0.250000X-0.225000X0.250000X0.225000X-0.250000X0.225000X-0.250000X-0.225000X0*%
%ADD22RoundRect,0.225000X-0.225000X-0.250000X0.225000X-0.250000X0.225000X0.250000X-0.225000X0.250000X0*%
%ADD23R,0.700000X0.700000*%
%ADD24RoundRect,0.250000X0.250000X0.475000X-0.250000X0.475000X-0.250000X-0.475000X0.250000X-0.475000X0*%
%ADD25R,3.700000X1.200000*%
%ADD26RoundRect,0.150000X0.150000X0.625000X-0.150000X0.625000X-0.150000X-0.625000X0.150000X-0.625000X0*%
%ADD27RoundRect,0.250000X0.350000X0.650000X-0.350000X0.650000X-0.350000X-0.650000X0.350000X-0.650000X0*%
%ADD28RoundRect,0.225000X0.225000X0.250000X-0.225000X0.250000X-0.225000X-0.250000X0.225000X-0.250000X0*%
%ADD29RoundRect,0.250000X-0.250000X-0.475000X0.250000X-0.475000X0.250000X0.475000X-0.250000X0.475000X0*%
%ADD30R,2.000000X0.640000*%
%ADD31RoundRect,0.200000X-0.200000X-0.275000X0.200000X-0.275000X0.200000X0.275000X-0.200000X0.275000X0*%
%ADD32RoundRect,0.218750X0.218750X0.381250X-0.218750X0.381250X-0.218750X-0.381250X0.218750X-0.381250X0*%
%ADD33RoundRect,0.150000X0.587500X0.150000X-0.587500X0.150000X-0.587500X-0.150000X0.587500X-0.150000X0*%
%ADD34RoundRect,0.218750X0.218750X0.256250X-0.218750X0.256250X-0.218750X-0.256250X0.218750X-0.256250X0*%
%ADD35RoundRect,0.100000X-0.225000X-0.100000X0.225000X-0.100000X0.225000X0.100000X-0.225000X0.100000X0*%
%ADD36RoundRect,0.200000X0.200000X0.275000X-0.200000X0.275000X-0.200000X-0.275000X0.200000X-0.275000X0*%
%ADD37RoundRect,0.175000X0.400000X-0.175000X0.400000X0.175000X-0.400000X0.175000X-0.400000X-0.175000X0*%
%ADD38FreePoly0,90.000000*%
%ADD39RoundRect,0.150000X-0.587500X-0.150000X0.587500X-0.150000X0.587500X0.150000X-0.587500X0.150000X0*%
%ADD40C,0.800000*%
%ADD41C,5.400000*%
%ADD42RoundRect,0.100000X-0.637500X-0.100000X0.637500X-0.100000X0.637500X0.100000X-0.637500X0.100000X0*%
%ADD43RoundRect,0.250000X-1.500000X-0.550000X1.500000X-0.550000X1.500000X0.550000X-1.500000X0.550000X0*%
%ADD44RoundRect,0.125000X-0.537500X-0.125000X0.537500X-0.125000X0.537500X0.125000X-0.537500X0.125000X0*%
%ADD45RoundRect,0.150000X-0.512500X-0.150000X0.512500X-0.150000X0.512500X0.150000X-0.512500X0.150000X0*%
%ADD46RoundRect,0.250000X0.625000X-0.350000X0.625000X0.350000X-0.625000X0.350000X-0.625000X-0.350000X0*%
%ADD47O,1.750000X1.200000*%
%ADD48RoundRect,0.200000X0.275000X-0.200000X0.275000X0.200000X-0.275000X0.200000X-0.275000X-0.200000X0*%
%ADD49RoundRect,0.250000X0.325000X0.650000X-0.325000X0.650000X-0.325000X-0.650000X0.325000X-0.650000X0*%
%ADD50C,1.550000*%
%ADD51C,2.050000*%
%ADD52R,2.400000X1.300000*%
%ADD53R,3.200000X2.500000*%
%ADD54R,4.000000X3.750000*%
%ADD55R,1.700000X1.700000*%
%ADD56O,1.700000X1.700000*%
%ADD57C,0.787400*%
%ADD58C,0.990600*%
%ADD59RoundRect,0.250000X-1.175000X-0.450000X1.175000X-0.450000X1.175000X0.450000X-1.175000X0.450000X0*%
%ADD60RoundRect,0.062500X-0.062500X0.375000X-0.062500X-0.375000X0.062500X-0.375000X0.062500X0.375000X0*%
%ADD61RoundRect,0.062500X-0.375000X0.062500X-0.375000X-0.062500X0.375000X-0.062500X0.375000X0.062500X0*%
%ADD62R,1.450000X1.450000*%
%ADD63C,0.650000*%
%ADD64R,1.150000X0.300000*%
%ADD65O,2.100000X1.000000*%
%ADD66O,1.600000X1.000000*%
%ADD67C,2.600000*%
%ADD68RoundRect,0.250000X1.175000X0.450000X-1.175000X0.450000X-1.175000X-0.450000X1.175000X-0.450000X0*%
%ADD69RoundRect,0.250000X-0.625000X0.350000X-0.625000X-0.350000X0.625000X-0.350000X0.625000X0.350000X0*%
%ADD70RoundRect,0.250000X-0.312500X-0.625000X0.312500X-0.625000X0.312500X0.625000X-0.312500X0.625000X0*%
%ADD71RoundRect,0.150000X0.825000X0.150000X-0.825000X0.150000X-0.825000X-0.150000X0.825000X-0.150000X0*%
%ADD72RoundRect,0.150000X0.512500X0.150000X-0.512500X0.150000X-0.512500X-0.150000X0.512500X-0.150000X0*%
%ADD73RoundRect,0.250000X1.000000X0.650000X-1.000000X0.650000X-1.000000X-0.650000X1.000000X-0.650000X0*%
%ADD74C,0.600000*%
%ADD75R,3.900000X3.900000*%
%ADD76R,1.500000X0.900000*%
%ADD77R,0.900000X1.500000*%
%ADD78O,3.500000X3.500000*%
%ADD79R,1.905000X2.000000*%
%ADD80O,1.905000X2.000000*%
%ADD81RoundRect,0.250000X-0.325000X-0.650000X0.325000X-0.650000X0.325000X0.650000X-0.325000X0.650000X0*%
%ADD82FreePoly1,0.000000*%
%ADD83FreePoly2,0.000000*%
%ADD84C,1.152000*%
%ADD85RoundRect,0.250000X-0.275000X-0.250000X0.275000X-0.250000X0.275000X0.250000X-0.275000X0.250000X0*%
%ADD86RoundRect,0.250000X-0.850000X-0.275000X0.850000X-0.275000X0.850000X0.275000X-0.850000X0.275000X0*%
%ADD87RoundRect,0.200000X-0.275000X0.200000X-0.275000X-0.200000X0.275000X-0.200000X0.275000X0.200000X0*%
%ADD88FreePoly3,0.000000*%
%ADD89RoundRect,0.062500X0.275000X0.062500X-0.275000X0.062500X-0.275000X-0.062500X0.275000X-0.062500X0*%
%ADD90RoundRect,0.062500X0.062500X0.275000X-0.062500X0.275000X-0.062500X-0.275000X0.062500X-0.275000X0*%
%ADD91RoundRect,0.087500X-0.725000X-0.087500X0.725000X-0.087500X0.725000X0.087500X-0.725000X0.087500X0*%
%ADD92RoundRect,0.150000X-0.825000X-0.150000X0.825000X-0.150000X0.825000X0.150000X-0.825000X0.150000X0*%
%ADD93RoundRect,0.085000X-0.265000X-0.085000X0.265000X-0.085000X0.265000X0.085000X-0.265000X0.085000X0*%
%ADD94RoundRect,0.250000X0.275000X0.250000X-0.275000X0.250000X-0.275000X-0.250000X0.275000X-0.250000X0*%
%ADD95RoundRect,0.250000X0.850000X0.275000X-0.850000X0.275000X-0.850000X-0.275000X0.850000X-0.275000X0*%
%ADD96RoundRect,0.250000X0.250000X-0.275000X0.250000X0.275000X-0.250000X0.275000X-0.250000X-0.275000X0*%
%ADD97RoundRect,0.250000X0.275000X-0.850000X0.275000X0.850000X-0.275000X0.850000X-0.275000X-0.850000X0*%
%ADD98RoundRect,0.250000X1.500000X0.550000X-1.500000X0.550000X-1.500000X-0.550000X1.500000X-0.550000X0*%
%ADD99R,2.000000X1.780000*%
%ADD100FreePoly4,0.000000*%
%ADD101RoundRect,0.100000X0.637500X0.100000X-0.637500X0.100000X-0.637500X-0.100000X0.637500X-0.100000X0*%
%ADD102RoundRect,0.250000X-0.650000X0.325000X-0.650000X-0.325000X0.650000X-0.325000X0.650000X0.325000X0*%
%ADD103C,0.750000*%
%ADD104C,1.050000*%
%ADD105RotRect,1.350000X1.000000X315.000000*%
%ADD106RotRect,2.000000X1.800000X315.000000*%
%ADD107R,3.810000X4.240000*%
%ADD108R,0.300000X1.100000*%
%ADD109R,2.300000X3.100000*%
%ADD110RoundRect,0.112500X-0.112500X0.187500X-0.112500X-0.187500X0.112500X-0.187500X0.112500X0.187500X0*%
%ADD111RoundRect,0.175000X-0.175000X-0.400000X0.175000X-0.400000X0.175000X0.400000X-0.175000X0.400000X0*%
%ADD112FreePoly0,0.000000*%
%ADD113R,5.000000X3.100000*%
%ADD114RoundRect,0.112500X0.112500X-0.187500X0.112500X0.187500X-0.112500X0.187500X-0.112500X-0.187500X0*%
%ADD115RoundRect,0.087500X-0.537500X-0.087500X0.537500X-0.087500X0.537500X0.087500X-0.537500X0.087500X0*%
%ADD116RoundRect,0.175000X0.175000X0.400000X-0.175000X0.400000X-0.175000X-0.400000X0.175000X-0.400000X0*%
%ADD117FreePoly0,180.000000*%
%ADD118RoundRect,0.150000X0.150000X-0.825000X0.150000X0.825000X-0.150000X0.825000X-0.150000X-0.825000X0*%
%ADD119RoundRect,0.150000X-0.150000X0.825000X-0.150000X-0.825000X0.150000X-0.825000X0.150000X0.825000X0*%
%ADD120RoundRect,0.250000X-0.450000X1.175000X-0.450000X-1.175000X0.450000X-1.175000X0.450000X1.175000X0*%
G04 APERTURE END LIST*
D10*
X-27750000Y65000000D02*
G75*
G02*
X-30250000Y65000000I-1250000J0D01*
G01*
X-30250000Y65000000D02*
G75*
G02*
X-27750000Y65000000I1250000J0D01*
G01*
D11*
X-30000000Y52000000D02*
G75*
G02*
X-30500000Y52000000I-250000J0D01*
G01*
X-30500000Y52000000D02*
G75*
G02*
X-30000000Y52000000I250000J0D01*
G01*
X-28500000Y52000000D02*
G75*
G02*
X-29000000Y52000000I-250000J0D01*
G01*
X-29000000Y52000000D02*
G75*
G02*
X-28500000Y52000000I250000J0D01*
G01*
X-27000000Y52000000D02*
G75*
G02*
X-27500000Y52000000I-250000J0D01*
G01*
X-27500000Y52000000D02*
G75*
G02*
X-27000000Y52000000I250000J0D01*
G01*
X-25500000Y52000000D02*
G75*
G02*
X-26000000Y52000000I-250000J0D01*
G01*
X-26000000Y52000000D02*
G75*
G02*
X-25500000Y52000000I250000J0D01*
G01*
D12*
X-31175000Y56500000D02*
G75*
G02*
X-31825000Y56500000I-325000J0D01*
G01*
X-31825000Y56500000D02*
G75*
G02*
X-31175000Y56500000I325000J0D01*
G01*
G36*
X38485000Y65940000D02*
G01*
X40575000Y65940000D01*
X40575000Y64060000D01*
X38485000Y64060000D01*
X38485000Y65940000D01*
G37*
D13*
G36*
X-27978401Y60531756D02*
G01*
X-27947791Y60476601D01*
X-27922052Y60403150D01*
X-27904869Y60328617D01*
X-27899931Y60270218D01*
X-27910925Y60245168D01*
X-27963701Y60249706D01*
X-28038256Y60267264D01*
X-28107482Y60290882D01*
X-28144274Y60313598D01*
X-28141199Y60350535D01*
X-28114640Y60411211D01*
X-28073233Y60480265D01*
X-28025613Y60542337D01*
X-28010194Y60551398D01*
X-27978401Y60531756D01*
G37*
G36*
X-28476414Y60465083D02*
G01*
X-28415410Y60445773D01*
X-28342229Y60394654D01*
X-28280367Y60336924D01*
X-28253318Y60297781D01*
X-28273410Y60258359D01*
X-28324944Y60202319D01*
X-28389068Y60154351D01*
X-28446928Y60139143D01*
X-28476002Y60165296D01*
X-28497810Y60221645D01*
X-28511117Y60293823D01*
X-28514690Y60367464D01*
X-28507296Y60428200D01*
X-28487700Y60461666D01*
X-28476414Y60465084D01*
X-28476414Y60465083D01*
G37*
G36*
X-28143151Y60276271D02*
G01*
X-28083691Y60225496D01*
X-28026216Y60161649D01*
X-27983676Y60101717D01*
X-27969024Y60062685D01*
X-28007129Y60009681D01*
X-28077312Y59950339D01*
X-28131398Y59919544D01*
X-28195396Y59930960D01*
X-28282874Y59964409D01*
X-28326995Y60004030D01*
X-28319168Y60048868D01*
X-28297990Y60123325D01*
X-28267191Y60204658D01*
X-28230498Y60270127D01*
X-28191643Y60296988D01*
X-28143151Y60276271D01*
G37*
G36*
X33485000Y65940000D02*
G01*
X35575000Y65940000D01*
X35575000Y64060000D01*
X33485000Y64060000D01*
X33485000Y65940000D01*
G37*
G36*
X95515000Y66060000D02*
G01*
X93425000Y66060000D01*
X93425000Y67940000D01*
X95515000Y67940000D01*
X95515000Y66060000D01*
G37*
G36*
X78060000Y61485000D02*
G01*
X79940000Y61485000D01*
X79940000Y63575000D01*
X78060000Y63575000D01*
X78060000Y61485000D01*
G37*
D12*
X-31175000Y97500000D02*
G75*
G02*
X-31825000Y97500000I-325000J0D01*
G01*
X-31825000Y97500000D02*
G75*
G02*
X-31175000Y97500000I325000J0D01*
G01*
G36*
X72060000Y61485000D02*
G01*
X73940000Y61485000D01*
X73940000Y63575000D01*
X72060000Y63575000D01*
X72060000Y61485000D01*
G37*
X125825000Y97500000D02*
G75*
G02*
X125175000Y97500000I-325000J0D01*
G01*
X125175000Y97500000D02*
G75*
G02*
X125825000Y97500000I325000J0D01*
G01*
D14*
X80050000Y68000000D03*
X77950000Y68000000D03*
D15*
X45950000Y75000000D03*
X48050000Y75000000D03*
D16*
X77937500Y66000000D03*
X80062500Y66000000D03*
D17*
X120000000Y74000000D03*
X120000000Y78000000D03*
D18*
X120000000Y86000000D03*
X120000000Y82000000D03*
D19*
X5500000Y53525000D03*
X5500000Y56475000D03*
D20*
X-30000000Y72775000D03*
X-30000000Y71225000D03*
X119000000Y71275000D03*
X119000000Y69725000D03*
D21*
X69500000Y79225000D03*
X69500000Y80775000D03*
D20*
X78000000Y89225000D03*
X78000000Y90775000D03*
D22*
X65265000Y102000000D03*
X66815000Y102000000D03*
D21*
X54000000Y90775000D03*
X54000000Y89225000D03*
D23*
X120450000Y69585000D03*
X121550000Y69585000D03*
X121550000Y71415000D03*
X120450000Y71415000D03*
X66915000Y99450000D03*
X66915000Y100550000D03*
X65085000Y100550000D03*
X65085000Y99450000D03*
X-24085000Y79450000D03*
X-24085000Y80550000D03*
X-25915000Y80550000D03*
X-25915000Y79450000D03*
X56550000Y90915000D03*
X55450000Y90915000D03*
X55450000Y89085000D03*
X56550000Y89085000D03*
X75450000Y89085000D03*
X76550000Y89085000D03*
X76550000Y90915000D03*
X75450000Y90915000D03*
X66915000Y79450000D03*
X66915000Y80550000D03*
X65085000Y80550000D03*
X65085000Y79450000D03*
D24*
X11950000Y89000000D03*
X10050000Y89000000D03*
X59950000Y74000000D03*
X58050000Y74000000D03*
D16*
X-27062500Y92000000D03*
X-24937500Y92000000D03*
D25*
X11000000Y83600000D03*
X11000000Y86400000D03*
X11000000Y95400000D03*
X11000000Y92600000D03*
D26*
X77500000Y98000000D03*
X76500000Y98000000D03*
X75500000Y98000000D03*
X74500000Y98000000D03*
D27*
X78800000Y101875000D03*
X73200000Y101875000D03*
D24*
X84950000Y75000000D03*
X83050000Y75000000D03*
D18*
X16000000Y95000000D03*
X16000000Y91000000D03*
D22*
X17225000Y57000000D03*
X18775000Y57000000D03*
X94225000Y55000000D03*
X95775000Y55000000D03*
D28*
X13775000Y65000000D03*
X12225000Y65000000D03*
D29*
X90050000Y67000000D03*
X91950000Y67000000D03*
D30*
X115850000Y64270000D03*
X115850000Y61730000D03*
X122150000Y61730000D03*
X122150000Y64270000D03*
D31*
X120175000Y60000000D03*
X121825000Y60000000D03*
D32*
X52062500Y77000000D03*
X49937500Y77000000D03*
D31*
X-10825000Y84000000D03*
X-9175000Y84000000D03*
D33*
X84937500Y90050000D03*
X84937500Y91950000D03*
X83062500Y91000000D03*
D34*
X59787500Y76000000D03*
X58212500Y76000000D03*
D35*
X58050000Y59150000D03*
X58050000Y58500000D03*
X58050000Y57850000D03*
X59950000Y57850000D03*
X59950000Y59150000D03*
D22*
X46225000Y73000000D03*
X47775000Y73000000D03*
D28*
X47775000Y61000000D03*
X46225000Y61000000D03*
D22*
X74225000Y66000000D03*
X75775000Y66000000D03*
D29*
X37050000Y72000000D03*
X38950000Y72000000D03*
D31*
X42175000Y65000000D03*
X43825000Y65000000D03*
D28*
X67775000Y59000000D03*
X66225000Y59000000D03*
D31*
X70175000Y59000000D03*
X71825000Y59000000D03*
X62175000Y61000000D03*
X63825000Y61000000D03*
D36*
X95825000Y57000000D03*
X94175000Y57000000D03*
D28*
X-9225000Y86000000D03*
X-10775000Y86000000D03*
D36*
X83825000Y57000000D03*
X82175000Y57000000D03*
D28*
X43775000Y69000000D03*
X42225000Y69000000D03*
D31*
X54175000Y67000000D03*
X55825000Y67000000D03*
D36*
X55825000Y61000000D03*
X54175000Y61000000D03*
D31*
X69675000Y100000000D03*
X71325000Y100000000D03*
D37*
X-14725000Y91905000D03*
X-14725000Y90635000D03*
X-14725000Y89365000D03*
X-14725000Y88095000D03*
D38*
X-12000000Y90000000D03*
D31*
X175000Y89000000D03*
X1825000Y89000000D03*
D22*
X25775000Y95000000D03*
X24225000Y95000000D03*
D36*
X47825000Y71000000D03*
X46175000Y71000000D03*
D29*
X-21950000Y84000000D03*
X-20050000Y84000000D03*
D36*
X106825000Y54000000D03*
X105175000Y54000000D03*
D39*
X-25937500Y77950000D03*
X-25937500Y76050000D03*
X-24062500Y77000000D03*
D40*
X125975000Y54000000D03*
X126568109Y55431891D03*
X126568109Y52568109D03*
X128000000Y56025000D03*
D41*
X128000000Y54000000D03*
D40*
X128000000Y51975000D03*
X129431891Y55431891D03*
X129431891Y52568109D03*
X130025000Y54000000D03*
D24*
X10050000Y98000000D03*
X11950000Y98000000D03*
D33*
X39937500Y59050000D03*
X39937500Y60950000D03*
X38062500Y60000000D03*
D42*
X74137500Y80275000D03*
X74137500Y79625000D03*
X74137500Y78975000D03*
X74137500Y78325000D03*
X74137500Y77675000D03*
X74137500Y77025000D03*
X74137500Y76375000D03*
X74137500Y75725000D03*
X79862500Y75725000D03*
X79862500Y76375000D03*
X79862500Y77025000D03*
X79862500Y77675000D03*
X79862500Y78325000D03*
X79862500Y78975000D03*
X79862500Y79625000D03*
X79862500Y80275000D03*
D43*
X117300000Y98000000D03*
X122700000Y98000000D03*
D44*
X-6137500Y89975000D03*
X-6137500Y89325000D03*
X-6137500Y88675000D03*
X-6137500Y88025000D03*
X-3862500Y88025000D03*
X-3862500Y88675000D03*
X-3862500Y89325000D03*
X-3862500Y89975000D03*
D45*
X57862500Y69950000D03*
X57862500Y69000000D03*
X57862500Y68050000D03*
X60137500Y68050000D03*
X60137500Y69950000D03*
D22*
X-19775000Y86000000D03*
X-18225000Y86000000D03*
D46*
X-14000000Y98000000D03*
D47*
X-14000000Y100000000D03*
D36*
X55825000Y63000000D03*
X54175000Y63000000D03*
D48*
X119000000Y89175000D03*
X119000000Y90825000D03*
D35*
X58050000Y64150000D03*
X58050000Y63500000D03*
X58050000Y62850000D03*
X59950000Y62850000D03*
X59950000Y63500000D03*
X59950000Y64150000D03*
D31*
X32175000Y69000000D03*
X33825000Y69000000D03*
D29*
X58050000Y82000000D03*
X59950000Y82000000D03*
D39*
X38062500Y54950000D03*
X38062500Y53050000D03*
X39937500Y54000000D03*
D31*
X20175000Y87000000D03*
X21825000Y87000000D03*
D42*
X16137500Y83275000D03*
X16137500Y82625000D03*
X16137500Y81975000D03*
X16137500Y81325000D03*
X16137500Y80675000D03*
X16137500Y80025000D03*
X16137500Y79375000D03*
X16137500Y78725000D03*
X21862500Y78725000D03*
X21862500Y79375000D03*
X21862500Y80025000D03*
X21862500Y80675000D03*
X21862500Y81325000D03*
X21862500Y81975000D03*
X21862500Y82625000D03*
X21862500Y83275000D03*
D49*
X3525000Y98000000D03*
X6475000Y98000000D03*
D36*
X50175000Y88500000D03*
X51825000Y88500000D03*
D22*
X25225000Y63000000D03*
X26775000Y63000000D03*
D50*
X61500000Y90000000D03*
D51*
X66000000Y90000000D03*
D52*
X58700000Y92500000D03*
X58700000Y87500000D03*
X58700000Y90000000D03*
D53*
X58100000Y95000000D03*
X58100000Y85000000D03*
D54*
X66000000Y96375000D03*
X66000000Y83625000D03*
D53*
X73900000Y95000000D03*
X73900000Y85000000D03*
D52*
X73000000Y87500000D03*
X73000000Y92500000D03*
D36*
X1825000Y87000000D03*
X175000Y87000000D03*
D39*
X83062500Y85950000D03*
X83062500Y84050000D03*
X84937500Y85000000D03*
D55*
X126000000Y81270000D03*
D56*
X126000000Y78730000D03*
D36*
X30825000Y65000000D03*
X29175000Y65000000D03*
D14*
X48050000Y59000000D03*
X45950000Y59000000D03*
D57*
X50365000Y94270000D03*
X51635000Y94270000D03*
X50365000Y93000000D03*
X51635000Y93000000D03*
X50365000Y91730000D03*
X51635000Y91730000D03*
D58*
X52016000Y95540000D03*
X49984000Y95540000D03*
X51000000Y90460000D03*
D59*
X64000000Y74000000D03*
D28*
X51775000Y59000000D03*
X50225000Y59000000D03*
D31*
X24175000Y79000000D03*
X25825000Y79000000D03*
D28*
X17775000Y85000000D03*
X16225000Y85000000D03*
D31*
X1825000Y94000000D03*
X175000Y94000000D03*
D36*
X30825000Y59000000D03*
X29175000Y59000000D03*
D60*
X-4250000Y100437500D03*
X-4750000Y100437500D03*
X-5250000Y100437500D03*
X-5750000Y100437500D03*
D61*
X-6437500Y99750000D03*
X-6437500Y99250000D03*
X-6437500Y98750000D03*
X-6437500Y98250000D03*
D60*
X-5750000Y97562500D03*
X-5250000Y97562500D03*
X-4750000Y97562500D03*
X-4250000Y97562500D03*
D61*
X-3562500Y98250000D03*
X-3562500Y98750000D03*
X-3562500Y99250000D03*
X-3562500Y99750000D03*
D62*
X-5000000Y99000000D03*
D63*
X-30610000Y82890000D03*
X-30610000Y77110000D03*
D64*
X-29545000Y83350000D03*
X-29545000Y82550000D03*
X-29545000Y81250000D03*
X-29545000Y80250000D03*
X-29545000Y79750000D03*
X-29545000Y78750000D03*
X-29545000Y77450000D03*
X-29545000Y76650000D03*
X-29545000Y76950000D03*
X-29545000Y77750000D03*
X-29545000Y78250000D03*
X-29545000Y79250000D03*
X-29545000Y80750000D03*
X-29545000Y81750000D03*
X-29545000Y82250000D03*
X-29545000Y83050000D03*
D65*
X-30110000Y84320000D03*
D66*
X-34290000Y84320000D03*
D65*
X-30110000Y75680000D03*
D66*
X-34290000Y75680000D03*
D67*
X129000000Y87000000D03*
X129000000Y92080000D03*
X123920000Y87000000D03*
X123920000Y92080000D03*
D68*
X-12000000Y94000000D03*
D36*
X30825000Y63000000D03*
X29175000Y63000000D03*
D69*
X84000000Y100000000D03*
D47*
X84000000Y98000000D03*
D35*
X58050000Y54150000D03*
X58050000Y53500000D03*
X58050000Y52850000D03*
X59950000Y52850000D03*
X59950000Y54150000D03*
D36*
X122825000Y56000000D03*
X121175000Y56000000D03*
D70*
X-6462500Y92000000D03*
X-3537500Y92000000D03*
D71*
X91475000Y53095000D03*
X91475000Y54365000D03*
X91475000Y55635000D03*
X91475000Y56905000D03*
X86525000Y56905000D03*
X86525000Y55635000D03*
X86525000Y54365000D03*
X86525000Y53095000D03*
D72*
X76137500Y68050000D03*
X76137500Y69000000D03*
X76137500Y69950000D03*
X73862500Y69950000D03*
X73862500Y68050000D03*
D36*
X55825000Y65000000D03*
X54175000Y65000000D03*
D33*
X-4062500Y82050000D03*
X-4062500Y83950000D03*
X-5937500Y83000000D03*
D39*
X33062500Y54950000D03*
X33062500Y53050000D03*
X34937500Y54000000D03*
D31*
X86175000Y67000000D03*
X87825000Y67000000D03*
D73*
X-24000000Y88000000D03*
X-28000000Y88000000D03*
D74*
X37900000Y86840000D03*
X37900000Y88240000D03*
X37200000Y86140000D03*
X37200000Y87540000D03*
X37200000Y88940000D03*
X36500000Y86840000D03*
D75*
X36500000Y87540000D03*
D74*
X36500000Y88240000D03*
X35800000Y86140000D03*
X35800000Y87540000D03*
X35800000Y88940000D03*
X35100000Y86840000D03*
X35100000Y88240000D03*
D76*
X46750000Y95260000D03*
X46750000Y93990000D03*
X46750000Y92720000D03*
X46750000Y91450000D03*
X46750000Y90180000D03*
X46750000Y88910000D03*
X46750000Y87640000D03*
X46750000Y86370000D03*
X46750000Y85100000D03*
X46750000Y83830000D03*
X46750000Y82560000D03*
X46750000Y81290000D03*
X46750000Y80020000D03*
X46750000Y78750000D03*
D77*
X44985000Y77500000D03*
X43715000Y77500000D03*
X42445000Y77500000D03*
X41175000Y77500000D03*
X39905000Y77500000D03*
X38635000Y77500000D03*
X37365000Y77500000D03*
X36095000Y77500000D03*
X34825000Y77500000D03*
X33555000Y77500000D03*
X32285000Y77500000D03*
X31015000Y77500000D03*
D76*
X29250000Y78750000D03*
X29250000Y80020000D03*
X29250000Y81290000D03*
X29250000Y82560000D03*
X29250000Y83830000D03*
X29250000Y85100000D03*
X29250000Y86370000D03*
X29250000Y87640000D03*
X29250000Y88910000D03*
X29250000Y90180000D03*
X29250000Y91450000D03*
X29250000Y92720000D03*
X29250000Y93990000D03*
X29250000Y95260000D03*
D36*
X71825000Y53000000D03*
X70175000Y53000000D03*
D78*
X108500000Y89660000D03*
D79*
X111040000Y73000000D03*
D80*
X108500000Y73000000D03*
X105960000Y73000000D03*
D81*
X36525000Y69000000D03*
X39475000Y69000000D03*
D45*
X49862500Y72950000D03*
X49862500Y72000000D03*
X49862500Y71050000D03*
X52137500Y71050000D03*
X52137500Y72950000D03*
D82*
X-35975384Y61844373D03*
D83*
X-34000000Y60000000D03*
D31*
X83175000Y88000000D03*
X84825000Y88000000D03*
X42175000Y57000000D03*
X43825000Y57000000D03*
D34*
X26787500Y57000000D03*
X25212500Y57000000D03*
D29*
X-14950000Y86000000D03*
X-13050000Y86000000D03*
D24*
X87950000Y59000000D03*
X86050000Y59000000D03*
X51950000Y75000000D03*
X50050000Y75000000D03*
D84*
X-31500000Y56500000D03*
D36*
X71825000Y57000000D03*
X70175000Y57000000D03*
D28*
X225000Y92000000D03*
X1775000Y92000000D03*
D29*
X99050000Y54000000D03*
X100950000Y54000000D03*
D22*
X32225000Y72000000D03*
X33775000Y72000000D03*
D36*
X83825000Y53000000D03*
X82175000Y53000000D03*
D28*
X51775000Y61000000D03*
X50225000Y61000000D03*
X59775000Y61000000D03*
X58225000Y61000000D03*
D85*
X37950000Y65000000D03*
D86*
X39475000Y66475000D03*
X39475000Y63525000D03*
D31*
X90175000Y59000000D03*
X91825000Y59000000D03*
X-14825000Y84000000D03*
X-13175000Y84000000D03*
D68*
X-29000000Y55000000D03*
D22*
X21225000Y57000000D03*
X22775000Y57000000D03*
D87*
X88000000Y73825000D03*
X88000000Y72175000D03*
D31*
X13175000Y57000000D03*
X14825000Y57000000D03*
D24*
X5950000Y89000000D03*
X4050000Y89000000D03*
D88*
X-29000000Y60000000D03*
D49*
X65475000Y77000000D03*
X62525000Y77000000D03*
D70*
X-20462500Y92000000D03*
X-17537500Y92000000D03*
D72*
X3862500Y92050000D03*
X3862500Y93000000D03*
X3862500Y93950000D03*
X6137500Y93950000D03*
X6137500Y93000000D03*
X6137500Y92050000D03*
D68*
X16000000Y87000000D03*
D29*
X99050000Y63000000D03*
X100950000Y63000000D03*
D28*
X79775000Y82000000D03*
X78225000Y82000000D03*
D71*
X91475000Y61095000D03*
X91475000Y62365000D03*
X91475000Y63635000D03*
X91475000Y64905000D03*
X86525000Y64905000D03*
X86525000Y63635000D03*
X86525000Y62365000D03*
X86525000Y61095000D03*
D28*
X22775000Y59000000D03*
X21225000Y59000000D03*
D36*
X71825000Y55000000D03*
X70175000Y55000000D03*
X93825000Y99000000D03*
X92175000Y99000000D03*
X43825000Y67000000D03*
X42175000Y67000000D03*
D31*
X42175000Y71000000D03*
X43825000Y71000000D03*
D72*
X101137500Y65050000D03*
X101137500Y66000000D03*
X101137500Y66950000D03*
X98862500Y66950000D03*
X98862500Y66000000D03*
X98862500Y65050000D03*
D28*
X84775000Y77000000D03*
X83225000Y77000000D03*
D59*
X25000000Y87000000D03*
D36*
X95825000Y53000000D03*
X94175000Y53000000D03*
D28*
X1775000Y83000000D03*
X225000Y83000000D03*
D36*
X55825000Y55000000D03*
X54175000Y55000000D03*
D31*
X109175000Y54000000D03*
X110825000Y54000000D03*
D28*
X5775000Y87000000D03*
X4225000Y87000000D03*
D89*
X-23737500Y83000000D03*
X-23737500Y83500000D03*
X-23737500Y84000000D03*
D90*
X-24250000Y84762500D03*
X-24750000Y84762500D03*
X-25250000Y84762500D03*
X-25750000Y84762500D03*
D89*
X-26262500Y84000000D03*
X-26262500Y83500000D03*
X-26262500Y83000000D03*
D90*
X-25750000Y82237500D03*
X-25250000Y82237500D03*
X-24750000Y82237500D03*
X-24250000Y82237500D03*
D62*
X-25000000Y83500000D03*
D40*
X125975000Y100000000D03*
X126568109Y101431891D03*
X126568109Y98568109D03*
X128000000Y102025000D03*
D41*
X128000000Y100000000D03*
D40*
X128000000Y97975000D03*
X129431891Y101431891D03*
X129431891Y98568109D03*
X130025000Y100000000D03*
D22*
X29225000Y55000000D03*
X30775000Y55000000D03*
D72*
X118137500Y56050000D03*
X118137500Y57000000D03*
X118137500Y57950000D03*
X115862500Y57950000D03*
X115862500Y57000000D03*
X115862500Y56050000D03*
D29*
X25050000Y61000000D03*
X26950000Y61000000D03*
D28*
X59775000Y56000000D03*
X58225000Y56000000D03*
D72*
X6137500Y83050000D03*
X6137500Y84000000D03*
X6137500Y84950000D03*
X3862500Y84950000D03*
X3862500Y84000000D03*
X3862500Y83050000D03*
D67*
X129000000Y68000000D03*
X129000000Y73080000D03*
X123920000Y68000000D03*
X123920000Y73080000D03*
D91*
X17887500Y55000000D03*
X17887500Y54500000D03*
X17887500Y54000000D03*
X17887500Y53500000D03*
X17887500Y53000000D03*
X22112500Y53000000D03*
X22112500Y53500000D03*
X22112500Y54000000D03*
X22112500Y54500000D03*
X22112500Y55000000D03*
D39*
X42062500Y60950000D03*
X42062500Y59050000D03*
X43937500Y60000000D03*
D31*
X175000Y85000000D03*
X1825000Y85000000D03*
D28*
X79775000Y72000000D03*
X78225000Y72000000D03*
D24*
X13950000Y67000000D03*
X12050000Y67000000D03*
D22*
X25225000Y65000000D03*
X26775000Y65000000D03*
D24*
X14950000Y55000000D03*
X13050000Y55000000D03*
X-8050000Y98000000D03*
X-9950000Y98000000D03*
D31*
X-10825000Y82000000D03*
X-9175000Y82000000D03*
D28*
X43775000Y53000000D03*
X42225000Y53000000D03*
D31*
X38175000Y57000000D03*
X39825000Y57000000D03*
D92*
X62525000Y56905000D03*
X62525000Y55635000D03*
X62525000Y54365000D03*
X62525000Y53095000D03*
X67475000Y53095000D03*
X67475000Y54365000D03*
X67475000Y55635000D03*
X67475000Y56905000D03*
D36*
X100825000Y60000000D03*
X99175000Y60000000D03*
D85*
X32950000Y65000000D03*
D86*
X34475000Y66475000D03*
X34475000Y63525000D03*
D36*
X117825000Y60000000D03*
X116175000Y60000000D03*
D28*
X63775000Y59000000D03*
X62225000Y59000000D03*
D36*
X175000Y96000000D03*
X1825000Y96000000D03*
D22*
X54225000Y53000000D03*
X55775000Y53000000D03*
X25225000Y59000000D03*
X26775000Y59000000D03*
D31*
X74175000Y72000000D03*
X75825000Y72000000D03*
D14*
X111050000Y99000000D03*
X108950000Y99000000D03*
D93*
X102250000Y73500000D03*
X102250000Y73000000D03*
X102250000Y72500000D03*
X103750000Y72500000D03*
X103750000Y73000000D03*
X103750000Y73500000D03*
D59*
X11000000Y101000000D03*
D31*
X42175000Y55000000D03*
X43825000Y55000000D03*
X25825000Y93000000D03*
X24175000Y93000000D03*
D20*
X121000000Y90775000D03*
X121000000Y89225000D03*
D92*
X46525000Y56905000D03*
X46525000Y55635000D03*
X46525000Y54365000D03*
X46525000Y53095000D03*
X51475000Y53095000D03*
X51475000Y54365000D03*
X51475000Y55635000D03*
X51475000Y56905000D03*
D36*
X25825000Y81000000D03*
X24175000Y81000000D03*
D22*
X-21775000Y82000000D03*
X-20225000Y82000000D03*
D94*
X96050000Y67000000D03*
D95*
X94525000Y65525000D03*
X94525000Y68475000D03*
D96*
X79000000Y60950000D03*
D97*
X77525000Y62475000D03*
X80475000Y62475000D03*
D72*
X60137500Y78050000D03*
X60137500Y79000000D03*
X60137500Y79950000D03*
X57862500Y79950000D03*
X57862500Y79000000D03*
X57862500Y78050000D03*
D31*
X20175000Y89000000D03*
X21825000Y89000000D03*
X69675000Y98000000D03*
X71325000Y98000000D03*
D22*
X25225000Y67000000D03*
X26775000Y67000000D03*
D70*
X106537500Y69500000D03*
X109462500Y69500000D03*
D36*
X30825000Y67000000D03*
X29175000Y67000000D03*
D28*
X24225000Y91000000D03*
X25775000Y91000000D03*
D22*
X42225000Y73000000D03*
X43775000Y73000000D03*
D31*
X92175000Y101000000D03*
X93825000Y101000000D03*
D45*
X96862500Y100950000D03*
X96862500Y100000000D03*
X96862500Y99050000D03*
X99137500Y99050000D03*
X99137500Y100000000D03*
X99137500Y100950000D03*
D31*
X92175000Y97000000D03*
X93825000Y97000000D03*
D98*
X-23300000Y98000000D03*
X-28700000Y98000000D03*
D45*
X102862500Y100950000D03*
X102862500Y100000000D03*
X102862500Y99050000D03*
X105137500Y99050000D03*
X105137500Y100000000D03*
X105137500Y100950000D03*
D84*
X-31500000Y97500000D03*
D96*
X73000000Y60950000D03*
D97*
X71525000Y62475000D03*
X74475000Y62475000D03*
D92*
X46525000Y66905000D03*
X46525000Y65635000D03*
X46525000Y64365000D03*
X46525000Y63095000D03*
X51475000Y63095000D03*
X51475000Y64365000D03*
X51475000Y65635000D03*
X51475000Y66905000D03*
D28*
X59775000Y66000000D03*
X58225000Y66000000D03*
D22*
X58225000Y72000000D03*
X59775000Y72000000D03*
D36*
X95825000Y61000000D03*
X94175000Y61000000D03*
D99*
X104190000Y66540000D03*
X104190000Y64000000D03*
X104190000Y61460000D03*
X111810000Y61460000D03*
X111810000Y64000000D03*
X111810000Y66540000D03*
D29*
X116050000Y54000000D03*
X117950000Y54000000D03*
D30*
X104850000Y58270000D03*
X104850000Y55730000D03*
X111150000Y55730000D03*
X111150000Y58270000D03*
D22*
X17225000Y59000000D03*
X18775000Y59000000D03*
D31*
X78175000Y59000000D03*
X79825000Y59000000D03*
D71*
X79475000Y53095000D03*
X79475000Y54365000D03*
X79475000Y55635000D03*
X79475000Y56905000D03*
X74525000Y56905000D03*
X74525000Y55635000D03*
X74525000Y54365000D03*
X74525000Y53095000D03*
D22*
X25225000Y55000000D03*
X26775000Y55000000D03*
D59*
X68000000Y77000000D03*
D28*
X83775000Y55000000D03*
X82225000Y55000000D03*
D34*
X50212500Y86500000D03*
X51787500Y86500000D03*
D44*
X-20137500Y89975000D03*
X-20137500Y89325000D03*
X-20137500Y88675000D03*
X-20137500Y88025000D03*
X-17862500Y88025000D03*
X-17862500Y88675000D03*
X-17862500Y89325000D03*
X-17862500Y89975000D03*
D22*
X83225000Y94000000D03*
X84775000Y94000000D03*
D24*
X98950000Y97000000D03*
X97050000Y97000000D03*
D49*
X3525000Y101000000D03*
X6475000Y101000000D03*
D59*
X79000000Y74000000D03*
D28*
X4225000Y96000000D03*
X5775000Y96000000D03*
D19*
X22000000Y95475000D03*
X22000000Y92525000D03*
D84*
X125500000Y97500000D03*
D100*
X-33641998Y66781340D03*
D40*
X-36025000Y54000000D03*
X-35431891Y55431891D03*
X-35431891Y52568109D03*
X-34000000Y56025000D03*
D41*
X-34000000Y54000000D03*
D40*
X-34000000Y51975000D03*
X-32568109Y55431891D03*
X-32568109Y52568109D03*
X-31975000Y54000000D03*
D59*
X43000000Y63000000D03*
D36*
X122825000Y54000000D03*
X121175000Y54000000D03*
X55825000Y57000000D03*
X54175000Y57000000D03*
D22*
X25225000Y53000000D03*
X26775000Y53000000D03*
D14*
X111050000Y97000000D03*
X108950000Y97000000D03*
D31*
X1825000Y98000000D03*
X175000Y98000000D03*
D87*
X114000000Y73825000D03*
X114000000Y72175000D03*
D40*
X-36025000Y100000000D03*
X-35431891Y101431891D03*
X-35431891Y98568109D03*
X-34000000Y102025000D03*
D41*
X-34000000Y100000000D03*
D40*
X-34000000Y97975000D03*
X-32568109Y101431891D03*
X-32568109Y98568109D03*
X-31975000Y100000000D03*
D78*
X93500000Y89660000D03*
D79*
X96040000Y73000000D03*
D80*
X93500000Y73000000D03*
X90960000Y73000000D03*
D33*
X34937500Y59050000D03*
X34937500Y60950000D03*
X33062500Y60000000D03*
D14*
X56050000Y59000000D03*
X53950000Y59000000D03*
D22*
X12225000Y61000000D03*
X13775000Y61000000D03*
D72*
X101137500Y56050000D03*
X101137500Y57000000D03*
X101137500Y57950000D03*
X98862500Y57950000D03*
X98862500Y57000000D03*
X98862500Y56050000D03*
D28*
X-8225000Y100000000D03*
X-9775000Y100000000D03*
D31*
X12175000Y63000000D03*
X13825000Y63000000D03*
D28*
X51775000Y69000000D03*
X50225000Y69000000D03*
D24*
X104950000Y97000000D03*
X103050000Y97000000D03*
D101*
X22862500Y61075000D03*
X22862500Y61725000D03*
X22862500Y62375000D03*
X22862500Y63025000D03*
X22862500Y63675000D03*
X22862500Y64325000D03*
X22862500Y64975000D03*
X22862500Y65625000D03*
X22862500Y66275000D03*
X22862500Y66925000D03*
X17137500Y66925000D03*
X17137500Y66275000D03*
X17137500Y65625000D03*
X17137500Y64975000D03*
X17137500Y64325000D03*
X17137500Y63675000D03*
X17137500Y63025000D03*
X17137500Y62375000D03*
X17137500Y61725000D03*
X17137500Y61075000D03*
D59*
X25000000Y89000000D03*
D31*
X33175000Y57000000D03*
X34825000Y57000000D03*
D36*
X47825000Y69000000D03*
X46175000Y69000000D03*
D102*
X-24000000Y56475000D03*
X-24000000Y53525000D03*
D24*
X79950000Y70250000D03*
X78050000Y70250000D03*
X75950000Y59000000D03*
X74050000Y59000000D03*
D36*
X75825000Y74000000D03*
X74175000Y74000000D03*
D103*
X67343503Y68343503D03*
D104*
X64656497Y65656497D03*
D105*
X64479720Y70535534D03*
X63472093Y69527907D03*
X62464466Y68520280D03*
X69535534Y65479720D03*
X68527907Y64472093D03*
X67520280Y63464466D03*
D106*
X68863782Y69863782D03*
X63136218Y64136218D03*
D28*
X103775000Y71000000D03*
X102225000Y71000000D03*
D107*
X-33000000Y87815000D03*
X-33000000Y94185000D03*
D22*
X29225000Y53000000D03*
X30775000Y53000000D03*
X-5775000Y86000000D03*
X-4225000Y86000000D03*
D31*
X94175000Y63000000D03*
X95825000Y63000000D03*
D55*
X126000000Y62270000D03*
D56*
X126000000Y59730000D03*
X126000000Y57190000D03*
D108*
X26750000Y70650000D03*
X26250000Y70650000D03*
X25750000Y70650000D03*
X25250000Y70650000D03*
X24750000Y70650000D03*
X24250000Y70650000D03*
X23750000Y70650000D03*
X23250000Y70650000D03*
X22750000Y70650000D03*
X22250000Y70650000D03*
X21750000Y70650000D03*
X21250000Y70650000D03*
X20750000Y70650000D03*
X20250000Y70650000D03*
X19750000Y70650000D03*
X19250000Y70650000D03*
X18750000Y70650000D03*
X18250000Y70650000D03*
X17750000Y70650000D03*
X17250000Y70650000D03*
X16750000Y70650000D03*
X16250000Y70650000D03*
X15750000Y70650000D03*
X15250000Y70650000D03*
D109*
X28420000Y72350000D03*
X13580000Y72350000D03*
D102*
X-16500000Y56475000D03*
X-16500000Y53525000D03*
X-21500000Y78475000D03*
X-21500000Y75525000D03*
D93*
X-12250000Y70500000D03*
X-12250000Y70000000D03*
X-12250000Y69500000D03*
X-10750000Y69500000D03*
X-10750000Y70000000D03*
X-10750000Y70500000D03*
D20*
X-24000000Y60775000D03*
X-24000000Y59225000D03*
X10000000Y60775000D03*
X10000000Y59225000D03*
D110*
X-26000000Y61050000D03*
X-26000000Y58950000D03*
D21*
X8000000Y71225000D03*
X8000000Y72775000D03*
X-9000000Y69225000D03*
X-9000000Y70775000D03*
D20*
X-12000000Y74775000D03*
X-12000000Y73225000D03*
D19*
X500000Y53525000D03*
X500000Y56475000D03*
D87*
X-22000000Y60825000D03*
X-22000000Y59175000D03*
D73*
X-6000000Y78000000D03*
X-10000000Y78000000D03*
D21*
X-14000000Y69225000D03*
X-14000000Y70775000D03*
D111*
X-16095000Y72725000D03*
X-17365000Y72725000D03*
X-18635000Y72725000D03*
X-19905000Y72725000D03*
D112*
X-18000000Y70000000D03*
D19*
X500000Y75525000D03*
X500000Y78475000D03*
D87*
X-4000000Y74825000D03*
X-4000000Y73175000D03*
X6000000Y60825000D03*
X6000000Y59175000D03*
D20*
X8000000Y60775000D03*
X8000000Y59225000D03*
D113*
X-8000000Y65550000D03*
X-8000000Y54450000D03*
D87*
X-28000000Y72825000D03*
X-28000000Y71175000D03*
D19*
X5500000Y75525000D03*
X5500000Y78475000D03*
D87*
X-14000000Y78825000D03*
X-14000000Y77175000D03*
X-6000000Y74825000D03*
X-6000000Y73175000D03*
D114*
X10000000Y70950000D03*
X10000000Y73050000D03*
D102*
X-16500000Y78475000D03*
X-16500000Y75525000D03*
D19*
X8000000Y75525000D03*
X8000000Y78475000D03*
D115*
X-6900000Y70750000D03*
X-6900000Y70250000D03*
X-6900000Y69750000D03*
X-6900000Y69250000D03*
X-4100000Y69250000D03*
X-4100000Y69750000D03*
X-4100000Y70250000D03*
X-4100000Y70750000D03*
D102*
X-19000000Y56475000D03*
X-19000000Y53525000D03*
D87*
X-2000000Y70825000D03*
X-2000000Y69175000D03*
D102*
X-19000000Y78475000D03*
X-19000000Y75525000D03*
X-21500000Y56475000D03*
X-21500000Y53525000D03*
D21*
X-26000000Y71225000D03*
X-26000000Y72775000D03*
D19*
X8000000Y53525000D03*
X8000000Y56475000D03*
X3000000Y53525000D03*
X3000000Y56475000D03*
D48*
X-2000000Y73175000D03*
X-2000000Y74825000D03*
X-22000000Y71175000D03*
X-22000000Y72825000D03*
D111*
X-16095000Y64725000D03*
X-17365000Y64725000D03*
X-18635000Y64725000D03*
X-19905000Y64725000D03*
D112*
X-18000000Y62000000D03*
D116*
X95000Y59275000D03*
X1365000Y59275000D03*
X2635000Y59275000D03*
X3905000Y59275000D03*
D117*
X2000000Y62000000D03*
D118*
X6095000Y63525000D03*
X7365000Y63525000D03*
X8635000Y63525000D03*
X9905000Y63525000D03*
X9905000Y68475000D03*
X8635000Y68475000D03*
X7365000Y68475000D03*
X6095000Y68475000D03*
D35*
X-9950000Y74650000D03*
X-9950000Y74000000D03*
X-9950000Y73350000D03*
X-8050000Y73350000D03*
X-8050000Y74650000D03*
D119*
X-22095000Y68475000D03*
X-23365000Y68475000D03*
X-24635000Y68475000D03*
X-25905000Y68475000D03*
X-25905000Y63525000D03*
X-24635000Y63525000D03*
X-23365000Y63525000D03*
X-22095000Y63525000D03*
D48*
X6000000Y71175000D03*
X6000000Y72825000D03*
D21*
X-24000000Y71225000D03*
X-24000000Y72775000D03*
D87*
X-14000000Y74825000D03*
X-14000000Y73175000D03*
D116*
X95000Y67275000D03*
X1365000Y67275000D03*
X2635000Y67275000D03*
X3905000Y67275000D03*
D117*
X2000000Y70000000D03*
D120*
X-2000000Y78000000D03*
D19*
X3000000Y75525000D03*
X3000000Y78475000D03*
D48*
X10000000Y55175000D03*
X10000000Y56825000D03*
M02*
