M48
; DRILL file {KiCad 8.0.5} date 2025-10-29T22:00:47-0700
; FORMAT={-:-/ absolute / inch / decimal}
; #@! TF.CreationDate,2025-10-29T22:00:47-07:00
; #@! TF.GenerationSoftware,Kicad,Pcbnew,8.0.5
; #@! TF.FileFunction,Plated,1,4,PTH
FMAT,2
INCH
; #@! TA.AperFunction,Plated,PTH,ViaDrill
T1C0.0118
; #@! TA.AperFunction,Plated,PTH,ComponentDrill
T2C0.0118
; #@! TA.AperFunction,Plated,PTH,ComponentDrill
T3C0.0197
; #@! TA.AperFunction,Plated,PTH,ComponentDrill
T4C0.0236
; #@! TA.AperFunction,Plated,PTH,ComponentDrill
T5C0.0295
; #@! TA.AperFunction,Plated,PTH,ComponentDrill
T6C0.0394
; #@! TA.AperFunction,Plated,PTH,ComponentDrill
T7C0.0433
; #@! TA.AperFunction,Plated,PTH,ComponentDrill
T8C0.0630
; #@! TA.AperFunction,Plated,PTH,ComponentDrill
T9C0.1063
%
G90
G05
T1
X-1.3169Y2.6103
X-1.2598Y3.1693
X-1.2598Y3.1299
X-1.2205Y3.2087
X-1.2205Y3.0906
X-1.2205Y2.8346
X-1.1811Y3.9173
X-1.1811Y3.7992
X-1.1614Y3.937
X-1.1614Y3.7795
X-1.1417Y3.9173
X-1.1417Y3.7992
X-1.1417Y2.7559
X-1.122Y3.937
X-1.122Y3.7795
X-1.122Y3.248
X-1.122Y3.1201
X-1.122Y3.0512
X-1.1122Y3.1791
X-1.1024Y3.9173
X-1.1024Y3.7992
X-1.1024Y2.9134
X-1.0433Y3.3858
X-1.0433Y3.1693
X-1.0236Y3.0315
X-1.0236Y2.7559
X-1.0236Y2.3622
X-1.0039Y3.3858
X-0.9843Y3.2874
X-0.9843Y3.0709
X-0.9843Y2.9921
X-0.9843Y2.874
X-0.9843Y2.7559
X-0.9828Y2.4409
X-0.9646Y2.0669
X-0.9252Y2.0669
X-0.9154Y3.3465
X-0.9055Y3.248
X-0.8661Y3.2677
X-0.8661Y3.1299
X-0.8661Y2.9331
X-0.8661Y2.0669
X-0.8268Y3.7402
X-0.8268Y3.1299
X-0.8268Y2.9331
X-0.8268Y2.0669
X-0.7874Y3.4252
X-0.7874Y3.2677
X-0.7874Y2.6378
X-0.7874Y2.3228
X-0.7677Y3.1299
X-0.7677Y2.9331
X-0.7677Y2.7559
X-0.7677Y2.6772
X-0.7677Y2.4409
X-0.7677Y2.3622
X-0.7677Y2.0669
X-0.748Y3.7402
X-0.748Y2.7165
X-0.748Y2.6378
X-0.748Y2.4016
X-0.748Y2.3228
X-0.7283Y3.1299
X-0.7283Y2.9331
X-0.7283Y2.7559
X-0.7283Y2.6772
X-0.7283Y2.4409
X-0.7283Y2.3622
X-0.7283Y2.0669
X-0.7087Y3.7008
X-0.7087Y3.4252
X-0.7087Y2.7165
X-0.7087Y2.6378
X-0.7087Y2.4016
X-0.7087Y2.3228
X-0.689Y2.7559
X-0.689Y2.6772
X-0.689Y2.4409
X-0.689Y2.3622
X-0.6693Y3.7402
X-0.6693Y3.1299
X-0.6693Y2.9331
X-0.6693Y2.7165
X-0.6693Y2.6378
X-0.6693Y2.4016
X-0.6693Y2.3228
X-0.6693Y2.0669
X-0.6496Y3.4843
X-0.6496Y3.4449
X-0.6496Y2.7559
X-0.6496Y2.6772
X-0.6496Y2.4409
X-0.6496Y2.3622
X-0.6299Y3.7008
X-0.6299Y3.3071
X-0.6299Y3.1299
X-0.6299Y2.9331
X-0.6299Y2.6378
X-0.6299Y2.3228
X-0.6299Y2.0669
X-0.5709Y4.0157
X-0.5315Y4.0157
X-0.5118Y3.1988
X-0.5118Y3.1594
X-0.5118Y2.8346
X-0.5118Y2.7953
X-0.5118Y2.7165
X-0.4724Y3.6024
X-0.4724Y3.563
X-0.4724Y3.5236
X-0.4724Y3.4843
X-0.4724Y3.2283
X-0.4724Y3.1299
X-0.4724Y2.7953
X-0.4331Y3.5827
X-0.4331Y3.5433
X-0.4331Y3.5039
X-0.4331Y3.1299
X-0.4331Y2.9528
X-0.4331Y2.874
X-0.3937Y3.9764
X-0.3937Y3.8976
X-0.3937Y3.8189
X-0.3937Y3.6024
X-0.3937Y3.563
X-0.3937Y3.5236
X-0.3937Y3.4843
X-0.3937Y2.7165
X-0.3543Y3.622
X-0.3543Y3.5827
X-0.3543Y3.5433
X-0.3543Y3.5039
X-0.3543Y3.4646
X-0.3543Y2.8346
X-0.2362Y3.4252
X-0.2165Y3.3071
X-0.1969Y3.8976
X-0.1575Y3.4252
X-0.1378Y3.6811
X-0.1181Y3.7008
X-0.1181Y2.7559
X-0.1177Y2.8342
X-0.0984Y3.6811
X-0.0984Y3.6417
X-0.0984Y3.6024
X-0.0984Y3.5433
X-0.0984Y3.4843
X-0.0984Y3.4449
X-0.0787Y3.9764
X-0.0787Y3.937
X-0.0787Y3.8976
X-0.0787Y3.7008
X-0.0787Y3.6614
X-0.0787Y3.622
X0.0Y3.1299
X0.0Y2.874
X0.0Y2.5591
X0.0Y2.2638
X0.0Y2.0669
X0.0197Y2.8346
X0.0197Y2.7559
X0.0197Y2.5197
X0.0197Y2.4409
X0.0394Y3.6614
X0.0394Y3.1299
X0.0394Y2.874
X0.0394Y2.7953
X0.0394Y2.5591
X0.0394Y2.4803
X0.0394Y2.2638
X0.0394Y2.0669
X0.0591Y2.8346
X0.0591Y2.7559
X0.0591Y2.5197
X0.0591Y2.4409
X0.0787Y2.874
X0.0787Y2.7953
X0.0787Y2.5591
X0.0787Y2.4803
X0.0984Y3.1299
X0.0984Y2.8346
X0.0984Y2.7559
X0.0984Y2.5197
X0.0984Y2.4409
X0.0984Y2.2638
X0.0984Y2.0669
X0.1181Y3.7795
X0.1181Y3.4252
X0.1181Y2.874
X0.1181Y2.7953
X0.1181Y2.5591
X0.1181Y2.4803
X0.1378Y3.8189
X0.1378Y3.1299
X0.1378Y2.8346
X0.1378Y2.7559
X0.1378Y2.5197
X0.1378Y2.4409
X0.1378Y2.2638
X0.1378Y2.0669
X0.1575Y3.7402
X0.1575Y3.4646
X0.1575Y3.3858
X0.1575Y2.874
X0.1575Y2.5591
X0.1969Y3.1299
X0.1969Y2.2638
X0.1969Y2.0669
X0.2362Y3.7402
X0.2362Y3.1299
X0.2362Y2.2638
X0.2362Y2.0669
X0.2559Y3.8189
X0.2953Y3.1299
X0.2953Y2.2638
X0.2953Y2.0669
X0.3346Y3.1299
X0.3346Y2.2638
X0.3346Y2.0669
X0.3529Y2.7559
X0.3543Y2.4409
X0.3543Y2.3228
X0.374Y3.8976
X0.374Y3.5433
X0.3937Y2.8346
X0.3937Y2.4409
X0.3937Y2.126
X0.4134Y3.8976
X0.4134Y3.5433
X0.4331Y2.9724
X0.4724Y3.8976
X0.4724Y3.5433
X0.4724Y2.5984
X0.5118Y3.8976
X0.5118Y3.8583
X0.5118Y3.5433
X0.5118Y3.5039
X0.5118Y2.3622
X0.5512Y3.1496
X0.5512Y3.1102
X0.5512Y2.5984
X0.5512Y2.1063
X0.5906Y3.5039
X0.6102Y2.5984
X0.6102Y2.5591
X0.6102Y2.5197
X0.6102Y2.4803
X0.6102Y2.4409
X0.6299Y3.5039
X0.6299Y3.3071
X0.6299Y2.8346
X0.6496Y2.1457
X0.6496Y2.1063
X0.6693Y3.5039
X0.7087Y3.3071
X0.7087Y3.189
X0.7087Y3.1496
X0.7087Y2.9921
X0.748Y2.9921
X0.748Y2.3622
X0.748Y2.2835
X0.7874Y3.4646
X0.8071Y3.189
X0.8071Y3.1496
X0.8071Y3.1102
X0.8268Y2.7165
X0.8268Y2.3622
X0.8661Y2.7165
X0.9055Y3.5039
X0.9055Y3.4252
X0.9055Y2.2047
X0.9449Y3.7008
X0.9449Y2.3622
X0.9646Y2.1654
X0.9646Y2.0866
X0.9843Y3.7008
X0.9843Y3.622
X0.9843Y3.1496
X1.0236Y2.3622
X1.063Y2.3622
X1.0827Y3.7402
X1.0827Y3.7008
X1.0827Y2.1654
X1.0827Y2.0866
X1.1024Y3.5827
X1.1024Y3.5433
X1.1024Y3.5039
X1.1024Y3.3465
X1.1024Y3.3071
X1.1024Y3.248
X1.1024Y2.6378
X1.1024Y2.5591
X1.1024Y2.4803
X1.122Y2.1654
X1.122Y2.0866
X1.1811Y2.4016
X1.2008Y3.7402
X1.2205Y3.3465
X1.2205Y2.9921
X1.2402Y2.1654
X1.2402Y2.0866
X1.2411Y2.3622
X1.2598Y2.7805
X1.2598Y2.6378
X1.2992Y3.2677
X1.3189Y2.9921
X1.3189Y2.4016
X1.378Y2.9921
X1.378Y2.8346
X1.378Y2.0866
X1.4173Y2.9921
X1.4764Y2.9921
X1.4961Y3.3071
X1.4961Y3.2677
X1.5157Y2.9921
X1.5354Y2.7756
X1.5748Y2.9921
X1.5748Y2.0866
X1.6142Y2.9921
X1.6535Y2.6772
X1.6535Y2.3622
X1.6732Y2.9921
X1.6929Y2.2047
X1.6929Y2.126
X1.7126Y2.9921
X1.7323Y3.5236
X1.7323Y2.4016
X1.7717Y2.9134
X1.7717Y2.7953
X1.7717Y2.7165
X1.7815Y2.4016
X1.7913Y3.7402
X1.7913Y3.6024
X1.8898Y3.7008
X1.8898Y3.6614
X1.8898Y3.5039
X1.8898Y3.4449
X1.8898Y3.4055
X1.8898Y3.3465
X1.8898Y2.1654
X1.9094Y2.8346
X1.9291Y2.3228
X1.9685Y3.5236
X1.9685Y2.9134
X1.9685Y2.6772
X1.9685Y2.4409
X1.9685Y2.2835
X1.9685Y2.1654
X2.0079Y2.8346
X2.0472Y3.5236
X2.0472Y2.9921
X2.0472Y2.9134
X2.0472Y2.6772
X2.0472Y2.2835
X2.0866Y3.5236
X2.0866Y2.3622
X2.126Y3.622
X2.126Y3.4646
X2.1654Y2.5197
X2.1654Y2.4409
X2.1654Y2.2835
X2.1654Y2.2047
X2.1654Y2.126
X2.2244Y2.4016
X2.2441Y3.4252
X2.2441Y2.6378
X2.2441Y2.126
X2.2494Y3.6614
X2.2835Y2.7953
X2.2835Y2.5591
X2.2835Y2.3622
X2.2835Y2.1654
X2.3228Y2.2441
X2.3622Y2.7953
X2.3622Y2.5591
X2.3622Y2.3622
X2.4016Y3.0315
X2.4016Y2.8346
X2.4016Y2.7941
X2.4016Y2.5591
X2.4016Y2.1654
X2.5197Y4.0157
X2.5197Y3.1299
X2.5197Y2.8346
X2.5197Y2.1654
X2.5591Y2.8346
X2.5591Y2.3228
X2.5984Y2.2835
X2.5984Y2.2441
X2.6772Y4.0157
X2.6772Y3.1693
X2.6772Y3.1299
X2.7165Y2.3228
X2.7362Y3.8976
X2.7362Y2.6378
X2.7559Y2.4409
X2.7953Y2.2047
X2.7953Y2.126
X2.8346Y2.6378
X2.874Y2.2835
X2.874Y2.185
X2.874Y2.1457
X2.9134Y2.2835
X2.9331Y3.8189
X2.9331Y3.6614
X2.9331Y3.4252
X2.9724Y3.8189
X2.9921Y2.6378
X2.9921Y2.4803
X2.9921Y2.2835
X3.0118Y3.9173
X3.0118Y3.7992
X3.0512Y3.9173
X3.0512Y3.8041
X3.0512Y2.7165
X3.0709Y3.622
X3.0709Y3.4646
X3.0709Y3.189
X3.1496Y3.189
X3.189Y2.5591
X3.189Y2.0866
X3.2087Y3.1496
X3.2087Y3.1102
X3.2087Y2.7559
X3.2283Y2.5591
X3.248Y2.7953
X3.248Y2.7559
X3.2677Y3.6614
X3.2677Y3.3465
X3.2677Y3.0709
X3.2677Y2.9921
X3.2677Y2.9134
X3.3268Y3.3858
X3.3465Y3.6614
X3.3465Y3.0709
X3.3465Y2.9921
X3.3465Y2.9134
X3.3465Y2.4803
X3.3465Y2.185
X3.3465Y2.1457
X3.3858Y2.7165
X3.3858Y2.2835
X3.4252Y2.7165
X3.4252Y2.6772
X3.4646Y2.2835
X3.5433Y2.5984
X3.622Y2.5984
X3.6614Y2.5197
X3.7402Y3.0709
X3.7402Y2.5197
X3.7402Y2.4409
X3.7402Y2.3622
X3.7795Y3.8583
X3.8189Y3.8583
X3.8583Y2.3622
X3.8976Y3.878
X3.8976Y2.5197
X3.8976Y2.1654
X3.937Y3.8583
X3.9764Y2.5197
X3.9764Y2.1654
X4.0157Y3.8583
X4.0354Y2.9134
X4.0354Y2.6378
X4.0354Y2.5591
X4.0354Y2.2835
X4.0354Y2.2047
X4.0551Y3.8583
X4.0551Y2.8346
X4.0748Y2.9134
X4.0945Y2.126
X4.1142Y2.8346
X4.1339Y3.878
X4.1732Y3.8583
X4.252Y2.5591
X4.311Y2.2047
X4.4094Y2.6772
X4.4882Y3.622
X4.4882Y3.5827
X4.4882Y3.0315
X4.4882Y2.9921
X4.5276Y3.622
X4.5276Y3.5827
X4.5276Y3.0315
X4.5276Y2.9921
X4.5276Y2.3622
X4.5669Y3.9173
X4.5669Y3.7992
X4.5669Y2.1654
X4.5866Y3.937
X4.5866Y3.7795
X4.6063Y3.9173
X4.6063Y3.7992
X4.626Y3.937
X4.626Y3.7795
X4.6457Y3.9173
X4.6457Y3.7992
X4.6457Y2.1654
X4.685Y2.8346
X4.685Y2.7165
X4.7047Y2.2835
X4.7441Y2.7165
X4.7835Y2.8346
X4.8031Y3.9173
X4.8031Y3.7992
X4.8031Y2.2441
X4.8031Y2.1654
X4.8228Y3.937
X4.8228Y3.7795
X4.8425Y3.9173
X4.8425Y3.7992
X4.8622Y3.937
X4.8622Y3.7795
X4.8819Y3.9173
X4.8819Y3.7992
T2
X1.3819Y3.474
X1.3819Y3.4189
X1.4094Y3.5016
X1.4094Y3.4465
X1.4094Y3.3913
X1.437Y3.474
X1.437Y3.4189
X1.4646Y3.5016
X1.4646Y3.4465
X1.4646Y3.3913
X1.4921Y3.474
X1.4921Y3.4189
T3
X-1.4183Y3.937
X-1.4183Y2.126
X-1.395Y3.9934
X-1.395Y3.8806
X-1.395Y2.1824
X-1.395Y2.0696
X-1.3386Y4.0167
X-1.3386Y3.8573
X-1.3386Y2.2057
X-1.3386Y2.0463
X-1.2822Y3.9934
X-1.2822Y3.8806
X-1.2822Y2.1824
X-1.2822Y2.0696
X-1.2589Y3.937
X-1.2589Y2.126
X4.9596Y3.937
X4.9596Y2.126
X4.983Y3.9934
X4.983Y3.8806
X4.983Y2.1824
X4.983Y2.0696
X5.0394Y4.0167
X5.0394Y3.8573
X5.0394Y2.2057
X5.0394Y2.0463
X5.0957Y3.9934
X5.0957Y3.8806
X5.0957Y2.1824
X5.0957Y2.0696
X5.1191Y3.937
X5.1191Y2.126
T5
X-0.5512Y3.937
X-0.5512Y3.8583
X3.3071Y3.937
X3.3071Y3.8583
T6
X4.9606Y3.1996
X4.9606Y3.0996
X4.9606Y2.4516
X4.9606Y2.3516
X4.9606Y2.2516
T7
X3.5811Y2.874
X3.6811Y2.874
X3.7811Y2.874
X4.1717Y2.874
X4.2717Y2.874
X4.3717Y2.874
T8
X4.8787Y3.6252
X4.8787Y3.4252
X4.8787Y2.8772
X4.8787Y2.6772
X5.0787Y3.6252
X5.0787Y3.4252
X5.0787Y2.8772
X5.0787Y2.6772
T9
X-1.3386Y3.937
X-1.3386Y2.126
X5.0394Y3.937
X5.0394Y2.126
T4
G00X-1.3382Y3.3197
M15
G01X-1.3618Y3.3197
M16
G05
G00X-1.3382Y2.9795
M15
G01X-1.3618Y2.9795
M16
G05
G00X-1.1638Y3.3197
M15
G01X-1.2071Y3.3197
M16
G05
G00X-1.1638Y2.9795
M15
G01X-1.2071Y2.9795
M16
G05
M30
