M48
; DRILL file {KiCad 7.0.8} date Sun Apr 21 12:19:54 2024
; FORMAT={-:-/ absolute / inch / decimal}
; #@! TF.CreationDate,2024-04-21T12:19:54-07:00
; #@! TF.GenerationSoftware,Kicad,Pcbnew,7.0.8
; #@! TF.FileFunction,Plated,1,4,PTH
FMAT,2
INCH
; #@! TA.AperFunction,Plated,PTH,ViaDrill
T1C0.0118
; #@! TA.AperFunction,Plated,PTH,ComponentDrill
T2C0.0118
; #@! TA.AperFunction,Plated,PTH,ComponentDrill
T3C0.0197
; #@! TA.AperFunction,Plated,PTH,ComponentDrill
T4C0.0236
; #@! TA.AperFunction,Plated,PTH,ComponentDrill
T5C0.0295
; #@! TA.AperFunction,Plated,PTH,ViaDrill
T6C0.0315
; #@! TA.AperFunction,Plated,PTH,ComponentDrill
T7C0.0394
; #@! TA.AperFunction,Plated,PTH,ComponentDrill
T8C0.0630
; #@! TA.AperFunction,Plated,PTH,ComponentDrill
T9C0.1063
%
G90
G05
T1
X-2.5984Y1.122
X-2.5984Y1.0827
X-2.5591Y1.2008
X-2.5394Y0.9646
X-2.5394Y0.9252
X-2.5295Y1.1024
X-2.5197Y1.1614
X-2.499Y-0.4154
X-2.4803Y1.2598
X-2.4803Y0.8268
X-2.4409Y1.3583
X-2.4409Y0.7874
X-2.4016Y1.2598
X-2.4016Y0.9055
X-2.3622Y0.8661
X-2.3425Y1.1024
X-2.2835Y1.4173
X-2.2835Y1.2205
X-2.2835Y1.1417
X-2.2835Y0.9646
X-2.2835Y0.8858
X-2.126Y1.2992
X-2.126Y0.9646
X-1.9685Y1.4173
X-1.9685Y1.2992
X-1.9685Y0.9843
X-1.9685Y0.9449
X-1.9685Y0.7874
X-1.9291Y0.5512
X-1.9291Y0.4724
X-1.6336Y-0.1969
X-1.6142Y1.378
X-1.6142Y1.2992
X-1.6142Y1.2205
X-1.6142Y0.9843
X-1.6142Y0.9055
X-1.6142Y0.8268
X-1.6142Y0.4724
X-1.6142Y-0.2756
X-1.4567Y0.0394
X-1.378Y1.4961
X-1.378Y1.1024
X-1.2992Y0.1969
X-1.2992Y0.1181
X-1.2992Y0.0394
X-1.2795Y-0.3346
X-1.2402Y-0.3346
X-1.1417Y1.378
X-1.1417Y1.2992
X-1.1417Y1.2205
X-1.1417Y0.9843
X-1.1417Y0.9055
X-1.1417Y0.8268
X-1.122Y-0.0197
X-1.122Y-0.0591
X-1.1024Y1.3386
X-1.1024Y1.2598
X-1.1024Y0.9449
X-1.1024Y0.8661
X-1.0433Y1.378
X-1.0433Y1.2992
X-1.0433Y1.2205
X-1.0433Y0.9843
X-1.0433Y0.9055
X-1.0433Y0.8268
X-1.0236Y0.1181
X-0.9843Y1.3386
X-0.9843Y1.2598
X-0.9843Y0.9449
X-0.9843Y0.8661
X-0.9449Y1.378
X-0.9449Y1.2992
X-0.9449Y1.2205
X-0.9449Y0.9843
X-0.9449Y0.9055
X-0.9449Y0.8268
X-0.9252Y0.748
X-0.8268Y1.4961
X-0.8268Y1.1024
X-0.8071Y0.748
X-0.748Y0.748
X-0.748Y0.6693
X-0.7283Y0.0197
X-0.7283Y-0.3346
X-0.6693Y0.0197
X-0.5906Y1.378
X-0.5906Y1.2992
X-0.5906Y1.2205
X-0.5906Y0.9843
X-0.5906Y0.9055
X-0.5906Y0.8268
X-0.5709Y-0.1772
X-0.5512Y1.3386
X-0.5512Y1.2598
X-0.5512Y0.9449
X-0.5512Y0.8661
X-0.5512Y0.6299
X-0.5512Y0.1181
X-0.5118Y0.5512
X-0.5118Y0.3937
X-0.4921Y1.378
X-0.4921Y1.2992
X-0.4921Y1.2205
X-0.4921Y0.9843
X-0.4921Y0.9055
X-0.4921Y0.8268
X-0.4724Y0.6299
X-0.4724Y0.5512
X-0.4724Y0.3937
X-0.4724Y0.1181
X-0.4331Y1.3386
X-0.4331Y1.2598
X-0.4331Y0.9449
X-0.4331Y0.8661
X-0.3937Y1.378
X-0.3937Y1.2992
X-0.3937Y1.2205
X-0.3937Y0.9843
X-0.3937Y0.9055
X-0.3937Y0.8268
X-0.3543Y-0.1575
X-0.2756Y0.3937
X-0.2756Y0.1181
X-0.2362Y0.3543
X-0.2362Y0.315
X-0.2362Y0.1575
X-0.2362Y-0.1181
X-0.2362Y-0.1772
X-0.2362Y-0.2756
X-0.1575Y0.4331
X-0.1575Y0.3937
X-0.1181Y0.4331
X-0.0787Y-0.1181
X-0.0787Y-0.1575
X-0.0787Y-0.2756
X-0.0394Y0.3937
X0.0394Y0.7087
X0.1181Y-0.1181
X0.1181Y-0.1575
X0.1181Y-0.1969
X0.1181Y-0.2362
X0.1575Y0.9449
X0.1575Y0.8661
X0.1575Y0.5118
X0.1575Y-0.1181
X0.1575Y-0.2756
X0.1969Y0.0787
X0.1969Y0.0394
X0.2756Y0.5118
X0.315Y1.4567
X0.315Y1.1024
X0.315Y1.063
X0.315Y0.7087
X0.315Y0.1575
X0.315Y0.1181
X0.3543Y1.2598
X0.3543Y0.9449
X0.3543Y0.5118
X0.4331Y1.2992
X0.4331Y1.1811
X0.4331Y0.8661
X0.4724Y1.4567
X0.4724Y1.063
X0.5512Y-0.1969
X0.5906Y-0.1969
X0.6299Y1.1811
X0.6299Y0.8661
X0.6299Y0.748
X0.6299Y0.2165
X0.6693Y0.2559
X0.6693Y-0.2756
X0.7087Y1.1417
X0.7087Y0.9055
X0.7087Y0.6693
X0.748Y1.1811
X0.7874Y1.2598
X0.7874Y0.8661
X0.8268Y1.1811
X0.8268Y0.7087
X0.8661Y1.4567
X0.8661Y1.063
X0.8661Y0.9843
X0.8661Y0.2362
X0.8661Y-0.0394
X0.9055Y0.0
X0.9055Y-0.0394
X0.9449Y0.5118
X0.9449Y0.4331
X0.9449Y0.2756
X0.9449Y0.0394
X0.9449Y0.0
X0.9843Y0.0787
X0.9843Y0.0394
X0.9843Y-0.1969
X1.0236Y1.4567
X1.0236Y1.063
X1.0236Y0.5118
X1.1024Y0.5118
X1.1024Y0.4331
X1.1811Y0.5512
X1.1811Y0.3543
X1.1811Y0.315
X1.1811Y0.2362
X1.2598Y0.9449
X1.2598Y0.3543
X1.2598Y0.2756
X1.2923Y0.8661
X1.3386Y0.8661
X1.3386Y0.3937
X1.3386Y0.315
X1.3386Y0.2362
X1.378Y0.5118
X1.4173Y0.4331
X1.4567Y0.7087
X1.4961Y1.063
X1.5354Y1.1614
X1.6142Y0.1969
X1.6339Y1.1614
X1.6535Y1.0827
X1.6535Y0.9449
X1.6535Y0.6693
X1.6535Y0.5512
X1.6535Y0.5118
X1.6535Y0.1969
X1.6929Y0.1969
X1.7323Y1.4173
X1.7323Y1.2598
X1.7323Y0.7087
X1.7323Y0.1969
X1.811Y1.4961
X1.8504Y0.7874
X1.8504Y0.7087
X1.8898Y0.5118
X1.8898Y0.3543
X1.8898Y0.2756
X1.9291Y1.063
X1.9291Y0.9843
X1.9685Y1.4567
X2.0472Y1.4173
X2.0866Y1.063
X2.126Y1.1811
X2.126Y0.9843
X2.1654Y1.1024
X2.1654Y0.5906
X2.1654Y0.1969
X2.2146Y1.0827
X2.2441Y1.378
X2.2441Y1.2992
X2.2441Y1.2205
X2.2441Y0.9843
X2.2441Y0.9055
X2.2441Y0.8268
X2.2835Y1.3386
X2.2835Y1.2598
X2.2835Y0.9449
X2.2835Y0.8661
X2.3425Y1.378
X2.3425Y1.2992
X2.3425Y1.2205
X2.3425Y0.9843
X2.3425Y0.9055
X2.3425Y0.8268
X2.3524Y1.0827
X2.4016Y1.3386
X2.4016Y1.2598
X2.4016Y0.9449
X2.4016Y0.8661
X2.4409Y1.378
X2.4409Y1.2992
X2.4409Y1.2205
X2.4409Y0.9843
X2.4409Y0.9055
X2.4409Y0.8268
X2.4606Y0.374
X2.4606Y-0.0197
X2.5591Y0.5709
X2.5591Y0.5315
X2.5591Y0.1772
X2.5591Y0.1378
X2.6575Y0.4508
X2.6575Y0.0591
X2.7165Y0.5315
X2.7165Y0.1378
T2
X0.3976Y0.0457
X0.3976Y-0.0094
X0.4252Y0.0732
X0.4252Y0.0181
X0.4252Y-0.037
X0.4528Y0.0457
X0.4528Y-0.0094
X0.4803Y0.0732
X0.4803Y0.0181
X0.4803Y-0.037
X0.5079Y0.0457
X0.5079Y-0.0094
T3
X-2.9144Y1.4567
X-2.9144Y-0.4724
X-2.891Y1.5131
X-2.891Y1.4003
X-2.891Y-0.4161
X-2.891Y-0.5288
X-2.8346Y1.5364
X-2.8346Y1.377
X-2.8346Y-0.3927
X-2.8346Y-0.5522
X-2.7783Y1.5131
X-2.7783Y1.4003
X-2.7783Y-0.4161
X-2.7783Y-0.5288
X-2.7549Y1.4567
X-2.7549Y-0.4724
X2.9518Y1.4567
X2.9518Y-0.4724
X2.9751Y1.5131
X2.9751Y1.4003
X2.9751Y-0.4161
X2.9751Y-0.5288
X3.0315Y1.5364
X3.0315Y1.377
X3.0315Y-0.3927
X3.0315Y-0.5522
X3.0879Y1.5131
X3.0879Y1.4003
X3.0879Y-0.4161
X3.0879Y-0.5288
X3.1112Y1.4567
X3.1112Y-0.4724
T5
X-2.1654Y-0.1181
X-2.1654Y-0.1969
T6
X-2.874Y0.7087
X-2.874Y0.6299
X-2.7953Y0.7087
X-2.7165Y0.7087
X-2.6378Y0.7087
X-2.2835Y0.3937
X-2.2047Y0.4921
X-2.2047Y0.4331
X-2.2047Y0.374
X-2.2047Y0.0984
X-2.126Y0.3937
X-2.0079Y0.1969
X-2.0079Y0.0394
X-1.9291Y1.1417
X-1.9291Y0.748
X-1.8504Y0.6693
X-1.8504Y0.1969
X-1.8504Y0.0394
X-1.8307Y0.3543
X-1.811Y0.5906
X-1.7717Y1.1417
X-1.7717Y0.748
X-1.6535Y0.5906
X-1.6142Y0.6693
X-1.378Y-0.4528
X-1.3386Y0.935
X-1.3386Y0.876
X-1.3386Y-0.315
X-1.2598Y0.935
X-1.2598Y0.876
X-1.2402Y0.3543
X-0.7874Y0.935
X-0.7874Y0.876
X-0.7087Y0.935
X-0.7087Y0.876
X-0.315Y1.4173
X-0.315Y1.1811
X0.8165Y-0.2858
X0.9843Y-0.2756
X1.1417Y0.748
X1.1811Y0.6299
X2.0276Y-0.1575
X2.2648Y-0.2165
X2.3809Y-0.2165
X2.6772Y-0.2362
X2.6772Y-0.3937
X2.8346Y-0.2362
X2.8346Y-0.3937
T7
X2.9882Y0.7587
X2.9882Y0.6587
X2.9882Y-0.0969
X2.9882Y-0.1969
X2.9882Y-0.2969
T8
X2.8315Y1.1843
X2.8315Y0.9843
X2.8315Y0.4362
X2.8315Y0.2362
X3.0315Y1.1843
X3.0315Y0.9843
X3.0315Y0.4362
X3.0315Y0.2362
T9
X-2.8346Y1.4567
X-2.8346Y-0.4724
X3.0315Y1.4567
X3.0315Y-0.4724
T4
G00X-2.8343Y1.2724
M15
G01X-2.8579Y1.2724
M16
G05
G00X-2.8343Y0.9323
M15
G01X-2.8579Y0.9323
M16
G05
G00X-2.6598Y1.2724
M15
G01X-2.7031Y1.2724
M16
G05
G00X-2.6598Y0.9323
M15
G01X-2.7031Y0.9323
M16
G05
T0
M30
