G04 #@! TF.GenerationSoftware,KiCad,Pcbnew,8.0.5*
G04 #@! TF.CreationDate,2026-06-23T02:06:02-07:00*
G04 #@! TF.ProjectId,BleJoystick_stick,426c654a-6f79-4737-9469-636b5f737469,rev?*
G04 #@! TF.SameCoordinates,PX5f5e100PY5f5e100*
G04 #@! TF.FileFunction,Legend,Bot*
G04 #@! TF.FilePolarity,Positive*
%FSLAX46Y46*%
G04 Gerber Fmt 4.6, Leading zero omitted, Abs format (unit mm)*
G04 Created by KiCad (PCBNEW 8.0.5) date 2026-06-23 02:06:02*
%MOMM*%
%LPD*%
G01*
G04 APERTURE LIST*
%ADD10C,0.150000*%
%ADD11C,0.100000*%
G04 APERTURE END LIST*
D10*
X3314286Y-3736065D02*
X3200000Y-3783684D01*
X3200000Y-3783684D02*
X3161905Y-3831303D01*
X3161905Y-3831303D02*
X3123809Y-3926541D01*
X3123809Y-3926541D02*
X3123809Y-4069398D01*
X3123809Y-4069398D02*
X3161905Y-4164636D01*
X3161905Y-4164636D02*
X3200000Y-4212256D01*
X3200000Y-4212256D02*
X3276190Y-4259875D01*
X3276190Y-4259875D02*
X3580952Y-4259875D01*
X3580952Y-4259875D02*
X3580952Y-3259875D01*
X3580952Y-3259875D02*
X3314286Y-3259875D01*
X3314286Y-3259875D02*
X3238095Y-3307494D01*
X3238095Y-3307494D02*
X3200000Y-3355113D01*
X3200000Y-3355113D02*
X3161905Y-3450351D01*
X3161905Y-3450351D02*
X3161905Y-3545589D01*
X3161905Y-3545589D02*
X3200000Y-3640827D01*
X3200000Y-3640827D02*
X3238095Y-3688446D01*
X3238095Y-3688446D02*
X3314286Y-3736065D01*
X3314286Y-3736065D02*
X3580952Y-3736065D01*
X2400000Y-4259875D02*
X2780952Y-4259875D01*
X2780952Y-4259875D02*
X2780952Y-3259875D01*
X2133333Y-3736065D02*
X1866667Y-3736065D01*
X1752381Y-4259875D02*
X2133333Y-4259875D01*
X2133333Y-4259875D02*
X2133333Y-3259875D01*
X2133333Y-3259875D02*
X1752381Y-3259875D01*
X571428Y-3259875D02*
X571428Y-3974160D01*
X571428Y-3974160D02*
X609523Y-4117017D01*
X609523Y-4117017D02*
X685714Y-4212256D01*
X685714Y-4212256D02*
X799999Y-4259875D01*
X799999Y-4259875D02*
X876190Y-4259875D01*
X76190Y-4259875D02*
X152380Y-4212256D01*
X152380Y-4212256D02*
X190475Y-4164636D01*
X190475Y-4164636D02*
X228571Y-4069398D01*
X228571Y-4069398D02*
X228571Y-3783684D01*
X228571Y-3783684D02*
X190475Y-3688446D01*
X190475Y-3688446D02*
X152380Y-3640827D01*
X152380Y-3640827D02*
X76190Y-3593208D01*
X76190Y-3593208D02*
X-38096Y-3593208D01*
X-38096Y-3593208D02*
X-114287Y-3640827D01*
X-114287Y-3640827D02*
X-152382Y-3688446D01*
X-152382Y-3688446D02*
X-190477Y-3783684D01*
X-190477Y-3783684D02*
X-190477Y-4069398D01*
X-190477Y-4069398D02*
X-152382Y-4164636D01*
X-152382Y-4164636D02*
X-114287Y-4212256D01*
X-114287Y-4212256D02*
X-38096Y-4259875D01*
X-38096Y-4259875D02*
X76190Y-4259875D01*
X-457144Y-3593208D02*
X-647620Y-4259875D01*
X-838097Y-3593208D02*
X-647620Y-4259875D01*
X-647620Y-4259875D02*
X-571430Y-4497970D01*
X-571430Y-4497970D02*
X-533335Y-4545589D01*
X-533335Y-4545589D02*
X-457144Y-4593208D01*
X-1104763Y-4212256D02*
X-1180954Y-4259875D01*
X-1180954Y-4259875D02*
X-1333335Y-4259875D01*
X-1333335Y-4259875D02*
X-1409525Y-4212256D01*
X-1409525Y-4212256D02*
X-1447621Y-4117017D01*
X-1447621Y-4117017D02*
X-1447621Y-4069398D01*
X-1447621Y-4069398D02*
X-1409525Y-3974160D01*
X-1409525Y-3974160D02*
X-1333335Y-3926541D01*
X-1333335Y-3926541D02*
X-1219049Y-3926541D01*
X-1219049Y-3926541D02*
X-1142859Y-3878922D01*
X-1142859Y-3878922D02*
X-1104763Y-3783684D01*
X-1104763Y-3783684D02*
X-1104763Y-3736065D01*
X-1104763Y-3736065D02*
X-1142859Y-3640827D01*
X-1142859Y-3640827D02*
X-1219049Y-3593208D01*
X-1219049Y-3593208D02*
X-1333335Y-3593208D01*
X-1333335Y-3593208D02*
X-1409525Y-3640827D01*
X-1676192Y-3593208D02*
X-1980954Y-3593208D01*
X-1790478Y-3259875D02*
X-1790478Y-4117017D01*
X-1790478Y-4117017D02*
X-1828573Y-4212256D01*
X-1828573Y-4212256D02*
X-1904763Y-4259875D01*
X-1904763Y-4259875D02*
X-1980954Y-4259875D01*
X-2247621Y-4259875D02*
X-2247621Y-3593208D01*
X-2247621Y-3259875D02*
X-2209525Y-3307494D01*
X-2209525Y-3307494D02*
X-2247621Y-3355113D01*
X-2247621Y-3355113D02*
X-2285716Y-3307494D01*
X-2285716Y-3307494D02*
X-2247621Y-3259875D01*
X-2247621Y-3259875D02*
X-2247621Y-3355113D01*
X-2971430Y-4212256D02*
X-2895239Y-4259875D01*
X-2895239Y-4259875D02*
X-2742858Y-4259875D01*
X-2742858Y-4259875D02*
X-2666668Y-4212256D01*
X-2666668Y-4212256D02*
X-2628573Y-4164636D01*
X-2628573Y-4164636D02*
X-2590477Y-4069398D01*
X-2590477Y-4069398D02*
X-2590477Y-3783684D01*
X-2590477Y-3783684D02*
X-2628573Y-3688446D01*
X-2628573Y-3688446D02*
X-2666668Y-3640827D01*
X-2666668Y-3640827D02*
X-2742858Y-3593208D01*
X-2742858Y-3593208D02*
X-2895239Y-3593208D01*
X-2895239Y-3593208D02*
X-2971430Y-3640827D01*
X-3314287Y-4259875D02*
X-3314287Y-3259875D01*
X-3390477Y-3878922D02*
X-3619049Y-4259875D01*
X-3619049Y-3593208D02*
X-3314287Y-3974160D01*
X3104762Y-4869819D02*
X3104762Y-5584104D01*
X3104762Y-5584104D02*
X3142857Y-5726961D01*
X3142857Y-5726961D02*
X3219048Y-5822200D01*
X3219048Y-5822200D02*
X3333333Y-5869819D01*
X3333333Y-5869819D02*
X3409524Y-5869819D01*
X2380952Y-5203152D02*
X2380952Y-5869819D01*
X2723809Y-5203152D02*
X2723809Y-5726961D01*
X2723809Y-5726961D02*
X2685714Y-5822200D01*
X2685714Y-5822200D02*
X2609524Y-5869819D01*
X2609524Y-5869819D02*
X2495238Y-5869819D01*
X2495238Y-5869819D02*
X2419047Y-5822200D01*
X2419047Y-5822200D02*
X2380952Y-5774580D01*
X1999999Y-5203152D02*
X1999999Y-5869819D01*
X1999999Y-5298390D02*
X1961904Y-5250771D01*
X1961904Y-5250771D02*
X1885714Y-5203152D01*
X1885714Y-5203152D02*
X1771428Y-5203152D01*
X1771428Y-5203152D02*
X1695237Y-5250771D01*
X1695237Y-5250771D02*
X1657142Y-5346009D01*
X1657142Y-5346009D02*
X1657142Y-5869819D01*
X1238094Y-4869819D02*
X1314285Y-5060295D01*
X933333Y-4965057D02*
X895237Y-4917438D01*
X895237Y-4917438D02*
X819047Y-4869819D01*
X819047Y-4869819D02*
X628571Y-4869819D01*
X628571Y-4869819D02*
X552380Y-4917438D01*
X552380Y-4917438D02*
X514285Y-4965057D01*
X514285Y-4965057D02*
X476190Y-5060295D01*
X476190Y-5060295D02*
X476190Y-5155533D01*
X476190Y-5155533D02*
X514285Y-5298390D01*
X514285Y-5298390D02*
X971428Y-5869819D01*
X971428Y-5869819D02*
X476190Y-5869819D01*
X-209525Y-4869819D02*
X-57144Y-4869819D01*
X-57144Y-4869819D02*
X19047Y-4917438D01*
X19047Y-4917438D02*
X57142Y-4965057D01*
X57142Y-4965057D02*
X133332Y-5107914D01*
X133332Y-5107914D02*
X171428Y-5298390D01*
X171428Y-5298390D02*
X171428Y-5679342D01*
X171428Y-5679342D02*
X133332Y-5774580D01*
X133332Y-5774580D02*
X95237Y-5822200D01*
X95237Y-5822200D02*
X19047Y-5869819D01*
X19047Y-5869819D02*
X-133334Y-5869819D01*
X-133334Y-5869819D02*
X-209525Y-5822200D01*
X-209525Y-5822200D02*
X-247620Y-5774580D01*
X-247620Y-5774580D02*
X-285715Y-5679342D01*
X-285715Y-5679342D02*
X-285715Y-5441247D01*
X-285715Y-5441247D02*
X-247620Y-5346009D01*
X-247620Y-5346009D02*
X-209525Y-5298390D01*
X-209525Y-5298390D02*
X-133334Y-5250771D01*
X-133334Y-5250771D02*
X19047Y-5250771D01*
X19047Y-5250771D02*
X95237Y-5298390D01*
X95237Y-5298390D02*
X133332Y-5346009D01*
X133332Y-5346009D02*
X171428Y-5441247D01*
X-1847621Y-5869819D02*
X-1847621Y-5203152D01*
X-1847621Y-5393628D02*
X-1885716Y-5298390D01*
X-1885716Y-5298390D02*
X-1923811Y-5250771D01*
X-1923811Y-5250771D02*
X-2000002Y-5203152D01*
X-2000002Y-5203152D02*
X-2076192Y-5203152D01*
X-2266668Y-5203152D02*
X-2457144Y-5869819D01*
X-2457144Y-5869819D02*
X-2647621Y-5203152D01*
X-2914287Y-4965057D02*
X-2952383Y-4917438D01*
X-2952383Y-4917438D02*
X-3028573Y-4869819D01*
X-3028573Y-4869819D02*
X-3219049Y-4869819D01*
X-3219049Y-4869819D02*
X-3295240Y-4917438D01*
X-3295240Y-4917438D02*
X-3333335Y-4965057D01*
X-3333335Y-4965057D02*
X-3371430Y-5060295D01*
X-3371430Y-5060295D02*
X-3371430Y-5155533D01*
X-3371430Y-5155533D02*
X-3333335Y-5298390D01*
X-3333335Y-5298390D02*
X-2876192Y-5869819D01*
X-2876192Y-5869819D02*
X-3371430Y-5869819D01*
D11*
X428571Y-30064895D02*
X428571Y-30636323D01*
X428571Y-30636323D02*
X457142Y-30750609D01*
X457142Y-30750609D02*
X514285Y-30826800D01*
X514285Y-30826800D02*
X599999Y-30864895D01*
X599999Y-30864895D02*
X657142Y-30864895D01*
X-28572Y-30064895D02*
X-28572Y-30636323D01*
X-28572Y-30636323D02*
X-1Y-30750609D01*
X-1Y-30750609D02*
X57142Y-30826800D01*
X57142Y-30826800D02*
X142856Y-30864895D01*
X142856Y-30864895D02*
X199999Y-30864895D01*
X-600001Y-30064895D02*
X-314287Y-30064895D01*
X-314287Y-30064895D02*
X-285715Y-30445847D01*
X-285715Y-30445847D02*
X-314287Y-30407752D01*
X-314287Y-30407752D02*
X-371429Y-30369657D01*
X-371429Y-30369657D02*
X-514287Y-30369657D01*
X-514287Y-30369657D02*
X-571429Y-30407752D01*
X-571429Y-30407752D02*
X-600001Y-30445847D01*
X-600001Y-30445847D02*
X-628572Y-30522038D01*
X-628572Y-30522038D02*
X-628572Y-30712514D01*
X-628572Y-30712514D02*
X-600001Y-30788704D01*
X-600001Y-30788704D02*
X-571429Y-30826800D01*
X-571429Y-30826800D02*
X-514287Y-30864895D01*
X-514287Y-30864895D02*
X-371429Y-30864895D01*
X-371429Y-30864895D02*
X-314287Y-30826800D01*
X-314287Y-30826800D02*
X-285715Y-30788704D01*
X-3500000Y4000000D02*
X-3250000Y4250000D01*
X-3250000Y4250000D02*
X-3250000Y3750000D01*
X-3250000Y3750000D02*
X-3500000Y4000000D01*
X-3000000Y4500000D02*
X-3000000Y3500000D01*
X-3000000Y3500000D02*
X-2750000Y3250000D01*
X-2750000Y4750000D02*
X-3000000Y4500000D01*
X-2750000Y3250000D02*
X-1750000Y3250000D01*
X-1750000Y4750000D02*
X-2750000Y4750000D01*
X-1750000Y3250000D02*
X-1500000Y3500000D01*
X-1500000Y4500000D02*
X-1750000Y4750000D01*
X-1500000Y4250000D02*
X-1500000Y3750000D01*
X-1500000Y3500000D02*
X-1250000Y3250000D01*
X-1250000Y4750000D02*
X-1500000Y4500000D01*
X-1250000Y3250000D02*
X-250000Y3250000D01*
X-250000Y4750000D02*
X-1250000Y4750000D01*
X-250000Y3250000D02*
X0Y3500000D01*
X0Y4500000D02*
X-250000Y4750000D01*
X0Y4250000D02*
X0Y3750000D01*
X0Y3500000D02*
X250000Y3250000D01*
X250000Y4750000D02*
X0Y4500000D01*
X250000Y3250000D02*
X1250000Y3250000D01*
X1250000Y4750000D02*
X250000Y4750000D01*
X1250000Y3250000D02*
X1500000Y3500000D01*
X1500000Y4500000D02*
X1250000Y4750000D01*
X1500000Y4250000D02*
X1500000Y3750000D01*
X1500000Y3500000D02*
X1750000Y3250000D01*
X1750000Y4750000D02*
X1500000Y4500000D01*
X1750000Y3250000D02*
X2750000Y3250000D01*
X2750000Y4750000D02*
X1750000Y4750000D01*
X2750000Y3250000D02*
X3000000Y3500000D01*
X3000000Y4500000D02*
X2750000Y4750000D01*
X3000000Y3500000D02*
X3000000Y4500000D01*
X3250000Y4500000D02*
X3500000Y4750000D01*
X3250000Y3500000D02*
X3500000Y3750000D01*
X3500000Y4750000D02*
X3500000Y4250000D01*
X3500000Y4250000D02*
X3250000Y4500000D01*
X3500000Y3750000D02*
X3500000Y3250000D01*
X3500000Y3250000D02*
X3250000Y3500000D01*
M02*
