G04 #@! TF.GenerationSoftware,KiCad,Pcbnew,8.0.5*
G04 #@! TF.CreationDate,2026-06-23T02:06:02-07:00*
G04 #@! TF.ProjectId,BleJoystick_stick,426c654a-6f79-4737-9469-636b5f737469,rev?*
G04 #@! TF.SameCoordinates,PX5f5e100PY5f5e100*
G04 #@! TF.FileFunction,OtherDrawing,Comment*
%FSLAX46Y46*%
G04 Gerber Fmt 4.6, Leading zero omitted, Abs format (unit mm)*
G04 Created by KiCad (PCBNEW 8.0.5) date 2026-06-23 02:06:02*
%MOMM*%
%LPD*%
G01*
G04 APERTURE LIST*
%ADD10C,0.150000*%
%ADD11C,0.100000*%
G04 APERTURE END LIST*
D10*
X2789160Y-33212256D02*
X2932017Y-33259875D01*
X2932017Y-33259875D02*
X3170112Y-33259875D01*
X3170112Y-33259875D02*
X3265350Y-33212256D01*
X3265350Y-33212256D02*
X3312969Y-33164636D01*
X3312969Y-33164636D02*
X3360588Y-33069398D01*
X3360588Y-33069398D02*
X3360588Y-32974160D01*
X3360588Y-32974160D02*
X3312969Y-32878922D01*
X3312969Y-32878922D02*
X3265350Y-32831303D01*
X3265350Y-32831303D02*
X3170112Y-32783684D01*
X3170112Y-32783684D02*
X2979636Y-32736065D01*
X2979636Y-32736065D02*
X2884398Y-32688446D01*
X2884398Y-32688446D02*
X2836779Y-32640827D01*
X2836779Y-32640827D02*
X2789160Y-32545589D01*
X2789160Y-32545589D02*
X2789160Y-32450351D01*
X2789160Y-32450351D02*
X2836779Y-32355113D01*
X2836779Y-32355113D02*
X2884398Y-32307494D01*
X2884398Y-32307494D02*
X2979636Y-32259875D01*
X2979636Y-32259875D02*
X3217731Y-32259875D01*
X3217731Y-32259875D02*
X3360588Y-32307494D01*
X3646303Y-32593208D02*
X4027255Y-32593208D01*
X3789160Y-32259875D02*
X3789160Y-33117017D01*
X3789160Y-33117017D02*
X3836779Y-33212256D01*
X3836779Y-33212256D02*
X3932017Y-33259875D01*
X3932017Y-33259875D02*
X4027255Y-33259875D01*
X4360589Y-33259875D02*
X4360589Y-32593208D01*
X4360589Y-32259875D02*
X4312970Y-32307494D01*
X4312970Y-32307494D02*
X4360589Y-32355113D01*
X4360589Y-32355113D02*
X4408208Y-32307494D01*
X4408208Y-32307494D02*
X4360589Y-32259875D01*
X4360589Y-32259875D02*
X4360589Y-32355113D01*
X4693922Y-32593208D02*
X5074874Y-32593208D01*
X4836779Y-33259875D02*
X4836779Y-32402732D01*
X4836779Y-32402732D02*
X4884398Y-32307494D01*
X4884398Y-32307494D02*
X4979636Y-32259875D01*
X4979636Y-32259875D02*
X5074874Y-32259875D01*
X5265351Y-32593208D02*
X5646303Y-32593208D01*
X5408208Y-33259875D02*
X5408208Y-32402732D01*
X5408208Y-32402732D02*
X5455827Y-32307494D01*
X5455827Y-32307494D02*
X5551065Y-32259875D01*
X5551065Y-32259875D02*
X5646303Y-32259875D01*
X6360589Y-33212256D02*
X6265351Y-33259875D01*
X6265351Y-33259875D02*
X6074875Y-33259875D01*
X6074875Y-33259875D02*
X5979637Y-33212256D01*
X5979637Y-33212256D02*
X5932018Y-33117017D01*
X5932018Y-33117017D02*
X5932018Y-32736065D01*
X5932018Y-32736065D02*
X5979637Y-32640827D01*
X5979637Y-32640827D02*
X6074875Y-32593208D01*
X6074875Y-32593208D02*
X6265351Y-32593208D01*
X6265351Y-32593208D02*
X6360589Y-32640827D01*
X6360589Y-32640827D02*
X6408208Y-32736065D01*
X6408208Y-32736065D02*
X6408208Y-32831303D01*
X6408208Y-32831303D02*
X5932018Y-32926541D01*
X6836780Y-32593208D02*
X6836780Y-33259875D01*
X6836780Y-32688446D02*
X6884399Y-32640827D01*
X6884399Y-32640827D02*
X6979637Y-32593208D01*
X6979637Y-32593208D02*
X7122494Y-32593208D01*
X7122494Y-32593208D02*
X7217732Y-32640827D01*
X7217732Y-32640827D02*
X7265351Y-32736065D01*
X7265351Y-32736065D02*
X7265351Y-33259875D01*
X8122494Y-33212256D02*
X8027256Y-33259875D01*
X8027256Y-33259875D02*
X7836780Y-33259875D01*
X7836780Y-33259875D02*
X7741542Y-33212256D01*
X7741542Y-33212256D02*
X7693923Y-33117017D01*
X7693923Y-33117017D02*
X7693923Y-32736065D01*
X7693923Y-32736065D02*
X7741542Y-32640827D01*
X7741542Y-32640827D02*
X7836780Y-32593208D01*
X7836780Y-32593208D02*
X8027256Y-32593208D01*
X8027256Y-32593208D02*
X8122494Y-32640827D01*
X8122494Y-32640827D02*
X8170113Y-32736065D01*
X8170113Y-32736065D02*
X8170113Y-32831303D01*
X8170113Y-32831303D02*
X7693923Y-32926541D01*
X8598685Y-33259875D02*
X8598685Y-32593208D01*
X8598685Y-32783684D02*
X8646304Y-32688446D01*
X8646304Y-32688446D02*
X8693923Y-32640827D01*
X8693923Y-32640827D02*
X8789161Y-32593208D01*
X8789161Y-32593208D02*
X8884399Y-32593208D01*
X9836781Y-32593208D02*
X10217733Y-32593208D01*
X9979638Y-32259875D02*
X9979638Y-33117017D01*
X9979638Y-33117017D02*
X10027257Y-33212256D01*
X10027257Y-33212256D02*
X10122495Y-33259875D01*
X10122495Y-33259875D02*
X10217733Y-33259875D01*
X10693924Y-33259875D02*
X10598686Y-33212256D01*
X10598686Y-33212256D02*
X10551067Y-33164636D01*
X10551067Y-33164636D02*
X10503448Y-33069398D01*
X10503448Y-33069398D02*
X10503448Y-32783684D01*
X10503448Y-32783684D02*
X10551067Y-32688446D01*
X10551067Y-32688446D02*
X10598686Y-32640827D01*
X10598686Y-32640827D02*
X10693924Y-32593208D01*
X10693924Y-32593208D02*
X10836781Y-32593208D01*
X10836781Y-32593208D02*
X10932019Y-32640827D01*
X10932019Y-32640827D02*
X10979638Y-32688446D01*
X10979638Y-32688446D02*
X11027257Y-32783684D01*
X11027257Y-32783684D02*
X11027257Y-33069398D01*
X11027257Y-33069398D02*
X10979638Y-33164636D01*
X10979638Y-33164636D02*
X10932019Y-33212256D01*
X10932019Y-33212256D02*
X10836781Y-33259875D01*
X10836781Y-33259875D02*
X10693924Y-33259875D01*
X11455829Y-32593208D02*
X11455829Y-33593208D01*
X11455829Y-32640827D02*
X11551067Y-32593208D01*
X11551067Y-32593208D02*
X11741543Y-32593208D01*
X11741543Y-32593208D02*
X11836781Y-32640827D01*
X11836781Y-32640827D02*
X11884400Y-32688446D01*
X11884400Y-32688446D02*
X11932019Y-32783684D01*
X11932019Y-32783684D02*
X11932019Y-33069398D01*
X11932019Y-33069398D02*
X11884400Y-33164636D01*
X11884400Y-33164636D02*
X11836781Y-33212256D01*
X11836781Y-33212256D02*
X11741543Y-33259875D01*
X11741543Y-33259875D02*
X11551067Y-33259875D01*
X11551067Y-33259875D02*
X11455829Y-33212256D01*
X13074877Y-33212256D02*
X13170115Y-33259875D01*
X13170115Y-33259875D02*
X13360591Y-33259875D01*
X13360591Y-33259875D02*
X13455829Y-33212256D01*
X13455829Y-33212256D02*
X13503448Y-33117017D01*
X13503448Y-33117017D02*
X13503448Y-33069398D01*
X13503448Y-33069398D02*
X13455829Y-32974160D01*
X13455829Y-32974160D02*
X13360591Y-32926541D01*
X13360591Y-32926541D02*
X13217734Y-32926541D01*
X13217734Y-32926541D02*
X13122496Y-32878922D01*
X13122496Y-32878922D02*
X13074877Y-32783684D01*
X13074877Y-32783684D02*
X13074877Y-32736065D01*
X13074877Y-32736065D02*
X13122496Y-32640827D01*
X13122496Y-32640827D02*
X13217734Y-32593208D01*
X13217734Y-32593208D02*
X13360591Y-32593208D01*
X13360591Y-32593208D02*
X13455829Y-32640827D01*
X13932020Y-33259875D02*
X13932020Y-32593208D01*
X13932020Y-32259875D02*
X13884401Y-32307494D01*
X13884401Y-32307494D02*
X13932020Y-32355113D01*
X13932020Y-32355113D02*
X13979639Y-32307494D01*
X13979639Y-32307494D02*
X13932020Y-32259875D01*
X13932020Y-32259875D02*
X13932020Y-32355113D01*
X14836781Y-33259875D02*
X14836781Y-32259875D01*
X14836781Y-33212256D02*
X14741543Y-33259875D01*
X14741543Y-33259875D02*
X14551067Y-33259875D01*
X14551067Y-33259875D02*
X14455829Y-33212256D01*
X14455829Y-33212256D02*
X14408210Y-33164636D01*
X14408210Y-33164636D02*
X14360591Y-33069398D01*
X14360591Y-33069398D02*
X14360591Y-32783684D01*
X14360591Y-32783684D02*
X14408210Y-32688446D01*
X14408210Y-32688446D02*
X14455829Y-32640827D01*
X14455829Y-32640827D02*
X14551067Y-32593208D01*
X14551067Y-32593208D02*
X14741543Y-32593208D01*
X14741543Y-32593208D02*
X14836781Y-32640827D01*
X15693924Y-33212256D02*
X15598686Y-33259875D01*
X15598686Y-33259875D02*
X15408210Y-33259875D01*
X15408210Y-33259875D02*
X15312972Y-33212256D01*
X15312972Y-33212256D02*
X15265353Y-33117017D01*
X15265353Y-33117017D02*
X15265353Y-32736065D01*
X15265353Y-32736065D02*
X15312972Y-32640827D01*
X15312972Y-32640827D02*
X15408210Y-32593208D01*
X15408210Y-32593208D02*
X15598686Y-32593208D01*
X15598686Y-32593208D02*
X15693924Y-32640827D01*
X15693924Y-32640827D02*
X15741543Y-32736065D01*
X15741543Y-32736065D02*
X15741543Y-32831303D01*
X15741543Y-32831303D02*
X15265353Y-32926541D01*
X2693922Y-34203152D02*
X3074874Y-34203152D01*
X2836779Y-33869819D02*
X2836779Y-34726961D01*
X2836779Y-34726961D02*
X2884398Y-34822200D01*
X2884398Y-34822200D02*
X2979636Y-34869819D01*
X2979636Y-34869819D02*
X3074874Y-34869819D01*
X3551065Y-34869819D02*
X3455827Y-34822200D01*
X3455827Y-34822200D02*
X3408208Y-34774580D01*
X3408208Y-34774580D02*
X3360589Y-34679342D01*
X3360589Y-34679342D02*
X3360589Y-34393628D01*
X3360589Y-34393628D02*
X3408208Y-34298390D01*
X3408208Y-34298390D02*
X3455827Y-34250771D01*
X3455827Y-34250771D02*
X3551065Y-34203152D01*
X3551065Y-34203152D02*
X3693922Y-34203152D01*
X3693922Y-34203152D02*
X3789160Y-34250771D01*
X3789160Y-34250771D02*
X3836779Y-34298390D01*
X3836779Y-34298390D02*
X3884398Y-34393628D01*
X3884398Y-34393628D02*
X3884398Y-34679342D01*
X3884398Y-34679342D02*
X3836779Y-34774580D01*
X3836779Y-34774580D02*
X3789160Y-34822200D01*
X3789160Y-34822200D02*
X3693922Y-34869819D01*
X3693922Y-34869819D02*
X3551065Y-34869819D01*
X5265351Y-33869819D02*
X5360589Y-33869819D01*
X5360589Y-33869819D02*
X5455827Y-33917438D01*
X5455827Y-33917438D02*
X5503446Y-33965057D01*
X5503446Y-33965057D02*
X5551065Y-34060295D01*
X5551065Y-34060295D02*
X5598684Y-34250771D01*
X5598684Y-34250771D02*
X5598684Y-34488866D01*
X5598684Y-34488866D02*
X5551065Y-34679342D01*
X5551065Y-34679342D02*
X5503446Y-34774580D01*
X5503446Y-34774580D02*
X5455827Y-34822200D01*
X5455827Y-34822200D02*
X5360589Y-34869819D01*
X5360589Y-34869819D02*
X5265351Y-34869819D01*
X5265351Y-34869819D02*
X5170113Y-34822200D01*
X5170113Y-34822200D02*
X5122494Y-34774580D01*
X5122494Y-34774580D02*
X5074875Y-34679342D01*
X5074875Y-34679342D02*
X5027256Y-34488866D01*
X5027256Y-34488866D02*
X5027256Y-34250771D01*
X5027256Y-34250771D02*
X5074875Y-34060295D01*
X5074875Y-34060295D02*
X5122494Y-33965057D01*
X5122494Y-33965057D02*
X5170113Y-33917438D01*
X5170113Y-33917438D02*
X5265351Y-33869819D01*
X6027256Y-34774580D02*
X6074875Y-34822200D01*
X6074875Y-34822200D02*
X6027256Y-34869819D01*
X6027256Y-34869819D02*
X5979637Y-34822200D01*
X5979637Y-34822200D02*
X6027256Y-34774580D01*
X6027256Y-34774580D02*
X6027256Y-34869819D01*
X6408208Y-33869819D02*
X7027255Y-33869819D01*
X7027255Y-33869819D02*
X6693922Y-34250771D01*
X6693922Y-34250771D02*
X6836779Y-34250771D01*
X6836779Y-34250771D02*
X6932017Y-34298390D01*
X6932017Y-34298390D02*
X6979636Y-34346009D01*
X6979636Y-34346009D02*
X7027255Y-34441247D01*
X7027255Y-34441247D02*
X7027255Y-34679342D01*
X7027255Y-34679342D02*
X6979636Y-34774580D01*
X6979636Y-34774580D02*
X6932017Y-34822200D01*
X6932017Y-34822200D02*
X6836779Y-34869819D01*
X6836779Y-34869819D02*
X6551065Y-34869819D01*
X6551065Y-34869819D02*
X6455827Y-34822200D01*
X6455827Y-34822200D02*
X6408208Y-34774580D01*
X7455827Y-34869819D02*
X7455827Y-34203152D01*
X7455827Y-34298390D02*
X7503446Y-34250771D01*
X7503446Y-34250771D02*
X7598684Y-34203152D01*
X7598684Y-34203152D02*
X7741541Y-34203152D01*
X7741541Y-34203152D02*
X7836779Y-34250771D01*
X7836779Y-34250771D02*
X7884398Y-34346009D01*
X7884398Y-34346009D02*
X7884398Y-34869819D01*
X7884398Y-34346009D02*
X7932017Y-34250771D01*
X7932017Y-34250771D02*
X8027255Y-34203152D01*
X8027255Y-34203152D02*
X8170112Y-34203152D01*
X8170112Y-34203152D02*
X8265351Y-34250771D01*
X8265351Y-34250771D02*
X8312970Y-34346009D01*
X8312970Y-34346009D02*
X8312970Y-34869819D01*
X8789160Y-34869819D02*
X8789160Y-34203152D01*
X8789160Y-34298390D02*
X8836779Y-34250771D01*
X8836779Y-34250771D02*
X8932017Y-34203152D01*
X8932017Y-34203152D02*
X9074874Y-34203152D01*
X9074874Y-34203152D02*
X9170112Y-34250771D01*
X9170112Y-34250771D02*
X9217731Y-34346009D01*
X9217731Y-34346009D02*
X9217731Y-34869819D01*
X9217731Y-34346009D02*
X9265350Y-34250771D01*
X9265350Y-34250771D02*
X9360588Y-34203152D01*
X9360588Y-34203152D02*
X9503445Y-34203152D01*
X9503445Y-34203152D02*
X9598684Y-34250771D01*
X9598684Y-34250771D02*
X9646303Y-34346009D01*
X9646303Y-34346009D02*
X9646303Y-34869819D01*
X10741541Y-34203152D02*
X11122493Y-34203152D01*
X10884398Y-33869819D02*
X10884398Y-34726961D01*
X10884398Y-34726961D02*
X10932017Y-34822200D01*
X10932017Y-34822200D02*
X11027255Y-34869819D01*
X11027255Y-34869819D02*
X11122493Y-34869819D01*
X11598684Y-34869819D02*
X11503446Y-34822200D01*
X11503446Y-34822200D02*
X11455827Y-34774580D01*
X11455827Y-34774580D02*
X11408208Y-34679342D01*
X11408208Y-34679342D02*
X11408208Y-34393628D01*
X11408208Y-34393628D02*
X11455827Y-34298390D01*
X11455827Y-34298390D02*
X11503446Y-34250771D01*
X11503446Y-34250771D02*
X11598684Y-34203152D01*
X11598684Y-34203152D02*
X11741541Y-34203152D01*
X11741541Y-34203152D02*
X11836779Y-34250771D01*
X11836779Y-34250771D02*
X11884398Y-34298390D01*
X11884398Y-34298390D02*
X11932017Y-34393628D01*
X11932017Y-34393628D02*
X11932017Y-34679342D01*
X11932017Y-34679342D02*
X11884398Y-34774580D01*
X11884398Y-34774580D02*
X11836779Y-34822200D01*
X11836779Y-34822200D02*
X11741541Y-34869819D01*
X11741541Y-34869819D02*
X11598684Y-34869819D01*
X12217732Y-34203152D02*
X12598684Y-34203152D01*
X12360589Y-33869819D02*
X12360589Y-34726961D01*
X12360589Y-34726961D02*
X12408208Y-34822200D01*
X12408208Y-34822200D02*
X12503446Y-34869819D01*
X12503446Y-34869819D02*
X12598684Y-34869819D01*
X13360589Y-34869819D02*
X13360589Y-34346009D01*
X13360589Y-34346009D02*
X13312970Y-34250771D01*
X13312970Y-34250771D02*
X13217732Y-34203152D01*
X13217732Y-34203152D02*
X13027256Y-34203152D01*
X13027256Y-34203152D02*
X12932018Y-34250771D01*
X13360589Y-34822200D02*
X13265351Y-34869819D01*
X13265351Y-34869819D02*
X13027256Y-34869819D01*
X13027256Y-34869819D02*
X12932018Y-34822200D01*
X12932018Y-34822200D02*
X12884399Y-34726961D01*
X12884399Y-34726961D02*
X12884399Y-34631723D01*
X12884399Y-34631723D02*
X12932018Y-34536485D01*
X12932018Y-34536485D02*
X13027256Y-34488866D01*
X13027256Y-34488866D02*
X13265351Y-34488866D01*
X13265351Y-34488866D02*
X13360589Y-34441247D01*
X13979637Y-34869819D02*
X13884399Y-34822200D01*
X13884399Y-34822200D02*
X13836780Y-34726961D01*
X13836780Y-34726961D02*
X13836780Y-33869819D01*
X14979638Y-34203152D02*
X15360590Y-34203152D01*
X15122495Y-33869819D02*
X15122495Y-34726961D01*
X15122495Y-34726961D02*
X15170114Y-34822200D01*
X15170114Y-34822200D02*
X15265352Y-34869819D01*
X15265352Y-34869819D02*
X15360590Y-34869819D01*
X15693924Y-34869819D02*
X15693924Y-33869819D01*
X16122495Y-34869819D02*
X16122495Y-34346009D01*
X16122495Y-34346009D02*
X16074876Y-34250771D01*
X16074876Y-34250771D02*
X15979638Y-34203152D01*
X15979638Y-34203152D02*
X15836781Y-34203152D01*
X15836781Y-34203152D02*
X15741543Y-34250771D01*
X15741543Y-34250771D02*
X15693924Y-34298390D01*
X16598686Y-34869819D02*
X16598686Y-34203152D01*
X16598686Y-33869819D02*
X16551067Y-33917438D01*
X16551067Y-33917438D02*
X16598686Y-33965057D01*
X16598686Y-33965057D02*
X16646305Y-33917438D01*
X16646305Y-33917438D02*
X16598686Y-33869819D01*
X16598686Y-33869819D02*
X16598686Y-33965057D01*
X17503447Y-34822200D02*
X17408209Y-34869819D01*
X17408209Y-34869819D02*
X17217733Y-34869819D01*
X17217733Y-34869819D02*
X17122495Y-34822200D01*
X17122495Y-34822200D02*
X17074876Y-34774580D01*
X17074876Y-34774580D02*
X17027257Y-34679342D01*
X17027257Y-34679342D02*
X17027257Y-34393628D01*
X17027257Y-34393628D02*
X17074876Y-34298390D01*
X17074876Y-34298390D02*
X17122495Y-34250771D01*
X17122495Y-34250771D02*
X17217733Y-34203152D01*
X17217733Y-34203152D02*
X17408209Y-34203152D01*
X17408209Y-34203152D02*
X17503447Y-34250771D01*
X17932019Y-34869819D02*
X17932019Y-33869819D01*
X18027257Y-34488866D02*
X18312971Y-34869819D01*
X18312971Y-34203152D02*
X17932019Y-34584104D01*
X18741543Y-34203152D02*
X18741543Y-34869819D01*
X18741543Y-34298390D02*
X18789162Y-34250771D01*
X18789162Y-34250771D02*
X18884400Y-34203152D01*
X18884400Y-34203152D02*
X19027257Y-34203152D01*
X19027257Y-34203152D02*
X19122495Y-34250771D01*
X19122495Y-34250771D02*
X19170114Y-34346009D01*
X19170114Y-34346009D02*
X19170114Y-34869819D01*
X20027257Y-34822200D02*
X19932019Y-34869819D01*
X19932019Y-34869819D02*
X19741543Y-34869819D01*
X19741543Y-34869819D02*
X19646305Y-34822200D01*
X19646305Y-34822200D02*
X19598686Y-34726961D01*
X19598686Y-34726961D02*
X19598686Y-34346009D01*
X19598686Y-34346009D02*
X19646305Y-34250771D01*
X19646305Y-34250771D02*
X19741543Y-34203152D01*
X19741543Y-34203152D02*
X19932019Y-34203152D01*
X19932019Y-34203152D02*
X20027257Y-34250771D01*
X20027257Y-34250771D02*
X20074876Y-34346009D01*
X20074876Y-34346009D02*
X20074876Y-34441247D01*
X20074876Y-34441247D02*
X19598686Y-34536485D01*
X20455829Y-34822200D02*
X20551067Y-34869819D01*
X20551067Y-34869819D02*
X20741543Y-34869819D01*
X20741543Y-34869819D02*
X20836781Y-34822200D01*
X20836781Y-34822200D02*
X20884400Y-34726961D01*
X20884400Y-34726961D02*
X20884400Y-34679342D01*
X20884400Y-34679342D02*
X20836781Y-34584104D01*
X20836781Y-34584104D02*
X20741543Y-34536485D01*
X20741543Y-34536485D02*
X20598686Y-34536485D01*
X20598686Y-34536485D02*
X20503448Y-34488866D01*
X20503448Y-34488866D02*
X20455829Y-34393628D01*
X20455829Y-34393628D02*
X20455829Y-34346009D01*
X20455829Y-34346009D02*
X20503448Y-34250771D01*
X20503448Y-34250771D02*
X20598686Y-34203152D01*
X20598686Y-34203152D02*
X20741543Y-34203152D01*
X20741543Y-34203152D02*
X20836781Y-34250771D01*
X21265353Y-34822200D02*
X21360591Y-34869819D01*
X21360591Y-34869819D02*
X21551067Y-34869819D01*
X21551067Y-34869819D02*
X21646305Y-34822200D01*
X21646305Y-34822200D02*
X21693924Y-34726961D01*
X21693924Y-34726961D02*
X21693924Y-34679342D01*
X21693924Y-34679342D02*
X21646305Y-34584104D01*
X21646305Y-34584104D02*
X21551067Y-34536485D01*
X21551067Y-34536485D02*
X21408210Y-34536485D01*
X21408210Y-34536485D02*
X21312972Y-34488866D01*
X21312972Y-34488866D02*
X21265353Y-34393628D01*
X21265353Y-34393628D02*
X21265353Y-34346009D01*
X21265353Y-34346009D02*
X21312972Y-34250771D01*
X21312972Y-34250771D02*
X21408210Y-34203152D01*
X21408210Y-34203152D02*
X21551067Y-34203152D01*
X21551067Y-34203152D02*
X21646305Y-34250771D01*
D11*
X-2000000Y-35000000D02*
G75*
G02*
X-2250000Y-34750000I0J250000D01*
G01*
X2250000Y-34750000D02*
G75*
G02*
X2000000Y-35000000I-250000J0D01*
G01*
X-2000000Y-35000000D02*
X2000000Y-35000000D01*
X2250000Y-32000000D02*
X-2250000Y-32000000D01*
X2250000Y-34750000D02*
X2250000Y-32000000D01*
X-2250000Y-34750000D02*
X-2250000Y-32000000D01*
M02*
