G04 #@! TF.GenerationSoftware,KiCad,Pcbnew,8.0.5*
G04 #@! TF.CreationDate,2026-06-23T02:06:02-07:00*
G04 #@! TF.ProjectId,BleJoystick_stick,426c654a-6f79-4737-9469-636b5f737469,rev?*
G04 #@! TF.SameCoordinates,PX5f5e100PY5f5e100*
G04 #@! TF.FileFunction,Legend,Top*
G04 #@! TF.FilePolarity,Positive*
%FSLAX46Y46*%
G04 Gerber Fmt 4.6, Leading zero omitted, Abs format (unit mm)*
G04 Created by KiCad (PCBNEW 8.0.5) date 2026-06-23 02:06:02*
%MOMM*%
%LPD*%
G01*
G04 APERTURE LIST*
%ADD10C,0.100000*%
G04 APERTURE END LIST*
D10*
X-514286Y6435105D02*
X-514286Y5863677D01*
X-514286Y5863677D02*
X-542857Y5749391D01*
X-542857Y5749391D02*
X-600000Y5673200D01*
X-600000Y5673200D02*
X-685714Y5635105D01*
X-685714Y5635105D02*
X-742857Y5635105D01*
X-228571Y6435105D02*
X-228571Y5787486D01*
X-228571Y5787486D02*
X-200000Y5711296D01*
X-200000Y5711296D02*
X-171428Y5673200D01*
X-171428Y5673200D02*
X-114286Y5635105D01*
X-114286Y5635105D02*
X0Y5635105D01*
X0Y5635105D02*
X57143Y5673200D01*
X57143Y5673200D02*
X85714Y5711296D01*
X85714Y5711296D02*
X114286Y5787486D01*
X114286Y5787486D02*
X114286Y6435105D01*
X485714Y6092248D02*
X428571Y6130343D01*
X428571Y6130343D02*
X400000Y6168439D01*
X400000Y6168439D02*
X371428Y6244629D01*
X371428Y6244629D02*
X371428Y6282724D01*
X371428Y6282724D02*
X400000Y6358915D01*
X400000Y6358915D02*
X428571Y6397010D01*
X428571Y6397010D02*
X485714Y6435105D01*
X485714Y6435105D02*
X600000Y6435105D01*
X600000Y6435105D02*
X657143Y6397010D01*
X657143Y6397010D02*
X685714Y6358915D01*
X685714Y6358915D02*
X714285Y6282724D01*
X714285Y6282724D02*
X714285Y6244629D01*
X714285Y6244629D02*
X685714Y6168439D01*
X685714Y6168439D02*
X657143Y6130343D01*
X657143Y6130343D02*
X600000Y6092248D01*
X600000Y6092248D02*
X485714Y6092248D01*
X485714Y6092248D02*
X428571Y6054153D01*
X428571Y6054153D02*
X400000Y6016058D01*
X400000Y6016058D02*
X371428Y5939867D01*
X371428Y5939867D02*
X371428Y5787486D01*
X371428Y5787486D02*
X400000Y5711296D01*
X400000Y5711296D02*
X428571Y5673200D01*
X428571Y5673200D02*
X485714Y5635105D01*
X485714Y5635105D02*
X600000Y5635105D01*
X600000Y5635105D02*
X657143Y5673200D01*
X657143Y5673200D02*
X685714Y5711296D01*
X685714Y5711296D02*
X714285Y5787486D01*
X714285Y5787486D02*
X714285Y5939867D01*
X714285Y5939867D02*
X685714Y6016058D01*
X685714Y6016058D02*
X657143Y6054153D01*
X657143Y6054153D02*
X600000Y6092248D01*
X-11900000Y4600000D02*
X-11900000Y-4600000D01*
X-6700000Y6700000D02*
X-6700000Y4600000D01*
X-6700000Y4600000D02*
X-11900000Y4600000D01*
X-6700000Y-4600000D02*
X-11900000Y-4600000D01*
X-6700000Y-4600000D02*
X-6700000Y-6700000D01*
X-6400000Y6700000D02*
X-6700000Y6700000D01*
X-6400000Y-6700000D02*
X-6700000Y-6700000D01*
X-4900000Y-10100000D02*
X-4900000Y-7750000D01*
X-3100000Y8300000D02*
X-3100000Y6700000D01*
X-3100000Y8300000D02*
X3100000Y8300000D01*
X-3100000Y6700000D02*
X-3600000Y6700000D01*
X3100000Y8300000D02*
X3100000Y6700000D01*
X3600000Y6700000D02*
X3100000Y6700000D01*
X4900000Y-10100000D02*
X-4900000Y-10100000D01*
X4900000Y-10100000D02*
X4900000Y-7750000D01*
X6400000Y6700000D02*
X6700000Y6700000D01*
X6400000Y-6700000D02*
X6700000Y-6700000D01*
X6700000Y6700000D02*
X6700000Y4900000D01*
X6700000Y-4900000D02*
X6700000Y-6700000D01*
X10100000Y4900000D02*
X6700000Y4900000D01*
X10100000Y4900000D02*
X10100000Y-4900000D01*
X10100000Y-4900000D02*
X6700000Y-4900000D01*
M02*
