G04 #@! TF.GenerationSoftware,KiCad,Pcbnew,8.0.5*
G04 #@! TF.CreationDate,2026-06-23T02:06:02-07:00*
G04 #@! TF.ProjectId,BleJoystick_stick,426c654a-6f79-4737-9469-636b5f737469,rev?*
G04 #@! TF.SameCoordinates,PX5f5e100PY5f5e100*
G04 #@! TF.FileFunction,Copper,L2,Bot*
G04 #@! TF.FilePolarity,Positive*
%FSLAX46Y46*%
G04 Gerber Fmt 4.6, Leading zero omitted, Abs format (unit mm)*
G04 Created by KiCad (PCBNEW 8.0.5) date 2026-06-23 02:06:02*
%MOMM*%
%LPD*%
G01*
G04 APERTURE LIST*
G04 #@! TA.AperFunction,EtchedComponent*
%ADD10C,0.200000*%
G04 #@! TD*
G04 #@! TA.AperFunction,EtchedComponent*
%ADD11C,0.160000*%
G04 #@! TD*
G04 #@! TA.AperFunction,EtchedComponent*
%ADD12C,0.500000*%
G04 #@! TD*
G04 #@! TA.AperFunction,ComponentPad*
%ADD13C,1.700000*%
G04 #@! TD*
G04 #@! TA.AperFunction,ComponentPad*
%ADD14C,2.200000*%
G04 #@! TD*
G04 #@! TA.AperFunction,SMDPad,CuDef*
%ADD15R,0.350000X3.500000*%
G04 #@! TD*
G04 #@! TA.AperFunction,ViaPad*
%ADD16C,0.700000*%
G04 #@! TD*
G04 #@! TA.AperFunction,Conductor*
%ADD17C,0.250000*%
G04 #@! TD*
G04 APERTURE END LIST*
D10*
X-937407Y-22451D02*
X-902531Y-329667D01*
X-902531Y-329667D02*
X-792579Y-628467D01*
X-895035Y274050D02*
X-937407Y-22451D01*
X-792579Y-628467D02*
X-614398Y-900241D01*
X-778054Y541370D02*
X-895035Y274050D01*
X-614398Y-900241D02*
X-379085Y-1128065D01*
X-593750Y762861D02*
X-778054Y541370D01*
X-379085Y-1128065D02*
X-101295Y-1297751D01*
X-273702Y-1202597D02*
X-382558Y-1561450D01*
X-101295Y-1297751D02*
X201673Y-1398730D01*
X200000Y-1395710D02*
X150743Y-1768905D01*
X201673Y-1398730D02*
X510950Y-1424715D01*
X212004Y-1146914D02*
X200000Y-1395710D01*
X510950Y-1424715D02*
X807277Y-1374087D01*
X807277Y-1374087D02*
X1072198Y-1250000D01*
X-1093749Y-1894430D02*
G75*
G02*
X1093750Y-1894429I1093749J1894430D01*
G01*
D11*
X-869178Y1169286D02*
G75*
G02*
X-1178836Y891152I-548672J299414D01*
G01*
X-820058Y-1436450D02*
G75*
G02*
X-820058Y-1561450I-2J-62500D01*
G01*
X-820058Y-1436450D02*
G75*
G02*
X-320187Y-1561378I31358J-937050D01*
G01*
X-820058Y-1561450D02*
G75*
G02*
X-820058Y-1686450I-2J-62500D01*
G01*
X-763205Y913443D02*
G75*
G02*
X-1178844Y891297I-239175J577407D01*
G01*
X-620740Y1407352D02*
G75*
G02*
X-379260Y1407352I120740J-32352D01*
G01*
X-320058Y-1561450D02*
G75*
G02*
X-819911Y-1686457I-468642J812050D01*
G01*
X-286757Y-1643905D02*
G75*
G02*
X-286757Y-1768905I0J-62500D01*
G01*
X-286757Y-1643905D02*
G75*
G02*
X213115Y-1768832I31377J-936985D01*
G01*
X-286757Y-1768905D02*
G75*
G02*
X-286757Y-1893905I0J-62500D01*
G01*
X13396Y243068D02*
G75*
G02*
X573838Y-957346I-680276J-1048638D01*
G01*
X213243Y-1768905D02*
G75*
G02*
X-286610Y-1893910I-468620J811978D01*
G01*
D10*
X303506Y391461D02*
G75*
G02*
X-31250Y762861I742391J1005708D01*
G01*
X303506Y391461D02*
G75*
G02*
X809366Y-547561I-742356J-1005681D01*
G01*
D11*
X573812Y-957555D02*
G75*
G02*
X-575946Y-734I65790J1248267D01*
G01*
D10*
X1072198Y-1250000D02*
G75*
G02*
X809364Y-547562I985385J769097D01*
G01*
X250000Y1250000D02*
G75*
G02*
X-875000Y1250000I-562500J0D01*
G01*
X-875000Y1250000D02*
G75*
G02*
X250000Y1250000I562500J0D01*
G01*
X2500000Y0D02*
G75*
G02*
X-2500000Y0I-2500000J0D01*
G01*
X-2500000Y0D02*
G75*
G02*
X2500000Y0I2500000J0D01*
G01*
D12*
X-2000000Y4000000D02*
G75*
G02*
X-2500000Y4000000I-250000J0D01*
G01*
X-2500000Y4000000D02*
G75*
G02*
X-2000000Y4000000I250000J0D01*
G01*
X-500000Y4000000D02*
G75*
G02*
X-1000000Y4000000I-250000J0D01*
G01*
X-1000000Y4000000D02*
G75*
G02*
X-500000Y4000000I250000J0D01*
G01*
X1000000Y4000000D02*
G75*
G02*
X500000Y4000000I-250000J0D01*
G01*
X500000Y4000000D02*
G75*
G02*
X1000000Y4000000I250000J0D01*
G01*
X2500000Y4000000D02*
G75*
G02*
X2000000Y4000000I-250000J0D01*
G01*
X2000000Y4000000D02*
G75*
G02*
X2500000Y4000000I250000J0D01*
G01*
D13*
X-10000000Y3200000D03*
X-10000000Y-3200000D03*
X-5600000Y3250000D03*
X-5600000Y-3200000D03*
X-2500000Y-8650000D03*
X0Y-8650000D03*
X2500000Y-8650000D03*
X8650000Y-2500000D03*
X8650000Y0D03*
X8650000Y2500000D03*
D14*
X-5000000Y6350000D03*
X-5000000Y-6350000D03*
X5000000Y6350000D03*
X5000000Y-6350000D03*
D15*
X-1750000Y-33250000D03*
X-1250000Y-33250000D03*
X-750000Y-33250000D03*
X-250000Y-33250000D03*
X250000Y-33250000D03*
X750000Y-33250000D03*
X1250000Y-33250000D03*
X1750000Y-33250000D03*
D16*
X-1500000Y-28000000D03*
X1500000Y-28000000D03*
D17*
X5000000Y-2500000D02*
X8650000Y-2500000D01*
X1250000Y-29750000D02*
X750000Y-29250000D01*
X1250000Y-33250000D02*
X1250000Y-29750000D01*
X2500000Y-9250000D02*
X2500000Y-8650000D01*
X750000Y-27250000D02*
X1500000Y-26500000D01*
X2500000Y-8650000D02*
X2500000Y-5000000D01*
X1500000Y-10250000D02*
X2500000Y-9250000D01*
X1500000Y-26500000D02*
X1500000Y-10250000D01*
X2500000Y-5000000D02*
X5000000Y-2500000D01*
X750000Y-29250000D02*
X750000Y-27250000D01*
X1750000Y-28250000D02*
X1750000Y-33250000D01*
X-1750000Y-33250000D02*
X-1750000Y-28250000D01*
X-1750000Y-28250000D02*
X-1500000Y-28000000D01*
X1500000Y-28000000D02*
X1750000Y-28250000D01*
X250000Y-26750000D02*
X967157Y-26032843D01*
X250000Y-29750000D02*
X250000Y-26750000D01*
X5000000Y0D02*
X8650000Y0D01*
X750000Y-33250000D02*
X750000Y-30250000D01*
X1250000Y-3750000D02*
X5000000Y0D01*
X967157Y-26032843D02*
X967157Y-9782843D01*
X1250000Y-9500000D02*
X1250000Y-3750000D01*
X967157Y-9782843D02*
X1250000Y-9500000D01*
X750000Y-30250000D02*
X250000Y-29750000D01*
X-1000000Y-9750000D02*
X-1250000Y-9500000D01*
X-750000Y-27250000D02*
X-1000000Y-27000000D01*
X-10000000Y-1000000D02*
X-10000000Y3200000D01*
X-1250000Y-9500000D02*
X-1250000Y-5250000D01*
X-1000000Y-27000000D02*
X-1000000Y-9750000D01*
X-1250000Y-5250000D02*
X-5500000Y-1000000D01*
X-750000Y-33250000D02*
X-750000Y-27250000D01*
X-5500000Y-1000000D02*
X-10000000Y-1000000D01*
X-10000000Y-3200000D02*
X-10000000Y-1000000D01*
X250000Y-30750000D02*
X-250000Y-30250000D01*
X-250000Y-26250000D02*
X0Y-26000000D01*
X0Y-26000000D02*
X0Y-8650000D01*
X250000Y-33250000D02*
X250000Y-30750000D01*
X-250000Y-30250000D02*
X-250000Y-26250000D01*
G04 #@! TA.AperFunction,Conductor*
G36*
X-5638354Y-1394407D02*
G01*
X-5626541Y-1404496D01*
X-1654496Y-5376541D01*
X-1626719Y-5431058D01*
X-1625500Y-5446545D01*
X-1625500Y-7946624D01*
X-1644407Y-8004815D01*
X-1654496Y-8016628D01*
X-2056330Y-8418460D01*
X-2099901Y-8342993D01*
X-2192993Y-8249901D01*
X-2268464Y-8206328D01*
X-1870459Y-7808324D01*
X-1913830Y-7772731D01*
X-1913840Y-7772724D01*
X-2096233Y-7675234D01*
X-2096238Y-7675232D01*
X-2294164Y-7615191D01*
X-2294170Y-7615190D01*
X-2499996Y-7594919D01*
X-2500004Y-7594919D01*
X-2705831Y-7615190D01*
X-2705837Y-7615191D01*
X-2903763Y-7675232D01*
X-2903768Y-7675234D01*
X-3086166Y-7772728D01*
X-3086176Y-7772734D01*
X-3129543Y-7808324D01*
X-2731539Y-8206328D01*
X-2807007Y-8249901D01*
X-2900099Y-8342993D01*
X-2943672Y-8418461D01*
X-3341676Y-8020457D01*
X-3377266Y-8063824D01*
X-3377272Y-8063834D01*
X-3474766Y-8246232D01*
X-3474768Y-8246237D01*
X-3534809Y-8444163D01*
X-3534810Y-8444169D01*
X-3555081Y-8649995D01*
X-3555081Y-8650004D01*
X-3534810Y-8855830D01*
X-3534809Y-8855836D01*
X-3474768Y-9053762D01*
X-3474766Y-9053767D01*
X-3377276Y-9236160D01*
X-3377269Y-9236170D01*
X-3341676Y-9279541D01*
X-2943672Y-8881536D01*
X-2900099Y-8957007D01*
X-2807007Y-9050099D01*
X-2731540Y-9093670D01*
X-3129543Y-9491674D01*
X-3086172Y-9527268D01*
X-3086166Y-9527272D01*
X-2903768Y-9624765D01*
X-2903763Y-9624767D01*
X-2705837Y-9684808D01*
X-2705831Y-9684809D01*
X-2500004Y-9705081D01*
X-2499996Y-9705081D01*
X-2294170Y-9684809D01*
X-2294164Y-9684808D01*
X-2096238Y-9624767D01*
X-2096233Y-9624765D01*
X-1913834Y-9527270D01*
X-1913823Y-9527263D01*
X-1870459Y-9491674D01*
X-2268462Y-9093671D01*
X-2192993Y-9050099D01*
X-2099901Y-8957007D01*
X-2056329Y-8881538D01*
X-1654496Y-9283371D01*
X-1626719Y-9337888D01*
X-1625500Y-9353375D01*
X-1625500Y-9549438D01*
X-1612706Y-9597184D01*
X-1612706Y-9597185D01*
X-1599912Y-9644934D01*
X-1599909Y-9644941D01*
X-1550475Y-9730563D01*
X-1550474Y-9730563D01*
X-1404496Y-9876541D01*
X-1376719Y-9931058D01*
X-1375500Y-9946545D01*
X-1375500Y-27049435D01*
X-1368278Y-27076386D01*
X-1349909Y-27144942D01*
X-1300475Y-27230563D01*
X-1300474Y-27230563D01*
X-1154496Y-27376541D01*
X-1126719Y-27431058D01*
X-1125500Y-27446545D01*
X-1125500Y-31150500D01*
X-1144407Y-31208691D01*
X-1193907Y-31244655D01*
X-1224500Y-31249500D01*
X-1449674Y-31249500D01*
X-1449675Y-31249500D01*
X-1449685Y-31249501D01*
X-1522737Y-31264033D01*
X-1522743Y-31264035D01*
X-1551598Y-31283316D01*
X-1597126Y-31297126D01*
X-1608281Y-31308281D01*
X-1616684Y-31335984D01*
X-1660964Y-31402254D01*
X-1660967Y-31402263D01*
X-1675499Y-31475315D01*
X-1675500Y-31475327D01*
X-1675500Y-34890500D01*
X-1694407Y-34948691D01*
X-1743907Y-34984655D01*
X-1774500Y-34989500D01*
X-1801000Y-34989500D01*
X-1859191Y-34970593D01*
X-1895155Y-34921093D01*
X-1900000Y-34890500D01*
X-1900000Y-31300001D01*
X-1900001Y-31300000D01*
X-1944701Y-31300000D01*
X-2003037Y-31311603D01*
X-2069190Y-31355806D01*
X-2070496Y-31357113D01*
X-2073230Y-31358505D01*
X-2077299Y-31361225D01*
X-2077621Y-31360743D01*
X-2125013Y-31384890D01*
X-2185445Y-31375319D01*
X-2228710Y-31332054D01*
X-2239500Y-31287109D01*
X-2239500Y-30167440D01*
X-1792722Y-30167440D01*
X-1614532Y-30345630D01*
X-1523500Y-30254598D01*
X-1523500Y-30080282D01*
X-1614532Y-29989250D01*
X-1792722Y-30167440D01*
X-2239500Y-30167440D01*
X-2239500Y-29248201D01*
X-1792722Y-29248201D01*
X-1614532Y-29426391D01*
X-1523500Y-29335359D01*
X-1523500Y-29161043D01*
X-1614532Y-29070011D01*
X-1792722Y-29248201D01*
X-2239500Y-29248201D01*
X-2239500Y-27409723D01*
X-1792723Y-27409723D01*
X-1786321Y-27416125D01*
X-1681464Y-27372693D01*
X-1678453Y-27371886D01*
X-1701107Y-27332648D01*
X-1704160Y-27326935D01*
X-1706068Y-27323067D01*
X-1792723Y-27409723D01*
X-2239500Y-27409723D01*
X-2239500Y-26490485D01*
X-1792722Y-26490485D01*
X-1773500Y-26509707D01*
X-1773500Y-26471263D01*
X-1792722Y-26490485D01*
X-2239500Y-26490485D01*
X-2239500Y-25571246D01*
X-1792722Y-25571246D01*
X-1773500Y-25590468D01*
X-1773500Y-25552024D01*
X-1792722Y-25571246D01*
X-2239500Y-25571246D01*
X-2239500Y-24652007D01*
X-1792722Y-24652007D01*
X-1773500Y-24671229D01*
X-1773500Y-24632785D01*
X-1792722Y-24652007D01*
X-2239500Y-24652007D01*
X-2239500Y-23732768D01*
X-1792722Y-23732768D01*
X-1773500Y-23751990D01*
X-1773500Y-23713546D01*
X-1792722Y-23732768D01*
X-2239500Y-23732768D01*
X-2239500Y-22813529D01*
X-1792722Y-22813529D01*
X-1773500Y-22832751D01*
X-1773500Y-22794307D01*
X-1792722Y-22813529D01*
X-2239500Y-22813529D01*
X-2239500Y-21894291D01*
X-1792722Y-21894291D01*
X-1773500Y-21913513D01*
X-1773500Y-21875069D01*
X-1792722Y-21894291D01*
X-2239500Y-21894291D01*
X-2239500Y-20975052D01*
X-1792722Y-20975052D01*
X-1773500Y-20994274D01*
X-1773500Y-20955830D01*
X-1792722Y-20975052D01*
X-2239500Y-20975052D01*
X-2239500Y-20055813D01*
X-1792722Y-20055813D01*
X-1773500Y-20075035D01*
X-1773500Y-20036591D01*
X-1792722Y-20055813D01*
X-2239500Y-20055813D01*
X-2239500Y-19136574D01*
X-1792722Y-19136574D01*
X-1773500Y-19155796D01*
X-1773500Y-19117352D01*
X-1792722Y-19136574D01*
X-2239500Y-19136574D01*
X-2239500Y-18217335D01*
X-1792722Y-18217335D01*
X-1773500Y-18236557D01*
X-1773500Y-18198113D01*
X-1792722Y-18217335D01*
X-2239500Y-18217335D01*
X-2239500Y-17298097D01*
X-1792722Y-17298097D01*
X-1773500Y-17317319D01*
X-1773500Y-17278875D01*
X-1792722Y-17298097D01*
X-2239500Y-17298097D01*
X-2239500Y-16378858D01*
X-1792722Y-16378858D01*
X-1773500Y-16398080D01*
X-1773500Y-16359636D01*
X-1792722Y-16378858D01*
X-2239500Y-16378858D01*
X-2239500Y-15459619D01*
X-1792722Y-15459619D01*
X-1773500Y-15478841D01*
X-1773500Y-15440397D01*
X-1792722Y-15459619D01*
X-2239500Y-15459619D01*
X-2239500Y-14540380D01*
X-1792722Y-14540380D01*
X-1773500Y-14559602D01*
X-1773500Y-14521158D01*
X-1792722Y-14540380D01*
X-2239500Y-14540380D01*
X-2239500Y-13621141D01*
X-1792722Y-13621141D01*
X-1773500Y-13640363D01*
X-1773500Y-13601919D01*
X-1792722Y-13621141D01*
X-2239500Y-13621141D01*
X-2239500Y-12701902D01*
X-1792722Y-12701902D01*
X-1773500Y-12721124D01*
X-1773500Y-12682680D01*
X-1792722Y-12701902D01*
X-2239500Y-12701902D01*
X-2239500Y-11868226D01*
X-2239500Y-11868225D01*
X-2250764Y-11782664D01*
X-1792722Y-11782664D01*
X-1773500Y-11801886D01*
X-1773500Y-11763442D01*
X-1792722Y-11782664D01*
X-2250764Y-11782664D01*
X-2273900Y-11606929D01*
X-2342112Y-11352359D01*
X-2378000Y-11265717D01*
X-1953287Y-11265717D01*
X-1929058Y-11356141D01*
X-1895961Y-11323043D01*
X-1953287Y-11265717D01*
X-2378000Y-11265717D01*
X-2442968Y-11108871D01*
X-2574743Y-10880629D01*
X-2587944Y-10863425D01*
X-1792722Y-10863425D01*
X-1773500Y-10882647D01*
X-1773500Y-10844203D01*
X-1792722Y-10863425D01*
X-2587944Y-10863425D01*
X-2735183Y-10671541D01*
X-2921541Y-10485183D01*
X-2998796Y-10425903D01*
X-3027594Y-10403805D01*
X-2252342Y-10403805D01*
X-2074152Y-10581995D01*
X-1895961Y-10403805D01*
X-2074152Y-10225614D01*
X-2252342Y-10403805D01*
X-3027594Y-10403805D01*
X-3130630Y-10324742D01*
X-3272346Y-10242923D01*
X-3358871Y-10192968D01*
X-3358875Y-10192966D01*
X-3358879Y-10192964D01*
X-3584718Y-10099419D01*
X-2556728Y-10099419D01*
X-2533771Y-10122376D01*
X-2514363Y-10102968D01*
X-2514634Y-10102962D01*
X-2524441Y-10102480D01*
X-2529284Y-10102122D01*
X-2556728Y-10099419D01*
X-3584718Y-10099419D01*
X-3602354Y-10092114D01*
X-3602355Y-10092113D01*
X-3602359Y-10092112D01*
X-3856929Y-10023900D01*
X-3856932Y-10023899D01*
X-3856934Y-10023899D01*
X-4118224Y-9989500D01*
X-4118225Y-9989500D01*
X-4245651Y-9989500D01*
X-4390500Y-9989500D01*
X-4448691Y-9970593D01*
X-4484655Y-9921093D01*
X-4489500Y-9890500D01*
X-4489500Y-9484567D01*
X-4090819Y-9484567D01*
X-3967474Y-9607912D01*
X-3870546Y-9620673D01*
X-3734439Y-9484567D01*
X-3912629Y-9306377D01*
X-4090819Y-9484567D01*
X-4489500Y-9484567D01*
X-4489500Y-8565328D01*
X-4090819Y-8565328D01*
X-3949420Y-8706727D01*
X-3952122Y-8679284D01*
X-3952480Y-8674441D01*
X-3952962Y-8664634D01*
X-3953081Y-8659774D01*
X-3953081Y-8640226D01*
X-3952962Y-8635366D01*
X-3952480Y-8625559D01*
X-3952122Y-8620716D01*
X-3930920Y-8405428D01*
X-4090819Y-8565328D01*
X-4489500Y-8565328D01*
X-4489500Y-7764792D01*
X-3972116Y-7764792D01*
X-3912629Y-7824279D01*
X-3734439Y-7646089D01*
X-3778887Y-7601641D01*
X-3853311Y-7676065D01*
X-3856437Y-7679056D01*
X-3862869Y-7684949D01*
X-3866107Y-7687789D01*
X-3879415Y-7698957D01*
X-3882782Y-7701660D01*
X-3889709Y-7706976D01*
X-3893198Y-7709534D01*
X-3972116Y-7764792D01*
X-4489500Y-7764792D01*
X-4489500Y-7665132D01*
X-4470593Y-7606941D01*
X-4432341Y-7575408D01*
X-4322170Y-7524035D01*
X-4128599Y-7388495D01*
X-4032456Y-7292352D01*
X-3525318Y-7292352D01*
X-3453010Y-7364660D01*
X-3274820Y-7186470D01*
X-2711961Y-7186470D01*
X-2685199Y-7213232D01*
X-2529284Y-7197878D01*
X-2524441Y-7197520D01*
X-2514634Y-7197038D01*
X-2509774Y-7196919D01*
X-2490226Y-7196919D01*
X-2485366Y-7197038D01*
X-2475559Y-7197520D01*
X-2470716Y-7197878D01*
X-2376289Y-7207177D01*
X-2355581Y-7186470D01*
X-2533771Y-7008280D01*
X-2711961Y-7186470D01*
X-3274820Y-7186470D01*
X-3401653Y-7059637D01*
X-3468928Y-7203909D01*
X-3470841Y-7207789D01*
X-3474876Y-7215539D01*
X-3476954Y-7219326D01*
X-3485641Y-7234370D01*
X-3487881Y-7238062D01*
X-3492566Y-7245415D01*
X-3494963Y-7249001D01*
X-3525318Y-7292352D01*
X-4032456Y-7292352D01*
X-3961505Y-7221401D01*
X-3825965Y-7027830D01*
X-3726097Y-6813663D01*
X-3702836Y-6726850D01*
X-3171580Y-6726850D01*
X-2993390Y-6905040D01*
X-2815200Y-6726850D01*
X-2252342Y-6726850D01*
X-2074152Y-6905040D01*
X-2023500Y-6854388D01*
X-2023500Y-6599310D01*
X-2074152Y-6548659D01*
X-2252342Y-6726850D01*
X-2815200Y-6726850D01*
X-2993390Y-6548660D01*
X-3171580Y-6726850D01*
X-3702836Y-6726850D01*
X-3664937Y-6585408D01*
X-3661722Y-6548660D01*
X-3644341Y-6350004D01*
X-3644341Y-6349995D01*
X-3651582Y-6267231D01*
X-2711961Y-6267231D01*
X-2533771Y-6445421D01*
X-2355581Y-6267231D01*
X-2533771Y-6089041D01*
X-2711961Y-6267231D01*
X-3651582Y-6267231D01*
X-3664936Y-6114599D01*
X-3664937Y-6114596D01*
X-3664937Y-6114592D01*
X-3726097Y-5886337D01*
X-3757954Y-5818020D01*
X-3762808Y-5807611D01*
X-3171580Y-5807611D01*
X-2993390Y-5985801D01*
X-2815200Y-5807611D01*
X-2252342Y-5807611D01*
X-2074152Y-5985801D01*
X-2023500Y-5935149D01*
X-2023500Y-5680071D01*
X-2074152Y-5629420D01*
X-2252342Y-5807611D01*
X-2815200Y-5807611D01*
X-2993390Y-5629421D01*
X-3171580Y-5807611D01*
X-3762808Y-5807611D01*
X-3825960Y-5672181D01*
X-3825964Y-5672173D01*
X-3855900Y-5629420D01*
X-3961505Y-5478599D01*
X-4128599Y-5311505D01*
X-4128603Y-5311502D01*
X-4128604Y-5311501D01*
X-4130343Y-5310283D01*
X-3593493Y-5310283D01*
X-3494963Y-5451000D01*
X-3492566Y-5454586D01*
X-3487881Y-5461939D01*
X-3485641Y-5465631D01*
X-3476954Y-5480675D01*
X-3474876Y-5484462D01*
X-3470841Y-5492212D01*
X-3468927Y-5496092D01*
X-3456544Y-5522648D01*
X-3453010Y-5526182D01*
X-3274820Y-5347992D01*
X-2711961Y-5347992D01*
X-2533771Y-5526182D01*
X-2355581Y-5347992D01*
X-2533771Y-5169802D01*
X-2711961Y-5347992D01*
X-3274820Y-5347992D01*
X-3453011Y-5169801D01*
X-3593493Y-5310283D01*
X-4130343Y-5310283D01*
X-4292779Y-5196545D01*
X-4322170Y-5175965D01*
X-4335387Y-5169802D01*
X-4428160Y-5126541D01*
X-4536337Y-5076097D01*
X-4764592Y-5014937D01*
X-4764593Y-5014936D01*
X-4764600Y-5014935D01*
X-4999996Y-4994341D01*
X-5000004Y-4994341D01*
X-5235401Y-5014935D01*
X-5463668Y-5076098D01*
X-5677819Y-5175959D01*
X-5677827Y-5175963D01*
X-5871397Y-5311501D01*
X-6038499Y-5478603D01*
X-6174037Y-5672173D01*
X-6174041Y-5672181D01*
X-6273902Y-5886333D01*
X-6294873Y-5964600D01*
X-6328197Y-6015914D01*
X-6385319Y-6037841D01*
X-6444419Y-6022006D01*
X-6482924Y-5974456D01*
X-6489500Y-5938977D01*
X-6489500Y-4867033D01*
X-4069480Y-4867033D01*
X-3893198Y-4990466D01*
X-3889709Y-4993024D01*
X-3882782Y-4998340D01*
X-3879415Y-5001043D01*
X-3866107Y-5012211D01*
X-3862869Y-5015051D01*
X-3861955Y-5015888D01*
X-3734439Y-4888373D01*
X-3171580Y-4888373D01*
X-2993390Y-5066563D01*
X-2815200Y-4888373D01*
X-2993390Y-4710183D01*
X-3171580Y-4888373D01*
X-3734439Y-4888373D01*
X-3912629Y-4710183D01*
X-4069480Y-4867033D01*
X-6489500Y-4867033D01*
X-6489500Y-4825194D01*
X-5866119Y-4825194D01*
X-5865538Y-4824876D01*
X-5857788Y-4820841D01*
X-5853908Y-4818928D01*
X-5709638Y-4751652D01*
X-5751107Y-4710183D01*
X-5866119Y-4825194D01*
X-6489500Y-4825194D01*
X-6489500Y-4495652D01*
X-6489500Y-4495651D01*
X-6495651Y-4489500D01*
X-6495652Y-4489500D01*
X-9840706Y-4489500D01*
X-9898897Y-4470593D01*
X-9929296Y-4428753D01*
X-4550439Y-4428753D01*
X-4372249Y-4606943D01*
X-4194059Y-4428753D01*
X-3631200Y-4428753D01*
X-3453010Y-4606943D01*
X-3274820Y-4428753D01*
X-3453010Y-4250563D01*
X-3631200Y-4428753D01*
X-4194059Y-4428753D01*
X-4372249Y-4250563D01*
X-4550439Y-4428753D01*
X-9929296Y-4428753D01*
X-9934861Y-4421093D01*
X-9934861Y-4359907D01*
X-9898897Y-4310407D01*
X-9858897Y-4293186D01*
X-9839104Y-4289486D01*
X-9697544Y-4263024D01*
X-9507363Y-4189348D01*
X-9333959Y-4081981D01*
X-9210172Y-3969134D01*
X-8687013Y-3969134D01*
X-8564647Y-4091500D01*
X-8452999Y-4091500D01*
X-8330633Y-3969134D01*
X-7767774Y-3969134D01*
X-7645408Y-4091500D01*
X-7533760Y-4091500D01*
X-7411394Y-3969134D01*
X-7411395Y-3969133D01*
X-6848537Y-3969133D01*
X-6803785Y-4013885D01*
X-6813608Y-3999187D01*
X-6816211Y-3995077D01*
X-6821266Y-3986644D01*
X-6823663Y-3982413D01*
X-6836953Y-3957549D01*
X-6848537Y-3969133D01*
X-7411395Y-3969133D01*
X-7589584Y-3790944D01*
X-7767774Y-3969134D01*
X-8330633Y-3969134D01*
X-8508823Y-3790944D01*
X-8687013Y-3969134D01*
X-9210172Y-3969134D01*
X-9183236Y-3944579D01*
X-9060327Y-3781821D01*
X-8969418Y-3599250D01*
X-8943886Y-3509514D01*
X-8227394Y-3509514D01*
X-8049204Y-3687704D01*
X-7871014Y-3509514D01*
X-7308155Y-3509514D01*
X-7129965Y-3687704D01*
X-7003559Y-3561297D01*
X-7018507Y-3512019D01*
X-7019803Y-3507335D01*
X-7022188Y-3497813D01*
X-7023252Y-3493076D01*
X-7027066Y-3473905D01*
X-7027897Y-3469120D01*
X-7029339Y-3459403D01*
X-7029934Y-3454575D01*
X-7032471Y-3428818D01*
X-7129965Y-3331324D01*
X-7308155Y-3509514D01*
X-7871014Y-3509514D01*
X-8049204Y-3331324D01*
X-8227394Y-3509514D01*
X-8943886Y-3509514D01*
X-8913603Y-3403083D01*
X-8894785Y-3200000D01*
X-8913603Y-2996917D01*
X-8943336Y-2892419D01*
X-8529540Y-2892419D01*
X-8528280Y-2896845D01*
X-8527130Y-2901271D01*
X-8525014Y-2910267D01*
X-8524069Y-2914745D01*
X-8520689Y-2932828D01*
X-8519952Y-2937347D01*
X-8518676Y-2946499D01*
X-8518150Y-2951035D01*
X-8497634Y-3172435D01*
X-8497318Y-3176996D01*
X-8496891Y-3186228D01*
X-8496785Y-3190802D01*
X-8496785Y-3209198D01*
X-8496891Y-3213772D01*
X-8497007Y-3216268D01*
X-8330633Y-3049895D01*
X-7767774Y-3049895D01*
X-7589584Y-3228085D01*
X-7561494Y-3199995D01*
X-6655081Y-3199995D01*
X-6655081Y-3200004D01*
X-6634810Y-3405830D01*
X-6634809Y-3405836D01*
X-6574768Y-3603762D01*
X-6574766Y-3603767D01*
X-6477276Y-3786160D01*
X-6477269Y-3786170D01*
X-6441676Y-3829541D01*
X-6043672Y-3431536D01*
X-6000099Y-3507007D01*
X-5907007Y-3600099D01*
X-5831540Y-3643670D01*
X-6229543Y-4041674D01*
X-6186172Y-4077268D01*
X-6186166Y-4077272D01*
X-6003768Y-4174765D01*
X-6003763Y-4174767D01*
X-5805837Y-4234808D01*
X-5805831Y-4234809D01*
X-5600004Y-4255081D01*
X-5599996Y-4255081D01*
X-5394170Y-4234809D01*
X-5394164Y-4234808D01*
X-5196238Y-4174767D01*
X-5196233Y-4174765D01*
X-5013834Y-4077270D01*
X-5013823Y-4077263D01*
X-4970459Y-4041674D01*
X-5042999Y-3969134D01*
X-4090819Y-3969134D01*
X-3912629Y-4147324D01*
X-3734439Y-3969134D01*
X-3912629Y-3790944D01*
X-4090819Y-3969134D01*
X-5042999Y-3969134D01*
X-5368462Y-3643671D01*
X-5292993Y-3600099D01*
X-5199901Y-3507007D01*
X-5156329Y-3431538D01*
X-4758326Y-3829541D01*
X-4722737Y-3786177D01*
X-4722730Y-3786166D01*
X-4625235Y-3603767D01*
X-4625233Y-3603762D01*
X-4565192Y-3405836D01*
X-4565191Y-3405830D01*
X-4544919Y-3200004D01*
X-4544919Y-3199995D01*
X-4565191Y-2994169D01*
X-4565192Y-2994163D01*
X-4625233Y-2796237D01*
X-4625235Y-2796232D01*
X-4722728Y-2613834D01*
X-4722732Y-2613828D01*
X-4758326Y-2570457D01*
X-5156330Y-2968460D01*
X-5199901Y-2892993D01*
X-5292993Y-2799901D01*
X-5368464Y-2756328D01*
X-4970459Y-2358324D01*
X-5013830Y-2322731D01*
X-5013840Y-2322724D01*
X-5196233Y-2225234D01*
X-5196238Y-2225232D01*
X-5394164Y-2165191D01*
X-5394170Y-2165190D01*
X-5599996Y-2144919D01*
X-5600004Y-2144919D01*
X-5805831Y-2165190D01*
X-5805837Y-2165191D01*
X-6003763Y-2225232D01*
X-6003768Y-2225234D01*
X-6186166Y-2322728D01*
X-6186176Y-2322734D01*
X-6229543Y-2358324D01*
X-5831539Y-2756328D01*
X-5907007Y-2799901D01*
X-6000099Y-2892993D01*
X-6043672Y-2968461D01*
X-6441676Y-2570457D01*
X-6477266Y-2613824D01*
X-6477272Y-2613834D01*
X-6574766Y-2796232D01*
X-6574768Y-2796237D01*
X-6634809Y-2994163D01*
X-6634810Y-2994169D01*
X-6655081Y-3199995D01*
X-7561494Y-3199995D01*
X-7411394Y-3049895D01*
X-7589584Y-2871705D01*
X-7767774Y-3049895D01*
X-8330633Y-3049895D01*
X-8508824Y-2871704D01*
X-8529540Y-2892419D01*
X-8943336Y-2892419D01*
X-8969418Y-2800750D01*
X-9060327Y-2618179D01*
X-9081399Y-2590275D01*
X-8227395Y-2590275D01*
X-8049204Y-2768466D01*
X-7871014Y-2590275D01*
X-7308156Y-2590275D01*
X-7129965Y-2768466D01*
X-6951775Y-2590275D01*
X-7129965Y-2412084D01*
X-7308156Y-2590275D01*
X-7871014Y-2590275D01*
X-8049204Y-2412084D01*
X-8227395Y-2590275D01*
X-9081399Y-2590275D01*
X-9183236Y-2455421D01*
X-9333959Y-2318019D01*
X-9507363Y-2210652D01*
X-9507367Y-2210650D01*
X-9507369Y-2210649D01*
X-9561264Y-2189770D01*
X-9608695Y-2151119D01*
X-9614722Y-2130656D01*
X-8687013Y-2130656D01*
X-8508823Y-2308846D01*
X-8330633Y-2130656D01*
X-7767774Y-2130656D01*
X-7589584Y-2308846D01*
X-7411394Y-2130656D01*
X-6848536Y-2130656D01*
X-6709618Y-2269574D01*
X-6694634Y-2251317D01*
X-6662618Y-2225693D01*
X-6603876Y-2196124D01*
X-6574307Y-2137382D01*
X-6548683Y-2105366D01*
X-6531527Y-2091285D01*
X-6670346Y-1952466D01*
X-6848536Y-2130656D01*
X-7411394Y-2130656D01*
X-7589584Y-1952466D01*
X-7767774Y-2130656D01*
X-8330633Y-2130656D01*
X-8508823Y-1952466D01*
X-8687013Y-2130656D01*
X-9614722Y-2130656D01*
X-9624500Y-2097456D01*
X-9624500Y-1773500D01*
X-9044170Y-1773500D01*
X-8968443Y-1849227D01*
X-8892716Y-1773500D01*
X-8124931Y-1773500D01*
X-8049204Y-1849227D01*
X-7973477Y-1773500D01*
X-7205692Y-1773500D01*
X-7129965Y-1849227D01*
X-7054238Y-1773500D01*
X-6286453Y-1773500D01*
X-6210726Y-1849227D01*
X-6134999Y-1773500D01*
X-6286453Y-1773500D01*
X-7054238Y-1773500D01*
X-7205692Y-1773500D01*
X-7973477Y-1773500D01*
X-8124931Y-1773500D01*
X-8892716Y-1773500D01*
X-9044170Y-1773500D01*
X-9624500Y-1773500D01*
X-9624500Y-1474500D01*
X-9605593Y-1416309D01*
X-9556093Y-1380345D01*
X-9525500Y-1375500D01*
X-5696545Y-1375500D01*
X-5638354Y-1394407D01*
G37*
G04 #@! TD.AperFunction*
G04 #@! TA.AperFunction,Conductor*
G36*
X4048788Y7470593D02*
G01*
X4084752Y7421093D01*
X4084752Y7359907D01*
X4060602Y7320499D01*
X3980027Y7239923D01*
X3961501Y7221397D01*
X3825963Y7027827D01*
X3825959Y7027819D01*
X3726098Y6813668D01*
X3664935Y6585401D01*
X3644341Y6350005D01*
X3644341Y6349996D01*
X3664935Y6114600D01*
X3664936Y6114593D01*
X3664937Y6114592D01*
X3726097Y5886337D01*
X3799013Y5729968D01*
X3825964Y5672172D01*
X3937551Y5512808D01*
X3961505Y5478599D01*
X4128599Y5311505D01*
X4322170Y5175965D01*
X4536337Y5076097D01*
X4764592Y5014937D01*
X4764596Y5014937D01*
X4764599Y5014936D01*
X4999996Y4994341D01*
X5000000Y4994341D01*
X5000004Y4994341D01*
X5235400Y5014936D01*
X5235401Y5014937D01*
X5235408Y5014937D01*
X5463663Y5076097D01*
X5677830Y5175965D01*
X5871401Y5311505D01*
X6038495Y5478599D01*
X6174035Y5672170D01*
X6273903Y5886337D01*
X6294873Y5964603D01*
X6328197Y6015915D01*
X6385318Y6037842D01*
X6444419Y6022007D01*
X6482924Y5974457D01*
X6489500Y5938978D01*
X6489500Y4504349D01*
X6489500Y4495651D01*
X6495651Y4489500D01*
X9890500Y4489500D01*
X9948691Y4470593D01*
X9984655Y4421093D01*
X9989500Y4390500D01*
X9989500Y-4390500D01*
X9970593Y-4448691D01*
X9921093Y-4484655D01*
X9890500Y-4489500D01*
X6504349Y-4489500D01*
X6495651Y-4489500D01*
X6489500Y-4495651D01*
X6489500Y-4495652D01*
X6489500Y-5938977D01*
X6470593Y-5997168D01*
X6421093Y-6033132D01*
X6359907Y-6033132D01*
X6310407Y-5997168D01*
X6294873Y-5964600D01*
X6273903Y-5886337D01*
X6200985Y-5729964D01*
X6174040Y-5672181D01*
X6174036Y-5672173D01*
X6144100Y-5629420D01*
X6038495Y-5478599D01*
X5871401Y-5311505D01*
X5871397Y-5311502D01*
X5871396Y-5311501D01*
X5707221Y-5196545D01*
X5677830Y-5175965D01*
X5664613Y-5169802D01*
X5571840Y-5126541D01*
X5463663Y-5076097D01*
X5235408Y-5014937D01*
X5235407Y-5014936D01*
X5235400Y-5014935D01*
X5000004Y-4994341D01*
X4999996Y-4994341D01*
X4764599Y-5014935D01*
X4536332Y-5076098D01*
X4322181Y-5175959D01*
X4322173Y-5175963D01*
X4128603Y-5311501D01*
X3961501Y-5478603D01*
X3825963Y-5672173D01*
X3825959Y-5672181D01*
X3726098Y-5886332D01*
X3664935Y-6114599D01*
X3644341Y-6349995D01*
X3644341Y-6350004D01*
X3664935Y-6585400D01*
X3664936Y-6585407D01*
X3664937Y-6585408D01*
X3726097Y-6813663D01*
X3768707Y-6905040D01*
X3825964Y-7027828D01*
X3951973Y-7207789D01*
X3961505Y-7221401D01*
X4128599Y-7388495D01*
X4322170Y-7524035D01*
X4536337Y-7623903D01*
X4764592Y-7685063D01*
X4764596Y-7685063D01*
X4764599Y-7685064D01*
X4828027Y-7690612D01*
X4899129Y-7696833D01*
X4955449Y-7720739D01*
X4986962Y-7773185D01*
X4989500Y-7795456D01*
X4989500Y-9890500D01*
X4970593Y-9948691D01*
X4921093Y-9984655D01*
X4890500Y-9989500D01*
X4118223Y-9989500D01*
X3856936Y-10023899D01*
X3856931Y-10023899D01*
X3602366Y-10092110D01*
X3602353Y-10092114D01*
X3358878Y-10192964D01*
X3130629Y-10324742D01*
X2921544Y-10485180D01*
X2735180Y-10671544D01*
X2574742Y-10880629D01*
X2442964Y-11108878D01*
X2342114Y-11352353D01*
X2342110Y-11352366D01*
X2273899Y-11606931D01*
X2273899Y-11606936D01*
X2239500Y-11868223D01*
X2239500Y-31287109D01*
X2220593Y-31345300D01*
X2171093Y-31381264D01*
X2109907Y-31381264D01*
X2070496Y-31357113D01*
X2069189Y-31355806D01*
X2003036Y-31311603D01*
X1944700Y-31300000D01*
X1900001Y-31300000D01*
X1900000Y-31300001D01*
X1900000Y-34890500D01*
X1881093Y-34948691D01*
X1831593Y-34984655D01*
X1801000Y-34989500D01*
X1774500Y-34989500D01*
X1716309Y-34970593D01*
X1680345Y-34921093D01*
X1675500Y-34890500D01*
X1675500Y-31475327D01*
X1675498Y-31475315D01*
X1664498Y-31420016D01*
X1660966Y-31402260D01*
X1642182Y-31374148D01*
X1625500Y-31319149D01*
X1625500Y-29700565D01*
X1616262Y-29666088D01*
X1599911Y-29605063D01*
X1550475Y-29519437D01*
X1366397Y-29335359D01*
X1154496Y-29123457D01*
X1126719Y-29068941D01*
X1125500Y-29053454D01*
X1125500Y-28689694D01*
X1523500Y-28689694D01*
X1523500Y-28887468D01*
X1602804Y-28966772D01*
X1780994Y-28788582D01*
X1629908Y-28637496D01*
X1567478Y-28645715D01*
X1523500Y-28689694D01*
X1125500Y-28689694D01*
X1125500Y-27446545D01*
X1144407Y-27388354D01*
X1154496Y-27376541D01*
X1800474Y-26730563D01*
X1849908Y-26644942D01*
X1849908Y-26644940D01*
X1849910Y-26644938D01*
X1875500Y-26549435D01*
X1875500Y-10451922D01*
X2391969Y-10451922D01*
X2397663Y-10457617D01*
X2423396Y-10424083D01*
X2425411Y-10421545D01*
X2429567Y-10416481D01*
X2431665Y-10414008D01*
X2440255Y-10404214D01*
X2442424Y-10401821D01*
X2446894Y-10397048D01*
X2448366Y-10395525D01*
X2391969Y-10451922D01*
X1875500Y-10451922D01*
X1875500Y-10446545D01*
X1894407Y-10388354D01*
X1904496Y-10376541D01*
X2501541Y-9779496D01*
X2556058Y-9751719D01*
X2571545Y-9750500D01*
X2601976Y-9750500D01*
X2802456Y-9713024D01*
X2992637Y-9639348D01*
X3166041Y-9531981D01*
X3218052Y-9484567D01*
X4182330Y-9484567D01*
X4289263Y-9591500D01*
X4431777Y-9591500D01*
X4538710Y-9484567D01*
X4360520Y-9306377D01*
X4182330Y-9484567D01*
X3218052Y-9484567D01*
X3316764Y-9394579D01*
X3439673Y-9231821D01*
X3455074Y-9200892D01*
X3898656Y-9200892D01*
X3900901Y-9203137D01*
X4079091Y-9024947D01*
X3978051Y-8923907D01*
X3975931Y-8935255D01*
X3974986Y-8939733D01*
X3972870Y-8948729D01*
X3971721Y-8953154D01*
X3910871Y-9167016D01*
X3909519Y-9171381D01*
X3906582Y-9180145D01*
X3905026Y-9184454D01*
X3898656Y-9200892D01*
X3455074Y-9200892D01*
X3530582Y-9049250D01*
X3586397Y-8853083D01*
X3605215Y-8650000D01*
X3597369Y-8565328D01*
X4182330Y-8565328D01*
X4360520Y-8743518D01*
X4538710Y-8565328D01*
X4360520Y-8387138D01*
X4182330Y-8565328D01*
X3597369Y-8565328D01*
X3586397Y-8446917D01*
X3530582Y-8250750D01*
X3439673Y-8068179D01*
X3377137Y-7985368D01*
X3843048Y-7985368D01*
X3890956Y-8081579D01*
X3892901Y-8085722D01*
X3896633Y-8094175D01*
X3898380Y-8098393D01*
X3905026Y-8115546D01*
X3906582Y-8119855D01*
X3909519Y-8128619D01*
X3910871Y-8132984D01*
X3942090Y-8242708D01*
X4079091Y-8105708D01*
X3900900Y-7927517D01*
X3843048Y-7985368D01*
X3377137Y-7985368D01*
X3316764Y-7905421D01*
X3166041Y-7768019D01*
X2992637Y-7660652D01*
X2992633Y-7660650D01*
X2992631Y-7660649D01*
X2938736Y-7639770D01*
X2938694Y-7639736D01*
X3613118Y-7639736D01*
X3617088Y-7644091D01*
X3619126Y-7646433D01*
X3619471Y-7646089D01*
X3613118Y-7639736D01*
X2938694Y-7639736D01*
X2891305Y-7601119D01*
X2875500Y-7547456D01*
X2875500Y-7474424D01*
X3434753Y-7474424D01*
X3582436Y-7609054D01*
X3441280Y-7467898D01*
X3434753Y-7474424D01*
X2875500Y-7474424D01*
X2875500Y-6716439D01*
X3273500Y-6716439D01*
X3273500Y-6737259D01*
X3300936Y-6764695D01*
X3284940Y-6704998D01*
X3273500Y-6716439D01*
X2875500Y-6716439D01*
X2875500Y-5797202D01*
X3273500Y-5797202D01*
X3273500Y-5818020D01*
X3319923Y-5864443D01*
X3343906Y-5774937D01*
X3345114Y-5770792D01*
X3347739Y-5762466D01*
X3349130Y-5758370D01*
X3355073Y-5742044D01*
X3356635Y-5738026D01*
X3359974Y-5729964D01*
X3361715Y-5726007D01*
X3376585Y-5694116D01*
X3273500Y-5797202D01*
X2875500Y-5797202D01*
X2875500Y-5196545D01*
X2894407Y-5138354D01*
X2904496Y-5126541D01*
X3142664Y-4888373D01*
X6020808Y-4888373D01*
X6091500Y-4959065D01*
X6091500Y-4817681D01*
X6020808Y-4888373D01*
X3142664Y-4888373D01*
X3304450Y-4726587D01*
X4344115Y-4726587D01*
X4366490Y-4716153D01*
X4360520Y-4710183D01*
X4344115Y-4726587D01*
X3304450Y-4726587D01*
X3602284Y-4428753D01*
X4641950Y-4428753D01*
X4820140Y-4606943D01*
X4998330Y-4428753D01*
X5561188Y-4428753D01*
X5739378Y-4606943D01*
X5917568Y-4428753D01*
X5739378Y-4250563D01*
X5561188Y-4428753D01*
X4998330Y-4428753D01*
X4820140Y-4250563D01*
X4641950Y-4428753D01*
X3602284Y-4428753D01*
X4061903Y-3969134D01*
X5101569Y-3969134D01*
X5279759Y-4147324D01*
X5457949Y-3969134D01*
X6020808Y-3969134D01*
X6198998Y-4147324D01*
X6377188Y-3969134D01*
X6940047Y-3969134D01*
X7062413Y-4091500D01*
X7174061Y-4091500D01*
X7296427Y-3969134D01*
X7296426Y-3969133D01*
X7859284Y-3969133D01*
X7981651Y-4091500D01*
X8093299Y-4091500D01*
X8189668Y-3995131D01*
X8804521Y-3995131D01*
X8900890Y-4091500D01*
X9012538Y-4091500D01*
X9134904Y-3969134D01*
X9098888Y-3933118D01*
X9087652Y-3937471D01*
X9083353Y-3939023D01*
X9074588Y-3941961D01*
X9070215Y-3943315D01*
X9052521Y-3948349D01*
X9048095Y-3949499D01*
X9039102Y-3951614D01*
X9034628Y-3952557D01*
X8816069Y-3993412D01*
X8811564Y-3994148D01*
X8804521Y-3995131D01*
X8189668Y-3995131D01*
X8215665Y-3969134D01*
X8166075Y-3919544D01*
X8005014Y-3857150D01*
X8000786Y-3855399D01*
X7992332Y-3851666D01*
X7988194Y-3849723D01*
X7981852Y-3846565D01*
X7859284Y-3969133D01*
X7296426Y-3969133D01*
X7118237Y-3790944D01*
X6940047Y-3969134D01*
X6377188Y-3969134D01*
X6198998Y-3790944D01*
X6020808Y-3969134D01*
X5457949Y-3969134D01*
X5279759Y-3790944D01*
X5101569Y-3969134D01*
X4061903Y-3969134D01*
X4521523Y-3509514D01*
X5561188Y-3509514D01*
X5739378Y-3687704D01*
X5917568Y-3509514D01*
X6480427Y-3509514D01*
X6658617Y-3687704D01*
X6836807Y-3509514D01*
X6836806Y-3509513D01*
X7399665Y-3509513D01*
X7577856Y-3687704D01*
X7649719Y-3615840D01*
X7558308Y-3532508D01*
X7555000Y-3529350D01*
X7548464Y-3522814D01*
X7545305Y-3519504D01*
X7532912Y-3505909D01*
X7529910Y-3502459D01*
X7524007Y-3495350D01*
X7521168Y-3491767D01*
X7476526Y-3432652D01*
X7399665Y-3509513D01*
X6836806Y-3509513D01*
X6658617Y-3331324D01*
X6480427Y-3509514D01*
X5917568Y-3509514D01*
X5739378Y-3331324D01*
X5561188Y-3509514D01*
X4521523Y-3509514D01*
X5126541Y-2904496D01*
X5181058Y-2876719D01*
X5196545Y-2875500D01*
X7546294Y-2875500D01*
X7604485Y-2894407D01*
X7634914Y-2930371D01*
X7710327Y-3081821D01*
X7833236Y-3244579D01*
X7983959Y-3381981D01*
X8157363Y-3489348D01*
X8347544Y-3563024D01*
X8548024Y-3600500D01*
X8751976Y-3600500D01*
X8952456Y-3563024D01*
X9142637Y-3489348D01*
X9316041Y-3381981D01*
X9466764Y-3244579D01*
X9589673Y-3081821D01*
X9680582Y-2899250D01*
X9736397Y-2703083D01*
X9755215Y-2500000D01*
X9736397Y-2296917D01*
X9680582Y-2100750D01*
X9589673Y-1918179D01*
X9466764Y-1755421D01*
X9316041Y-1618019D01*
X9142637Y-1510652D01*
X8952456Y-1436976D01*
X8952455Y-1436975D01*
X8952453Y-1436975D01*
X8751976Y-1399500D01*
X8548024Y-1399500D01*
X8347546Y-1436975D01*
X8277632Y-1464059D01*
X8157363Y-1510652D01*
X7983959Y-1618019D01*
X7836399Y-1752538D01*
X7833236Y-1755421D01*
X7809961Y-1786242D01*
X7710328Y-1918177D01*
X7710323Y-1918186D01*
X7634915Y-2069628D01*
X7592053Y-2113290D01*
X7546294Y-2124500D01*
X5049436Y-2124500D01*
X4950564Y-2124500D01*
X4927590Y-2130656D01*
X4904003Y-2136976D01*
X4904002Y-2136975D01*
X4855062Y-2150089D01*
X4855058Y-2150091D01*
X4769436Y-2199525D01*
X4769437Y-2199526D01*
X2269438Y-4699525D01*
X2269437Y-4699524D01*
X2199524Y-4769438D01*
X2150089Y-4855061D01*
X2150089Y-4855062D01*
X2150090Y-4855063D01*
X2124787Y-4949496D01*
X2124780Y-4949520D01*
X2124500Y-4950561D01*
X2124500Y-7547456D01*
X2105593Y-7605647D01*
X2061264Y-7639770D01*
X2007368Y-7660649D01*
X2007365Y-7660651D01*
X2007364Y-7660651D01*
X2007363Y-7660652D01*
X1883629Y-7737265D01*
X1833956Y-7768021D01*
X1791195Y-7807003D01*
X1735454Y-7832233D01*
X1675528Y-7819880D01*
X1634308Y-7774664D01*
X1625500Y-7733841D01*
X1625500Y-4289486D01*
X2023500Y-4289486D01*
X2023500Y-4382604D01*
X2108982Y-4297122D01*
X2062423Y-4250563D01*
X2023500Y-4289486D01*
X1625500Y-4289486D01*
X1625500Y-3969133D01*
X2343851Y-3969133D01*
X2390410Y-4015692D01*
X2568601Y-3837502D01*
X2522042Y-3790943D01*
X2343851Y-3969133D01*
X1625500Y-3969133D01*
X1625500Y-3946545D01*
X1644407Y-3888354D01*
X1654496Y-3876541D01*
X2021523Y-3509514D01*
X2803472Y-3509514D01*
X2850031Y-3556073D01*
X3028221Y-3377883D01*
X2981662Y-3331324D01*
X2803472Y-3509514D01*
X2021523Y-3509514D01*
X2481142Y-3049895D01*
X3263091Y-3049895D01*
X3309650Y-3096454D01*
X3487840Y-2918264D01*
X3441281Y-2871705D01*
X3263091Y-3049895D01*
X2481142Y-3049895D01*
X2940762Y-2590275D01*
X3722710Y-2590275D01*
X3769269Y-2636834D01*
X3947459Y-2458643D01*
X3900900Y-2412084D01*
X3722710Y-2590275D01*
X2940762Y-2590275D01*
X3400381Y-2130656D01*
X4182330Y-2130656D01*
X4228889Y-2177215D01*
X4407079Y-1999025D01*
X4360520Y-1952466D01*
X4182330Y-2130656D01*
X3400381Y-2130656D01*
X3860000Y-1671037D01*
X4641950Y-1671037D01*
X4739837Y-1768924D01*
X4800990Y-1752538D01*
X4800992Y-1752537D01*
X4860146Y-1736687D01*
X4866458Y-1735216D01*
X4879300Y-1732662D01*
X4885686Y-1731607D01*
X4911536Y-1728203D01*
X4917990Y-1727568D01*
X4931057Y-1726712D01*
X4937528Y-1726500D01*
X4942867Y-1726500D01*
X4998330Y-1671037D01*
X5561188Y-1671037D01*
X5616651Y-1726500D01*
X5862105Y-1726500D01*
X5917568Y-1671037D01*
X6480427Y-1671037D01*
X6535890Y-1726500D01*
X6781344Y-1726500D01*
X6836807Y-1671037D01*
X6658617Y-1492847D01*
X6480427Y-1671037D01*
X5917568Y-1671037D01*
X5739378Y-1492847D01*
X5561188Y-1671037D01*
X4998330Y-1671037D01*
X4820140Y-1492847D01*
X4641950Y-1671037D01*
X3860000Y-1671037D01*
X4319620Y-1211417D01*
X5101569Y-1211417D01*
X5279759Y-1389607D01*
X5457949Y-1211417D01*
X6020808Y-1211417D01*
X6198998Y-1389607D01*
X6377188Y-1211417D01*
X6940047Y-1211417D01*
X7118237Y-1389607D01*
X7296427Y-1211417D01*
X7118237Y-1033227D01*
X6940047Y-1211417D01*
X6377188Y-1211417D01*
X6198998Y-1033227D01*
X6020808Y-1211417D01*
X5457949Y-1211417D01*
X5279759Y-1033227D01*
X5101569Y-1211417D01*
X4319620Y-1211417D01*
X4757538Y-773500D01*
X5582890Y-773500D01*
X5739378Y-929988D01*
X5895866Y-773500D01*
X6502129Y-773500D01*
X6658617Y-929988D01*
X6815105Y-773500D01*
X6502129Y-773500D01*
X5895866Y-773500D01*
X5582890Y-773500D01*
X4757538Y-773500D01*
X5126542Y-404496D01*
X5181059Y-376719D01*
X5196546Y-375500D01*
X7546294Y-375500D01*
X7604485Y-394407D01*
X7634914Y-430371D01*
X7710327Y-581821D01*
X7833236Y-744579D01*
X7983959Y-881981D01*
X8157363Y-989348D01*
X8347544Y-1063024D01*
X8548024Y-1100500D01*
X8751976Y-1100500D01*
X8952456Y-1063024D01*
X9142637Y-989348D01*
X9316041Y-881981D01*
X9466764Y-744579D01*
X9589673Y-581821D01*
X9680582Y-399250D01*
X9736397Y-203083D01*
X9755215Y0D01*
X9736397Y203083D01*
X9680582Y399250D01*
X9589673Y581821D01*
X9466764Y744579D01*
X9316041Y881981D01*
X9142637Y989348D01*
X8952456Y1063024D01*
X8952455Y1063025D01*
X8952453Y1063025D01*
X8751976Y1100500D01*
X8548024Y1100500D01*
X8347546Y1063025D01*
X8337482Y1059126D01*
X8157363Y989348D01*
X8041381Y917535D01*
X7983959Y881981D01*
X7842849Y753342D01*
X7833236Y744579D01*
X7822638Y730545D01*
X7710328Y581823D01*
X7710323Y581814D01*
X7634915Y430372D01*
X7592053Y386710D01*
X7546294Y375500D01*
X5049436Y375500D01*
X4950564Y375500D01*
X4927482Y369315D01*
X4927481Y369316D01*
X4855065Y349912D01*
X4855057Y349908D01*
X4812250Y325195D01*
X4812251Y325194D01*
X4769438Y300476D01*
X4769437Y300476D01*
X4769437Y300475D01*
X1019438Y-3449525D01*
X1019437Y-3449524D01*
X949524Y-3519438D01*
X900089Y-3605061D01*
X900090Y-3605062D01*
X900090Y-3605063D01*
X879752Y-3680966D01*
X874651Y-3700000D01*
X874500Y-3700565D01*
X874500Y-7733841D01*
X855593Y-7792032D01*
X806093Y-7827996D01*
X744907Y-7827996D01*
X708805Y-7807003D01*
X671210Y-7772731D01*
X666041Y-7768019D01*
X492637Y-7660652D01*
X302456Y-7586976D01*
X302455Y-7586975D01*
X302453Y-7586975D01*
X101976Y-7549500D01*
X-101976Y-7549500D01*
X-302454Y-7586975D01*
X-338964Y-7601119D01*
X-492637Y-7660652D01*
X-660829Y-7764792D01*
X-666044Y-7768021D01*
X-708805Y-7807003D01*
X-764546Y-7832233D01*
X-824472Y-7819880D01*
X-865692Y-7774664D01*
X-874500Y-7733841D01*
X-874500Y-7151500D01*
X80725Y-7151500D01*
X111176Y-7151500D01*
X115748Y-7151606D01*
X124984Y-7152033D01*
X129550Y-7152350D01*
X147867Y-7154048D01*
X152415Y-7154575D01*
X161564Y-7155852D01*
X166069Y-7156588D01*
X384628Y-7197443D01*
X389102Y-7198386D01*
X390007Y-7198598D01*
X402136Y-7186469D01*
X223945Y-7008279D01*
X80725Y-7151500D01*
X-874500Y-7151500D01*
X-874500Y-6726850D01*
X-413864Y-6726850D01*
X-235674Y-6905040D01*
X-57484Y-6726850D01*
X-235674Y-6548660D01*
X-413864Y-6726850D01*
X-874500Y-6726850D01*
X-874500Y-6267231D01*
X45755Y-6267231D01*
X223945Y-6445421D01*
X402136Y-6267231D01*
X223945Y-6089040D01*
X45755Y-6267231D01*
X-874500Y-6267231D01*
X-874500Y-5807611D01*
X-413864Y-5807611D01*
X-235674Y-5985801D01*
X-57484Y-5807611D01*
X-235674Y-5629421D01*
X-413864Y-5807611D01*
X-874500Y-5807611D01*
X-874500Y-5347992D01*
X45755Y-5347992D01*
X223945Y-5526182D01*
X402136Y-5347992D01*
X223945Y-5169801D01*
X45755Y-5347992D01*
X-874500Y-5347992D01*
X-874500Y-5200565D01*
X-875577Y-5196545D01*
X-900089Y-5105063D01*
X-949525Y-5019437D01*
X-1080589Y-4888373D01*
X-413864Y-4888373D01*
X-235674Y-5066563D01*
X-57484Y-4888373D01*
X-235674Y-4710183D01*
X-413864Y-4888373D01*
X-1080589Y-4888373D01*
X-1540210Y-4428753D01*
X-873483Y-4428753D01*
X-695293Y-4606943D01*
X-517103Y-4428753D01*
X45755Y-4428753D01*
X223945Y-4606943D01*
X402136Y-4428753D01*
X223945Y-4250562D01*
X45755Y-4428753D01*
X-517103Y-4428753D01*
X-695293Y-4250563D01*
X-873483Y-4428753D01*
X-1540210Y-4428753D01*
X-1999829Y-3969134D01*
X-1333103Y-3969134D01*
X-1154913Y-4147324D01*
X-976723Y-3969134D01*
X-413864Y-3969134D01*
X-235674Y-4147324D01*
X-57484Y-3969134D01*
X-235674Y-3790944D01*
X-413864Y-3969134D01*
X-976723Y-3969134D01*
X-1154913Y-3790944D01*
X-1333103Y-3969134D01*
X-1999829Y-3969134D01*
X-2459449Y-3509514D01*
X-1792722Y-3509514D01*
X-1614532Y-3687704D01*
X-1436342Y-3509514D01*
X-873483Y-3509514D01*
X-695293Y-3687704D01*
X-517103Y-3509514D01*
X45755Y-3509514D01*
X223945Y-3687704D01*
X402136Y-3509514D01*
X223945Y-3331323D01*
X45755Y-3509514D01*
X-517103Y-3509514D01*
X-695293Y-3331324D01*
X-873483Y-3509514D01*
X-1436342Y-3509514D01*
X-1614532Y-3331324D01*
X-1792722Y-3509514D01*
X-2459449Y-3509514D01*
X-2919068Y-3049895D01*
X-2252342Y-3049895D01*
X-2074152Y-3228085D01*
X-1895961Y-3049895D01*
X-1895962Y-3049894D01*
X-1333104Y-3049894D01*
X-1154913Y-3228085D01*
X-1113196Y-3186368D01*
X641848Y-3186368D01*
X680792Y-3225312D01*
X738008Y-3168097D01*
X743930Y-3162174D01*
X641848Y-3186368D01*
X-1113196Y-3186368D01*
X-1014546Y-3087717D01*
X-1272505Y-2993828D01*
X-1275204Y-2992800D01*
X-1275781Y-2992570D01*
X-1333104Y-3049894D01*
X-1895962Y-3049894D01*
X-2074152Y-2871704D01*
X-2252342Y-3049895D01*
X-2919068Y-3049895D01*
X-3378688Y-2590275D01*
X-2711962Y-2590275D01*
X-2533771Y-2768466D01*
X-2355581Y-2590275D01*
X-2533771Y-2412084D01*
X-2711962Y-2590275D01*
X-3378688Y-2590275D01*
X-3838307Y-2130656D01*
X-3171580Y-2130656D01*
X-2993390Y-2308846D01*
X-2815200Y-2130656D01*
X-2993390Y-1952466D01*
X-3171580Y-2130656D01*
X-3838307Y-2130656D01*
X-4297926Y-1671037D01*
X-3631200Y-1671037D01*
X-3453010Y-1849227D01*
X-3274820Y-1671037D01*
X-3453010Y-1492847D01*
X-3631200Y-1671037D01*
X-4297926Y-1671037D01*
X-4757546Y-1211417D01*
X-4090819Y-1211417D01*
X-3912629Y-1389607D01*
X-3734439Y-1211417D01*
X-3734440Y-1211416D01*
X-3171581Y-1211416D01*
X-2993390Y-1389607D01*
X-2954986Y-1351202D01*
X-3050874Y-1128908D01*
X-3051978Y-1126243D01*
X-3054123Y-1120843D01*
X-3055141Y-1118168D01*
X-3059103Y-1107287D01*
X-3060055Y-1104548D01*
X-3061215Y-1101049D01*
X-3171581Y-1211416D01*
X-3734440Y-1211416D01*
X-3912629Y-1033227D01*
X-4090819Y-1211417D01*
X-4757546Y-1211417D01*
X-5217165Y-751798D01*
X-4550439Y-751798D01*
X-4372249Y-929988D01*
X-4194059Y-751798D01*
X-3631200Y-751798D01*
X-3453010Y-929988D01*
X-3274820Y-751798D01*
X-3453010Y-573608D01*
X-3631200Y-751798D01*
X-4194059Y-751798D01*
X-4372249Y-573608D01*
X-4550439Y-751798D01*
X-5217165Y-751798D01*
X-5269437Y-699526D01*
X-5269437Y-699525D01*
X-5355059Y-650091D01*
X-5355063Y-650089D01*
X-5420258Y-632620D01*
X-5420259Y-632620D01*
X-5450562Y-624500D01*
X-5450564Y-624500D01*
X-5450565Y-624500D01*
X-9525500Y-624500D01*
X-9583691Y-605593D01*
X-9619655Y-556093D01*
X-9624500Y-525500D01*
X-9624500Y-292178D01*
X-5010059Y-292178D01*
X-4831868Y-470369D01*
X-4653678Y-292178D01*
X-4090820Y-292178D01*
X-3912629Y-470369D01*
X-3734439Y-292178D01*
X-3912629Y-113988D01*
X-4090820Y-292178D01*
X-4653678Y-292178D01*
X-4831868Y-113988D01*
X-5010059Y-292178D01*
X-9624500Y-292178D01*
X-9624500Y-226500D01*
X-8621335Y-226500D01*
X-8396311Y-226500D01*
X-7702096Y-226500D01*
X-7477072Y-226500D01*
X-6782858Y-226500D01*
X-6557834Y-226500D01*
X-5863619Y-226500D01*
X-5638595Y-226500D01*
X-5751107Y-113988D01*
X-5863619Y-226500D01*
X-6557834Y-226500D01*
X-6670346Y-113988D01*
X-6782858Y-226500D01*
X-7477072Y-226500D01*
X-7589584Y-113988D01*
X-7702096Y-226500D01*
X-8396311Y-226500D01*
X-8508823Y-113988D01*
X-8621335Y-226500D01*
X-9624500Y-226500D01*
X-9624500Y167441D01*
X-9146633Y167441D01*
X-8968443Y-10749D01*
X-8790253Y167441D01*
X-8227394Y167441D01*
X-8049204Y-10749D01*
X-7871014Y167441D01*
X-7308155Y167441D01*
X-7129965Y-10749D01*
X-6951775Y167441D01*
X-6388916Y167441D01*
X-6210726Y-10749D01*
X-6032536Y167441D01*
X-5469677Y167441D01*
X-5291487Y-10749D01*
X-5113297Y167441D01*
X-4550439Y167441D01*
X-4372249Y-10749D01*
X-4194059Y167441D01*
X-3631200Y167441D01*
X-3453010Y-10749D01*
X-3442261Y0D01*
X-2855331Y0D01*
X-2836024Y-331486D01*
X-2779845Y-650090D01*
X-2778365Y-658485D01*
X-2750429Y-751798D01*
X-2683134Y-976580D01*
X-2683133Y-976582D01*
X-2604557Y-1158741D01*
X-2551617Y-1281470D01*
X-2551614Y-1281476D01*
X-2551610Y-1281483D01*
X-2385603Y-1569016D01*
X-2385597Y-1569026D01*
X-2385594Y-1569030D01*
X-2187310Y-1835371D01*
X-2014156Y-2018904D01*
X-1959446Y-2076894D01*
X-1931019Y-2100747D01*
X-1705085Y-2290327D01*
X-1601701Y-2358324D01*
X-1450239Y-2457943D01*
X-1427666Y-2472789D01*
X-1130939Y-2621811D01*
X-818918Y-2735377D01*
X-818915Y-2735377D01*
X-818914Y-2735378D01*
X-495834Y-2811950D01*
X-495829Y-2811950D01*
X-495823Y-2811952D01*
X-166023Y-2850500D01*
X-166020Y-2850500D01*
X166020Y-2850500D01*
X166023Y-2850500D01*
X495823Y-2811952D01*
X495829Y-2811950D01*
X495833Y-2811950D01*
X713258Y-2760419D01*
X818918Y-2735377D01*
X1130939Y-2621811D01*
X1427666Y-2472789D01*
X1705085Y-2290327D01*
X1959447Y-2076893D01*
X2187310Y-1835371D01*
X2385594Y-1569030D01*
X2551617Y-1281470D01*
X2683133Y-976581D01*
X2778365Y-658485D01*
X2836024Y-331484D01*
X2838313Y-292177D01*
X3263089Y-292177D01*
X3438507Y-467595D01*
X3616698Y-289405D01*
X3441280Y-113987D01*
X3263089Y-292177D01*
X2838313Y-292177D01*
X2855331Y0D01*
X2845579Y167441D01*
X3722711Y167441D01*
X3898127Y-7975D01*
X4076317Y170215D01*
X3900901Y345631D01*
X3722711Y167441D01*
X2845579Y167441D01*
X2836024Y331484D01*
X2783906Y627060D01*
X3263091Y627060D01*
X3441281Y448870D01*
X3619471Y627060D01*
X4182330Y627060D01*
X4357746Y451644D01*
X4497228Y591123D01*
X4501958Y595553D01*
X4511805Y604188D01*
X4516811Y608296D01*
X4530284Y618635D01*
X4538710Y627060D01*
X4392270Y773500D01*
X5248009Y773500D01*
X5311509Y773500D01*
X6167248Y773500D01*
X6230748Y773500D01*
X7086487Y773500D01*
X7149987Y773500D01*
X7118237Y805250D01*
X7086487Y773500D01*
X6230748Y773500D01*
X6198998Y805250D01*
X6167248Y773500D01*
X5311509Y773500D01*
X5279759Y805250D01*
X5248009Y773500D01*
X4392270Y773500D01*
X4360520Y805250D01*
X4182330Y627060D01*
X3619471Y627060D01*
X3441281Y805250D01*
X3263091Y627060D01*
X2783906Y627060D01*
X2778365Y658485D01*
X2683133Y976581D01*
X2566790Y1246294D01*
X3000238Y1246294D01*
X3050874Y1128908D01*
X3051978Y1126243D01*
X3054123Y1120843D01*
X3055141Y1118168D01*
X3059103Y1107287D01*
X3060055Y1104548D01*
X3061887Y1099018D01*
X3062751Y1096278D01*
X3087334Y1014163D01*
X3159852Y1086680D01*
X3722711Y1086680D01*
X3900901Y908490D01*
X4079091Y1086680D01*
X4641950Y1086680D01*
X4820140Y908490D01*
X4998330Y1086680D01*
X5561188Y1086680D01*
X5739378Y908490D01*
X5917568Y1086680D01*
X6480427Y1086680D01*
X6658617Y908490D01*
X6836807Y1086680D01*
X7399666Y1086680D01*
X7509728Y976618D01*
X7521169Y991767D01*
X7524007Y995350D01*
X7529910Y1002459D01*
X7532912Y1005909D01*
X7545305Y1019504D01*
X7548464Y1022814D01*
X7555000Y1029350D01*
X7558308Y1032508D01*
X7690086Y1152640D01*
X7577856Y1264870D01*
X7399666Y1086680D01*
X6836807Y1086680D01*
X6658617Y1264870D01*
X6480427Y1086680D01*
X5917568Y1086680D01*
X5739378Y1264870D01*
X5561188Y1086680D01*
X4998330Y1086680D01*
X4820140Y1264870D01*
X4641950Y1086680D01*
X4079091Y1086680D01*
X3900901Y1264870D01*
X3722711Y1086680D01*
X3159852Y1086680D01*
X3000238Y1246294D01*
X2566790Y1246294D01*
X2551617Y1281470D01*
X2501596Y1368109D01*
X2398718Y1546299D01*
X3263091Y1546299D01*
X3441281Y1368109D01*
X3619471Y1546299D01*
X4182330Y1546299D01*
X4360520Y1368109D01*
X4538710Y1546299D01*
X5101569Y1546299D01*
X5279759Y1368109D01*
X5457949Y1546299D01*
X6020808Y1546299D01*
X6198998Y1368109D01*
X6377188Y1546299D01*
X6940047Y1546299D01*
X7118237Y1368109D01*
X7296427Y1546299D01*
X7118237Y1724489D01*
X6940047Y1546299D01*
X6377188Y1546299D01*
X6198998Y1724489D01*
X6020808Y1546299D01*
X5457949Y1546299D01*
X5279759Y1724489D01*
X5101569Y1546299D01*
X4538710Y1546299D01*
X4360520Y1724489D01*
X4182330Y1546299D01*
X3619471Y1546299D01*
X3441281Y1724489D01*
X3263091Y1546299D01*
X2398718Y1546299D01*
X2385602Y1569017D01*
X2385598Y1569023D01*
X2385594Y1569030D01*
X2187310Y1835371D01*
X2026407Y2005919D01*
X2803472Y2005919D01*
X2981662Y1827729D01*
X3159852Y2005919D01*
X3722711Y2005919D01*
X3900901Y1827729D01*
X4079091Y2005919D01*
X4641950Y2005919D01*
X4820140Y1827729D01*
X4998330Y2005919D01*
X5561188Y2005919D01*
X5739378Y1827729D01*
X5917568Y2005919D01*
X6480427Y2005919D01*
X6658617Y1827729D01*
X6836807Y2005919D01*
X6658617Y2184109D01*
X6480427Y2005919D01*
X5917568Y2005919D01*
X5739378Y2184109D01*
X5561188Y2005919D01*
X4998330Y2005919D01*
X4820140Y2184109D01*
X4641950Y2005919D01*
X4079091Y2005919D01*
X3900901Y2184109D01*
X3722711Y2005919D01*
X3159852Y2005919D01*
X2981662Y2184109D01*
X2803472Y2005919D01*
X2026407Y2005919D01*
X1959447Y2076893D01*
X1950362Y2084516D01*
X1824922Y2189772D01*
X1705085Y2290327D01*
X1574387Y2376289D01*
X1438692Y2465538D01*
X2343851Y2465538D01*
X2522042Y2287348D01*
X2700233Y2465538D01*
X3263091Y2465538D01*
X3441281Y2287348D01*
X3619471Y2465538D01*
X4182330Y2465538D01*
X4360520Y2287348D01*
X4538710Y2465538D01*
X5101569Y2465538D01*
X5279759Y2287348D01*
X5457949Y2465538D01*
X6020808Y2465538D01*
X6198998Y2287348D01*
X6377188Y2465538D01*
X6940047Y2465538D01*
X7118237Y2287348D01*
X7207177Y2376289D01*
X7197878Y2470716D01*
X7197520Y2475559D01*
X7197038Y2485366D01*
X7196919Y2490226D01*
X7196919Y2500005D01*
X7594919Y2500005D01*
X7594919Y2499996D01*
X7615190Y2294170D01*
X7615191Y2294164D01*
X7675232Y2096238D01*
X7675234Y2096233D01*
X7772724Y1913840D01*
X7772731Y1913830D01*
X7808324Y1870459D01*
X8206328Y2268464D01*
X8249901Y2192993D01*
X8342993Y2099901D01*
X8418460Y2056330D01*
X8020457Y1658326D01*
X8063828Y1622732D01*
X8063834Y1622728D01*
X8246232Y1525235D01*
X8246237Y1525233D01*
X8444163Y1465192D01*
X8444169Y1465191D01*
X8649996Y1444919D01*
X8650004Y1444919D01*
X8855830Y1465191D01*
X8855836Y1465192D01*
X9053762Y1525233D01*
X9053767Y1525235D01*
X9236166Y1622730D01*
X9236177Y1622737D01*
X9279541Y1658326D01*
X8881538Y2056329D01*
X8957007Y2099901D01*
X9050099Y2192993D01*
X9093671Y2268462D01*
X9491674Y1870459D01*
X9527263Y1913823D01*
X9527270Y1913834D01*
X9624765Y2096233D01*
X9624767Y2096238D01*
X9684808Y2294164D01*
X9684809Y2294170D01*
X9705081Y2499996D01*
X9705081Y2500005D01*
X9684809Y2705831D01*
X9684808Y2705837D01*
X9624767Y2903763D01*
X9624765Y2903768D01*
X9527272Y3086166D01*
X9527268Y3086172D01*
X9491674Y3129543D01*
X9093670Y2731540D01*
X9050099Y2807007D01*
X8957007Y2900099D01*
X8881536Y2943672D01*
X9279541Y3341676D01*
X9236170Y3377269D01*
X9236160Y3377276D01*
X9053767Y3474766D01*
X9053762Y3474768D01*
X8855836Y3534809D01*
X8855830Y3534810D01*
X8650004Y3555081D01*
X8649996Y3555081D01*
X8444169Y3534810D01*
X8444163Y3534809D01*
X8246237Y3474768D01*
X8246232Y3474766D01*
X8063834Y3377272D01*
X8063824Y3377266D01*
X8020457Y3341676D01*
X8418461Y2943672D01*
X8342993Y2900099D01*
X8249901Y2807007D01*
X8206328Y2731539D01*
X7808324Y3129543D01*
X7772734Y3086176D01*
X7772728Y3086166D01*
X7675234Y2903768D01*
X7675232Y2903763D01*
X7615191Y2705837D01*
X7615190Y2705831D01*
X7594919Y2500005D01*
X7196919Y2500005D01*
X7196919Y2509774D01*
X7197038Y2514634D01*
X7197520Y2524441D01*
X7197878Y2529283D01*
X7200998Y2560967D01*
X7118237Y2643728D01*
X6940047Y2465538D01*
X6377188Y2465538D01*
X6198998Y2643728D01*
X6020808Y2465538D01*
X5457949Y2465538D01*
X5279759Y2643728D01*
X5101569Y2465538D01*
X4538710Y2465538D01*
X4360520Y2643728D01*
X4182330Y2465538D01*
X3619471Y2465538D01*
X3441281Y2643728D01*
X3263091Y2465538D01*
X2700233Y2465538D01*
X2522042Y2643729D01*
X2343851Y2465538D01*
X1438692Y2465538D01*
X1427667Y2472789D01*
X1130941Y2621810D01*
X1130940Y2621811D01*
X1130939Y2621811D01*
X818918Y2735377D01*
X818919Y2735377D01*
X818913Y2735379D01*
X495833Y2811951D01*
X376858Y2825857D01*
X166023Y2850500D01*
X-166023Y2850500D01*
X-347755Y2829259D01*
X-495834Y2811951D01*
X-818914Y2735379D01*
X-1005877Y2667330D01*
X-1130939Y2621811D01*
X-1130940Y2621811D01*
X-1130942Y2621810D01*
X-1427668Y2472789D01*
X-1705084Y2290328D01*
X-1959446Y2076895D01*
X-2187307Y1835375D01*
X-2385593Y1569032D01*
X-2385603Y1569017D01*
X-2551610Y1281484D01*
X-2551620Y1281464D01*
X-2683133Y976583D01*
X-2683134Y976581D01*
X-2778366Y658481D01*
X-2836024Y331487D01*
X-2855331Y0D01*
X-3442261Y0D01*
X-3274820Y167441D01*
X-3453010Y345631D01*
X-3631200Y167441D01*
X-4194059Y167441D01*
X-4372249Y345631D01*
X-4550439Y167441D01*
X-5113297Y167441D01*
X-5291487Y345631D01*
X-5469677Y167441D01*
X-6032536Y167441D01*
X-6210726Y345631D01*
X-6388916Y167441D01*
X-6951775Y167441D01*
X-7129965Y345631D01*
X-7308155Y167441D01*
X-7871014Y167441D01*
X-8049204Y345631D01*
X-8227394Y167441D01*
X-8790253Y167441D01*
X-8968443Y345631D01*
X-9146633Y167441D01*
X-9624500Y167441D01*
X-9624500Y627060D01*
X-8687013Y627060D01*
X-8508823Y448870D01*
X-8330633Y627060D01*
X-7767774Y627060D01*
X-7589584Y448870D01*
X-7411394Y627060D01*
X-6848536Y627060D01*
X-6670346Y448870D01*
X-6492156Y627060D01*
X-5929297Y627060D01*
X-5751107Y448870D01*
X-5572917Y627060D01*
X-5010058Y627060D01*
X-4831868Y448870D01*
X-4653678Y627060D01*
X-4090819Y627060D01*
X-3912629Y448870D01*
X-3734439Y627060D01*
X-3912629Y805250D01*
X-4090819Y627060D01*
X-4653678Y627060D01*
X-4831868Y805250D01*
X-5010058Y627060D01*
X-5572917Y627060D01*
X-5751107Y805250D01*
X-5929297Y627060D01*
X-6492156Y627060D01*
X-6670346Y805250D01*
X-6848536Y627060D01*
X-7411394Y627060D01*
X-7589584Y805250D01*
X-7767774Y627060D01*
X-8330633Y627060D01*
X-8508823Y805250D01*
X-8687013Y627060D01*
X-9624500Y627060D01*
X-9624500Y1086680D01*
X-9146633Y1086680D01*
X-8968443Y908490D01*
X-8790253Y1086680D01*
X-8227394Y1086680D01*
X-8049204Y908490D01*
X-7871014Y1086680D01*
X-7308155Y1086680D01*
X-7129965Y908490D01*
X-6951775Y1086680D01*
X-6388916Y1086680D01*
X-6210726Y908490D01*
X-6032536Y1086680D01*
X-5469677Y1086680D01*
X-5291487Y908490D01*
X-5113297Y1086680D01*
X-4550439Y1086680D01*
X-4372249Y908490D01*
X-4194059Y1086680D01*
X-3631200Y1086680D01*
X-3453010Y908490D01*
X-3274820Y1086680D01*
X-3453010Y1264870D01*
X-3631200Y1086680D01*
X-4194059Y1086680D01*
X-4372249Y1264870D01*
X-4550439Y1086680D01*
X-5113297Y1086680D01*
X-5291487Y1264870D01*
X-5469677Y1086680D01*
X-6032536Y1086680D01*
X-6210726Y1264870D01*
X-6388916Y1086680D01*
X-6951775Y1086680D01*
X-7129965Y1264870D01*
X-7308155Y1086680D01*
X-7871014Y1086680D01*
X-8049204Y1264870D01*
X-8227394Y1086680D01*
X-8790253Y1086680D01*
X-8968443Y1264870D01*
X-9146633Y1086680D01*
X-9624500Y1086680D01*
X-9624500Y1546299D01*
X-8687013Y1546299D01*
X-8508823Y1368109D01*
X-8330633Y1546299D01*
X-7767774Y1546299D01*
X-7589584Y1368109D01*
X-7411394Y1546299D01*
X-6848536Y1546299D01*
X-6670346Y1368109D01*
X-6492156Y1546299D01*
X-5929297Y1546299D01*
X-5751107Y1368109D01*
X-5572917Y1546299D01*
X-5010058Y1546299D01*
X-4831868Y1368109D01*
X-4653678Y1546299D01*
X-4090819Y1546299D01*
X-3912629Y1368109D01*
X-3734439Y1546299D01*
X-3171580Y1546299D01*
X-2993390Y1368109D01*
X-2912851Y1448649D01*
X-2911140Y1452317D01*
X-2909891Y1454896D01*
X-2904696Y1465244D01*
X-2903356Y1467819D01*
X-2900591Y1472946D01*
X-2899192Y1475453D01*
X-2842518Y1573617D01*
X-2993390Y1724489D01*
X-3171580Y1546299D01*
X-3734439Y1546299D01*
X-3912629Y1724489D01*
X-4090819Y1546299D01*
X-4653678Y1546299D01*
X-4831868Y1724489D01*
X-5010058Y1546299D01*
X-5572917Y1546299D01*
X-5751107Y1724489D01*
X-5929297Y1546299D01*
X-6492156Y1546299D01*
X-6670346Y1724489D01*
X-6848536Y1546299D01*
X-7411394Y1546299D01*
X-7589584Y1724489D01*
X-7767774Y1546299D01*
X-8330633Y1546299D01*
X-8508823Y1724489D01*
X-8687013Y1546299D01*
X-9624500Y1546299D01*
X-9624500Y1981198D01*
X-9121912Y1981198D01*
X-8968443Y1827729D01*
X-8790253Y2005919D01*
X-8227394Y2005919D01*
X-8049204Y1827729D01*
X-7871014Y2005919D01*
X-7308155Y2005919D01*
X-7129965Y1827729D01*
X-6951775Y2005919D01*
X-6951776Y2005920D01*
X-6388917Y2005920D01*
X-6210726Y1827729D01*
X-6208516Y1829939D01*
X-5293697Y1829939D01*
X-5291487Y1827729D01*
X-5287611Y1831606D01*
X-5287981Y1831493D01*
X-5292665Y1830197D01*
X-5293697Y1829939D01*
X-6208516Y1829939D01*
X-6138021Y1900435D01*
X-6142505Y1902039D01*
X-6147028Y1903784D01*
X-6165087Y1911263D01*
X-6169532Y1913233D01*
X-6178413Y1917433D01*
X-6182756Y1919619D01*
X-6344213Y2005919D01*
X-4550439Y2005919D01*
X-4372249Y1827729D01*
X-4194059Y2005919D01*
X-3631200Y2005919D01*
X-3453010Y1827729D01*
X-3274820Y2005919D01*
X-2711961Y2005919D01*
X-2622860Y1916818D01*
X-2503101Y2077680D01*
X-2501352Y2079960D01*
X-2497750Y2084516D01*
X-2495930Y2086750D01*
X-2488487Y2095621D01*
X-2486608Y2097796D01*
X-2482734Y2102150D01*
X-2480783Y2104279D01*
X-2467753Y2118091D01*
X-2533771Y2184109D01*
X-2711961Y2005919D01*
X-3274820Y2005919D01*
X-3453010Y2184109D01*
X-3631200Y2005919D01*
X-4194059Y2005919D01*
X-4372249Y2184109D01*
X-4550439Y2005919D01*
X-6344213Y2005919D01*
X-6373346Y2021491D01*
X-6388917Y2005920D01*
X-6951776Y2005920D01*
X-7129965Y2184109D01*
X-7308155Y2005919D01*
X-7871014Y2005919D01*
X-8049204Y2184109D01*
X-8227394Y2005919D01*
X-8790253Y2005919D01*
X-8931074Y2146740D01*
X-9072624Y2017699D01*
X-9076066Y2014704D01*
X-9083172Y2008802D01*
X-9086765Y2005956D01*
X-9101445Y1994870D01*
X-9105152Y1992202D01*
X-9112780Y1986976D01*
X-9116618Y1984475D01*
X-9121912Y1981198D01*
X-9624500Y1981198D01*
X-9624500Y2097457D01*
X-9605593Y2155648D01*
X-9561262Y2189772D01*
X-9507363Y2210652D01*
X-9333959Y2318019D01*
X-9183236Y2455421D01*
X-9175595Y2465539D01*
X-8687014Y2465539D01*
X-8508823Y2287348D01*
X-8330633Y2465538D01*
X-7767774Y2465538D01*
X-7589584Y2287348D01*
X-7411394Y2465538D01*
X-7411395Y2465539D01*
X-6848537Y2465539D01*
X-6741853Y2358855D01*
X-6791122Y2418890D01*
X-6794107Y2422714D01*
X-6799950Y2430591D01*
X-6802747Y2434562D01*
X-6813608Y2450813D01*
X-6816211Y2454923D01*
X-6821266Y2463356D01*
X-6823663Y2467588D01*
X-6831614Y2482463D01*
X-6848537Y2465539D01*
X-7411395Y2465539D01*
X-7589584Y2643728D01*
X-7767774Y2465538D01*
X-8330633Y2465538D01*
X-8508824Y2643729D01*
X-8687014Y2465539D01*
X-9175595Y2465539D01*
X-9060327Y2618179D01*
X-8969418Y2800750D01*
X-8934021Y2925157D01*
X-8227394Y2925157D01*
X-8049204Y2746967D01*
X-7871014Y2925157D01*
X-7308155Y2925157D01*
X-7129965Y2746967D01*
X-6999991Y2876941D01*
X-7018507Y2937981D01*
X-7019803Y2942665D01*
X-7022188Y2952187D01*
X-7023252Y2956924D01*
X-7027066Y2976095D01*
X-7027897Y2980880D01*
X-7029339Y2990597D01*
X-7029934Y2995426D01*
X-7030796Y3004178D01*
X-7129965Y3103347D01*
X-7308155Y2925157D01*
X-7871014Y2925157D01*
X-8049204Y3103347D01*
X-8227394Y2925157D01*
X-8934021Y2925157D01*
X-8913603Y2996917D01*
X-8894785Y3200000D01*
X-8913603Y3403083D01*
X-8951016Y3534573D01*
X-8537220Y3534573D01*
X-8528280Y3503155D01*
X-8527130Y3498729D01*
X-8525014Y3489733D01*
X-8524069Y3485255D01*
X-8520689Y3467172D01*
X-8519952Y3462653D01*
X-8518676Y3453501D01*
X-8518150Y3448965D01*
X-8497634Y3227565D01*
X-8497318Y3223004D01*
X-8497101Y3218310D01*
X-8330633Y3384777D01*
X-7767774Y3384777D01*
X-7589584Y3206587D01*
X-7546166Y3250005D01*
X-6655081Y3250005D01*
X-6655081Y3249996D01*
X-6634810Y3044170D01*
X-6634809Y3044164D01*
X-6574768Y2846238D01*
X-6574766Y2846233D01*
X-6477276Y2663840D01*
X-6477269Y2663830D01*
X-6441676Y2620459D01*
X-6043672Y3018464D01*
X-6000099Y2942993D01*
X-5907007Y2849901D01*
X-5831540Y2806330D01*
X-6229543Y2408326D01*
X-6186172Y2372732D01*
X-6186166Y2372728D01*
X-6003768Y2275235D01*
X-6003763Y2275233D01*
X-5805837Y2215192D01*
X-5805831Y2215191D01*
X-5600004Y2194919D01*
X-5599996Y2194919D01*
X-5394170Y2215191D01*
X-5394164Y2215192D01*
X-5196238Y2275233D01*
X-5196233Y2275235D01*
X-5013834Y2372730D01*
X-5013823Y2372737D01*
X-4970459Y2408326D01*
X-5027671Y2465538D01*
X-4090819Y2465538D01*
X-3912629Y2287348D01*
X-3734439Y2465538D01*
X-3171580Y2465538D01*
X-2993390Y2287348D01*
X-2815200Y2465538D01*
X-2252342Y2465538D01*
X-2189888Y2403084D01*
X-1996107Y2565683D01*
X-2074152Y2643728D01*
X-2252342Y2465538D01*
X-2815200Y2465538D01*
X-2993390Y2643728D01*
X-3171580Y2465538D01*
X-3734439Y2465538D01*
X-3912629Y2643728D01*
X-4090819Y2465538D01*
X-5027671Y2465538D01*
X-5368462Y2806329D01*
X-5292993Y2849901D01*
X-5199901Y2942993D01*
X-5156329Y3018462D01*
X-4758326Y2620459D01*
X-4722737Y2663823D01*
X-4722730Y2663834D01*
X-4625235Y2846233D01*
X-4625233Y2846238D01*
X-4601293Y2925157D01*
X-3631200Y2925157D01*
X-3453010Y2746967D01*
X-3274820Y2925157D01*
X-3274821Y2925158D01*
X-2711962Y2925158D01*
X-2533771Y2746967D01*
X-2417619Y2863120D01*
X-2473721Y2869441D01*
X-2479216Y2870216D01*
X-2490277Y2872095D01*
X-2495724Y2873179D01*
X-2517506Y2878150D01*
X-2522886Y2879537D01*
X-2533674Y2882645D01*
X-2538965Y2884332D01*
X-2655638Y2925158D01*
X-1792723Y2925158D01*
X-1662362Y2794797D01*
X-1641534Y2808495D01*
X-1639100Y2810045D01*
X-1634148Y2813099D01*
X-1631679Y2814572D01*
X-1621650Y2820362D01*
X-1619148Y2821759D01*
X-1614027Y2824521D01*
X-1611462Y2825857D01*
X-1459146Y2902354D01*
X-1457802Y2903698D01*
X1905692Y2903698D01*
X2062423Y2746967D01*
X2168834Y2853379D01*
X2026279Y2869441D01*
X2020784Y2870216D01*
X2009723Y2872095D01*
X2004276Y2873179D01*
X1982494Y2878150D01*
X1977114Y2879537D01*
X1966326Y2882645D01*
X1961035Y2884332D01*
X1905692Y2903698D01*
X-1457802Y2903698D01*
X-1436342Y2925157D01*
X2803472Y2925157D01*
X2981662Y2746967D01*
X3159852Y2925157D01*
X3722711Y2925157D01*
X3900901Y2746967D01*
X4079091Y2925157D01*
X4641950Y2925157D01*
X4820140Y2746967D01*
X4998330Y2925157D01*
X5561188Y2925157D01*
X5739378Y2746967D01*
X5917568Y2925157D01*
X6480427Y2925157D01*
X6658617Y2746967D01*
X6836807Y2925157D01*
X6658617Y3103347D01*
X6480427Y2925157D01*
X5917568Y2925157D01*
X5739378Y3103347D01*
X5561188Y2925157D01*
X4998330Y2925157D01*
X4820140Y3103347D01*
X4641950Y2925157D01*
X4079091Y2925157D01*
X3900901Y3103347D01*
X3722711Y2925157D01*
X3159852Y2925157D01*
X2981662Y3103347D01*
X2803472Y2925157D01*
X-1436342Y2925157D01*
X-1577403Y3066218D01*
X-1720023Y2976602D01*
X-1724808Y2973780D01*
X-1734637Y2968348D01*
X-1739574Y2965797D01*
X-1759705Y2956104D01*
X-1763454Y2954428D01*
X-1792723Y2925158D01*
X-2655638Y2925158D01*
X-2697362Y2939758D01*
X-2711962Y2925158D01*
X-3274821Y2925158D01*
X-3453010Y3103347D01*
X-3631200Y2925157D01*
X-4601293Y2925157D01*
X-4565192Y3044164D01*
X-4565191Y3044170D01*
X-4544919Y3249996D01*
X-4544919Y3250005D01*
X-4558193Y3384777D01*
X-4090819Y3384777D01*
X-3912629Y3206587D01*
X-3734439Y3384777D01*
X-3912629Y3562967D01*
X-4090819Y3384777D01*
X-4558193Y3384777D01*
X-4565191Y3455831D01*
X-4565192Y3455837D01*
X-4625233Y3653763D01*
X-4625235Y3653768D01*
X-4722728Y3836166D01*
X-4722732Y3836172D01*
X-4758326Y3879543D01*
X-5156330Y3481540D01*
X-5199901Y3557007D01*
X-5292993Y3650099D01*
X-5368464Y3693672D01*
X-5042049Y4020086D01*
X-4369749Y4020086D01*
X-4269619Y3832756D01*
X-4267433Y3828413D01*
X-4263233Y3819532D01*
X-4261263Y3815087D01*
X-4253784Y3797028D01*
X-4252039Y3792505D01*
X-4250435Y3788021D01*
X-4194059Y3844396D01*
X-3631200Y3844396D01*
X-3453010Y3666206D01*
X-3374614Y3744603D01*
X-3376821Y3754276D01*
X-3377905Y3759723D01*
X-3379784Y3770784D01*
X-3380559Y3776279D01*
X-3401997Y3966538D01*
X-3402461Y3972037D01*
X-3430429Y4000005D01*
X-3005249Y4000005D01*
X-3005249Y3999996D01*
X-2986315Y3831947D01*
X-2986312Y3831935D01*
X-2930456Y3672310D01*
X-2930456Y3672309D01*
X-2861752Y3562968D01*
X-2840477Y3529110D01*
X-2720890Y3409523D01*
X-2720888Y3409522D01*
X-2720887Y3409521D01*
X-2669559Y3377269D01*
X-2577690Y3319544D01*
X-2513768Y3297177D01*
X-2418066Y3263689D01*
X-2418062Y3263688D01*
X-2418059Y3263687D01*
X-2418058Y3263687D01*
X-2418054Y3263686D01*
X-2250004Y3244751D01*
X-2250000Y3244751D01*
X-2249996Y3244751D01*
X-2081947Y3263686D01*
X-2081945Y3263687D01*
X-2081941Y3263687D01*
X-1922310Y3319544D01*
X-1779110Y3409523D01*
X-1659523Y3529110D01*
X-1583826Y3649580D01*
X-1536857Y3688792D01*
X-1475810Y3692908D01*
X-1424003Y3660355D01*
X-1416174Y3649580D01*
X-1340477Y3529110D01*
X-1220890Y3409523D01*
X-1220888Y3409522D01*
X-1220887Y3409521D01*
X-1169559Y3377269D01*
X-1077690Y3319544D01*
X-1013768Y3297177D01*
X-918066Y3263689D01*
X-918062Y3263688D01*
X-918059Y3263687D01*
X-918058Y3263687D01*
X-918054Y3263686D01*
X-750004Y3244751D01*
X-750000Y3244751D01*
X-749996Y3244751D01*
X-581947Y3263686D01*
X-581945Y3263687D01*
X-581941Y3263687D01*
X-422310Y3319544D01*
X-279110Y3409523D01*
X-159523Y3529110D01*
X-83826Y3649580D01*
X-36857Y3688792D01*
X24190Y3692908D01*
X75997Y3660355D01*
X83826Y3649580D01*
X159523Y3529110D01*
X279110Y3409523D01*
X279112Y3409522D01*
X279113Y3409521D01*
X330441Y3377269D01*
X422310Y3319544D01*
X486232Y3297177D01*
X581934Y3263689D01*
X581938Y3263688D01*
X581941Y3263687D01*
X581942Y3263687D01*
X581946Y3263686D01*
X749996Y3244751D01*
X750000Y3244751D01*
X750004Y3244751D01*
X918053Y3263686D01*
X918055Y3263687D01*
X918059Y3263687D01*
X1077690Y3319544D01*
X1220890Y3409523D01*
X1340477Y3529110D01*
X1416174Y3649580D01*
X1463143Y3688792D01*
X1524190Y3692908D01*
X1575997Y3660355D01*
X1583826Y3649580D01*
X1659523Y3529110D01*
X1779110Y3409523D01*
X1779112Y3409522D01*
X1779113Y3409521D01*
X1830441Y3377269D01*
X1922310Y3319544D01*
X1986232Y3297177D01*
X2081934Y3263689D01*
X2081938Y3263688D01*
X2081941Y3263687D01*
X2081942Y3263687D01*
X2081946Y3263686D01*
X2249996Y3244751D01*
X2250000Y3244751D01*
X2250004Y3244751D01*
X2418053Y3263686D01*
X2418055Y3263687D01*
X2418059Y3263687D01*
X2577690Y3319544D01*
X2681507Y3384777D01*
X3263091Y3384777D01*
X3441281Y3206587D01*
X3619471Y3384777D01*
X4182330Y3384777D01*
X4360520Y3206587D01*
X4538710Y3384777D01*
X5101569Y3384777D01*
X5279759Y3206587D01*
X5457949Y3384777D01*
X6020808Y3384777D01*
X6198998Y3206587D01*
X6377188Y3384777D01*
X6940047Y3384777D01*
X7118237Y3206587D01*
X7296427Y3384777D01*
X7118237Y3562967D01*
X6940047Y3384777D01*
X6377188Y3384777D01*
X6198998Y3562967D01*
X6020808Y3384777D01*
X5457949Y3384777D01*
X5279759Y3562967D01*
X5101569Y3384777D01*
X4538710Y3384777D01*
X4360520Y3562967D01*
X4182330Y3384777D01*
X3619471Y3384777D01*
X3441281Y3562967D01*
X3263091Y3384777D01*
X2681507Y3384777D01*
X2720890Y3409523D01*
X2840477Y3529110D01*
X2930456Y3672310D01*
X2986313Y3831941D01*
X2986790Y3836172D01*
X2987717Y3844396D01*
X3722711Y3844396D01*
X3900901Y3666206D01*
X4079091Y3844396D01*
X4641950Y3844396D01*
X4820140Y3666206D01*
X4998330Y3844396D01*
X5561188Y3844396D01*
X5739378Y3666206D01*
X5917568Y3844396D01*
X6480427Y3844396D01*
X6658617Y3666206D01*
X6836807Y3844396D01*
X7399666Y3844396D01*
X7577856Y3666206D01*
X7756046Y3844396D01*
X9238144Y3844396D01*
X9274438Y3808102D01*
X9432412Y3723663D01*
X9436644Y3721266D01*
X9445077Y3716211D01*
X9449187Y3713608D01*
X9457907Y3707780D01*
X9591500Y3841372D01*
X9591500Y3847420D01*
X9416334Y4022586D01*
X9238144Y3844396D01*
X7756046Y3844396D01*
X7669522Y3930920D01*
X8405428Y3930920D01*
X8572324Y3947357D01*
X8497095Y4022586D01*
X8405428Y3930920D01*
X7669522Y3930920D01*
X7577856Y4022586D01*
X7399666Y3844396D01*
X6836807Y3844396D01*
X6658617Y4022586D01*
X6480427Y3844396D01*
X5917568Y3844396D01*
X5739378Y4022586D01*
X5561188Y3844396D01*
X4998330Y3844396D01*
X4820140Y4022586D01*
X4641950Y3844396D01*
X4079091Y3844396D01*
X3900901Y4022586D01*
X3722711Y3844396D01*
X2987717Y3844396D01*
X3005249Y3999996D01*
X3005249Y4000005D01*
X2986314Y4168054D01*
X2986311Y4168066D01*
X2951417Y4267786D01*
X2930456Y4327690D01*
X2900035Y4376104D01*
X3335176Y4376104D01*
X3365668Y4288965D01*
X3367355Y4283674D01*
X3370463Y4272886D01*
X3371850Y4267506D01*
X3376821Y4245724D01*
X3377905Y4240277D01*
X3379784Y4229216D01*
X3380560Y4223721D01*
X3385280Y4181827D01*
X3441281Y4125826D01*
X3619471Y4304016D01*
X4182330Y4304016D01*
X4360520Y4125826D01*
X4538710Y4304016D01*
X5101569Y4304016D01*
X5279759Y4125826D01*
X5457949Y4304016D01*
X6020808Y4304016D01*
X6198998Y4125826D01*
X6248290Y4175118D01*
X6242075Y4180218D01*
X6180218Y4242075D01*
X6167907Y4257077D01*
X6146019Y4289834D01*
X6136870Y4306951D01*
X6106722Y4379736D01*
X6104349Y4387558D01*
X6020808Y4304016D01*
X5457949Y4304016D01*
X5279759Y4482206D01*
X5101569Y4304016D01*
X4538710Y4304016D01*
X4360520Y4482206D01*
X4182330Y4304016D01*
X3619471Y4304016D01*
X3441280Y4482207D01*
X3335176Y4376104D01*
X2900035Y4376104D01*
X2840479Y4470887D01*
X2840478Y4470888D01*
X2840477Y4470890D01*
X2720890Y4590477D01*
X2720887Y4590479D01*
X2720886Y4590480D01*
X2577691Y4680456D01*
X2418065Y4736312D01*
X2418053Y4736315D01*
X2250004Y4755249D01*
X2249996Y4755249D01*
X2081946Y4736315D01*
X2081934Y4736312D01*
X1922309Y4680456D01*
X1922308Y4680456D01*
X1779113Y4590480D01*
X1659518Y4470885D01*
X1583825Y4350420D01*
X1536857Y4311208D01*
X1475810Y4307093D01*
X1424003Y4339646D01*
X1416175Y4350420D01*
X1340481Y4470885D01*
X1340478Y4470888D01*
X1340477Y4470890D01*
X1220890Y4590477D01*
X1220887Y4590479D01*
X1220886Y4590480D01*
X1077691Y4680456D01*
X918065Y4736312D01*
X918053Y4736315D01*
X750004Y4755249D01*
X749996Y4755249D01*
X581946Y4736315D01*
X581934Y4736312D01*
X422309Y4680456D01*
X422308Y4680456D01*
X279113Y4590480D01*
X159518Y4470885D01*
X83825Y4350420D01*
X36857Y4311208D01*
X-24190Y4307093D01*
X-75997Y4339646D01*
X-83825Y4350420D01*
X-159519Y4470885D01*
X-159522Y4470888D01*
X-159523Y4470890D01*
X-279110Y4590477D01*
X-279113Y4590479D01*
X-279114Y4590480D01*
X-422309Y4680456D01*
X-581935Y4736312D01*
X-581947Y4736315D01*
X-749996Y4755249D01*
X-750004Y4755249D01*
X-918054Y4736315D01*
X-918066Y4736312D01*
X-1077691Y4680456D01*
X-1077692Y4680456D01*
X-1220887Y4590480D01*
X-1340482Y4470885D01*
X-1416175Y4350420D01*
X-1463143Y4311208D01*
X-1524190Y4307093D01*
X-1575997Y4339646D01*
X-1583825Y4350420D01*
X-1659519Y4470885D01*
X-1659522Y4470888D01*
X-1659523Y4470890D01*
X-1779110Y4590477D01*
X-1779113Y4590479D01*
X-1779114Y4590480D01*
X-1922309Y4680456D01*
X-2081935Y4736312D01*
X-2081947Y4736315D01*
X-2249996Y4755249D01*
X-2250004Y4755249D01*
X-2418054Y4736315D01*
X-2418066Y4736312D01*
X-2577691Y4680456D01*
X-2577692Y4680456D01*
X-2720887Y4590480D01*
X-2840480Y4470887D01*
X-2930456Y4327692D01*
X-2930456Y4327691D01*
X-2986312Y4168066D01*
X-2986315Y4168054D01*
X-3005249Y4000005D01*
X-3430429Y4000005D01*
X-3453010Y4022586D01*
X-3631200Y3844396D01*
X-4194059Y3844396D01*
X-4369749Y4020086D01*
X-5042049Y4020086D01*
X-4970459Y4091676D01*
X-5013830Y4127269D01*
X-5013840Y4127276D01*
X-5196233Y4224766D01*
X-5196238Y4224768D01*
X-5394164Y4284809D01*
X-5394170Y4284810D01*
X-5589182Y4304016D01*
X-4090819Y4304016D01*
X-3912629Y4125826D01*
X-3734439Y4304016D01*
X-3912629Y4482206D01*
X-4090819Y4304016D01*
X-5589182Y4304016D01*
X-5599996Y4305081D01*
X-5600004Y4305081D01*
X-5805831Y4284810D01*
X-5805837Y4284809D01*
X-6003763Y4224768D01*
X-6003768Y4224766D01*
X-6186166Y4127272D01*
X-6186176Y4127266D01*
X-6229543Y4091676D01*
X-5831539Y3693672D01*
X-5907007Y3650099D01*
X-6000099Y3557007D01*
X-6043672Y3481539D01*
X-6441676Y3879543D01*
X-6477266Y3836176D01*
X-6477272Y3836166D01*
X-6574766Y3653768D01*
X-6574768Y3653763D01*
X-6634809Y3455837D01*
X-6634810Y3455831D01*
X-6655081Y3250005D01*
X-7546166Y3250005D01*
X-7411394Y3384777D01*
X-7589584Y3562967D01*
X-7767774Y3384777D01*
X-8330633Y3384777D01*
X-8508824Y3562968D01*
X-8537220Y3534573D01*
X-8951016Y3534573D01*
X-8969418Y3599250D01*
X-9060327Y3781821D01*
X-9107581Y3844396D01*
X-8227394Y3844396D01*
X-8049204Y3666206D01*
X-7871014Y3844396D01*
X-7308155Y3844396D01*
X-7129965Y3666206D01*
X-6951775Y3844396D01*
X-7129965Y4022586D01*
X-7308155Y3844396D01*
X-7871014Y3844396D01*
X-8049204Y4022586D01*
X-8227394Y3844396D01*
X-9107581Y3844396D01*
X-9183236Y3944579D01*
X-9333959Y4081981D01*
X-9507363Y4189348D01*
X-9697544Y4263024D01*
X-9697545Y4263025D01*
X-9697547Y4263025D01*
X-9858897Y4293186D01*
X-9912623Y4322464D01*
X-9938879Y4377729D01*
X-9927636Y4437873D01*
X-9883189Y4479921D01*
X-9875681Y4481614D01*
X-4832463Y4481614D01*
X-4829913Y4480251D01*
X-4831869Y4482207D01*
X-4832463Y4481614D01*
X-9875681Y4481614D01*
X-9840706Y4489500D01*
X-6495652Y4489500D01*
X-6495651Y4489500D01*
X-6489500Y4495651D01*
X-6489500Y4682120D01*
X-4468924Y4682120D01*
X-4372249Y4585445D01*
X-4194059Y4763635D01*
X-3631200Y4763635D01*
X-3453010Y4585445D01*
X-3274820Y4763635D01*
X-3424830Y4913645D01*
X2953480Y4913645D01*
X2955876Y4911945D01*
X2960312Y4908606D01*
X2977779Y4894676D01*
X2982023Y4891092D01*
X2990388Y4883616D01*
X2994421Y4879804D01*
X3129804Y4744421D01*
X3133616Y4740388D01*
X3135026Y4738810D01*
X3159852Y4763635D01*
X3722711Y4763635D01*
X3900901Y4585445D01*
X3928421Y4612965D01*
X4792620Y4612965D01*
X4820140Y4585445D01*
X4843232Y4608537D01*
X4792620Y4612965D01*
X3928421Y4612965D01*
X4023912Y4708456D01*
X5616367Y4708456D01*
X5739378Y4585445D01*
X5917568Y4763635D01*
X5859481Y4821722D01*
X5857789Y4820841D01*
X5853909Y4818928D01*
X5623993Y4711716D01*
X5620032Y4709973D01*
X5616367Y4708456D01*
X4023912Y4708456D01*
X4079091Y4763635D01*
X3900901Y4941825D01*
X3722711Y4763635D01*
X3159852Y4763635D01*
X2981661Y4941826D01*
X2953480Y4913645D01*
X-3424830Y4913645D01*
X-3453010Y4941825D01*
X-3631200Y4763635D01*
X-4194059Y4763635D01*
X-4216514Y4786090D01*
X-4376007Y4711716D01*
X-4379968Y4709973D01*
X-4388031Y4706634D01*
X-4392043Y4705074D01*
X-4408368Y4699131D01*
X-4412466Y4697739D01*
X-4420792Y4695114D01*
X-4424937Y4693906D01*
X-4468924Y4682120D01*
X-6489500Y4682120D01*
X-6489500Y4704671D01*
X-6091500Y4704671D01*
X-6032536Y4763635D01*
X-6091500Y4822599D01*
X-6091500Y4704671D01*
X-6489500Y4704671D01*
X-6489500Y5938978D01*
X-6470593Y5997169D01*
X-6421093Y6033133D01*
X-6359907Y6033133D01*
X-6310407Y5997169D01*
X-6294875Y5964604D01*
X-6273903Y5886337D01*
X-6200987Y5729968D01*
X-6174036Y5672172D01*
X-6062449Y5512808D01*
X-6038495Y5478599D01*
X-5871401Y5311505D01*
X-5677830Y5175965D01*
X-5463663Y5076097D01*
X-5235408Y5014937D01*
X-5235404Y5014937D01*
X-5235401Y5014936D01*
X-5000004Y4994341D01*
X-5000000Y4994341D01*
X-4999996Y4994341D01*
X-4764600Y5014936D01*
X-4764599Y5014937D01*
X-4764592Y5014937D01*
X-4536337Y5076097D01*
X-4322170Y5175965D01*
X-4254634Y5223254D01*
X-3171580Y5223254D01*
X-2993390Y5045064D01*
X-2815200Y5223254D01*
X-2252342Y5223254D01*
X-2176584Y5147496D01*
X-2026279Y5130559D01*
X-2020784Y5129784D01*
X-2009723Y5127905D01*
X-2004276Y5126821D01*
X-1994603Y5124614D01*
X-1895962Y5223254D01*
X-1333103Y5223254D01*
X-1177161Y5067312D01*
X-1108716Y5091262D01*
X-976723Y5223254D01*
X-413864Y5223254D01*
X-235674Y5045064D01*
X-57484Y5223254D01*
X505375Y5223254D01*
X590799Y5137830D01*
X716538Y5151997D01*
X722074Y5152464D01*
X733279Y5153093D01*
X738828Y5153249D01*
X761172Y5153249D01*
X766721Y5153093D01*
X777926Y5152464D01*
X783460Y5151998D01*
X789786Y5151286D01*
X861755Y5223254D01*
X1424614Y5223254D01*
X1602804Y5045064D01*
X1780994Y5223254D01*
X1780993Y5223255D01*
X2343851Y5223255D01*
X2431825Y5135281D01*
X2473722Y5130559D01*
X2479216Y5129784D01*
X2490277Y5127905D01*
X2495724Y5126821D01*
X2517506Y5121850D01*
X2522886Y5120463D01*
X2533674Y5117355D01*
X2538964Y5115669D01*
X2578732Y5101754D01*
X2700233Y5223254D01*
X3263091Y5223254D01*
X3441281Y5045064D01*
X3619471Y5223254D01*
X3441281Y5401444D01*
X3263091Y5223254D01*
X2700233Y5223254D01*
X2522042Y5401445D01*
X2343851Y5223255D01*
X1780993Y5223255D01*
X1602804Y5401444D01*
X1424614Y5223254D01*
X861755Y5223254D01*
X683565Y5401444D01*
X505375Y5223254D01*
X-57484Y5223254D01*
X-235674Y5401444D01*
X-413864Y5223254D01*
X-976723Y5223254D01*
X-1154913Y5401444D01*
X-1333103Y5223254D01*
X-1895962Y5223254D01*
X-1895961Y5223255D01*
X-2074152Y5401445D01*
X-2252342Y5223254D01*
X-2815200Y5223254D01*
X-2993390Y5401444D01*
X-3171580Y5223254D01*
X-4254634Y5223254D01*
X-4128599Y5311505D01*
X-3961505Y5478599D01*
X-3937552Y5512808D01*
X-3461134Y5512808D01*
X-3453010Y5504684D01*
X-3274820Y5682874D01*
X-2711961Y5682874D01*
X-2533771Y5504684D01*
X-2355581Y5682874D01*
X-1792722Y5682874D01*
X-1614532Y5504684D01*
X-1436342Y5682874D01*
X-873483Y5682874D01*
X-695293Y5504684D01*
X-517103Y5682874D01*
X45755Y5682874D01*
X223945Y5504684D01*
X402136Y5682874D01*
X964994Y5682874D01*
X1143184Y5504684D01*
X1321374Y5682874D01*
X1884233Y5682874D01*
X2062423Y5504684D01*
X2240613Y5682874D01*
X2803472Y5682874D01*
X2981662Y5504684D01*
X3159852Y5682874D01*
X2981662Y5861064D01*
X2803472Y5682874D01*
X2240613Y5682874D01*
X2062423Y5861064D01*
X1884233Y5682874D01*
X1321374Y5682874D01*
X1143184Y5861064D01*
X964994Y5682874D01*
X402136Y5682874D01*
X223945Y5861065D01*
X45755Y5682874D01*
X-517103Y5682874D01*
X-695293Y5861064D01*
X-873483Y5682874D01*
X-1436342Y5682874D01*
X-1614532Y5861064D01*
X-1792722Y5682874D01*
X-2355581Y5682874D01*
X-2533771Y5861064D01*
X-2711961Y5682874D01*
X-3274820Y5682874D01*
X-3349447Y5757501D01*
X-3355074Y5742043D01*
X-3356634Y5738031D01*
X-3359973Y5729968D01*
X-3361716Y5726007D01*
X-3461134Y5512808D01*
X-3937552Y5512808D01*
X-3825965Y5672170D01*
X-3726097Y5886337D01*
X-3664937Y6114592D01*
X-3662496Y6142493D01*
X-3171580Y6142493D01*
X-2993390Y5964303D01*
X-2815200Y6142493D01*
X-2252342Y6142493D01*
X-2074152Y5964303D01*
X-1895961Y6142493D01*
X-1333103Y6142493D01*
X-1154913Y5964303D01*
X-976723Y6142493D01*
X-413864Y6142493D01*
X-235674Y5964303D01*
X-57484Y6142493D01*
X505375Y6142493D01*
X683565Y5964303D01*
X861755Y6142493D01*
X1424614Y6142493D01*
X1602804Y5964303D01*
X1780994Y6142493D01*
X2343851Y6142493D01*
X2522042Y5964303D01*
X2700233Y6142493D01*
X2522042Y6320684D01*
X2343851Y6142493D01*
X1780994Y6142493D01*
X1602804Y6320683D01*
X1424614Y6142493D01*
X861755Y6142493D01*
X683565Y6320683D01*
X505375Y6142493D01*
X-57484Y6142493D01*
X-235674Y6320683D01*
X-413864Y6142493D01*
X-976723Y6142493D01*
X-1154913Y6320683D01*
X-1333103Y6142493D01*
X-1895961Y6142493D01*
X-2074152Y6320684D01*
X-2252342Y6142493D01*
X-2815200Y6142493D01*
X-2993390Y6320683D01*
X-3171580Y6142493D01*
X-3662496Y6142493D01*
X-3644341Y6350000D01*
X-3650809Y6423923D01*
X-3664936Y6585401D01*
X-3664937Y6585404D01*
X-3664937Y6585408D01*
X-3669413Y6602113D01*
X-2711961Y6602113D01*
X-2533771Y6423923D01*
X-2355581Y6602113D01*
X-1792722Y6602113D01*
X-1614532Y6423923D01*
X-1436342Y6602113D01*
X-873483Y6602113D01*
X-695293Y6423923D01*
X-517103Y6602113D01*
X45755Y6602113D01*
X223945Y6423923D01*
X402136Y6602113D01*
X964994Y6602113D01*
X1143184Y6423923D01*
X1321374Y6602113D01*
X1884233Y6602113D01*
X2062423Y6423923D01*
X2240613Y6602113D01*
X2803472Y6602113D01*
X2981662Y6423923D01*
X3159852Y6602113D01*
X2981662Y6780303D01*
X2803472Y6602113D01*
X2240613Y6602113D01*
X2062423Y6780303D01*
X1884233Y6602113D01*
X1321374Y6602113D01*
X1143184Y6780303D01*
X964994Y6602113D01*
X402136Y6602113D01*
X223945Y6780304D01*
X45755Y6602113D01*
X-517103Y6602113D01*
X-695293Y6780303D01*
X-873483Y6602113D01*
X-1436342Y6602113D01*
X-1614532Y6780303D01*
X-1792722Y6602113D01*
X-2355581Y6602113D01*
X-2533771Y6780303D01*
X-2711961Y6602113D01*
X-3669413Y6602113D01*
X-3726097Y6813663D01*
X-3758682Y6883542D01*
X-3825960Y7027819D01*
X-3825964Y7027827D01*
X-3849704Y7061732D01*
X-3171580Y7061732D01*
X-2993390Y6883542D01*
X-2815200Y7061732D01*
X-2252342Y7061732D01*
X-2074152Y6883542D01*
X-1895961Y7061732D01*
X-1333103Y7061732D01*
X-1154913Y6883542D01*
X-976723Y7061732D01*
X-413864Y7061732D01*
X-235674Y6883542D01*
X-57484Y7061732D01*
X505375Y7061732D01*
X683565Y6883542D01*
X861755Y7061732D01*
X1424614Y7061732D01*
X1602804Y6883542D01*
X1780994Y7061732D01*
X2343851Y7061732D01*
X2522042Y6883542D01*
X2700233Y7061732D01*
X3263091Y7061732D01*
X3358454Y6966369D01*
X3359974Y6970036D01*
X3361716Y6973993D01*
X3416511Y7091500D01*
X3292859Y7091500D01*
X3263091Y7061732D01*
X2700233Y7061732D01*
X2670465Y7091500D01*
X2373620Y7091500D01*
X2343851Y7061732D01*
X1780994Y7061732D01*
X1751226Y7091500D01*
X1454382Y7091500D01*
X1424614Y7061732D01*
X861755Y7061732D01*
X831987Y7091500D01*
X535143Y7091500D01*
X505375Y7061732D01*
X-57484Y7061732D01*
X-87252Y7091500D01*
X-384096Y7091500D01*
X-413864Y7061732D01*
X-976723Y7061732D01*
X-1006491Y7091500D01*
X-1303335Y7091500D01*
X-1333103Y7061732D01*
X-1895961Y7061732D01*
X-1925729Y7091500D01*
X-2222574Y7091500D01*
X-2252342Y7061732D01*
X-2815200Y7061732D01*
X-2844968Y7091500D01*
X-3141812Y7091500D01*
X-3171580Y7061732D01*
X-3849704Y7061732D01*
X-3961502Y7221397D01*
X-3961503Y7221398D01*
X-3961505Y7221401D01*
X-4060603Y7320499D01*
X-4088378Y7375013D01*
X-4078807Y7435445D01*
X-4035542Y7478710D01*
X-3990597Y7489500D01*
X3990597Y7489500D01*
X4048788Y7470593D01*
G37*
G04 #@! TD.AperFunction*
M02*
