G04 #@! TF.GenerationSoftware,KiCad,Pcbnew,8.0.5*
G04 #@! TF.CreationDate,2026-06-23T02:06:02-07:00*
G04 #@! TF.ProjectId,BleJoystick_stick,426c654a-6f79-4737-9469-636b5f737469,rev?*
G04 #@! TF.SameCoordinates,PX5f5e100PY5f5e100*
G04 #@! TF.FileFunction,Soldermask,Bot*
G04 #@! TF.FilePolarity,Negative*
%FSLAX46Y46*%
G04 Gerber Fmt 4.6, Leading zero omitted, Abs format (unit mm)*
G04 Created by KiCad (PCBNEW 8.0.5) date 2026-06-23 02:06:02*
%MOMM*%
%LPD*%
G01*
G04 APERTURE LIST*
%ADD10C,2.500000*%
%ADD11C,0.700000*%
%ADD12C,1.700000*%
%ADD13C,2.200000*%
%ADD14R,0.350000X3.500000*%
G04 APERTURE END LIST*
D10*
X1250000Y0D02*
G75*
G02*
X-1250000Y0I-1250000J0D01*
G01*
X-1250000Y0D02*
G75*
G02*
X1250000Y0I1250000J0D01*
G01*
D11*
X-2000000Y4000000D02*
G75*
G02*
X-2500000Y4000000I-250000J0D01*
G01*
X-2500000Y4000000D02*
G75*
G02*
X-2000000Y4000000I250000J0D01*
G01*
X-500000Y4000000D02*
G75*
G02*
X-1000000Y4000000I-250000J0D01*
G01*
X-1000000Y4000000D02*
G75*
G02*
X-500000Y4000000I250000J0D01*
G01*
X1000000Y4000000D02*
G75*
G02*
X500000Y4000000I-250000J0D01*
G01*
X500000Y4000000D02*
G75*
G02*
X1000000Y4000000I250000J0D01*
G01*
X2500000Y4000000D02*
G75*
G02*
X2000000Y4000000I-250000J0D01*
G01*
X2000000Y4000000D02*
G75*
G02*
X2500000Y4000000I250000J0D01*
G01*
D12*
X-10000000Y3200000D03*
X-10000000Y-3200000D03*
X-5600000Y3250000D03*
X-5600000Y-3200000D03*
X-2500000Y-8650000D03*
X0Y-8650000D03*
X2500000Y-8650000D03*
X8650000Y-2500000D03*
X8650000Y0D03*
X8650000Y2500000D03*
D13*
X-5000000Y6350000D03*
X-5000000Y-6350000D03*
X5000000Y6350000D03*
X5000000Y-6350000D03*
D14*
X-1750000Y-33250000D03*
X-1250000Y-33250000D03*
X-750000Y-33250000D03*
X-250000Y-33250000D03*
X250000Y-33250000D03*
X750000Y-33250000D03*
X1250000Y-33250000D03*
X1750000Y-33250000D03*
M02*
