G04 #@! TF.GenerationSoftware,KiCad,Pcbnew,7.0.8*
G04 #@! TF.CreationDate,2023-10-18T02:17:36-07:00*
G04 #@! TF.ProjectId,IotFan,496f7446-616e-42e6-9b69-6361645f7063,rev?*
G04 #@! TF.SameCoordinates,Original*
G04 #@! TF.FileFunction,Soldermask,Bot*
G04 #@! TF.FilePolarity,Negative*
%FSLAX46Y46*%
G04 Gerber Fmt 4.6, Leading zero omitted, Abs format (unit mm)*
G04 Created by KiCad (PCBNEW 7.0.8) date 2023-10-18 02:17:36*
%MOMM*%
%LPD*%
G01*
G04 APERTURE LIST*
G04 Aperture macros list*
%AMRoundRect*
0 Rectangle with rounded corners*
0 $1 Rounding radius*
0 $2 $3 $4 $5 $6 $7 $8 $9 X,Y pos of 4 corners*
0 Add a 4 corners polygon primitive as box body*
4,1,4,$2,$3,$4,$5,$6,$7,$8,$9,$2,$3,0*
0 Add four circle primitives for the rounded corners*
1,1,$1+$1,$2,$3*
1,1,$1+$1,$4,$5*
1,1,$1+$1,$6,$7*
1,1,$1+$1,$8,$9*
0 Add four rect primitives between the rounded corners*
20,1,$1+$1,$2,$3,$4,$5,0*
20,1,$1+$1,$4,$5,$6,$7,0*
20,1,$1+$1,$6,$7,$8,$9,0*
20,1,$1+$1,$8,$9,$2,$3,0*%
G04 Aperture macros list end*
%ADD10C,0.254000*%
%ADD11C,0.700000*%
%ADD12C,2.500000*%
%ADD13C,0.650000*%
%ADD14C,0.650000*%
%ADD15O,1.000000X2.100000*%
%ADD16O,1.000000X1.600000*%
%ADD17C,1.152000*%
%ADD18R,1.700000X2.340000*%
%ADD19C,0.380000*%
%ADD20C,0.990600*%
%ADD21C,1.100000*%
%ADD22R,1.730000X2.030000*%
%ADD23O,1.730000X2.030000*%
%ADD24C,2.700000*%
%ADD25C,2.000000*%
%ADD26C,1.600000*%
%ADD27C,2.100000*%
%ADD28R,7.410000X1.000000*%
%ADD29R,6.410000X1.000000*%
%ADD30RoundRect,0.250000X0.625000X-0.350000X0.625000X0.350000X-0.625000X0.350000X-0.625000X-0.350000X0*%
%ADD31O,1.750000X1.200000*%
%ADD32R,1.700000X1.700000*%
%ADD33O,1.700000X1.700000*%
%ADD34C,0.787400*%
G04 APERTURE END LIST*
D10*
X116000000Y-141000000D02*
X107000000Y-141000000D01*
X107000000Y-138000000D01*
X111000000Y-134000000D01*
X116000000Y-134000000D01*
X116000000Y-141000000D01*
G36*
X116000000Y-141000000D02*
G01*
X107000000Y-141000000D01*
X107000000Y-138000000D01*
X111000000Y-134000000D01*
X116000000Y-134000000D01*
X116000000Y-141000000D01*
G37*
D11*
X148500000Y-81000000D02*
G75*
G03*
X148500000Y-81000000I-250000J0D01*
G01*
X147000000Y-81000000D02*
G75*
G03*
X147000000Y-81000000I-250000J0D01*
G01*
X145500000Y-81000000D02*
G75*
G03*
X145500000Y-81000000I-250000J0D01*
G01*
X144000000Y-81000000D02*
G75*
G03*
X144000000Y-81000000I-250000J0D01*
G01*
D12*
X147250734Y-77575946D02*
G75*
G03*
X147250734Y-77575946I-1250000J0D01*
G01*
D13*
X150450000Y-73000000D02*
G75*
G03*
X150450000Y-73000000I-325000J0D01*
G01*
X150450000Y-52500000D02*
G75*
G03*
X150450000Y-52500000I-325000J0D01*
G01*
X142200000Y-52500000D02*
G75*
G03*
X142200000Y-52500000I-325000J0D01*
G01*
D11*
X136500000Y-81000000D02*
G75*
G03*
X136500000Y-81000000I-250000J0D01*
G01*
X135000000Y-81000000D02*
G75*
G03*
X135000000Y-81000000I-250000J0D01*
G01*
X133500000Y-81000000D02*
G75*
G03*
X133500000Y-81000000I-250000J0D01*
G01*
X132000000Y-81000000D02*
G75*
G03*
X132000000Y-81000000I-250000J0D01*
G01*
D12*
X135250734Y-77575946D02*
G75*
G03*
X135250734Y-77575946I-1250000J0D01*
G01*
D13*
X138450000Y-73000000D02*
G75*
G03*
X138450000Y-73000000I-325000J0D01*
G01*
X138450000Y-52500000D02*
G75*
G03*
X138450000Y-52500000I-325000J0D01*
G01*
X130200000Y-52500000D02*
G75*
G03*
X130200000Y-52500000I-325000J0D01*
G01*
X118200000Y-52500000D02*
G75*
G03*
X118200000Y-52500000I-325000J0D01*
G01*
X126450000Y-52500000D02*
G75*
G03*
X126450000Y-52500000I-325000J0D01*
G01*
X126450000Y-73000000D02*
G75*
G03*
X126450000Y-73000000I-325000J0D01*
G01*
D12*
X123250734Y-77575946D02*
G75*
G03*
X123250734Y-77575946I-1250000J0D01*
G01*
D11*
X120000000Y-81000000D02*
G75*
G03*
X120000000Y-81000000I-250000J0D01*
G01*
X121500000Y-81000000D02*
G75*
G03*
X121500000Y-81000000I-250000J0D01*
G01*
X123000000Y-81000000D02*
G75*
G03*
X123000000Y-81000000I-250000J0D01*
G01*
X124500000Y-81000000D02*
G75*
G03*
X124500000Y-81000000I-250000J0D01*
G01*
D13*
X112825000Y-62500000D02*
G75*
G03*
X112825000Y-62500000I-325000J0D01*
G01*
X110325000Y-138000000D02*
G75*
G03*
X110325000Y-138000000I-325000J0D01*
G01*
X87825000Y-62500000D02*
G75*
G03*
X87825000Y-62500000I-325000J0D01*
G01*
D12*
X101250000Y-95000000D02*
G75*
G03*
X101250000Y-95000000I-1250000J0D01*
G01*
D13*
X52325000Y-45000000D02*
G75*
G03*
X52325000Y-45000000I-325000J0D01*
G01*
X52325000Y-135000000D02*
G75*
G03*
X52325000Y-135000000I-325000J0D01*
G01*
X78325000Y-135000000D02*
G75*
G03*
X78325000Y-135000000I-325000J0D01*
G01*
X128325000Y-89000000D02*
G75*
G03*
X128325000Y-89000000I-325000J0D01*
G01*
X118825000Y-138500000D02*
G75*
G03*
X118825000Y-138500000I-325000J0D01*
G01*
X127825000Y-138500000D02*
G75*
G03*
X127825000Y-138500000I-325000J0D01*
G01*
D11*
X125500000Y-89000000D02*
G75*
G03*
X125500000Y-89000000I-250000J0D01*
G01*
X124000000Y-89000000D02*
G75*
G03*
X124000000Y-89000000I-250000J0D01*
G01*
X122500000Y-89000000D02*
G75*
G03*
X122500000Y-89000000I-250000J0D01*
G01*
X121000000Y-89000000D02*
G75*
G03*
X121000000Y-89000000I-250000J0D01*
G01*
D12*
X124249300Y-92424100D02*
G75*
G03*
X124249300Y-92424100I-1250000J0D01*
G01*
D14*
X143110000Y-75720000D03*
X148890000Y-75720000D03*
D15*
X141680000Y-75220000D03*
D16*
X141680000Y-79400000D03*
D15*
X150320000Y-75220000D03*
D16*
X150320000Y-79400000D03*
D17*
X150125000Y-73000000D03*
D18*
X143455000Y-50870000D03*
X145995000Y-50870000D03*
X148535000Y-50870000D03*
D17*
X150125000Y-52500000D03*
X141875000Y-52500000D03*
D14*
X131110000Y-75720000D03*
X136890000Y-75720000D03*
D15*
X129680000Y-75220000D03*
D16*
X129680000Y-79400000D03*
D15*
X138320000Y-75220000D03*
D16*
X138320000Y-79400000D03*
D17*
X138125000Y-73000000D03*
D18*
X131455000Y-50870000D03*
X133995000Y-50870000D03*
X136535000Y-50870000D03*
D17*
X138125000Y-52500000D03*
X129875000Y-52500000D03*
D19*
X149175000Y-49690000D03*
X148540000Y-49690000D03*
X147905000Y-49690000D03*
X147270000Y-49690000D03*
X146635000Y-49690000D03*
X146000000Y-49690000D03*
X145365000Y-49690000D03*
X144730000Y-49690000D03*
X144095000Y-49690000D03*
X143460000Y-49690000D03*
X142825000Y-49690000D03*
X130825000Y-81810000D03*
X131460000Y-81810000D03*
X132095000Y-81810000D03*
X132730000Y-81810000D03*
X133365000Y-81810000D03*
X134000000Y-81810000D03*
X134635000Y-81810000D03*
X135270000Y-81810000D03*
X135905000Y-81810000D03*
X136540000Y-81810000D03*
X137175000Y-81810000D03*
X142825000Y-81810000D03*
X143460000Y-81810000D03*
X144095000Y-81810000D03*
X144730000Y-81810000D03*
X145365000Y-81810000D03*
X146000000Y-81810000D03*
X146635000Y-81810000D03*
X147270000Y-81810000D03*
X147905000Y-81810000D03*
X148540000Y-81810000D03*
X149175000Y-81810000D03*
X137175000Y-49690000D03*
X136540000Y-49690000D03*
X135905000Y-49690000D03*
X135270000Y-49690000D03*
X134635000Y-49690000D03*
X134000000Y-49690000D03*
X133365000Y-49690000D03*
X132730000Y-49690000D03*
X132095000Y-49690000D03*
X131460000Y-49690000D03*
X130825000Y-49690000D03*
X125175000Y-81810000D03*
X124540000Y-81810000D03*
X123905000Y-81810000D03*
X123270000Y-81810000D03*
X122635000Y-81810000D03*
X122000000Y-81810000D03*
X121365000Y-81810000D03*
X120730000Y-81810000D03*
X120095000Y-81810000D03*
X119460000Y-81810000D03*
X118825000Y-81810000D03*
X114810000Y-47175000D03*
X117190000Y-47175000D03*
X114810000Y-46540000D03*
X117190000Y-46540000D03*
X114810000Y-45905000D03*
X117190000Y-45905000D03*
X114810000Y-45270000D03*
X117190000Y-45270000D03*
X114810000Y-44635000D03*
X117190000Y-44635000D03*
X114810000Y-44000000D03*
X117190000Y-44000000D03*
X114810000Y-43365000D03*
X117190000Y-43365000D03*
X114810000Y-42730000D03*
X117190000Y-42730000D03*
X114810000Y-42095000D03*
X117190000Y-42095000D03*
X114810000Y-41460000D03*
X117190000Y-41460000D03*
X114810000Y-40825000D03*
X117190000Y-40825000D03*
X125175000Y-49690000D03*
X124540000Y-49690000D03*
X123905000Y-49690000D03*
X123270000Y-49690000D03*
X122635000Y-49690000D03*
X122000000Y-49690000D03*
X121365000Y-49690000D03*
X120730000Y-49690000D03*
X120095000Y-49690000D03*
X119460000Y-49690000D03*
X118825000Y-49690000D03*
D17*
X117875000Y-52500000D03*
X126125000Y-52500000D03*
D18*
X119455000Y-50870000D03*
X121995000Y-50870000D03*
X124535000Y-50870000D03*
D17*
X126125000Y-73000000D03*
D16*
X126320000Y-79400000D03*
D15*
X126320000Y-75220000D03*
D16*
X117680000Y-79400000D03*
D15*
X117680000Y-75220000D03*
D14*
X124890000Y-75720000D03*
X119110000Y-75720000D03*
D19*
X98075000Y-51810000D03*
X98710000Y-51810000D03*
X99345000Y-51810000D03*
X99980000Y-51810000D03*
X100615000Y-51810000D03*
X101250000Y-51810000D03*
X101885000Y-51810000D03*
X102520000Y-51810000D03*
X103155000Y-51810000D03*
X103790000Y-51810000D03*
X104425000Y-51810000D03*
X104425000Y-60190000D03*
X103790000Y-60190000D03*
X103155000Y-60190000D03*
X102520000Y-60190000D03*
X101885000Y-60190000D03*
X101250000Y-60190000D03*
X100615000Y-60190000D03*
X99980000Y-60190000D03*
X99345000Y-60190000D03*
X98710000Y-60190000D03*
X98075000Y-60190000D03*
X119825000Y-88190000D03*
X121095000Y-88190000D03*
X126175000Y-88190000D03*
X121730000Y-88190000D03*
X123635000Y-88190000D03*
X122365000Y-88190000D03*
X125540000Y-88190000D03*
X123000000Y-88190000D03*
X124270000Y-88190000D03*
X124905000Y-88190000D03*
X120460000Y-88190000D03*
X82810000Y-71175000D03*
X85190000Y-71175000D03*
X82810000Y-70540000D03*
X85190000Y-70540000D03*
X82810000Y-69905000D03*
X85190000Y-69905000D03*
X82810000Y-69270000D03*
X85190000Y-69270000D03*
X82810000Y-68635000D03*
X85190000Y-68635000D03*
X82810000Y-68000000D03*
X85190000Y-68000000D03*
X82810000Y-67365000D03*
X85190000Y-67365000D03*
X82810000Y-66730000D03*
X85190000Y-66730000D03*
X82810000Y-66095000D03*
X85190000Y-66095000D03*
X82810000Y-65460000D03*
X85190000Y-65460000D03*
X82810000Y-64825000D03*
X85190000Y-64825000D03*
D20*
X87203949Y-134203949D03*
X91514472Y-137077631D03*
X90077631Y-138514472D03*
D17*
X112500000Y-62500000D03*
D20*
X101580000Y-50516000D03*
X101580000Y-48484000D03*
X96500000Y-49500000D03*
D21*
X92720000Y-72460000D03*
D22*
X97800000Y-70300000D03*
D23*
X95260000Y-70300000D03*
X92720000Y-70300000D03*
X90180000Y-70300000D03*
D24*
X108660254Y-95000000D03*
D19*
X117190000Y-104825000D03*
X114810000Y-104825000D03*
X117190000Y-105460000D03*
X114810000Y-105460000D03*
X117190000Y-106095000D03*
X114810000Y-106095000D03*
X117190000Y-106730000D03*
X114810000Y-106730000D03*
X117190000Y-107365000D03*
X114810000Y-107365000D03*
X117190000Y-108000000D03*
X114810000Y-108000000D03*
X117190000Y-108635000D03*
X114810000Y-108635000D03*
X117190000Y-109270000D03*
X114810000Y-109270000D03*
X117190000Y-109905000D03*
X114810000Y-109905000D03*
X117190000Y-110540000D03*
X114810000Y-110540000D03*
X117190000Y-111175000D03*
X114810000Y-111175000D03*
D24*
X108660254Y-105000000D03*
D17*
X110000000Y-138000000D03*
D19*
X85190000Y-87825000D03*
X82810000Y-87825000D03*
X85190000Y-88460000D03*
X82810000Y-88460000D03*
X85190000Y-89095000D03*
X82810000Y-89095000D03*
X85190000Y-89730000D03*
X82810000Y-89730000D03*
X85190000Y-90365000D03*
X82810000Y-90365000D03*
X85190000Y-91000000D03*
X82810000Y-91000000D03*
X85190000Y-91635000D03*
X82810000Y-91635000D03*
X85190000Y-92270000D03*
X82810000Y-92270000D03*
X85190000Y-92905000D03*
X82810000Y-92905000D03*
X85190000Y-93540000D03*
X82810000Y-93540000D03*
X85190000Y-94175000D03*
X82810000Y-94175000D03*
D24*
X90000000Y-100000000D03*
D21*
X104720000Y-72460000D03*
D22*
X109800000Y-70300000D03*
D23*
X107260000Y-70300000D03*
X104720000Y-70300000D03*
X102180000Y-70300000D03*
D24*
X91339746Y-105000000D03*
D25*
X100000000Y-136900000D03*
D24*
X110000000Y-100000000D03*
D26*
X100000000Y-103500000D03*
D27*
X100000000Y-100000000D03*
D17*
X87500000Y-62500000D03*
D24*
X91339746Y-95000000D03*
D28*
X103055000Y-42500000D03*
D29*
X102555000Y-45000000D03*
X102555000Y-47000000D03*
D28*
X103055000Y-49500000D03*
D24*
X80000000Y-137000000D03*
D17*
X52000000Y-45000000D03*
X52000000Y-135000000D03*
X78000000Y-135000000D03*
D24*
X50000000Y-43000000D03*
D26*
X73000000Y-120500000D03*
D27*
X73000000Y-124000000D03*
D30*
X79000000Y-69000000D03*
D31*
X79000000Y-67000000D03*
D32*
X63460000Y-137000000D03*
D33*
X66000000Y-137000000D03*
X68540000Y-137000000D03*
D24*
X50000000Y-137000000D03*
D20*
X57500000Y-46540000D03*
X56484000Y-41460000D03*
X58516000Y-41460000D03*
D14*
X67890000Y-46605000D03*
X62110000Y-46605000D03*
D15*
X69320000Y-47105000D03*
D16*
X69320000Y-42925000D03*
D15*
X60680000Y-47105000D03*
D16*
X60680000Y-42925000D03*
X118680000Y-90710000D03*
D15*
X118680000Y-94890000D03*
D16*
X127320000Y-90710000D03*
D15*
X127320000Y-94890000D03*
D14*
X120110000Y-94390000D03*
X125890000Y-94390000D03*
D17*
X128000000Y-89000000D03*
X118500000Y-138500000D03*
D18*
X120460000Y-138630000D03*
X123000000Y-138630000D03*
X125540000Y-138630000D03*
D17*
X127500000Y-138500000D03*
D34*
X121730000Y-131365000D03*
X121730000Y-132635000D03*
X123000000Y-131365000D03*
X123000000Y-132635000D03*
X124270000Y-131365000D03*
X124270000Y-132635000D03*
D20*
X120460000Y-130984000D03*
X120460000Y-133016000D03*
X125540000Y-132000000D03*
M02*
