%TF.GenerationSoftware,KiCad,Pcbnew,7.0.2*%
%TF.CreationDate,2023-08-17T13:15:17-07:00*%
%TF.ProjectId,Fpc24Coupler,46706332-3443-46f7-9570-6c65722e6b69,rev?*%
%TF.SameCoordinates,Original*%
%TF.FileFunction,Legend,Bot*%
%TF.FilePolarity,Positive*%
%FSLAX46Y46*%
G04 Gerber Fmt 4.6, Leading zero omitted, Abs format (unit mm)*
G04 Created by KiCad (PCBNEW 7.0.2) date 2023-08-17 13:15:17*
%MOMM*%
%LPD*%
G01*
G04 APERTURE LIST*
%ADD10C,0.250000*%
G04 APERTURE END LIST*
D10*
X161071428Y-103978928D02*
X160957142Y-103978928D01*
X160957142Y-103978928D02*
X160842856Y-104050357D01*
X160842856Y-104050357D02*
X160785714Y-104121785D01*
X160785714Y-104121785D02*
X160728571Y-104264642D01*
X160728571Y-104264642D02*
X160671428Y-104550357D01*
X160671428Y-104550357D02*
X160671428Y-104907500D01*
X160671428Y-104907500D02*
X160728571Y-105193214D01*
X160728571Y-105193214D02*
X160785714Y-105336071D01*
X160785714Y-105336071D02*
X160842856Y-105407500D01*
X160842856Y-105407500D02*
X160957142Y-105478928D01*
X160957142Y-105478928D02*
X161071428Y-105478928D01*
X161071428Y-105478928D02*
X161185714Y-105407500D01*
X161185714Y-105407500D02*
X161242856Y-105336071D01*
X161242856Y-105336071D02*
X161299999Y-105193214D01*
X161299999Y-105193214D02*
X161357142Y-104907500D01*
X161357142Y-104907500D02*
X161357142Y-104550357D01*
X161357142Y-104550357D02*
X161299999Y-104264642D01*
X161299999Y-104264642D02*
X161242856Y-104121785D01*
X161242856Y-104121785D02*
X161185714Y-104050357D01*
X161185714Y-104050357D02*
X161071428Y-103978928D01*
X160157142Y-105336071D02*
X160099999Y-105407500D01*
X160099999Y-105407500D02*
X160157142Y-105478928D01*
X160157142Y-105478928D02*
X160214285Y-105407500D01*
X160214285Y-105407500D02*
X160157142Y-105336071D01*
X160157142Y-105336071D02*
X160157142Y-105478928D01*
X159014285Y-103978928D02*
X159585713Y-103978928D01*
X159585713Y-103978928D02*
X159642856Y-104693214D01*
X159642856Y-104693214D02*
X159585713Y-104621785D01*
X159585713Y-104621785D02*
X159471428Y-104550357D01*
X159471428Y-104550357D02*
X159185713Y-104550357D01*
X159185713Y-104550357D02*
X159071428Y-104621785D01*
X159071428Y-104621785D02*
X159014285Y-104693214D01*
X159014285Y-104693214D02*
X158957142Y-104836071D01*
X158957142Y-104836071D02*
X158957142Y-105193214D01*
X158957142Y-105193214D02*
X159014285Y-105336071D01*
X159014285Y-105336071D02*
X159071428Y-105407500D01*
X159071428Y-105407500D02*
X159185713Y-105478928D01*
X159185713Y-105478928D02*
X159471428Y-105478928D01*
X159471428Y-105478928D02*
X159585713Y-105407500D01*
X159585713Y-105407500D02*
X159642856Y-105336071D01*
X158442856Y-105478928D02*
X158442856Y-104478928D01*
X158442856Y-104621785D02*
X158385713Y-104550357D01*
X158385713Y-104550357D02*
X158271428Y-104478928D01*
X158271428Y-104478928D02*
X158099999Y-104478928D01*
X158099999Y-104478928D02*
X157985713Y-104550357D01*
X157985713Y-104550357D02*
X157928571Y-104693214D01*
X157928571Y-104693214D02*
X157928571Y-105478928D01*
X157928571Y-104693214D02*
X157871428Y-104550357D01*
X157871428Y-104550357D02*
X157757142Y-104478928D01*
X157757142Y-104478928D02*
X157585713Y-104478928D01*
X157585713Y-104478928D02*
X157471428Y-104550357D01*
X157471428Y-104550357D02*
X157414285Y-104693214D01*
X157414285Y-104693214D02*
X157414285Y-105478928D01*
X156842856Y-105478928D02*
X156842856Y-104478928D01*
X156842856Y-104621785D02*
X156785713Y-104550357D01*
X156785713Y-104550357D02*
X156671428Y-104478928D01*
X156671428Y-104478928D02*
X156499999Y-104478928D01*
X156499999Y-104478928D02*
X156385713Y-104550357D01*
X156385713Y-104550357D02*
X156328571Y-104693214D01*
X156328571Y-104693214D02*
X156328571Y-105478928D01*
X156328571Y-104693214D02*
X156271428Y-104550357D01*
X156271428Y-104550357D02*
X156157142Y-104478928D01*
X156157142Y-104478928D02*
X155985713Y-104478928D01*
X155985713Y-104478928D02*
X155871428Y-104550357D01*
X155871428Y-104550357D02*
X155814285Y-104693214D01*
X155814285Y-104693214D02*
X155814285Y-105478928D01*
X153928570Y-104693214D02*
X154328570Y-104693214D01*
X154328570Y-105478928D02*
X154328570Y-103978928D01*
X154328570Y-103978928D02*
X153757142Y-103978928D01*
X153299999Y-105478928D02*
X153299999Y-103978928D01*
X153299999Y-103978928D02*
X152842856Y-103978928D01*
X152842856Y-103978928D02*
X152728571Y-104050357D01*
X152728571Y-104050357D02*
X152671428Y-104121785D01*
X152671428Y-104121785D02*
X152614285Y-104264642D01*
X152614285Y-104264642D02*
X152614285Y-104478928D01*
X152614285Y-104478928D02*
X152671428Y-104621785D01*
X152671428Y-104621785D02*
X152728571Y-104693214D01*
X152728571Y-104693214D02*
X152842856Y-104764642D01*
X152842856Y-104764642D02*
X153299999Y-104764642D01*
X151414285Y-105336071D02*
X151471428Y-105407500D01*
X151471428Y-105407500D02*
X151642856Y-105478928D01*
X151642856Y-105478928D02*
X151757142Y-105478928D01*
X151757142Y-105478928D02*
X151928571Y-105407500D01*
X151928571Y-105407500D02*
X152042856Y-105264642D01*
X152042856Y-105264642D02*
X152099999Y-105121785D01*
X152099999Y-105121785D02*
X152157142Y-104836071D01*
X152157142Y-104836071D02*
X152157142Y-104621785D01*
X152157142Y-104621785D02*
X152099999Y-104336071D01*
X152099999Y-104336071D02*
X152042856Y-104193214D01*
X152042856Y-104193214D02*
X151928571Y-104050357D01*
X151928571Y-104050357D02*
X151757142Y-103978928D01*
X151757142Y-103978928D02*
X151642856Y-103978928D01*
X151642856Y-103978928D02*
X151471428Y-104050357D01*
X151471428Y-104050357D02*
X151414285Y-104121785D01*
X150899999Y-104907500D02*
X149985714Y-104907500D01*
X149471428Y-104121785D02*
X149414285Y-104050357D01*
X149414285Y-104050357D02*
X149300000Y-103978928D01*
X149300000Y-103978928D02*
X149014285Y-103978928D01*
X149014285Y-103978928D02*
X148900000Y-104050357D01*
X148900000Y-104050357D02*
X148842857Y-104121785D01*
X148842857Y-104121785D02*
X148785714Y-104264642D01*
X148785714Y-104264642D02*
X148785714Y-104407500D01*
X148785714Y-104407500D02*
X148842857Y-104621785D01*
X148842857Y-104621785D02*
X149528571Y-105478928D01*
X149528571Y-105478928D02*
X148785714Y-105478928D01*
X147757143Y-104478928D02*
X147757143Y-105478928D01*
X148042857Y-103907500D02*
X148328571Y-104978928D01*
X148328571Y-104978928D02*
X147585714Y-104978928D01*
X156957141Y-107766071D02*
X157014284Y-107837500D01*
X157014284Y-107837500D02*
X157185712Y-107908928D01*
X157185712Y-107908928D02*
X157299998Y-107908928D01*
X157299998Y-107908928D02*
X157471427Y-107837500D01*
X157471427Y-107837500D02*
X157585712Y-107694642D01*
X157585712Y-107694642D02*
X157642855Y-107551785D01*
X157642855Y-107551785D02*
X157699998Y-107266071D01*
X157699998Y-107266071D02*
X157699998Y-107051785D01*
X157699998Y-107051785D02*
X157642855Y-106766071D01*
X157642855Y-106766071D02*
X157585712Y-106623214D01*
X157585712Y-106623214D02*
X157471427Y-106480357D01*
X157471427Y-106480357D02*
X157299998Y-106408928D01*
X157299998Y-106408928D02*
X157185712Y-106408928D01*
X157185712Y-106408928D02*
X157014284Y-106480357D01*
X157014284Y-106480357D02*
X156957141Y-106551785D01*
X156271427Y-107908928D02*
X156385712Y-107837500D01*
X156385712Y-107837500D02*
X156442855Y-107766071D01*
X156442855Y-107766071D02*
X156499998Y-107623214D01*
X156499998Y-107623214D02*
X156499998Y-107194642D01*
X156499998Y-107194642D02*
X156442855Y-107051785D01*
X156442855Y-107051785D02*
X156385712Y-106980357D01*
X156385712Y-106980357D02*
X156271427Y-106908928D01*
X156271427Y-106908928D02*
X156099998Y-106908928D01*
X156099998Y-106908928D02*
X155985712Y-106980357D01*
X155985712Y-106980357D02*
X155928570Y-107051785D01*
X155928570Y-107051785D02*
X155871427Y-107194642D01*
X155871427Y-107194642D02*
X155871427Y-107623214D01*
X155871427Y-107623214D02*
X155928570Y-107766071D01*
X155928570Y-107766071D02*
X155985712Y-107837500D01*
X155985712Y-107837500D02*
X156099998Y-107908928D01*
X156099998Y-107908928D02*
X156271427Y-107908928D01*
X154842856Y-106908928D02*
X154842856Y-107908928D01*
X155357141Y-106908928D02*
X155357141Y-107694642D01*
X155357141Y-107694642D02*
X155299998Y-107837500D01*
X155299998Y-107837500D02*
X155185713Y-107908928D01*
X155185713Y-107908928D02*
X155014284Y-107908928D01*
X155014284Y-107908928D02*
X154899998Y-107837500D01*
X154899998Y-107837500D02*
X154842856Y-107766071D01*
X154271427Y-106908928D02*
X154271427Y-108408928D01*
X154271427Y-106980357D02*
X154157142Y-106908928D01*
X154157142Y-106908928D02*
X153928570Y-106908928D01*
X153928570Y-106908928D02*
X153814284Y-106980357D01*
X153814284Y-106980357D02*
X153757142Y-107051785D01*
X153757142Y-107051785D02*
X153699999Y-107194642D01*
X153699999Y-107194642D02*
X153699999Y-107623214D01*
X153699999Y-107623214D02*
X153757142Y-107766071D01*
X153757142Y-107766071D02*
X153814284Y-107837500D01*
X153814284Y-107837500D02*
X153928570Y-107908928D01*
X153928570Y-107908928D02*
X154157142Y-107908928D01*
X154157142Y-107908928D02*
X154271427Y-107837500D01*
X153014285Y-107908928D02*
X153128570Y-107837500D01*
X153128570Y-107837500D02*
X153185713Y-107694642D01*
X153185713Y-107694642D02*
X153185713Y-106408928D01*
X152099999Y-107837500D02*
X152214285Y-107908928D01*
X152214285Y-107908928D02*
X152442857Y-107908928D01*
X152442857Y-107908928D02*
X152557142Y-107837500D01*
X152557142Y-107837500D02*
X152614285Y-107694642D01*
X152614285Y-107694642D02*
X152614285Y-107123214D01*
X152614285Y-107123214D02*
X152557142Y-106980357D01*
X152557142Y-106980357D02*
X152442857Y-106908928D01*
X152442857Y-106908928D02*
X152214285Y-106908928D01*
X152214285Y-106908928D02*
X152099999Y-106980357D01*
X152099999Y-106980357D02*
X152042857Y-107123214D01*
X152042857Y-107123214D02*
X152042857Y-107266071D01*
X152042857Y-107266071D02*
X152614285Y-107408928D01*
X151528571Y-107908928D02*
X151528571Y-106908928D01*
X151528571Y-107194642D02*
X151471428Y-107051785D01*
X151471428Y-107051785D02*
X151414286Y-106980357D01*
X151414286Y-106980357D02*
X151300000Y-106908928D01*
X151300000Y-106908928D02*
X151185714Y-106908928D01*
%TO.C,UU5*%
G36*
X159059830Y-99439436D02*
G01*
X159116312Y-99648179D01*
X159003676Y-99723743D01*
X158861961Y-99758044D01*
X158744696Y-99681220D01*
X158650810Y-99571905D01*
X158761178Y-99400956D01*
X158940302Y-99267220D01*
X159059830Y-99439436D01*
G37*
G36*
X158724398Y-98948170D02*
G01*
X158840169Y-99118686D01*
X158878704Y-99245620D01*
X158740839Y-99305872D01*
X158575260Y-99334607D01*
X158567384Y-99226089D01*
X158623200Y-99033652D01*
X158704347Y-98936388D01*
X158724398Y-98948170D01*
G37*
G36*
X159325292Y-99053075D02*
G01*
X159360390Y-99175574D01*
X159338439Y-99365194D01*
X159272272Y-99472480D01*
X159113646Y-99390326D01*
X159020504Y-99266188D01*
X159136123Y-99140215D01*
X159310615Y-99048631D01*
X159310615Y-99048630D01*
X159325292Y-99053075D01*
G37*
G36*
X161745092Y-102157589D02*
G01*
X161745092Y-102548883D01*
X161745092Y-102937800D01*
X161487433Y-102937800D01*
X161229671Y-102937800D01*
X161229566Y-102839718D01*
X161229671Y-102741637D01*
X161388318Y-102741637D01*
X161546964Y-102741637D01*
X161546964Y-102486665D01*
X161546391Y-102235109D01*
X161543451Y-102157486D01*
X161543451Y-102157484D01*
X161745092Y-102157589D01*
G37*
G36*
X161150813Y-102547847D02*
G01*
X161150813Y-102938004D01*
X160879925Y-102938004D01*
X160609037Y-102938004D01*
X160609037Y-102843953D01*
X160609037Y-102750005D01*
X160779880Y-102750005D01*
X160950722Y-102750005D01*
X160950722Y-102692335D01*
X160950722Y-102634767D01*
X160794039Y-102634767D01*
X160637356Y-102634767D01*
X160637356Y-102549914D01*
X160637356Y-102464958D01*
X160794039Y-102464958D01*
X160950722Y-102464958D01*
X160950722Y-102404290D01*
X160950722Y-102343622D01*
X160779880Y-102343728D01*
X160609037Y-102343728D01*
X160609656Y-102251227D01*
X160610275Y-102158726D01*
X160880647Y-102158196D01*
X161150813Y-102157484D01*
X161150813Y-102547847D01*
G37*
G36*
X159664690Y-102434159D02*
G01*
X159664071Y-102710525D01*
X159659626Y-102732745D01*
X159646500Y-102778220D01*
X159638439Y-102796411D01*
X159558443Y-102889635D01*
X159435970Y-102942242D01*
X159406411Y-102946999D01*
X159283628Y-102944210D01*
X159086948Y-102825561D01*
X159054702Y-102761276D01*
X159049121Y-102738331D01*
X159043539Y-102718591D01*
X159043539Y-102438608D01*
X159043539Y-102158728D01*
X159143171Y-102158199D01*
X159242700Y-102157580D01*
X159242700Y-102423507D01*
X159243247Y-102657037D01*
X159246939Y-102701836D01*
X159271434Y-102740697D01*
X159395354Y-102763124D01*
X159462843Y-102692121D01*
X159464507Y-102619202D01*
X159465119Y-102418959D01*
X159465013Y-102157580D01*
X159565162Y-102157580D01*
X159665219Y-102157484D01*
X159664690Y-102434159D01*
G37*
G36*
X160507028Y-102158526D02*
G01*
X160507854Y-102548373D01*
X160508473Y-102938013D01*
X160409461Y-102938013D01*
X160310345Y-102938013D01*
X160310345Y-102811716D01*
X160315304Y-102630228D01*
X160321298Y-102565529D01*
X160319853Y-102555918D01*
X160310242Y-102573591D01*
X160301250Y-102597362D01*
X160274792Y-102664335D01*
X160249470Y-102728827D01*
X160237378Y-102760039D01*
X160222702Y-102798487D01*
X160213710Y-102821741D01*
X160144774Y-102822360D01*
X160075941Y-102822980D01*
X160073565Y-102814298D01*
X160067778Y-102797658D01*
X160060026Y-102778434D01*
X160046590Y-102743811D01*
X160037392Y-102718387D01*
X160029227Y-102697406D01*
X160018892Y-102670327D01*
X160012897Y-102654204D01*
X159983545Y-102577930D01*
X159971453Y-102556122D01*
X159969384Y-102564701D01*
X159976619Y-102647073D01*
X159982200Y-102828974D01*
X159981581Y-102937081D01*
X159882569Y-102937081D01*
X159783556Y-102937081D01*
X159783556Y-102547957D01*
X159783556Y-102158834D01*
X159882259Y-102158834D01*
X159981064Y-102158834D01*
X159991089Y-102181055D01*
X160006282Y-102216402D01*
X160013103Y-102231594D01*
X160020752Y-102248854D01*
X160043592Y-102302391D01*
X160074702Y-102374325D01*
X160084520Y-102396752D01*
X160094545Y-102419800D01*
X160124621Y-102488426D01*
X160131752Y-102505583D01*
X160140641Y-102526460D01*
X160145599Y-102536279D01*
X160156141Y-102513128D01*
X160166580Y-102488736D01*
X160174641Y-102470133D01*
X160182702Y-102451012D01*
X160190661Y-102432202D01*
X160201616Y-102407294D01*
X160232209Y-102336601D01*
X160240064Y-102318514D01*
X160259597Y-102272005D01*
X160268072Y-102252782D01*
X160280681Y-102224463D01*
X160292980Y-102195111D01*
X160302902Y-102172373D01*
X160308067Y-102159764D01*
X160407596Y-102158213D01*
X160407396Y-102158103D01*
X160507028Y-102158526D01*
G37*
G36*
X159436709Y-97072411D02*
G01*
X159563520Y-97130504D01*
X159665326Y-97255167D01*
X159630286Y-97407593D01*
X159457468Y-97470567D01*
X159274132Y-97429607D01*
X159112178Y-97519834D01*
X159128094Y-97710830D01*
X159302655Y-97846353D01*
X159498391Y-97932468D01*
X159688680Y-98011173D01*
X159904951Y-98124097D01*
X160113097Y-98251389D01*
X160312394Y-98392266D01*
X160502119Y-98545943D01*
X160681548Y-98711635D01*
X160849959Y-98888558D01*
X161006628Y-99075927D01*
X161150830Y-99272958D01*
X161281843Y-99478865D01*
X161398944Y-99692864D01*
X161501408Y-99914170D01*
X161588513Y-100141999D01*
X161650712Y-100365238D01*
X161698858Y-100598415D01*
X161730880Y-100833888D01*
X161744707Y-101064015D01*
X161738271Y-101281155D01*
X161696959Y-101495671D01*
X161619779Y-101678645D01*
X161507587Y-101828821D01*
X161361612Y-101944676D01*
X161183637Y-102025365D01*
X160975320Y-102070667D01*
X160965811Y-102070349D01*
X160687576Y-102114208D01*
X160436126Y-102131143D01*
X160210302Y-102125230D01*
X159904379Y-102101829D01*
X159896833Y-102101252D01*
X159269481Y-102023841D01*
X159259650Y-101967519D01*
X159290774Y-101967519D01*
X159293150Y-101973203D01*
X159904379Y-102048651D01*
X159815720Y-101940639D01*
X159809812Y-101901993D01*
X159794679Y-101890400D01*
X159678346Y-101863546D01*
X159564554Y-101844013D01*
X159564554Y-101844119D01*
X159474637Y-101837814D01*
X159474636Y-101837813D01*
X159414071Y-101840602D01*
X159358571Y-101873158D01*
X159295732Y-101942818D01*
X159290774Y-101967519D01*
X159259650Y-101967519D01*
X159251188Y-101919041D01*
X159401979Y-101794708D01*
X159529733Y-101792885D01*
X159687750Y-101818169D01*
X159901587Y-101801942D01*
X160041837Y-101751299D01*
X159952230Y-101681123D01*
X159747613Y-101545247D01*
X159586774Y-101410648D01*
X159528483Y-101350393D01*
X159503678Y-101386153D01*
X159413968Y-101524853D01*
X159265485Y-101751691D01*
X159153614Y-101900681D01*
X159068563Y-101984773D01*
X158873123Y-102158613D01*
X158926350Y-102158825D01*
X158926667Y-102545881D01*
X158926786Y-102820015D01*
X158926350Y-102935521D01*
X158926350Y-102935627D01*
X158826304Y-102938109D01*
X158727188Y-102938109D01*
X158726569Y-102814292D01*
X158725950Y-102690475D01*
X158709827Y-102690052D01*
X158693600Y-102689628D01*
X158685435Y-102700170D01*
X158658976Y-102736531D01*
X158654223Y-102743062D01*
X158628901Y-102777685D01*
X158613605Y-102798665D01*
X158587457Y-102834735D01*
X158554074Y-102880108D01*
X158523068Y-102922999D01*
X158512113Y-102938089D01*
X158388916Y-102938089D01*
X158265720Y-102938089D01*
X158279466Y-102920415D01*
X158308404Y-102883828D01*
X158326594Y-102860574D01*
X158335896Y-102849205D01*
X158366385Y-102810758D01*
X158395531Y-102774068D01*
X158408140Y-102758875D01*
X158440076Y-102717844D01*
X158465914Y-102685494D01*
X158476250Y-102671025D01*
X158472942Y-102669167D01*
X158464869Y-102665015D01*
X158418682Y-102641262D01*
X158342924Y-102535738D01*
X158326697Y-102422257D01*
X158329607Y-102401398D01*
X158524824Y-102401398D01*
X158540636Y-102489454D01*
X158581564Y-102515913D01*
X158658976Y-102520871D01*
X158726155Y-102519114D01*
X158726684Y-102429404D01*
X158726155Y-102342485D01*
X158660423Y-102342485D01*
X158583528Y-102346104D01*
X158524824Y-102401398D01*
X158329607Y-102401398D01*
X158340754Y-102321488D01*
X158348919Y-102300921D01*
X158343544Y-102284178D01*
X158345049Y-102265797D01*
X158395943Y-102265797D01*
X158464869Y-102316610D01*
X158502125Y-102268524D01*
X158588686Y-102191919D01*
X158805530Y-102157174D01*
X158925811Y-102031583D01*
X159042828Y-101940442D01*
X158804053Y-101929827D01*
X158700317Y-101822723D01*
X158579601Y-101894244D01*
X158498469Y-101931244D01*
X158470563Y-101964213D01*
X158405761Y-102187869D01*
X158395943Y-102265797D01*
X158345049Y-102265797D01*
X158350366Y-102200875D01*
X158382953Y-102055658D01*
X158422816Y-101945387D01*
X158467981Y-101892884D01*
X158558725Y-101850923D01*
X158660114Y-101792941D01*
X158724089Y-101660443D01*
X158805428Y-101461075D01*
X158889128Y-101257063D01*
X158969863Y-101043323D01*
X159007793Y-100885814D01*
X159021849Y-100800340D01*
X158917633Y-100671887D01*
X158859307Y-100599997D01*
X158734220Y-100401163D01*
X158646261Y-100201276D01*
X158595106Y-99997777D01*
X158580429Y-99788103D01*
X158471147Y-99651507D01*
X158385542Y-99498056D01*
X158331545Y-99301734D01*
X158317086Y-99036521D01*
X158273574Y-98917665D01*
X158265659Y-98867348D01*
X158324216Y-98867348D01*
X158332071Y-98903418D01*
X158372171Y-99016073D01*
X158376923Y-99033230D01*
X158389221Y-99293038D01*
X158439721Y-99478891D01*
X158522642Y-99622704D01*
X158632205Y-99756390D01*
X158637579Y-99765485D01*
X158640162Y-99769104D01*
X158750695Y-100046567D01*
X158829710Y-100236861D01*
X158883318Y-100351144D01*
X158917633Y-100400573D01*
X158938765Y-100396305D01*
X158952829Y-100349497D01*
X158965934Y-100271306D01*
X158984195Y-100172890D01*
X159013722Y-100065405D01*
X159060629Y-99960009D01*
X159131028Y-99867858D01*
X159231030Y-99800110D01*
X159333866Y-99721355D01*
X159479990Y-99530147D01*
X159571164Y-99288410D01*
X159577676Y-99276525D01*
X159667903Y-99162319D01*
X159585737Y-99257714D01*
X159562576Y-99073509D01*
X159477216Y-98948896D01*
X159590476Y-98804576D01*
X159745520Y-98703639D01*
X159587705Y-98725663D01*
X159383682Y-98830247D01*
X159355570Y-98833453D01*
X159421131Y-98926465D01*
X159333347Y-98929653D01*
X159192479Y-98869110D01*
X159008526Y-98805955D01*
X158874773Y-98797900D01*
X158727753Y-98762675D01*
X158751679Y-98703229D01*
X158775554Y-98696614D01*
X158756847Y-98682662D01*
X158569055Y-98514300D01*
X158379518Y-98437306D01*
X158533108Y-98604026D01*
X158608436Y-98731439D01*
X158454753Y-98855491D01*
X158376719Y-99002121D01*
X158324216Y-98867348D01*
X158265659Y-98867348D01*
X158244325Y-98731733D01*
X158242318Y-98539548D01*
X158287424Y-98387155D01*
X158307164Y-98374132D01*
X158360391Y-98371137D01*
X158600686Y-98463844D01*
X158794473Y-98636857D01*
X158970789Y-98625436D01*
X159146090Y-98655954D01*
X159366324Y-98771526D01*
X159642698Y-98651975D01*
X159844331Y-98657631D01*
X159865105Y-98678612D01*
X159865169Y-98891595D01*
X159774497Y-99109003D01*
X159626463Y-99310821D01*
X159557059Y-99498174D01*
X159460479Y-99660567D01*
X159465644Y-99659017D01*
X159660399Y-99618496D01*
X159871377Y-99623452D01*
X160093059Y-99670724D01*
X160319931Y-99757150D01*
X160546477Y-99879569D01*
X160767182Y-100034819D01*
X160976528Y-100219739D01*
X161169002Y-100431166D01*
X161277771Y-100503657D01*
X161289895Y-100423581D01*
X161288479Y-100418328D01*
X161250150Y-100276062D01*
X161203315Y-100146222D01*
X161190989Y-100117814D01*
X161227501Y-100117814D01*
X161234219Y-100135488D01*
X161280624Y-100247418D01*
X161288479Y-100266332D01*
X161307186Y-100257857D01*
X161540144Y-100169801D01*
X161559780Y-100163600D01*
X161553063Y-100144169D01*
X161511204Y-100030068D01*
X161509654Y-100026141D01*
X161506453Y-100023040D01*
X161497872Y-100014462D01*
X161486297Y-100018182D01*
X161244761Y-100110166D01*
X161227501Y-100117814D01*
X161190989Y-100117814D01*
X161158565Y-100043083D01*
X161109461Y-99929910D01*
X161048829Y-99813751D01*
X161088801Y-99813751D01*
X161097587Y-99830804D01*
X161149366Y-99937981D01*
X161158565Y-99957618D01*
X161177375Y-99946869D01*
X161405371Y-99832354D01*
X161424285Y-99824086D01*
X161415500Y-99805482D01*
X161362170Y-99695825D01*
X161353592Y-99678979D01*
X161336331Y-99686627D01*
X161105545Y-99804242D01*
X161088801Y-99813751D01*
X161048829Y-99813751D01*
X161000413Y-99720996D01*
X160999918Y-99720190D01*
X160876956Y-99520286D01*
X160875067Y-99517645D01*
X160915996Y-99517645D01*
X160926744Y-99534077D01*
X160989066Y-99636190D01*
X160999918Y-99654380D01*
X161017488Y-99642495D01*
X161238250Y-99516094D01*
X161258300Y-99506793D01*
X161246931Y-99487775D01*
X161182646Y-99383596D01*
X161173137Y-99368713D01*
X161157221Y-99376258D01*
X160932325Y-99506689D01*
X160915996Y-99517645D01*
X160875067Y-99517645D01*
X160811092Y-99428182D01*
X160739872Y-99328587D01*
X160667306Y-99240556D01*
X160713527Y-99240556D01*
X160726240Y-99256575D01*
X160799103Y-99351557D01*
X160811092Y-99367783D01*
X160827215Y-99355587D01*
X161038262Y-99210790D01*
X161057072Y-99199421D01*
X161044050Y-99181748D01*
X160970049Y-99085010D01*
X160959094Y-99071160D01*
X160944004Y-99080255D01*
X160729650Y-99228153D01*
X160713527Y-99240556D01*
X160667306Y-99240556D01*
X160591984Y-99149182D01*
X160589944Y-99146706D01*
X160433925Y-98981760D01*
X160481603Y-98981760D01*
X160496073Y-98996539D01*
X160578548Y-99083252D01*
X160591984Y-99098032D01*
X160606763Y-99084596D01*
X160805408Y-98923676D01*
X160823598Y-98910653D01*
X160808612Y-98894013D01*
X160725516Y-98804923D01*
X160713527Y-98792418D01*
X160699471Y-98802546D01*
X160496899Y-98967807D01*
X160481603Y-98981760D01*
X160433925Y-98981760D01*
X160427956Y-98975450D01*
X160344868Y-98898807D01*
X160254692Y-98815626D01*
X160167245Y-98745392D01*
X160223118Y-98745392D01*
X160239758Y-98759242D01*
X160330708Y-98836653D01*
X160344868Y-98849468D01*
X160358303Y-98835826D01*
X160548576Y-98664674D01*
X160567283Y-98650101D01*
X160549713Y-98634184D01*
X160457109Y-98552742D01*
X160444500Y-98541890D01*
X160431581Y-98552432D01*
X160238310Y-98729992D01*
X160223118Y-98745392D01*
X160167245Y-98745392D01*
X160072636Y-98669406D01*
X160070935Y-98668039D01*
X159879428Y-98534862D01*
X159940345Y-98534862D01*
X159959258Y-98547678D01*
X160058063Y-98616201D01*
X160072636Y-98626846D01*
X160084728Y-98613411D01*
X160263219Y-98427065D01*
X160280479Y-98410736D01*
X160261358Y-98396576D01*
X160161209Y-98325056D01*
X160147670Y-98315651D01*
X160135888Y-98327123D01*
X159955434Y-98517809D01*
X159940345Y-98534862D01*
X159879428Y-98534862D01*
X159877467Y-98533498D01*
X159786246Y-98479101D01*
X159675073Y-98412808D01*
X159568759Y-98359266D01*
X159645376Y-98359266D01*
X159665633Y-98370118D01*
X159770846Y-98428822D01*
X159786246Y-98437814D01*
X159796994Y-98423551D01*
X159963186Y-98226147D01*
X159980549Y-98207957D01*
X159958948Y-98195141D01*
X159850841Y-98132819D01*
X159837198Y-98125378D01*
X159826553Y-98136747D01*
X159659018Y-98340662D01*
X159645376Y-98359266D01*
X159568759Y-98359266D01*
X159466265Y-98307648D01*
X159464536Y-98306777D01*
X159246639Y-98216211D01*
X159228553Y-98207130D01*
X159317230Y-98207130D01*
X159339657Y-98216122D01*
X159450762Y-98264388D01*
X159466265Y-98271312D01*
X159475566Y-98257153D01*
X159637624Y-98053031D01*
X159655918Y-98033497D01*
X159632146Y-98021405D01*
X159513394Y-97970039D01*
X159500578Y-97965181D01*
X159491483Y-97975413D01*
X159406292Y-98078340D01*
X159330253Y-98186873D01*
X159317230Y-98207130D01*
X159228553Y-98207130D01*
X159128921Y-98157105D01*
X159078049Y-98131563D01*
X158939184Y-98038975D01*
X158990118Y-98038975D01*
X159004794Y-98050137D01*
X159112488Y-98118867D01*
X159128921Y-98127859D01*
X159138946Y-98112046D01*
X159293872Y-97909474D01*
X159311235Y-97890043D01*
X159288084Y-97878262D01*
X159186695Y-97815629D01*
X159172019Y-97804468D01*
X159159720Y-97818110D01*
X159000040Y-98023472D01*
X158990118Y-98038975D01*
X158939184Y-98038975D01*
X158929552Y-98032553D01*
X158787507Y-97878147D01*
X158712303Y-97677178D01*
X158715415Y-97461789D01*
X158808320Y-97264124D01*
X158951229Y-97135735D01*
X159114571Y-97069434D01*
X159290460Y-97052871D01*
X159290565Y-97052782D01*
X159436709Y-97072411D01*
G37*
%TD*%
M02*
