%TF.GenerationSoftware,KiCad,Pcbnew,7.0.2*%
%TF.CreationDate,2023-08-17T13:15:17-07:00*%
%TF.ProjectId,Fpc24Coupler,46706332-3443-46f7-9570-6c65722e6b69,rev?*%
%TF.SameCoordinates,Original*%
%TF.FileFunction,Paste,Top*%
%TF.FilePolarity,Positive*%
%FSLAX46Y46*%
G04 Gerber Fmt 4.6, Leading zero omitted, Abs format (unit mm)*
G04 Created by KiCad (PCBNEW 7.0.2) date 2023-08-17 13:15:17*
%MOMM*%
%LPD*%
G01*
G04 APERTURE LIST*
%ADD10R,1.300000X0.300000*%
%ADD11R,2.200000X1.800000*%
G04 APERTURE END LIST*
D10*
%TO.C,J2*%
X156650000Y-105750000D03*
X156650000Y-105250000D03*
X156650000Y-104750000D03*
X156650000Y-104250000D03*
X156650000Y-103750000D03*
X156650000Y-103250000D03*
X156650000Y-102750000D03*
X156650000Y-102250000D03*
X156650000Y-101750000D03*
X156650000Y-101250000D03*
X156650000Y-100750000D03*
X156650000Y-100250000D03*
X156650000Y-99750000D03*
X156650000Y-99250000D03*
X156650000Y-98750000D03*
X156650000Y-98250000D03*
X156650000Y-97750000D03*
X156650000Y-97250000D03*
X156650000Y-96750000D03*
X156650000Y-96250000D03*
X156650000Y-95750000D03*
X156650000Y-95250000D03*
X156650000Y-94750000D03*
X156650000Y-94250000D03*
D11*
X159900000Y-107650000D03*
X159900000Y-92350000D03*
%TD*%
D10*
%TO.C,J1*%
X152300000Y-94250000D03*
X152300000Y-94750000D03*
X152300000Y-95250000D03*
X152300000Y-95750000D03*
X152300000Y-96250000D03*
X152300000Y-96750000D03*
X152300000Y-97250000D03*
X152300000Y-97750000D03*
X152300000Y-98250000D03*
X152300000Y-98750000D03*
X152300000Y-99250000D03*
X152300000Y-99750000D03*
X152300000Y-100250000D03*
X152300000Y-100750000D03*
X152300000Y-101250000D03*
X152300000Y-101750000D03*
X152300000Y-102250000D03*
X152300000Y-102750000D03*
X152300000Y-103250000D03*
X152300000Y-103750000D03*
X152300000Y-104250000D03*
X152300000Y-104750000D03*
X152300000Y-105250000D03*
X152300000Y-105750000D03*
D11*
X149050000Y-107650000D03*
X149050000Y-92350000D03*
%TD*%
M02*
