%TF.GenerationSoftware,KiCad,Pcbnew,7.0.2*%
%TF.CreationDate,2023-08-17T13:15:17-07:00*%
%TF.ProjectId,Fpc24Coupler,46706332-3443-46f7-9570-6c65722e6b69,rev?*%
%TF.SameCoordinates,Original*%
%TF.FileFunction,Legend,Top*%
%TF.FilePolarity,Positive*%
%FSLAX46Y46*%
G04 Gerber Fmt 4.6, Leading zero omitted, Abs format (unit mm)*
G04 Created by KiCad (PCBNEW 7.0.2) date 2023-08-17 13:15:17*
%MOMM*%
%LPD*%
G01*
G04 APERTURE LIST*
%ADD10C,0.150000*%
%ADD11C,0.120000*%
G04 APERTURE END LIST*
D10*
%TO.C,*%
%TO.C,J2*%
X156233333Y-106462619D02*
X156233333Y-107176904D01*
X156233333Y-107176904D02*
X156195238Y-107319761D01*
X156195238Y-107319761D02*
X156119047Y-107415000D01*
X156119047Y-107415000D02*
X156004762Y-107462619D01*
X156004762Y-107462619D02*
X155928571Y-107462619D01*
X156576190Y-106557857D02*
X156614286Y-106510238D01*
X156614286Y-106510238D02*
X156690476Y-106462619D01*
X156690476Y-106462619D02*
X156880952Y-106462619D01*
X156880952Y-106462619D02*
X156957143Y-106510238D01*
X156957143Y-106510238D02*
X156995238Y-106557857D01*
X156995238Y-106557857D02*
X157033333Y-106653095D01*
X157033333Y-106653095D02*
X157033333Y-106748333D01*
X157033333Y-106748333D02*
X156995238Y-106891190D01*
X156995238Y-106891190D02*
X156538095Y-107462619D01*
X156538095Y-107462619D02*
X157033333Y-107462619D01*
%TO.C,J1*%
X152233333Y-92462619D02*
X152233333Y-93176904D01*
X152233333Y-93176904D02*
X152195238Y-93319761D01*
X152195238Y-93319761D02*
X152119047Y-93415000D01*
X152119047Y-93415000D02*
X152004762Y-93462619D01*
X152004762Y-93462619D02*
X151928571Y-93462619D01*
X153033333Y-93462619D02*
X152576190Y-93462619D01*
X152804762Y-93462619D02*
X152804762Y-92462619D01*
X152804762Y-92462619D02*
X152728571Y-92605476D01*
X152728571Y-92605476D02*
X152652381Y-92700714D01*
X152652381Y-92700714D02*
X152576190Y-92748333D01*
D11*
%TO.C,J2*%
X161260000Y-107650000D02*
X163000000Y-107650000D01*
X157200000Y-106160000D02*
X156000000Y-106160000D01*
X163000000Y-92350000D02*
X161260000Y-92350000D01*
X157200000Y-93840000D02*
X157200000Y-92350000D01*
X157200000Y-106160000D02*
X157200000Y-107650000D01*
X163000000Y-107650000D02*
X163000000Y-92350000D01*
X157200000Y-107650000D02*
X158540000Y-107650000D01*
X157200000Y-92350000D02*
X158540000Y-92350000D01*
%TO.C,J1*%
X151750000Y-106160000D02*
X151750000Y-107650000D01*
X145950000Y-92350000D02*
X145950000Y-107650000D01*
X145950000Y-107650000D02*
X147690000Y-107650000D01*
X147690000Y-92350000D02*
X145950000Y-92350000D01*
X151750000Y-93840000D02*
X152950000Y-93840000D01*
X151750000Y-93840000D02*
X151750000Y-92350000D01*
X151750000Y-92350000D02*
X150410000Y-92350000D01*
X151750000Y-107650000D02*
X150410000Y-107650000D01*
%TD*%
M02*
