%TF.GenerationSoftware,KiCad,Pcbnew,7.0.2*%
%TF.CreationDate,2023-08-17T13:15:17-07:00*%
%TF.ProjectId,Fpc24Coupler,46706332-3443-46f7-9570-6c65722e6b69,rev?*%
%TF.SameCoordinates,Original*%
%TF.FileFunction,Copper,L2,Bot*%
%TF.FilePolarity,Positive*%
%FSLAX46Y46*%
G04 Gerber Fmt 4.6, Leading zero omitted, Abs format (unit mm)*
G04 Created by KiCad (PCBNEW 7.0.2) date 2023-08-17 13:15:17*
%MOMM*%
%LPD*%
G01*
G04 APERTURE LIST*
%TA.AperFunction,EtchedComponent*%
%ADD10C,0.200000*%
%TD*%
%TA.AperFunction,EtchedComponent*%
%ADD11C,0.160000*%
%TD*%
G04 APERTURE END LIST*
D10*
%TO.C,UU4*%
X151072198Y-101250000D02*
X150807277Y-101374087D01*
X150807277Y-101374087D02*
X150510950Y-101424715D01*
X150510950Y-101424715D02*
X150201673Y-101398730D01*
X150201673Y-101398730D02*
X149898705Y-101297751D01*
X150200000Y-101395710D02*
X150212004Y-101146914D01*
X150150743Y-101768905D02*
X150200000Y-101395710D01*
X149898705Y-101297751D02*
X149620915Y-101128065D01*
X149620915Y-101128065D02*
X149385602Y-100900241D01*
X149617442Y-101561450D02*
X149726298Y-101202597D01*
X149385602Y-100900241D02*
X149207421Y-100628467D01*
X149221946Y-99458630D02*
X149406250Y-99237139D01*
X149207421Y-100628467D02*
X149097469Y-100329667D01*
X149104965Y-99725950D02*
X149221946Y-99458630D01*
X149097469Y-100329667D02*
X149062593Y-100022451D01*
X149062593Y-100022451D02*
X149104965Y-99725950D01*
X150809365Y-100547562D02*
G75*
G03*
X151072198Y-101250000I1248218J66659D01*
G01*
D11*
X149424054Y-100000734D02*
G75*
G03*
X150573812Y-100957554I1215548J291446D01*
G01*
D10*
X150809365Y-100547561D02*
G75*
G03*
X150303506Y-99608540I-1248215J-66659D01*
G01*
X149968750Y-99237139D02*
G75*
G03*
X150303506Y-99608539I1077147J634308D01*
G01*
D11*
X149713390Y-101893910D02*
G75*
G03*
X150213243Y-101768904I31233J936983D01*
G01*
X150573837Y-100957346D02*
G75*
G03*
X150013396Y-99756933I-1240717J151776D01*
G01*
X149713243Y-101893905D02*
G75*
G03*
X149713243Y-101768905I0J62500D01*
G01*
X150213115Y-101768832D02*
G75*
G03*
X149713243Y-101643905I-468495J-812058D01*
G01*
X149713243Y-101768905D02*
G75*
G03*
X149713243Y-101643905I0J62500D01*
G01*
X149180089Y-101686456D02*
G75*
G03*
X149679942Y-101561450I31231J936986D01*
G01*
X149620740Y-98592648D02*
G75*
G03*
X149379260Y-98592648I-120740J-32352D01*
G01*
X148821154Y-99108711D02*
G75*
G03*
X149236795Y-99086557I176446J599711D01*
G01*
X149179942Y-101686450D02*
G75*
G03*
X149179942Y-101561450I-2J62500D01*
G01*
X149679814Y-101561376D02*
G75*
G03*
X149179942Y-101436450I-468494J-812064D01*
G01*
X149179942Y-101561450D02*
G75*
G03*
X149179942Y-101436450I-2J62500D01*
G01*
X148821165Y-99108852D02*
G75*
G03*
X149130822Y-98830714I-239025J577552D01*
G01*
D10*
X151093750Y-101894429D02*
G75*
G03*
X148906251Y-101894430I-1093750J1894429D01*
G01*
X152500000Y-100000000D02*
G75*
G03*
X152500000Y-100000000I-2500000J0D01*
G01*
X150250000Y-98750000D02*
G75*
G03*
X150250000Y-98750000I-562500J0D01*
G01*
%TD*%
%TA.AperFunction,NonConductor*%
G36*
X161004118Y-91000769D02*
G01*
X161083743Y-91005988D01*
X161261461Y-91018699D01*
X161277026Y-91020796D01*
X161389441Y-91043157D01*
X161530151Y-91073767D01*
X161543814Y-91077560D01*
X161657716Y-91116225D01*
X161661067Y-91117417D01*
X161788725Y-91165031D01*
X161800384Y-91170065D01*
X161910600Y-91224418D01*
X161915254Y-91226835D01*
X162032421Y-91290812D01*
X162041994Y-91296608D01*
X162145238Y-91365594D01*
X162150724Y-91369477D01*
X162256668Y-91448786D01*
X162264216Y-91454906D01*
X162357936Y-91537097D01*
X162363953Y-91542733D01*
X162457265Y-91636045D01*
X162462901Y-91642062D01*
X162545092Y-91735782D01*
X162551218Y-91743337D01*
X162605338Y-91815633D01*
X162630519Y-91849271D01*
X162634415Y-91854776D01*
X162703382Y-91957993D01*
X162709196Y-91967595D01*
X162773162Y-92084742D01*
X162775580Y-92089398D01*
X162829925Y-92199597D01*
X162834975Y-92211293D01*
X162882549Y-92338843D01*
X162883794Y-92342342D01*
X162922434Y-92456170D01*
X162926240Y-92469881D01*
X162956847Y-92610580D01*
X162979203Y-92722970D01*
X162981299Y-92738541D01*
X162994017Y-92916351D01*
X162999230Y-92995882D01*
X162999500Y-93004120D01*
X162999500Y-106995878D01*
X162999230Y-107004119D01*
X162994017Y-107083648D01*
X162981300Y-107261448D01*
X162979200Y-107277037D01*
X162956847Y-107389418D01*
X162926238Y-107530127D01*
X162922434Y-107543827D01*
X162883806Y-107657623D01*
X162882549Y-107661155D01*
X162834975Y-107788705D01*
X162829925Y-107800401D01*
X162775580Y-107910600D01*
X162773162Y-107915256D01*
X162709196Y-108032403D01*
X162703373Y-108042021D01*
X162634415Y-108145222D01*
X162630519Y-108150727D01*
X162551230Y-108256646D01*
X162545092Y-108264216D01*
X162462901Y-108357936D01*
X162457265Y-108363953D01*
X162363953Y-108457265D01*
X162357936Y-108462901D01*
X162264216Y-108545092D01*
X162256646Y-108551230D01*
X162150727Y-108630519D01*
X162145222Y-108634415D01*
X162042021Y-108703373D01*
X162032403Y-108709196D01*
X161915256Y-108773162D01*
X161910600Y-108775580D01*
X161800401Y-108829925D01*
X161788705Y-108834975D01*
X161661155Y-108882549D01*
X161657624Y-108883806D01*
X161543836Y-108922432D01*
X161530117Y-108926240D01*
X161389419Y-108956847D01*
X161277028Y-108979203D01*
X161261457Y-108981299D01*
X161083648Y-108994017D01*
X161004118Y-108999230D01*
X160995880Y-108999500D01*
X148004122Y-108999500D01*
X147995881Y-108999230D01*
X147916351Y-108994017D01*
X147738550Y-108981300D01*
X147722960Y-108979200D01*
X147610580Y-108956847D01*
X147525647Y-108938371D01*
X147469868Y-108926237D01*
X147456171Y-108922434D01*
X147372579Y-108894058D01*
X147342363Y-108883801D01*
X147338856Y-108882553D01*
X147211294Y-108834975D01*
X147199597Y-108829925D01*
X147089398Y-108775580D01*
X147084742Y-108773162D01*
X146967595Y-108709196D01*
X146957993Y-108703382D01*
X146854776Y-108634415D01*
X146849271Y-108630519D01*
X146815633Y-108605338D01*
X146743337Y-108551218D01*
X146735782Y-108545092D01*
X146642062Y-108462901D01*
X146636045Y-108457265D01*
X146542733Y-108363953D01*
X146537097Y-108357936D01*
X146454906Y-108264216D01*
X146448786Y-108256668D01*
X146369477Y-108150724D01*
X146365594Y-108145238D01*
X146296608Y-108041994D01*
X146290812Y-108032421D01*
X146226835Y-107915254D01*
X146224418Y-107910600D01*
X146170065Y-107800384D01*
X146165031Y-107788725D01*
X146117417Y-107661067D01*
X146116232Y-107657737D01*
X146077557Y-107543806D01*
X146073764Y-107530138D01*
X146057416Y-107454990D01*
X153669844Y-107454990D01*
X153679578Y-107634501D01*
X153727672Y-107807721D01*
X153811881Y-107966557D01*
X153928263Y-108103573D01*
X154071382Y-108212369D01*
X154234541Y-108287854D01*
X154410112Y-108326500D01*
X154410113Y-108326500D01*
X154541401Y-108326500D01*
X154544816Y-108326500D01*
X154678721Y-108311937D01*
X154820353Y-108264216D01*
X154849083Y-108254536D01*
X154849085Y-108254535D01*
X155003126Y-108161851D01*
X155133642Y-108038220D01*
X155234529Y-107889423D01*
X155301070Y-107722416D01*
X155330155Y-107545010D01*
X155320422Y-107365499D01*
X155272327Y-107192277D01*
X155188119Y-107033444D01*
X155188118Y-107033442D01*
X155071736Y-106896426D01*
X154928617Y-106787630D01*
X154765458Y-106712145D01*
X154589888Y-106673500D01*
X154589887Y-106673500D01*
X154455184Y-106673500D01*
X154451799Y-106673868D01*
X154451783Y-106673869D01*
X154321279Y-106688062D01*
X154150916Y-106745463D01*
X153996874Y-106838148D01*
X153866356Y-106961781D01*
X153765470Y-107110577D01*
X153698930Y-107277583D01*
X153669844Y-107454990D01*
X146057416Y-107454990D01*
X146043161Y-107389462D01*
X146020790Y-107276999D01*
X146018700Y-107261467D01*
X146005988Y-107083743D01*
X146000770Y-107004118D01*
X146000500Y-106995881D01*
X146000500Y-100000000D01*
X146886602Y-100000000D01*
X146886800Y-100003525D01*
X146905979Y-100345061D01*
X146905980Y-100345075D01*
X146906178Y-100348590D01*
X146906767Y-100352057D01*
X146906769Y-100352074D01*
X146963652Y-100686859D01*
X146964661Y-100692796D01*
X147061316Y-101028290D01*
X147194925Y-101350853D01*
X147196635Y-101353947D01*
X147196636Y-101353949D01*
X147362098Y-101653330D01*
X147362104Y-101653340D01*
X147363811Y-101656428D01*
X147565847Y-101941172D01*
X147798495Y-102201505D01*
X148058828Y-102434153D01*
X148343572Y-102636189D01*
X148346664Y-102637898D01*
X148346669Y-102637901D01*
X148496359Y-102720632D01*
X148649147Y-102805075D01*
X148971710Y-102938684D01*
X149307204Y-103035339D01*
X149587572Y-103082975D01*
X149647925Y-103093230D01*
X149647927Y-103093230D01*
X149651410Y-103093822D01*
X150000000Y-103113398D01*
X150348590Y-103093822D01*
X150692796Y-103035339D01*
X151028290Y-102938684D01*
X151350853Y-102805075D01*
X151656428Y-102636189D01*
X151941172Y-102434153D01*
X152201505Y-102201505D01*
X152434153Y-101941172D01*
X152636189Y-101656428D01*
X152805075Y-101350853D01*
X152938684Y-101028290D01*
X153035339Y-100692796D01*
X153093822Y-100348590D01*
X153113398Y-100000000D01*
X153093822Y-99651410D01*
X153035339Y-99307204D01*
X152938684Y-98971710D01*
X152805075Y-98649147D01*
X152636189Y-98343572D01*
X152434153Y-98058828D01*
X152201505Y-97798495D01*
X151941172Y-97565847D01*
X151931838Y-97559224D01*
X151659315Y-97365859D01*
X151659309Y-97365855D01*
X151656428Y-97363811D01*
X151653340Y-97362104D01*
X151653330Y-97362098D01*
X151353949Y-97196636D01*
X151353947Y-97196635D01*
X151350853Y-97194925D01*
X151347590Y-97193573D01*
X151347585Y-97193571D01*
X151031552Y-97062667D01*
X151031549Y-97062666D01*
X151028290Y-97061316D01*
X151024905Y-97060340D01*
X151024900Y-97060339D01*
X150696175Y-96965634D01*
X150696166Y-96965632D01*
X150692796Y-96964661D01*
X150689329Y-96964071D01*
X150689325Y-96964071D01*
X150352074Y-96906769D01*
X150352057Y-96906767D01*
X150348590Y-96906178D01*
X150345075Y-96905980D01*
X150345061Y-96905979D01*
X150003526Y-96886800D01*
X150000000Y-96886602D01*
X149996474Y-96886800D01*
X149654938Y-96905979D01*
X149654922Y-96905980D01*
X149651410Y-96906178D01*
X149647944Y-96906766D01*
X149647925Y-96906769D01*
X149310674Y-96964071D01*
X149310666Y-96964072D01*
X149307204Y-96964661D01*
X149303836Y-96965631D01*
X149303824Y-96965634D01*
X148975099Y-97060339D01*
X148975088Y-97060342D01*
X148971710Y-97061316D01*
X148968455Y-97062663D01*
X148968447Y-97062667D01*
X148652414Y-97193571D01*
X148652402Y-97193576D01*
X148649147Y-97194925D01*
X148646059Y-97196631D01*
X148646050Y-97196636D01*
X148346669Y-97362098D01*
X148346651Y-97362109D01*
X148343572Y-97363811D01*
X148340698Y-97365850D01*
X148340684Y-97365859D01*
X148061712Y-97563800D01*
X148061704Y-97563806D01*
X148058828Y-97565847D01*
X148056201Y-97568194D01*
X148056193Y-97568201D01*
X147801118Y-97796150D01*
X147801109Y-97796158D01*
X147798495Y-97798495D01*
X147796158Y-97801109D01*
X147796150Y-97801118D01*
X147568201Y-98056193D01*
X147568194Y-98056201D01*
X147565847Y-98058828D01*
X147563806Y-98061704D01*
X147563800Y-98061712D01*
X147365859Y-98340684D01*
X147365850Y-98340698D01*
X147363811Y-98343572D01*
X147362109Y-98346651D01*
X147362098Y-98346669D01*
X147196636Y-98646050D01*
X147196631Y-98646059D01*
X147194925Y-98649147D01*
X147193576Y-98652402D01*
X147193571Y-98652414D01*
X147062667Y-98968447D01*
X147062663Y-98968455D01*
X147061316Y-98971710D01*
X147060342Y-98975088D01*
X147060339Y-98975099D01*
X146965634Y-99303824D01*
X146965631Y-99303836D01*
X146964661Y-99307204D01*
X146964072Y-99310666D01*
X146964071Y-99310674D01*
X146906769Y-99647925D01*
X146906766Y-99647944D01*
X146906178Y-99651410D01*
X146905980Y-99654922D01*
X146905979Y-99654938D01*
X146889748Y-99943985D01*
X146886602Y-100000000D01*
X146000500Y-100000000D01*
X146000500Y-93004120D01*
X146000770Y-92995880D01*
X146005991Y-92916208D01*
X146018700Y-92738534D01*
X146020797Y-92722970D01*
X146043163Y-92610523D01*
X146073769Y-92469839D01*
X146077557Y-92456194D01*
X146077966Y-92454990D01*
X153669844Y-92454990D01*
X153679578Y-92634501D01*
X153727672Y-92807721D01*
X153811881Y-92966557D01*
X153928263Y-93103573D01*
X154071382Y-93212369D01*
X154234541Y-93287854D01*
X154410112Y-93326500D01*
X154410113Y-93326500D01*
X154541401Y-93326500D01*
X154544816Y-93326500D01*
X154678721Y-93311937D01*
X154765290Y-93282768D01*
X154849083Y-93254536D01*
X154849085Y-93254535D01*
X155003126Y-93161851D01*
X155133642Y-93038220D01*
X155234529Y-92889423D01*
X155301070Y-92722416D01*
X155330155Y-92545010D01*
X155320422Y-92365499D01*
X155272327Y-92192277D01*
X155188119Y-92033444D01*
X155188118Y-92033442D01*
X155071736Y-91896426D01*
X154928617Y-91787630D01*
X154765458Y-91712145D01*
X154589888Y-91673500D01*
X154589887Y-91673500D01*
X154455184Y-91673500D01*
X154451799Y-91673868D01*
X154451783Y-91673869D01*
X154321279Y-91688062D01*
X154150916Y-91745463D01*
X153996874Y-91838148D01*
X153866356Y-91961781D01*
X153765470Y-92110577D01*
X153698930Y-92277583D01*
X153669844Y-92454990D01*
X146077966Y-92454990D01*
X146116240Y-92342240D01*
X146117402Y-92338973D01*
X146165037Y-92211260D01*
X146170058Y-92199629D01*
X146224440Y-92089355D01*
X146226814Y-92084784D01*
X146290824Y-91967558D01*
X146296595Y-91958025D01*
X146365618Y-91854725D01*
X146369451Y-91849309D01*
X146448805Y-91743305D01*
X146454883Y-91735809D01*
X146537110Y-91642047D01*
X146542703Y-91636076D01*
X146636076Y-91542703D01*
X146642047Y-91537110D01*
X146735809Y-91454883D01*
X146743305Y-91448805D01*
X146849309Y-91369451D01*
X146854725Y-91365618D01*
X146958025Y-91296595D01*
X146967558Y-91290824D01*
X147084784Y-91226814D01*
X147089355Y-91224440D01*
X147199629Y-91170058D01*
X147211260Y-91165037D01*
X147338974Y-91117402D01*
X147342220Y-91116246D01*
X147456202Y-91077554D01*
X147469852Y-91073766D01*
X147610546Y-91043159D01*
X147723005Y-91020790D01*
X147738528Y-91018700D01*
X147916208Y-91005991D01*
X147991307Y-91001069D01*
X147995882Y-91000770D01*
X148004119Y-91000500D01*
X160995880Y-91000500D01*
X161004118Y-91000769D01*
G37*
%TD.AperFunction*%
%TA.AperFunction,NonConductor*%
G36*
X151054239Y-98829087D02*
G01*
X151091718Y-98860209D01*
X151105632Y-98873701D01*
X151253631Y-99041157D01*
X151265313Y-99056627D01*
X151385871Y-99244798D01*
X151395042Y-99261876D01*
X151485312Y-99466317D01*
X151491755Y-99484600D01*
X151549596Y-99700468D01*
X151553158Y-99719522D01*
X151577204Y-99941708D01*
X151577801Y-99961085D01*
X151575525Y-100010305D01*
X151552397Y-100077429D01*
X151496651Y-100121394D01*
X151425986Y-100128241D01*
X151362836Y-100095796D01*
X151329482Y-100042346D01*
X151320477Y-100013762D01*
X151298494Y-99943985D01*
X151200555Y-99731073D01*
X151076650Y-99532149D01*
X150928741Y-99350363D01*
X150830727Y-99256858D01*
X150795246Y-99195366D01*
X150796511Y-99131213D01*
X150843493Y-98966093D01*
X150848283Y-98914395D01*
X150874484Y-98848414D01*
X150932200Y-98807070D01*
X151003107Y-98803493D01*
X151054239Y-98829087D01*
G37*
%TD.AperFunction*%
M02*
