M48
; DRILL file {KiCad 7.0.4-40-g0180cb380f} date Mon May 29 16:48:34 2023
; FORMAT={-:-/ absolute / inch / decimal}
; #@! TF.CreationDate,2023-05-29T16:48:34-07:00
; #@! TF.GenerationSoftware,Kicad,Pcbnew,7.0.4-40-g0180cb380f
; #@! TF.FileFunction,Plated,1,2,PTH
FMAT,2
INCH
; #@! TA.AperFunction,Plated,PTH,ViaDrill
T1C0.0118
; #@! TA.AperFunction,Plated,PTH,ComponentDrill
T2C0.0118
; #@! TA.AperFunction,Plated,PTH,ViaDrill
T3C0.0197
; #@! TA.AperFunction,Plated,PTH,ComponentDrill
T4C0.0197
; #@! TA.AperFunction,Plated,PTH,ComponentDrill
T5C0.0236
; #@! TA.AperFunction,Plated,PTH,ComponentDrill
T6C0.0295
; #@! TA.AperFunction,Plated,PTH,ComponentDrill
T7C0.0394
; #@! TA.AperFunction,Plated,PTH,ComponentDrill
T8C0.1063
; #@! TA.AperFunction,Plated,PTH,ViaDrill
T9C0.1772
%
G90
G05
T1
X-5.2119Y-6.6969
X-5.144Y-6.2441
X-5.1226Y-5.752
X-5.0923Y-6.0748
X-5.0394Y-3.3268
X-5.0321Y-5.6732
X-5.0292Y-3.4683
X-5.0159Y-5.3898
X-4.9652Y-5.752
X-4.9606Y-2.9134
X-4.9606Y-2.9921
X-4.9606Y-3.0709
X-4.9606Y-3.2283
X-4.9479Y-4.937
X-4.9118Y-7.1988
X-4.8819Y-3.7008
X-4.8654Y-5.874
X-4.8622Y-2.9528
X-4.7244Y-3.0709
X-4.7047Y-3.4646
X-4.685Y-3.3465
X-4.685Y-3.5039
X-4.626Y-2.5197
X-4.626Y-2.5984
X-4.6016Y-5.8563
X-4.5571Y-2.3819
X-4.5459Y-3.4745
X-4.5276Y-4.252
X-4.5079Y-3.5039
X-4.5049Y-4.0157
X-4.4984Y-7.1988
X-4.4715Y-4.0157
X-4.4685Y-3.5433
X-4.4275Y-3.5424
X-4.4055Y-4.5492
X-4.34Y-3.5497
X-4.3189Y-4.127
X-4.2717Y-2.3819
X-4.2717Y-2.7362
X-4.1882Y-5.8563
X-4.145Y-2.5
X-4.1437Y-2.5886
X-4.1437Y-2.6476
X-4.1135Y-2.5192
X-4.1043Y-2.4508
X-4.1015Y-3.962
X-4.0386Y-5.874
X-4.0354Y-2.5
X-4.0354Y-2.6181
X-4.0078Y-2.4763
X-3.9921Y-4.5492
X-3.9858Y-2.4465
X-3.9764Y-3.0512
X-3.9764Y-3.1102
X-3.9764Y-3.5433
X-3.9665Y-2.6673
X-3.9639Y-3.2749
X-3.956Y-6.811
X-3.949Y-3.7077
X-3.9393Y-2.5686
X-3.9272Y-2.4902
X-3.8881Y-6.3583
X-3.8719Y-6.0748
X-3.8386Y-2.6969
X-3.8215Y-3.1964
X-3.8116Y-5.6732
X-3.7992Y-2.3819
X-3.7599Y-5.5039
X-3.7446Y-3.0929
X-3.7039Y-6.3465
X-3.7039Y-6.5827
X-3.7002Y-2.5306
X-3.6997Y-2.6533
X-3.6963Y-2.687
X-3.692Y-5.0512
X-3.6576Y-2.6071
X-3.6417Y-2.5591
X-3.5867Y-3.0363
X-3.5522Y-2.5248
X-3.5465Y-6.3465
X-3.5465Y-6.5827
X-3.5319Y-2.5866
X-3.5319Y-2.5523
X-3.5208Y-2.7652
X-3.5159Y-2.7217
X-3.5071Y-6.4646
X-3.4677Y-6.5039
X-3.4222Y-3.3361
X-3.4055Y-2.6575
X-3.4055Y-2.7165
X-3.3988Y-5.874
X-3.3858Y-2.4803
X-3.3818Y-2.7403
X-3.3553Y-3.5742
X-3.3517Y-6.6969
X-3.2838Y-6.2441
X-3.2624Y-5.752
X-3.2321Y-6.0748
X-3.1719Y-5.6732
X-3.1556Y-5.3898
X-3.1102Y-3.2283
X-3.1049Y-5.752
X-3.0877Y-4.937
X-3.0516Y-7.1988
X-3.0051Y-5.874
X-2.9528Y-2.6181
X-2.9518Y-2.676
X-2.9134Y-2.5
X-2.7953Y-2.4606
X-2.7953Y-2.5591
X-2.7413Y-5.8563
X-2.6575Y-2.5591
X-2.6575Y-2.5984
X-2.6382Y-7.1988
X-2.5984Y-2.4606
X-2.5453Y-4.5492
X-2.4803Y-2.7362
X-2.4409Y-2.7362
X-2.4311Y-2.4606
X-2.4213Y-2.4213
X-2.4016Y-2.7362
X-2.4013Y-3.3297
X-2.3425Y-2.6378
X-2.328Y-5.8563
X-2.3228Y-2.4803
X-2.3031Y-2.4213
X-2.3031Y-2.5098
X-2.3031Y-2.5591
X-2.1783Y-5.874
X-2.1319Y-4.5492
X-2.0958Y-6.811
X-2.0279Y-6.3583
X-2.0177Y-3.5335
X-2.0177Y-3.7106
X-2.0116Y-6.0748
X-1.9514Y-5.6732
X-1.8997Y-5.5039
X-1.8535Y-5.874
X-1.8535Y-6.7205
X-1.8318Y-5.0512
X-1.6853Y-3.6087
X-1.6822Y-3.7482
X-1.6567Y-6.3858
X-1.5773Y-3.6087
X-1.4961Y-3.2283
X-1.4864Y-3.3492
X-1.437Y-3.2677
X-1.4205Y-6.3465
X-1.4205Y-6.3858
X-1.4205Y-6.4449
X-1.4205Y-6.6614
X-1.4205Y-6.7008
X-1.4205Y-6.7402
X-1.3814Y-3.3804
X-1.378Y-3.4145
X-1.3467Y-4.8858
X-1.3417Y-5.0079
X-1.3298Y-3.4567
X-1.3024Y-4.8898
X-1.2502Y-4.8858
X-1.2306Y-3.3093
X-1.2236Y-6.4252
X-1.2161Y-5.0059
X-1.1843Y-6.1693
X-1.16Y-3.3465
X-1.1329Y-3.5137
X-1.1201Y-2.9591
X-1.0124Y-6.4783
X-1.0093Y-3.1956
X-0.9989Y-4.8858
X-0.9988Y-3.2958
X-0.9936Y-3.2421
X-0.9686Y-3.0624
X-0.948Y-4.8898
X-0.9087Y-6.6614
X-0.9024Y-4.8858
X-0.8658Y-4.2293
X-0.8641Y-3.131
X-0.863Y-3.1988
X-0.8482Y-5.3839
X-0.7906Y-5.5984
X-0.6511Y-4.8858
X-0.6331Y-5.4409
X-0.6163Y-3.5871
X-0.6012Y-4.1323
X-0.5937Y-4.8898
X-0.5888Y-3.0766
X-0.5546Y-4.8858
X-0.5543Y-6.6614
X-0.515Y-6.3858
X-0.515Y-6.5039
X-0.502Y-2.7656
X-0.4756Y-6.6811
X-0.4756Y-6.7205
X-0.4406Y-3.1314
X-0.3575Y-6.561
X-0.3528Y-3.1078
X-0.3378Y-6.6811
X-0.3129Y-3.0799
X-0.3106Y-5.0059
X-0.3033Y-4.8858
X-0.2591Y-4.8898
X-0.2478Y-2.7656
X-0.2414Y-3.7633
X-0.2069Y-4.8858
X-0.2068Y-3.6344
X-0.194Y-3.8107
X-0.1409Y-6.5433
X-0.1114Y-5.874
X-0.0929Y-2.7934
X-0.0643Y-6.6969
X-0.0429Y-2.8502
X0.0Y-3.9961
X0.0037Y-6.2441
X0.025Y-5.752
X0.0294Y-3.6028
X0.0553Y-6.0748
X0.0571Y-3.4782
X0.0591Y-3.7402
X0.0614Y-2.6876
X0.1071Y-3.6417
X0.1156Y-5.6732
X0.1318Y-5.3898
X0.1556Y-3.054
X0.1796Y-3.764
X0.1825Y-5.752
X0.1997Y-4.937
X0.2053Y-2.9399
X0.2071Y-3.2598
X0.2358Y-7.1988
X0.2823Y-5.874
X0.5461Y-5.8563
X0.6492Y-7.1988
X0.7421Y-4.5492
X0.9594Y-5.8563
X1.1091Y-5.874
X1.1555Y-4.5492
X1.1916Y-6.811
X1.2595Y-6.3583
X1.2758Y-6.0748
X1.336Y-5.6732
X1.3877Y-5.5039
X1.4556Y-5.0512
X1.7488Y-5.874
X1.7959Y-6.6969
X1.8639Y-6.2441
X1.8852Y-5.752
X1.9156Y-6.0748
X1.9758Y-5.6732
X1.992Y-5.3898
X2.0427Y-5.752
X2.06Y-4.937
X2.0961Y-7.1988
X2.1425Y-5.874
X2.4063Y-5.8563
X2.5094Y-7.1988
X2.6024Y-4.5492
X2.8197Y-5.8563
X2.9693Y-5.874
X3.0157Y-4.5492
X3.0519Y-6.811
X3.1198Y-6.3583
X3.136Y-6.0748
X3.1963Y-5.6732
X3.248Y-5.5039
X3.3159Y-5.0512
T2
X-4.3661Y-3.1795
X-4.3661Y-3.2346
X-4.3386Y-3.152
X-4.3386Y-3.2071
X-4.3386Y-3.2622
X-4.311Y-3.1795
X-4.311Y-3.2346
X-4.2835Y-3.152
X-4.2835Y-3.2071
X-4.2835Y-3.2622
X-4.2559Y-3.1795
X-4.2559Y-3.2346
X-0.8654Y-6.3795
X-0.8654Y-6.4346
X-0.8378Y-6.352
X-0.8378Y-6.4071
X-0.8378Y-6.4622
X-0.8102Y-6.3795
X-0.8102Y-6.4346
X-0.7827Y-6.352
X-0.7827Y-6.4071
X-0.7827Y-6.4622
X-0.7551Y-6.3795
X-0.7551Y-6.4346
X-0.3398Y-5.5335
X-0.3398Y-5.5846
X-0.2965Y-5.5335
X-0.2965Y-5.5846
X-0.152Y-3.2598
X-0.152Y-3.315
X-0.1244Y-3.2323
X-0.1244Y-3.2874
X-0.1244Y-3.3425
X-0.0969Y-3.2598
X-0.0969Y-3.315
X-0.0693Y-3.2323
X-0.0693Y-3.2874
X-0.0693Y-3.3425
X-0.0417Y-3.2598
X-0.0417Y-3.315
T3
X-4.9803Y-3.622
X-4.7441Y-2.4606
X-4.7441Y-2.6575
X-4.7244Y-4.0354
X-4.7244Y-4.2323
X-4.685Y-2.5591
X-4.685Y-2.9134
X-4.6457Y-4.1339
X-4.6063Y-3.8189
X-4.6063Y-3.9764
X-4.5472Y-3.8563
X-4.5276Y-3.9764
X-4.5276Y-4.0551
X-4.4685Y-2.7165
X-4.3898Y-2.6324
X-4.3898Y-2.6772
X-4.3307Y-2.5787
X-4.252Y-3.9764
X-4.252Y-4.0157
X-4.2126Y-3.7795
X-4.2126Y-3.8976
X-4.2126Y-4.2913
X-4.0551Y-3.8976
X-4.0551Y-3.9764
X-4.0551Y-4.2126
X-4.0551Y-4.2913
X-3.8189Y-2.9134
X-3.7018Y-3.9961
X-3.7008Y-3.3858
X-3.6909Y-4.124
X-3.6614Y-3.8189
X-3.6319Y-3.0807
X-3.622Y-2.4803
X-3.622Y-3.3858
X-3.563Y-3.3858
X-3.563Y-3.622
X-3.563Y-3.7382
X-3.5531Y-3.0807
X-3.5433Y-2.3819
X-3.5433Y-2.4409
X-3.5039Y-3.622
X-3.5039Y-3.8189
X-3.4449Y-3.0807
X-3.4252Y-4.124
X-3.4055Y-2.3819
X-3.3465Y-3.3858
X-3.3169Y-3.0807
X-3.2972Y-4.124
X-3.2382Y-4.124
X-3.2283Y-2.3819
X-3.2283Y-2.7362
X-3.2283Y-3.7795
X-3.1988Y-3.0807
X-3.189Y-3.3858
X-3.1594Y-4.124
X-3.1496Y-3.9961
X-3.1102Y-3.3858
X-3.1102Y-3.622
X-3.1102Y-3.8189
X-3.0315Y-3.3858
X-3.0315Y-3.622
X-2.9528Y-2.5197
X-2.8346Y-4.2323
X-2.7559Y-2.7165
X-2.7559Y-2.9528
X-2.7559Y-3.0709
X-2.628Y-2.7559
X-2.5984Y-3.3465
X-2.5787Y-3.2283
X-2.5787Y-3.7795
X-2.5591Y-3.3465
X-2.5197Y-2.6378
X-2.4409Y-2.5591
X-2.4409Y-4.2323
X-2.3819Y-3.5039
X-2.3622Y-3.0709
X-2.3228Y-2.6969
X-2.3228Y-3.4252
X-2.3228Y-3.5827
X-2.3228Y-3.6614
X-2.3228Y-3.7402
X-2.3228Y-3.8189
X-2.3228Y-3.8976
X-2.2047Y-2.5984
X-2.2047Y-3.0709
X-2.1457Y-2.5098
X-2.1457Y-2.687
X-2.0504Y-5.9134
X-2.0504Y-5.9921
X-2.0472Y-4.2323
X-1.9323Y-6.0315
X-1.8535Y-5.9528
X-1.5386Y-5.7559
X-1.263Y-6.7008
X-1.1449Y-5.7559
X-1.0268Y-6.7008
X-0.948Y-5.4016
X-0.8299Y-5.4409
X-0.7906Y-5.3228
X-0.7512Y-6.622
X-0.6331Y-5.3228
X-0.5543Y-5.8346
X-0.515Y-5.874
X-0.3969Y-5.6772
X-0.2Y-5.8346
X-0.1606Y-5.874
T4
X-1.4057Y-6.9291
X-1.3824Y-6.8728
X-1.3824Y-6.9855
X-1.326Y-6.8494
X-1.326Y-7.0089
X-1.2696Y-6.8728
X-1.2696Y-6.9855
X-1.2463Y-6.9291
X-0.764Y-5.0701
X-0.7406Y-5.0137
X-0.7406Y-5.1265
X-0.6843Y-4.9904
X-0.6843Y-5.1498
X-0.6279Y-5.0137
X-0.6279Y-5.1265
X-0.6045Y-5.0701
T6
X-4.9587Y-3.7402
X-4.9587Y-3.8189
X-1.3811Y-5.2835
X-1.3024Y-5.2835
X-1.1024Y-4.0945
X-1.1024Y-4.1732
X-0.3575Y-5.2835
X-0.2787Y-5.2835
T7
X-1.6063Y-2.4803
X-1.6063Y-2.6378
X-1.6063Y-4.0551
X-1.6063Y-4.2126
X-1.5063Y-2.4803
X-1.5063Y-2.6378
X-1.5063Y-4.0551
X-1.5063Y-4.2126
X-1.4063Y-2.4803
X-1.4063Y-2.6378
X-1.4063Y-4.0551
X-1.4063Y-4.2126
X-1.3063Y-2.4803
X-1.3063Y-2.6378
X-1.3063Y-4.0551
X-1.3063Y-4.2126
T8
X-1.326Y-6.9291
X-0.6843Y-5.0701
T9
X-3.6532Y-6.75
X-3.3905Y-4.998
X1.4944Y-6.75
X1.7572Y-4.998
T5
G00X-4.9646Y-2.389
M15
G01X-4.9882Y-2.389
M16
G05
G00X-4.9646Y-2.7291
M15
G01X-4.9882Y-2.7291
M16
G05
G00X-4.9518Y-3.9638
M15
G01X-4.9754Y-3.9638
M16
G05
G00X-4.9518Y-4.3039
M15
G01X-4.9754Y-4.3039
M16
G05
G00X-4.7902Y-2.389
M15
G01X-4.8335Y-2.389
M16
G05
G00X-4.7902Y-2.7291
M15
G01X-4.8335Y-2.7291
M16
G05
G00X-4.7774Y-3.9638
M15
G01X-4.8207Y-3.9638
M16
G05
G00X-4.7774Y-4.3039
M15
G01X-4.8207Y-4.3039
M16
G05
G00X-2.0996Y-2.4283
M15
G01X-2.0563Y-2.4283
M16
G05
G00X-2.0996Y-2.7685
M15
G01X-2.0563Y-2.7685
M16
G05
G00X-1.9252Y-2.4283
M15
G01X-1.9016Y-2.4283
M16
G05
G00X-1.9252Y-2.7685
M15
G01X-1.9016Y-2.7685
M16
G05
T0
M30
