G04 #@! TF.GenerationSoftware,KiCad,Pcbnew,7.0.4-40-g0180cb380f*
G04 #@! TF.CreationDate,2023-05-29T16:48:42-07:00*
G04 #@! TF.ProjectId,SevenSegment,53657665-6e53-4656-976d-656e742e6b69,rev?*
G04 #@! TF.SameCoordinates,Original*
G04 #@! TF.FileFunction,Soldermask,Bot*
G04 #@! TF.FilePolarity,Negative*
%FSLAX46Y46*%
G04 Gerber Fmt 4.6, Leading zero omitted, Abs format (unit mm)*
G04 Created by KiCad (PCBNEW 7.0.4-40-g0180cb380f) date 2023-05-29 16:48:42*
%MOMM*%
%LPD*%
G01*
G04 APERTURE LIST*
G04 Aperture macros list*
%AMRoundRect*
0 Rectangle with rounded corners*
0 $1 Rounding radius*
0 $2 $3 $4 $5 $6 $7 $8 $9 X,Y pos of 4 corners*
0 Add a 4 corners polygon primitive as box body*
4,1,4,$2,$3,$4,$5,$6,$7,$8,$9,$2,$3,0*
0 Add four circle primitives for the rounded corners*
1,1,$1+$1,$2,$3*
1,1,$1+$1,$4,$5*
1,1,$1+$1,$6,$7*
1,1,$1+$1,$8,$9*
0 Add four rect primitives between the rounded corners*
20,1,$1+$1,$2,$3,$4,$5,0*
20,1,$1+$1,$4,$5,$6,$7,0*
20,1,$1+$1,$6,$7,$8,$9,0*
20,1,$1+$1,$8,$9,$2,$3,0*%
G04 Aperture macros list end*
%ADD10C,0.650000*%
%ADD11C,2.500000*%
%ADD12C,0.700000*%
%ADD13C,0.380000*%
%ADD14C,0.900000*%
%ADD15C,1.152000*%
%ADD16C,0.800000*%
%ADD17C,5.400000*%
%ADD18R,1.700000X1.700000*%
%ADD19O,1.700000X1.700000*%
%ADD20C,2.374900*%
%ADD21C,0.990600*%
%ADD22R,2.340000X1.700000*%
%ADD23RoundRect,0.250000X0.625000X-0.350000X0.625000X0.350000X-0.625000X0.350000X-0.625000X-0.350000X0*%
%ADD24O,1.750000X1.200000*%
%ADD25C,0.650000*%
%ADD26O,2.100000X1.000000*%
%ADD27O,1.600000X1.000000*%
%ADD28RoundRect,0.250000X-0.625000X0.350000X-0.625000X-0.350000X0.625000X-0.350000X0.625000X0.350000X0*%
%ADD29RoundRect,0.250000X0.350000X0.625000X-0.350000X0.625000X-0.350000X-0.625000X0.350000X-0.625000X0*%
%ADD30O,1.200000X1.750000*%
%ADD31R,1.500000X0.900000*%
%ADD32R,0.900000X1.500000*%
%ADD33C,0.600000*%
%ADD34R,3.900000X3.900000*%
%ADD35C,0.787400*%
G04 APERTURE END LIST*
D10*
X-130755000Y-180200000D02*
G75*
G03*
X-130755000Y-180200000I-325000J0D01*
G01*
X-84175000Y-63500000D02*
G75*
G03*
X-84175000Y-63500000I-325000J0D01*
G01*
X-48675000Y-76000000D02*
G75*
G03*
X-48675000Y-76000000I-325000J0D01*
G01*
X-114675000Y-65000000D02*
G75*
G03*
X-114675000Y-65000000I-325000J0D01*
G01*
X-75175000Y-61875000D02*
G75*
G03*
X-75175000Y-61875000I-325000J0D01*
G01*
X-84175000Y-66500000D02*
G75*
G03*
X-84175000Y-66500000I-325000J0D01*
G01*
X-54675000Y-61875000D02*
G75*
G03*
X-54675000Y-61875000I-325000J0D01*
G01*
X83245000Y-118200000D02*
G75*
G03*
X83245000Y-118200000I-325000J0D01*
G01*
X-75175000Y-70125000D02*
G75*
G03*
X-75175000Y-70125000I-325000J0D01*
G01*
X-120755000Y-118200000D02*
G75*
G03*
X-120755000Y-118200000I-325000J0D01*
G01*
X-110675000Y-100000000D02*
G75*
G03*
X-110675000Y-100000000I-325000J0D01*
G01*
X-48675000Y-103000000D02*
G75*
G03*
X-48675000Y-103000000I-325000J0D01*
G01*
D11*
X-123088400Y-105021400D02*
G75*
G03*
X-123088400Y-105021400I-1250000J0D01*
G01*
D12*
X-62345000Y-119050000D02*
G75*
G03*
X-62345000Y-119050000I-250000J0D01*
G01*
X-62345000Y-117550000D02*
G75*
G03*
X-62345000Y-117550000I-250000J0D01*
G01*
X-62345000Y-116050000D02*
G75*
G03*
X-62345000Y-116050000I-250000J0D01*
G01*
X-62345000Y-114550000D02*
G75*
G03*
X-62345000Y-114550000I-250000J0D01*
G01*
X-127750000Y-67250000D02*
G75*
G03*
X-127750000Y-67250000I-250000J0D01*
G01*
X-127750000Y-65750000D02*
G75*
G03*
X-127750000Y-65750000I-250000J0D01*
G01*
X-127750000Y-64250000D02*
G75*
G03*
X-127750000Y-64250000I-250000J0D01*
G01*
X-127750000Y-62750000D02*
G75*
G03*
X-127750000Y-62750000I-250000J0D01*
G01*
X-5750000Y-82750000D02*
G75*
G03*
X-5750000Y-82750000I-250000J0D01*
G01*
X-5750000Y-84250000D02*
G75*
G03*
X-5750000Y-84250000I-250000J0D01*
G01*
X-5750000Y-85750000D02*
G75*
G03*
X-5750000Y-85750000I-250000J0D01*
G01*
X-5750000Y-87250000D02*
G75*
G03*
X-5750000Y-87250000I-250000J0D01*
G01*
D11*
X3250000Y-85000000D02*
G75*
G03*
X3250000Y-85000000I-1250000J0D01*
G01*
X-49174054Y-65999266D02*
G75*
G03*
X-49174054Y-65999266I-1250000J0D01*
G01*
D12*
X-127750000Y-102750000D02*
G75*
G03*
X-127750000Y-102750000I-250000J0D01*
G01*
X-127750000Y-104250000D02*
G75*
G03*
X-127750000Y-104250000I-250000J0D01*
G01*
X-127750000Y-105750000D02*
G75*
G03*
X-127750000Y-105750000I-250000J0D01*
G01*
X-127750000Y-107250000D02*
G75*
G03*
X-127750000Y-107250000I-250000J0D01*
G01*
D11*
X-123325900Y-65000700D02*
G75*
G03*
X-123325900Y-65000700I-1250000J0D01*
G01*
D12*
X-46750000Y-63750000D02*
G75*
G03*
X-46750000Y-63750000I-250000J0D01*
G01*
X-46750000Y-65250000D02*
G75*
G03*
X-46750000Y-65250000I-250000J0D01*
G01*
X-46750000Y-66750000D02*
G75*
G03*
X-46750000Y-66750000I-250000J0D01*
G01*
X-46750000Y-68250000D02*
G75*
G03*
X-46750000Y-68250000I-250000J0D01*
G01*
D13*
X5810000Y-109175000D03*
X5810000Y-108540000D03*
X5810000Y-107905000D03*
X5810000Y-107270000D03*
X5810000Y-106635000D03*
X5810000Y-106000000D03*
X5810000Y-105365000D03*
X5810000Y-104730000D03*
X5810000Y-104095000D03*
X5810000Y-103460000D03*
X5810000Y-102825000D03*
X17175000Y-112190000D03*
X16540000Y-112190000D03*
X15905000Y-112190000D03*
X15270000Y-112190000D03*
X14635000Y-112190000D03*
X14000000Y-112190000D03*
X13365000Y-112190000D03*
X12730000Y-112190000D03*
X12095000Y-112190000D03*
X11460000Y-112190000D03*
X10825000Y-112190000D03*
X-127175000Y-70810000D03*
X-126540000Y-70810000D03*
X-125905000Y-70810000D03*
X-125270000Y-70810000D03*
X-124635000Y-70810000D03*
X-124000000Y-70810000D03*
X-123365000Y-70810000D03*
X-122730000Y-70810000D03*
X-122095000Y-70810000D03*
X-121460000Y-70810000D03*
X-120825000Y-70810000D03*
X-120825000Y-73190000D03*
X-121460000Y-73190000D03*
X-122095000Y-73190000D03*
X-122730000Y-73190000D03*
X-123365000Y-73190000D03*
X-124000000Y-73190000D03*
X-124635000Y-73190000D03*
X-125270000Y-73190000D03*
X-125905000Y-73190000D03*
X-126540000Y-73190000D03*
X-127175000Y-73190000D03*
X-43810000Y-62825000D03*
X-43810000Y-63460000D03*
X-43810000Y-64095000D03*
X-43810000Y-64730000D03*
X-43810000Y-65365000D03*
X-43810000Y-66000000D03*
X-43810000Y-66635000D03*
X-43810000Y-67270000D03*
X-43810000Y-67905000D03*
X-43810000Y-68540000D03*
X-43810000Y-69175000D03*
X-46190000Y-62825000D03*
X-46190000Y-63460000D03*
X-46190000Y-64095000D03*
X-46190000Y-64730000D03*
X-46190000Y-65365000D03*
X-46190000Y-66000000D03*
X-46190000Y-66635000D03*
X-46190000Y-67270000D03*
X-46190000Y-67905000D03*
X-46190000Y-68540000D03*
X-46190000Y-69175000D03*
X-70675000Y-70810000D03*
X-70040000Y-70810000D03*
X-69405000Y-70810000D03*
X-68770000Y-70810000D03*
X-68135000Y-70810000D03*
X-67500000Y-70810000D03*
X-66865000Y-70810000D03*
X-66230000Y-70810000D03*
X-65595000Y-70810000D03*
X-64960000Y-70810000D03*
X-64325000Y-70810000D03*
X-64325000Y-73190000D03*
X-64960000Y-73190000D03*
X-65595000Y-73190000D03*
X-66230000Y-73190000D03*
X-66865000Y-73190000D03*
X-67500000Y-73190000D03*
X-68135000Y-73190000D03*
X-68770000Y-73190000D03*
X-69405000Y-73190000D03*
X-70040000Y-73190000D03*
X-70675000Y-73190000D03*
X-81825000Y-70810000D03*
X-82460000Y-70810000D03*
X-83095000Y-70810000D03*
X-83730000Y-70810000D03*
X-84365000Y-70810000D03*
X-85000000Y-70810000D03*
X-85635000Y-70810000D03*
X-86270000Y-70810000D03*
X-86905000Y-70810000D03*
X-87540000Y-70810000D03*
X-88175000Y-70810000D03*
X-88175000Y-73190000D03*
X-87540000Y-73190000D03*
X-86905000Y-73190000D03*
X-86270000Y-73190000D03*
X-85635000Y-73190000D03*
X-85000000Y-73190000D03*
X-84365000Y-73190000D03*
X-83730000Y-73190000D03*
X-83095000Y-73190000D03*
X-82460000Y-73190000D03*
X-81825000Y-73190000D03*
X-43810000Y-101825000D03*
X-43810000Y-102460000D03*
X-43810000Y-103095000D03*
X-43810000Y-103730000D03*
X-43810000Y-104365000D03*
X-43810000Y-105000000D03*
X-43810000Y-105635000D03*
X-43810000Y-106270000D03*
X-43810000Y-106905000D03*
X-43810000Y-107540000D03*
X-43810000Y-108175000D03*
X-46190000Y-108175000D03*
X-46190000Y-107540000D03*
X-46190000Y-106905000D03*
X-46190000Y-106270000D03*
X-46190000Y-105635000D03*
X-46190000Y-105000000D03*
X-46190000Y-104365000D03*
X-46190000Y-103730000D03*
X-46190000Y-103095000D03*
X-46190000Y-102460000D03*
X-46190000Y-101825000D03*
X-54175000Y-112190000D03*
X-53540000Y-112190000D03*
X-52905000Y-112190000D03*
X-52270000Y-112190000D03*
X-51635000Y-112190000D03*
X-51000000Y-112190000D03*
X-50365000Y-112190000D03*
X-49730000Y-112190000D03*
X-49095000Y-112190000D03*
X-48460000Y-112190000D03*
X-47825000Y-112190000D03*
X-47825000Y-109810000D03*
X-48460000Y-109810000D03*
X-49095000Y-109810000D03*
X-49730000Y-109810000D03*
X-50365000Y-109810000D03*
X-51000000Y-109810000D03*
X-51635000Y-109810000D03*
X-52270000Y-109810000D03*
X-52905000Y-109810000D03*
X-53540000Y-109810000D03*
X-54175000Y-109810000D03*
X-113825000Y-112190000D03*
X-114460000Y-112190000D03*
X-115095000Y-112190000D03*
X-115730000Y-112190000D03*
X-116365000Y-112190000D03*
X-117000000Y-112190000D03*
X-117635000Y-112190000D03*
X-118270000Y-112190000D03*
X-118905000Y-112190000D03*
X-119540000Y-112190000D03*
X-120175000Y-112190000D03*
X-120175000Y-109810000D03*
X-119540000Y-109810000D03*
X-118905000Y-109810000D03*
X-118270000Y-109810000D03*
X-117635000Y-109810000D03*
X-117000000Y-109810000D03*
X-116365000Y-109810000D03*
X-115730000Y-109810000D03*
X-115095000Y-109810000D03*
X-114460000Y-109810000D03*
X-113825000Y-109810000D03*
X-43810000Y-81175000D03*
X-43810000Y-80540000D03*
X-43810000Y-79905000D03*
X-43810000Y-79270000D03*
X-43810000Y-78635000D03*
X-43810000Y-78000000D03*
X-43810000Y-77365000D03*
X-43810000Y-76730000D03*
X-43810000Y-76095000D03*
X-43810000Y-75460000D03*
X-43810000Y-74825000D03*
X-46190000Y-75460000D03*
X-46190000Y-79905000D03*
X-46190000Y-79270000D03*
X-46190000Y-78000000D03*
X-46190000Y-80540000D03*
X-46190000Y-77365000D03*
X-46190000Y-78635000D03*
X-46190000Y-76730000D03*
X-46190000Y-81175000D03*
X-46190000Y-76095000D03*
X-46190000Y-74825000D03*
D14*
X-13188000Y-121700000D03*
X-17438000Y-121700000D03*
D15*
X-131080000Y-180200000D03*
X-84500000Y-63500000D03*
D14*
X-22022000Y-121700000D03*
X-26272000Y-121700000D03*
D16*
X-19405000Y-128780000D03*
X-18811891Y-127348109D03*
X-18811891Y-130211891D03*
X-17380000Y-126755000D03*
D17*
X-17380000Y-128780000D03*
D16*
X-17380000Y-130805000D03*
X-15948109Y-127348109D03*
X-15948109Y-130211891D03*
X-15355000Y-128780000D03*
D18*
X-40800000Y-107000000D03*
D19*
X-38260000Y-107000000D03*
X-35720000Y-107000000D03*
X-33180000Y-107000000D03*
D20*
X-1540000Y-97460000D03*
D21*
X-1540000Y-100000000D03*
D20*
X-1540000Y-102540000D03*
X1635000Y-97460000D03*
X1635000Y-102540000D03*
D21*
X3540000Y-98984000D03*
X3540000Y-101016000D03*
D18*
X-40800000Y-63000000D03*
D19*
X-38260000Y-63000000D03*
X-35720000Y-63000000D03*
X-33180000Y-63000000D03*
D21*
X-125016000Y-91540000D03*
X-122984000Y-91540000D03*
D20*
X-126540000Y-89635000D03*
X-121460000Y-89635000D03*
X-126540000Y-86460000D03*
D21*
X-124000000Y-86460000D03*
D20*
X-121460000Y-86460000D03*
D14*
X-30855000Y-121700000D03*
X-35105000Y-121700000D03*
D15*
X-49000000Y-76000000D03*
X-115000000Y-65000000D03*
D22*
X-77130000Y-68545000D03*
X-77130000Y-66005000D03*
X-77130000Y-63465000D03*
D15*
X-75500000Y-61875000D03*
D23*
X-28000000Y-106000000D03*
D24*
X-28000000Y-104000000D03*
D25*
X-52280000Y-68890000D03*
X-52280000Y-63110000D03*
D26*
X-52780000Y-70320000D03*
D27*
X-48600000Y-70320000D03*
D26*
X-52780000Y-61680000D03*
D27*
X-48600000Y-61680000D03*
D18*
X-40800000Y-103000000D03*
D19*
X-38260000Y-103000000D03*
X-35720000Y-103000000D03*
X-33180000Y-103000000D03*
D16*
X-35705000Y-176000000D03*
X-35111891Y-174568109D03*
X-35111891Y-177431891D03*
X-33680000Y-173975000D03*
D17*
X-33680000Y-176000000D03*
D16*
X-33680000Y-178025000D03*
X-32248109Y-174568109D03*
X-32248109Y-177431891D03*
X-31655000Y-176000000D03*
D15*
X-84500000Y-66500000D03*
D27*
X-126075000Y-109320000D03*
D26*
X-121895000Y-109320000D03*
D27*
X-126075000Y-100680000D03*
D26*
X-121895000Y-100680000D03*
D25*
X-122395000Y-107890000D03*
X-122395000Y-102110000D03*
D15*
X-55000000Y-61875000D03*
D22*
X-82370000Y-62460000D03*
X-82370000Y-65000000D03*
X-82370000Y-67540000D03*
D14*
X-4355000Y-121700000D03*
X-8605000Y-121700000D03*
D24*
X-125950000Y-97000000D03*
D28*
X-125950000Y-95000000D03*
D15*
X82920000Y-118200000D03*
D20*
X-2540000Y-164660000D03*
D21*
X-5080000Y-164660000D03*
D20*
X-7620000Y-164660000D03*
X-2540000Y-167835000D03*
X-7620000Y-167835000D03*
D21*
X-4064000Y-169740000D03*
X-6096000Y-169740000D03*
D15*
X-75500000Y-70125000D03*
X-121080000Y-118200000D03*
X-111000000Y-100000000D03*
D25*
X-122720000Y-62110000D03*
X-122720000Y-67890000D03*
D26*
X-122220000Y-60680000D03*
D27*
X-126400000Y-60680000D03*
D26*
X-122220000Y-69320000D03*
D27*
X-126400000Y-69320000D03*
D18*
X-40800000Y-67000000D03*
D19*
X-38260000Y-67000000D03*
X-35720000Y-67000000D03*
X-33180000Y-67000000D03*
D15*
X-49000000Y-103000000D03*
D29*
X-7080000Y-134200000D03*
D30*
X-9080000Y-134200000D03*
D29*
X-33080000Y-134200000D03*
D30*
X-35080000Y-134200000D03*
D31*
X-27830000Y-170460000D03*
X-27830000Y-169190000D03*
X-27830000Y-167920000D03*
X-27830000Y-166650000D03*
X-27830000Y-165380000D03*
X-27830000Y-164110000D03*
X-27830000Y-162840000D03*
X-27830000Y-161570000D03*
X-27830000Y-160300000D03*
X-27830000Y-159030000D03*
X-27830000Y-157760000D03*
X-27830000Y-156490000D03*
X-27830000Y-155220000D03*
X-27830000Y-153950000D03*
D32*
X-26065000Y-152700000D03*
X-24795000Y-152700000D03*
X-23525000Y-152700000D03*
X-22255000Y-152700000D03*
X-20985000Y-152700000D03*
X-19715000Y-152700000D03*
X-18445000Y-152700000D03*
X-17175000Y-152700000D03*
X-15905000Y-152700000D03*
X-14635000Y-152700000D03*
X-13365000Y-152700000D03*
X-12095000Y-152700000D03*
D31*
X-10330000Y-153950000D03*
X-10330000Y-155220000D03*
X-10330000Y-156490000D03*
X-10330000Y-157760000D03*
X-10330000Y-159030000D03*
X-10330000Y-160300000D03*
X-10330000Y-161570000D03*
X-10330000Y-162840000D03*
X-10330000Y-164110000D03*
X-10330000Y-165380000D03*
X-10330000Y-166650000D03*
X-10330000Y-167920000D03*
X-10330000Y-169190000D03*
X-10330000Y-170460000D03*
D33*
X-21980000Y-162040000D03*
X-21980000Y-163440000D03*
X-21280000Y-161340000D03*
X-21280000Y-162740000D03*
X-21280000Y-164140000D03*
X-20580000Y-162040000D03*
D34*
X-20580000Y-162740000D03*
D33*
X-20580000Y-163440000D03*
X-19880000Y-161340000D03*
X-19880000Y-162740000D03*
X-19880000Y-164140000D03*
X-19180000Y-162040000D03*
X-19180000Y-163440000D03*
D21*
X-95500000Y-67540000D03*
X-96516000Y-62460000D03*
X-94484000Y-62460000D03*
D35*
X-96135000Y-66270000D03*
X-94865000Y-66270000D03*
X-96135000Y-65000000D03*
X-94865000Y-65000000D03*
X-96135000Y-63730000D03*
X-94865000Y-63730000D03*
M02*
