G04 #@! TF.GenerationSoftware,KiCad,Pcbnew,7.0.4-40-g0180cb380f*
G04 #@! TF.CreationDate,2023-08-16T00:58:49-07:00*
G04 #@! TF.ProjectId,RobotCrawler,526f626f-7443-4726-9177-6c65722e6b69,rev?*
G04 #@! TF.SameCoordinates,Original*
G04 #@! TF.FileFunction,Legend,Bot*
G04 #@! TF.FilePolarity,Positive*
%FSLAX46Y46*%
G04 Gerber Fmt 4.6, Leading zero omitted, Abs format (unit mm)*
G04 Created by KiCad (PCBNEW 7.0.4-40-g0180cb380f) date 2023-08-16 00:58:49*
%MOMM*%
%LPD*%
G01*
G04 APERTURE LIST*
%ADD10C,0.150000*%
%ADD11C,0.100000*%
%ADD12C,0.120000*%
G04 APERTURE END LIST*
D10*
X154857143Y-100554580D02*
X154895239Y-100602200D01*
X154895239Y-100602200D02*
X155009524Y-100649819D01*
X155009524Y-100649819D02*
X155085715Y-100649819D01*
X155085715Y-100649819D02*
X155200001Y-100602200D01*
X155200001Y-100602200D02*
X155276191Y-100506961D01*
X155276191Y-100506961D02*
X155314286Y-100411723D01*
X155314286Y-100411723D02*
X155352382Y-100221247D01*
X155352382Y-100221247D02*
X155352382Y-100078390D01*
X155352382Y-100078390D02*
X155314286Y-99887914D01*
X155314286Y-99887914D02*
X155276191Y-99792676D01*
X155276191Y-99792676D02*
X155200001Y-99697438D01*
X155200001Y-99697438D02*
X155085715Y-99649819D01*
X155085715Y-99649819D02*
X155009524Y-99649819D01*
X155009524Y-99649819D02*
X154895239Y-99697438D01*
X154895239Y-99697438D02*
X154857143Y-99745057D01*
X154514286Y-100649819D02*
X154514286Y-99983152D01*
X154514286Y-100173628D02*
X154476191Y-100078390D01*
X154476191Y-100078390D02*
X154438096Y-100030771D01*
X154438096Y-100030771D02*
X154361905Y-99983152D01*
X154361905Y-99983152D02*
X154285715Y-99983152D01*
X153676191Y-100649819D02*
X153676191Y-100126009D01*
X153676191Y-100126009D02*
X153714286Y-100030771D01*
X153714286Y-100030771D02*
X153790477Y-99983152D01*
X153790477Y-99983152D02*
X153942858Y-99983152D01*
X153942858Y-99983152D02*
X154019048Y-100030771D01*
X153676191Y-100602200D02*
X153752382Y-100649819D01*
X153752382Y-100649819D02*
X153942858Y-100649819D01*
X153942858Y-100649819D02*
X154019048Y-100602200D01*
X154019048Y-100602200D02*
X154057144Y-100506961D01*
X154057144Y-100506961D02*
X154057144Y-100411723D01*
X154057144Y-100411723D02*
X154019048Y-100316485D01*
X154019048Y-100316485D02*
X153942858Y-100268866D01*
X153942858Y-100268866D02*
X153752382Y-100268866D01*
X153752382Y-100268866D02*
X153676191Y-100221247D01*
X153371429Y-99983152D02*
X153219048Y-100649819D01*
X153219048Y-100649819D02*
X153066667Y-100173628D01*
X153066667Y-100173628D02*
X152914286Y-100649819D01*
X152914286Y-100649819D02*
X152761905Y-99983152D01*
X152342858Y-100649819D02*
X152419048Y-100602200D01*
X152419048Y-100602200D02*
X152457143Y-100506961D01*
X152457143Y-100506961D02*
X152457143Y-99649819D01*
X151733333Y-100602200D02*
X151809524Y-100649819D01*
X151809524Y-100649819D02*
X151961905Y-100649819D01*
X151961905Y-100649819D02*
X152038095Y-100602200D01*
X152038095Y-100602200D02*
X152076191Y-100506961D01*
X152076191Y-100506961D02*
X152076191Y-100126009D01*
X152076191Y-100126009D02*
X152038095Y-100030771D01*
X152038095Y-100030771D02*
X151961905Y-99983152D01*
X151961905Y-99983152D02*
X151809524Y-99983152D01*
X151809524Y-99983152D02*
X151733333Y-100030771D01*
X151733333Y-100030771D02*
X151695238Y-100126009D01*
X151695238Y-100126009D02*
X151695238Y-100221247D01*
X151695238Y-100221247D02*
X152076191Y-100316485D01*
X151352381Y-100649819D02*
X151352381Y-99983152D01*
X151352381Y-100173628D02*
X151314286Y-100078390D01*
X151314286Y-100078390D02*
X151276191Y-100030771D01*
X151276191Y-100030771D02*
X151200000Y-99983152D01*
X151200000Y-99983152D02*
X151123810Y-99983152D01*
X149790476Y-100554580D02*
X149828572Y-100602200D01*
X149828572Y-100602200D02*
X149942857Y-100649819D01*
X149942857Y-100649819D02*
X150019048Y-100649819D01*
X150019048Y-100649819D02*
X150133334Y-100602200D01*
X150133334Y-100602200D02*
X150209524Y-100506961D01*
X150209524Y-100506961D02*
X150247619Y-100411723D01*
X150247619Y-100411723D02*
X150285715Y-100221247D01*
X150285715Y-100221247D02*
X150285715Y-100078390D01*
X150285715Y-100078390D02*
X150247619Y-99887914D01*
X150247619Y-99887914D02*
X150209524Y-99792676D01*
X150209524Y-99792676D02*
X150133334Y-99697438D01*
X150133334Y-99697438D02*
X150019048Y-99649819D01*
X150019048Y-99649819D02*
X149942857Y-99649819D01*
X149942857Y-99649819D02*
X149828572Y-99697438D01*
X149828572Y-99697438D02*
X149790476Y-99745057D01*
X149333334Y-100649819D02*
X149409524Y-100602200D01*
X149409524Y-100602200D02*
X149447619Y-100554580D01*
X149447619Y-100554580D02*
X149485715Y-100459342D01*
X149485715Y-100459342D02*
X149485715Y-100173628D01*
X149485715Y-100173628D02*
X149447619Y-100078390D01*
X149447619Y-100078390D02*
X149409524Y-100030771D01*
X149409524Y-100030771D02*
X149333334Y-99983152D01*
X149333334Y-99983152D02*
X149219048Y-99983152D01*
X149219048Y-99983152D02*
X149142857Y-100030771D01*
X149142857Y-100030771D02*
X149104762Y-100078390D01*
X149104762Y-100078390D02*
X149066667Y-100173628D01*
X149066667Y-100173628D02*
X149066667Y-100459342D01*
X149066667Y-100459342D02*
X149104762Y-100554580D01*
X149104762Y-100554580D02*
X149142857Y-100602200D01*
X149142857Y-100602200D02*
X149219048Y-100649819D01*
X149219048Y-100649819D02*
X149333334Y-100649819D01*
X148723809Y-99983152D02*
X148723809Y-100649819D01*
X148723809Y-100078390D02*
X148685714Y-100030771D01*
X148685714Y-100030771D02*
X148609524Y-99983152D01*
X148609524Y-99983152D02*
X148495238Y-99983152D01*
X148495238Y-99983152D02*
X148419047Y-100030771D01*
X148419047Y-100030771D02*
X148380952Y-100126009D01*
X148380952Y-100126009D02*
X148380952Y-100649819D01*
X148114285Y-99983152D02*
X147809523Y-99983152D01*
X147999999Y-99649819D02*
X147999999Y-100506961D01*
X147999999Y-100506961D02*
X147961904Y-100602200D01*
X147961904Y-100602200D02*
X147885714Y-100649819D01*
X147885714Y-100649819D02*
X147809523Y-100649819D01*
X147542856Y-100649819D02*
X147542856Y-99983152D01*
X147542856Y-100173628D02*
X147504761Y-100078390D01*
X147504761Y-100078390D02*
X147466666Y-100030771D01*
X147466666Y-100030771D02*
X147390475Y-99983152D01*
X147390475Y-99983152D02*
X147314285Y-99983152D01*
X146933333Y-100649819D02*
X147009523Y-100602200D01*
X147009523Y-100602200D02*
X147047618Y-100554580D01*
X147047618Y-100554580D02*
X147085714Y-100459342D01*
X147085714Y-100459342D02*
X147085714Y-100173628D01*
X147085714Y-100173628D02*
X147047618Y-100078390D01*
X147047618Y-100078390D02*
X147009523Y-100030771D01*
X147009523Y-100030771D02*
X146933333Y-99983152D01*
X146933333Y-99983152D02*
X146819047Y-99983152D01*
X146819047Y-99983152D02*
X146742856Y-100030771D01*
X146742856Y-100030771D02*
X146704761Y-100078390D01*
X146704761Y-100078390D02*
X146666666Y-100173628D01*
X146666666Y-100173628D02*
X146666666Y-100459342D01*
X146666666Y-100459342D02*
X146704761Y-100554580D01*
X146704761Y-100554580D02*
X146742856Y-100602200D01*
X146742856Y-100602200D02*
X146819047Y-100649819D01*
X146819047Y-100649819D02*
X146933333Y-100649819D01*
X146209523Y-100649819D02*
X146285713Y-100602200D01*
X146285713Y-100602200D02*
X146323808Y-100506961D01*
X146323808Y-100506961D02*
X146323808Y-99649819D01*
X145790475Y-100649819D02*
X145866665Y-100602200D01*
X145866665Y-100602200D02*
X145904760Y-100506961D01*
X145904760Y-100506961D02*
X145904760Y-99649819D01*
X145180950Y-100602200D02*
X145257141Y-100649819D01*
X145257141Y-100649819D02*
X145409522Y-100649819D01*
X145409522Y-100649819D02*
X145485712Y-100602200D01*
X145485712Y-100602200D02*
X145523808Y-100506961D01*
X145523808Y-100506961D02*
X145523808Y-100126009D01*
X145523808Y-100126009D02*
X145485712Y-100030771D01*
X145485712Y-100030771D02*
X145409522Y-99983152D01*
X145409522Y-99983152D02*
X145257141Y-99983152D01*
X145257141Y-99983152D02*
X145180950Y-100030771D01*
X145180950Y-100030771D02*
X145142855Y-100126009D01*
X145142855Y-100126009D02*
X145142855Y-100221247D01*
X145142855Y-100221247D02*
X145523808Y-100316485D01*
X144799998Y-100649819D02*
X144799998Y-99983152D01*
X144799998Y-100173628D02*
X144761903Y-100078390D01*
X144761903Y-100078390D02*
X144723808Y-100030771D01*
X144723808Y-100030771D02*
X144647617Y-99983152D01*
X144647617Y-99983152D02*
X144571427Y-99983152D01*
X153371428Y-102259819D02*
X153371428Y-101593152D01*
X153371428Y-101783628D02*
X153333333Y-101688390D01*
X153333333Y-101688390D02*
X153295238Y-101640771D01*
X153295238Y-101640771D02*
X153219047Y-101593152D01*
X153219047Y-101593152D02*
X153142857Y-101593152D01*
X152952381Y-101593152D02*
X152761905Y-102259819D01*
X152761905Y-102259819D02*
X152571428Y-101593152D01*
X152304762Y-101355057D02*
X152266666Y-101307438D01*
X152266666Y-101307438D02*
X152190476Y-101259819D01*
X152190476Y-101259819D02*
X152000000Y-101259819D01*
X152000000Y-101259819D02*
X151923809Y-101307438D01*
X151923809Y-101307438D02*
X151885714Y-101355057D01*
X151885714Y-101355057D02*
X151847619Y-101450295D01*
X151847619Y-101450295D02*
X151847619Y-101545533D01*
X151847619Y-101545533D02*
X151885714Y-101688390D01*
X151885714Y-101688390D02*
X152342857Y-102259819D01*
X152342857Y-102259819D02*
X151847619Y-102259819D01*
X150933333Y-101974104D02*
X150552380Y-101974104D01*
X151009523Y-102259819D02*
X150742856Y-101259819D01*
X150742856Y-101259819D02*
X150476190Y-102259819D01*
X149866666Y-101593152D02*
X149866666Y-102259819D01*
X150209523Y-101593152D02*
X150209523Y-102116961D01*
X150209523Y-102116961D02*
X150171428Y-102212200D01*
X150171428Y-102212200D02*
X150095238Y-102259819D01*
X150095238Y-102259819D02*
X149980952Y-102259819D01*
X149980952Y-102259819D02*
X149904761Y-102212200D01*
X149904761Y-102212200D02*
X149866666Y-102164580D01*
X149142856Y-101593152D02*
X149142856Y-102402676D01*
X149142856Y-102402676D02*
X149180951Y-102497914D01*
X149180951Y-102497914D02*
X149219047Y-102545533D01*
X149219047Y-102545533D02*
X149295237Y-102593152D01*
X149295237Y-102593152D02*
X149409523Y-102593152D01*
X149409523Y-102593152D02*
X149485713Y-102545533D01*
X149142856Y-102212200D02*
X149219047Y-102259819D01*
X149219047Y-102259819D02*
X149371428Y-102259819D01*
X149371428Y-102259819D02*
X149447618Y-102212200D01*
X149447618Y-102212200D02*
X149485713Y-102164580D01*
X149485713Y-102164580D02*
X149523809Y-102069342D01*
X149523809Y-102069342D02*
X149523809Y-101783628D01*
X149523809Y-101783628D02*
X149485713Y-101688390D01*
X149485713Y-101688390D02*
X149447618Y-101640771D01*
X149447618Y-101640771D02*
X149371428Y-101593152D01*
X149371428Y-101593152D02*
X149219047Y-101593152D01*
X149219047Y-101593152D02*
X149142856Y-101640771D01*
X148114284Y-101259819D02*
X148190475Y-101450295D01*
X147809523Y-101355057D02*
X147771427Y-101307438D01*
X147771427Y-101307438D02*
X147695237Y-101259819D01*
X147695237Y-101259819D02*
X147504761Y-101259819D01*
X147504761Y-101259819D02*
X147428570Y-101307438D01*
X147428570Y-101307438D02*
X147390475Y-101355057D01*
X147390475Y-101355057D02*
X147352380Y-101450295D01*
X147352380Y-101450295D02*
X147352380Y-101545533D01*
X147352380Y-101545533D02*
X147390475Y-101688390D01*
X147390475Y-101688390D02*
X147847618Y-102259819D01*
X147847618Y-102259819D02*
X147352380Y-102259819D01*
X147085713Y-101259819D02*
X146590475Y-101259819D01*
X146590475Y-101259819D02*
X146857141Y-101640771D01*
X146857141Y-101640771D02*
X146742856Y-101640771D01*
X146742856Y-101640771D02*
X146666665Y-101688390D01*
X146666665Y-101688390D02*
X146628570Y-101736009D01*
X146628570Y-101736009D02*
X146590475Y-101831247D01*
X146590475Y-101831247D02*
X146590475Y-102069342D01*
X146590475Y-102069342D02*
X146628570Y-102164580D01*
X146628570Y-102164580D02*
X146666665Y-102212200D01*
X146666665Y-102212200D02*
X146742856Y-102259819D01*
X146742856Y-102259819D02*
X146971427Y-102259819D01*
X146971427Y-102259819D02*
X147047618Y-102212200D01*
X147047618Y-102212200D02*
X147085713Y-102164580D01*
D11*
X123641067Y-107328679D02*
X124051862Y-107200726D01*
X123883504Y-107571116D02*
X124449189Y-107005430D01*
X124449189Y-107005430D02*
X124287565Y-106843806D01*
X124287565Y-106843806D02*
X124220221Y-106830337D01*
X124220221Y-106830337D02*
X124173081Y-106837071D01*
X124173081Y-106837071D02*
X124099003Y-106870743D01*
X124099003Y-106870743D02*
X124018191Y-106951555D01*
X124018191Y-106951555D02*
X123984519Y-107025633D01*
X123984519Y-107025633D02*
X123977785Y-107072774D01*
X123977785Y-107072774D02*
X123991253Y-107140117D01*
X123991253Y-107140117D02*
X124152878Y-107301742D01*
X123459240Y-107146851D02*
X124024925Y-106581166D01*
X124024925Y-106581166D02*
X123923910Y-106480151D01*
X123923910Y-106480151D02*
X123836363Y-106446479D01*
X123836363Y-106446479D02*
X123742082Y-106459948D01*
X123742082Y-106459948D02*
X123668005Y-106493619D01*
X123668005Y-106493619D02*
X123540052Y-106581166D01*
X123540052Y-106581166D02*
X123459240Y-106661978D01*
X123459240Y-106661978D02*
X123371693Y-106789931D01*
X123371693Y-106789931D02*
X123338021Y-106864009D01*
X123338021Y-106864009D02*
X123324553Y-106958290D01*
X123324553Y-106958290D02*
X123358224Y-107045836D01*
X123358224Y-107045836D02*
X123459240Y-107146851D01*
X122812742Y-106500354D02*
X123055179Y-106742790D01*
X122933960Y-106621572D02*
X123499646Y-106055887D01*
X123499646Y-106055887D02*
X123459240Y-106177105D01*
X123459240Y-106177105D02*
X123445771Y-106271386D01*
X123445771Y-106271386D02*
X123459240Y-106338729D01*
X123115788Y-105672028D02*
X123075381Y-105631622D01*
X123075381Y-105631622D02*
X123008038Y-105618154D01*
X123008038Y-105618154D02*
X122960897Y-105624888D01*
X122960897Y-105624888D02*
X122886820Y-105658560D01*
X122886820Y-105658560D02*
X122758867Y-105746106D01*
X122758867Y-105746106D02*
X122624180Y-105880793D01*
X122624180Y-105880793D02*
X122536633Y-106008746D01*
X122536633Y-106008746D02*
X122502962Y-106082824D01*
X122502962Y-106082824D02*
X122496227Y-106129964D01*
X122496227Y-106129964D02*
X122509696Y-106197308D01*
X122509696Y-106197308D02*
X122550102Y-106237714D01*
X122550102Y-106237714D02*
X122617446Y-106251183D01*
X122617446Y-106251183D02*
X122664586Y-106244448D01*
X122664586Y-106244448D02*
X122738664Y-106210776D01*
X122738664Y-106210776D02*
X122866617Y-106123230D01*
X122866617Y-106123230D02*
X123001304Y-105988543D01*
X123001304Y-105988543D02*
X123088850Y-105860590D01*
X123088850Y-105860590D02*
X123122522Y-105786512D01*
X123122522Y-105786512D02*
X123129256Y-105739372D01*
X123129256Y-105739372D02*
X123115788Y-105672028D01*
X123364895Y-84314285D02*
X122983942Y-84114285D01*
X123364895Y-83971428D02*
X122564895Y-83971428D01*
X122564895Y-83971428D02*
X122564895Y-84199999D01*
X122564895Y-84199999D02*
X122602990Y-84257142D01*
X122602990Y-84257142D02*
X122641085Y-84285713D01*
X122641085Y-84285713D02*
X122717276Y-84314285D01*
X122717276Y-84314285D02*
X122831561Y-84314285D01*
X122831561Y-84314285D02*
X122907752Y-84285713D01*
X122907752Y-84285713D02*
X122945847Y-84257142D01*
X122945847Y-84257142D02*
X122983942Y-84199999D01*
X122983942Y-84199999D02*
X122983942Y-83971428D01*
X123364895Y-84571428D02*
X122564895Y-84571428D01*
X122564895Y-84571428D02*
X122564895Y-84714285D01*
X122564895Y-84714285D02*
X122602990Y-84799999D01*
X122602990Y-84799999D02*
X122679180Y-84857142D01*
X122679180Y-84857142D02*
X122755371Y-84885713D01*
X122755371Y-84885713D02*
X122907752Y-84914285D01*
X122907752Y-84914285D02*
X123022038Y-84914285D01*
X123022038Y-84914285D02*
X123174419Y-84885713D01*
X123174419Y-84885713D02*
X123250609Y-84857142D01*
X123250609Y-84857142D02*
X123326800Y-84799999D01*
X123326800Y-84799999D02*
X123364895Y-84714285D01*
X123364895Y-84714285D02*
X123364895Y-84571428D01*
X123364895Y-85485713D02*
X123364895Y-85142856D01*
X123364895Y-85314285D02*
X122564895Y-85314285D01*
X122564895Y-85314285D02*
X122679180Y-85257142D01*
X122679180Y-85257142D02*
X122755371Y-85199999D01*
X122755371Y-85199999D02*
X122793466Y-85142856D01*
X123364895Y-86057142D02*
X123364895Y-85714285D01*
X123364895Y-85885714D02*
X122564895Y-85885714D01*
X122564895Y-85885714D02*
X122679180Y-85828571D01*
X122679180Y-85828571D02*
X122755371Y-85771428D01*
X122755371Y-85771428D02*
X122793466Y-85714285D01*
X177364895Y-54314285D02*
X176983942Y-54114285D01*
X177364895Y-53971428D02*
X176564895Y-53971428D01*
X176564895Y-53971428D02*
X176564895Y-54199999D01*
X176564895Y-54199999D02*
X176602990Y-54257142D01*
X176602990Y-54257142D02*
X176641085Y-54285713D01*
X176641085Y-54285713D02*
X176717276Y-54314285D01*
X176717276Y-54314285D02*
X176831561Y-54314285D01*
X176831561Y-54314285D02*
X176907752Y-54285713D01*
X176907752Y-54285713D02*
X176945847Y-54257142D01*
X176945847Y-54257142D02*
X176983942Y-54199999D01*
X176983942Y-54199999D02*
X176983942Y-53971428D01*
X177364895Y-54571428D02*
X176564895Y-54571428D01*
X176564895Y-54571428D02*
X176564895Y-54714285D01*
X176564895Y-54714285D02*
X176602990Y-54799999D01*
X176602990Y-54799999D02*
X176679180Y-54857142D01*
X176679180Y-54857142D02*
X176755371Y-54885713D01*
X176755371Y-54885713D02*
X176907752Y-54914285D01*
X176907752Y-54914285D02*
X177022038Y-54914285D01*
X177022038Y-54914285D02*
X177174419Y-54885713D01*
X177174419Y-54885713D02*
X177250609Y-54857142D01*
X177250609Y-54857142D02*
X177326800Y-54799999D01*
X177326800Y-54799999D02*
X177364895Y-54714285D01*
X177364895Y-54714285D02*
X177364895Y-54571428D01*
X177364895Y-55485713D02*
X177364895Y-55142856D01*
X177364895Y-55314285D02*
X176564895Y-55314285D01*
X176564895Y-55314285D02*
X176679180Y-55257142D01*
X176679180Y-55257142D02*
X176755371Y-55199999D01*
X176755371Y-55199999D02*
X176793466Y-55142856D01*
X176564895Y-55685714D02*
X176564895Y-56085714D01*
X176564895Y-56085714D02*
X177364895Y-55828571D01*
X123364895Y-54314285D02*
X122983942Y-54114285D01*
X123364895Y-53971428D02*
X122564895Y-53971428D01*
X122564895Y-53971428D02*
X122564895Y-54199999D01*
X122564895Y-54199999D02*
X122602990Y-54257142D01*
X122602990Y-54257142D02*
X122641085Y-54285713D01*
X122641085Y-54285713D02*
X122717276Y-54314285D01*
X122717276Y-54314285D02*
X122831561Y-54314285D01*
X122831561Y-54314285D02*
X122907752Y-54285713D01*
X122907752Y-54285713D02*
X122945847Y-54257142D01*
X122945847Y-54257142D02*
X122983942Y-54199999D01*
X122983942Y-54199999D02*
X122983942Y-53971428D01*
X123364895Y-54571428D02*
X122564895Y-54571428D01*
X122564895Y-54571428D02*
X122564895Y-54714285D01*
X122564895Y-54714285D02*
X122602990Y-54799999D01*
X122602990Y-54799999D02*
X122679180Y-54857142D01*
X122679180Y-54857142D02*
X122755371Y-54885713D01*
X122755371Y-54885713D02*
X122907752Y-54914285D01*
X122907752Y-54914285D02*
X123022038Y-54914285D01*
X123022038Y-54914285D02*
X123174419Y-54885713D01*
X123174419Y-54885713D02*
X123250609Y-54857142D01*
X123250609Y-54857142D02*
X123326800Y-54799999D01*
X123326800Y-54799999D02*
X123364895Y-54714285D01*
X123364895Y-54714285D02*
X123364895Y-54571428D01*
X123364895Y-55485713D02*
X123364895Y-55142856D01*
X123364895Y-55314285D02*
X122564895Y-55314285D01*
X122564895Y-55314285D02*
X122679180Y-55257142D01*
X122679180Y-55257142D02*
X122755371Y-55199999D01*
X122755371Y-55199999D02*
X122793466Y-55142856D01*
X122641085Y-55714285D02*
X122602990Y-55742857D01*
X122602990Y-55742857D02*
X122564895Y-55800000D01*
X122564895Y-55800000D02*
X122564895Y-55942857D01*
X122564895Y-55942857D02*
X122602990Y-56000000D01*
X122602990Y-56000000D02*
X122641085Y-56028571D01*
X122641085Y-56028571D02*
X122717276Y-56057142D01*
X122717276Y-56057142D02*
X122793466Y-56057142D01*
X122793466Y-56057142D02*
X122907752Y-56028571D01*
X122907752Y-56028571D02*
X123364895Y-55685714D01*
X123364895Y-55685714D02*
X123364895Y-56057142D01*
X177328679Y-106358932D02*
X177200726Y-105948137D01*
X177571116Y-106116495D02*
X177005430Y-105550810D01*
X177005430Y-105550810D02*
X176843806Y-105712434D01*
X176843806Y-105712434D02*
X176830337Y-105779778D01*
X176830337Y-105779778D02*
X176837071Y-105826918D01*
X176837071Y-105826918D02*
X176870743Y-105900996D01*
X176870743Y-105900996D02*
X176951555Y-105981808D01*
X176951555Y-105981808D02*
X177025633Y-106015480D01*
X177025633Y-106015480D02*
X177072774Y-106022214D01*
X177072774Y-106022214D02*
X177140117Y-106008746D01*
X177140117Y-106008746D02*
X177301742Y-105847121D01*
X177146851Y-106540759D02*
X176581166Y-105975074D01*
X176581166Y-105975074D02*
X176480151Y-106076089D01*
X176480151Y-106076089D02*
X176446479Y-106163636D01*
X176446479Y-106163636D02*
X176459948Y-106257917D01*
X176459948Y-106257917D02*
X176493619Y-106331994D01*
X176493619Y-106331994D02*
X176581166Y-106459947D01*
X176581166Y-106459947D02*
X176661978Y-106540759D01*
X176661978Y-106540759D02*
X176789931Y-106628306D01*
X176789931Y-106628306D02*
X176864009Y-106661978D01*
X176864009Y-106661978D02*
X176958290Y-106675446D01*
X176958290Y-106675446D02*
X177045836Y-106641775D01*
X177045836Y-106641775D02*
X177146851Y-106540759D01*
X176500354Y-107187257D02*
X176742790Y-106944820D01*
X176621572Y-107066039D02*
X176055887Y-106500353D01*
X176055887Y-106500353D02*
X176177105Y-106540759D01*
X176177105Y-106540759D02*
X176271386Y-106554228D01*
X176271386Y-106554228D02*
X176338729Y-106540759D01*
X176298323Y-107389288D02*
X176217511Y-107470100D01*
X176217511Y-107470100D02*
X176150167Y-107483569D01*
X176150167Y-107483569D02*
X176103027Y-107476834D01*
X176103027Y-107476834D02*
X175981809Y-107436428D01*
X175981809Y-107436428D02*
X175853856Y-107348882D01*
X175853856Y-107348882D02*
X175638357Y-107133382D01*
X175638357Y-107133382D02*
X175604685Y-107059305D01*
X175604685Y-107059305D02*
X175597951Y-107012164D01*
X175597951Y-107012164D02*
X175611419Y-106944821D01*
X175611419Y-106944821D02*
X175692231Y-106864008D01*
X175692231Y-106864008D02*
X175759575Y-106850540D01*
X175759575Y-106850540D02*
X175806715Y-106857274D01*
X175806715Y-106857274D02*
X175880793Y-106890946D01*
X175880793Y-106890946D02*
X176015480Y-107025633D01*
X176015480Y-107025633D02*
X176049152Y-107099711D01*
X176049152Y-107099711D02*
X176055886Y-107146851D01*
X176055886Y-107146851D02*
X176042418Y-107214195D01*
X176042418Y-107214195D02*
X175961606Y-107295007D01*
X175961606Y-107295007D02*
X175894262Y-107308476D01*
X175894262Y-107308476D02*
X175847122Y-107301741D01*
X175847122Y-107301741D02*
X175773044Y-107268069D01*
X124157107Y-33187360D02*
X124029154Y-32776565D01*
X124399544Y-32944923D02*
X123833858Y-32379238D01*
X123833858Y-32379238D02*
X123672234Y-32540862D01*
X123672234Y-32540862D02*
X123658765Y-32608206D01*
X123658765Y-32608206D02*
X123665499Y-32655346D01*
X123665499Y-32655346D02*
X123699171Y-32729424D01*
X123699171Y-32729424D02*
X123779983Y-32810236D01*
X123779983Y-32810236D02*
X123854061Y-32843908D01*
X123854061Y-32843908D02*
X123901202Y-32850642D01*
X123901202Y-32850642D02*
X123968545Y-32837174D01*
X123968545Y-32837174D02*
X124130170Y-32675549D01*
X123975279Y-33369187D02*
X123409594Y-32803502D01*
X123409594Y-32803502D02*
X123308579Y-32904517D01*
X123308579Y-32904517D02*
X123274907Y-32992064D01*
X123274907Y-32992064D02*
X123288376Y-33086345D01*
X123288376Y-33086345D02*
X123322047Y-33160422D01*
X123322047Y-33160422D02*
X123409594Y-33288375D01*
X123409594Y-33288375D02*
X123490406Y-33369187D01*
X123490406Y-33369187D02*
X123618359Y-33456734D01*
X123618359Y-33456734D02*
X123692437Y-33490406D01*
X123692437Y-33490406D02*
X123786718Y-33503874D01*
X123786718Y-33503874D02*
X123874264Y-33470203D01*
X123874264Y-33470203D02*
X123975279Y-33369187D01*
X123328782Y-34015685D02*
X123571218Y-33773248D01*
X123450000Y-33894467D02*
X122884315Y-33328781D01*
X122884315Y-33328781D02*
X123005533Y-33369187D01*
X123005533Y-33369187D02*
X123099814Y-33382656D01*
X123099814Y-33382656D02*
X123167157Y-33369187D01*
X122621675Y-33591421D02*
X122359035Y-33854061D01*
X122359035Y-33854061D02*
X122715956Y-33928139D01*
X122715956Y-33928139D02*
X122655347Y-33988748D01*
X122655347Y-33988748D02*
X122641878Y-34056091D01*
X122641878Y-34056091D02*
X122648612Y-34103232D01*
X122648612Y-34103232D02*
X122682284Y-34177310D01*
X122682284Y-34177310D02*
X122816971Y-34311997D01*
X122816971Y-34311997D02*
X122891049Y-34345668D01*
X122891049Y-34345668D02*
X122938189Y-34352403D01*
X122938189Y-34352403D02*
X123005533Y-34338934D01*
X123005533Y-34338934D02*
X123126751Y-34217716D01*
X123126751Y-34217716D02*
X123140220Y-34150372D01*
X123140220Y-34150372D02*
X123133485Y-34103232D01*
X138685714Y-33364895D02*
X138885714Y-32983942D01*
X139028571Y-33364895D02*
X139028571Y-32564895D01*
X139028571Y-32564895D02*
X138800000Y-32564895D01*
X138800000Y-32564895D02*
X138742857Y-32602990D01*
X138742857Y-32602990D02*
X138714286Y-32641085D01*
X138714286Y-32641085D02*
X138685714Y-32717276D01*
X138685714Y-32717276D02*
X138685714Y-32831561D01*
X138685714Y-32831561D02*
X138714286Y-32907752D01*
X138714286Y-32907752D02*
X138742857Y-32945847D01*
X138742857Y-32945847D02*
X138800000Y-32983942D01*
X138800000Y-32983942D02*
X139028571Y-32983942D01*
X138428571Y-33364895D02*
X138428571Y-32564895D01*
X138428571Y-32564895D02*
X138285714Y-32564895D01*
X138285714Y-32564895D02*
X138200000Y-32602990D01*
X138200000Y-32602990D02*
X138142857Y-32679180D01*
X138142857Y-32679180D02*
X138114286Y-32755371D01*
X138114286Y-32755371D02*
X138085714Y-32907752D01*
X138085714Y-32907752D02*
X138085714Y-33022038D01*
X138085714Y-33022038D02*
X138114286Y-33174419D01*
X138114286Y-33174419D02*
X138142857Y-33250609D01*
X138142857Y-33250609D02*
X138200000Y-33326800D01*
X138200000Y-33326800D02*
X138285714Y-33364895D01*
X138285714Y-33364895D02*
X138428571Y-33364895D01*
X137514286Y-33364895D02*
X137857143Y-33364895D01*
X137685714Y-33364895D02*
X137685714Y-32564895D01*
X137685714Y-32564895D02*
X137742857Y-32679180D01*
X137742857Y-32679180D02*
X137800000Y-32755371D01*
X137800000Y-32755371D02*
X137857143Y-32793466D01*
X137000000Y-32831561D02*
X137000000Y-33364895D01*
X137142857Y-32526800D02*
X137285714Y-33098228D01*
X137285714Y-33098228D02*
X136914285Y-33098228D01*
X162685714Y-33364895D02*
X162885714Y-32983942D01*
X163028571Y-33364895D02*
X163028571Y-32564895D01*
X163028571Y-32564895D02*
X162800000Y-32564895D01*
X162800000Y-32564895D02*
X162742857Y-32602990D01*
X162742857Y-32602990D02*
X162714286Y-32641085D01*
X162714286Y-32641085D02*
X162685714Y-32717276D01*
X162685714Y-32717276D02*
X162685714Y-32831561D01*
X162685714Y-32831561D02*
X162714286Y-32907752D01*
X162714286Y-32907752D02*
X162742857Y-32945847D01*
X162742857Y-32945847D02*
X162800000Y-32983942D01*
X162800000Y-32983942D02*
X163028571Y-32983942D01*
X162428571Y-33364895D02*
X162428571Y-32564895D01*
X162428571Y-32564895D02*
X162285714Y-32564895D01*
X162285714Y-32564895D02*
X162200000Y-32602990D01*
X162200000Y-32602990D02*
X162142857Y-32679180D01*
X162142857Y-32679180D02*
X162114286Y-32755371D01*
X162114286Y-32755371D02*
X162085714Y-32907752D01*
X162085714Y-32907752D02*
X162085714Y-33022038D01*
X162085714Y-33022038D02*
X162114286Y-33174419D01*
X162114286Y-33174419D02*
X162142857Y-33250609D01*
X162142857Y-33250609D02*
X162200000Y-33326800D01*
X162200000Y-33326800D02*
X162285714Y-33364895D01*
X162285714Y-33364895D02*
X162428571Y-33364895D01*
X161514286Y-33364895D02*
X161857143Y-33364895D01*
X161685714Y-33364895D02*
X161685714Y-32564895D01*
X161685714Y-32564895D02*
X161742857Y-32679180D01*
X161742857Y-32679180D02*
X161800000Y-32755371D01*
X161800000Y-32755371D02*
X161857143Y-32793466D01*
X160971428Y-32564895D02*
X161257142Y-32564895D01*
X161257142Y-32564895D02*
X161285714Y-32945847D01*
X161285714Y-32945847D02*
X161257142Y-32907752D01*
X161257142Y-32907752D02*
X161200000Y-32869657D01*
X161200000Y-32869657D02*
X161057142Y-32869657D01*
X161057142Y-32869657D02*
X161000000Y-32907752D01*
X161000000Y-32907752D02*
X160971428Y-32945847D01*
X160971428Y-32945847D02*
X160942857Y-33022038D01*
X160942857Y-33022038D02*
X160942857Y-33212514D01*
X160942857Y-33212514D02*
X160971428Y-33288704D01*
X160971428Y-33288704D02*
X161000000Y-33326800D01*
X161000000Y-33326800D02*
X161057142Y-33364895D01*
X161057142Y-33364895D02*
X161200000Y-33364895D01*
X161200000Y-33364895D02*
X161257142Y-33326800D01*
X161257142Y-33326800D02*
X161285714Y-33288704D01*
X176812639Y-34157107D02*
X177223434Y-34029154D01*
X177055076Y-34399544D02*
X177620761Y-33833858D01*
X177620761Y-33833858D02*
X177459137Y-33672234D01*
X177459137Y-33672234D02*
X177391793Y-33658765D01*
X177391793Y-33658765D02*
X177344653Y-33665499D01*
X177344653Y-33665499D02*
X177270575Y-33699171D01*
X177270575Y-33699171D02*
X177189763Y-33779983D01*
X177189763Y-33779983D02*
X177156091Y-33854061D01*
X177156091Y-33854061D02*
X177149357Y-33901202D01*
X177149357Y-33901202D02*
X177162825Y-33968545D01*
X177162825Y-33968545D02*
X177324450Y-34130170D01*
X176630812Y-33975279D02*
X177196497Y-33409594D01*
X177196497Y-33409594D02*
X177095482Y-33308579D01*
X177095482Y-33308579D02*
X177007935Y-33274907D01*
X177007935Y-33274907D02*
X176913654Y-33288376D01*
X176913654Y-33288376D02*
X176839577Y-33322047D01*
X176839577Y-33322047D02*
X176711624Y-33409594D01*
X176711624Y-33409594D02*
X176630812Y-33490406D01*
X176630812Y-33490406D02*
X176543265Y-33618359D01*
X176543265Y-33618359D02*
X176509593Y-33692437D01*
X176509593Y-33692437D02*
X176496125Y-33786718D01*
X176496125Y-33786718D02*
X176529796Y-33874264D01*
X176529796Y-33874264D02*
X176630812Y-33975279D01*
X175984314Y-33328782D02*
X176226751Y-33571218D01*
X176105532Y-33450000D02*
X176671218Y-32884315D01*
X176671218Y-32884315D02*
X176630812Y-33005533D01*
X176630812Y-33005533D02*
X176617343Y-33099814D01*
X176617343Y-33099814D02*
X176630812Y-33167157D01*
X176186344Y-32399441D02*
X176267156Y-32480253D01*
X176267156Y-32480253D02*
X176280625Y-32547597D01*
X176280625Y-32547597D02*
X176273891Y-32594737D01*
X176273891Y-32594737D02*
X176233485Y-32715956D01*
X176233485Y-32715956D02*
X176145938Y-32843908D01*
X176145938Y-32843908D02*
X175930439Y-33059408D01*
X175930439Y-33059408D02*
X175856361Y-33093079D01*
X175856361Y-33093079D02*
X175809221Y-33099814D01*
X175809221Y-33099814D02*
X175741877Y-33086345D01*
X175741877Y-33086345D02*
X175661065Y-33005533D01*
X175661065Y-33005533D02*
X175647596Y-32938189D01*
X175647596Y-32938189D02*
X175654331Y-32891049D01*
X175654331Y-32891049D02*
X175688002Y-32816971D01*
X175688002Y-32816971D02*
X175822689Y-32682284D01*
X175822689Y-32682284D02*
X175896767Y-32648612D01*
X175896767Y-32648612D02*
X175943908Y-32641878D01*
X175943908Y-32641878D02*
X176011251Y-32655347D01*
X176011251Y-32655347D02*
X176092063Y-32736159D01*
X176092063Y-32736159D02*
X176105532Y-32803502D01*
X176105532Y-32803502D02*
X176098798Y-32850643D01*
X176098798Y-32850643D02*
X176065126Y-32924721D01*
X177364895Y-84314285D02*
X176983942Y-84114285D01*
X177364895Y-83971428D02*
X176564895Y-83971428D01*
X176564895Y-83971428D02*
X176564895Y-84199999D01*
X176564895Y-84199999D02*
X176602990Y-84257142D01*
X176602990Y-84257142D02*
X176641085Y-84285713D01*
X176641085Y-84285713D02*
X176717276Y-84314285D01*
X176717276Y-84314285D02*
X176831561Y-84314285D01*
X176831561Y-84314285D02*
X176907752Y-84285713D01*
X176907752Y-84285713D02*
X176945847Y-84257142D01*
X176945847Y-84257142D02*
X176983942Y-84199999D01*
X176983942Y-84199999D02*
X176983942Y-83971428D01*
X177364895Y-84571428D02*
X176564895Y-84571428D01*
X176564895Y-84571428D02*
X176564895Y-84714285D01*
X176564895Y-84714285D02*
X176602990Y-84799999D01*
X176602990Y-84799999D02*
X176679180Y-84857142D01*
X176679180Y-84857142D02*
X176755371Y-84885713D01*
X176755371Y-84885713D02*
X176907752Y-84914285D01*
X176907752Y-84914285D02*
X177022038Y-84914285D01*
X177022038Y-84914285D02*
X177174419Y-84885713D01*
X177174419Y-84885713D02*
X177250609Y-84857142D01*
X177250609Y-84857142D02*
X177326800Y-84799999D01*
X177326800Y-84799999D02*
X177364895Y-84714285D01*
X177364895Y-84714285D02*
X177364895Y-84571428D01*
X177364895Y-85485713D02*
X177364895Y-85142856D01*
X177364895Y-85314285D02*
X176564895Y-85314285D01*
X176564895Y-85314285D02*
X176679180Y-85257142D01*
X176679180Y-85257142D02*
X176755371Y-85199999D01*
X176755371Y-85199999D02*
X176793466Y-85142856D01*
X176907752Y-85828571D02*
X176869657Y-85771428D01*
X176869657Y-85771428D02*
X176831561Y-85742857D01*
X176831561Y-85742857D02*
X176755371Y-85714285D01*
X176755371Y-85714285D02*
X176717276Y-85714285D01*
X176717276Y-85714285D02*
X176641085Y-85742857D01*
X176641085Y-85742857D02*
X176602990Y-85771428D01*
X176602990Y-85771428D02*
X176564895Y-85828571D01*
X176564895Y-85828571D02*
X176564895Y-85942857D01*
X176564895Y-85942857D02*
X176602990Y-86000000D01*
X176602990Y-86000000D02*
X176641085Y-86028571D01*
X176641085Y-86028571D02*
X176717276Y-86057142D01*
X176717276Y-86057142D02*
X176755371Y-86057142D01*
X176755371Y-86057142D02*
X176831561Y-86028571D01*
X176831561Y-86028571D02*
X176869657Y-86000000D01*
X176869657Y-86000000D02*
X176907752Y-85942857D01*
X176907752Y-85942857D02*
X176907752Y-85828571D01*
X176907752Y-85828571D02*
X176945847Y-85771428D01*
X176945847Y-85771428D02*
X176983942Y-85742857D01*
X176983942Y-85742857D02*
X177060133Y-85714285D01*
X177060133Y-85714285D02*
X177212514Y-85714285D01*
X177212514Y-85714285D02*
X177288704Y-85742857D01*
X177288704Y-85742857D02*
X177326800Y-85771428D01*
X177326800Y-85771428D02*
X177364895Y-85828571D01*
X177364895Y-85828571D02*
X177364895Y-85942857D01*
X177364895Y-85942857D02*
X177326800Y-86000000D01*
X177326800Y-86000000D02*
X177288704Y-86028571D01*
X177288704Y-86028571D02*
X177212514Y-86057142D01*
X177212514Y-86057142D02*
X177060133Y-86057142D01*
X177060133Y-86057142D02*
X176983942Y-86028571D01*
X176983942Y-86028571D02*
X176945847Y-86000000D01*
X176945847Y-86000000D02*
X176907752Y-85942857D01*
X89985714Y-108054152D02*
X89785714Y-108054152D01*
X89785714Y-107635104D02*
X89785714Y-108435104D01*
X89785714Y-108435104D02*
X90071428Y-108435104D01*
X90300000Y-108435104D02*
X90300000Y-107787485D01*
X90300000Y-107787485D02*
X90328571Y-107711295D01*
X90328571Y-107711295D02*
X90357143Y-107673200D01*
X90357143Y-107673200D02*
X90414285Y-107635104D01*
X90414285Y-107635104D02*
X90528571Y-107635104D01*
X90528571Y-107635104D02*
X90585714Y-107673200D01*
X90585714Y-107673200D02*
X90614285Y-107711295D01*
X90614285Y-107711295D02*
X90642857Y-107787485D01*
X90642857Y-107787485D02*
X90642857Y-108435104D01*
X91185714Y-108168438D02*
X91185714Y-107635104D01*
X91042856Y-108473200D02*
X90899999Y-107901771D01*
X90899999Y-107901771D02*
X91271428Y-107901771D01*
X122848528Y-110121320D02*
X123555635Y-109414214D01*
X122848528Y-110121320D02*
X119878680Y-107151472D01*
X120302944Y-107575736D02*
X120302944Y-106727208D01*
X119878680Y-107151472D02*
X120585786Y-106444365D01*
X120100000Y-87100000D02*
X121100000Y-87100000D01*
X120100000Y-87100000D02*
X120100000Y-82900000D01*
X120100000Y-83500000D02*
X120700000Y-82900000D01*
X120100000Y-82900000D02*
X121100000Y-82900000D01*
X179900000Y-52900000D02*
X178900000Y-52900000D01*
X179900000Y-52900000D02*
X179900000Y-57100000D01*
X179900000Y-56500000D02*
X179300000Y-57100000D01*
X179900000Y-57100000D02*
X178900000Y-57100000D01*
X120100000Y-57100000D02*
X121100000Y-57100000D01*
X120100000Y-57100000D02*
X120100000Y-52900000D01*
X120100000Y-53500000D02*
X120700000Y-52900000D01*
X120100000Y-52900000D02*
X121100000Y-52900000D01*
X180121320Y-107151472D02*
X179414214Y-106444365D01*
X180121320Y-107151472D02*
X177151472Y-110121320D01*
X177575736Y-109697056D02*
X176727208Y-109697056D01*
X177151472Y-110121320D02*
X176444365Y-109414214D01*
X119878680Y-32848528D02*
X120585786Y-33555635D01*
X119878680Y-32848528D02*
X122848528Y-29878680D01*
X122424264Y-30302944D02*
X123272792Y-30302944D01*
X122848528Y-29878680D02*
X123555635Y-30585786D01*
X135900000Y-30100000D02*
X135900000Y-31100000D01*
X135900000Y-30100000D02*
X140100000Y-30100000D01*
X139500000Y-30100000D02*
X140100000Y-30700000D01*
X140100000Y-30100000D02*
X140100000Y-31100000D01*
X159900000Y-30100000D02*
X159900000Y-31100000D01*
X159900000Y-30100000D02*
X164100000Y-30100000D01*
X163500000Y-30100000D02*
X164100000Y-30700000D01*
X164100000Y-30100000D02*
X164100000Y-31100000D01*
X177151472Y-29878680D02*
X176444365Y-30585786D01*
X177151472Y-29878680D02*
X180121320Y-32848528D01*
X179697056Y-32424264D02*
X179697056Y-33272792D01*
X180121320Y-32848528D02*
X179414214Y-33555635D01*
X179900000Y-82900000D02*
X178900000Y-82900000D01*
X179900000Y-82900000D02*
X179900000Y-87100000D01*
X179900000Y-86500000D02*
X179300000Y-87100000D01*
X179900000Y-87100000D02*
X178900000Y-87100000D01*
G36*
X152059830Y-105439436D02*
G01*
X152116312Y-105648179D01*
X152003676Y-105723743D01*
X151861961Y-105758044D01*
X151744696Y-105681220D01*
X151650810Y-105571905D01*
X151761178Y-105400956D01*
X151940302Y-105267220D01*
X152059830Y-105439436D01*
G37*
G36*
X151724398Y-104948170D02*
G01*
X151840169Y-105118686D01*
X151878704Y-105245620D01*
X151740839Y-105305872D01*
X151575260Y-105334607D01*
X151567384Y-105226089D01*
X151623200Y-105033652D01*
X151704347Y-104936388D01*
X151724398Y-104948170D01*
G37*
G36*
X152325292Y-105053075D02*
G01*
X152360390Y-105175574D01*
X152338439Y-105365194D01*
X152272272Y-105472480D01*
X152113646Y-105390326D01*
X152020504Y-105266188D01*
X152136123Y-105140215D01*
X152310615Y-105048631D01*
X152310615Y-105048630D01*
X152325292Y-105053075D01*
G37*
G36*
X154745092Y-108157589D02*
G01*
X154745092Y-108548883D01*
X154745092Y-108937800D01*
X154487433Y-108937800D01*
X154229671Y-108937800D01*
X154229566Y-108839718D01*
X154229671Y-108741637D01*
X154388318Y-108741637D01*
X154546964Y-108741637D01*
X154546964Y-108486665D01*
X154546391Y-108235109D01*
X154543451Y-108157486D01*
X154543451Y-108157484D01*
X154745092Y-108157589D01*
G37*
G36*
X154150813Y-108547847D02*
G01*
X154150813Y-108938004D01*
X153879925Y-108938004D01*
X153609037Y-108938004D01*
X153609037Y-108843953D01*
X153609037Y-108750005D01*
X153779880Y-108750005D01*
X153950722Y-108750005D01*
X153950722Y-108692335D01*
X153950722Y-108634767D01*
X153794039Y-108634767D01*
X153637356Y-108634767D01*
X153637356Y-108549914D01*
X153637356Y-108464958D01*
X153794039Y-108464958D01*
X153950722Y-108464958D01*
X153950722Y-108404290D01*
X153950722Y-108343622D01*
X153779880Y-108343728D01*
X153609037Y-108343728D01*
X153609656Y-108251227D01*
X153610275Y-108158726D01*
X153880647Y-108158196D01*
X154150813Y-108157484D01*
X154150813Y-108547847D01*
G37*
G36*
X152664690Y-108434159D02*
G01*
X152664071Y-108710525D01*
X152659626Y-108732745D01*
X152646500Y-108778220D01*
X152638439Y-108796411D01*
X152558443Y-108889635D01*
X152435970Y-108942242D01*
X152406411Y-108946999D01*
X152283628Y-108944210D01*
X152086948Y-108825561D01*
X152054702Y-108761276D01*
X152049121Y-108738331D01*
X152043539Y-108718591D01*
X152043539Y-108438608D01*
X152043539Y-108158728D01*
X152143171Y-108158199D01*
X152242700Y-108157580D01*
X152242700Y-108423507D01*
X152243247Y-108657037D01*
X152246939Y-108701836D01*
X152271434Y-108740697D01*
X152395354Y-108763124D01*
X152462843Y-108692121D01*
X152464507Y-108619202D01*
X152465119Y-108418959D01*
X152465013Y-108157580D01*
X152565162Y-108157580D01*
X152665219Y-108157484D01*
X152664690Y-108434159D01*
G37*
G36*
X153507028Y-108158526D02*
G01*
X153507854Y-108548373D01*
X153508473Y-108938013D01*
X153409461Y-108938013D01*
X153310345Y-108938013D01*
X153310345Y-108811716D01*
X153315304Y-108630228D01*
X153321298Y-108565529D01*
X153319853Y-108555918D01*
X153310242Y-108573591D01*
X153301250Y-108597362D01*
X153274792Y-108664335D01*
X153249470Y-108728827D01*
X153237378Y-108760039D01*
X153222702Y-108798487D01*
X153213710Y-108821741D01*
X153144774Y-108822360D01*
X153075941Y-108822980D01*
X153073565Y-108814298D01*
X153067778Y-108797658D01*
X153060026Y-108778434D01*
X153046590Y-108743811D01*
X153037392Y-108718387D01*
X153029227Y-108697406D01*
X153018892Y-108670327D01*
X153012897Y-108654204D01*
X152983545Y-108577930D01*
X152971453Y-108556122D01*
X152969384Y-108564701D01*
X152976619Y-108647073D01*
X152982200Y-108828974D01*
X152981581Y-108937081D01*
X152882569Y-108937081D01*
X152783556Y-108937081D01*
X152783556Y-108547957D01*
X152783556Y-108158834D01*
X152882259Y-108158834D01*
X152981064Y-108158834D01*
X152991089Y-108181055D01*
X153006282Y-108216402D01*
X153013103Y-108231594D01*
X153020752Y-108248854D01*
X153043592Y-108302391D01*
X153074702Y-108374325D01*
X153084520Y-108396752D01*
X153094545Y-108419800D01*
X153124621Y-108488426D01*
X153131752Y-108505583D01*
X153140641Y-108526460D01*
X153145599Y-108536279D01*
X153156141Y-108513128D01*
X153166580Y-108488736D01*
X153174641Y-108470133D01*
X153182702Y-108451012D01*
X153190661Y-108432202D01*
X153201616Y-108407294D01*
X153232209Y-108336601D01*
X153240064Y-108318514D01*
X153259597Y-108272005D01*
X153268072Y-108252782D01*
X153280681Y-108224463D01*
X153292980Y-108195111D01*
X153302902Y-108172373D01*
X153308067Y-108159764D01*
X153407596Y-108158213D01*
X153407396Y-108158103D01*
X153507028Y-108158526D01*
G37*
G36*
X152436709Y-103072411D02*
G01*
X152563520Y-103130504D01*
X152665326Y-103255167D01*
X152630286Y-103407593D01*
X152457468Y-103470567D01*
X152274132Y-103429607D01*
X152112178Y-103519834D01*
X152128094Y-103710830D01*
X152302655Y-103846353D01*
X152498391Y-103932468D01*
X152688680Y-104011173D01*
X152904951Y-104124097D01*
X153113097Y-104251389D01*
X153312394Y-104392266D01*
X153502119Y-104545943D01*
X153681548Y-104711635D01*
X153849959Y-104888558D01*
X154006628Y-105075927D01*
X154150830Y-105272958D01*
X154281843Y-105478865D01*
X154398944Y-105692864D01*
X154501408Y-105914170D01*
X154588513Y-106141999D01*
X154650712Y-106365238D01*
X154698858Y-106598415D01*
X154730880Y-106833888D01*
X154744707Y-107064015D01*
X154738271Y-107281155D01*
X154696959Y-107495671D01*
X154619779Y-107678645D01*
X154507587Y-107828821D01*
X154361612Y-107944676D01*
X154183637Y-108025365D01*
X153975320Y-108070667D01*
X153965811Y-108070349D01*
X153687576Y-108114208D01*
X153436126Y-108131143D01*
X153210302Y-108125230D01*
X152904379Y-108101829D01*
X152896833Y-108101252D01*
X152269481Y-108023841D01*
X152259650Y-107967519D01*
X152290774Y-107967519D01*
X152293150Y-107973203D01*
X152904379Y-108048651D01*
X152815720Y-107940639D01*
X152809812Y-107901993D01*
X152794679Y-107890400D01*
X152678346Y-107863546D01*
X152564554Y-107844013D01*
X152564554Y-107844119D01*
X152474637Y-107837814D01*
X152474636Y-107837813D01*
X152414071Y-107840602D01*
X152358571Y-107873158D01*
X152295732Y-107942818D01*
X152290774Y-107967519D01*
X152259650Y-107967519D01*
X152251188Y-107919041D01*
X152401979Y-107794708D01*
X152529733Y-107792885D01*
X152687750Y-107818169D01*
X152901587Y-107801942D01*
X153041837Y-107751299D01*
X152952230Y-107681123D01*
X152747613Y-107545247D01*
X152586774Y-107410648D01*
X152528483Y-107350393D01*
X152503678Y-107386153D01*
X152413968Y-107524853D01*
X152265485Y-107751691D01*
X152153614Y-107900681D01*
X152068563Y-107984773D01*
X151873123Y-108158613D01*
X151926350Y-108158825D01*
X151926667Y-108545881D01*
X151926786Y-108820015D01*
X151926350Y-108935521D01*
X151926350Y-108935627D01*
X151826304Y-108938109D01*
X151727188Y-108938109D01*
X151726569Y-108814292D01*
X151725950Y-108690475D01*
X151709827Y-108690052D01*
X151693600Y-108689628D01*
X151685435Y-108700170D01*
X151658976Y-108736531D01*
X151654223Y-108743062D01*
X151628901Y-108777685D01*
X151613605Y-108798665D01*
X151587457Y-108834735D01*
X151554074Y-108880108D01*
X151523068Y-108922999D01*
X151512113Y-108938089D01*
X151388916Y-108938089D01*
X151265720Y-108938089D01*
X151279466Y-108920415D01*
X151308404Y-108883828D01*
X151326594Y-108860574D01*
X151335896Y-108849205D01*
X151366385Y-108810758D01*
X151395531Y-108774068D01*
X151408140Y-108758875D01*
X151440076Y-108717844D01*
X151465914Y-108685494D01*
X151476250Y-108671025D01*
X151472942Y-108669167D01*
X151464869Y-108665015D01*
X151418682Y-108641262D01*
X151342924Y-108535738D01*
X151326697Y-108422257D01*
X151329607Y-108401398D01*
X151524824Y-108401398D01*
X151540636Y-108489454D01*
X151581564Y-108515913D01*
X151658976Y-108520871D01*
X151726155Y-108519114D01*
X151726684Y-108429404D01*
X151726155Y-108342485D01*
X151660423Y-108342485D01*
X151583528Y-108346104D01*
X151524824Y-108401398D01*
X151329607Y-108401398D01*
X151340754Y-108321488D01*
X151348919Y-108300921D01*
X151343544Y-108284178D01*
X151345049Y-108265797D01*
X151395943Y-108265797D01*
X151464869Y-108316610D01*
X151502125Y-108268524D01*
X151588686Y-108191919D01*
X151805530Y-108157174D01*
X151925811Y-108031583D01*
X152042828Y-107940442D01*
X151804053Y-107929827D01*
X151700317Y-107822723D01*
X151579601Y-107894244D01*
X151498469Y-107931244D01*
X151470563Y-107964213D01*
X151405761Y-108187869D01*
X151395943Y-108265797D01*
X151345049Y-108265797D01*
X151350366Y-108200875D01*
X151382953Y-108055658D01*
X151422816Y-107945387D01*
X151467981Y-107892884D01*
X151558725Y-107850923D01*
X151660114Y-107792941D01*
X151724089Y-107660443D01*
X151805428Y-107461075D01*
X151889128Y-107257063D01*
X151969863Y-107043323D01*
X152007793Y-106885814D01*
X152021849Y-106800340D01*
X151917633Y-106671887D01*
X151859307Y-106599997D01*
X151734220Y-106401163D01*
X151646261Y-106201276D01*
X151595106Y-105997777D01*
X151580429Y-105788103D01*
X151471147Y-105651507D01*
X151385542Y-105498056D01*
X151331545Y-105301734D01*
X151317086Y-105036521D01*
X151273574Y-104917665D01*
X151265659Y-104867348D01*
X151324216Y-104867348D01*
X151332071Y-104903418D01*
X151372171Y-105016073D01*
X151376923Y-105033230D01*
X151389221Y-105293038D01*
X151439721Y-105478891D01*
X151522642Y-105622704D01*
X151632205Y-105756390D01*
X151637579Y-105765485D01*
X151640162Y-105769104D01*
X151750695Y-106046567D01*
X151829710Y-106236861D01*
X151883318Y-106351144D01*
X151917633Y-106400573D01*
X151938765Y-106396305D01*
X151952829Y-106349497D01*
X151965934Y-106271306D01*
X151984195Y-106172890D01*
X152013722Y-106065405D01*
X152060629Y-105960009D01*
X152131028Y-105867858D01*
X152231030Y-105800110D01*
X152333866Y-105721355D01*
X152479990Y-105530147D01*
X152571164Y-105288410D01*
X152577676Y-105276525D01*
X152667903Y-105162319D01*
X152585737Y-105257714D01*
X152562576Y-105073509D01*
X152477216Y-104948896D01*
X152590476Y-104804576D01*
X152745520Y-104703639D01*
X152587705Y-104725663D01*
X152383682Y-104830247D01*
X152355570Y-104833453D01*
X152421131Y-104926465D01*
X152333347Y-104929653D01*
X152192479Y-104869110D01*
X152008526Y-104805955D01*
X151874773Y-104797900D01*
X151727753Y-104762675D01*
X151751679Y-104703229D01*
X151775554Y-104696614D01*
X151756847Y-104682662D01*
X151569055Y-104514300D01*
X151379518Y-104437306D01*
X151533108Y-104604026D01*
X151608436Y-104731439D01*
X151454753Y-104855491D01*
X151376719Y-105002121D01*
X151324216Y-104867348D01*
X151265659Y-104867348D01*
X151244325Y-104731733D01*
X151242318Y-104539548D01*
X151287424Y-104387155D01*
X151307164Y-104374132D01*
X151360391Y-104371137D01*
X151600686Y-104463844D01*
X151794473Y-104636857D01*
X151970789Y-104625436D01*
X152146090Y-104655954D01*
X152366324Y-104771526D01*
X152642698Y-104651975D01*
X152844331Y-104657631D01*
X152865105Y-104678612D01*
X152865169Y-104891595D01*
X152774497Y-105109003D01*
X152626463Y-105310821D01*
X152557059Y-105498174D01*
X152460479Y-105660567D01*
X152465644Y-105659017D01*
X152660399Y-105618496D01*
X152871377Y-105623452D01*
X153093059Y-105670724D01*
X153319931Y-105757150D01*
X153546477Y-105879569D01*
X153767182Y-106034819D01*
X153976528Y-106219739D01*
X154169002Y-106431166D01*
X154277771Y-106503657D01*
X154289895Y-106423581D01*
X154288479Y-106418328D01*
X154250150Y-106276062D01*
X154203315Y-106146222D01*
X154190989Y-106117814D01*
X154227501Y-106117814D01*
X154234219Y-106135488D01*
X154280624Y-106247418D01*
X154288479Y-106266332D01*
X154307186Y-106257857D01*
X154540144Y-106169801D01*
X154559780Y-106163600D01*
X154553063Y-106144169D01*
X154511204Y-106030068D01*
X154509654Y-106026141D01*
X154506453Y-106023040D01*
X154497872Y-106014462D01*
X154486297Y-106018182D01*
X154244761Y-106110166D01*
X154227501Y-106117814D01*
X154190989Y-106117814D01*
X154158565Y-106043083D01*
X154109461Y-105929910D01*
X154048829Y-105813751D01*
X154088801Y-105813751D01*
X154097587Y-105830804D01*
X154149366Y-105937981D01*
X154158565Y-105957618D01*
X154177375Y-105946869D01*
X154405371Y-105832354D01*
X154424285Y-105824086D01*
X154415500Y-105805482D01*
X154362170Y-105695825D01*
X154353592Y-105678979D01*
X154336331Y-105686627D01*
X154105545Y-105804242D01*
X154088801Y-105813751D01*
X154048829Y-105813751D01*
X154000413Y-105720996D01*
X153999918Y-105720190D01*
X153876956Y-105520286D01*
X153875067Y-105517645D01*
X153915996Y-105517645D01*
X153926744Y-105534077D01*
X153989066Y-105636190D01*
X153999918Y-105654380D01*
X154017488Y-105642495D01*
X154238250Y-105516094D01*
X154258300Y-105506793D01*
X154246931Y-105487775D01*
X154182646Y-105383596D01*
X154173137Y-105368713D01*
X154157221Y-105376258D01*
X153932325Y-105506689D01*
X153915996Y-105517645D01*
X153875067Y-105517645D01*
X153811092Y-105428182D01*
X153739872Y-105328587D01*
X153667306Y-105240556D01*
X153713527Y-105240556D01*
X153726240Y-105256575D01*
X153799103Y-105351557D01*
X153811092Y-105367783D01*
X153827215Y-105355587D01*
X154038262Y-105210790D01*
X154057072Y-105199421D01*
X154044050Y-105181748D01*
X153970049Y-105085010D01*
X153959094Y-105071160D01*
X153944004Y-105080255D01*
X153729650Y-105228153D01*
X153713527Y-105240556D01*
X153667306Y-105240556D01*
X153591984Y-105149182D01*
X153589944Y-105146706D01*
X153433925Y-104981760D01*
X153481603Y-104981760D01*
X153496073Y-104996539D01*
X153578548Y-105083252D01*
X153591984Y-105098032D01*
X153606763Y-105084596D01*
X153805408Y-104923676D01*
X153823598Y-104910653D01*
X153808612Y-104894013D01*
X153725516Y-104804923D01*
X153713527Y-104792418D01*
X153699471Y-104802546D01*
X153496899Y-104967807D01*
X153481603Y-104981760D01*
X153433925Y-104981760D01*
X153427956Y-104975450D01*
X153344868Y-104898807D01*
X153254692Y-104815626D01*
X153167245Y-104745392D01*
X153223118Y-104745392D01*
X153239758Y-104759242D01*
X153330708Y-104836653D01*
X153344868Y-104849468D01*
X153358303Y-104835826D01*
X153548576Y-104664674D01*
X153567283Y-104650101D01*
X153549713Y-104634184D01*
X153457109Y-104552742D01*
X153444500Y-104541890D01*
X153431581Y-104552432D01*
X153238310Y-104729992D01*
X153223118Y-104745392D01*
X153167245Y-104745392D01*
X153072636Y-104669406D01*
X153070935Y-104668039D01*
X152879428Y-104534862D01*
X152940345Y-104534862D01*
X152959258Y-104547678D01*
X153058063Y-104616201D01*
X153072636Y-104626846D01*
X153084728Y-104613411D01*
X153263219Y-104427065D01*
X153280479Y-104410736D01*
X153261358Y-104396576D01*
X153161209Y-104325056D01*
X153147670Y-104315651D01*
X153135888Y-104327123D01*
X152955434Y-104517809D01*
X152940345Y-104534862D01*
X152879428Y-104534862D01*
X152877467Y-104533498D01*
X152786246Y-104479101D01*
X152675073Y-104412808D01*
X152568759Y-104359266D01*
X152645376Y-104359266D01*
X152665633Y-104370118D01*
X152770846Y-104428822D01*
X152786246Y-104437814D01*
X152796994Y-104423551D01*
X152963186Y-104226147D01*
X152980549Y-104207957D01*
X152958948Y-104195141D01*
X152850841Y-104132819D01*
X152837198Y-104125378D01*
X152826553Y-104136747D01*
X152659018Y-104340662D01*
X152645376Y-104359266D01*
X152568759Y-104359266D01*
X152466265Y-104307648D01*
X152464536Y-104306777D01*
X152246639Y-104216211D01*
X152228553Y-104207130D01*
X152317230Y-104207130D01*
X152339657Y-104216122D01*
X152450762Y-104264388D01*
X152466265Y-104271312D01*
X152475566Y-104257153D01*
X152637624Y-104053031D01*
X152655918Y-104033497D01*
X152632146Y-104021405D01*
X152513394Y-103970039D01*
X152500578Y-103965181D01*
X152491483Y-103975413D01*
X152406292Y-104078340D01*
X152330253Y-104186873D01*
X152317230Y-104207130D01*
X152228553Y-104207130D01*
X152128921Y-104157105D01*
X152078049Y-104131563D01*
X151939184Y-104038975D01*
X151990118Y-104038975D01*
X152004794Y-104050137D01*
X152112488Y-104118867D01*
X152128921Y-104127859D01*
X152138946Y-104112046D01*
X152293872Y-103909474D01*
X152311235Y-103890043D01*
X152288084Y-103878262D01*
X152186695Y-103815629D01*
X152172019Y-103804468D01*
X152159720Y-103818110D01*
X152000040Y-104023472D01*
X151990118Y-104038975D01*
X151939184Y-104038975D01*
X151929552Y-104032553D01*
X151787507Y-103878147D01*
X151712303Y-103677178D01*
X151715415Y-103461789D01*
X151808320Y-103264124D01*
X151951229Y-103135735D01*
X152114571Y-103069434D01*
X152290460Y-103052871D01*
X152290565Y-103052782D01*
X152436709Y-103072411D01*
G37*
D12*
X91800000Y-90050000D02*
X93300000Y-90050000D01*
X91800000Y-91050000D02*
X91800000Y-90050000D01*
X91800000Y-109100000D02*
X91400000Y-109100000D01*
X91800000Y-109100000D02*
X91800000Y-115900000D01*
X91800000Y-115900000D02*
X110200000Y-115900000D01*
X110200000Y-90050000D02*
X108700000Y-90050000D01*
X110200000Y-90050000D02*
X110200000Y-91050000D01*
X110200000Y-115900000D02*
X110200000Y-109700000D01*
G36*
X108723743Y-40996324D02*
G01*
X108758044Y-41138039D01*
X108681220Y-41255304D01*
X108571905Y-41349190D01*
X108400956Y-41238822D01*
X108267220Y-41059698D01*
X108439436Y-40940170D01*
X108648179Y-40883688D01*
X108723743Y-40996324D01*
G37*
G36*
X108305872Y-41259161D02*
G01*
X108334607Y-41424740D01*
X108226089Y-41432616D01*
X108033652Y-41376800D01*
X107936388Y-41295653D01*
X107948170Y-41275602D01*
X108118686Y-41159831D01*
X108245620Y-41121296D01*
X108305872Y-41259161D01*
G37*
G36*
X108365194Y-40661561D02*
G01*
X108472480Y-40727728D01*
X108390326Y-40886354D01*
X108266188Y-40979496D01*
X108140215Y-40863877D01*
X108048631Y-40689385D01*
X108048630Y-40689385D01*
X108053075Y-40674708D01*
X108175574Y-40639610D01*
X108365194Y-40661561D01*
G37*
G36*
X111937800Y-38512567D02*
G01*
X111937800Y-38770329D01*
X111839718Y-38770434D01*
X111741637Y-38770329D01*
X111741637Y-38611682D01*
X111741637Y-38453036D01*
X111486665Y-38453036D01*
X111235109Y-38453609D01*
X111157486Y-38456549D01*
X111157484Y-38456549D01*
X111157589Y-38254908D01*
X111548883Y-38254908D01*
X111937800Y-38254908D01*
X111937800Y-38512567D01*
G37*
G36*
X111938004Y-39120075D02*
G01*
X111938004Y-39390963D01*
X111843953Y-39390963D01*
X111750005Y-39390963D01*
X111750005Y-39220120D01*
X111750005Y-39049278D01*
X111692335Y-39049278D01*
X111634767Y-39049278D01*
X111634767Y-39205961D01*
X111634767Y-39362644D01*
X111549914Y-39362644D01*
X111464958Y-39362644D01*
X111464958Y-39205961D01*
X111464958Y-39049278D01*
X111404290Y-39049278D01*
X111343622Y-39049278D01*
X111343728Y-39220120D01*
X111343728Y-39390963D01*
X111251227Y-39390344D01*
X111158726Y-39389725D01*
X111158196Y-39119353D01*
X111157484Y-38849187D01*
X111547847Y-38849187D01*
X111938004Y-38849187D01*
X111938004Y-39120075D01*
G37*
G36*
X111434159Y-40335310D02*
G01*
X111710525Y-40335929D01*
X111732745Y-40340374D01*
X111778220Y-40353500D01*
X111796411Y-40361561D01*
X111889635Y-40441557D01*
X111942242Y-40564030D01*
X111946999Y-40593589D01*
X111944210Y-40716372D01*
X111825561Y-40913052D01*
X111761276Y-40945298D01*
X111738331Y-40950879D01*
X111718591Y-40956461D01*
X111438608Y-40956461D01*
X111158728Y-40956461D01*
X111158199Y-40856829D01*
X111157580Y-40757300D01*
X111423507Y-40757300D01*
X111657037Y-40756753D01*
X111701836Y-40753061D01*
X111740697Y-40728566D01*
X111763124Y-40604646D01*
X111692121Y-40537157D01*
X111619202Y-40535493D01*
X111418959Y-40534881D01*
X111157580Y-40534987D01*
X111157580Y-40434838D01*
X111157484Y-40334781D01*
X111434159Y-40335310D01*
G37*
G36*
X111938013Y-39590539D02*
G01*
X111938013Y-39689655D01*
X111811716Y-39689655D01*
X111630228Y-39684696D01*
X111565529Y-39678702D01*
X111555918Y-39680147D01*
X111573591Y-39689758D01*
X111597362Y-39698750D01*
X111664335Y-39725208D01*
X111728827Y-39750530D01*
X111760039Y-39762622D01*
X111798487Y-39777298D01*
X111821741Y-39786290D01*
X111822360Y-39855226D01*
X111822980Y-39924059D01*
X111814298Y-39926435D01*
X111797658Y-39932222D01*
X111778434Y-39939974D01*
X111743811Y-39953410D01*
X111718387Y-39962608D01*
X111697406Y-39970773D01*
X111670327Y-39981108D01*
X111654204Y-39987103D01*
X111577930Y-40016455D01*
X111556122Y-40028547D01*
X111564701Y-40030616D01*
X111647073Y-40023381D01*
X111828974Y-40017800D01*
X111937081Y-40018419D01*
X111937081Y-40117431D01*
X111937081Y-40216444D01*
X111547957Y-40216444D01*
X111158834Y-40216444D01*
X111158834Y-40117741D01*
X111158834Y-40018936D01*
X111181055Y-40008911D01*
X111216402Y-39993718D01*
X111231594Y-39986897D01*
X111248854Y-39979248D01*
X111302391Y-39956408D01*
X111374325Y-39925298D01*
X111396752Y-39915480D01*
X111419800Y-39905455D01*
X111488426Y-39875379D01*
X111505583Y-39868248D01*
X111526460Y-39859359D01*
X111536279Y-39854401D01*
X111513128Y-39843859D01*
X111488736Y-39833420D01*
X111470133Y-39825359D01*
X111451012Y-39817298D01*
X111432202Y-39809339D01*
X111407294Y-39798384D01*
X111336601Y-39767791D01*
X111318514Y-39759936D01*
X111272005Y-39740403D01*
X111252782Y-39731928D01*
X111224463Y-39719319D01*
X111195111Y-39707020D01*
X111172373Y-39697098D01*
X111159764Y-39691933D01*
X111158213Y-39592404D01*
X111158103Y-39592604D01*
X111158526Y-39492972D01*
X111548373Y-39492146D01*
X111938013Y-39491527D01*
X111938013Y-39590539D01*
G37*
G36*
X109276062Y-38749850D02*
G01*
X109146222Y-38796685D01*
X109043083Y-38841435D01*
X108929910Y-38890539D01*
X108720996Y-38999587D01*
X108720190Y-39000082D01*
X108520286Y-39123044D01*
X108428182Y-39188908D01*
X108328587Y-39260128D01*
X108149182Y-39408016D01*
X108146706Y-39410056D01*
X107975450Y-39572044D01*
X107898807Y-39655132D01*
X107815626Y-39745308D01*
X107669406Y-39927364D01*
X107668039Y-39929065D01*
X107533498Y-40122533D01*
X107479101Y-40213754D01*
X107412808Y-40324927D01*
X107307648Y-40533735D01*
X107306777Y-40535464D01*
X107216211Y-40753361D01*
X107157105Y-40871079D01*
X107131563Y-40921951D01*
X107032553Y-41070448D01*
X106878147Y-41212493D01*
X106677178Y-41287697D01*
X106461789Y-41284585D01*
X106264124Y-41191680D01*
X106135735Y-41048771D01*
X106069434Y-40885429D01*
X106052871Y-40709540D01*
X106052782Y-40709435D01*
X106072411Y-40563291D01*
X106130504Y-40436480D01*
X106255167Y-40334674D01*
X106407593Y-40369714D01*
X106470567Y-40542532D01*
X106429607Y-40725868D01*
X106519834Y-40887822D01*
X106710830Y-40871906D01*
X106744932Y-40827981D01*
X106804468Y-40827981D01*
X106818110Y-40840280D01*
X107023472Y-40999960D01*
X107038975Y-41009882D01*
X107050137Y-40995206D01*
X107118867Y-40887512D01*
X107127859Y-40871079D01*
X107112046Y-40861054D01*
X106909474Y-40706128D01*
X106890043Y-40688765D01*
X106878262Y-40711916D01*
X106815629Y-40813305D01*
X106804468Y-40827981D01*
X106744932Y-40827981D01*
X106846353Y-40697345D01*
X106932468Y-40501609D01*
X106933373Y-40499422D01*
X106965181Y-40499422D01*
X106975413Y-40508517D01*
X107078340Y-40593708D01*
X107186873Y-40669747D01*
X107207130Y-40682770D01*
X107216122Y-40660343D01*
X107264388Y-40549238D01*
X107271312Y-40533735D01*
X107257153Y-40524434D01*
X107053031Y-40362376D01*
X107033497Y-40344082D01*
X107021405Y-40367854D01*
X106970039Y-40486606D01*
X106965181Y-40499422D01*
X106933373Y-40499422D01*
X107011173Y-40311320D01*
X107088720Y-40162802D01*
X107125378Y-40162802D01*
X107136747Y-40173447D01*
X107340662Y-40340982D01*
X107359266Y-40354624D01*
X107370118Y-40334367D01*
X107428822Y-40229154D01*
X107437814Y-40213754D01*
X107423551Y-40203006D01*
X107226147Y-40036814D01*
X107207957Y-40019451D01*
X107195141Y-40041052D01*
X107132819Y-40149159D01*
X107125378Y-40162802D01*
X107088720Y-40162802D01*
X107124097Y-40095049D01*
X107251389Y-39886903D01*
X107275828Y-39852330D01*
X107315651Y-39852330D01*
X107327123Y-39864112D01*
X107517809Y-40044566D01*
X107534862Y-40059655D01*
X107547678Y-40040742D01*
X107616201Y-39941937D01*
X107626846Y-39927364D01*
X107613411Y-39915272D01*
X107427065Y-39736781D01*
X107410736Y-39719521D01*
X107396576Y-39738642D01*
X107325056Y-39838791D01*
X107315651Y-39852330D01*
X107275828Y-39852330D01*
X107392266Y-39687606D01*
X107499272Y-39555500D01*
X107541890Y-39555500D01*
X107552432Y-39568419D01*
X107729992Y-39761690D01*
X107745392Y-39776882D01*
X107759242Y-39760242D01*
X107836653Y-39669292D01*
X107849468Y-39655132D01*
X107835826Y-39641697D01*
X107664674Y-39451424D01*
X107650101Y-39432717D01*
X107634184Y-39450287D01*
X107552742Y-39542891D01*
X107541890Y-39555500D01*
X107499272Y-39555500D01*
X107545943Y-39497881D01*
X107711635Y-39318452D01*
X107745230Y-39286473D01*
X107792418Y-39286473D01*
X107802546Y-39300529D01*
X107967807Y-39503101D01*
X107981760Y-39518397D01*
X107996539Y-39503927D01*
X108083252Y-39421452D01*
X108098032Y-39408016D01*
X108084596Y-39393237D01*
X107923676Y-39194592D01*
X107910653Y-39176402D01*
X107894013Y-39191388D01*
X107804923Y-39274484D01*
X107792418Y-39286473D01*
X107745230Y-39286473D01*
X107888558Y-39150041D01*
X108019078Y-39040906D01*
X108071160Y-39040906D01*
X108080255Y-39055996D01*
X108228153Y-39270350D01*
X108240556Y-39286473D01*
X108256575Y-39273760D01*
X108351557Y-39200897D01*
X108367783Y-39188908D01*
X108355587Y-39172785D01*
X108210790Y-38961738D01*
X108199421Y-38942928D01*
X108181748Y-38955950D01*
X108085010Y-39029951D01*
X108071160Y-39040906D01*
X108019078Y-39040906D01*
X108075927Y-38993372D01*
X108272958Y-38849170D01*
X108308017Y-38826863D01*
X108368713Y-38826863D01*
X108376258Y-38842779D01*
X108506689Y-39067675D01*
X108517645Y-39084004D01*
X108534077Y-39073256D01*
X108636190Y-39010934D01*
X108654380Y-39000082D01*
X108642495Y-38982512D01*
X108516094Y-38761750D01*
X108506793Y-38741700D01*
X108487775Y-38753069D01*
X108383596Y-38817354D01*
X108368713Y-38826863D01*
X108308017Y-38826863D01*
X108478865Y-38718157D01*
X108609984Y-38646408D01*
X108678979Y-38646408D01*
X108686627Y-38663669D01*
X108804242Y-38894455D01*
X108813751Y-38911199D01*
X108830804Y-38902413D01*
X108937981Y-38850634D01*
X108957618Y-38841435D01*
X108946869Y-38822625D01*
X108832354Y-38594629D01*
X108824086Y-38575715D01*
X108805482Y-38584500D01*
X108695825Y-38637830D01*
X108678979Y-38646408D01*
X108609984Y-38646408D01*
X108692864Y-38601056D01*
X108906533Y-38502128D01*
X109014462Y-38502128D01*
X109018182Y-38513703D01*
X109110166Y-38755239D01*
X109117814Y-38772499D01*
X109135488Y-38765781D01*
X109247418Y-38719376D01*
X109266332Y-38711521D01*
X109257857Y-38692814D01*
X109169801Y-38459856D01*
X109163600Y-38440220D01*
X109144169Y-38446937D01*
X109030068Y-38488796D01*
X109026141Y-38490346D01*
X109023040Y-38493547D01*
X109014462Y-38502128D01*
X108906533Y-38502128D01*
X108914170Y-38498592D01*
X109141999Y-38411487D01*
X109365238Y-38349288D01*
X109598415Y-38301142D01*
X109833888Y-38269120D01*
X110064015Y-38255293D01*
X110281155Y-38261729D01*
X110495671Y-38303041D01*
X110678645Y-38380221D01*
X110828821Y-38492413D01*
X110944676Y-38638388D01*
X111025365Y-38816363D01*
X111070667Y-39024680D01*
X111070349Y-39034189D01*
X111114208Y-39312424D01*
X111131143Y-39563874D01*
X111125230Y-39789698D01*
X111101829Y-40095621D01*
X111101252Y-40103167D01*
X111023841Y-40730519D01*
X110919041Y-40748812D01*
X110794708Y-40598021D01*
X110793671Y-40525364D01*
X110837813Y-40525364D01*
X110840602Y-40585929D01*
X110873158Y-40641429D01*
X110942818Y-40704268D01*
X110967519Y-40709226D01*
X110973203Y-40706850D01*
X111048651Y-40095621D01*
X110940639Y-40184280D01*
X110901993Y-40190188D01*
X110890400Y-40205321D01*
X110863546Y-40321654D01*
X110844013Y-40435446D01*
X110844119Y-40435446D01*
X110837814Y-40525363D01*
X110837813Y-40525364D01*
X110793671Y-40525364D01*
X110792885Y-40470267D01*
X110818169Y-40312250D01*
X110801942Y-40098413D01*
X110751299Y-39958163D01*
X110681123Y-40047770D01*
X110545247Y-40252387D01*
X110410648Y-40413226D01*
X110350393Y-40471517D01*
X110386153Y-40496322D01*
X110524853Y-40586032D01*
X110751691Y-40734515D01*
X110900681Y-40846386D01*
X110984773Y-40931437D01*
X111158613Y-41126877D01*
X111158825Y-41073650D01*
X111545881Y-41073333D01*
X111820015Y-41073214D01*
X111935521Y-41073650D01*
X111935627Y-41073650D01*
X111938109Y-41173696D01*
X111938109Y-41272812D01*
X111814292Y-41273431D01*
X111690475Y-41274050D01*
X111690052Y-41290173D01*
X111689628Y-41306400D01*
X111700170Y-41314565D01*
X111736531Y-41341024D01*
X111743062Y-41345777D01*
X111777685Y-41371099D01*
X111798665Y-41386395D01*
X111834735Y-41412543D01*
X111880108Y-41445926D01*
X111922999Y-41476932D01*
X111938089Y-41487887D01*
X111938089Y-41611084D01*
X111938089Y-41734280D01*
X111920415Y-41720534D01*
X111883828Y-41691596D01*
X111860574Y-41673406D01*
X111849205Y-41664104D01*
X111810758Y-41633615D01*
X111774068Y-41604469D01*
X111758875Y-41591860D01*
X111717844Y-41559924D01*
X111685494Y-41534086D01*
X111671025Y-41523750D01*
X111669167Y-41527058D01*
X111665015Y-41535131D01*
X111641262Y-41581318D01*
X111535738Y-41657076D01*
X111422257Y-41673303D01*
X111321488Y-41659246D01*
X111300921Y-41651081D01*
X111284178Y-41656456D01*
X111200875Y-41649634D01*
X111055658Y-41617047D01*
X110945387Y-41577184D01*
X110892884Y-41532019D01*
X110850923Y-41441275D01*
X110792941Y-41339886D01*
X110709677Y-41299683D01*
X110822723Y-41299683D01*
X110894244Y-41420399D01*
X110931244Y-41501531D01*
X110964213Y-41529437D01*
X111187869Y-41594239D01*
X111265797Y-41604057D01*
X111316610Y-41535131D01*
X111268524Y-41497875D01*
X111191919Y-41411314D01*
X111180425Y-41339577D01*
X111342485Y-41339577D01*
X111346104Y-41416472D01*
X111401398Y-41475176D01*
X111489454Y-41459364D01*
X111515913Y-41418436D01*
X111520871Y-41341024D01*
X111519114Y-41273845D01*
X111429404Y-41273316D01*
X111342485Y-41273845D01*
X111342485Y-41339577D01*
X111180425Y-41339577D01*
X111157174Y-41194470D01*
X111031583Y-41074189D01*
X110940442Y-40957172D01*
X110929827Y-41195947D01*
X110822723Y-41299683D01*
X110709677Y-41299683D01*
X110660443Y-41275911D01*
X110461075Y-41194572D01*
X110257063Y-41110872D01*
X110043323Y-41030137D01*
X109885814Y-40992207D01*
X109800340Y-40978151D01*
X109671887Y-41082367D01*
X109599997Y-41140693D01*
X109401163Y-41265780D01*
X109201276Y-41353739D01*
X108997777Y-41404894D01*
X108788103Y-41419571D01*
X108651507Y-41528853D01*
X108498056Y-41614458D01*
X108301734Y-41668455D01*
X108036521Y-41682914D01*
X107917665Y-41726426D01*
X107731733Y-41755675D01*
X107539548Y-41757682D01*
X107387155Y-41712576D01*
X107374132Y-41692836D01*
X107371137Y-41639609D01*
X107378517Y-41620481D01*
X107437306Y-41620481D01*
X107604026Y-41466892D01*
X107731439Y-41391564D01*
X107855491Y-41545247D01*
X108002121Y-41623281D01*
X107867348Y-41675784D01*
X107903418Y-41667929D01*
X108016073Y-41627829D01*
X108033230Y-41623077D01*
X108293038Y-41610779D01*
X108478891Y-41560279D01*
X108622704Y-41477358D01*
X108756390Y-41367795D01*
X108765485Y-41362421D01*
X108769104Y-41359838D01*
X109046567Y-41249305D01*
X109236861Y-41170290D01*
X109351144Y-41116682D01*
X109400573Y-41082367D01*
X109396305Y-41061235D01*
X109349497Y-41047171D01*
X109271306Y-41034066D01*
X109172890Y-41015805D01*
X109065405Y-40986278D01*
X108960009Y-40939371D01*
X108867858Y-40868972D01*
X108800110Y-40768970D01*
X108721355Y-40666134D01*
X108530147Y-40520010D01*
X108288410Y-40428836D01*
X108276525Y-40422324D01*
X108162319Y-40332097D01*
X108257714Y-40414263D01*
X108073509Y-40437424D01*
X107948896Y-40522784D01*
X107804576Y-40409524D01*
X107703639Y-40254480D01*
X107725663Y-40412295D01*
X107830247Y-40616318D01*
X107833453Y-40644430D01*
X107926465Y-40578869D01*
X107929653Y-40666653D01*
X107869110Y-40807521D01*
X107805955Y-40991474D01*
X107797900Y-41125227D01*
X107762675Y-41272247D01*
X107703229Y-41248321D01*
X107696614Y-41224446D01*
X107682662Y-41243153D01*
X107514300Y-41430945D01*
X107437306Y-41620481D01*
X107378517Y-41620481D01*
X107463844Y-41399314D01*
X107636857Y-41205527D01*
X107625436Y-41029211D01*
X107655954Y-40853910D01*
X107771526Y-40633676D01*
X107651975Y-40357302D01*
X107657631Y-40155669D01*
X107678612Y-40134895D01*
X107891595Y-40134831D01*
X108109003Y-40225503D01*
X108310821Y-40373537D01*
X108498174Y-40442941D01*
X108660567Y-40539521D01*
X108659017Y-40534356D01*
X108618496Y-40339601D01*
X108623452Y-40128623D01*
X108670724Y-39906941D01*
X108757150Y-39680069D01*
X108879569Y-39453523D01*
X109034819Y-39232818D01*
X109219739Y-39023472D01*
X109431166Y-38830998D01*
X109503657Y-38722229D01*
X109423581Y-38710105D01*
X109418328Y-38711521D01*
X109276062Y-38749850D01*
G37*
M02*
