G04 #@! TF.GenerationSoftware,KiCad,Pcbnew,7.0.4-40-g0180cb380f*
G04 #@! TF.CreationDate,2023-08-16T00:58:49-07:00*
G04 #@! TF.ProjectId,RobotCrawler,526f626f-7443-4726-9177-6c65722e6b69,rev?*
G04 #@! TF.SameCoordinates,Original*
G04 #@! TF.FileFunction,Profile,NP*
%FSLAX46Y46*%
G04 Gerber Fmt 4.6, Leading zero omitted, Abs format (unit mm)*
G04 Created by KiCad (PCBNEW 7.0.4-40-g0180cb380f) date 2023-08-16 00:58:49*
%MOMM*%
%LPD*%
G01*
G04 APERTURE LIST*
G04 #@! TA.AperFunction,Profile*
%ADD10C,0.038100*%
G04 #@! TD*
G04 #@! TA.AperFunction,Profile*
%ADD11C,0.120000*%
G04 #@! TD*
G04 APERTURE END LIST*
D10*
X118000000Y-106000000D02*
X118000000Y-105000000D01*
X120000000Y-109000000D02*
X120000000Y-105000000D01*
X120000000Y-31000000D02*
X120000000Y-40000000D01*
X158000000Y-31000000D02*
X159000000Y-30000000D01*
X121000000Y-30000000D02*
G75*
G03*
X120000000Y-31000000I0J-1000000D01*
G01*
X179000000Y-110000000D02*
G75*
G03*
X180000000Y-109000000I0J1000000D01*
G01*
X120000000Y-46000000D02*
X120000000Y-99000000D01*
X141000000Y-30000000D02*
X142000000Y-31000000D01*
X159000000Y-30000000D02*
X179000000Y-30000000D01*
X142000000Y-31000000D02*
X142000000Y-54000000D01*
X121000000Y-110000000D02*
X179000000Y-110000000D01*
X158000000Y-54000000D02*
X158000000Y-31000000D01*
X180000000Y-31000000D02*
G75*
G03*
X179000000Y-30000000I-1000000J0D01*
G01*
X180000000Y-109000000D02*
X180000000Y-31000000D01*
X142000000Y-54000000D02*
X158000000Y-54000000D01*
X120000000Y-109000000D02*
G75*
G03*
X121000000Y-110000000I1000000J0D01*
G01*
X121000000Y-30000000D02*
X141000000Y-30000000D01*
X88000000Y-36000000D02*
G75*
G03*
X84000000Y-40000000I0J-4000000D01*
G01*
X114000000Y-110000000D02*
G75*
G03*
X118000000Y-106000000I0J4000000D01*
G01*
X118000000Y-40000000D02*
G75*
G03*
X114000000Y-36000000I-4000000J0D01*
G01*
X118000000Y-99000000D02*
X118000000Y-46000000D01*
X88000000Y-110000000D02*
X114000000Y-110000000D01*
X84000000Y-40000000D02*
X84000000Y-106000000D01*
X114000000Y-36000000D02*
X88000000Y-36000000D01*
X84000000Y-106000000D02*
G75*
G03*
X88000000Y-110000000I4000000J0D01*
G01*
D11*
X120000000Y-99000000D02*
X120000000Y-99500000D01*
X119000000Y-99500000D02*
X120000000Y-99500000D01*
X120000000Y-104500000D02*
X119000000Y-104500000D01*
X120000000Y-104500000D02*
X120000000Y-105000000D01*
X118000000Y-105000000D02*
X118000000Y-104500000D01*
X119000000Y-104500000D02*
X118000000Y-104500000D01*
X118000000Y-99500000D02*
X119000000Y-99500000D01*
X118000000Y-99500000D02*
X118000000Y-99000000D01*
X120000000Y-40000000D02*
X120000000Y-40500000D01*
X119000000Y-40500000D02*
X120000000Y-40500000D01*
X120000000Y-45500000D02*
X119000000Y-45500000D01*
X120000000Y-45500000D02*
X120000000Y-46000000D01*
X118000000Y-40500000D02*
X119000000Y-40500000D01*
X119000000Y-45500000D02*
X118000000Y-45500000D01*
X118000000Y-46000000D02*
X118000000Y-45500000D01*
X118000000Y-40500000D02*
X118000000Y-40000000D01*
M02*
