M48
; DRILL file {KiCad 7.0.4-40-g0180cb380f} date Wed Aug 16 00:58:47 2023
; FORMAT={-:-/ absolute / inch / decimal}
; #@! TF.CreationDate,2023-08-16T00:58:47-07:00
; #@! TF.GenerationSoftware,Kicad,Pcbnew,7.0.4-40-g0180cb380f
; #@! TF.FileFunction,Plated,1,2,PTH
FMAT,2
INCH
; #@! TA.AperFunction,Plated,PTH,ViaDrill
T1C0.0118
; #@! TA.AperFunction,Plated,PTH,ComponentDrill
T2C0.0118
; #@! TA.AperFunction,Plated,PTH,ViaDrill
T3C0.0197
; #@! TA.AperFunction,Plated,PTH,ComponentDrill
T4C0.0295
; #@! TA.AperFunction,Plated,PTH,ComponentDrill
T5C0.0394
%
G90
G05
T1
X3.402Y-2.4092
X3.5458Y-3.2456
X3.5512Y-3.7326
X3.5604Y-3.6315
X3.595Y-2.4092
X3.6655Y-1.9764
X3.6655Y-2.8589
X3.6727Y-3.3227
X3.6762Y-2.5229
X3.7082Y-3.2391
X3.7082Y-4.0943
X3.7402Y-4.1339
X3.7653Y-3.6277
X3.7731Y-3.9192
X3.8055Y-3.4693
X3.8124Y-3.3223
X3.8629Y-3.4639
X3.8725Y-3.823
X3.881Y-3.7805
X3.8951Y-3.5029
X3.9163Y-3.4191
X3.9216Y-3.7433
X3.9486Y-3.4408
X4.0089Y-3.3531
X4.0232Y-3.4591
X4.088Y-1.7402
X4.0934Y-3.4189
X4.0978Y-3.4723
X4.1303Y-3.0183
X4.1352Y-3.3333
X4.2222Y-2.9277
X4.2359Y-2.7774
X4.2413Y-2.7306
X4.29Y-3.3153
X4.3557Y-3.4598
X4.371Y-1.963
X4.3795Y-3.6434
X4.3945Y-4.0067
X4.3983Y-3.5175
X4.4237Y-3.4883
X4.4286Y-3.9026
X4.4385Y-4.0312
X4.5425Y-4.0401
X4.5656Y-3.2036
X4.776Y-2.3855
X4.777Y-2.276
X4.9409Y-2.6969
X4.9409Y-2.9724
X4.9556Y-3.8738
X4.9606Y-2.6181
X4.9606Y-3.0315
X4.9722Y-4.1858
X4.9803Y-2.6772
X4.9803Y-2.7165
X4.9803Y-2.9528
X4.9803Y-2.9921
X5.0513Y-2.861
X5.0517Y-2.8978
X5.0591Y-2.815
X5.0591Y-2.9528
X5.0984Y-2.7165
X5.111Y-1.9449
X5.2362Y-2.874
X5.2362Y-2.9528
X5.2756Y-2.5984
X5.2878Y-2.8714
X5.2953Y-2.7165
X5.3081Y-2.0569
X5.3285Y-2.4884
X5.3483Y-3.8321
X5.407Y-4.2136
X5.4612Y-3.459
X5.5112Y-4.0594
X5.5117Y-3.8648
X5.5118Y-2.7953
X5.5333Y-1.9623
X5.5837Y-2.8978
X5.6059Y-2.7926
X5.6104Y-4.0636
X5.6334Y-4.2791
X5.6766Y-2.4686
X5.748Y-2.2835
X5.748Y-2.5984
X5.7706Y-2.2431
X5.8071Y-2.4803
X5.8169Y-3.0608
X5.8221Y-2.749
X5.8248Y-2.7912
X5.8462Y-2.8766
X5.8465Y-2.3425
X5.8547Y-2.6974
X5.8563Y-2.2198
X5.876Y-2.5559
X5.8827Y-2.6537
X5.8858Y-2.3425
X5.8923Y-2.3855
X5.9123Y-2.5515
X5.9162Y-2.6537
X5.935Y-2.2088
X5.9547Y-3.0697
X5.9591Y-2.6915
X5.9646Y-2.5394
X6.0039Y-2.3819
X6.0531Y-2.9163
X6.063Y-2.2835
X6.063Y-2.5984
X6.084Y-2.9928
X6.0989Y-2.2358
X6.1365Y-2.6574
X6.1384Y-3.8321
X6.1895Y-3.1258
X6.1947Y-3.8095
X6.2818Y-2.5791
X6.2898Y-2.2243
X6.3131Y-3.1173
X6.378Y-2.3622
X6.378Y-2.6378
X6.4567Y-2.874
X6.4567Y-3.0315
X6.4961Y-2.4016
X6.5197Y-2.4733
X6.5354Y-2.6378
X6.5354Y-2.6772
X6.5748Y-2.7953
X6.6152Y-1.294
X6.6303Y-2.262
X6.6929Y-2.126
X6.6929Y-2.2441
X6.6929Y-2.6772
X6.6929Y-2.8543
X6.6929Y-2.8937
X6.6929Y-2.9528
X6.7204Y-2.0958
X6.7323Y-2.7953
X6.7717Y-2.8937
X6.8504Y-2.8346
X6.852Y-3.3752
X6.8622Y-1.2089
X6.8898Y-2.4016
X6.8898Y-2.5984
X7.0079Y-2.3622
X7.0079Y-2.6378
T2
X3.8622Y-3.9307
X3.8622Y-3.9858
X3.8898Y-3.9031
X3.8898Y-3.9583
X3.8898Y-4.0134
X3.9173Y-3.9307
X3.9173Y-3.9858
X3.9449Y-3.9031
X3.9449Y-3.9583
X3.9449Y-4.0134
X3.9724Y-3.9307
X3.9724Y-3.9858
X5.9094Y-3.9701
X5.9094Y-4.0252
X5.937Y-3.9425
X5.937Y-3.9976
X5.937Y-4.0528
X5.9646Y-3.9701
X5.9646Y-4.0252
X5.9921Y-3.9425
X5.9921Y-3.9976
X5.9921Y-4.0528
X6.0197Y-3.9701
X6.0197Y-4.0252
T3
X3.5827Y-4.2126
X3.5994Y-3.1681
X3.7008Y-1.9291
X3.7402Y-2.6378
X3.7402Y-4.2126
X3.7795Y-1.9488
X3.7795Y-2.9134
X3.7795Y-3.189
X3.8189Y-2.185
X3.8583Y-2.5984
X3.8583Y-2.6772
X3.8878Y-1.624
X3.8976Y-1.9488
X3.8976Y-3.0709
X3.937Y-3.189
X3.9764Y-1.9291
X3.9764Y-4.2126
X4.0157Y-3.0315
X4.0551Y-1.9291
X4.0551Y-2.9134
X4.0551Y-3.0315
X4.065Y-1.624
X4.065Y-3.2087
X4.0945Y-1.9882
X4.1339Y-1.9488
X4.1732Y-3.189
X4.1732Y-3.8976
X4.2126Y-2.6378
X4.252Y-2.1654
X4.252Y-2.2047
X4.4098Y-2.9045
X4.6004Y-3.4252
X4.6063Y-2.5197
X4.7601Y-1.267
X4.8767Y-1.9534
X4.8785Y-3.1974
X5.0044Y-1.7649
X5.0264Y-3.1974
X5.0497Y-1.2073
X5.1163Y-2.8339
X5.1813Y-4.3062
X5.2933Y-1.9515
X5.3971Y-1.9071
X5.4043Y-1.9515
X5.4331Y-3.0648
X5.5068Y-4.3062
X5.5138Y-2.9528
X5.6191Y-2.3425
X5.6218Y-2.5747
X5.7283Y-2.9597
X5.8563Y-3.2087
X5.9941Y-3.1032
X6.0235Y-2.7941
X6.0262Y-2.696
X6.1124Y-3.7816
X6.1431Y-2.7117
X6.1919Y-2.3235
X6.2084Y-2.9552
X6.3041Y-4.3005
X6.466Y-4.3005
X6.5086Y-3.646
X6.6429Y-1.9127
X6.6535Y-2.4016
X6.6535Y-2.4803
X6.7002Y-3.555
X6.7141Y-1.2798
X6.7272Y-4.187
X6.7323Y-2.4016
X6.7323Y-2.4803
X6.7336Y-3.2776
X6.8Y-1.7684
X6.9596Y-2.8937
X7.0004Y-3.1586
T4
X3.4252Y-3.8189
X3.4252Y-3.8976
X4.5059Y-1.8898
X4.5059Y-1.9685
X4.5059Y-2.0472
X6.811Y-3.5827
X6.8898Y-3.5827
T5
X3.4793Y-1.7892
X3.4793Y-1.8892
X3.4793Y-1.9892
X3.4793Y-2.1435
X3.4793Y-2.2435
X3.4793Y-2.3435
X3.4793Y-2.4978
X3.4793Y-2.5978
X3.4793Y-2.6978
X3.4793Y-2.8522
X3.4793Y-2.9522
X3.4793Y-3.0522
X3.4793Y-3.2065
X3.4793Y-3.3065
X3.4793Y-3.4065
X4.811Y-1.4567
X4.811Y-1.5748
X4.811Y-1.6929
X4.811Y-1.8504
X4.811Y-3.8189
X4.811Y-3.937
X4.811Y-4.0551
X4.911Y-1.4567
X4.911Y-1.5748
X4.911Y-1.6929
X4.911Y-1.8504
X4.911Y-3.8189
X4.911Y-3.937
X4.911Y-4.0551
X5.011Y-1.4567
X5.011Y-1.5748
X5.011Y-1.6929
X5.011Y-1.8504
X5.011Y-3.8189
X5.011Y-3.937
X5.011Y-4.0551
X5.111Y-1.4567
X5.111Y-1.5748
X5.111Y-1.6929
X5.111Y-1.8504
X5.111Y-3.8189
X5.111Y-3.937
X5.111Y-4.0551
X6.7Y-1.4567
X6.7Y-1.5748
X6.7Y-1.6929
X6.7Y-1.8504
X6.7Y-3.8189
X6.7Y-3.937
X6.7Y-4.0551
X6.8Y-1.4567
X6.8Y-1.5748
X6.8Y-1.6929
X6.8Y-1.8504
X6.8Y-3.8189
X6.8Y-3.937
X6.8Y-4.0551
X6.9Y-1.4567
X6.9Y-1.5748
X6.9Y-1.6929
X6.9Y-1.8504
X6.9Y-3.8189
X6.9Y-3.937
X6.9Y-4.0551
X7.0Y-1.4567
X7.0Y-1.5748
X7.0Y-1.6929
X7.0Y-1.8504
X7.0Y-3.8189
X7.0Y-3.937
X7.0Y-4.0551
T0
M30
