M48
; DRILL file {KiCad 7.0.4-40-g0180cb380f} date Wed Aug 16 00:58:47 2023
; FORMAT={-:-/ absolute / inch / decimal}
; #@! TF.CreationDate,2023-08-16T00:58:47-07:00
; #@! TF.GenerationSoftware,Kicad,Pcbnew,7.0.4-40-g0180cb380f
; #@! TF.FileFunction,NonPlated,1,2,NPTH
FMAT,2
INCH
; #@! TA.AperFunction,NonPlated,NPTH,ComponentDrill
T1C0.0150
; #@! TA.AperFunction,NonPlated,NPTH,ComponentDrill
T2C0.0390
; #@! TA.AperFunction,NonPlated,NPTH,ComponentDrill
T3C0.0454
; #@! TA.AperFunction,NonPlated,NPTH,ComponentDrill
T4C0.0935
; #@! TA.AperFunction,NonPlated,NPTH,ComponentDrill
T5C0.1063
; #@! TA.AperFunction,NonPlated,NPTH,ComponentDrill
T6C0.1181
%
G90
G05
T1
X4.6382Y-1.5679
X4.6382Y-1.5929
X4.6382Y-1.6179
X4.6382Y-1.6429
X4.6382Y-1.6679
X4.6382Y-1.6929
X4.6382Y-1.7179
X4.6382Y-1.7429
X4.6382Y-1.7679
X4.6382Y-1.7929
X4.6382Y-1.8179
X4.6382Y-3.8907
X4.6382Y-3.9157
X4.6382Y-3.9407
X4.6382Y-3.9657
X4.6382Y-3.9907
X4.6382Y-4.0157
X4.6382Y-4.0407
X4.6382Y-4.0657
X4.6382Y-4.0907
X4.6382Y-4.1157
X4.6382Y-4.1407
X4.7319Y-1.5679
X4.7319Y-1.5929
X4.7319Y-1.6179
X4.7319Y-1.6429
X4.7319Y-1.6679
X4.7319Y-1.6929
X4.7319Y-1.7179
X4.7319Y-1.7429
X4.7319Y-1.7679
X4.7319Y-1.7929
X4.7319Y-1.8179
X4.7319Y-3.8907
X4.7319Y-3.9157
X4.7319Y-3.9407
X4.7319Y-3.9657
X4.7319Y-3.9907
X4.7319Y-4.0157
X4.7319Y-4.0407
X4.7319Y-4.0657
X4.7319Y-4.0907
X4.7319Y-4.1157
X4.7319Y-4.1407
T2
X4.4088Y-2.5378
X4.4488Y-2.7378
X4.4888Y-2.5378
X4.9994Y-3.6433
X5.0394Y-3.4433
X5.0794Y-3.6433
X5.4324Y-2.0685
X5.4724Y-1.8685
X5.5124Y-2.0685
X6.5929Y-1.9679
X6.5929Y-2.0479
X6.7929Y-2.0079
T3
X3.3858Y-1.4961
X3.3858Y-4.252
X4.5669Y-1.4961
X4.8819Y-1.3386
X4.8819Y-4.1732
X6.9291Y-1.3386
T4
X4.3488Y-2.6128
X4.3488Y-2.7378
X4.5488Y-2.6128
X4.5488Y-2.7378
X4.9394Y-3.4433
X4.9394Y-3.5683
X5.1394Y-3.4433
X5.1394Y-3.5683
T5
X5.315Y-1.378
X5.315Y-3.937
X6.4961Y-1.378
X6.4961Y-3.937
T6
X3.4646Y-1.5748
X3.4646Y-4.1732
X4.4882Y-1.5748
X4.4882Y-4.1732
T0
M30
