G04 #@! TF.GenerationSoftware,KiCad,Pcbnew,7.0.8*
G04 #@! TF.CreationDate,2023-10-18T02:17:36-07:00*
G04 #@! TF.ProjectId,IotFan,496f7446-616e-42e6-9b69-6361645f7063,rev?*
G04 #@! TF.SameCoordinates,Original*
G04 #@! TF.FileFunction,Profile,NP*
%FSLAX46Y46*%
G04 Gerber Fmt 4.6, Leading zero omitted, Abs format (unit mm)*
G04 Created by KiCad (PCBNEW 7.0.8) date 2023-10-18 02:17:36*
%MOMM*%
%LPD*%
G01*
G04 APERTURE LIST*
G04 #@! TA.AperFunction,Profile*
%ADD10C,0.038100*%
G04 #@! TD*
G04 #@! TA.AperFunction,Profile*
%ADD11C,0.050000*%
G04 #@! TD*
G04 #@! TA.AperFunction,Profile*
%ADD12C,0.120000*%
G04 #@! TD*
G04 #@! TA.AperFunction,Profile*
%ADD13C,0.100000*%
G04 #@! TD*
G04 APERTURE END LIST*
D10*
X142000000Y-49500000D02*
G75*
G03*
X141000000Y-50500000I-1J-999999D01*
G01*
X151000000Y-50500000D02*
G75*
G03*
X150000000Y-49500000I-1000000J0D01*
G01*
X141000000Y-81000000D02*
G75*
G03*
X142000000Y-82000000I999999J-1D01*
G01*
X151000000Y-81000000D02*
X151000000Y-50500000D01*
X142000000Y-82000000D02*
X143000000Y-82000000D01*
X143000000Y-49500000D02*
X142000000Y-49500000D01*
X149000000Y-82000000D02*
X150000000Y-82000000D01*
X141000000Y-50500000D02*
X141000000Y-81000000D01*
X150000000Y-82000000D02*
G75*
G03*
X151000000Y-81000000I0J1000000D01*
G01*
X149000000Y-49500000D02*
X150000000Y-49500000D01*
X130000000Y-49500000D02*
G75*
G03*
X129000000Y-50500000I-1J-999999D01*
G01*
X139000000Y-50500000D02*
G75*
G03*
X138000000Y-49500000I-1000000J0D01*
G01*
X129000000Y-81000000D02*
G75*
G03*
X130000000Y-82000000I999999J-1D01*
G01*
X139000000Y-81000000D02*
X139000000Y-50500000D01*
X130000000Y-82000000D02*
X131000000Y-82000000D01*
X131000000Y-49500000D02*
X130000000Y-49500000D01*
X137000000Y-82000000D02*
X138000000Y-82000000D01*
X129000000Y-50500000D02*
X129000000Y-81000000D01*
X138000000Y-82000000D02*
G75*
G03*
X139000000Y-81000000I0J1000000D01*
G01*
X137000000Y-49500000D02*
X138000000Y-49500000D01*
X136500000Y-84000000D02*
X143500000Y-84000000D01*
X148500000Y-40000000D02*
X148500000Y-48500000D01*
X143500000Y-48500000D02*
X143500000Y-47500000D01*
X143500000Y-47500000D02*
X136500000Y-47500000D01*
X148500000Y-86000000D02*
X148500000Y-83000000D01*
X136500000Y-47500000D02*
X136500000Y-48500000D01*
X136500000Y-83000000D02*
X136500000Y-84000000D01*
X143500000Y-84000000D02*
X143500000Y-83000000D01*
X131500000Y-48500000D02*
X131500000Y-47500000D01*
X131500000Y-84000000D02*
X131500000Y-83000000D01*
X117000000Y-50500000D02*
X117000000Y-81000000D01*
X115000000Y-41000000D02*
X115000000Y-40000000D01*
X117000000Y-47000000D02*
X117000000Y-47500000D01*
X115000000Y-47000000D02*
X115000000Y-58000000D01*
X117000000Y-47500000D02*
X119500000Y-47500000D01*
X119500000Y-47500000D02*
X119500000Y-48500000D01*
X117000000Y-41000000D02*
X117000000Y-40000000D01*
X117000000Y-40000000D02*
X148500000Y-40000000D01*
X124500000Y-47500000D02*
X124500000Y-48500000D01*
X131500000Y-47500000D02*
X124500000Y-47500000D01*
X125000000Y-49500000D02*
X126000000Y-49500000D01*
X125000000Y-82000000D02*
X126000000Y-82000000D01*
X119000000Y-49500000D02*
X118000000Y-49500000D01*
X118000000Y-82000000D02*
X119000000Y-82000000D01*
X127000000Y-81000000D02*
X127000000Y-50500000D01*
X126000000Y-82000000D02*
G75*
G03*
X127000000Y-81000000I0J1000000D01*
G01*
X117000000Y-81000000D02*
G75*
G03*
X118000000Y-82000000I1000000J0D01*
G01*
X127000000Y-50500000D02*
G75*
G03*
X126000000Y-49500000I-1000000J0D01*
G01*
X118000000Y-49500000D02*
G75*
G03*
X117000000Y-50500000I0J-1000000D01*
G01*
X124500000Y-83000000D02*
X124500000Y-84000000D01*
X119500000Y-86000000D02*
X119500000Y-83000000D01*
X120500000Y-87000000D02*
X120500000Y-86000000D01*
X125500000Y-86000000D02*
X148500000Y-86000000D01*
X124500000Y-84000000D02*
X131500000Y-84000000D01*
X125500000Y-86000000D02*
X125500000Y-87000000D01*
X120500000Y-86000000D02*
X119500000Y-86000000D01*
X103750000Y-53000000D02*
X103750000Y-54000000D01*
X103750000Y-58000000D02*
X103750000Y-59000000D01*
X115000000Y-58000000D02*
X103750000Y-58000000D01*
X110000000Y-40000000D02*
X115000000Y-40000000D01*
X110000000Y-54000000D02*
X110000000Y-40000000D01*
X103750000Y-54000000D02*
X110000000Y-54000000D01*
X98750000Y-59000000D02*
X98750000Y-53000000D01*
X85000000Y-94000000D02*
X85000000Y-135000000D01*
X126000000Y-88000000D02*
X128000000Y-88000000D01*
X117000000Y-111000000D02*
X117000000Y-139000000D01*
X83000000Y-94000000D02*
X83000000Y-138000000D01*
X83000000Y-71000000D02*
X83000000Y-88000000D01*
X85000000Y-88000000D02*
X85000000Y-71000000D01*
X97000000Y-42500000D02*
X97000000Y-49500000D01*
X90000000Y-60000000D02*
G75*
G03*
X85000000Y-65000000I0J-5000000D01*
G01*
X92500000Y-60000000D02*
X92500000Y-67000000D01*
X97000000Y-42500000D02*
G75*
G03*
X96000000Y-42500000I-500000J0D01*
G01*
X93500000Y-68000000D02*
X97000000Y-68000000D01*
X110000000Y-67000000D02*
X110000000Y-60000000D01*
X104500000Y-67000000D02*
X105500000Y-68000000D01*
X85000000Y-135000000D02*
G75*
G03*
X90000000Y-140000000I5000000J0D01*
G01*
X90000000Y-60000000D02*
X92500000Y-60000000D01*
X110000000Y-140000000D02*
G75*
G03*
X115000000Y-135000000I0J5000000D01*
G01*
X104500000Y-60000000D02*
X104500000Y-67000000D01*
D11*
X107685000Y-52000000D02*
X104250000Y-52000000D01*
D10*
X109000000Y-68000000D02*
X110000000Y-67000000D01*
X96000000Y-49500000D02*
G75*
G03*
X97000000Y-49500000I500000J0D01*
G01*
X98000000Y-67000000D02*
X98000000Y-60000000D01*
X96250001Y-40000001D02*
G75*
G03*
X94024087Y-45002278I6749999J-5999999D01*
G01*
X94024086Y-45002278D02*
X94024086Y-46997722D01*
X96000000Y-49500000D02*
X96000000Y-42500000D01*
X92500000Y-67000000D02*
X93500000Y-68000000D01*
X94024087Y-46997722D02*
G75*
G03*
X96250001Y-51999999I8975913J997722D01*
G01*
D11*
X104250000Y-60000000D02*
X104500000Y-60000000D01*
D10*
X115000000Y-65000000D02*
G75*
G03*
X110000000Y-60000000I-5000000J0D01*
G01*
X110000000Y-140000000D02*
X90000000Y-140000000D01*
D11*
X96250001Y-51999999D02*
X98250000Y-52000000D01*
D10*
X97000000Y-68000000D02*
X98000000Y-67000000D01*
D11*
X115000000Y-65000000D02*
X115000000Y-105000000D01*
X115000000Y-111000000D02*
X115000000Y-135000000D01*
D10*
X98000000Y-60000000D02*
X98250000Y-60000000D01*
X105500000Y-68000000D02*
X109000000Y-68000000D01*
X54000000Y-54000000D02*
G75*
G03*
X52000000Y-52000000I-2000000J0D01*
G01*
X47000000Y-50000000D02*
X47000000Y-42000000D01*
X49000000Y-40000000D02*
G75*
G03*
X47000000Y-42000000I0J-2000000D01*
G01*
X49000000Y-96000000D02*
G75*
G03*
X47000000Y-98000000I0J-2000000D01*
G01*
X54000000Y-54000000D02*
X54000000Y-94000000D01*
X52000000Y-52000000D02*
X49000000Y-52000000D01*
X81000000Y-140000000D02*
G75*
G03*
X83000000Y-138000000I0J2000000D01*
G01*
X81000000Y-140000000D02*
X49000000Y-140000000D01*
X52000000Y-96000000D02*
G75*
G03*
X54000000Y-94000000I0J2000000D01*
G01*
X49000000Y-40000000D02*
X81000000Y-40000000D01*
X47000000Y-50000000D02*
G75*
G03*
X49000000Y-52000000I2000000J0D01*
G01*
X83000000Y-42000000D02*
X83000000Y-65000000D01*
X83000000Y-42000000D02*
G75*
G03*
X81000000Y-40000000I-2000000J0D01*
G01*
X52000000Y-96000000D02*
X49000000Y-96000000D01*
X47000000Y-138000000D02*
G75*
G03*
X49000000Y-140000000I2000000J0D01*
G01*
X47000000Y-138000000D02*
X47000000Y-98000000D01*
X129000000Y-89000000D02*
G75*
G03*
X128000000Y-88000000I-1000000J0D01*
G01*
X117000000Y-139000000D02*
G75*
G03*
X118000000Y-140000000I1000000J0D01*
G01*
X120000000Y-88000000D02*
X118000000Y-88000000D01*
X117000000Y-89000000D02*
X117000000Y-105000000D01*
X128000000Y-140000000D02*
G75*
G03*
X129000000Y-139000000I0J1000000D01*
G01*
X129000000Y-139000000D02*
X129000000Y-89000000D01*
X118000000Y-140000000D02*
X128000000Y-140000000D01*
X118000000Y-88000000D02*
G75*
G03*
X117000000Y-89000000I0J-1000000D01*
G01*
D12*
X149000000Y-49500000D02*
X148500000Y-49500000D01*
X148500000Y-48500000D02*
X148500000Y-49500000D01*
X143500000Y-49500000D02*
X143500000Y-48500000D01*
X143500000Y-49500000D02*
X143000000Y-49500000D01*
X131000000Y-82000000D02*
X131500000Y-82000000D01*
X131500000Y-83000000D02*
X131500000Y-82000000D01*
X136500000Y-82000000D02*
X136500000Y-83000000D01*
X136500000Y-82000000D02*
X137000000Y-82000000D01*
X143000000Y-82000000D02*
X143500000Y-82000000D01*
X143500000Y-83000000D02*
X143500000Y-82000000D01*
X148500000Y-82000000D02*
X148500000Y-83000000D01*
X148500000Y-82000000D02*
X149000000Y-82000000D01*
X137000000Y-49500000D02*
X136500000Y-49500000D01*
X136500000Y-48500000D02*
X136500000Y-49500000D01*
X131500000Y-49500000D02*
X131500000Y-48500000D01*
X131500000Y-49500000D02*
X131000000Y-49500000D01*
X124500000Y-82000000D02*
X125000000Y-82000000D01*
X124500000Y-82000000D02*
X124500000Y-83000000D01*
X119500000Y-83000000D02*
X119500000Y-82000000D01*
X119000000Y-82000000D02*
X119500000Y-82000000D01*
X115000000Y-47000000D02*
X115000000Y-46500000D01*
X117000000Y-46500000D02*
X117000000Y-47000000D01*
X117000000Y-46500000D02*
X115000000Y-46500000D01*
X115000000Y-41500000D02*
X117000000Y-41500000D01*
X115000000Y-41500000D02*
X115000000Y-41000000D01*
X117000000Y-41000000D02*
X117000000Y-41500000D01*
X125000000Y-49500000D02*
X124500000Y-49500000D01*
X124500000Y-48500000D02*
X124500000Y-49500000D01*
X119500000Y-49500000D02*
X119500000Y-48500000D01*
X119500000Y-49500000D02*
X119000000Y-49500000D01*
X98250000Y-52000000D02*
X98750000Y-52000000D01*
X98750000Y-53000000D02*
X98750000Y-52000000D01*
X103750000Y-52000000D02*
X103750000Y-53000000D01*
X103750000Y-52000000D02*
X104250000Y-52000000D01*
X104250000Y-60000000D02*
X103750000Y-60000000D01*
X103750000Y-59000000D02*
X103750000Y-60000000D01*
X98750000Y-60000000D02*
X98750000Y-59000000D01*
X98750000Y-60000000D02*
X98250000Y-60000000D01*
X120500000Y-88000000D02*
X120500000Y-87000000D01*
X125500000Y-87000000D02*
X125500000Y-88000000D01*
X126000000Y-88000000D02*
X125500000Y-88000000D01*
X120500000Y-88000000D02*
X120000000Y-88000000D01*
X83000000Y-71000000D02*
X83000000Y-70500000D01*
X85000000Y-70500000D02*
X85000000Y-71000000D01*
X85000000Y-70500000D02*
X83000000Y-70500000D01*
X83000000Y-65500000D02*
X85000000Y-65500000D01*
X83000000Y-65500000D02*
X83000000Y-65000000D01*
X85000000Y-65000000D02*
X85000000Y-65500000D01*
X117000000Y-105000000D02*
X117000000Y-105500000D01*
X115000000Y-105500000D02*
X115000000Y-105000000D01*
X115000000Y-105500000D02*
X117000000Y-105500000D01*
X117000000Y-110500000D02*
X115000000Y-110500000D01*
X117000000Y-110500000D02*
X117000000Y-111000000D01*
X115000000Y-111000000D02*
X115000000Y-110500000D01*
X85000000Y-88000000D02*
X85000000Y-88500000D01*
X83000000Y-88500000D02*
X83000000Y-88000000D01*
X83000000Y-88500000D02*
X85000000Y-88500000D01*
X85000000Y-93500000D02*
X83000000Y-93500000D01*
X85000000Y-93500000D02*
X85000000Y-94000000D01*
X83000000Y-94000000D02*
X83000000Y-93500000D01*
D13*
X108000000Y-40315000D02*
G75*
G03*
X107685000Y-40000000I-315000J0D01*
G01*
X107685000Y-52000000D02*
G75*
G03*
X108000000Y-51685000I1J314999D01*
G01*
X107685000Y-40000000D02*
X96250000Y-40000000D01*
X108000000Y-51685000D02*
X108000000Y-40315000D01*
M02*
