M48
; DRILL file {KiCad 7.0.8} date Wed Oct 18 02:17:38 2023
; FORMAT={-:-/ absolute / inch / decimal}
; #@! TF.CreationDate,2023-10-18T02:17:38-07:00
; #@! TF.GenerationSoftware,Kicad,Pcbnew,7.0.8
; #@! TF.FileFunction,Plated,1,2,PTH
FMAT,2
INCH
; #@! TA.AperFunction,Plated,PTH,ViaDrill
T1C0.0118
; #@! TA.AperFunction,Plated,PTH,ComponentDrill
T2C0.0118
; #@! TA.AperFunction,Plated,PTH,ViaDrill
T3C0.0197
; #@! TA.AperFunction,Plated,PTH,ComponentDrill
T4C0.0236
; #@! TA.AperFunction,Plated,PTH,ComponentDrill
T5C0.0295
; #@! TA.AperFunction,Plated,PTH,ComponentDrill
T6C0.0394
; #@! TA.AperFunction,Plated,PTH,ComponentDrill
T7C0.0402
%
G90
G05
T1
X2.126Y-1.6535
X2.1457Y-1.9685
X2.2047Y-1.6929
X2.2047Y-1.7717
X2.2047Y-1.8898
X2.2047Y-2.6378
X2.2441Y-3.189
X2.3228Y-1.7323
X2.3228Y-1.7717
X2.4016Y-3.7402
X2.4213Y-2.0079
X2.4213Y-2.2244
X2.4409Y-5.1181
X2.4606Y-2.0079
X2.4606Y-2.2244
X2.5Y-2.6378
X2.5197Y-2.4409
X2.5197Y-2.4803
X2.5197Y-3.3071
X2.5197Y-3.9764
X2.5197Y-4.1339
X2.5394Y-1.9488
X2.5591Y-2.2835
X2.5591Y-3.3071
X2.5787Y-1.9488
X2.5984Y-3.3071
X2.5984Y-4.1339
X2.6378Y-2.2441
X2.6772Y-3.8189
X2.6772Y-4.1339
X2.7165Y-2.2835
X2.7165Y-2.3622
X2.7165Y-2.4409
X2.7165Y-3.9764
X2.7362Y-2.126
X2.7362Y-2.1654
X2.7559Y-3.4252
X2.7559Y-4.4488
X2.7953Y-3.1496
X2.7953Y-3.189
X2.7953Y-4.4488
X2.7953Y-5.3543
X2.7953Y-5.4331
X2.8346Y-3.4252
X2.8542Y-4.6846
X2.8543Y-4.4882
X2.8543Y-4.5276
X2.874Y-1.811
X2.874Y-3.8189
X2.874Y-4.2913
X2.9528Y-1.7323
X2.9528Y-3.7795
X2.9528Y-3.8189
X2.9921Y-2.4803
X3.0315Y-2.4803
X3.0315Y-2.5197
X3.0709Y-1.6535
X3.0709Y-3.2677
X3.0709Y-3.7008
X3.0709Y-3.7795
X3.0709Y-3.8583
X3.0709Y-4.0157
X3.1102Y-3.937
X3.1102Y-4.0157
X3.1102Y-4.4488
X3.1496Y-2.3031
X3.1496Y-3.2677
X3.189Y-2.3031
X3.189Y-2.4803
X3.189Y-4.4094
X3.4055Y-4.7638
X3.4646Y-3.189
X3.4695Y-5.3888
X3.5039Y-2.9921
X3.5039Y-3.7008
X3.5039Y-4.4882
X3.5039Y-5.2756
X3.5433Y-5.315
X3.5827Y-5.3543
X3.6614Y-5.0
X3.7008Y-4.6457
X3.7008Y-4.685
X3.7402Y-5.4724
X3.7598Y-5.0
X3.7795Y-4.7638
X3.7992Y-1.6142
X3.7992Y-2.0079
X3.8386Y-1.6339
X3.8386Y-4.2913
X3.8484Y-1.8996
X3.8976Y-1.8996
X3.8976Y-5.1772
X3.937Y-4.7638
X3.9567Y-5.1181
X3.9764Y-3.189
X4.0157Y-2.9921
X4.0157Y-4.6063
X4.0354Y-3.5827
X4.0354Y-4.2913
X4.0551Y-1.6732
X4.0551Y-1.9488
X4.0748Y-4.7638
X4.1142Y-5.0
X4.1142Y-5.0787
X4.1339Y-4.5276
X4.1339Y-4.6457
X4.1339Y-4.7638
X4.1339Y-4.8031
X4.1732Y-4.6457
X4.1732Y-4.8031
X4.1929Y-1.6142
X4.2121Y-4.8031
X4.2126Y-1.8504
X4.2126Y-4.6457
X4.2126Y-4.8425
X4.2323Y-1.6142
X4.2323Y-1.7126
X4.2323Y-5.0394
X4.2323Y-5.0787
X4.252Y-4.5276
X4.252Y-4.5669
X4.2913Y-4.7244
X4.2913Y-5.0
X4.2913Y-5.1181
X4.2913Y-5.1772
X4.2913Y-5.2362
X4.3307Y-4.685
X4.3307Y-4.7638
X4.3701Y-4.7244
X4.3701Y-5.0591
X4.3701Y-5.1181
X4.3701Y-5.1772
X4.4094Y-4.5669
X4.4291Y-4.8425
X4.4291Y-4.8819
X4.4327Y-4.6063
X4.4488Y-4.5276
X4.4488Y-4.8031
X4.4488Y-5.0
X4.4488Y-5.2165
X4.4488Y-5.2559
X4.4882Y-4.6457
X4.4882Y-4.685
X4.4882Y-4.7244
X4.4882Y-4.8031
X4.4882Y-5.1181
X4.626Y-4.6654
X4.6358Y-4.7047
X4.6457Y-3.8189
X4.6457Y-4.5276
X4.6457Y-5.2756
X4.6654Y-2.5591
X4.6654Y-2.5984
X4.6654Y-2.6378
X4.6654Y-3.9961
X4.6654Y-4.1535
X4.6654Y-4.7244
X4.685Y-5.1969
X4.7047Y-3.9961
X4.7047Y-4.1535
X4.7047Y-4.8819
X4.7244Y-4.9642
X4.7244Y-5.2953
X4.7256Y-2.0876
X4.7441Y-4.3898
X4.7539Y-4.7835
X4.7638Y-2.6969
X4.7638Y-3.8976
X4.7638Y-4.0748
X4.7638Y-5.1969
X4.7638Y-5.2953
X4.7736Y-4.6555
X4.7835Y-2.0866
X4.7933Y-5.3937
X4.8031Y-2.3819
X4.8031Y-3.937
X4.8031Y-4.252
X4.8031Y-4.311
X4.8031Y-4.3504
X4.8031Y-4.9643
X4.8031Y-5.2953
X4.813Y-4.6555
X4.8425Y-2.2441
X4.8425Y-2.3819
X4.8425Y-2.7362
X4.8425Y-4.1535
X4.8425Y-4.4291
X4.8425Y-4.4685
X4.8425Y-4.8327
X4.8622Y-4.5669
X4.872Y-4.4488
X4.8819Y-3.937
X4.8819Y-4.2913
X4.8819Y-4.3504
X4.8819Y-5.0984
X4.8819Y-5.2953
X4.8917Y-2.7362
X4.9016Y-2.126
X4.9114Y-4.4488
X4.9213Y-2.7165
X4.9213Y-5.0591
X4.9213Y-5.1181
X4.9409Y-2.2441
X4.9409Y-2.4409
X4.9409Y-2.6083
X4.9409Y-4.4685
X4.9803Y-2.6181
X4.9803Y-2.7362
X4.9803Y-4.5472
X4.9803Y-4.8819
X4.9803Y-4.9409
X4.9818Y-4.5881
X5.0197Y-4.7047
X5.0197Y-4.7441
X5.0197Y-4.8819
X5.0394Y-5.2854
X5.1378Y-2.5591
X5.1378Y-2.5984
X5.1378Y-2.6378
X5.198Y-2.0876
X5.2362Y-2.6969
X5.2559Y-2.0866
X5.2756Y-2.3819
X5.315Y-2.2441
X5.315Y-2.3819
X5.315Y-2.7362
X5.3642Y-2.7362
X5.374Y-2.126
X5.3937Y-2.7165
X5.4134Y-2.2441
X5.4134Y-2.4409
X5.4134Y-2.6083
X5.4528Y-2.6181
X5.4528Y-2.7362
X5.6102Y-2.5591
X5.6102Y-2.5984
X5.6102Y-2.6378
X5.6705Y-2.0876
X5.7087Y-2.6969
X5.7283Y-2.0866
X5.748Y-2.3819
X5.7874Y-2.2441
X5.7874Y-2.3819
X5.7874Y-2.7362
X5.8366Y-2.7362
X5.8465Y-2.126
X5.8661Y-2.7165
X5.8858Y-2.2441
X5.8858Y-2.4409
X5.8858Y-2.6083
X5.9252Y-2.6181
X5.9252Y-2.7362
T2
X2.4039Y-2.9449
X2.4039Y-3.0
X2.4315Y-2.9173
X2.4315Y-2.9724
X2.4315Y-3.0276
X2.4591Y-2.9449
X2.4591Y-3.0
X2.4866Y-2.9173
X2.4866Y-2.9724
X2.4866Y-3.0276
X2.5142Y-2.9449
X2.5142Y-3.0
T3
X1.9685Y-3.8976
X1.9685Y-4.3701
X2.0079Y-4.3701
X2.0472Y-4.3701
X2.0866Y-5.3937
X2.0866Y-5.4724
X2.2047Y-2.0079
X2.2047Y-2.874
X2.2047Y-5.315
X2.2047Y-5.4724
X2.2051Y-3.1299
X2.2835Y-5.315
X2.2835Y-5.4724
X2.3228Y-2.0079
X2.3228Y-3.5039
X2.3622Y-1.9685
X2.3622Y-2.3228
X2.3819Y-4.2126
X2.3819Y-4.4882
X2.3819Y-4.5276
X2.3819Y-4.6063
X2.3819Y-4.6457
X2.4016Y-1.9291
X2.4016Y-4.9606
X2.4409Y-2.0866
X2.4606Y-1.9291
X2.4803Y-4.9606
X2.6575Y-1.9291
X2.7953Y-2.2441
X2.7953Y-2.874
X2.9528Y-2.0079
X2.9528Y-2.4803
X2.9921Y-1.6535
X2.9921Y-1.8504
X2.9921Y-5.315
X2.9921Y-5.4724
X3.0709Y-1.811
X3.0709Y-2.0866
X3.1102Y-2.7953
X3.1496Y-2.1654
X3.1496Y-2.5197
X3.3858Y-4.9213
X3.4055Y-3.6614
X3.4252Y-4.0157
X3.4646Y-3.8583
X3.4646Y-5.0787
X3.4646Y-5.1181
X3.5039Y-5.2362
X3.5433Y-3.189
X3.5827Y-2.9921
X3.6614Y-5.3937
X3.7008Y-3.3071
X3.7402Y-3.3071
X3.7402Y-5.3937
X3.7795Y-3.3071
X3.7795Y-5.1181
X3.7795Y-5.1575
X3.8189Y-3.3071
X3.8386Y-3.5827
X3.8583Y-4.6457
X3.8583Y-4.685
X3.8583Y-4.7244
X3.8583Y-4.7638
X3.8583Y-4.9649
X3.937Y-4.2913
X3.9764Y-4.4094
X4.0551Y-3.189
X4.0551Y-5.0787
X4.0945Y-2.9921
X4.4094Y-3.8583
X4.4094Y-4.0157
X4.4685Y-4.2126
X4.4882Y-3.6614
X4.6457Y-2.4114
X4.685Y-2.2835
X4.7047Y-2.7165
X4.7146Y-2.8937
X4.7638Y-2.5197
X4.8031Y-2.8346
X4.8031Y-4.7047
X4.8031Y-4.7835
X4.8031Y-5.0787
X4.8425Y-2.5984
X4.8425Y-3.8583
X4.8425Y-4.1142
X4.8819Y-2.0866
X4.8819Y-4.7047
X4.8819Y-4.7835
X4.8917Y-2.8937
X4.9213Y-3.8976
X4.9409Y-3.7992
X4.9606Y-3.9961
X5.0394Y-5.0787
X5.1181Y-2.4114
X5.1575Y-2.2835
X5.1772Y-2.7165
X5.187Y-2.8937
X5.2362Y-2.5197
X5.2756Y-2.8346
X5.315Y-2.5984
X5.3543Y-2.0866
X5.3642Y-2.8937
X5.5906Y-2.4114
X5.6299Y-2.2835
X5.6496Y-2.7165
X5.6594Y-2.8937
X5.7087Y-2.5197
X5.748Y-2.8346
X5.7874Y-2.5984
X5.8268Y-2.0866
X5.8366Y-2.8937
T5
X3.1102Y-2.6378
X3.1102Y-2.7165
T6
X2.4984Y-5.3937
X2.5984Y-5.3937
X2.6984Y-5.3937
T7
X3.5504Y-2.7677
X3.6504Y-2.7677
X3.7504Y-2.7677
X3.8504Y-2.7677
X4.0228Y-2.7677
X4.1228Y-2.7677
X4.2228Y-2.7677
X4.3228Y-2.7677
T4
G00X2.389Y-1.7018
M15
G01X2.389Y-1.6781
M16
G05
G00X2.389Y-1.8762
M15
G01X2.389Y-1.8329
M16
G05
G00X2.7291Y-1.7018
M15
G01X2.7291Y-1.6781
M16
G05
G00X2.7291Y-1.8762
M15
G01X2.7291Y-1.8329
M16
G05
G00X4.6331Y-2.9398
M15
G01X4.6331Y-2.9831
M16
G05
G00X4.6331Y-3.1142
M15
G01X4.6331Y-3.1378
M16
G05
G00X4.6724Y-3.5831
M15
G01X4.6724Y-3.5594
M16
G05
G00X4.6724Y-3.7575
M15
G01X4.6724Y-3.7142
M16
G05
G00X4.9732Y-2.9398
M15
G01X4.9732Y-2.9831
M16
G05
G00X4.9732Y-3.1142
M15
G01X4.9732Y-3.1378
M16
G05
G00X5.0126Y-3.5831
M15
G01X5.0126Y-3.5594
M16
G05
G00X5.0126Y-3.7575
M15
G01X5.0126Y-3.7142
M16
G05
G00X5.1055Y-2.9398
M15
G01X5.1055Y-2.9831
M16
G05
G00X5.1055Y-3.1142
M15
G01X5.1055Y-3.1378
M16
G05
G00X5.4457Y-2.9398
M15
G01X5.4457Y-2.9831
M16
G05
G00X5.4457Y-3.1142
M15
G01X5.4457Y-3.1378
M16
G05
G00X5.578Y-2.9398
M15
G01X5.578Y-2.9831
M16
G05
G00X5.578Y-3.1142
M15
G01X5.578Y-3.1378
M16
G05
G00X5.9181Y-2.9398
M15
G01X5.9181Y-2.9831
M16
G05
G00X5.9181Y-3.1142
M15
G01X5.9181Y-3.1378
M16
G05
T0
M30
