G04 #@! TF.GenerationSoftware,KiCad,Pcbnew,7.0.8*
G04 #@! TF.CreationDate,2023-10-18T02:17:35-07:00*
G04 #@! TF.ProjectId,IotFan,496f7446-616e-42e6-9b69-6361645f7063,rev?*
G04 #@! TF.SameCoordinates,Original*
G04 #@! TF.FileFunction,Paste,Top*
G04 #@! TF.FilePolarity,Positive*
%FSLAX46Y46*%
G04 Gerber Fmt 4.6, Leading zero omitted, Abs format (unit mm)*
G04 Created by KiCad (PCBNEW 7.0.8) date 2023-10-18 02:17:35*
%MOMM*%
%LPD*%
G01*
G04 APERTURE LIST*
G04 Aperture macros list*
%AMRoundRect*
0 Rectangle with rounded corners*
0 $1 Rounding radius*
0 $2 $3 $4 $5 $6 $7 $8 $9 X,Y pos of 4 corners*
0 Add a 4 corners polygon primitive as box body*
4,1,4,$2,$3,$4,$5,$6,$7,$8,$9,$2,$3,0*
0 Add four circle primitives for the rounded corners*
1,1,$1+$1,$2,$3*
1,1,$1+$1,$4,$5*
1,1,$1+$1,$6,$7*
1,1,$1+$1,$8,$9*
0 Add four rect primitives between the rounded corners*
20,1,$1+$1,$2,$3,$4,$5,0*
20,1,$1+$1,$4,$5,$6,$7,0*
20,1,$1+$1,$6,$7,$8,$9,0*
20,1,$1+$1,$8,$9,$2,$3,0*%
%AMRotRect*
0 Rectangle, with rotation*
0 The origin of the aperture is its center*
0 $1 length*
0 $2 width*
0 $3 Rotation angle, in degrees counterclockwise*
0 Add horizontal line*
21,1,$1,$2,0,0,$3*%
%AMFreePoly0*
4,1,6,0.110000,-0.125000,-0.110000,-0.125000,-0.290000,0.055000,-0.290000,0.125000,0.110000,0.125000,0.110000,-0.125000,0.110000,-0.125000,$1*%
%AMFreePoly1*
4,1,7,0.110000,-0.125000,-0.110000,-0.125000,-0.290000,-0.125000,-0.290000,-0.055000,-0.110000,0.125000,0.110000,0.125000,0.110000,-0.125000,0.110000,-0.125000,$1*%
%AMFreePoly2*
4,1,6,0.290000,-0.055000,0.290000,-0.125000,-0.110000,-0.125000,-0.110000,0.125000,0.110000,0.125000,0.290000,-0.055000,0.290000,-0.055000,$1*%
%AMFreePoly3*
4,1,5,0.110000,-0.125000,-0.110000,-0.125000,-0.110000,0.125000,0.360000,0.125000,0.110000,-0.125000,0.110000,-0.125000,$1*%
%AMFreePoly4*
4,1,9,3.862500,-0.866500,0.737500,-0.866500,0.737500,-0.450000,-0.737500,-0.450000,-0.737500,0.450000,0.737500,0.450000,0.737500,0.866500,3.862500,0.866500,3.862500,-0.866500,3.862500,-0.866500,$1*%
G04 Aperture macros list end*
%ADD10R,0.450000X0.700000*%
%ADD11RoundRect,0.112500X0.112500X-0.187500X0.112500X0.187500X-0.112500X0.187500X-0.112500X-0.187500X0*%
%ADD12RoundRect,0.140000X-0.170000X0.140000X-0.170000X-0.140000X0.170000X-0.140000X0.170000X0.140000X0*%
%ADD13RoundRect,0.135000X0.185000X-0.135000X0.185000X0.135000X-0.185000X0.135000X-0.185000X-0.135000X0*%
%ADD14R,0.300000X1.150000*%
%ADD15RoundRect,0.225000X0.225000X-0.225000X0.225000X0.225000X-0.225000X0.225000X-0.225000X-0.225000X0*%
%ADD16RoundRect,0.062500X0.062500X-0.337500X0.062500X0.337500X-0.062500X0.337500X-0.062500X-0.337500X0*%
%ADD17RoundRect,0.062500X0.337500X-0.062500X0.337500X0.062500X-0.337500X0.062500X-0.337500X-0.062500X0*%
%ADD18RoundRect,0.218750X0.256250X-0.218750X0.256250X0.218750X-0.256250X0.218750X-0.256250X-0.218750X0*%
%ADD19RoundRect,0.135000X-0.185000X0.135000X-0.185000X-0.135000X0.185000X-0.135000X0.185000X0.135000X0*%
%ADD20RoundRect,0.140000X0.170000X-0.140000X0.170000X0.140000X-0.170000X0.140000X-0.170000X-0.140000X0*%
%ADD21R,1.700000X2.340000*%
%ADD22RoundRect,0.150000X0.150000X-0.587500X0.150000X0.587500X-0.150000X0.587500X-0.150000X-0.587500X0*%
%ADD23RoundRect,0.250000X-0.475000X0.250000X-0.475000X-0.250000X0.475000X-0.250000X0.475000X0.250000X0*%
%ADD24RoundRect,0.150000X0.150000X-0.512500X0.150000X0.512500X-0.150000X0.512500X-0.150000X-0.512500X0*%
%ADD25RoundRect,0.250000X-0.450000X1.175000X-0.450000X-1.175000X0.450000X-1.175000X0.450000X1.175000X0*%
%ADD26RotRect,0.500000X0.500000X60.000000*%
%ADD27RoundRect,0.150000X0.150000X-0.825000X0.150000X0.825000X-0.150000X0.825000X-0.150000X-0.825000X0*%
%ADD28RoundRect,0.225000X0.250000X-0.225000X0.250000X0.225000X-0.250000X0.225000X-0.250000X-0.225000X0*%
%ADD29RoundRect,0.250000X0.450000X-1.175000X0.450000X1.175000X-0.450000X1.175000X-0.450000X-1.175000X0*%
%ADD30R,4.000000X1.500000*%
%ADD31RoundRect,0.200000X0.275000X-0.200000X0.275000X0.200000X-0.275000X0.200000X-0.275000X-0.200000X0*%
%ADD32RoundRect,0.112500X0.112500X-0.112500X0.112500X0.112500X-0.112500X0.112500X-0.112500X-0.112500X0*%
%ADD33RotRect,0.500000X0.500000X200.000000*%
%ADD34RotRect,0.500000X0.500000X240.000000*%
%ADD35RotRect,0.500000X0.500000X160.000000*%
%ADD36RoundRect,0.250000X-0.707107X-0.176777X-0.176777X-0.707107X0.707107X0.176777X0.176777X0.707107X0*%
%ADD37RoundRect,0.150000X0.512500X0.150000X-0.512500X0.150000X-0.512500X-0.150000X0.512500X-0.150000X0*%
%ADD38RoundRect,0.140000X0.140000X0.170000X-0.140000X0.170000X-0.140000X-0.170000X0.140000X-0.170000X0*%
%ADD39RoundRect,0.245000X0.346482X0.000000X0.000000X0.346482X-0.346482X0.000000X0.000000X-0.346482X0*%
%ADD40RoundRect,0.062500X0.265165X-0.176777X-0.176777X0.265165X-0.265165X0.176777X0.176777X-0.265165X0*%
%ADD41RoundRect,0.062500X0.265165X0.176777X0.176777X0.265165X-0.265165X-0.176777X-0.176777X-0.265165X0*%
%ADD42RoundRect,0.200000X-0.275000X0.200000X-0.275000X-0.200000X0.275000X-0.200000X0.275000X0.200000X0*%
%ADD43RoundRect,0.135000X-0.135000X-0.185000X0.135000X-0.185000X0.135000X0.185000X-0.135000X0.185000X0*%
%ADD44RoundRect,0.225000X-0.250000X0.225000X-0.250000X-0.225000X0.250000X-0.225000X0.250000X0.225000X0*%
%ADD45RotRect,0.500000X0.500000X40.000000*%
%ADD46RoundRect,0.250000X0.475000X-0.250000X0.475000X0.250000X-0.475000X0.250000X-0.475000X-0.250000X0*%
%ADD47R,0.500000X0.500000*%
%ADD48RoundRect,0.218750X0.335876X0.026517X0.026517X0.335876X-0.335876X-0.026517X-0.026517X-0.335876X0*%
%ADD49RotRect,0.500000X0.500000X280.000000*%
%ADD50RotRect,0.500000X0.500000X220.000000*%
%ADD51RotRect,0.500000X0.500000X20.000000*%
%ADD52RotRect,0.500000X0.500000X260.000000*%
%ADD53RoundRect,0.225000X0.225000X0.250000X-0.225000X0.250000X-0.225000X-0.250000X0.225000X-0.250000X0*%
%ADD54RotRect,0.500000X0.500000X120.000000*%
%ADD55RoundRect,0.200000X-0.200000X-0.275000X0.200000X-0.275000X0.200000X0.275000X-0.200000X0.275000X0*%
%ADD56RotRect,0.500000X0.500000X80.000000*%
%ADD57RotRect,0.500000X0.500000X300.000000*%
%ADD58RotRect,0.500000X0.500000X140.000000*%
%ADD59RoundRect,0.112500X-0.187500X-0.112500X0.187500X-0.112500X0.187500X0.112500X-0.187500X0.112500X0*%
%ADD60R,3.300000X4.400000*%
%ADD61R,3.900000X6.200000*%
%ADD62RotRect,0.480000X0.480000X225.000000*%
%ADD63FreePoly0,180.000000*%
%ADD64FreePoly1,180.000000*%
%ADD65FreePoly2,180.000000*%
%ADD66FreePoly3,180.000000*%
%ADD67RoundRect,0.250000X-0.650000X0.325000X-0.650000X-0.325000X0.650000X-0.325000X0.650000X0.325000X0*%
%ADD68RoundRect,0.225000X-0.225000X-0.250000X0.225000X-0.250000X0.225000X0.250000X-0.225000X0.250000X0*%
%ADD69RoundRect,0.062500X-0.062500X-0.375000X0.062500X-0.375000X0.062500X0.375000X-0.062500X0.375000X0*%
%ADD70RoundRect,0.062500X-0.375000X-0.062500X0.375000X-0.062500X0.375000X0.062500X-0.375000X0.062500X0*%
%ADD71RoundRect,0.232500X-0.232500X-0.232500X0.232500X-0.232500X0.232500X0.232500X-0.232500X0.232500X0*%
%ADD72RoundRect,0.135000X0.135000X0.185000X-0.135000X0.185000X-0.135000X-0.185000X0.135000X-0.185000X0*%
%ADD73R,1.000000X1.150000*%
%ADD74R,0.900000X1.300000*%
%ADD75FreePoly4,270.000000*%
%ADD76RoundRect,0.218750X-0.256250X0.218750X-0.256250X-0.218750X0.256250X-0.218750X0.256250X0.218750X0*%
%ADD77R,1.300000X2.400000*%
%ADD78R,2.500000X3.200000*%
%ADD79R,3.750000X4.000000*%
%ADD80RoundRect,0.140000X-0.140000X-0.170000X0.140000X-0.170000X0.140000X0.170000X-0.140000X0.170000X0*%
%ADD81RotRect,0.500000X0.500000X100.000000*%
%ADD82RotRect,0.500000X0.500000X320.000000*%
%ADD83RotRect,0.500000X0.500000X340.000000*%
%ADD84FreePoly4,90.000000*%
%ADD85RoundRect,0.145000X-0.145000X0.145000X-0.145000X-0.145000X0.145000X-0.145000X0.145000X0.145000X0*%
%ADD86RoundRect,0.062500X-0.062500X0.375000X-0.062500X-0.375000X0.062500X-0.375000X0.062500X0.375000X0*%
%ADD87RoundRect,0.062500X-0.375000X0.062500X-0.375000X-0.062500X0.375000X-0.062500X0.375000X0.062500X0*%
%ADD88R,1.300000X0.300000*%
%ADD89R,2.200000X1.800000*%
%ADD90R,4.200000X1.400000*%
%ADD91R,0.450000X0.630000*%
%ADD92R,0.630000X0.480000*%
%ADD93RoundRect,0.150000X-0.150000X0.825000X-0.150000X-0.825000X0.150000X-0.825000X0.150000X0.825000X0*%
%ADD94RoundRect,0.250000X-0.362500X-1.425000X0.362500X-1.425000X0.362500X1.425000X-0.362500X1.425000X0*%
%ADD95R,0.900000X0.900000*%
%ADD96R,0.900000X1.500000*%
%ADD97R,1.500000X0.900000*%
%ADD98RoundRect,0.250000X0.650000X-0.325000X0.650000X0.325000X-0.650000X0.325000X-0.650000X-0.325000X0*%
%ADD99RoundRect,0.650000X-0.950000X0.650000X-0.950000X-0.650000X0.950000X-0.650000X0.950000X0.650000X0*%
%ADD100RoundRect,0.150000X-0.150000X0.587500X-0.150000X-0.587500X0.150000X-0.587500X0.150000X0.587500X0*%
%ADD101RoundRect,0.145000X-0.145000X-0.145000X0.145000X-0.145000X0.145000X0.145000X-0.145000X0.145000X0*%
%ADD102RoundRect,0.062500X-0.275000X-0.062500X0.275000X-0.062500X0.275000X0.062500X-0.275000X0.062500X0*%
%ADD103RoundRect,0.062500X-0.062500X-0.275000X0.062500X-0.275000X0.062500X0.275000X-0.062500X0.275000X0*%
%ADD104RoundRect,0.250000X0.250000X0.475000X-0.250000X0.475000X-0.250000X-0.475000X0.250000X-0.475000X0*%
%ADD105R,0.400000X1.900000*%
%ADD106RoundRect,0.150000X-0.150000X0.512500X-0.150000X-0.512500X0.150000X-0.512500X0.150000X0.512500X0*%
%ADD107RoundRect,0.150000X-0.650000X-0.150000X0.650000X-0.150000X0.650000X0.150000X-0.650000X0.150000X0*%
%ADD108RoundRect,0.050000X-0.050000X-0.387500X0.050000X-0.387500X0.050000X0.387500X-0.050000X0.387500X0*%
%ADD109RoundRect,0.050000X-0.387500X-0.050000X0.387500X-0.050000X0.387500X0.050000X-0.387500X0.050000X0*%
%ADD110RoundRect,0.249999X-0.395001X-0.395001X0.395001X-0.395001X0.395001X0.395001X-0.395001X0.395001X0*%
%ADD111RoundRect,0.112500X-0.112500X0.187500X-0.112500X-0.187500X0.112500X-0.187500X0.112500X0.187500X0*%
G04 APERTURE END LIST*
D10*
X148850000Y-56000000D03*
X150150000Y-56000000D03*
X149500000Y-54000000D03*
D11*
X142000000Y-72050000D03*
X142000000Y-69950000D03*
D12*
X149500000Y-70520000D03*
X149500000Y-71480000D03*
D13*
X146000000Y-59510000D03*
X146000000Y-58490000D03*
D14*
X142650000Y-74655000D03*
X143450000Y-74655000D03*
X144750000Y-74655000D03*
X145750000Y-74655000D03*
X146250000Y-74655000D03*
X147250000Y-74655000D03*
X148550000Y-74655000D03*
X149350000Y-74655000D03*
X149050000Y-74655000D03*
X148250000Y-74655000D03*
X147750000Y-74655000D03*
X146750000Y-74655000D03*
X145250000Y-74655000D03*
X144250000Y-74655000D03*
X143750000Y-74655000D03*
X142950000Y-74655000D03*
D10*
X145850000Y-56000000D03*
X147150000Y-56000000D03*
X146500000Y-54000000D03*
D15*
X144880000Y-66120000D03*
X146000000Y-66120000D03*
X147120000Y-66120000D03*
X144880000Y-65000000D03*
X146000000Y-65000000D03*
X147120000Y-65000000D03*
X144880000Y-63880000D03*
X146000000Y-63880000D03*
X147120000Y-63880000D03*
D16*
X144500000Y-67450000D03*
X145000000Y-67450000D03*
X145500000Y-67450000D03*
X146000000Y-67450000D03*
X146500000Y-67450000D03*
X147000000Y-67450000D03*
X147500000Y-67450000D03*
D17*
X148450000Y-66500000D03*
X148450000Y-66000000D03*
X148450000Y-65500000D03*
X148450000Y-65000000D03*
X148450000Y-64500000D03*
X148450000Y-64000000D03*
X148450000Y-63500000D03*
D16*
X147500000Y-62550000D03*
X147000000Y-62550000D03*
X146500000Y-62550000D03*
X146000000Y-62550000D03*
X145500000Y-62550000D03*
X145000000Y-62550000D03*
X144500000Y-62550000D03*
D17*
X143550000Y-63500000D03*
X143550000Y-64000000D03*
X143550000Y-64500000D03*
X143550000Y-65000000D03*
X143550000Y-65500000D03*
X143550000Y-66000000D03*
X143550000Y-66500000D03*
D12*
X150500000Y-70520000D03*
X150500000Y-71480000D03*
D13*
X147000000Y-59510000D03*
X147000000Y-58490000D03*
D18*
X148500000Y-59787500D03*
X148500000Y-58212500D03*
D19*
X150500000Y-61990000D03*
X150500000Y-63010000D03*
D20*
X150500000Y-67980000D03*
X150500000Y-67020000D03*
D12*
X142000000Y-62020000D03*
X142000000Y-62980000D03*
D18*
X150000000Y-59787500D03*
X150000000Y-58212500D03*
D21*
X143455000Y-50870000D03*
X145995000Y-50870000D03*
X148535000Y-50870000D03*
D19*
X150500000Y-64490000D03*
X150500000Y-65510000D03*
D22*
X145050000Y-71937500D03*
X146950000Y-71937500D03*
X146000000Y-70062500D03*
D23*
X143000000Y-54050000D03*
X143000000Y-55950000D03*
D19*
X148250000Y-70490000D03*
X148250000Y-71510000D03*
X143750000Y-70490000D03*
X143750000Y-71510000D03*
D24*
X142050000Y-60137500D03*
X143000000Y-60137500D03*
X143950000Y-60137500D03*
X143950000Y-57862500D03*
X142050000Y-57862500D03*
D10*
X136850000Y-56000000D03*
X138150000Y-56000000D03*
X137500000Y-54000000D03*
D11*
X130000000Y-72050000D03*
X130000000Y-69950000D03*
D12*
X137500000Y-70520000D03*
X137500000Y-71480000D03*
D13*
X134000000Y-59510000D03*
X134000000Y-58490000D03*
D14*
X130650000Y-74655000D03*
X131450000Y-74655000D03*
X132750000Y-74655000D03*
X133750000Y-74655000D03*
X134250000Y-74655000D03*
X135250000Y-74655000D03*
X136550000Y-74655000D03*
X137350000Y-74655000D03*
X137050000Y-74655000D03*
X136250000Y-74655000D03*
X135750000Y-74655000D03*
X134750000Y-74655000D03*
X133250000Y-74655000D03*
X132250000Y-74655000D03*
X131750000Y-74655000D03*
X130950000Y-74655000D03*
D10*
X133850000Y-56000000D03*
X135150000Y-56000000D03*
X134500000Y-54000000D03*
D15*
X132880000Y-66120000D03*
X134000000Y-66120000D03*
X135120000Y-66120000D03*
X132880000Y-65000000D03*
X134000000Y-65000000D03*
X135120000Y-65000000D03*
X132880000Y-63880000D03*
X134000000Y-63880000D03*
X135120000Y-63880000D03*
D16*
X132500000Y-67450000D03*
X133000000Y-67450000D03*
X133500000Y-67450000D03*
X134000000Y-67450000D03*
X134500000Y-67450000D03*
X135000000Y-67450000D03*
X135500000Y-67450000D03*
D17*
X136450000Y-66500000D03*
X136450000Y-66000000D03*
X136450000Y-65500000D03*
X136450000Y-65000000D03*
X136450000Y-64500000D03*
X136450000Y-64000000D03*
X136450000Y-63500000D03*
D16*
X135500000Y-62550000D03*
X135000000Y-62550000D03*
X134500000Y-62550000D03*
X134000000Y-62550000D03*
X133500000Y-62550000D03*
X133000000Y-62550000D03*
X132500000Y-62550000D03*
D17*
X131550000Y-63500000D03*
X131550000Y-64000000D03*
X131550000Y-64500000D03*
X131550000Y-65000000D03*
X131550000Y-65500000D03*
X131550000Y-66000000D03*
X131550000Y-66500000D03*
D12*
X138500000Y-70520000D03*
X138500000Y-71480000D03*
D13*
X135000000Y-59510000D03*
X135000000Y-58490000D03*
D18*
X136500000Y-59787500D03*
X136500000Y-58212500D03*
D19*
X138500000Y-61990000D03*
X138500000Y-63010000D03*
D20*
X138500000Y-67980000D03*
X138500000Y-67020000D03*
D12*
X130000000Y-62020000D03*
X130000000Y-62980000D03*
D18*
X138000000Y-59787500D03*
X138000000Y-58212500D03*
D21*
X131455000Y-50870000D03*
X133995000Y-50870000D03*
X136535000Y-50870000D03*
D19*
X138500000Y-64490000D03*
X138500000Y-65510000D03*
D22*
X133050000Y-71937500D03*
X134950000Y-71937500D03*
X134000000Y-70062500D03*
D23*
X131000000Y-54050000D03*
X131000000Y-55950000D03*
D19*
X136250000Y-70490000D03*
X136250000Y-71510000D03*
X131750000Y-70490000D03*
X131750000Y-71510000D03*
D24*
X130050000Y-60137500D03*
X131000000Y-60137500D03*
X131950000Y-60137500D03*
X131950000Y-57862500D03*
X130050000Y-57862500D03*
X118050000Y-57862500D03*
X119950000Y-57862500D03*
X119950000Y-60137500D03*
X119000000Y-60137500D03*
X118050000Y-60137500D03*
D19*
X119750000Y-71510000D03*
X119750000Y-70490000D03*
X124250000Y-71510000D03*
X124250000Y-70490000D03*
D23*
X119000000Y-55950000D03*
X119000000Y-54050000D03*
D22*
X122000000Y-70062500D03*
X122950000Y-71937500D03*
X121050000Y-71937500D03*
D19*
X126500000Y-65510000D03*
X126500000Y-64490000D03*
D21*
X119455000Y-50870000D03*
X121995000Y-50870000D03*
X124535000Y-50870000D03*
D18*
X126000000Y-58212500D03*
X126000000Y-59787500D03*
D12*
X118000000Y-62980000D03*
X118000000Y-62020000D03*
D20*
X126500000Y-67020000D03*
X126500000Y-67980000D03*
D19*
X126500000Y-63010000D03*
X126500000Y-61990000D03*
D18*
X124500000Y-58212500D03*
X124500000Y-59787500D03*
D13*
X123000000Y-58490000D03*
X123000000Y-59510000D03*
D12*
X126500000Y-71480000D03*
X126500000Y-70520000D03*
D17*
X119550000Y-66500000D03*
X119550000Y-66000000D03*
X119550000Y-65500000D03*
X119550000Y-65000000D03*
X119550000Y-64500000D03*
X119550000Y-64000000D03*
X119550000Y-63500000D03*
D16*
X120500000Y-62550000D03*
X121000000Y-62550000D03*
X121500000Y-62550000D03*
X122000000Y-62550000D03*
X122500000Y-62550000D03*
X123000000Y-62550000D03*
X123500000Y-62550000D03*
D17*
X124450000Y-63500000D03*
X124450000Y-64000000D03*
X124450000Y-64500000D03*
X124450000Y-65000000D03*
X124450000Y-65500000D03*
X124450000Y-66000000D03*
X124450000Y-66500000D03*
D16*
X123500000Y-67450000D03*
X123000000Y-67450000D03*
X122500000Y-67450000D03*
X122000000Y-67450000D03*
X121500000Y-67450000D03*
X121000000Y-67450000D03*
X120500000Y-67450000D03*
D15*
X123120000Y-63880000D03*
X122000000Y-63880000D03*
X120880000Y-63880000D03*
X123120000Y-65000000D03*
X122000000Y-65000000D03*
X120880000Y-65000000D03*
X123120000Y-66120000D03*
X122000000Y-66120000D03*
X120880000Y-66120000D03*
D10*
X122500000Y-54000000D03*
X123150000Y-56000000D03*
X121850000Y-56000000D03*
D14*
X118950000Y-74655000D03*
X119750000Y-74655000D03*
X120250000Y-74655000D03*
X121250000Y-74655000D03*
X122750000Y-74655000D03*
X123750000Y-74655000D03*
X124250000Y-74655000D03*
X125050000Y-74655000D03*
X125350000Y-74655000D03*
X124550000Y-74655000D03*
X123250000Y-74655000D03*
X122250000Y-74655000D03*
X121750000Y-74655000D03*
X120750000Y-74655000D03*
X119450000Y-74655000D03*
X118650000Y-74655000D03*
D13*
X122000000Y-58490000D03*
X122000000Y-59510000D03*
D12*
X125500000Y-71480000D03*
X125500000Y-70520000D03*
D11*
X118000000Y-69950000D03*
X118000000Y-72050000D03*
D10*
X125500000Y-54000000D03*
X126150000Y-56000000D03*
X124850000Y-56000000D03*
D25*
X86000000Y-112000000D03*
D26*
X106385289Y-88040711D03*
X107164711Y-88490711D03*
X107614711Y-87711289D03*
X106835289Y-87261289D03*
D27*
X94095000Y-81475000D03*
X95365000Y-81475000D03*
X96635000Y-81475000D03*
X97905000Y-81475000D03*
X97905000Y-76525000D03*
X96635000Y-76525000D03*
X95365000Y-76525000D03*
X94095000Y-76525000D03*
X107095000Y-81475000D03*
X108365000Y-81475000D03*
X109635000Y-81475000D03*
X110905000Y-81475000D03*
X110905000Y-76525000D03*
X109635000Y-76525000D03*
X108365000Y-76525000D03*
X107095000Y-76525000D03*
D28*
X110000000Y-114775000D03*
X110000000Y-113225000D03*
D22*
X89050000Y-77937500D03*
X90950000Y-77937500D03*
X90000000Y-76062500D03*
D29*
X86000000Y-127000000D03*
D30*
X90000000Y-119200000D03*
X90000000Y-122800000D03*
D31*
X105000000Y-82825000D03*
X105000000Y-81175000D03*
D32*
X98425000Y-46425000D03*
X98425000Y-45575000D03*
X97575000Y-45575000D03*
X97575000Y-46425000D03*
D31*
X86000000Y-123575000D03*
X86000000Y-121925000D03*
D33*
X87420771Y-105056953D03*
X87112953Y-104211229D03*
X86267229Y-104519047D03*
X86575047Y-105364771D03*
D34*
X93614711Y-111959289D03*
X92835289Y-111509289D03*
X92385289Y-112288711D03*
X93164711Y-112738711D03*
D35*
X87112953Y-95788771D03*
X87420771Y-94943047D03*
X86575047Y-94635229D03*
X86267229Y-95480953D03*
D36*
X110510051Y-135510051D03*
X112489949Y-137489949D03*
D37*
X91137500Y-116950000D03*
X91137500Y-116000000D03*
X91137500Y-115050000D03*
X88862500Y-115050000D03*
X88862500Y-116000000D03*
X88862500Y-116950000D03*
D31*
X92000000Y-82825000D03*
X92000000Y-81175000D03*
D38*
X98020000Y-42500000D03*
X98980000Y-42500000D03*
D39*
X110000000Y-121725341D03*
X110862670Y-120862670D03*
X111725341Y-120000000D03*
X109137330Y-120862670D03*
X110000000Y-120000000D03*
X110862670Y-119137330D03*
X108274659Y-120000000D03*
X109137330Y-119137330D03*
X110000000Y-118274659D03*
D40*
X110512652Y-122987526D03*
X110866206Y-122633973D03*
X111219759Y-122280419D03*
X111573313Y-121926866D03*
X111926866Y-121573313D03*
X112280419Y-121219759D03*
X112633973Y-120866206D03*
X112987526Y-120512652D03*
D41*
X112987526Y-119487348D03*
X112633973Y-119133794D03*
X112280419Y-118780241D03*
X111926866Y-118426687D03*
X111573313Y-118073134D03*
X111219759Y-117719581D03*
X110866206Y-117366027D03*
X110512652Y-117012474D03*
D40*
X109487348Y-117012474D03*
X109133794Y-117366027D03*
X108780241Y-117719581D03*
X108426687Y-118073134D03*
X108073134Y-118426687D03*
X107719581Y-118780241D03*
X107366027Y-119133794D03*
X107012474Y-119487348D03*
D41*
X107012474Y-120512652D03*
X107366027Y-120866206D03*
X107719581Y-121219759D03*
X108073134Y-121573313D03*
X108426687Y-121926866D03*
X108780241Y-122280419D03*
X109133794Y-122633973D03*
X109487348Y-122987526D03*
D42*
X96000000Y-121925000D03*
X96000000Y-123575000D03*
D22*
X88050000Y-82937500D03*
X89950000Y-82937500D03*
X89000000Y-81062500D03*
D43*
X100410000Y-45000000D03*
X99390000Y-45000000D03*
D44*
X103500000Y-118225000D03*
X103500000Y-119775000D03*
D31*
X114000000Y-116825000D03*
X114000000Y-115175000D03*
D45*
X110091026Y-90945534D03*
X110669534Y-91634974D03*
X111358974Y-91056466D03*
X110780466Y-90367026D03*
D43*
X100410000Y-46000000D03*
X99390000Y-46000000D03*
D42*
X88000000Y-111175000D03*
X88000000Y-112825000D03*
D44*
X86000000Y-115225000D03*
X86000000Y-116775000D03*
D42*
X96000000Y-118425000D03*
X96000000Y-120075000D03*
D46*
X94000000Y-121950000D03*
X94000000Y-120050000D03*
D47*
X113550000Y-99550000D03*
X113550000Y-100450000D03*
X114450000Y-100450000D03*
X114450000Y-99550000D03*
D48*
X88056847Y-138056847D03*
X86943153Y-136943153D03*
D28*
X112000000Y-114775000D03*
X112000000Y-113225000D03*
X103500000Y-123775000D03*
X103500000Y-122225000D03*
D43*
X100410000Y-47000000D03*
X99390000Y-47000000D03*
D44*
X110000000Y-125225000D03*
X110000000Y-126775000D03*
D49*
X102796022Y-113265695D03*
X101909695Y-113421978D03*
X102065978Y-114308305D03*
X102952305Y-114152022D03*
D50*
X89908974Y-109054466D03*
X89330466Y-108365026D03*
X88641026Y-108943534D03*
X89219534Y-109632974D03*
D29*
X98000000Y-123000000D03*
D51*
X112579229Y-94943047D03*
X112887047Y-95788771D03*
X113732771Y-95480953D03*
X113424953Y-94635229D03*
D44*
X94000000Y-115225000D03*
X94000000Y-116775000D03*
D11*
X106000000Y-125050000D03*
X106000000Y-122950000D03*
D52*
X98090305Y-113421978D03*
X97203978Y-113265695D03*
X97047695Y-114152022D03*
X97934022Y-114308305D03*
D44*
X88000000Y-131225000D03*
X88000000Y-132775000D03*
D22*
X101050000Y-82937500D03*
X102950000Y-82937500D03*
X102000000Y-81062500D03*
D53*
X109775000Y-128500000D03*
X108225000Y-128500000D03*
D25*
X86000000Y-132000000D03*
D54*
X92835289Y-88490711D03*
X93614711Y-88040711D03*
X93164711Y-87261289D03*
X92385289Y-87711289D03*
D47*
X86450000Y-100450000D03*
X86450000Y-99550000D03*
X85550000Y-99550000D03*
X85550000Y-100450000D03*
D44*
X90000000Y-131225000D03*
X90000000Y-132775000D03*
D55*
X92175000Y-139000000D03*
X93825000Y-139000000D03*
D56*
X101909695Y-86578022D03*
X102796022Y-86734305D03*
X102952305Y-85847978D03*
X102065978Y-85691695D03*
D57*
X107164711Y-111509289D03*
X106385289Y-111959289D03*
X106835289Y-112738711D03*
X107614711Y-112288711D03*
D58*
X89330466Y-91634974D03*
X89908974Y-90945534D03*
X89219534Y-90367026D03*
X88641026Y-91056466D03*
D44*
X108000000Y-125225000D03*
X108000000Y-126775000D03*
D59*
X98950000Y-111000000D03*
X101050000Y-111000000D03*
D60*
X100700000Y-124100000D03*
D61*
X93550000Y-133100000D03*
X106450000Y-133100000D03*
D22*
X102050000Y-77937500D03*
X103950000Y-77937500D03*
X103000000Y-76062500D03*
D62*
X104500000Y-50000000D03*
D63*
X103960000Y-50325000D03*
D64*
X103960000Y-49675000D03*
D65*
X105040000Y-49675000D03*
D66*
X105040000Y-50325000D03*
D28*
X106000000Y-116775000D03*
X106000000Y-115225000D03*
D67*
X94000000Y-125525000D03*
X94000000Y-128475000D03*
D23*
X106000000Y-127050000D03*
X106000000Y-128950000D03*
D68*
X110225000Y-133000000D03*
X111775000Y-133000000D03*
D69*
X102250000Y-41562500D03*
X102750000Y-41562500D03*
X103250000Y-41562500D03*
X103750000Y-41562500D03*
X104250000Y-41562500D03*
X104750000Y-41562500D03*
X105250000Y-41562500D03*
X105750000Y-41562500D03*
D70*
X106437500Y-42250000D03*
X106437500Y-42750000D03*
X106437500Y-43250000D03*
X106437500Y-43750000D03*
X106437500Y-44250000D03*
X106437500Y-44750000D03*
X106437500Y-45250000D03*
X106437500Y-45750000D03*
D69*
X105750000Y-46437500D03*
X105250000Y-46437500D03*
X104750000Y-46437500D03*
X104250000Y-46437500D03*
X103750000Y-46437500D03*
X103250000Y-46437500D03*
X102750000Y-46437500D03*
X102250000Y-46437500D03*
D70*
X101562500Y-45750000D03*
X101562500Y-45250000D03*
X101562500Y-44750000D03*
X101562500Y-44250000D03*
X101562500Y-43750000D03*
X101562500Y-43250000D03*
X101562500Y-42750000D03*
X101562500Y-42250000D03*
D71*
X105150000Y-45150000D03*
X105150000Y-44000000D03*
X105150000Y-42850000D03*
X104000000Y-45150000D03*
X104000000Y-44000000D03*
X104000000Y-42850000D03*
X102850000Y-45150000D03*
X102850000Y-44000000D03*
X102850000Y-42850000D03*
D72*
X97990000Y-41500000D03*
X99010000Y-41500000D03*
D28*
X114000000Y-112775000D03*
X114000000Y-111225000D03*
D73*
X101700000Y-119875000D03*
X101700000Y-118125000D03*
X100300000Y-118125000D03*
X100300000Y-119875000D03*
D18*
X112000000Y-126787500D03*
X112000000Y-125212500D03*
D38*
X98020000Y-44000000D03*
X98980000Y-44000000D03*
D74*
X91500000Y-125050000D03*
D75*
X90000000Y-125137500D03*
D74*
X88500000Y-125050000D03*
D31*
X86000000Y-120075000D03*
X86000000Y-118425000D03*
D28*
X106500000Y-49225000D03*
X106500000Y-50775000D03*
D72*
X97990000Y-40500000D03*
X99010000Y-40500000D03*
D76*
X110000000Y-129962500D03*
X110000000Y-131537500D03*
D77*
X97500000Y-107300000D03*
X102500000Y-107300000D03*
X100000000Y-107300000D03*
D78*
X95000000Y-107900000D03*
X105000000Y-107900000D03*
D79*
X93625000Y-100000000D03*
X106375000Y-100000000D03*
D78*
X95000000Y-92100000D03*
X105000000Y-92100000D03*
D77*
X102500000Y-93000000D03*
X97500000Y-93000000D03*
D80*
X104980000Y-48500000D03*
X104020000Y-48500000D03*
D44*
X114000000Y-127225000D03*
X114000000Y-128775000D03*
D28*
X114000000Y-124775000D03*
X114000000Y-123225000D03*
D81*
X97203978Y-86734305D03*
X98090305Y-86578022D03*
X97934022Y-85691695D03*
X97047695Y-85847978D03*
D82*
X110669534Y-108365026D03*
X110091026Y-109054466D03*
X110780466Y-109632974D03*
X111358974Y-108943534D03*
D83*
X112887047Y-104211229D03*
X112579229Y-105056953D03*
X113424953Y-105364771D03*
X113732771Y-104519047D03*
D42*
X64000000Y-102175000D03*
X64000000Y-103825000D03*
D25*
X62000000Y-104000000D03*
D74*
X56500000Y-106087500D03*
D84*
X58000000Y-106000000D03*
D74*
X59500000Y-106087500D03*
D85*
X79360000Y-60640000D03*
X78640000Y-60640000D03*
X79360000Y-61360000D03*
X78640000Y-61360000D03*
D86*
X79750000Y-59562500D03*
X79250000Y-59562500D03*
X78750000Y-59562500D03*
X78250000Y-59562500D03*
D87*
X77562500Y-60250000D03*
X77562500Y-60750000D03*
X77562500Y-61250000D03*
X77562500Y-61750000D03*
D86*
X78250000Y-62437500D03*
X78750000Y-62437500D03*
X79250000Y-62437500D03*
X79750000Y-62437500D03*
D87*
X80437500Y-61750000D03*
X80437500Y-61250000D03*
X80437500Y-60750000D03*
X80437500Y-60250000D03*
D42*
X49000000Y-108175000D03*
X49000000Y-109825000D03*
D25*
X62000000Y-132000000D03*
D42*
X72000000Y-98175000D03*
X72000000Y-99825000D03*
D44*
X80000000Y-110225000D03*
X80000000Y-111775000D03*
D42*
X56000000Y-56175000D03*
X56000000Y-57825000D03*
D31*
X70000000Y-111825000D03*
X70000000Y-110175000D03*
D88*
X76150000Y-105250000D03*
X76150000Y-104750000D03*
X76150000Y-104250000D03*
X76150000Y-103750000D03*
X76150000Y-103250000D03*
X76150000Y-102750000D03*
X76150000Y-102250000D03*
X76150000Y-101750000D03*
X76150000Y-101250000D03*
X76150000Y-100750000D03*
X76150000Y-100250000D03*
X76150000Y-99750000D03*
X76150000Y-99250000D03*
X76150000Y-98750000D03*
X76150000Y-98250000D03*
X76150000Y-97750000D03*
X76150000Y-97250000D03*
X76150000Y-96750000D03*
X76150000Y-96250000D03*
X76150000Y-95750000D03*
X76150000Y-95250000D03*
X76150000Y-94750000D03*
X76150000Y-94250000D03*
X76150000Y-93750000D03*
X76150000Y-93250000D03*
X76150000Y-92750000D03*
X76150000Y-92250000D03*
X76150000Y-91750000D03*
X76150000Y-91250000D03*
X76150000Y-90750000D03*
D89*
X79400000Y-107150000D03*
X79400000Y-88850000D03*
D90*
X74000000Y-53150000D03*
X74000000Y-56850000D03*
D25*
X66000000Y-111000000D03*
D46*
X62000000Y-128950000D03*
X62000000Y-127050000D03*
D91*
X72050000Y-138340000D03*
X73000000Y-138340000D03*
X73950000Y-138340000D03*
X73950000Y-135660000D03*
X73000000Y-135660000D03*
X72050000Y-135660000D03*
D92*
X72475000Y-137400000D03*
X73525000Y-137400000D03*
X72475000Y-136600000D03*
X73525000Y-136600000D03*
D42*
X62000000Y-90175000D03*
X62000000Y-91825000D03*
D25*
X64000000Y-95000000D03*
D44*
X64000000Y-98225000D03*
X64000000Y-99775000D03*
D28*
X74000000Y-107775000D03*
X74000000Y-106225000D03*
D42*
X60000000Y-86175000D03*
X60000000Y-87825000D03*
D93*
X58905000Y-112525000D03*
X57635000Y-112525000D03*
X56365000Y-112525000D03*
X55095000Y-112525000D03*
X55095000Y-117475000D03*
X56365000Y-117475000D03*
X57635000Y-117475000D03*
X58905000Y-117475000D03*
D46*
X62000000Y-117950000D03*
X62000000Y-116050000D03*
D68*
X66225000Y-58000000D03*
X67775000Y-58000000D03*
D55*
X66175000Y-62000000D03*
X67825000Y-62000000D03*
D31*
X68000000Y-99825000D03*
X68000000Y-98175000D03*
D42*
X60000000Y-90175000D03*
X60000000Y-91825000D03*
D11*
X75000000Y-69050000D03*
X75000000Y-66950000D03*
D44*
X76000000Y-110225000D03*
X76000000Y-111775000D03*
X82000000Y-110225000D03*
X82000000Y-111775000D03*
X75000000Y-60225000D03*
X75000000Y-61775000D03*
D25*
X59000000Y-57000000D03*
D94*
X54037500Y-137000000D03*
X59962500Y-137000000D03*
D95*
X61060000Y-76900000D03*
X62460000Y-76900000D03*
X63860000Y-76900000D03*
X61060000Y-75500000D03*
X62460000Y-75500000D03*
X63860000Y-75500000D03*
X61060000Y-74100000D03*
X62460000Y-74100000D03*
X63860000Y-74100000D03*
D96*
X54740000Y-82750000D03*
X56010000Y-82750000D03*
X57280000Y-82750000D03*
X58550000Y-82750000D03*
X59820000Y-82750000D03*
X61090000Y-82750000D03*
X62360000Y-82750000D03*
X63630000Y-82750000D03*
X64900000Y-82750000D03*
X66170000Y-82750000D03*
X67440000Y-82750000D03*
X68710000Y-82750000D03*
X69980000Y-82750000D03*
X71250000Y-82750000D03*
D97*
X72500000Y-80985000D03*
X72500000Y-79715000D03*
X72500000Y-78445000D03*
X72500000Y-77175000D03*
X72500000Y-75905000D03*
X72500000Y-74635000D03*
X72500000Y-73365000D03*
X72500000Y-72095000D03*
X72500000Y-70825000D03*
X72500000Y-69555000D03*
X72500000Y-68285000D03*
X72500000Y-67015000D03*
D96*
X71250000Y-65250000D03*
X69980000Y-65250000D03*
X68710000Y-65250000D03*
X67440000Y-65250000D03*
X66170000Y-65250000D03*
X64900000Y-65250000D03*
X63630000Y-65250000D03*
X62360000Y-65250000D03*
X61090000Y-65250000D03*
X59820000Y-65250000D03*
X58550000Y-65250000D03*
X57280000Y-65250000D03*
X56010000Y-65250000D03*
X54740000Y-65250000D03*
D42*
X56000000Y-52175000D03*
X56000000Y-53825000D03*
D25*
X58000000Y-95000000D03*
D31*
X66000000Y-99825000D03*
X66000000Y-98175000D03*
D42*
X70000000Y-98175000D03*
X70000000Y-99825000D03*
X54000000Y-47175000D03*
X54000000Y-48825000D03*
D44*
X78000000Y-110225000D03*
X78000000Y-111775000D03*
X57000000Y-108225000D03*
X57000000Y-109775000D03*
D25*
X59000000Y-53000000D03*
D27*
X49095000Y-105475000D03*
X50365000Y-105475000D03*
X51635000Y-105475000D03*
X52905000Y-105475000D03*
X52905000Y-100525000D03*
X51635000Y-100525000D03*
X50365000Y-100525000D03*
X49095000Y-100525000D03*
D24*
X72050000Y-50137500D03*
X73000000Y-50137500D03*
X73950000Y-50137500D03*
X73950000Y-47862500D03*
X73000000Y-47862500D03*
X72050000Y-47862500D03*
D46*
X77000000Y-85950000D03*
X77000000Y-84050000D03*
D77*
X75500000Y-116700000D03*
X70500000Y-116700000D03*
X73000000Y-116700000D03*
D78*
X78000000Y-116100000D03*
X68000000Y-116100000D03*
D79*
X79375000Y-124000000D03*
X66625000Y-124000000D03*
D78*
X78000000Y-131900000D03*
X68000000Y-131900000D03*
D77*
X70500000Y-131000000D03*
X75500000Y-131000000D03*
D23*
X59000000Y-108050000D03*
X59000000Y-109950000D03*
D44*
X60000000Y-94225000D03*
X60000000Y-95775000D03*
D18*
X54000000Y-44787500D03*
X54000000Y-43212500D03*
D46*
X62000000Y-113950000D03*
X62000000Y-112050000D03*
D98*
X81000000Y-50475000D03*
X81000000Y-47525000D03*
D42*
X68000000Y-110175000D03*
X68000000Y-111825000D03*
D44*
X51000000Y-108225000D03*
X51000000Y-109775000D03*
D28*
X72000000Y-44775000D03*
X72000000Y-43225000D03*
D31*
X78000000Y-44825000D03*
X78000000Y-43175000D03*
D44*
X58000000Y-86225000D03*
X58000000Y-87775000D03*
D23*
X73000000Y-60050000D03*
X73000000Y-61950000D03*
D98*
X78000000Y-50475000D03*
X78000000Y-47525000D03*
D46*
X78000000Y-55950000D03*
X78000000Y-54050000D03*
D99*
X54000000Y-121450000D03*
X54000000Y-132550000D03*
D44*
X62000000Y-94225000D03*
X62000000Y-95775000D03*
D98*
X56000000Y-92475000D03*
X56000000Y-89525000D03*
D42*
X55000000Y-108175000D03*
X55000000Y-109825000D03*
D25*
X66000000Y-107000000D03*
D93*
X52905000Y-112525000D03*
X51635000Y-112525000D03*
X50365000Y-112525000D03*
X49095000Y-112525000D03*
X49095000Y-117475000D03*
X50365000Y-117475000D03*
X51635000Y-117475000D03*
X52905000Y-117475000D03*
D31*
X72000000Y-111825000D03*
X72000000Y-110175000D03*
D44*
X74000000Y-98225000D03*
X74000000Y-99775000D03*
D31*
X58000000Y-91825000D03*
X58000000Y-90175000D03*
D44*
X53000000Y-108225000D03*
X53000000Y-109775000D03*
D31*
X76000000Y-44825000D03*
X76000000Y-43175000D03*
D28*
X76000000Y-49775000D03*
X76000000Y-48225000D03*
D46*
X79000000Y-85950000D03*
X79000000Y-84050000D03*
D29*
X81000000Y-55000000D03*
D42*
X74000000Y-110175000D03*
X74000000Y-111825000D03*
D93*
X71905000Y-102525000D03*
X70635000Y-102525000D03*
X69365000Y-102525000D03*
X68095000Y-102525000D03*
X68095000Y-107475000D03*
X69365000Y-107475000D03*
X70635000Y-107475000D03*
X71905000Y-107475000D03*
D100*
X62950000Y-53000000D03*
X61050000Y-53000000D03*
X62000000Y-54875000D03*
D25*
X74000000Y-103000000D03*
D101*
X66640000Y-53640000D03*
X66640000Y-54360000D03*
X67360000Y-53640000D03*
X67360000Y-54360000D03*
D102*
X65737500Y-53500000D03*
X65737500Y-54000000D03*
X65737500Y-54500000D03*
D103*
X66250000Y-55262500D03*
X66750000Y-55262500D03*
X67250000Y-55262500D03*
X67750000Y-55262500D03*
D102*
X68262500Y-54500000D03*
X68262500Y-54000000D03*
X68262500Y-53500000D03*
D103*
X67750000Y-52737500D03*
X67250000Y-52737500D03*
X66750000Y-52737500D03*
X66250000Y-52737500D03*
D44*
X56000000Y-86225000D03*
X56000000Y-87775000D03*
D55*
X66175000Y-60000000D03*
X67825000Y-60000000D03*
D44*
X76000000Y-136225000D03*
X76000000Y-137775000D03*
D42*
X62000000Y-86175000D03*
X62000000Y-87825000D03*
D31*
X81000000Y-85825000D03*
X81000000Y-84175000D03*
X66000000Y-103825000D03*
X66000000Y-102175000D03*
D104*
X62950000Y-58000000D03*
X61050000Y-58000000D03*
D42*
X74000000Y-43175000D03*
X74000000Y-44825000D03*
D14*
X68350000Y-47670000D03*
X67550000Y-47670000D03*
X66250000Y-47670000D03*
X65250000Y-47670000D03*
X64750000Y-47670000D03*
X63750000Y-47670000D03*
X62450000Y-47670000D03*
X61650000Y-47670000D03*
X61950000Y-47670000D03*
X62750000Y-47670000D03*
X63250000Y-47670000D03*
X64250000Y-47670000D03*
X65750000Y-47670000D03*
X66750000Y-47670000D03*
X67250000Y-47670000D03*
X68050000Y-47670000D03*
D20*
X123500000Y-114020000D03*
X123500000Y-114980000D03*
D105*
X123200000Y-127500000D03*
X122000000Y-127500000D03*
X120800000Y-127500000D03*
D20*
X125000000Y-114020000D03*
X125000000Y-114980000D03*
X118000000Y-116020000D03*
X118000000Y-116980000D03*
D18*
X118000000Y-98212500D03*
X118000000Y-99787500D03*
D20*
X126000000Y-114020000D03*
X126000000Y-114980000D03*
D106*
X123950000Y-104637500D03*
X122050000Y-104637500D03*
X122050000Y-102362500D03*
X123000000Y-102362500D03*
X123950000Y-102362500D03*
D20*
X128000000Y-127020000D03*
X128000000Y-127980000D03*
D46*
X128000000Y-131050000D03*
X128000000Y-132950000D03*
D12*
X125500000Y-127980000D03*
X125500000Y-127020000D03*
X118000000Y-122480000D03*
X118000000Y-121520000D03*
D13*
X126500000Y-135490000D03*
X126500000Y-136510000D03*
D14*
X126050000Y-95455000D03*
X125250000Y-95455000D03*
X124750000Y-95455000D03*
X123750000Y-95455000D03*
X122250000Y-95455000D03*
X121250000Y-95455000D03*
X120750000Y-95455000D03*
X119950000Y-95455000D03*
X119650000Y-95455000D03*
X120450000Y-95455000D03*
X121750000Y-95455000D03*
X122750000Y-95455000D03*
X123250000Y-95455000D03*
X124250000Y-95455000D03*
X125550000Y-95455000D03*
X126350000Y-95455000D03*
D13*
X124500000Y-135490000D03*
X124500000Y-136510000D03*
D76*
X128000000Y-136787500D03*
X128000000Y-135212500D03*
D20*
X128000000Y-103020000D03*
X128000000Y-103980000D03*
D19*
X119500000Y-128010000D03*
X119500000Y-126990000D03*
D12*
X124500000Y-127980000D03*
X124500000Y-127020000D03*
D20*
X128000000Y-116020000D03*
X128000000Y-116980000D03*
D13*
X120000000Y-99490000D03*
X120000000Y-100510000D03*
D12*
X128000000Y-122480000D03*
X128000000Y-121520000D03*
D20*
X127000000Y-114020000D03*
X127000000Y-114980000D03*
D31*
X118000000Y-102675000D03*
X118000000Y-104325000D03*
D106*
X123950000Y-133137500D03*
X122050000Y-133137500D03*
X122050000Y-130862500D03*
X123000000Y-130862500D03*
X123950000Y-130862500D03*
D20*
X122500000Y-114020000D03*
X122500000Y-114980000D03*
D13*
X126000000Y-97490000D03*
X126000000Y-98510000D03*
X120000000Y-97490000D03*
X120000000Y-98510000D03*
D46*
X126000000Y-102550000D03*
X126000000Y-104450000D03*
D107*
X126600000Y-107595000D03*
X126600000Y-108865000D03*
X126600000Y-110135000D03*
X126600000Y-111405000D03*
X119400000Y-111405000D03*
X119400000Y-110135000D03*
X119400000Y-108865000D03*
X119400000Y-107595000D03*
D108*
X120400000Y-117062500D03*
X120800000Y-117062500D03*
X121200000Y-117062500D03*
X121600000Y-117062500D03*
X122000000Y-117062500D03*
X122400000Y-117062500D03*
X122800000Y-117062500D03*
X123200000Y-117062500D03*
X123600000Y-117062500D03*
X124000000Y-117062500D03*
X124400000Y-117062500D03*
X124800000Y-117062500D03*
X125200000Y-117062500D03*
X125600000Y-117062500D03*
D109*
X126437500Y-117900000D03*
X126437500Y-118300000D03*
X126437500Y-118700000D03*
X126437500Y-119100000D03*
X126437500Y-119500000D03*
X126437500Y-119900000D03*
X126437500Y-120300000D03*
X126437500Y-120700000D03*
X126437500Y-121100000D03*
X126437500Y-121500000D03*
X126437500Y-121900000D03*
X126437500Y-122300000D03*
X126437500Y-122700000D03*
X126437500Y-123100000D03*
D108*
X125600000Y-123937500D03*
X125200000Y-123937500D03*
X124800000Y-123937500D03*
X124400000Y-123937500D03*
X124000000Y-123937500D03*
X123600000Y-123937500D03*
X123200000Y-123937500D03*
X122800000Y-123937500D03*
X122400000Y-123937500D03*
X122000000Y-123937500D03*
X121600000Y-123937500D03*
X121200000Y-123937500D03*
X120800000Y-123937500D03*
X120400000Y-123937500D03*
D109*
X119562500Y-123100000D03*
X119562500Y-122700000D03*
X119562500Y-122300000D03*
X119562500Y-121900000D03*
X119562500Y-121500000D03*
X119562500Y-121100000D03*
X119562500Y-120700000D03*
X119562500Y-120300000D03*
X119562500Y-119900000D03*
X119562500Y-119500000D03*
X119562500Y-119100000D03*
X119562500Y-118700000D03*
X119562500Y-118300000D03*
X119562500Y-117900000D03*
D110*
X123800000Y-121300000D03*
X123800000Y-119700000D03*
X122200000Y-121300000D03*
X122200000Y-119700000D03*
D18*
X118000000Y-135212500D03*
X118000000Y-136787500D03*
D19*
X123500000Y-136510000D03*
X123500000Y-135490000D03*
D21*
X120460000Y-138630000D03*
X123000000Y-138630000D03*
X125540000Y-138630000D03*
D19*
X119500000Y-136510000D03*
X119500000Y-135490000D03*
D31*
X120000000Y-102675000D03*
X120000000Y-104325000D03*
D20*
X126000000Y-99520000D03*
X126000000Y-100480000D03*
D111*
X128000000Y-100050000D03*
X128000000Y-97950000D03*
D100*
X123000000Y-99937500D03*
X122050000Y-98062500D03*
X123950000Y-98062500D03*
M02*
