G04 #@! TF.GenerationSoftware,KiCad,Pcbnew,7.0.8*
G04 #@! TF.CreationDate,2023-10-18T02:17:36-07:00*
G04 #@! TF.ProjectId,IotFan,496f7446-616e-42e6-9b69-6361645f7063,rev?*
G04 #@! TF.SameCoordinates,Original*
G04 #@! TF.FileFunction,Soldermask,Top*
G04 #@! TF.FilePolarity,Negative*
%FSLAX46Y46*%
G04 Gerber Fmt 4.6, Leading zero omitted, Abs format (unit mm)*
G04 Created by KiCad (PCBNEW 7.0.8) date 2023-10-18 02:17:36*
%MOMM*%
%LPD*%
G01*
G04 APERTURE LIST*
G04 Aperture macros list*
%AMRoundRect*
0 Rectangle with rounded corners*
0 $1 Rounding radius*
0 $2 $3 $4 $5 $6 $7 $8 $9 X,Y pos of 4 corners*
0 Add a 4 corners polygon primitive as box body*
4,1,4,$2,$3,$4,$5,$6,$7,$8,$9,$2,$3,0*
0 Add four circle primitives for the rounded corners*
1,1,$1+$1,$2,$3*
1,1,$1+$1,$4,$5*
1,1,$1+$1,$6,$7*
1,1,$1+$1,$8,$9*
0 Add four rect primitives between the rounded corners*
20,1,$1+$1,$2,$3,$4,$5,0*
20,1,$1+$1,$4,$5,$6,$7,0*
20,1,$1+$1,$6,$7,$8,$9,0*
20,1,$1+$1,$8,$9,$2,$3,0*%
%AMRotRect*
0 Rectangle, with rotation*
0 The origin of the aperture is its center*
0 $1 length*
0 $2 width*
0 $3 Rotation angle, in degrees counterclockwise*
0 Add horizontal line*
21,1,$1,$2,0,0,$3*%
%AMFreePoly0*
4,1,6,0.110000,-0.125000,-0.110000,-0.125000,-0.290000,0.055000,-0.290000,0.125000,0.110000,0.125000,0.110000,-0.125000,0.110000,-0.125000,$1*%
%AMFreePoly1*
4,1,7,0.110000,-0.125000,-0.110000,-0.125000,-0.290000,-0.125000,-0.290000,-0.055000,-0.110000,0.125000,0.110000,0.125000,0.110000,-0.125000,0.110000,-0.125000,$1*%
%AMFreePoly2*
4,1,6,0.290000,-0.055000,0.290000,-0.125000,-0.110000,-0.125000,-0.110000,0.125000,0.110000,0.125000,0.290000,-0.055000,0.290000,-0.055000,$1*%
%AMFreePoly3*
4,1,5,0.110000,-0.125000,-0.110000,-0.125000,-0.110000,0.125000,0.360000,0.125000,0.110000,-0.125000,0.110000,-0.125000,$1*%
%AMFreePoly4*
4,1,9,3.862500,-0.866500,0.737500,-0.866500,0.737500,-0.450000,-0.737500,-0.450000,-0.737500,0.450000,0.737500,0.450000,0.737500,0.866500,3.862500,0.866500,3.862500,-0.866500,3.862500,-0.866500,$1*%
G04 Aperture macros list end*
%ADD10C,0.254000*%
%ADD11C,0.650000*%
%ADD12C,2.500000*%
%ADD13R,0.450000X0.700000*%
%ADD14RoundRect,0.112500X0.112500X-0.187500X0.112500X0.187500X-0.112500X0.187500X-0.112500X-0.187500X0*%
%ADD15RoundRect,0.140000X-0.170000X0.140000X-0.170000X-0.140000X0.170000X-0.140000X0.170000X0.140000X0*%
%ADD16RoundRect,0.135000X0.185000X-0.135000X0.185000X0.135000X-0.185000X0.135000X-0.185000X-0.135000X0*%
%ADD17C,0.650000*%
%ADD18R,0.300000X1.150000*%
%ADD19O,1.000000X2.100000*%
%ADD20O,1.000000X1.600000*%
%ADD21RoundRect,0.062500X0.062500X-0.337500X0.062500X0.337500X-0.062500X0.337500X-0.062500X-0.337500X0*%
%ADD22RoundRect,0.062500X0.337500X-0.062500X0.337500X0.062500X-0.337500X0.062500X-0.337500X-0.062500X0*%
%ADD23R,3.350000X3.350000*%
%ADD24C,1.152000*%
%ADD25RoundRect,0.218750X0.256250X-0.218750X0.256250X0.218750X-0.256250X0.218750X-0.256250X-0.218750X0*%
%ADD26RoundRect,0.135000X-0.185000X0.135000X-0.185000X-0.135000X0.185000X-0.135000X0.185000X0.135000X0*%
%ADD27RoundRect,0.140000X0.170000X-0.140000X0.170000X0.140000X-0.170000X0.140000X-0.170000X-0.140000X0*%
%ADD28R,1.700000X2.340000*%
%ADD29RoundRect,0.150000X0.150000X-0.587500X0.150000X0.587500X-0.150000X0.587500X-0.150000X-0.587500X0*%
%ADD30RoundRect,0.250000X-0.475000X0.250000X-0.475000X-0.250000X0.475000X-0.250000X0.475000X0.250000X0*%
%ADD31RoundRect,0.150000X0.150000X-0.512500X0.150000X0.512500X-0.150000X0.512500X-0.150000X-0.512500X0*%
%ADD32C,0.380000*%
%ADD33RoundRect,0.250000X-0.450000X1.175000X-0.450000X-1.175000X0.450000X-1.175000X0.450000X1.175000X0*%
%ADD34RotRect,0.500000X0.500000X60.000000*%
%ADD35RoundRect,0.150000X0.150000X-0.825000X0.150000X0.825000X-0.150000X0.825000X-0.150000X-0.825000X0*%
%ADD36RoundRect,0.225000X0.250000X-0.225000X0.250000X0.225000X-0.250000X0.225000X-0.250000X-0.225000X0*%
%ADD37RoundRect,0.250000X0.450000X-1.175000X0.450000X1.175000X-0.450000X1.175000X-0.450000X-1.175000X0*%
%ADD38R,4.000000X1.500000*%
%ADD39RoundRect,0.200000X0.275000X-0.200000X0.275000X0.200000X-0.275000X0.200000X-0.275000X-0.200000X0*%
%ADD40RoundRect,0.112500X0.112500X-0.112500X0.112500X0.112500X-0.112500X0.112500X-0.112500X-0.112500X0*%
%ADD41RotRect,0.500000X0.500000X200.000000*%
%ADD42RotRect,0.500000X0.500000X240.000000*%
%ADD43C,0.990600*%
%ADD44C,0.787400*%
%ADD45RotRect,0.500000X0.500000X160.000000*%
%ADD46RoundRect,0.250000X-0.707107X-0.176777X-0.176777X-0.707107X0.707107X0.176777X0.176777X0.707107X0*%
%ADD47RoundRect,0.150000X0.512500X0.150000X-0.512500X0.150000X-0.512500X-0.150000X0.512500X-0.150000X0*%
%ADD48RoundRect,0.140000X0.140000X0.170000X-0.140000X0.170000X-0.140000X-0.170000X0.140000X-0.170000X0*%
%ADD49RoundRect,0.062500X0.265165X-0.176777X-0.176777X0.265165X-0.265165X0.176777X0.176777X-0.265165X0*%
%ADD50RoundRect,0.062500X0.265165X0.176777X0.176777X0.265165X-0.265165X-0.176777X-0.176777X-0.265165X0*%
%ADD51RotRect,3.650000X3.650000X135.000000*%
%ADD52RoundRect,0.200000X-0.275000X0.200000X-0.275000X-0.200000X0.275000X-0.200000X0.275000X0.200000X0*%
%ADD53C,1.100000*%
%ADD54R,1.730000X2.030000*%
%ADD55O,1.730000X2.030000*%
%ADD56RoundRect,0.135000X-0.135000X-0.185000X0.135000X-0.185000X0.135000X0.185000X-0.135000X0.185000X0*%
%ADD57RoundRect,0.225000X-0.250000X0.225000X-0.250000X-0.225000X0.250000X-0.225000X0.250000X0.225000X0*%
%ADD58C,2.700000*%
%ADD59RotRect,0.500000X0.500000X40.000000*%
%ADD60RoundRect,0.250000X0.475000X-0.250000X0.475000X0.250000X-0.475000X0.250000X-0.475000X-0.250000X0*%
%ADD61R,0.500000X0.500000*%
%ADD62RoundRect,0.218750X0.335876X0.026517X0.026517X0.335876X-0.335876X-0.026517X-0.026517X-0.335876X0*%
%ADD63RotRect,0.500000X0.500000X280.000000*%
%ADD64RotRect,0.500000X0.500000X220.000000*%
%ADD65RotRect,0.500000X0.500000X20.000000*%
%ADD66RotRect,0.500000X0.500000X260.000000*%
%ADD67RoundRect,0.225000X0.225000X0.250000X-0.225000X0.250000X-0.225000X-0.250000X0.225000X-0.250000X0*%
%ADD68RotRect,0.500000X0.500000X120.000000*%
%ADD69RoundRect,0.200000X-0.200000X-0.275000X0.200000X-0.275000X0.200000X0.275000X-0.200000X0.275000X0*%
%ADD70RotRect,0.500000X0.500000X80.000000*%
%ADD71RotRect,0.500000X0.500000X300.000000*%
%ADD72RotRect,0.500000X0.500000X140.000000*%
%ADD73RoundRect,0.112500X-0.187500X-0.112500X0.187500X-0.112500X0.187500X0.112500X-0.187500X0.112500X0*%
%ADD74C,2.000000*%
%ADD75R,3.300000X4.400000*%
%ADD76R,3.900000X6.200000*%
%ADD77RotRect,0.480000X0.480000X225.000000*%
%ADD78FreePoly0,180.000000*%
%ADD79FreePoly1,180.000000*%
%ADD80FreePoly2,180.000000*%
%ADD81FreePoly3,180.000000*%
%ADD82RoundRect,0.250000X-0.650000X0.325000X-0.650000X-0.325000X0.650000X-0.325000X0.650000X0.325000X0*%
%ADD83RoundRect,0.225000X-0.225000X-0.250000X0.225000X-0.250000X0.225000X0.250000X-0.225000X0.250000X0*%
%ADD84R,3.450000X3.450000*%
%ADD85RoundRect,0.062500X-0.062500X-0.375000X0.062500X-0.375000X0.062500X0.375000X-0.062500X0.375000X0*%
%ADD86RoundRect,0.062500X-0.375000X-0.062500X0.375000X-0.062500X0.375000X0.062500X-0.375000X0.062500X0*%
%ADD87RoundRect,0.135000X0.135000X0.185000X-0.135000X0.185000X-0.135000X-0.185000X0.135000X-0.185000X0*%
%ADD88R,1.000000X1.150000*%
%ADD89R,0.900000X1.300000*%
%ADD90FreePoly4,270.000000*%
%ADD91RoundRect,0.218750X-0.256250X0.218750X-0.256250X-0.218750X0.256250X-0.218750X0.256250X0.218750X0*%
%ADD92C,1.600000*%
%ADD93C,2.100000*%
%ADD94R,1.300000X2.400000*%
%ADD95R,2.500000X3.200000*%
%ADD96R,3.750000X4.000000*%
%ADD97RoundRect,0.140000X-0.140000X-0.170000X0.140000X-0.170000X0.140000X0.170000X-0.140000X0.170000X0*%
%ADD98RotRect,0.500000X0.500000X100.000000*%
%ADD99RotRect,0.500000X0.500000X320.000000*%
%ADD100RotRect,0.500000X0.500000X340.000000*%
%ADD101FreePoly4,90.000000*%
%ADD102RoundRect,0.062500X-0.062500X0.375000X-0.062500X-0.375000X0.062500X-0.375000X0.062500X0.375000X0*%
%ADD103RoundRect,0.062500X-0.375000X0.062500X-0.375000X-0.062500X0.375000X-0.062500X0.375000X0.062500X0*%
%ADD104R,1.450000X1.450000*%
%ADD105R,1.300000X0.300000*%
%ADD106R,2.200000X1.800000*%
%ADD107R,4.200000X1.400000*%
%ADD108R,0.450000X0.630000*%
%ADD109R,1.050000X0.800000*%
%ADD110RoundRect,0.150000X-0.150000X0.825000X-0.150000X-0.825000X0.150000X-0.825000X0.150000X0.825000X0*%
%ADD111RoundRect,0.250000X-0.362500X-1.425000X0.362500X-1.425000X0.362500X1.425000X-0.362500X1.425000X0*%
%ADD112R,0.900000X1.500000*%
%ADD113R,1.500000X0.900000*%
%ADD114C,0.600000*%
%ADD115R,3.900000X3.900000*%
%ADD116RoundRect,0.250000X0.625000X-0.350000X0.625000X0.350000X-0.625000X0.350000X-0.625000X-0.350000X0*%
%ADD117O,1.750000X1.200000*%
%ADD118R,1.700000X1.700000*%
%ADD119O,1.700000X1.700000*%
%ADD120RoundRect,0.250000X0.650000X-0.325000X0.650000X0.325000X-0.650000X0.325000X-0.650000X-0.325000X0*%
%ADD121RoundRect,0.650000X-0.950000X0.650000X-0.950000X-0.650000X0.950000X-0.650000X0.950000X0.650000X0*%
%ADD122RoundRect,0.150000X-0.150000X0.587500X-0.150000X-0.587500X0.150000X-0.587500X0.150000X0.587500X0*%
%ADD123RoundRect,0.062500X-0.275000X-0.062500X0.275000X-0.062500X0.275000X0.062500X-0.275000X0.062500X0*%
%ADD124RoundRect,0.062500X-0.062500X-0.275000X0.062500X-0.275000X0.062500X0.275000X-0.062500X0.275000X0*%
%ADD125RoundRect,0.250000X0.250000X0.475000X-0.250000X0.475000X-0.250000X-0.475000X0.250000X-0.475000X0*%
%ADD126R,0.400000X1.900000*%
%ADD127RoundRect,0.150000X-0.150000X0.512500X-0.150000X-0.512500X0.150000X-0.512500X0.150000X0.512500X0*%
%ADD128RoundRect,0.150000X-0.650000X-0.150000X0.650000X-0.150000X0.650000X0.150000X-0.650000X0.150000X0*%
%ADD129R,3.200000X3.200000*%
%ADD130RoundRect,0.050000X-0.050000X-0.387500X0.050000X-0.387500X0.050000X0.387500X-0.050000X0.387500X0*%
%ADD131RoundRect,0.050000X-0.387500X-0.050000X0.387500X-0.050000X0.387500X0.050000X-0.387500X0.050000X0*%
%ADD132RoundRect,0.112500X-0.112500X0.187500X-0.112500X-0.187500X0.112500X-0.187500X0.112500X0.187500X0*%
G04 APERTURE END LIST*
D10*
X116000000Y-141000000D02*
X107000000Y-141000000D01*
X107000000Y-138000000D01*
X111000000Y-134000000D01*
X116000000Y-134000000D01*
X116000000Y-141000000D01*
G36*
X116000000Y-141000000D02*
G01*
X107000000Y-141000000D01*
X107000000Y-138000000D01*
X111000000Y-134000000D01*
X116000000Y-134000000D01*
X116000000Y-141000000D01*
G37*
D11*
X150450000Y-73000000D02*
G75*
G03*
X150450000Y-73000000I-325000J0D01*
G01*
X150450000Y-52500000D02*
G75*
G03*
X150450000Y-52500000I-325000J0D01*
G01*
X142200000Y-52500000D02*
G75*
G03*
X142200000Y-52500000I-325000J0D01*
G01*
X138450000Y-73000000D02*
G75*
G03*
X138450000Y-73000000I-325000J0D01*
G01*
X138450000Y-52500000D02*
G75*
G03*
X138450000Y-52500000I-325000J0D01*
G01*
X130200000Y-52500000D02*
G75*
G03*
X130200000Y-52500000I-325000J0D01*
G01*
X118200000Y-52500000D02*
G75*
G03*
X118200000Y-52500000I-325000J0D01*
G01*
X126450000Y-52500000D02*
G75*
G03*
X126450000Y-52500000I-325000J0D01*
G01*
X126450000Y-73000000D02*
G75*
G03*
X126450000Y-73000000I-325000J0D01*
G01*
X112825000Y-62500000D02*
G75*
G03*
X112825000Y-62500000I-325000J0D01*
G01*
X110325000Y-138000000D02*
G75*
G03*
X110325000Y-138000000I-325000J0D01*
G01*
X87825000Y-62500000D02*
G75*
G03*
X87825000Y-62500000I-325000J0D01*
G01*
X52325000Y-45000000D02*
G75*
G03*
X52325000Y-45000000I-325000J0D01*
G01*
X52325000Y-135000000D02*
G75*
G03*
X52325000Y-135000000I-325000J0D01*
G01*
X78325000Y-135000000D02*
G75*
G03*
X78325000Y-135000000I-325000J0D01*
G01*
D12*
X79250000Y-79000000D02*
G75*
G03*
X79250000Y-79000000I-1250000J0D01*
G01*
D11*
X128325000Y-89000000D02*
G75*
G03*
X128325000Y-89000000I-325000J0D01*
G01*
X118825000Y-138500000D02*
G75*
G03*
X118825000Y-138500000I-325000J0D01*
G01*
X127825000Y-138500000D02*
G75*
G03*
X127825000Y-138500000I-325000J0D01*
G01*
D13*
X148850000Y-56000000D03*
X150150000Y-56000000D03*
X149500000Y-54000000D03*
D14*
X142000000Y-72050000D03*
X142000000Y-69950000D03*
D15*
X149500000Y-70520000D03*
X149500000Y-71480000D03*
D16*
X146000000Y-59510000D03*
X146000000Y-58490000D03*
D17*
X143110000Y-75720000D03*
X148890000Y-75720000D03*
D18*
X142650000Y-74655000D03*
X143450000Y-74655000D03*
X144750000Y-74655000D03*
X145750000Y-74655000D03*
X146250000Y-74655000D03*
X147250000Y-74655000D03*
X148550000Y-74655000D03*
X149350000Y-74655000D03*
X149050000Y-74655000D03*
X148250000Y-74655000D03*
X147750000Y-74655000D03*
X146750000Y-74655000D03*
X145250000Y-74655000D03*
X144250000Y-74655000D03*
X143750000Y-74655000D03*
X142950000Y-74655000D03*
D19*
X141680000Y-75220000D03*
D20*
X141680000Y-79400000D03*
D19*
X150320000Y-75220000D03*
D20*
X150320000Y-79400000D03*
D13*
X145850000Y-56000000D03*
X147150000Y-56000000D03*
X146500000Y-54000000D03*
D21*
X144500000Y-67450000D03*
X145000000Y-67450000D03*
X145500000Y-67450000D03*
X146000000Y-67450000D03*
X146500000Y-67450000D03*
X147000000Y-67450000D03*
X147500000Y-67450000D03*
D22*
X148450000Y-66500000D03*
X148450000Y-66000000D03*
X148450000Y-65500000D03*
X148450000Y-65000000D03*
X148450000Y-64500000D03*
X148450000Y-64000000D03*
X148450000Y-63500000D03*
D21*
X147500000Y-62550000D03*
X147000000Y-62550000D03*
X146500000Y-62550000D03*
X146000000Y-62550000D03*
X145500000Y-62550000D03*
X145000000Y-62550000D03*
X144500000Y-62550000D03*
D22*
X143550000Y-63500000D03*
X143550000Y-64000000D03*
X143550000Y-64500000D03*
X143550000Y-65000000D03*
X143550000Y-65500000D03*
X143550000Y-66000000D03*
X143550000Y-66500000D03*
D23*
X146000000Y-65000000D03*
D15*
X150500000Y-70520000D03*
X150500000Y-71480000D03*
D16*
X147000000Y-59510000D03*
X147000000Y-58490000D03*
D24*
X150125000Y-73000000D03*
D25*
X148500000Y-59787500D03*
X148500000Y-58212500D03*
D26*
X150500000Y-61990000D03*
X150500000Y-63010000D03*
D27*
X150500000Y-67980000D03*
X150500000Y-67020000D03*
D15*
X142000000Y-62020000D03*
X142000000Y-62980000D03*
D25*
X150000000Y-59787500D03*
X150000000Y-58212500D03*
D28*
X143455000Y-50870000D03*
X145995000Y-50870000D03*
X148535000Y-50870000D03*
D24*
X150125000Y-52500000D03*
X141875000Y-52500000D03*
D26*
X150500000Y-64490000D03*
X150500000Y-65510000D03*
D29*
X145050000Y-71937500D03*
X146950000Y-71937500D03*
X146000000Y-70062500D03*
D30*
X143000000Y-54050000D03*
X143000000Y-55950000D03*
D26*
X148250000Y-70490000D03*
X148250000Y-71510000D03*
X143750000Y-70490000D03*
X143750000Y-71510000D03*
D31*
X142050000Y-60137500D03*
X143000000Y-60137500D03*
X143950000Y-60137500D03*
X143950000Y-57862500D03*
X142050000Y-57862500D03*
D13*
X136850000Y-56000000D03*
X138150000Y-56000000D03*
X137500000Y-54000000D03*
D14*
X130000000Y-72050000D03*
X130000000Y-69950000D03*
D15*
X137500000Y-70520000D03*
X137500000Y-71480000D03*
D16*
X134000000Y-59510000D03*
X134000000Y-58490000D03*
D17*
X131110000Y-75720000D03*
X136890000Y-75720000D03*
D18*
X130650000Y-74655000D03*
X131450000Y-74655000D03*
X132750000Y-74655000D03*
X133750000Y-74655000D03*
X134250000Y-74655000D03*
X135250000Y-74655000D03*
X136550000Y-74655000D03*
X137350000Y-74655000D03*
X137050000Y-74655000D03*
X136250000Y-74655000D03*
X135750000Y-74655000D03*
X134750000Y-74655000D03*
X133250000Y-74655000D03*
X132250000Y-74655000D03*
X131750000Y-74655000D03*
X130950000Y-74655000D03*
D19*
X129680000Y-75220000D03*
D20*
X129680000Y-79400000D03*
D19*
X138320000Y-75220000D03*
D20*
X138320000Y-79400000D03*
D13*
X133850000Y-56000000D03*
X135150000Y-56000000D03*
X134500000Y-54000000D03*
D21*
X132500000Y-67450000D03*
X133000000Y-67450000D03*
X133500000Y-67450000D03*
X134000000Y-67450000D03*
X134500000Y-67450000D03*
X135000000Y-67450000D03*
X135500000Y-67450000D03*
D22*
X136450000Y-66500000D03*
X136450000Y-66000000D03*
X136450000Y-65500000D03*
X136450000Y-65000000D03*
X136450000Y-64500000D03*
X136450000Y-64000000D03*
X136450000Y-63500000D03*
D21*
X135500000Y-62550000D03*
X135000000Y-62550000D03*
X134500000Y-62550000D03*
X134000000Y-62550000D03*
X133500000Y-62550000D03*
X133000000Y-62550000D03*
X132500000Y-62550000D03*
D22*
X131550000Y-63500000D03*
X131550000Y-64000000D03*
X131550000Y-64500000D03*
X131550000Y-65000000D03*
X131550000Y-65500000D03*
X131550000Y-66000000D03*
X131550000Y-66500000D03*
D23*
X134000000Y-65000000D03*
D15*
X138500000Y-70520000D03*
X138500000Y-71480000D03*
D16*
X135000000Y-59510000D03*
X135000000Y-58490000D03*
D24*
X138125000Y-73000000D03*
D25*
X136500000Y-59787500D03*
X136500000Y-58212500D03*
D26*
X138500000Y-61990000D03*
X138500000Y-63010000D03*
D27*
X138500000Y-67980000D03*
X138500000Y-67020000D03*
D15*
X130000000Y-62020000D03*
X130000000Y-62980000D03*
D25*
X138000000Y-59787500D03*
X138000000Y-58212500D03*
D28*
X131455000Y-50870000D03*
X133995000Y-50870000D03*
X136535000Y-50870000D03*
D24*
X138125000Y-52500000D03*
X129875000Y-52500000D03*
D26*
X138500000Y-64490000D03*
X138500000Y-65510000D03*
D29*
X133050000Y-71937500D03*
X134950000Y-71937500D03*
X134000000Y-70062500D03*
D30*
X131000000Y-54050000D03*
X131000000Y-55950000D03*
D26*
X136250000Y-70490000D03*
X136250000Y-71510000D03*
X131750000Y-70490000D03*
X131750000Y-71510000D03*
D31*
X130050000Y-60137500D03*
X131000000Y-60137500D03*
X131950000Y-60137500D03*
X131950000Y-57862500D03*
X130050000Y-57862500D03*
D32*
X149175000Y-49690000D03*
X148540000Y-49690000D03*
X147905000Y-49690000D03*
X147270000Y-49690000D03*
X146635000Y-49690000D03*
X146000000Y-49690000D03*
X145365000Y-49690000D03*
X144730000Y-49690000D03*
X144095000Y-49690000D03*
X143460000Y-49690000D03*
X142825000Y-49690000D03*
X130825000Y-81810000D03*
X131460000Y-81810000D03*
X132095000Y-81810000D03*
X132730000Y-81810000D03*
X133365000Y-81810000D03*
X134000000Y-81810000D03*
X134635000Y-81810000D03*
X135270000Y-81810000D03*
X135905000Y-81810000D03*
X136540000Y-81810000D03*
X137175000Y-81810000D03*
X142825000Y-81810000D03*
X143460000Y-81810000D03*
X144095000Y-81810000D03*
X144730000Y-81810000D03*
X145365000Y-81810000D03*
X146000000Y-81810000D03*
X146635000Y-81810000D03*
X147270000Y-81810000D03*
X147905000Y-81810000D03*
X148540000Y-81810000D03*
X149175000Y-81810000D03*
X137175000Y-49690000D03*
X136540000Y-49690000D03*
X135905000Y-49690000D03*
X135270000Y-49690000D03*
X134635000Y-49690000D03*
X134000000Y-49690000D03*
X133365000Y-49690000D03*
X132730000Y-49690000D03*
X132095000Y-49690000D03*
X131460000Y-49690000D03*
X130825000Y-49690000D03*
X125175000Y-81810000D03*
X124540000Y-81810000D03*
X123905000Y-81810000D03*
X123270000Y-81810000D03*
X122635000Y-81810000D03*
X122000000Y-81810000D03*
X121365000Y-81810000D03*
X120730000Y-81810000D03*
X120095000Y-81810000D03*
X119460000Y-81810000D03*
X118825000Y-81810000D03*
X114810000Y-47175000D03*
X117190000Y-47175000D03*
X114810000Y-46540000D03*
X117190000Y-46540000D03*
X114810000Y-45905000D03*
X117190000Y-45905000D03*
X114810000Y-45270000D03*
X117190000Y-45270000D03*
X114810000Y-44635000D03*
X117190000Y-44635000D03*
X114810000Y-44000000D03*
X117190000Y-44000000D03*
X114810000Y-43365000D03*
X117190000Y-43365000D03*
X114810000Y-42730000D03*
X117190000Y-42730000D03*
X114810000Y-42095000D03*
X117190000Y-42095000D03*
X114810000Y-41460000D03*
X117190000Y-41460000D03*
X114810000Y-40825000D03*
X117190000Y-40825000D03*
X125175000Y-49690000D03*
X124540000Y-49690000D03*
X123905000Y-49690000D03*
X123270000Y-49690000D03*
X122635000Y-49690000D03*
X122000000Y-49690000D03*
X121365000Y-49690000D03*
X120730000Y-49690000D03*
X120095000Y-49690000D03*
X119460000Y-49690000D03*
X118825000Y-49690000D03*
D31*
X118050000Y-57862500D03*
X119950000Y-57862500D03*
X119950000Y-60137500D03*
X119000000Y-60137500D03*
X118050000Y-60137500D03*
D26*
X119750000Y-71510000D03*
X119750000Y-70490000D03*
X124250000Y-71510000D03*
X124250000Y-70490000D03*
D30*
X119000000Y-55950000D03*
X119000000Y-54050000D03*
D29*
X122000000Y-70062500D03*
X122950000Y-71937500D03*
X121050000Y-71937500D03*
D26*
X126500000Y-65510000D03*
X126500000Y-64490000D03*
D24*
X117875000Y-52500000D03*
X126125000Y-52500000D03*
D28*
X119455000Y-50870000D03*
X121995000Y-50870000D03*
X124535000Y-50870000D03*
D25*
X126000000Y-58212500D03*
X126000000Y-59787500D03*
D15*
X118000000Y-62980000D03*
X118000000Y-62020000D03*
D27*
X126500000Y-67020000D03*
X126500000Y-67980000D03*
D26*
X126500000Y-63010000D03*
X126500000Y-61990000D03*
D25*
X124500000Y-58212500D03*
X124500000Y-59787500D03*
D24*
X126125000Y-73000000D03*
D16*
X123000000Y-58490000D03*
X123000000Y-59510000D03*
D15*
X126500000Y-71480000D03*
X126500000Y-70520000D03*
D23*
X122000000Y-65000000D03*
D22*
X119550000Y-66500000D03*
X119550000Y-66000000D03*
X119550000Y-65500000D03*
X119550000Y-65000000D03*
X119550000Y-64500000D03*
X119550000Y-64000000D03*
X119550000Y-63500000D03*
D21*
X120500000Y-62550000D03*
X121000000Y-62550000D03*
X121500000Y-62550000D03*
X122000000Y-62550000D03*
X122500000Y-62550000D03*
X123000000Y-62550000D03*
X123500000Y-62550000D03*
D22*
X124450000Y-63500000D03*
X124450000Y-64000000D03*
X124450000Y-64500000D03*
X124450000Y-65000000D03*
X124450000Y-65500000D03*
X124450000Y-66000000D03*
X124450000Y-66500000D03*
D21*
X123500000Y-67450000D03*
X123000000Y-67450000D03*
X122500000Y-67450000D03*
X122000000Y-67450000D03*
X121500000Y-67450000D03*
X121000000Y-67450000D03*
X120500000Y-67450000D03*
D13*
X122500000Y-54000000D03*
X123150000Y-56000000D03*
X121850000Y-56000000D03*
D20*
X126320000Y-79400000D03*
D19*
X126320000Y-75220000D03*
D20*
X117680000Y-79400000D03*
D19*
X117680000Y-75220000D03*
D18*
X118950000Y-74655000D03*
X119750000Y-74655000D03*
X120250000Y-74655000D03*
X121250000Y-74655000D03*
X122750000Y-74655000D03*
X123750000Y-74655000D03*
X124250000Y-74655000D03*
X125050000Y-74655000D03*
X125350000Y-74655000D03*
X124550000Y-74655000D03*
X123250000Y-74655000D03*
X122250000Y-74655000D03*
X121750000Y-74655000D03*
X120750000Y-74655000D03*
X119450000Y-74655000D03*
X118650000Y-74655000D03*
D17*
X124890000Y-75720000D03*
X119110000Y-75720000D03*
D16*
X122000000Y-58490000D03*
X122000000Y-59510000D03*
D15*
X125500000Y-71480000D03*
X125500000Y-70520000D03*
D14*
X118000000Y-69950000D03*
X118000000Y-72050000D03*
D13*
X125500000Y-54000000D03*
X126150000Y-56000000D03*
X124850000Y-56000000D03*
D32*
X98075000Y-51810000D03*
X98710000Y-51810000D03*
X99345000Y-51810000D03*
X99980000Y-51810000D03*
X100615000Y-51810000D03*
X101250000Y-51810000D03*
X101885000Y-51810000D03*
X102520000Y-51810000D03*
X103155000Y-51810000D03*
X103790000Y-51810000D03*
X104425000Y-51810000D03*
X104425000Y-60190000D03*
X103790000Y-60190000D03*
X103155000Y-60190000D03*
X102520000Y-60190000D03*
X101885000Y-60190000D03*
X101250000Y-60190000D03*
X100615000Y-60190000D03*
X99980000Y-60190000D03*
X99345000Y-60190000D03*
X98710000Y-60190000D03*
X98075000Y-60190000D03*
X119825000Y-88190000D03*
X121095000Y-88190000D03*
X126175000Y-88190000D03*
X121730000Y-88190000D03*
X123635000Y-88190000D03*
X122365000Y-88190000D03*
X125540000Y-88190000D03*
X123000000Y-88190000D03*
X124270000Y-88190000D03*
X124905000Y-88190000D03*
X120460000Y-88190000D03*
D33*
X86000000Y-112000000D03*
D32*
X82810000Y-71175000D03*
X85190000Y-71175000D03*
X82810000Y-70540000D03*
X85190000Y-70540000D03*
X82810000Y-69905000D03*
X85190000Y-69905000D03*
X82810000Y-69270000D03*
X85190000Y-69270000D03*
X82810000Y-68635000D03*
X85190000Y-68635000D03*
X82810000Y-68000000D03*
X85190000Y-68000000D03*
X82810000Y-67365000D03*
X85190000Y-67365000D03*
X82810000Y-66730000D03*
X85190000Y-66730000D03*
X82810000Y-66095000D03*
X85190000Y-66095000D03*
X82810000Y-65460000D03*
X85190000Y-65460000D03*
X82810000Y-64825000D03*
X85190000Y-64825000D03*
D34*
X106385289Y-88040711D03*
X107164711Y-88490711D03*
X107614711Y-87711289D03*
X106835289Y-87261289D03*
D35*
X94095000Y-81475000D03*
X95365000Y-81475000D03*
X96635000Y-81475000D03*
X97905000Y-81475000D03*
X97905000Y-76525000D03*
X96635000Y-76525000D03*
X95365000Y-76525000D03*
X94095000Y-76525000D03*
X107095000Y-81475000D03*
X108365000Y-81475000D03*
X109635000Y-81475000D03*
X110905000Y-81475000D03*
X110905000Y-76525000D03*
X109635000Y-76525000D03*
X108365000Y-76525000D03*
X107095000Y-76525000D03*
D36*
X110000000Y-114775000D03*
X110000000Y-113225000D03*
D29*
X89050000Y-77937500D03*
X90950000Y-77937500D03*
X90000000Y-76062500D03*
D37*
X86000000Y-127000000D03*
D38*
X90000000Y-119200000D03*
X90000000Y-122800000D03*
D39*
X105000000Y-82825000D03*
X105000000Y-81175000D03*
D40*
X98425000Y-46425000D03*
X98425000Y-45575000D03*
X97575000Y-45575000D03*
X97575000Y-46425000D03*
D39*
X86000000Y-123575000D03*
X86000000Y-121925000D03*
D41*
X87420771Y-105056953D03*
X87112953Y-104211229D03*
X86267229Y-104519047D03*
X86575047Y-105364771D03*
D42*
X93614711Y-111959289D03*
X92835289Y-111509289D03*
X92385289Y-112288711D03*
X93164711Y-112738711D03*
D43*
X87203949Y-134203949D03*
X91514472Y-137077631D03*
X90077631Y-138514472D03*
D44*
X87652962Y-135550987D03*
X88550987Y-134652962D03*
X88550987Y-136449013D03*
X89449013Y-135550987D03*
X89449013Y-137347038D03*
X90347038Y-136449013D03*
D24*
X112500000Y-62500000D03*
D44*
X100310000Y-48865000D03*
X100310000Y-50135000D03*
X99040000Y-48865000D03*
X99040000Y-50135000D03*
X97770000Y-48865000D03*
X97770000Y-50135000D03*
D43*
X101580000Y-50516000D03*
X101580000Y-48484000D03*
X96500000Y-49500000D03*
D45*
X87112953Y-95788771D03*
X87420771Y-94943047D03*
X86575047Y-94635229D03*
X86267229Y-95480953D03*
D46*
X110510051Y-135510051D03*
X112489949Y-137489949D03*
D47*
X91137500Y-116950000D03*
X91137500Y-116000000D03*
X91137500Y-115050000D03*
X88862500Y-115050000D03*
X88862500Y-116000000D03*
X88862500Y-116950000D03*
D39*
X92000000Y-82825000D03*
X92000000Y-81175000D03*
D48*
X98020000Y-42500000D03*
X98980000Y-42500000D03*
D49*
X110512652Y-122987526D03*
X110866206Y-122633973D03*
X111219759Y-122280419D03*
X111573313Y-121926866D03*
X111926866Y-121573313D03*
X112280419Y-121219759D03*
X112633973Y-120866206D03*
X112987526Y-120512652D03*
D50*
X112987526Y-119487348D03*
X112633973Y-119133794D03*
X112280419Y-118780241D03*
X111926866Y-118426687D03*
X111573313Y-118073134D03*
X111219759Y-117719581D03*
X110866206Y-117366027D03*
X110512652Y-117012474D03*
D49*
X109487348Y-117012474D03*
X109133794Y-117366027D03*
X108780241Y-117719581D03*
X108426687Y-118073134D03*
X108073134Y-118426687D03*
X107719581Y-118780241D03*
X107366027Y-119133794D03*
X107012474Y-119487348D03*
D50*
X107012474Y-120512652D03*
X107366027Y-120866206D03*
X107719581Y-121219759D03*
X108073134Y-121573313D03*
X108426687Y-121926866D03*
X108780241Y-122280419D03*
X109133794Y-122633973D03*
X109487348Y-122987526D03*
D51*
X110000000Y-120000000D03*
D52*
X96000000Y-121925000D03*
X96000000Y-123575000D03*
D29*
X88050000Y-82937500D03*
X89950000Y-82937500D03*
X89000000Y-81062500D03*
D53*
X92720000Y-72460000D03*
D54*
X97800000Y-70300000D03*
D55*
X95260000Y-70300000D03*
X92720000Y-70300000D03*
X90180000Y-70300000D03*
D56*
X100410000Y-45000000D03*
X99390000Y-45000000D03*
D57*
X103500000Y-118225000D03*
X103500000Y-119775000D03*
D39*
X114000000Y-116825000D03*
X114000000Y-115175000D03*
D58*
X108660254Y-95000000D03*
D59*
X110091026Y-90945534D03*
X110669534Y-91634974D03*
X111358974Y-91056466D03*
X110780466Y-90367026D03*
D56*
X100410000Y-46000000D03*
X99390000Y-46000000D03*
D52*
X88000000Y-111175000D03*
X88000000Y-112825000D03*
D32*
X117190000Y-104825000D03*
X114810000Y-104825000D03*
X117190000Y-105460000D03*
X114810000Y-105460000D03*
X117190000Y-106095000D03*
X114810000Y-106095000D03*
X117190000Y-106730000D03*
X114810000Y-106730000D03*
X117190000Y-107365000D03*
X114810000Y-107365000D03*
X117190000Y-108000000D03*
X114810000Y-108000000D03*
X117190000Y-108635000D03*
X114810000Y-108635000D03*
X117190000Y-109270000D03*
X114810000Y-109270000D03*
X117190000Y-109905000D03*
X114810000Y-109905000D03*
X117190000Y-110540000D03*
X114810000Y-110540000D03*
X117190000Y-111175000D03*
X114810000Y-111175000D03*
D57*
X86000000Y-115225000D03*
X86000000Y-116775000D03*
D58*
X108660254Y-105000000D03*
D52*
X96000000Y-118425000D03*
X96000000Y-120075000D03*
D60*
X94000000Y-121950000D03*
X94000000Y-120050000D03*
D24*
X110000000Y-138000000D03*
D61*
X113550000Y-99550000D03*
X113550000Y-100450000D03*
X114450000Y-100450000D03*
X114450000Y-99550000D03*
D62*
X88056847Y-138056847D03*
X86943153Y-136943153D03*
D36*
X112000000Y-114775000D03*
X112000000Y-113225000D03*
X103500000Y-123775000D03*
X103500000Y-122225000D03*
D56*
X100410000Y-47000000D03*
X99390000Y-47000000D03*
D57*
X110000000Y-125225000D03*
X110000000Y-126775000D03*
D63*
X102796022Y-113265695D03*
X101909695Y-113421978D03*
X102065978Y-114308305D03*
X102952305Y-114152022D03*
D64*
X89908974Y-109054466D03*
X89330466Y-108365026D03*
X88641026Y-108943534D03*
X89219534Y-109632974D03*
D37*
X98000000Y-123000000D03*
D65*
X112579229Y-94943047D03*
X112887047Y-95788771D03*
X113732771Y-95480953D03*
X113424953Y-94635229D03*
D57*
X94000000Y-115225000D03*
X94000000Y-116775000D03*
D14*
X106000000Y-125050000D03*
X106000000Y-122950000D03*
D66*
X98090305Y-113421978D03*
X97203978Y-113265695D03*
X97047695Y-114152022D03*
X97934022Y-114308305D03*
D57*
X88000000Y-131225000D03*
X88000000Y-132775000D03*
D29*
X101050000Y-82937500D03*
X102950000Y-82937500D03*
X102000000Y-81062500D03*
D32*
X85190000Y-87825000D03*
X82810000Y-87825000D03*
X85190000Y-88460000D03*
X82810000Y-88460000D03*
X85190000Y-89095000D03*
X82810000Y-89095000D03*
X85190000Y-89730000D03*
X82810000Y-89730000D03*
X85190000Y-90365000D03*
X82810000Y-90365000D03*
X85190000Y-91000000D03*
X82810000Y-91000000D03*
X85190000Y-91635000D03*
X82810000Y-91635000D03*
X85190000Y-92270000D03*
X82810000Y-92270000D03*
X85190000Y-92905000D03*
X82810000Y-92905000D03*
X85190000Y-93540000D03*
X82810000Y-93540000D03*
X85190000Y-94175000D03*
X82810000Y-94175000D03*
D67*
X109775000Y-128500000D03*
X108225000Y-128500000D03*
D33*
X86000000Y-132000000D03*
D58*
X90000000Y-100000000D03*
D68*
X92835289Y-88490711D03*
X93614711Y-88040711D03*
X93164711Y-87261289D03*
X92385289Y-87711289D03*
D61*
X86450000Y-100450000D03*
X86450000Y-99550000D03*
X85550000Y-99550000D03*
X85550000Y-100450000D03*
D57*
X90000000Y-131225000D03*
X90000000Y-132775000D03*
D69*
X92175000Y-139000000D03*
X93825000Y-139000000D03*
D70*
X101909695Y-86578022D03*
X102796022Y-86734305D03*
X102952305Y-85847978D03*
X102065978Y-85691695D03*
D53*
X104720000Y-72460000D03*
D54*
X109800000Y-70300000D03*
D55*
X107260000Y-70300000D03*
X104720000Y-70300000D03*
X102180000Y-70300000D03*
D71*
X107164711Y-111509289D03*
X106385289Y-111959289D03*
X106835289Y-112738711D03*
X107614711Y-112288711D03*
D58*
X91339746Y-105000000D03*
D72*
X89330466Y-91634974D03*
X89908974Y-90945534D03*
X89219534Y-90367026D03*
X88641026Y-91056466D03*
D57*
X108000000Y-125225000D03*
X108000000Y-126775000D03*
D73*
X98950000Y-111000000D03*
X101050000Y-111000000D03*
D74*
X100000000Y-136900000D03*
D75*
X100700000Y-124100000D03*
D76*
X93550000Y-133100000D03*
X106450000Y-133100000D03*
D29*
X102050000Y-77937500D03*
X103950000Y-77937500D03*
X103000000Y-76062500D03*
D77*
X104500000Y-50000000D03*
D78*
X103960000Y-50325000D03*
D79*
X103960000Y-49675000D03*
D80*
X105040000Y-49675000D03*
D81*
X105040000Y-50325000D03*
D36*
X106000000Y-116775000D03*
X106000000Y-115225000D03*
D82*
X94000000Y-125525000D03*
X94000000Y-128475000D03*
D58*
X110000000Y-100000000D03*
D30*
X106000000Y-127050000D03*
X106000000Y-128950000D03*
D83*
X110225000Y-133000000D03*
X111775000Y-133000000D03*
D84*
X104000000Y-44000000D03*
D85*
X102250000Y-41562500D03*
X102750000Y-41562500D03*
X103250000Y-41562500D03*
X103750000Y-41562500D03*
X104250000Y-41562500D03*
X104750000Y-41562500D03*
X105250000Y-41562500D03*
X105750000Y-41562500D03*
D86*
X106437500Y-42250000D03*
X106437500Y-42750000D03*
X106437500Y-43250000D03*
X106437500Y-43750000D03*
X106437500Y-44250000D03*
X106437500Y-44750000D03*
X106437500Y-45250000D03*
X106437500Y-45750000D03*
D85*
X105750000Y-46437500D03*
X105250000Y-46437500D03*
X104750000Y-46437500D03*
X104250000Y-46437500D03*
X103750000Y-46437500D03*
X103250000Y-46437500D03*
X102750000Y-46437500D03*
X102250000Y-46437500D03*
D86*
X101562500Y-45750000D03*
X101562500Y-45250000D03*
X101562500Y-44750000D03*
X101562500Y-44250000D03*
X101562500Y-43750000D03*
X101562500Y-43250000D03*
X101562500Y-42750000D03*
X101562500Y-42250000D03*
D87*
X97990000Y-41500000D03*
X99010000Y-41500000D03*
D36*
X114000000Y-112775000D03*
X114000000Y-111225000D03*
D88*
X101700000Y-119875000D03*
X101700000Y-118125000D03*
X100300000Y-118125000D03*
X100300000Y-119875000D03*
D25*
X112000000Y-126787500D03*
X112000000Y-125212500D03*
D48*
X98020000Y-44000000D03*
X98980000Y-44000000D03*
D89*
X91500000Y-125050000D03*
D90*
X90000000Y-125137500D03*
D89*
X88500000Y-125050000D03*
D39*
X86000000Y-120075000D03*
X86000000Y-118425000D03*
D36*
X106500000Y-49225000D03*
X106500000Y-50775000D03*
D87*
X97990000Y-40500000D03*
X99010000Y-40500000D03*
D91*
X110000000Y-129962500D03*
X110000000Y-131537500D03*
D92*
X100000000Y-103500000D03*
D93*
X100000000Y-100000000D03*
D94*
X97500000Y-107300000D03*
X102500000Y-107300000D03*
X100000000Y-107300000D03*
D95*
X95000000Y-107900000D03*
X105000000Y-107900000D03*
D96*
X93625000Y-100000000D03*
X106375000Y-100000000D03*
D95*
X95000000Y-92100000D03*
X105000000Y-92100000D03*
D94*
X102500000Y-93000000D03*
X97500000Y-93000000D03*
D97*
X104980000Y-48500000D03*
X104020000Y-48500000D03*
D57*
X114000000Y-127225000D03*
X114000000Y-128775000D03*
D24*
X87500000Y-62500000D03*
D36*
X114000000Y-124775000D03*
X114000000Y-123225000D03*
D98*
X97203978Y-86734305D03*
X98090305Y-86578022D03*
X97934022Y-85691695D03*
X97047695Y-85847978D03*
D99*
X110669534Y-108365026D03*
X110091026Y-109054466D03*
X110780466Y-109632974D03*
X111358974Y-108943534D03*
D58*
X91339746Y-95000000D03*
D100*
X112887047Y-104211229D03*
X112579229Y-105056953D03*
X113424953Y-105364771D03*
X113732771Y-104519047D03*
D58*
X80000000Y-137000000D03*
D52*
X64000000Y-102175000D03*
X64000000Y-103825000D03*
D33*
X62000000Y-104000000D03*
D89*
X56500000Y-106087500D03*
D101*
X58000000Y-106000000D03*
D89*
X59500000Y-106087500D03*
D102*
X79750000Y-59562500D03*
X79250000Y-59562500D03*
X78750000Y-59562500D03*
X78250000Y-59562500D03*
D103*
X77562500Y-60250000D03*
X77562500Y-60750000D03*
X77562500Y-61250000D03*
X77562500Y-61750000D03*
D102*
X78250000Y-62437500D03*
X78750000Y-62437500D03*
X79250000Y-62437500D03*
X79750000Y-62437500D03*
D103*
X80437500Y-61750000D03*
X80437500Y-61250000D03*
X80437500Y-60750000D03*
X80437500Y-60250000D03*
D104*
X79000000Y-61000000D03*
D52*
X49000000Y-108175000D03*
X49000000Y-109825000D03*
D33*
X62000000Y-132000000D03*
D52*
X72000000Y-98175000D03*
X72000000Y-99825000D03*
D57*
X80000000Y-110225000D03*
X80000000Y-111775000D03*
D52*
X56000000Y-56175000D03*
X56000000Y-57825000D03*
D39*
X70000000Y-111825000D03*
X70000000Y-110175000D03*
D105*
X76150000Y-105250000D03*
X76150000Y-104750000D03*
X76150000Y-104250000D03*
X76150000Y-103750000D03*
X76150000Y-103250000D03*
X76150000Y-102750000D03*
X76150000Y-102250000D03*
X76150000Y-101750000D03*
X76150000Y-101250000D03*
X76150000Y-100750000D03*
X76150000Y-100250000D03*
X76150000Y-99750000D03*
X76150000Y-99250000D03*
X76150000Y-98750000D03*
X76150000Y-98250000D03*
X76150000Y-97750000D03*
X76150000Y-97250000D03*
X76150000Y-96750000D03*
X76150000Y-96250000D03*
X76150000Y-95750000D03*
X76150000Y-95250000D03*
X76150000Y-94750000D03*
X76150000Y-94250000D03*
X76150000Y-93750000D03*
X76150000Y-93250000D03*
X76150000Y-92750000D03*
X76150000Y-92250000D03*
X76150000Y-91750000D03*
X76150000Y-91250000D03*
X76150000Y-90750000D03*
D106*
X79400000Y-107150000D03*
X79400000Y-88850000D03*
D107*
X74000000Y-53150000D03*
X74000000Y-56850000D03*
D33*
X66000000Y-111000000D03*
D60*
X62000000Y-128950000D03*
X62000000Y-127050000D03*
D108*
X72050000Y-138340000D03*
X73000000Y-138340000D03*
X73950000Y-138340000D03*
X73950000Y-135660000D03*
X73000000Y-135660000D03*
X72050000Y-135660000D03*
D109*
X72475000Y-137400000D03*
X73525000Y-137400000D03*
X72475000Y-136600000D03*
X73525000Y-136600000D03*
D52*
X62000000Y-90175000D03*
X62000000Y-91825000D03*
D33*
X64000000Y-95000000D03*
D57*
X64000000Y-98225000D03*
X64000000Y-99775000D03*
D36*
X74000000Y-107775000D03*
X74000000Y-106225000D03*
D52*
X60000000Y-86175000D03*
X60000000Y-87825000D03*
D110*
X58905000Y-112525000D03*
X57635000Y-112525000D03*
X56365000Y-112525000D03*
X55095000Y-112525000D03*
X55095000Y-117475000D03*
X56365000Y-117475000D03*
X57635000Y-117475000D03*
X58905000Y-117475000D03*
D60*
X62000000Y-117950000D03*
X62000000Y-116050000D03*
D24*
X52000000Y-45000000D03*
D83*
X66225000Y-58000000D03*
X67775000Y-58000000D03*
D69*
X66175000Y-62000000D03*
X67825000Y-62000000D03*
D39*
X68000000Y-99825000D03*
X68000000Y-98175000D03*
D52*
X60000000Y-90175000D03*
X60000000Y-91825000D03*
D14*
X75000000Y-69050000D03*
X75000000Y-66950000D03*
D57*
X76000000Y-110225000D03*
X76000000Y-111775000D03*
X82000000Y-110225000D03*
X82000000Y-111775000D03*
X75000000Y-60225000D03*
X75000000Y-61775000D03*
D33*
X59000000Y-57000000D03*
D111*
X54037500Y-137000000D03*
X59962500Y-137000000D03*
D112*
X54740000Y-82750000D03*
X56010000Y-82750000D03*
X57280000Y-82750000D03*
X58550000Y-82750000D03*
X59820000Y-82750000D03*
X61090000Y-82750000D03*
X62360000Y-82750000D03*
X63630000Y-82750000D03*
X64900000Y-82750000D03*
X66170000Y-82750000D03*
X67440000Y-82750000D03*
X68710000Y-82750000D03*
X69980000Y-82750000D03*
X71250000Y-82750000D03*
D113*
X72500000Y-80985000D03*
X72500000Y-79715000D03*
X72500000Y-78445000D03*
X72500000Y-77175000D03*
X72500000Y-75905000D03*
X72500000Y-74635000D03*
X72500000Y-73365000D03*
X72500000Y-72095000D03*
X72500000Y-70825000D03*
X72500000Y-69555000D03*
X72500000Y-68285000D03*
X72500000Y-67015000D03*
D112*
X71250000Y-65250000D03*
X69980000Y-65250000D03*
X68710000Y-65250000D03*
X67440000Y-65250000D03*
X66170000Y-65250000D03*
X64900000Y-65250000D03*
X63630000Y-65250000D03*
X62360000Y-65250000D03*
X61090000Y-65250000D03*
X59820000Y-65250000D03*
X58550000Y-65250000D03*
X57280000Y-65250000D03*
X56010000Y-65250000D03*
X54740000Y-65250000D03*
D114*
X61760000Y-76900000D03*
X63160000Y-76900000D03*
X61060000Y-76200000D03*
X62460000Y-76200000D03*
X63860000Y-76200000D03*
X61760000Y-75500000D03*
D115*
X62460000Y-75500000D03*
D114*
X63160000Y-75500000D03*
X61060000Y-74800000D03*
X62460000Y-74800000D03*
X63860000Y-74800000D03*
X61760000Y-74100000D03*
X63160000Y-74100000D03*
D24*
X52000000Y-135000000D03*
D52*
X56000000Y-52175000D03*
X56000000Y-53825000D03*
D24*
X78000000Y-135000000D03*
D33*
X58000000Y-95000000D03*
D39*
X66000000Y-99825000D03*
X66000000Y-98175000D03*
D58*
X50000000Y-43000000D03*
D52*
X70000000Y-98175000D03*
X70000000Y-99825000D03*
X54000000Y-47175000D03*
X54000000Y-48825000D03*
D57*
X78000000Y-110225000D03*
X78000000Y-111775000D03*
X57000000Y-108225000D03*
X57000000Y-109775000D03*
D33*
X59000000Y-53000000D03*
D35*
X49095000Y-105475000D03*
X50365000Y-105475000D03*
X51635000Y-105475000D03*
X52905000Y-105475000D03*
X52905000Y-100525000D03*
X51635000Y-100525000D03*
X50365000Y-100525000D03*
X49095000Y-100525000D03*
D31*
X72050000Y-50137500D03*
X73000000Y-50137500D03*
X73950000Y-50137500D03*
X73950000Y-47862500D03*
X73000000Y-47862500D03*
X72050000Y-47862500D03*
D60*
X77000000Y-85950000D03*
X77000000Y-84050000D03*
D92*
X73000000Y-120500000D03*
D93*
X73000000Y-124000000D03*
D94*
X75500000Y-116700000D03*
X70500000Y-116700000D03*
X73000000Y-116700000D03*
D95*
X78000000Y-116100000D03*
X68000000Y-116100000D03*
D96*
X79375000Y-124000000D03*
X66625000Y-124000000D03*
D95*
X78000000Y-131900000D03*
X68000000Y-131900000D03*
D94*
X70500000Y-131000000D03*
X75500000Y-131000000D03*
D116*
X79000000Y-69000000D03*
D117*
X79000000Y-67000000D03*
D30*
X59000000Y-108050000D03*
X59000000Y-109950000D03*
D57*
X60000000Y-94225000D03*
X60000000Y-95775000D03*
D25*
X54000000Y-44787500D03*
X54000000Y-43212500D03*
D118*
X63460000Y-137000000D03*
D119*
X66000000Y-137000000D03*
X68540000Y-137000000D03*
D60*
X62000000Y-113950000D03*
X62000000Y-112050000D03*
D120*
X81000000Y-50475000D03*
X81000000Y-47525000D03*
D52*
X68000000Y-110175000D03*
X68000000Y-111825000D03*
D57*
X51000000Y-108225000D03*
X51000000Y-109775000D03*
D36*
X72000000Y-44775000D03*
X72000000Y-43225000D03*
D39*
X78000000Y-44825000D03*
X78000000Y-43175000D03*
D57*
X58000000Y-86225000D03*
X58000000Y-87775000D03*
D30*
X73000000Y-60050000D03*
X73000000Y-61950000D03*
D120*
X78000000Y-50475000D03*
X78000000Y-47525000D03*
D60*
X78000000Y-55950000D03*
X78000000Y-54050000D03*
D121*
X54000000Y-121450000D03*
X54000000Y-132550000D03*
D57*
X62000000Y-94225000D03*
X62000000Y-95775000D03*
D120*
X56000000Y-92475000D03*
X56000000Y-89525000D03*
D52*
X55000000Y-108175000D03*
X55000000Y-109825000D03*
D33*
X66000000Y-107000000D03*
D58*
X50000000Y-137000000D03*
D110*
X52905000Y-112525000D03*
X51635000Y-112525000D03*
X50365000Y-112525000D03*
X49095000Y-112525000D03*
X49095000Y-117475000D03*
X50365000Y-117475000D03*
X51635000Y-117475000D03*
X52905000Y-117475000D03*
D43*
X57500000Y-46540000D03*
X56484000Y-41460000D03*
X58516000Y-41460000D03*
D44*
X58135000Y-45270000D03*
X56865000Y-45270000D03*
X58135000Y-44000000D03*
X56865000Y-44000000D03*
X58135000Y-42730000D03*
X56865000Y-42730000D03*
D39*
X72000000Y-111825000D03*
X72000000Y-110175000D03*
D57*
X74000000Y-98225000D03*
X74000000Y-99775000D03*
D39*
X58000000Y-91825000D03*
X58000000Y-90175000D03*
D57*
X53000000Y-108225000D03*
X53000000Y-109775000D03*
D39*
X76000000Y-44825000D03*
X76000000Y-43175000D03*
D36*
X76000000Y-49775000D03*
X76000000Y-48225000D03*
D60*
X79000000Y-85950000D03*
X79000000Y-84050000D03*
D37*
X81000000Y-55000000D03*
D52*
X74000000Y-110175000D03*
X74000000Y-111825000D03*
D110*
X71905000Y-102525000D03*
X70635000Y-102525000D03*
X69365000Y-102525000D03*
X68095000Y-102525000D03*
X68095000Y-107475000D03*
X69365000Y-107475000D03*
X70635000Y-107475000D03*
X71905000Y-107475000D03*
D122*
X62950000Y-53000000D03*
X61050000Y-53000000D03*
X62000000Y-54875000D03*
D33*
X74000000Y-103000000D03*
D123*
X65737500Y-53500000D03*
X65737500Y-54000000D03*
X65737500Y-54500000D03*
D124*
X66250000Y-55262500D03*
X66750000Y-55262500D03*
X67250000Y-55262500D03*
X67750000Y-55262500D03*
D123*
X68262500Y-54500000D03*
X68262500Y-54000000D03*
X68262500Y-53500000D03*
D124*
X67750000Y-52737500D03*
X67250000Y-52737500D03*
X66750000Y-52737500D03*
X66250000Y-52737500D03*
D104*
X67000000Y-54000000D03*
D57*
X56000000Y-86225000D03*
X56000000Y-87775000D03*
D69*
X66175000Y-60000000D03*
X67825000Y-60000000D03*
D57*
X76000000Y-136225000D03*
X76000000Y-137775000D03*
D52*
X62000000Y-86175000D03*
X62000000Y-87825000D03*
D39*
X81000000Y-85825000D03*
X81000000Y-84175000D03*
X66000000Y-103825000D03*
X66000000Y-102175000D03*
D125*
X62950000Y-58000000D03*
X61050000Y-58000000D03*
D52*
X74000000Y-43175000D03*
X74000000Y-44825000D03*
D17*
X67890000Y-46605000D03*
X62110000Y-46605000D03*
D18*
X68350000Y-47670000D03*
X67550000Y-47670000D03*
X66250000Y-47670000D03*
X65250000Y-47670000D03*
X64750000Y-47670000D03*
X63750000Y-47670000D03*
X62450000Y-47670000D03*
X61650000Y-47670000D03*
X61950000Y-47670000D03*
X62750000Y-47670000D03*
X63250000Y-47670000D03*
X64250000Y-47670000D03*
X65750000Y-47670000D03*
X66750000Y-47670000D03*
X67250000Y-47670000D03*
X68050000Y-47670000D03*
D19*
X69320000Y-47105000D03*
D20*
X69320000Y-42925000D03*
D19*
X60680000Y-47105000D03*
D20*
X60680000Y-42925000D03*
D27*
X123500000Y-114020000D03*
X123500000Y-114980000D03*
D126*
X123200000Y-127500000D03*
X122000000Y-127500000D03*
X120800000Y-127500000D03*
D27*
X125000000Y-114020000D03*
X125000000Y-114980000D03*
X118000000Y-116020000D03*
X118000000Y-116980000D03*
D25*
X118000000Y-98212500D03*
X118000000Y-99787500D03*
D27*
X126000000Y-114020000D03*
X126000000Y-114980000D03*
D127*
X123950000Y-104637500D03*
X122050000Y-104637500D03*
X122050000Y-102362500D03*
X123000000Y-102362500D03*
X123950000Y-102362500D03*
D27*
X128000000Y-127020000D03*
X128000000Y-127980000D03*
D60*
X128000000Y-131050000D03*
X128000000Y-132950000D03*
D15*
X125500000Y-127980000D03*
X125500000Y-127020000D03*
X118000000Y-122480000D03*
X118000000Y-121520000D03*
D16*
X126500000Y-135490000D03*
X126500000Y-136510000D03*
D20*
X118680000Y-90710000D03*
D19*
X118680000Y-94890000D03*
D20*
X127320000Y-90710000D03*
D19*
X127320000Y-94890000D03*
D18*
X126050000Y-95455000D03*
X125250000Y-95455000D03*
X124750000Y-95455000D03*
X123750000Y-95455000D03*
X122250000Y-95455000D03*
X121250000Y-95455000D03*
X120750000Y-95455000D03*
X119950000Y-95455000D03*
X119650000Y-95455000D03*
X120450000Y-95455000D03*
X121750000Y-95455000D03*
X122750000Y-95455000D03*
X123250000Y-95455000D03*
X124250000Y-95455000D03*
X125550000Y-95455000D03*
X126350000Y-95455000D03*
D17*
X120110000Y-94390000D03*
X125890000Y-94390000D03*
D16*
X124500000Y-135490000D03*
X124500000Y-136510000D03*
D24*
X128000000Y-89000000D03*
D91*
X128000000Y-136787500D03*
X128000000Y-135212500D03*
D27*
X128000000Y-103020000D03*
X128000000Y-103980000D03*
D26*
X119500000Y-128010000D03*
X119500000Y-126990000D03*
D15*
X124500000Y-127980000D03*
X124500000Y-127020000D03*
D27*
X128000000Y-116020000D03*
X128000000Y-116980000D03*
D16*
X120000000Y-99490000D03*
X120000000Y-100510000D03*
D15*
X128000000Y-122480000D03*
X128000000Y-121520000D03*
D27*
X127000000Y-114020000D03*
X127000000Y-114980000D03*
D39*
X118000000Y-102675000D03*
X118000000Y-104325000D03*
D127*
X123950000Y-133137500D03*
X122050000Y-133137500D03*
X122050000Y-130862500D03*
X123000000Y-130862500D03*
X123950000Y-130862500D03*
D27*
X122500000Y-114020000D03*
X122500000Y-114980000D03*
D16*
X126000000Y-97490000D03*
X126000000Y-98510000D03*
X120000000Y-97490000D03*
X120000000Y-98510000D03*
D60*
X126000000Y-102550000D03*
X126000000Y-104450000D03*
D24*
X118500000Y-138500000D03*
D128*
X126600000Y-107595000D03*
X126600000Y-108865000D03*
X126600000Y-110135000D03*
X126600000Y-111405000D03*
X119400000Y-111405000D03*
X119400000Y-110135000D03*
X119400000Y-108865000D03*
X119400000Y-107595000D03*
D129*
X123000000Y-120500000D03*
D130*
X120400000Y-117062500D03*
X120800000Y-117062500D03*
X121200000Y-117062500D03*
X121600000Y-117062500D03*
X122000000Y-117062500D03*
X122400000Y-117062500D03*
X122800000Y-117062500D03*
X123200000Y-117062500D03*
X123600000Y-117062500D03*
X124000000Y-117062500D03*
X124400000Y-117062500D03*
X124800000Y-117062500D03*
X125200000Y-117062500D03*
X125600000Y-117062500D03*
D131*
X126437500Y-117900000D03*
X126437500Y-118300000D03*
X126437500Y-118700000D03*
X126437500Y-119100000D03*
X126437500Y-119500000D03*
X126437500Y-119900000D03*
X126437500Y-120300000D03*
X126437500Y-120700000D03*
X126437500Y-121100000D03*
X126437500Y-121500000D03*
X126437500Y-121900000D03*
X126437500Y-122300000D03*
X126437500Y-122700000D03*
X126437500Y-123100000D03*
D130*
X125600000Y-123937500D03*
X125200000Y-123937500D03*
X124800000Y-123937500D03*
X124400000Y-123937500D03*
X124000000Y-123937500D03*
X123600000Y-123937500D03*
X123200000Y-123937500D03*
X122800000Y-123937500D03*
X122400000Y-123937500D03*
X122000000Y-123937500D03*
X121600000Y-123937500D03*
X121200000Y-123937500D03*
X120800000Y-123937500D03*
X120400000Y-123937500D03*
D131*
X119562500Y-123100000D03*
X119562500Y-122700000D03*
X119562500Y-122300000D03*
X119562500Y-121900000D03*
X119562500Y-121500000D03*
X119562500Y-121100000D03*
X119562500Y-120700000D03*
X119562500Y-120300000D03*
X119562500Y-119900000D03*
X119562500Y-119500000D03*
X119562500Y-119100000D03*
X119562500Y-118700000D03*
X119562500Y-118300000D03*
X119562500Y-117900000D03*
D25*
X118000000Y-135212500D03*
X118000000Y-136787500D03*
D26*
X123500000Y-136510000D03*
X123500000Y-135490000D03*
D28*
X120460000Y-138630000D03*
X123000000Y-138630000D03*
X125540000Y-138630000D03*
D26*
X119500000Y-136510000D03*
X119500000Y-135490000D03*
D39*
X120000000Y-102675000D03*
X120000000Y-104325000D03*
D24*
X127500000Y-138500000D03*
D27*
X126000000Y-99520000D03*
X126000000Y-100480000D03*
D132*
X128000000Y-100050000D03*
X128000000Y-97950000D03*
D122*
X123000000Y-99937500D03*
X122050000Y-98062500D03*
X123950000Y-98062500D03*
D43*
X120460000Y-130984000D03*
X120460000Y-133016000D03*
X125540000Y-132000000D03*
M02*
