M48
; DRILL file {KiCad 7.0.8} date Wed Oct 18 02:17:38 2023
; FORMAT={-:-/ absolute / inch / decimal}
; #@! TF.CreationDate,2023-10-18T02:17:38-07:00
; #@! TF.GenerationSoftware,Kicad,Pcbnew,7.0.8
; #@! TF.FileFunction,NonPlated,1,2,NPTH
FMAT,2
INCH
; #@! TA.AperFunction,NonPlated,NPTH,ComponentDrill
T1C0.0150
; #@! TA.AperFunction,NonPlated,NPTH,ComponentDrill
T2C0.0256
; #@! TA.AperFunction,NonPlated,NPTH,ComponentDrill
T3C0.0390
; #@! TA.AperFunction,NonPlated,NPTH,ComponentDrill
T4C0.0433
; #@! TA.AperFunction,NonPlated,NPTH,ComponentDrill
T5C0.0454
; #@! TA.AperFunction,NonPlated,NPTH,ComponentDrill
T6C0.0630
; #@! TA.AperFunction,NonPlated,NPTH,ComponentDrill
T7C0.0787
; #@! TA.AperFunction,NonPlated,NPTH,ComponentDrill
T8C0.0827
; #@! TA.AperFunction,NonPlated,NPTH,ComponentDrill
T9C0.1063
%
G90
G05
T1
X3.2602Y-2.5522
X3.2602Y-2.5772
X3.2602Y-2.6022
X3.2602Y-2.6272
X3.2602Y-2.6522
X3.2602Y-2.6772
X3.2602Y-2.7022
X3.2602Y-2.7272
X3.2602Y-2.7522
X3.2602Y-2.7772
X3.2602Y-2.8022
X3.2602Y-3.4577
X3.2602Y-3.4827
X3.2602Y-3.5077
X3.2602Y-3.5327
X3.2602Y-3.5577
X3.2602Y-3.5827
X3.2602Y-3.6077
X3.2602Y-3.6327
X3.2602Y-3.6577
X3.2602Y-3.6827
X3.2602Y-3.7077
X3.3539Y-2.5522
X3.3539Y-2.5772
X3.3539Y-2.6022
X3.3539Y-2.6272
X3.3539Y-2.6522
X3.3539Y-2.6772
X3.3539Y-2.7022
X3.3539Y-2.7272
X3.3539Y-2.7522
X3.3539Y-2.7772
X3.3539Y-2.8022
X3.3539Y-3.4577
X3.3539Y-3.4827
X3.3539Y-3.5077
X3.3539Y-3.5327
X3.3539Y-3.5577
X3.3539Y-3.5827
X3.3539Y-3.6077
X3.3539Y-3.6327
X3.3539Y-3.6577
X3.3539Y-3.6827
X3.3539Y-3.7077
X3.8612Y-2.0398
X3.8612Y-2.3697
X3.8862Y-2.0398
X3.8862Y-2.3697
X3.9112Y-2.0398
X3.9112Y-2.3697
X3.9362Y-2.0398
X3.9362Y-2.3697
X3.9612Y-2.0398
X3.9612Y-2.3697
X3.9862Y-2.0398
X3.9862Y-2.3697
X4.0112Y-2.0398
X4.0112Y-2.3697
X4.0362Y-2.0398
X4.0362Y-2.3697
X4.0612Y-2.0398
X4.0612Y-2.3697
X4.0862Y-2.0398
X4.0862Y-2.3697
X4.1112Y-2.0398
X4.1112Y-2.3697
X4.5201Y-1.6073
X4.5201Y-1.6323
X4.5201Y-1.6573
X4.5201Y-1.6823
X4.5201Y-1.7073
X4.5201Y-1.7323
X4.5201Y-1.7573
X4.5201Y-1.7823
X4.5201Y-1.8073
X4.5201Y-1.8323
X4.5201Y-1.8573
X4.5201Y-4.127
X4.5201Y-4.152
X4.5201Y-4.177
X4.5201Y-4.202
X4.5201Y-4.227
X4.5201Y-4.252
X4.5201Y-4.277
X4.5201Y-4.302
X4.5201Y-4.327
X4.5201Y-4.352
X4.5201Y-4.377
X4.6138Y-1.6073
X4.6138Y-1.6323
X4.6138Y-1.6573
X4.6138Y-1.6823
X4.6138Y-1.7073
X4.6138Y-1.7323
X4.6138Y-1.7573
X4.6138Y-1.7823
X4.6138Y-1.8073
X4.6138Y-1.8323
X4.6138Y-1.8573
X4.6138Y-4.127
X4.6138Y-4.152
X4.6138Y-4.177
X4.6138Y-4.202
X4.6138Y-4.227
X4.6138Y-4.252
X4.6138Y-4.277
X4.6138Y-4.302
X4.6138Y-4.327
X4.6138Y-4.352
X4.6138Y-4.377
X4.6781Y-1.9563
X4.6781Y-3.2209
X4.7031Y-1.9563
X4.7031Y-3.2209
X4.7175Y-3.472
X4.7281Y-1.9563
X4.7281Y-3.2209
X4.7425Y-3.472
X4.7531Y-1.9563
X4.7531Y-3.2209
X4.7675Y-3.472
X4.7781Y-1.9563
X4.7781Y-3.2209
X4.7925Y-3.472
X4.8031Y-1.9563
X4.8031Y-3.2209
X4.8175Y-3.472
X4.8281Y-1.9563
X4.8281Y-3.2209
X4.8425Y-3.472
X4.8531Y-1.9563
X4.8531Y-3.2209
X4.8675Y-3.472
X4.8781Y-1.9563
X4.8781Y-3.2209
X4.8925Y-3.472
X4.9031Y-1.9563
X4.9031Y-3.2209
X4.9175Y-3.472
X4.9281Y-1.9563
X4.9281Y-3.2209
X4.9425Y-3.472
X4.9675Y-3.472
X5.1506Y-1.9563
X5.1506Y-3.2209
X5.1756Y-1.9563
X5.1756Y-3.2209
X5.2006Y-1.9563
X5.2006Y-3.2209
X5.2256Y-1.9563
X5.2256Y-3.2209
X5.2506Y-1.9563
X5.2506Y-3.2209
X5.2756Y-1.9563
X5.2756Y-3.2209
X5.3006Y-1.9563
X5.3006Y-3.2209
X5.3256Y-1.9563
X5.3256Y-3.2209
X5.3506Y-1.9563
X5.3506Y-3.2209
X5.3756Y-1.9563
X5.3756Y-3.2209
X5.4006Y-1.9563
X5.4006Y-3.2209
X5.623Y-1.9563
X5.623Y-3.2209
X5.648Y-1.9563
X5.648Y-3.2209
X5.673Y-1.9563
X5.673Y-3.2209
X5.698Y-1.9563
X5.698Y-3.2209
X5.723Y-1.9563
X5.723Y-3.2209
X5.748Y-1.9563
X5.748Y-3.2209
X5.773Y-1.9563
X5.773Y-3.2209
X5.798Y-1.9563
X5.798Y-3.2209
X5.823Y-1.9563
X5.823Y-3.2209
X5.848Y-1.9563
X5.848Y-3.2209
X5.873Y-1.9563
X5.873Y-3.2209
T2
X2.4453Y-1.8348
X2.6728Y-1.8348
X4.6894Y-2.9811
X4.7287Y-3.7161
X4.9169Y-2.9811
X4.9563Y-3.7161
X5.1618Y-2.9811
X5.3894Y-2.9811
X5.6343Y-2.9811
X5.8618Y-2.9811
T3
X2.2238Y-1.6323
X2.2638Y-1.8323
X2.3038Y-1.6323
X3.4332Y-5.2836
X3.5464Y-5.4533
X3.6029Y-5.3968
X3.7992Y-1.9488
X3.9992Y-1.9088
X3.9992Y-1.9888
X4.7425Y-5.1569
X4.7425Y-5.2369
X4.9425Y-5.1969
T4
X3.6504Y-2.8528
X4.1228Y-2.8528
T5
X2.0472Y-1.7717
X2.0472Y-5.315
X3.0709Y-5.315
X3.4449Y-2.4606
X4.3307Y-5.4331
X4.4291Y-2.4606
X4.6407Y-2.0669
X4.6654Y-5.4528
X4.9656Y-2.0669
X4.9656Y-2.874
X5.0197Y-5.4528
X5.0394Y-3.5039
X5.1132Y-2.0669
X5.438Y-2.0669
X5.438Y-2.874
X5.5856Y-2.0669
X5.9104Y-2.0669
X5.9104Y-2.874
T7
X3.937Y-5.3898
T8
X2.874Y-4.8819
X3.937Y-3.937
T9
X1.9685Y-1.6929
X1.9685Y-5.3937
X3.1496Y-5.3937
X3.5433Y-3.937
X3.5961Y-3.7402
X3.5961Y-4.1339
X4.278Y-3.7402
X4.278Y-4.1339
X4.3307Y-3.937
T6
G00X2.874Y-4.7362
M15
G01X2.874Y-4.752
M16
G05
G00X3.937Y-4.0827
M15
G01X3.937Y-4.0669
M16
G05
T0
M30
