G04 #@! TF.GenerationSoftware,KiCad,Pcbnew,7.0.4-40-g0180cb380f*
G04 #@! TF.CreationDate,2023-08-16T00:58:49-07:00*
G04 #@! TF.ProjectId,RobotCrawler,526f626f-7443-4726-9177-6c65722e6b69,rev?*
G04 #@! TF.SameCoordinates,Original*
G04 #@! TF.FileFunction,Soldermask,Top*
G04 #@! TF.FilePolarity,Negative*
%FSLAX46Y46*%
G04 Gerber Fmt 4.6, Leading zero omitted, Abs format (unit mm)*
G04 Created by KiCad (PCBNEW 7.0.4-40-g0180cb380f) date 2023-08-16 00:58:49*
%MOMM*%
%LPD*%
G01*
G04 APERTURE LIST*
G04 Aperture macros list*
%AMRoundRect*
0 Rectangle with rounded corners*
0 $1 Rounding radius*
0 $2 $3 $4 $5 $6 $7 $8 $9 X,Y pos of 4 corners*
0 Add a 4 corners polygon primitive as box body*
4,1,4,$2,$3,$4,$5,$6,$7,$8,$9,$2,$3,0*
0 Add four circle primitives for the rounded corners*
1,1,$1+$1,$2,$3*
1,1,$1+$1,$4,$5*
1,1,$1+$1,$6,$7*
1,1,$1+$1,$8,$9*
0 Add four rect primitives between the rounded corners*
20,1,$1+$1,$2,$3,$4,$5,0*
20,1,$1+$1,$4,$5,$6,$7,0*
20,1,$1+$1,$6,$7,$8,$9,0*
20,1,$1+$1,$8,$9,$2,$3,0*%
%AMFreePoly0*
4,1,9,3.862500,-0.866500,0.737500,-0.866500,0.737500,-0.450000,-0.737500,-0.450000,-0.737500,0.450000,0.737500,0.450000,0.737500,0.866500,3.862500,0.866500,3.862500,-0.866500,3.862500,-0.866500,$1*%
G04 Aperture macros list end*
%ADD10C,0.650000*%
%ADD11C,0.380000*%
%ADD12C,2.700000*%
%ADD13RoundRect,0.250000X-1.175000X-0.450000X1.175000X-0.450000X1.175000X0.450000X-1.175000X0.450000X0*%
%ADD14RoundRect,0.050000X0.387500X0.050000X-0.387500X0.050000X-0.387500X-0.050000X0.387500X-0.050000X0*%
%ADD15RoundRect,0.050000X0.050000X0.387500X-0.050000X0.387500X-0.050000X-0.387500X0.050000X-0.387500X0*%
%ADD16R,3.200000X3.200000*%
%ADD17RoundRect,0.200000X-0.200000X-0.275000X0.200000X-0.275000X0.200000X0.275000X-0.200000X0.275000X0*%
%ADD18RoundRect,0.225000X0.250000X-0.225000X0.250000X0.225000X-0.250000X0.225000X-0.250000X-0.225000X0*%
%ADD19RoundRect,0.225000X-0.225000X-0.250000X0.225000X-0.250000X0.225000X0.250000X-0.225000X0.250000X0*%
%ADD20R,1.700000X1.700000*%
%ADD21O,1.700000X1.700000*%
%ADD22RoundRect,0.150000X-0.512500X-0.150000X0.512500X-0.150000X0.512500X0.150000X-0.512500X0.150000X0*%
%ADD23R,0.250000X0.675000*%
%ADD24R,0.675000X0.250000*%
%ADD25RoundRect,0.250000X0.375000X1.075000X-0.375000X1.075000X-0.375000X-1.075000X0.375000X-1.075000X0*%
%ADD26RoundRect,0.225000X0.225000X0.250000X-0.225000X0.250000X-0.225000X-0.250000X0.225000X-0.250000X0*%
%ADD27RoundRect,0.225000X-0.250000X0.225000X-0.250000X-0.225000X0.250000X-0.225000X0.250000X0.225000X0*%
%ADD28RoundRect,0.218750X-0.218750X-0.256250X0.218750X-0.256250X0.218750X0.256250X-0.218750X0.256250X0*%
%ADD29RoundRect,0.112500X-0.187500X-0.112500X0.187500X-0.112500X0.187500X0.112500X-0.187500X0.112500X0*%
%ADD30C,1.152000*%
%ADD31RoundRect,0.218750X0.218750X0.256250X-0.218750X0.256250X-0.218750X-0.256250X0.218750X-0.256250X0*%
%ADD32C,0.990600*%
%ADD33C,0.787400*%
%ADD34RoundRect,0.075000X-0.662500X-0.075000X0.662500X-0.075000X0.662500X0.075000X-0.662500X0.075000X0*%
%ADD35RoundRect,0.075000X-0.075000X-0.662500X0.075000X-0.662500X0.075000X0.662500X-0.075000X0.662500X0*%
%ADD36R,1.500000X0.900000*%
%ADD37R,0.900000X1.500000*%
%ADD38C,0.600000*%
%ADD39R,3.900000X3.900000*%
%ADD40RoundRect,0.250000X-0.250000X-0.475000X0.250000X-0.475000X0.250000X0.475000X-0.250000X0.475000X0*%
%ADD41RoundRect,0.150000X0.650000X0.150000X-0.650000X0.150000X-0.650000X-0.150000X0.650000X-0.150000X0*%
%ADD42RoundRect,0.250000X-0.350000X-0.625000X0.350000X-0.625000X0.350000X0.625000X-0.350000X0.625000X0*%
%ADD43O,1.200000X1.750000*%
%ADD44RoundRect,0.200000X0.200000X0.275000X-0.200000X0.275000X-0.200000X-0.275000X0.200000X-0.275000X0*%
%ADD45R,1.300000X0.900000*%
%ADD46FreePoly0,180.000000*%
%ADD47RoundRect,0.250000X-0.325000X-0.650000X0.325000X-0.650000X0.325000X0.650000X-0.325000X0.650000X0*%
%ADD48R,0.300000X1.300000*%
%ADD49R,1.800000X2.200000*%
%ADD50RoundRect,0.200000X-0.275000X0.200000X-0.275000X-0.200000X0.275000X-0.200000X0.275000X0.200000X0*%
%ADD51RoundRect,0.250000X0.250000X0.475000X-0.250000X0.475000X-0.250000X-0.475000X0.250000X-0.475000X0*%
%ADD52RoundRect,0.150000X0.150000X-0.587500X0.150000X0.587500X-0.150000X0.587500X-0.150000X-0.587500X0*%
%ADD53R,0.800000X0.300000*%
%ADD54R,0.650000X0.300000*%
%ADD55R,0.950000X0.400000*%
%ADD56C,2.374900*%
%ADD57RoundRect,0.200000X0.275000X-0.200000X0.275000X0.200000X-0.275000X0.200000X-0.275000X-0.200000X0*%
%ADD58RoundRect,0.150000X0.587500X0.150000X-0.587500X0.150000X-0.587500X-0.150000X0.587500X-0.150000X0*%
%ADD59RoundRect,0.250000X0.625000X-0.350000X0.625000X0.350000X-0.625000X0.350000X-0.625000X-0.350000X0*%
%ADD60O,1.750000X1.200000*%
%ADD61RoundRect,0.250000X-0.650000X0.325000X-0.650000X-0.325000X0.650000X-0.325000X0.650000X0.325000X0*%
%ADD62C,3.000000*%
%ADD63RoundRect,0.250000X-1.075000X0.375000X-1.075000X-0.375000X1.075000X-0.375000X1.075000X0.375000X0*%
%ADD64RoundRect,0.250000X0.650000X-0.325000X0.650000X0.325000X-0.650000X0.325000X-0.650000X-0.325000X0*%
%ADD65RoundRect,0.225000X-0.375000X0.225000X-0.375000X-0.225000X0.375000X-0.225000X0.375000X0.225000X0*%
%ADD66RoundRect,0.225000X-0.225000X-0.375000X0.225000X-0.375000X0.225000X0.375000X-0.225000X0.375000X0*%
%ADD67R,1.100000X1.800000*%
%ADD68RoundRect,0.225000X0.375000X-0.225000X0.375000X0.225000X-0.375000X0.225000X-0.375000X-0.225000X0*%
G04 APERTURE END LIST*
D10*
X176325000Y-34000000D02*
G75*
G03*
X176325000Y-34000000I-325000J0D01*
G01*
X124325000Y-106000000D02*
G75*
G03*
X124325000Y-106000000I-325000J0D01*
G01*
X124325000Y-34000000D02*
G75*
G03*
X124325000Y-34000000I-325000J0D01*
G01*
X86325000Y-38000000D02*
G75*
G03*
X86325000Y-38000000I-325000J0D01*
G01*
X86325000Y-108000000D02*
G75*
G03*
X86325000Y-108000000I-325000J0D01*
G01*
X116325000Y-38000000D02*
G75*
G03*
X116325000Y-38000000I-325000J0D01*
G01*
D11*
X120190000Y-98825000D03*
X120190000Y-99460000D03*
X120190000Y-100095000D03*
X120190000Y-100730000D03*
X120190000Y-101365000D03*
X120190000Y-102000000D03*
X120190000Y-102635000D03*
X120190000Y-103270000D03*
X120190000Y-103905000D03*
X120190000Y-104540000D03*
X120190000Y-105175000D03*
X117810000Y-105175000D03*
X117810000Y-104540000D03*
X117810000Y-103905000D03*
X117810000Y-103270000D03*
X117810000Y-102635000D03*
X117810000Y-102000000D03*
X117810000Y-101365000D03*
X117810000Y-100730000D03*
X117810000Y-100095000D03*
X117810000Y-99460000D03*
X117810000Y-98825000D03*
X120190000Y-39825000D03*
X120190000Y-40460000D03*
X120190000Y-41095000D03*
X120190000Y-41730000D03*
X120190000Y-42365000D03*
X120190000Y-43000000D03*
X120190000Y-43635000D03*
X120190000Y-44270000D03*
X120190000Y-44905000D03*
X120190000Y-45540000D03*
X120190000Y-46175000D03*
X117810000Y-39825000D03*
X117810000Y-41095000D03*
X117810000Y-46175000D03*
X117810000Y-41730000D03*
X117810000Y-43635000D03*
X117810000Y-42365000D03*
X117810000Y-45540000D03*
X117810000Y-43000000D03*
X117810000Y-44270000D03*
X117810000Y-44905000D03*
X117810000Y-40460000D03*
D12*
X165000000Y-35000000D03*
D13*
X124000000Y-61000000D03*
D14*
X173437500Y-64600000D03*
X173437500Y-64200000D03*
X173437500Y-63800000D03*
X173437500Y-63400000D03*
X173437500Y-63000000D03*
X173437500Y-62600000D03*
X173437500Y-62200000D03*
X173437500Y-61800000D03*
X173437500Y-61400000D03*
X173437500Y-61000000D03*
X173437500Y-60600000D03*
X173437500Y-60200000D03*
X173437500Y-59800000D03*
X173437500Y-59400000D03*
D15*
X172600000Y-58562500D03*
X172200000Y-58562500D03*
X171800000Y-58562500D03*
X171400000Y-58562500D03*
X171000000Y-58562500D03*
X170600000Y-58562500D03*
X170200000Y-58562500D03*
X169800000Y-58562500D03*
X169400000Y-58562500D03*
X169000000Y-58562500D03*
X168600000Y-58562500D03*
X168200000Y-58562500D03*
X167800000Y-58562500D03*
X167400000Y-58562500D03*
D14*
X166562500Y-59400000D03*
X166562500Y-59800000D03*
X166562500Y-60200000D03*
X166562500Y-60600000D03*
X166562500Y-61000000D03*
X166562500Y-61400000D03*
X166562500Y-61800000D03*
X166562500Y-62200000D03*
X166562500Y-62600000D03*
X166562500Y-63000000D03*
X166562500Y-63400000D03*
X166562500Y-63800000D03*
X166562500Y-64200000D03*
X166562500Y-64600000D03*
D15*
X167400000Y-65437500D03*
X167800000Y-65437500D03*
X168200000Y-65437500D03*
X168600000Y-65437500D03*
X169000000Y-65437500D03*
X169400000Y-65437500D03*
X169800000Y-65437500D03*
X170200000Y-65437500D03*
X170600000Y-65437500D03*
X171000000Y-65437500D03*
X171400000Y-65437500D03*
X171800000Y-65437500D03*
X172200000Y-65437500D03*
X172600000Y-65437500D03*
D16*
X170000000Y-62000000D03*
D17*
X159675000Y-55500000D03*
X161325000Y-55500000D03*
D18*
X162000000Y-76775000D03*
X162000000Y-75225000D03*
D19*
X131225000Y-74000000D03*
X132775000Y-74000000D03*
D20*
X122200000Y-40000000D03*
D21*
X124740000Y-40000000D03*
X127280000Y-40000000D03*
X129820000Y-40000000D03*
D20*
X177800000Y-43000000D03*
D21*
X175260000Y-43000000D03*
X172720000Y-43000000D03*
X170180000Y-43000000D03*
D18*
X171000000Y-55775000D03*
X171000000Y-54225000D03*
D22*
X128862500Y-56050000D03*
X128862500Y-57000000D03*
X128862500Y-57950000D03*
X131137500Y-57950000D03*
X131137500Y-56050000D03*
D20*
X177800000Y-47000000D03*
D21*
X175260000Y-47000000D03*
X172720000Y-47000000D03*
X170180000Y-47000000D03*
D18*
X169000000Y-55775000D03*
X169000000Y-54225000D03*
D23*
X149250000Y-72262500D03*
X149750000Y-72262500D03*
X150250000Y-72262500D03*
X150750000Y-72262500D03*
D24*
X151012500Y-71500000D03*
X151012500Y-71000000D03*
X151012500Y-70500000D03*
D23*
X150750000Y-69737500D03*
X150250000Y-69737500D03*
X149750000Y-69737500D03*
X149250000Y-69737500D03*
D24*
X148987500Y-70500000D03*
X148987500Y-71000000D03*
X148987500Y-71500000D03*
D19*
X155725000Y-57500000D03*
X157275000Y-57500000D03*
D20*
X177800000Y-100000000D03*
D21*
X175260000Y-100000000D03*
X172720000Y-100000000D03*
X170180000Y-100000000D03*
D25*
X131400000Y-52000000D03*
X128600000Y-52000000D03*
D18*
X164000000Y-75775000D03*
X164000000Y-74225000D03*
D26*
X144275000Y-68000000D03*
X142725000Y-68000000D03*
D18*
X151000000Y-76775000D03*
X151000000Y-75225000D03*
D27*
X156000000Y-75225000D03*
X156000000Y-76775000D03*
D20*
X122200000Y-103000000D03*
D21*
X124740000Y-103000000D03*
X127280000Y-103000000D03*
X129820000Y-103000000D03*
D27*
X138000000Y-75225000D03*
X138000000Y-76775000D03*
D28*
X135212500Y-108000000D03*
X136787500Y-108000000D03*
D13*
X145000000Y-70000000D03*
D26*
X163775000Y-61000000D03*
X162225000Y-61000000D03*
D19*
X154225000Y-72000000D03*
X155775000Y-72000000D03*
D29*
X123950000Y-52000000D03*
X126050000Y-52000000D03*
D12*
X135000000Y-100000000D03*
D30*
X176000000Y-34000000D03*
D17*
X140175000Y-72000000D03*
X141825000Y-72000000D03*
D20*
X177800000Y-40000000D03*
D21*
X175260000Y-40000000D03*
X172720000Y-40000000D03*
X170180000Y-40000000D03*
D31*
X177787500Y-59000000D03*
X176212500Y-59000000D03*
D19*
X176225000Y-66000000D03*
X177775000Y-66000000D03*
D20*
X122200000Y-37000000D03*
D21*
X124740000Y-37000000D03*
X127280000Y-37000000D03*
X129820000Y-37000000D03*
D32*
X172540000Y-51000000D03*
X167460000Y-52016000D03*
X167460000Y-49984000D03*
D33*
X171270000Y-50365000D03*
X171270000Y-51635000D03*
X170000000Y-50365000D03*
X170000000Y-51635000D03*
X168730000Y-50365000D03*
X168730000Y-51635000D03*
D26*
X163775000Y-66000000D03*
X162225000Y-66000000D03*
D20*
X177800000Y-97000000D03*
D21*
X175260000Y-97000000D03*
X172720000Y-97000000D03*
X170180000Y-97000000D03*
D13*
X168000000Y-87000000D03*
D34*
X145837500Y-59250000D03*
X145837500Y-59750000D03*
X145837500Y-60250000D03*
X145837500Y-60750000D03*
X145837500Y-61250000D03*
X145837500Y-61750000D03*
X145837500Y-62250000D03*
X145837500Y-62750000D03*
X145837500Y-63250000D03*
X145837500Y-63750000D03*
X145837500Y-64250000D03*
X145837500Y-64750000D03*
D35*
X147250000Y-66162500D03*
X147750000Y-66162500D03*
X148250000Y-66162500D03*
X148750000Y-66162500D03*
X149250000Y-66162500D03*
X149750000Y-66162500D03*
X150250000Y-66162500D03*
X150750000Y-66162500D03*
X151250000Y-66162500D03*
X151750000Y-66162500D03*
X152250000Y-66162500D03*
X152750000Y-66162500D03*
D34*
X154162500Y-64750000D03*
X154162500Y-64250000D03*
X154162500Y-63750000D03*
X154162500Y-63250000D03*
X154162500Y-62750000D03*
X154162500Y-62250000D03*
X154162500Y-61750000D03*
X154162500Y-61250000D03*
X154162500Y-60750000D03*
X154162500Y-60250000D03*
X154162500Y-59750000D03*
X154162500Y-59250000D03*
D35*
X152750000Y-57837500D03*
X152250000Y-57837500D03*
X151750000Y-57837500D03*
X151250000Y-57837500D03*
X150750000Y-57837500D03*
X150250000Y-57837500D03*
X149750000Y-57837500D03*
X149250000Y-57837500D03*
X148750000Y-57837500D03*
X148250000Y-57837500D03*
X147750000Y-57837500D03*
X147250000Y-57837500D03*
D36*
X158750000Y-109260000D03*
X158750000Y-107990000D03*
X158750000Y-106720000D03*
X158750000Y-105450000D03*
X158750000Y-104180000D03*
X158750000Y-102910000D03*
X158750000Y-101640000D03*
X158750000Y-100370000D03*
X158750000Y-99100000D03*
X158750000Y-97830000D03*
X158750000Y-96560000D03*
X158750000Y-95290000D03*
X158750000Y-94020000D03*
X158750000Y-92750000D03*
D37*
X156985000Y-91500000D03*
X155715000Y-91500000D03*
X154445000Y-91500000D03*
X153175000Y-91500000D03*
X151905000Y-91500000D03*
X150635000Y-91500000D03*
X149365000Y-91500000D03*
X148095000Y-91500000D03*
X146825000Y-91500000D03*
X145555000Y-91500000D03*
X144285000Y-91500000D03*
X143015000Y-91500000D03*
D36*
X141250000Y-92750000D03*
X141250000Y-94020000D03*
X141250000Y-95290000D03*
X141250000Y-96560000D03*
X141250000Y-97830000D03*
X141250000Y-99100000D03*
X141250000Y-100370000D03*
X141250000Y-101640000D03*
X141250000Y-102910000D03*
X141250000Y-104180000D03*
X141250000Y-105450000D03*
X141250000Y-106720000D03*
X141250000Y-107990000D03*
X141250000Y-109260000D03*
D38*
X152900000Y-102240000D03*
X152900000Y-100840000D03*
X152200000Y-102940000D03*
X152200000Y-101540000D03*
X152200000Y-100140000D03*
X151500000Y-102240000D03*
D39*
X151500000Y-101540000D03*
D38*
X151500000Y-100840000D03*
X150800000Y-102940000D03*
X150800000Y-101540000D03*
X150800000Y-100140000D03*
X150100000Y-102240000D03*
X150100000Y-100840000D03*
D40*
X124050000Y-56000000D03*
X125950000Y-56000000D03*
D30*
X124000000Y-106000000D03*
X124000000Y-34000000D03*
D26*
X144275000Y-57500000D03*
X142725000Y-57500000D03*
D12*
X135000000Y-35000000D03*
D26*
X176775000Y-87000000D03*
X175225000Y-87000000D03*
D41*
X173600000Y-76905000D03*
X173600000Y-75635000D03*
X173600000Y-74365000D03*
X173600000Y-73095000D03*
X166400000Y-73095000D03*
X166400000Y-74365000D03*
X166400000Y-75635000D03*
X166400000Y-76905000D03*
D20*
X122200000Y-100000000D03*
D21*
X124740000Y-100000000D03*
X127280000Y-100000000D03*
X129820000Y-100000000D03*
D18*
X147000000Y-76775000D03*
X147000000Y-75225000D03*
D17*
X127175000Y-61000000D03*
X128825000Y-61000000D03*
D42*
X173000000Y-91000000D03*
D43*
X175000000Y-91000000D03*
D26*
X144275000Y-66500000D03*
X142725000Y-66500000D03*
D44*
X177825000Y-54000000D03*
X176175000Y-54000000D03*
D45*
X175950000Y-84500000D03*
D46*
X175862500Y-83000000D03*
D45*
X175950000Y-81500000D03*
D47*
X130525000Y-69000000D03*
X133475000Y-69000000D03*
D31*
X177787500Y-55500000D03*
X176212500Y-55500000D03*
D20*
X177800000Y-103000000D03*
D21*
X175260000Y-103000000D03*
X172720000Y-103000000D03*
X170180000Y-103000000D03*
D19*
X131225000Y-76000000D03*
X132775000Y-76000000D03*
D29*
X126950000Y-80000000D03*
X129050000Y-80000000D03*
D18*
X144000000Y-76775000D03*
X144000000Y-75225000D03*
D20*
X122200000Y-43000000D03*
D21*
X124740000Y-43000000D03*
X127280000Y-43000000D03*
X129820000Y-43000000D03*
D31*
X177787500Y-62500000D03*
X176212500Y-62500000D03*
D48*
X144250000Y-80150000D03*
X144750000Y-80150000D03*
X145250000Y-80150000D03*
X145750000Y-80150000D03*
X146250000Y-80150000D03*
X146750000Y-80150000D03*
X147250000Y-80150000D03*
X147750000Y-80150000D03*
X148250000Y-80150000D03*
X148750000Y-80150000D03*
X149250000Y-80150000D03*
X149750000Y-80150000D03*
X150250000Y-80150000D03*
X150750000Y-80150000D03*
X151250000Y-80150000D03*
X151750000Y-80150000D03*
X152250000Y-80150000D03*
X152750000Y-80150000D03*
X153250000Y-80150000D03*
X153750000Y-80150000D03*
X154250000Y-80150000D03*
X154750000Y-80150000D03*
X155250000Y-80150000D03*
X155750000Y-80150000D03*
D49*
X142350000Y-83400000D03*
X157650000Y-83400000D03*
D19*
X154225000Y-70000000D03*
X155775000Y-70000000D03*
D27*
X172000000Y-69225000D03*
X172000000Y-70775000D03*
X168000000Y-69225000D03*
X168000000Y-70775000D03*
D19*
X155725000Y-66500000D03*
X157275000Y-66500000D03*
X168225000Y-106000000D03*
X169775000Y-106000000D03*
D50*
X153000000Y-75175000D03*
X153000000Y-76825000D03*
D51*
X144450000Y-55500000D03*
X142550000Y-55500000D03*
D13*
X145000000Y-72000000D03*
D52*
X140050000Y-76937500D03*
X141950000Y-76937500D03*
X141000000Y-75062500D03*
D31*
X177787500Y-52000000D03*
X176212500Y-52000000D03*
D19*
X175225000Y-79000000D03*
X176775000Y-79000000D03*
D47*
X167525000Y-108000000D03*
X170475000Y-108000000D03*
D17*
X131175000Y-61000000D03*
X132825000Y-61000000D03*
D53*
X124600000Y-67500000D03*
D54*
X127475000Y-67800000D03*
D53*
X124600000Y-68100000D03*
D54*
X127475000Y-68400000D03*
D53*
X124600000Y-68700000D03*
D54*
X127475000Y-69000000D03*
D53*
X124600000Y-69300000D03*
D54*
X127475000Y-69600000D03*
D53*
X124600000Y-69900000D03*
D54*
X127475000Y-70200000D03*
D53*
X124600000Y-70500000D03*
D54*
X127475000Y-70800000D03*
D53*
X124600000Y-71100000D03*
D54*
X127475000Y-71400000D03*
D53*
X124600000Y-71700000D03*
D54*
X127475000Y-72000000D03*
D53*
X124600000Y-72300000D03*
D54*
X127475000Y-72600000D03*
D53*
X124600000Y-72900000D03*
D54*
X127475000Y-73200000D03*
D53*
X124600000Y-73500000D03*
D54*
X127475000Y-73800000D03*
D53*
X124600000Y-74100000D03*
D54*
X127475000Y-74400000D03*
D53*
X124600000Y-74700000D03*
D54*
X127475000Y-75000000D03*
D53*
X124600000Y-75300000D03*
D54*
X127475000Y-75600000D03*
D53*
X124600000Y-75900000D03*
D54*
X127475000Y-76200000D03*
D53*
X124600000Y-76500000D03*
D55*
X124875000Y-66800000D03*
X124875000Y-77200000D03*
D19*
X127225000Y-63000000D03*
X128775000Y-63000000D03*
D12*
X165000000Y-100000000D03*
D13*
X172000000Y-87000000D03*
D40*
X124050000Y-58000000D03*
X125950000Y-58000000D03*
D56*
X130540000Y-87460000D03*
D32*
X128000000Y-87460000D03*
D56*
X125460000Y-87460000D03*
X130540000Y-90635000D03*
X125460000Y-90635000D03*
D32*
X129016000Y-92540000D03*
X126984000Y-92540000D03*
D33*
X127365000Y-88730000D03*
X128635000Y-88730000D03*
X127365000Y-90000000D03*
X128635000Y-90000000D03*
X127365000Y-91270000D03*
X128635000Y-91270000D03*
D26*
X163775000Y-68000000D03*
X162225000Y-68000000D03*
D29*
X130950000Y-80000000D03*
X133050000Y-80000000D03*
D17*
X131175000Y-78000000D03*
X132825000Y-78000000D03*
D20*
X122200000Y-47000000D03*
D21*
X124740000Y-47000000D03*
X127280000Y-47000000D03*
X129820000Y-47000000D03*
D44*
X164825000Y-106000000D03*
X163175000Y-106000000D03*
D20*
X122200000Y-97000000D03*
D21*
X124740000Y-97000000D03*
X127280000Y-97000000D03*
X129820000Y-97000000D03*
D40*
X131050000Y-66000000D03*
X132950000Y-66000000D03*
D44*
X177825000Y-50500000D03*
X176175000Y-50500000D03*
D13*
X172000000Y-79000000D03*
D40*
X134050000Y-56000000D03*
X135950000Y-56000000D03*
D32*
X139000000Y-47460000D03*
X140016000Y-52540000D03*
X137984000Y-52540000D03*
D33*
X138365000Y-48730000D03*
X139635000Y-48730000D03*
X138365000Y-50000000D03*
X139635000Y-50000000D03*
X138365000Y-51270000D03*
X139635000Y-51270000D03*
D52*
X158050000Y-76937500D03*
X159950000Y-76937500D03*
X159000000Y-75062500D03*
D44*
X132825000Y-108000000D03*
X131175000Y-108000000D03*
D19*
X163225000Y-108000000D03*
X164775000Y-108000000D03*
D17*
X140175000Y-70000000D03*
X141825000Y-70000000D03*
X131175000Y-72000000D03*
X132825000Y-72000000D03*
D27*
X166000000Y-69225000D03*
X166000000Y-70775000D03*
D19*
X176225000Y-61000000D03*
X177775000Y-61000000D03*
D44*
X177825000Y-64000000D03*
X176175000Y-64000000D03*
D18*
X149000000Y-76775000D03*
X149000000Y-75225000D03*
D27*
X170000000Y-69225000D03*
X170000000Y-70775000D03*
D31*
X157287500Y-55500000D03*
X155712500Y-55500000D03*
D44*
X177825000Y-57500000D03*
X176175000Y-57500000D03*
D20*
X177800000Y-37000000D03*
D21*
X175260000Y-37000000D03*
X172720000Y-37000000D03*
X170180000Y-37000000D03*
D13*
X104000000Y-107000000D03*
D50*
X104000000Y-78175000D03*
X104000000Y-79825000D03*
D57*
X108000000Y-58825000D03*
X108000000Y-57175000D03*
D58*
X104937500Y-58950000D03*
X104937500Y-57050000D03*
X103062500Y-58000000D03*
D59*
X87000000Y-99000000D03*
D60*
X87000000Y-97000000D03*
D27*
X94000000Y-46225000D03*
X94000000Y-47775000D03*
D20*
X88375000Y-59525000D03*
D21*
X88375000Y-56985000D03*
X88375000Y-54445000D03*
D18*
X107000000Y-47775000D03*
X107000000Y-46225000D03*
D61*
X100000000Y-56525000D03*
X100000000Y-59475000D03*
D56*
X110460000Y-69540000D03*
D32*
X113000000Y-69540000D03*
D56*
X115540000Y-69540000D03*
X110460000Y-66365000D03*
X115540000Y-66365000D03*
D32*
X111984000Y-64460000D03*
X114016000Y-64460000D03*
D33*
X113635000Y-68270000D03*
X112365000Y-68270000D03*
X113635000Y-67000000D03*
X112365000Y-67000000D03*
X113635000Y-65730000D03*
X112365000Y-65730000D03*
D20*
X88375000Y-86525000D03*
D21*
X88375000Y-83985000D03*
X88375000Y-81445000D03*
D27*
X103000000Y-46225000D03*
X103000000Y-47775000D03*
D30*
X86000000Y-38000000D03*
D27*
X96000000Y-78225000D03*
X96000000Y-79775000D03*
D62*
X88000000Y-106000000D03*
D20*
X88375000Y-68525000D03*
D21*
X88375000Y-65985000D03*
X88375000Y-63445000D03*
D27*
X108000000Y-52225000D03*
X108000000Y-53775000D03*
D61*
X99000000Y-45525000D03*
X99000000Y-48475000D03*
D44*
X106825000Y-66000000D03*
X105175000Y-66000000D03*
D17*
X92175000Y-105000000D03*
X93825000Y-105000000D03*
D52*
X96050000Y-75937500D03*
X97950000Y-75937500D03*
X97000000Y-74062500D03*
D63*
X104000000Y-51650000D03*
X104000000Y-54450000D03*
D31*
X93787500Y-103000000D03*
X92212500Y-103000000D03*
D64*
X94000000Y-54475000D03*
X94000000Y-51525000D03*
D30*
X86000000Y-108000000D03*
D59*
X114450000Y-52000000D03*
D60*
X114450000Y-50000000D03*
X114450000Y-48000000D03*
D27*
X101000000Y-46225000D03*
X101000000Y-47775000D03*
D44*
X106825000Y-68000000D03*
X105175000Y-68000000D03*
D13*
X109000000Y-103000000D03*
D64*
X96000000Y-48475000D03*
X96000000Y-45525000D03*
D65*
X97000000Y-56350000D03*
X97000000Y-59650000D03*
D17*
X96175000Y-103000000D03*
X97825000Y-103000000D03*
D47*
X96525000Y-107000000D03*
X99475000Y-107000000D03*
D66*
X107350000Y-99000000D03*
X110650000Y-99000000D03*
D62*
X114000000Y-106000000D03*
D19*
X108225000Y-101000000D03*
X109775000Y-101000000D03*
D27*
X106000000Y-78225000D03*
X106000000Y-79775000D03*
D18*
X98000000Y-79775000D03*
X98000000Y-78225000D03*
D13*
X104000000Y-99000000D03*
D19*
X108225000Y-105000000D03*
X109775000Y-105000000D03*
D18*
X102000000Y-79775000D03*
X102000000Y-78225000D03*
D67*
X113150000Y-90100000D03*
X113150000Y-83900000D03*
X116850000Y-90100000D03*
X116850000Y-83900000D03*
D27*
X100000000Y-74225000D03*
X100000000Y-75775000D03*
D61*
X105000000Y-45525000D03*
X105000000Y-48475000D03*
D20*
X88375000Y-77525000D03*
D21*
X88375000Y-74985000D03*
X88375000Y-72445000D03*
D26*
X96775000Y-68000000D03*
X95225000Y-68000000D03*
D19*
X92225000Y-107000000D03*
X93775000Y-107000000D03*
D18*
X100000000Y-79775000D03*
X100000000Y-78225000D03*
D20*
X88375000Y-50525000D03*
D21*
X88375000Y-47985000D03*
X88375000Y-45445000D03*
D27*
X102000000Y-74225000D03*
X102000000Y-75775000D03*
D65*
X100000000Y-51350000D03*
X100000000Y-54650000D03*
D48*
X106750000Y-42850000D03*
X106250000Y-42850000D03*
X105750000Y-42850000D03*
X105250000Y-42850000D03*
X104750000Y-42850000D03*
X104250000Y-42850000D03*
X103750000Y-42850000D03*
X103250000Y-42850000D03*
X102750000Y-42850000D03*
X102250000Y-42850000D03*
X101750000Y-42850000D03*
X101250000Y-42850000D03*
X100750000Y-42850000D03*
X100250000Y-42850000D03*
X99750000Y-42850000D03*
X99250000Y-42850000D03*
X98750000Y-42850000D03*
X98250000Y-42850000D03*
X97750000Y-42850000D03*
X97250000Y-42850000D03*
X96750000Y-42850000D03*
X96250000Y-42850000D03*
X95750000Y-42850000D03*
X95250000Y-42850000D03*
D49*
X108650000Y-39600000D03*
X93350000Y-39600000D03*
D19*
X96225000Y-105000000D03*
X97775000Y-105000000D03*
D48*
X95250000Y-83150000D03*
X95750000Y-83150000D03*
X96250000Y-83150000D03*
X96750000Y-83150000D03*
X97250000Y-83150000D03*
X97750000Y-83150000D03*
X98250000Y-83150000D03*
X98750000Y-83150000D03*
X99250000Y-83150000D03*
X99750000Y-83150000D03*
X100250000Y-83150000D03*
X100750000Y-83150000D03*
X101250000Y-83150000D03*
X101750000Y-83150000D03*
X102250000Y-83150000D03*
X102750000Y-83150000D03*
X103250000Y-83150000D03*
X103750000Y-83150000D03*
X104250000Y-83150000D03*
X104750000Y-83150000D03*
X105250000Y-83150000D03*
X105750000Y-83150000D03*
X106250000Y-83150000D03*
X106750000Y-83150000D03*
D49*
X93350000Y-86400000D03*
X108650000Y-86400000D03*
D62*
X114000000Y-40000000D03*
D45*
X105950000Y-104500000D03*
D46*
X105862500Y-103000000D03*
D45*
X105950000Y-101500000D03*
D23*
X101750000Y-65737500D03*
X101250000Y-65737500D03*
X100750000Y-65737500D03*
X100250000Y-65737500D03*
D24*
X99987500Y-66500000D03*
X99987500Y-67000000D03*
X99987500Y-67500000D03*
D23*
X100250000Y-68262500D03*
X100750000Y-68262500D03*
X101250000Y-68262500D03*
X101750000Y-68262500D03*
D24*
X102012500Y-67500000D03*
X102012500Y-67000000D03*
X102012500Y-66500000D03*
D61*
X97000000Y-51525000D03*
X97000000Y-54475000D03*
D26*
X96775000Y-66000000D03*
X95225000Y-66000000D03*
D52*
X104050000Y-75937500D03*
X105950000Y-75937500D03*
X105000000Y-74062500D03*
D30*
X116000000Y-38000000D03*
D62*
X88000000Y-40000000D03*
D68*
X94000000Y-59650000D03*
X94000000Y-56350000D03*
M02*
