G04 #@! TF.GenerationSoftware,KiCad,Pcbnew,7.0.4-40-g0180cb380f*
G04 #@! TF.CreationDate,2023-08-16T00:58:49-07:00*
G04 #@! TF.ProjectId,RobotCrawler,526f626f-7443-4726-9177-6c65722e6b69,rev?*
G04 #@! TF.SameCoordinates,Original*
G04 #@! TF.FileFunction,Soldermask,Bot*
G04 #@! TF.FilePolarity,Negative*
%FSLAX46Y46*%
G04 Gerber Fmt 4.6, Leading zero omitted, Abs format (unit mm)*
G04 Created by KiCad (PCBNEW 7.0.4-40-g0180cb380f) date 2023-08-16 00:58:49*
%MOMM*%
%LPD*%
G01*
G04 APERTURE LIST*
G04 Aperture macros list*
%AMRoundRect*
0 Rectangle with rounded corners*
0 $1 Rounding radius*
0 $2 $3 $4 $5 $6 $7 $8 $9 X,Y pos of 4 corners*
0 Add a 4 corners polygon primitive as box body*
4,1,4,$2,$3,$4,$5,$6,$7,$8,$9,$2,$3,0*
0 Add four circle primitives for the rounded corners*
1,1,$1+$1,$2,$3*
1,1,$1+$1,$4,$5*
1,1,$1+$1,$6,$7*
1,1,$1+$1,$8,$9*
0 Add four rect primitives between the rounded corners*
20,1,$1+$1,$2,$3,$4,$5,0*
20,1,$1+$1,$4,$5,$6,$7,0*
20,1,$1+$1,$6,$7,$8,$9,0*
20,1,$1+$1,$8,$9,$2,$3,0*%
G04 Aperture macros list end*
%ADD10C,0.650000*%
%ADD11C,2.500000*%
%ADD12C,0.380000*%
%ADD13C,2.700000*%
%ADD14R,1.700000X1.700000*%
%ADD15O,1.700000X1.700000*%
%ADD16C,1.152000*%
%ADD17C,0.990600*%
%ADD18RoundRect,0.250000X-0.350000X-0.625000X0.350000X-0.625000X0.350000X0.625000X-0.350000X0.625000X0*%
%ADD19O,1.200000X1.750000*%
%ADD20C,2.374900*%
%ADD21RoundRect,0.137500X0.353553X-0.159099X-0.159099X0.353553X-0.353553X0.159099X0.159099X-0.353553X0*%
%ADD22RoundRect,0.137500X0.424264X0.229810X0.229810X0.424264X-0.424264X-0.229810X-0.229810X-0.424264X0*%
%ADD23RoundRect,0.175000X0.424264X0.176777X0.176777X0.424264X-0.424264X-0.176777X-0.176777X-0.424264X0*%
%ADD24RoundRect,0.112500X0.424264X0.265165X0.265165X0.424264X-0.424264X-0.265165X-0.265165X-0.424264X0*%
%ADD25RoundRect,0.137500X0.137500X-0.362500X0.137500X0.362500X-0.137500X0.362500X-0.137500X-0.362500X0*%
%ADD26RoundRect,0.137500X0.462500X-0.137500X0.462500X0.137500X-0.462500X0.137500X-0.462500X-0.137500X0*%
%ADD27RoundRect,0.175000X0.425000X-0.175000X0.425000X0.175000X-0.425000X0.175000X-0.425000X-0.175000X0*%
%ADD28RoundRect,0.112500X0.487500X-0.112500X0.487500X0.112500X-0.487500X0.112500X-0.487500X-0.112500X0*%
%ADD29RoundRect,0.137500X-0.137500X0.362500X-0.137500X-0.362500X0.137500X-0.362500X0.137500X0.362500X0*%
%ADD30RoundRect,0.137500X-0.462500X0.137500X-0.462500X-0.137500X0.462500X-0.137500X0.462500X0.137500X0*%
%ADD31RoundRect,0.175000X-0.425000X0.175000X-0.425000X-0.175000X0.425000X-0.175000X0.425000X0.175000X0*%
%ADD32RoundRect,0.112500X-0.487500X0.112500X-0.487500X-0.112500X0.487500X-0.112500X0.487500X0.112500X0*%
%ADD33RoundRect,0.137500X0.159099X0.353553X-0.353553X-0.159099X-0.159099X-0.353553X0.353553X0.159099X0*%
%ADD34RoundRect,0.137500X-0.229810X0.424264X-0.424264X0.229810X0.229810X-0.424264X0.424264X-0.229810X0*%
%ADD35RoundRect,0.175000X-0.176777X0.424264X-0.424264X0.176777X0.176777X-0.424264X0.424264X-0.176777X0*%
%ADD36RoundRect,0.112500X-0.265165X0.424264X-0.424264X0.265165X0.265165X-0.424264X0.424264X-0.265165X0*%
%ADD37RoundRect,0.137500X-0.159099X-0.353553X0.353553X0.159099X0.159099X0.353553X-0.353553X-0.159099X0*%
%ADD38RoundRect,0.137500X0.229810X-0.424264X0.424264X-0.229810X-0.229810X0.424264X-0.424264X0.229810X0*%
%ADD39RoundRect,0.175000X0.176777X-0.424264X0.424264X-0.176777X-0.176777X0.424264X-0.424264X0.176777X0*%
%ADD40RoundRect,0.112500X0.265165X-0.424264X0.424264X-0.265165X-0.265165X0.424264X-0.424264X0.265165X0*%
%ADD41RoundRect,0.137500X-0.362500X-0.137500X0.362500X-0.137500X0.362500X0.137500X-0.362500X0.137500X0*%
%ADD42RoundRect,0.137500X-0.137500X-0.462500X0.137500X-0.462500X0.137500X0.462500X-0.137500X0.462500X0*%
%ADD43RoundRect,0.175000X-0.175000X-0.425000X0.175000X-0.425000X0.175000X0.425000X-0.175000X0.425000X0*%
%ADD44RoundRect,0.112500X-0.112500X-0.487500X0.112500X-0.487500X0.112500X0.487500X-0.112500X0.487500X0*%
%ADD45RoundRect,0.137500X-0.353553X0.159099X0.159099X-0.353553X0.353553X-0.159099X-0.159099X0.353553X0*%
%ADD46RoundRect,0.137500X-0.424264X-0.229810X-0.229810X-0.424264X0.424264X0.229810X0.229810X0.424264X0*%
%ADD47RoundRect,0.175000X-0.424264X-0.176777X-0.176777X-0.424264X0.424264X0.176777X0.176777X0.424264X0*%
%ADD48RoundRect,0.112500X-0.424264X-0.265165X-0.265165X-0.424264X0.424264X0.265165X0.265165X0.424264X0*%
%ADD49RoundRect,0.250000X0.625000X-0.350000X0.625000X0.350000X-0.625000X0.350000X-0.625000X-0.350000X0*%
%ADD50O,1.750000X1.200000*%
%ADD51C,3.000000*%
%ADD52R,1.500000X0.900000*%
%ADD53R,0.900000X1.500000*%
%ADD54C,0.600000*%
%ADD55R,3.900000X3.900000*%
G04 APERTURE END LIST*
D10*
X176325000Y-34000000D02*
G75*
G03*
X176325000Y-34000000I-325000J0D01*
G01*
X124325000Y-106000000D02*
G75*
G03*
X124325000Y-106000000I-325000J0D01*
G01*
X124325000Y-34000000D02*
G75*
G03*
X124325000Y-34000000I-325000J0D01*
G01*
D11*
X148250000Y-106000000D02*
G75*
G03*
X148250000Y-106000000I-1250000J0D01*
G01*
D10*
X86325000Y-38000000D02*
G75*
G03*
X86325000Y-38000000I-325000J0D01*
G01*
X86325000Y-108000000D02*
G75*
G03*
X86325000Y-108000000I-325000J0D01*
G01*
X116325000Y-38000000D02*
G75*
G03*
X116325000Y-38000000I-325000J0D01*
G01*
D11*
X94250000Y-40000000D02*
G75*
G03*
X94250000Y-40000000I-1250000J0D01*
G01*
D12*
X120190000Y-98825000D03*
X120190000Y-99460000D03*
X120190000Y-100095000D03*
X120190000Y-100730000D03*
X120190000Y-101365000D03*
X120190000Y-102000000D03*
X120190000Y-102635000D03*
X120190000Y-103270000D03*
X120190000Y-103905000D03*
X120190000Y-104540000D03*
X120190000Y-105175000D03*
X117810000Y-105175000D03*
X117810000Y-104540000D03*
X117810000Y-103905000D03*
X117810000Y-103270000D03*
X117810000Y-102635000D03*
X117810000Y-102000000D03*
X117810000Y-101365000D03*
X117810000Y-100730000D03*
X117810000Y-100095000D03*
X117810000Y-99460000D03*
X117810000Y-98825000D03*
X120190000Y-39825000D03*
X120190000Y-40460000D03*
X120190000Y-41095000D03*
X120190000Y-41730000D03*
X120190000Y-42365000D03*
X120190000Y-43000000D03*
X120190000Y-43635000D03*
X120190000Y-44270000D03*
X120190000Y-44905000D03*
X120190000Y-45540000D03*
X120190000Y-46175000D03*
X117810000Y-39825000D03*
X117810000Y-41095000D03*
X117810000Y-46175000D03*
X117810000Y-41730000D03*
X117810000Y-43635000D03*
X117810000Y-42365000D03*
X117810000Y-45540000D03*
X117810000Y-43000000D03*
X117810000Y-44270000D03*
X117810000Y-44905000D03*
X117810000Y-40460000D03*
D13*
X165000000Y-35000000D03*
D14*
X122200000Y-40000000D03*
D15*
X124740000Y-40000000D03*
X127280000Y-40000000D03*
X129820000Y-40000000D03*
D14*
X177800000Y-43000000D03*
D15*
X175260000Y-43000000D03*
X172720000Y-43000000D03*
X170180000Y-43000000D03*
D14*
X177800000Y-47000000D03*
D15*
X175260000Y-47000000D03*
X172720000Y-47000000D03*
X170180000Y-47000000D03*
D14*
X177800000Y-100000000D03*
D15*
X175260000Y-100000000D03*
X172720000Y-100000000D03*
X170180000Y-100000000D03*
D14*
X122200000Y-103000000D03*
D15*
X124740000Y-103000000D03*
X127280000Y-103000000D03*
X129820000Y-103000000D03*
D13*
X135000000Y-100000000D03*
D16*
X176000000Y-34000000D03*
D14*
X177800000Y-40000000D03*
D15*
X175260000Y-40000000D03*
X172720000Y-40000000D03*
X170180000Y-40000000D03*
D14*
X122200000Y-37000000D03*
D15*
X124740000Y-37000000D03*
X127280000Y-37000000D03*
X129820000Y-37000000D03*
D17*
X172540000Y-51000000D03*
X167460000Y-52016000D03*
X167460000Y-49984000D03*
D14*
X177800000Y-97000000D03*
D15*
X175260000Y-97000000D03*
X172720000Y-97000000D03*
X170180000Y-97000000D03*
D16*
X124000000Y-106000000D03*
X124000000Y-34000000D03*
D13*
X135000000Y-35000000D03*
D14*
X122200000Y-100000000D03*
D15*
X124740000Y-100000000D03*
X127280000Y-100000000D03*
X129820000Y-100000000D03*
D18*
X173000000Y-91000000D03*
D19*
X175000000Y-91000000D03*
D14*
X177800000Y-103000000D03*
D15*
X175260000Y-103000000D03*
X172720000Y-103000000D03*
X170180000Y-103000000D03*
D14*
X122200000Y-43000000D03*
D15*
X124740000Y-43000000D03*
X127280000Y-43000000D03*
X129820000Y-43000000D03*
D13*
X165000000Y-100000000D03*
D20*
X130540000Y-87460000D03*
D17*
X128000000Y-87460000D03*
D20*
X125460000Y-87460000D03*
X130540000Y-90635000D03*
X125460000Y-90635000D03*
D17*
X129016000Y-92540000D03*
X126984000Y-92540000D03*
D14*
X122200000Y-47000000D03*
D15*
X124740000Y-47000000D03*
X127280000Y-47000000D03*
X129820000Y-47000000D03*
D14*
X122200000Y-97000000D03*
D15*
X124740000Y-97000000D03*
X127280000Y-97000000D03*
X129820000Y-97000000D03*
D17*
X139000000Y-47460000D03*
X140016000Y-52540000D03*
X137984000Y-52540000D03*
D14*
X177800000Y-37000000D03*
D15*
X175260000Y-37000000D03*
X172720000Y-37000000D03*
X170180000Y-37000000D03*
D21*
X123750089Y-108795495D03*
D22*
X123537957Y-108689429D03*
D23*
X122742462Y-107893934D03*
D24*
X122017678Y-107169150D03*
D22*
X121310571Y-106462043D03*
D21*
X121204505Y-106249911D03*
D25*
X121675000Y-86800000D03*
D26*
X121600000Y-86575000D03*
D27*
X121600000Y-85450000D03*
D28*
X121600000Y-84425000D03*
D26*
X121600000Y-83425000D03*
D25*
X121675000Y-83200000D03*
D29*
X178325000Y-53200000D03*
D30*
X178400000Y-53425000D03*
D31*
X178400000Y-54550000D03*
D32*
X178400000Y-55575000D03*
D30*
X178400000Y-56575000D03*
D29*
X178325000Y-56800000D03*
D25*
X121675000Y-56800000D03*
D26*
X121600000Y-56575000D03*
D27*
X121600000Y-55450000D03*
D28*
X121600000Y-54425000D03*
D26*
X121600000Y-53425000D03*
D25*
X121675000Y-53200000D03*
D33*
X178795495Y-106249911D03*
D34*
X178689429Y-106462043D03*
D35*
X177893934Y-107257538D03*
D36*
X177169150Y-107982322D03*
D34*
X176462043Y-108689429D03*
D33*
X176249911Y-108795495D03*
D37*
X121204505Y-33750089D03*
D38*
X121310571Y-33537957D03*
D39*
X122106066Y-32742462D03*
D40*
X122830850Y-32017678D03*
D38*
X123537957Y-31310571D03*
D37*
X123750089Y-31204505D03*
D41*
X136200000Y-31675000D03*
D42*
X136425000Y-31600000D03*
D43*
X137550000Y-31600000D03*
D44*
X138575000Y-31600000D03*
D42*
X139575000Y-31600000D03*
D41*
X139800000Y-31675000D03*
X160200000Y-31675000D03*
D42*
X160425000Y-31600000D03*
D43*
X161550000Y-31600000D03*
D44*
X162575000Y-31600000D03*
D42*
X163575000Y-31600000D03*
D41*
X163800000Y-31675000D03*
D45*
X176249911Y-31204505D03*
D46*
X176462043Y-31310571D03*
D47*
X177257538Y-32106066D03*
D48*
X177982322Y-32830850D03*
D46*
X178689429Y-33537957D03*
D45*
X178795495Y-33750089D03*
D29*
X178325000Y-83200000D03*
D30*
X178400000Y-83425000D03*
D31*
X178400000Y-84550000D03*
D32*
X178400000Y-85575000D03*
D30*
X178400000Y-86575000D03*
D29*
X178325000Y-86800000D03*
D49*
X87000000Y-99000000D03*
D50*
X87000000Y-97000000D03*
D14*
X88375000Y-59525000D03*
D15*
X88375000Y-56985000D03*
X88375000Y-54445000D03*
D20*
X110460000Y-69540000D03*
D17*
X113000000Y-69540000D03*
D20*
X115540000Y-69540000D03*
X110460000Y-66365000D03*
X115540000Y-66365000D03*
D17*
X111984000Y-64460000D03*
X114016000Y-64460000D03*
D14*
X88375000Y-86525000D03*
D15*
X88375000Y-83985000D03*
X88375000Y-81445000D03*
D16*
X86000000Y-38000000D03*
D51*
X88000000Y-106000000D03*
D14*
X88375000Y-68525000D03*
D15*
X88375000Y-65985000D03*
X88375000Y-63445000D03*
D16*
X86000000Y-108000000D03*
D49*
X114450000Y-52000000D03*
D50*
X114450000Y-50000000D03*
X114450000Y-48000000D03*
D51*
X114000000Y-106000000D03*
D14*
X88375000Y-77525000D03*
D15*
X88375000Y-74985000D03*
X88375000Y-72445000D03*
D14*
X88375000Y-50525000D03*
D15*
X88375000Y-47985000D03*
X88375000Y-45445000D03*
D51*
X114000000Y-40000000D03*
D16*
X116000000Y-38000000D03*
D51*
X88000000Y-40000000D03*
D52*
X92250000Y-108260000D03*
X92250000Y-106990000D03*
X92250000Y-105720000D03*
X92250000Y-104450000D03*
X92250000Y-103180000D03*
X92250000Y-101910000D03*
X92250000Y-100640000D03*
X92250000Y-99370000D03*
X92250000Y-98100000D03*
X92250000Y-96830000D03*
X92250000Y-95560000D03*
X92250000Y-94290000D03*
X92250000Y-93020000D03*
X92250000Y-91750000D03*
D53*
X94015000Y-90500000D03*
X95285000Y-90500000D03*
X96555000Y-90500000D03*
X97825000Y-90500000D03*
X99095000Y-90500000D03*
X100365000Y-90500000D03*
X101635000Y-90500000D03*
X102905000Y-90500000D03*
X104175000Y-90500000D03*
X105445000Y-90500000D03*
X106715000Y-90500000D03*
X107985000Y-90500000D03*
D52*
X109750000Y-91750000D03*
X109750000Y-93020000D03*
X109750000Y-94290000D03*
X109750000Y-95560000D03*
X109750000Y-96830000D03*
X109750000Y-98100000D03*
X109750000Y-99370000D03*
X109750000Y-100640000D03*
X109750000Y-101910000D03*
X109750000Y-103180000D03*
X109750000Y-104450000D03*
X109750000Y-105720000D03*
X109750000Y-106990000D03*
X109750000Y-108260000D03*
D54*
X98100000Y-99840000D03*
X98100000Y-101240000D03*
X98800000Y-99140000D03*
X98800000Y-100540000D03*
X98800000Y-101940000D03*
X99500000Y-99840000D03*
D55*
X99500000Y-100540000D03*
D54*
X99500000Y-101240000D03*
X100200000Y-99140000D03*
X100200000Y-100540000D03*
X100200000Y-101940000D03*
X100900000Y-99840000D03*
X100900000Y-101240000D03*
M02*
