M48
; DRILL file {KiCad 7.0.4-40-g0180cb380f} date Mon May 29 16:48:34 2023
; FORMAT={-:-/ absolute / inch / decimal}
; #@! TF.CreationDate,2023-05-29T16:48:34-07:00
; #@! TF.GenerationSoftware,Kicad,Pcbnew,7.0.4-40-g0180cb380f
; #@! TF.FileFunction,NonPlated,1,2,NPTH
FMAT,2
INCH
; #@! TA.AperFunction,NonPlated,NPTH,ComponentDrill
T1C0.0150
; #@! TA.AperFunction,NonPlated,NPTH,ComponentDrill
T2C0.0256
; #@! TA.AperFunction,NonPlated,NPTH,ComponentDrill
T3C0.0354
; #@! TA.AperFunction,NonPlated,NPTH,ComponentDrill
T4C0.0390
; #@! TA.AperFunction,NonPlated,NPTH,ComponentDrill
T5C0.0454
; #@! TA.AperFunction,NonPlated,NPTH,ComponentDrill
T6C0.0935
%
G90
G05
T1
X-5.0069Y-2.7878
X-5.0069Y-2.8815
X-4.9819Y-2.7878
X-4.9819Y-2.8815
X-4.9569Y-2.7878
X-4.9569Y-2.8815
X-4.9319Y-2.7878
X-4.9319Y-2.8815
X-4.9069Y-2.7878
X-4.9069Y-2.8815
X-4.8819Y-2.7878
X-4.8819Y-2.8815
X-4.8569Y-2.7878
X-4.8569Y-2.8815
X-4.8319Y-2.7878
X-4.8319Y-2.8815
X-4.8069Y-2.7878
X-4.8069Y-2.8815
X-4.7819Y-2.7878
X-4.7819Y-2.8815
X-4.7569Y-2.7878
X-4.7569Y-2.8815
X-4.7313Y-4.3232
X-4.7313Y-4.4169
X-4.7063Y-4.3232
X-4.7063Y-4.4169
X-4.6813Y-4.3232
X-4.6813Y-4.4169
X-4.6563Y-4.3232
X-4.6563Y-4.4169
X-4.6313Y-4.3232
X-4.6313Y-4.4169
X-4.6063Y-4.3232
X-4.6063Y-4.4169
X-4.5813Y-4.3232
X-4.5813Y-4.4169
X-4.5563Y-4.3232
X-4.5563Y-4.4169
X-4.5313Y-4.3232
X-4.5313Y-4.4169
X-4.5063Y-4.3232
X-4.5063Y-4.4169
X-4.4813Y-4.3232
X-4.4813Y-4.4169
X-3.4715Y-2.7878
X-3.4715Y-2.8815
X-3.4465Y-2.7878
X-3.4465Y-2.8815
X-3.4215Y-2.7878
X-3.4215Y-2.8815
X-3.3965Y-2.7878
X-3.3965Y-2.8815
X-3.3715Y-2.7878
X-3.3715Y-2.8815
X-3.3465Y-2.7878
X-3.3465Y-2.8815
X-3.3215Y-2.7878
X-3.3215Y-2.8815
X-3.2965Y-2.7878
X-3.2965Y-2.8815
X-3.2715Y-2.7878
X-3.2715Y-2.8815
X-3.2465Y-2.7878
X-3.2465Y-2.8815
X-3.2215Y-2.7878
X-3.2215Y-2.8815
X-2.7825Y-2.7878
X-2.7825Y-2.8815
X-2.7575Y-2.7878
X-2.7575Y-2.8815
X-2.7325Y-2.7878
X-2.7325Y-2.8815
X-2.7075Y-2.7878
X-2.7075Y-2.8815
X-2.6825Y-2.7878
X-2.6825Y-2.8815
X-2.6575Y-2.7878
X-2.6575Y-2.8815
X-2.6325Y-2.7878
X-2.6325Y-2.8815
X-2.6075Y-2.7878
X-2.6075Y-2.8815
X-2.5825Y-2.7878
X-2.5825Y-2.8815
X-2.5575Y-2.7878
X-2.5575Y-2.8815
X-2.5325Y-2.7878
X-2.5325Y-2.8815
X-2.1329Y-4.3232
X-2.1329Y-4.4169
X-2.1079Y-4.3232
X-2.1079Y-4.4169
X-2.0829Y-4.3232
X-2.0829Y-4.4169
X-2.0579Y-4.3232
X-2.0579Y-4.4169
X-2.0329Y-4.3232
X-2.0329Y-4.4169
X-2.0079Y-4.3232
X-2.0079Y-4.4169
X-1.9829Y-4.3232
X-1.9829Y-4.4169
X-1.9579Y-4.3232
X-1.9579Y-4.4169
X-1.9329Y-4.3232
X-1.9329Y-4.4169
X-1.9079Y-4.3232
X-1.9079Y-4.4169
X-1.8829Y-4.3232
X-1.8829Y-4.4169
X-1.8185Y-2.4734
X-1.8185Y-2.4984
X-1.8185Y-2.5234
X-1.8185Y-2.5484
X-1.8185Y-2.5734
X-1.8185Y-2.5984
X-1.8185Y-2.6234
X-1.8185Y-2.6484
X-1.8185Y-2.6734
X-1.8185Y-2.6984
X-1.8185Y-2.7234
X-1.8185Y-2.9459
X-1.8185Y-2.9709
X-1.8185Y-2.9959
X-1.8185Y-3.0209
X-1.8185Y-3.0459
X-1.8185Y-3.0709
X-1.8185Y-3.0959
X-1.8185Y-3.1209
X-1.8185Y-3.1459
X-1.8185Y-3.1709
X-1.8185Y-3.1959
X-1.8185Y-4.0089
X-1.8185Y-4.0339
X-1.8185Y-4.0589
X-1.8185Y-4.0839
X-1.8185Y-4.1089
X-1.8185Y-4.1339
X-1.8185Y-4.1589
X-1.8185Y-4.1839
X-1.8185Y-4.2089
X-1.8185Y-4.2339
X-1.8185Y-4.2589
X-1.7248Y-2.4734
X-1.7248Y-2.4984
X-1.7248Y-2.5234
X-1.7248Y-2.5484
X-1.7248Y-2.5734
X-1.7248Y-2.5984
X-1.7248Y-2.6234
X-1.7248Y-2.6484
X-1.7248Y-2.6734
X-1.7248Y-2.6984
X-1.7248Y-2.7234
X-1.7248Y-2.9459
X-1.7248Y-2.9709
X-1.7248Y-2.9959
X-1.7248Y-3.0209
X-1.7248Y-3.0459
X-1.7248Y-3.0709
X-1.7248Y-3.0959
X-1.7248Y-3.1209
X-1.7248Y-3.1459
X-1.7248Y-3.1709
X-1.7248Y-3.1959
X-1.7248Y-4.0089
X-1.7248Y-4.0339
X-1.7248Y-4.0589
X-1.7248Y-4.0839
X-1.7248Y-4.1089
X-1.7248Y-4.1339
X-1.7248Y-4.1589
X-1.7248Y-4.1839
X-1.7248Y-4.2089
X-1.7248Y-4.2339
X-1.7248Y-4.2589
X0.2287Y-4.0482
X0.2287Y-4.0732
X0.2287Y-4.0982
X0.2287Y-4.1232
X0.2287Y-4.1482
X0.2287Y-4.1732
X0.2287Y-4.1982
X0.2287Y-4.2232
X0.2287Y-4.2482
X0.2287Y-4.2732
X0.2287Y-4.2982
X0.4262Y-4.4169
X0.4512Y-4.4169
X0.4762Y-4.4169
X0.5012Y-4.4169
X0.5262Y-4.4169
X0.5512Y-4.4169
X0.5762Y-4.4169
X0.6012Y-4.4169
X0.6262Y-4.4169
X0.6512Y-4.4169
X0.6762Y-4.4169
T2
X-4.8315Y-2.4453
X-4.8315Y-2.6728
X-4.8187Y-4.0201
X-4.8187Y-4.2476
X-2.0583Y-2.4846
X-2.0583Y-2.7122
T3
X-1.3821Y-4.7913
X-1.2148Y-4.7913
X-1.0343Y-4.7913
X-0.867Y-4.7913
X-0.6865Y-4.7913
X-0.5192Y-4.7913
X-0.3388Y-4.7913
X-0.1715Y-4.7913
T4
X-4.9219Y-3.6039
X-4.8819Y-3.4039
X-4.8419Y-3.6039
X-3.7998Y-2.4591
X-3.7598Y-2.6591
X-3.7198Y-2.4591
X-0.24Y-6.6827
X-0.2Y-6.4827
X-0.16Y-6.6827
X-0.0606Y-3.937
X0.1394Y-3.897
X0.1394Y-3.977
T5
X-5.1606Y-7.0945
X-4.7669Y-4.6535
X-4.5276Y-2.5591
X-4.3701Y-3.937
X-3.3268Y-2.5
X-3.3268Y-2.6181
X-2.9724Y-2.436
X-2.9724Y-2.7608
X-2.1654Y-2.436
X-1.9291Y-2.9921
X-1.9291Y-4.0551
X3.2646Y-4.6535
T6
X-4.9819Y-3.4039
X-4.9819Y-3.5289
X-4.7819Y-3.4039
X-4.7819Y-3.5289
X-0.3Y-6.4827
X-0.3Y-6.6077
X-0.1Y-6.4827
X-0.1Y-6.6077
X-0.0606Y-3.837
X-0.0606Y-4.037
X0.0644Y-3.837
X0.0644Y-4.037
T0
M30
