G04 #@! TF.GenerationSoftware,KiCad,Pcbnew,7.0.4-40-g0180cb380f*
G04 #@! TF.CreationDate,2023-05-29T16:48:42-07:00*
G04 #@! TF.ProjectId,SevenSegment,53657665-6e53-4656-976d-656e742e6b69,rev?*
G04 #@! TF.SameCoordinates,Original*
G04 #@! TF.FileFunction,Soldermask,Top*
G04 #@! TF.FilePolarity,Negative*
%FSLAX46Y46*%
G04 Gerber Fmt 4.6, Leading zero omitted, Abs format (unit mm)*
G04 Created by KiCad (PCBNEW 7.0.4-40-g0180cb380f) date 2023-05-29 16:48:42*
%MOMM*%
%LPD*%
G01*
G04 APERTURE LIST*
G04 Aperture macros list*
%AMRoundRect*
0 Rectangle with rounded corners*
0 $1 Rounding radius*
0 $2 $3 $4 $5 $6 $7 $8 $9 X,Y pos of 4 corners*
0 Add a 4 corners polygon primitive as box body*
4,1,4,$2,$3,$4,$5,$6,$7,$8,$9,$2,$3,0*
0 Add four circle primitives for the rounded corners*
1,1,$1+$1,$2,$3*
1,1,$1+$1,$4,$5*
1,1,$1+$1,$6,$7*
1,1,$1+$1,$8,$9*
0 Add four rect primitives between the rounded corners*
20,1,$1+$1,$2,$3,$4,$5,0*
20,1,$1+$1,$4,$5,$6,$7,0*
20,1,$1+$1,$6,$7,$8,$9,0*
20,1,$1+$1,$8,$9,$2,$3,0*%
G04 Aperture macros list end*
%ADD10C,0.650000*%
%ADD11C,2.500000*%
%ADD12C,0.380000*%
%ADD13C,0.600000*%
%ADD14R,3.900000X3.900000*%
%ADD15R,1.500000X0.900000*%
%ADD16R,0.900000X1.500000*%
%ADD17R,0.500000X0.500000*%
%ADD18RoundRect,0.218750X0.256250X-0.218750X0.256250X0.218750X-0.256250X0.218750X-0.256250X-0.218750X0*%
%ADD19RoundRect,0.200000X-0.200000X-0.275000X0.200000X-0.275000X0.200000X0.275000X-0.200000X0.275000X0*%
%ADD20C,0.900000*%
%ADD21RoundRect,0.187500X0.187500X0.712500X-0.187500X0.712500X-0.187500X-0.712500X0.187500X-0.712500X0*%
%ADD22RoundRect,0.150000X0.150000X0.750000X-0.150000X0.750000X-0.150000X-0.750000X0.150000X-0.750000X0*%
%ADD23RoundRect,0.225000X0.425000X0.225000X-0.425000X0.225000X-0.425000X-0.225000X0.425000X-0.225000X0*%
%ADD24RoundRect,0.200000X0.200000X0.275000X-0.200000X0.275000X-0.200000X-0.275000X0.200000X-0.275000X0*%
%ADD25C,1.152000*%
%ADD26RoundRect,0.225000X0.225000X0.250000X-0.225000X0.250000X-0.225000X-0.250000X0.225000X-0.250000X0*%
%ADD27RoundRect,0.150000X0.512500X0.150000X-0.512500X0.150000X-0.512500X-0.150000X0.512500X-0.150000X0*%
%ADD28RoundRect,0.250000X0.375000X1.075000X-0.375000X1.075000X-0.375000X-1.075000X0.375000X-1.075000X0*%
%ADD29RoundRect,0.140000X-0.140000X-0.170000X0.140000X-0.170000X0.140000X0.170000X-0.140000X0.170000X0*%
%ADD30RoundRect,0.225000X-0.250000X0.225000X-0.250000X-0.225000X0.250000X-0.225000X0.250000X0.225000X0*%
%ADD31RoundRect,0.200000X-0.275000X0.200000X-0.275000X-0.200000X0.275000X-0.200000X0.275000X0.200000X0*%
%ADD32RoundRect,0.250000X0.250000X0.475000X-0.250000X0.475000X-0.250000X-0.475000X0.250000X-0.475000X0*%
%ADD33RoundRect,0.140000X0.140000X0.170000X-0.140000X0.170000X-0.140000X-0.170000X0.140000X-0.170000X0*%
%ADD34RoundRect,0.250000X-0.250000X-0.475000X0.250000X-0.475000X0.250000X0.475000X-0.250000X0.475000X0*%
%ADD35RoundRect,0.200000X0.275000X-0.200000X0.275000X0.200000X-0.275000X0.200000X-0.275000X-0.200000X0*%
%ADD36RoundRect,0.135000X-0.135000X-0.185000X0.135000X-0.185000X0.135000X0.185000X-0.135000X0.185000X0*%
%ADD37RoundRect,0.135000X0.135000X0.185000X-0.135000X0.185000X-0.135000X-0.185000X0.135000X-0.185000X0*%
%ADD38RoundRect,0.218750X0.218750X0.256250X-0.218750X0.256250X-0.218750X-0.256250X0.218750X-0.256250X0*%
%ADD39RoundRect,0.250000X-0.475000X0.250000X-0.475000X-0.250000X0.475000X-0.250000X0.475000X0.250000X0*%
%ADD40R,1.800000X1.100000*%
%ADD41RoundRect,0.225000X0.250000X-0.225000X0.250000X0.225000X-0.250000X0.225000X-0.250000X-0.225000X0*%
%ADD42RoundRect,0.250000X0.450000X-1.175000X0.450000X1.175000X-0.450000X1.175000X-0.450000X-1.175000X0*%
%ADD43C,0.800000*%
%ADD44C,5.400000*%
%ADD45RoundRect,0.250000X-1.175000X-0.450000X1.175000X-0.450000X1.175000X0.450000X-1.175000X0.450000X0*%
%ADD46RoundRect,0.250000X0.325000X0.650000X-0.325000X0.650000X-0.325000X-0.650000X0.325000X-0.650000X0*%
%ADD47RoundRect,0.225000X-0.225000X-0.250000X0.225000X-0.250000X0.225000X0.250000X-0.225000X0.250000X0*%
%ADD48RoundRect,0.218750X-0.218750X-0.256250X0.218750X-0.256250X0.218750X0.256250X-0.218750X0.256250X0*%
%ADD49RoundRect,0.250000X0.475000X-0.250000X0.475000X0.250000X-0.475000X0.250000X-0.475000X-0.250000X0*%
%ADD50R,0.250000X0.675000*%
%ADD51R,0.675000X0.250000*%
%ADD52R,1.700000X1.700000*%
%ADD53O,1.700000X1.700000*%
%ADD54C,2.374900*%
%ADD55C,0.990600*%
%ADD56C,0.787400*%
%ADD57RoundRect,0.150000X-0.150000X0.512500X-0.150000X-0.512500X0.150000X-0.512500X0.150000X0.512500X0*%
%ADD58RoundRect,0.225000X0.225000X0.375000X-0.225000X0.375000X-0.225000X-0.375000X0.225000X-0.375000X0*%
%ADD59RoundRect,0.150000X0.587500X0.150000X-0.587500X0.150000X-0.587500X-0.150000X0.587500X-0.150000X0*%
%ADD60RoundRect,0.125000X-0.137500X0.125000X-0.137500X-0.125000X0.137500X-0.125000X0.137500X0.125000X0*%
%ADD61RoundRect,0.225000X-0.375000X0.225000X-0.375000X-0.225000X0.375000X-0.225000X0.375000X0.225000X0*%
%ADD62RoundRect,0.100000X-0.625000X-0.100000X0.625000X-0.100000X0.625000X0.100000X-0.625000X0.100000X0*%
%ADD63R,1.680000X1.880000*%
%ADD64R,0.300000X0.450000*%
%ADD65R,0.450000X0.300000*%
%ADD66RoundRect,0.250000X-0.325000X-0.650000X0.325000X-0.650000X0.325000X0.650000X-0.325000X0.650000X0*%
%ADD67R,1.300000X0.300000*%
%ADD68R,2.200000X1.800000*%
%ADD69RoundRect,0.150000X-0.587500X-0.150000X0.587500X-0.150000X0.587500X0.150000X-0.587500X0.150000X0*%
%ADD70RoundRect,0.250000X0.650000X-0.325000X0.650000X0.325000X-0.650000X0.325000X-0.650000X-0.325000X0*%
%ADD71RoundRect,0.150000X-0.150000X0.587500X-0.150000X-0.587500X0.150000X-0.587500X0.150000X0.587500X0*%
%ADD72R,2.340000X1.700000*%
%ADD73RoundRect,0.112500X0.187500X0.112500X-0.187500X0.112500X-0.187500X-0.112500X0.187500X-0.112500X0*%
%ADD74RoundRect,0.062500X0.337500X0.062500X-0.337500X0.062500X-0.337500X-0.062500X0.337500X-0.062500X0*%
%ADD75RoundRect,0.062500X0.062500X0.337500X-0.062500X0.337500X-0.062500X-0.337500X0.062500X-0.337500X0*%
%ADD76R,3.350000X3.350000*%
%ADD77RoundRect,0.250000X0.625000X-0.350000X0.625000X0.350000X-0.625000X0.350000X-0.625000X-0.350000X0*%
%ADD78O,1.750000X1.200000*%
%ADD79C,0.650000*%
%ADD80R,1.150000X0.300000*%
%ADD81O,2.100000X1.000000*%
%ADD82O,1.600000X1.000000*%
%ADD83RoundRect,0.112500X-0.187500X-0.112500X0.187500X-0.112500X0.187500X0.112500X-0.187500X0.112500X0*%
%ADD84R,0.700000X0.450000*%
%ADD85R,1.800000X2.200000*%
%ADD86R,0.300000X1.300000*%
%ADD87RoundRect,0.150000X-0.512500X-0.150000X0.512500X-0.150000X0.512500X0.150000X-0.512500X0.150000X0*%
%ADD88RoundRect,0.250000X-0.375000X-1.075000X0.375000X-1.075000X0.375000X1.075000X-0.375000X1.075000X0*%
%ADD89RoundRect,0.225000X-0.225000X-0.375000X0.225000X-0.375000X0.225000X0.375000X-0.225000X0.375000X0*%
%ADD90R,2.000000X1.500000*%
%ADD91R,2.000000X3.800000*%
%ADD92RoundRect,0.075000X-0.662500X-0.075000X0.662500X-0.075000X0.662500X0.075000X-0.662500X0.075000X0*%
%ADD93RoundRect,0.075000X-0.075000X-0.662500X0.075000X-0.662500X0.075000X0.662500X-0.075000X0.662500X0*%
%ADD94RoundRect,0.225000X0.375000X-0.225000X0.375000X0.225000X-0.375000X0.225000X-0.375000X-0.225000X0*%
%ADD95R,1.500000X2.000000*%
%ADD96R,3.800000X2.000000*%
%ADD97RoundRect,0.250000X-0.625000X0.350000X-0.625000X-0.350000X0.625000X-0.350000X0.625000X0.350000X0*%
%ADD98R,0.550000X0.250000*%
%ADD99R,1.600000X1.600000*%
%ADD100R,1.400000X1.200000*%
%ADD101RoundRect,0.250000X-0.650000X0.325000X-0.650000X-0.325000X0.650000X-0.325000X0.650000X0.325000X0*%
%ADD102RoundRect,0.250000X0.350000X0.625000X-0.350000X0.625000X-0.350000X-0.625000X0.350000X-0.625000X0*%
%ADD103O,1.200000X1.750000*%
G04 APERTURE END LIST*
D10*
X-130755000Y-180200000D02*
G75*
G03*
X-130755000Y-180200000I-325000J0D01*
G01*
X-84175000Y-63500000D02*
G75*
G03*
X-84175000Y-63500000I-325000J0D01*
G01*
D11*
X-85830000Y-134200000D02*
G75*
G03*
X-85830000Y-134200000I-1250000J0D01*
G01*
D10*
X-48675000Y-76000000D02*
G75*
G03*
X-48675000Y-76000000I-325000J0D01*
G01*
X-114675000Y-65000000D02*
G75*
G03*
X-114675000Y-65000000I-325000J0D01*
G01*
X-75175000Y-61875000D02*
G75*
G03*
X-75175000Y-61875000I-325000J0D01*
G01*
X-84175000Y-66500000D02*
G75*
G03*
X-84175000Y-66500000I-325000J0D01*
G01*
X-54675000Y-61875000D02*
G75*
G03*
X-54675000Y-61875000I-325000J0D01*
G01*
X83245000Y-118200000D02*
G75*
G03*
X83245000Y-118200000I-325000J0D01*
G01*
X-75175000Y-70125000D02*
G75*
G03*
X-75175000Y-70125000I-325000J0D01*
G01*
X-120755000Y-118200000D02*
G75*
G03*
X-120755000Y-118200000I-325000J0D01*
G01*
X-110675000Y-100000000D02*
G75*
G03*
X-110675000Y-100000000I-325000J0D01*
G01*
X-48675000Y-103000000D02*
G75*
G03*
X-48675000Y-103000000I-325000J0D01*
G01*
D12*
X5810000Y-109175000D03*
X5810000Y-108540000D03*
X5810000Y-107905000D03*
X5810000Y-107270000D03*
X5810000Y-106635000D03*
X5810000Y-106000000D03*
X5810000Y-105365000D03*
X5810000Y-104730000D03*
X5810000Y-104095000D03*
X5810000Y-103460000D03*
X5810000Y-102825000D03*
X17175000Y-112190000D03*
X16540000Y-112190000D03*
X15905000Y-112190000D03*
X15270000Y-112190000D03*
X14635000Y-112190000D03*
X14000000Y-112190000D03*
X13365000Y-112190000D03*
X12730000Y-112190000D03*
X12095000Y-112190000D03*
X11460000Y-112190000D03*
X10825000Y-112190000D03*
D13*
X-108100000Y-82160000D03*
X-108100000Y-80760000D03*
X-108800000Y-82860000D03*
X-108800000Y-81460000D03*
X-108800000Y-80060000D03*
X-109500000Y-82160000D03*
D14*
X-109500000Y-81460000D03*
D13*
X-109500000Y-80760000D03*
X-110200000Y-82860000D03*
X-110200000Y-81460000D03*
X-110200000Y-80060000D03*
X-110900000Y-82160000D03*
X-110900000Y-80760000D03*
D15*
X-99250000Y-73740000D03*
X-99250000Y-75010000D03*
X-99250000Y-76280000D03*
X-99250000Y-77550000D03*
X-99250000Y-78820000D03*
X-99250000Y-80090000D03*
X-99250000Y-81360000D03*
X-99250000Y-82630000D03*
X-99250000Y-83900000D03*
X-99250000Y-85170000D03*
X-99250000Y-86440000D03*
X-99250000Y-87710000D03*
X-99250000Y-88980000D03*
X-99250000Y-90250000D03*
D16*
X-101015000Y-91500000D03*
X-102285000Y-91500000D03*
X-103555000Y-91500000D03*
X-104825000Y-91500000D03*
X-106095000Y-91500000D03*
X-107365000Y-91500000D03*
X-108635000Y-91500000D03*
X-109905000Y-91500000D03*
X-111175000Y-91500000D03*
X-112445000Y-91500000D03*
X-113715000Y-91500000D03*
X-114985000Y-91500000D03*
D15*
X-116750000Y-90250000D03*
X-116750000Y-88980000D03*
X-116750000Y-87710000D03*
X-116750000Y-86440000D03*
X-116750000Y-85170000D03*
X-116750000Y-83900000D03*
X-116750000Y-82630000D03*
X-116750000Y-81360000D03*
X-116750000Y-80090000D03*
X-116750000Y-78820000D03*
X-116750000Y-77550000D03*
X-116750000Y-76280000D03*
X-116750000Y-75010000D03*
X-116750000Y-73740000D03*
D12*
X-127175000Y-70810000D03*
X-126540000Y-70810000D03*
X-125905000Y-70810000D03*
X-125270000Y-70810000D03*
X-124635000Y-70810000D03*
X-124000000Y-70810000D03*
X-123365000Y-70810000D03*
X-122730000Y-70810000D03*
X-122095000Y-70810000D03*
X-121460000Y-70810000D03*
X-120825000Y-70810000D03*
X-120825000Y-73190000D03*
X-121460000Y-73190000D03*
X-122095000Y-73190000D03*
X-122730000Y-73190000D03*
X-123365000Y-73190000D03*
X-124000000Y-73190000D03*
X-124635000Y-73190000D03*
X-125270000Y-73190000D03*
X-125905000Y-73190000D03*
X-126540000Y-73190000D03*
X-127175000Y-73190000D03*
X-43810000Y-62825000D03*
X-43810000Y-63460000D03*
X-43810000Y-64095000D03*
X-43810000Y-64730000D03*
X-43810000Y-65365000D03*
X-43810000Y-66000000D03*
X-43810000Y-66635000D03*
X-43810000Y-67270000D03*
X-43810000Y-67905000D03*
X-43810000Y-68540000D03*
X-43810000Y-69175000D03*
X-46190000Y-62825000D03*
X-46190000Y-63460000D03*
X-46190000Y-64095000D03*
X-46190000Y-64730000D03*
X-46190000Y-65365000D03*
X-46190000Y-66000000D03*
X-46190000Y-66635000D03*
X-46190000Y-67270000D03*
X-46190000Y-67905000D03*
X-46190000Y-68540000D03*
X-46190000Y-69175000D03*
X-70675000Y-70810000D03*
X-70040000Y-70810000D03*
X-69405000Y-70810000D03*
X-68770000Y-70810000D03*
X-68135000Y-70810000D03*
X-67500000Y-70810000D03*
X-66865000Y-70810000D03*
X-66230000Y-70810000D03*
X-65595000Y-70810000D03*
X-64960000Y-70810000D03*
X-64325000Y-70810000D03*
X-64325000Y-73190000D03*
X-64960000Y-73190000D03*
X-65595000Y-73190000D03*
X-66230000Y-73190000D03*
X-66865000Y-73190000D03*
X-67500000Y-73190000D03*
X-68135000Y-73190000D03*
X-68770000Y-73190000D03*
X-69405000Y-73190000D03*
X-70040000Y-73190000D03*
X-70675000Y-73190000D03*
X-81825000Y-70810000D03*
X-82460000Y-70810000D03*
X-83095000Y-70810000D03*
X-83730000Y-70810000D03*
X-84365000Y-70810000D03*
X-85000000Y-70810000D03*
X-85635000Y-70810000D03*
X-86270000Y-70810000D03*
X-86905000Y-70810000D03*
X-87540000Y-70810000D03*
X-88175000Y-70810000D03*
X-88175000Y-73190000D03*
X-87540000Y-73190000D03*
X-86905000Y-73190000D03*
X-86270000Y-73190000D03*
X-85635000Y-73190000D03*
X-85000000Y-73190000D03*
X-84365000Y-73190000D03*
X-83730000Y-73190000D03*
X-83095000Y-73190000D03*
X-82460000Y-73190000D03*
X-81825000Y-73190000D03*
D16*
X5260000Y-76250000D03*
X3990000Y-76250000D03*
X2720000Y-76250000D03*
X1450000Y-76250000D03*
X180000Y-76250000D03*
X-1090000Y-76250000D03*
X-2360000Y-76250000D03*
X-3630000Y-76250000D03*
X-4900000Y-76250000D03*
X-6170000Y-76250000D03*
X-7440000Y-76250000D03*
X-8710000Y-76250000D03*
X-9980000Y-76250000D03*
X-11250000Y-76250000D03*
D15*
X-12500000Y-78015000D03*
X-12500000Y-79285000D03*
X-12500000Y-80555000D03*
X-12500000Y-81825000D03*
X-12500000Y-83095000D03*
X-12500000Y-84365000D03*
X-12500000Y-85635000D03*
X-12500000Y-86905000D03*
X-12500000Y-88175000D03*
X-12500000Y-89445000D03*
X-12500000Y-90715000D03*
X-12500000Y-91985000D03*
D16*
X-11250000Y-93750000D03*
X-9980000Y-93750000D03*
X-8710000Y-93750000D03*
X-7440000Y-93750000D03*
X-6170000Y-93750000D03*
X-4900000Y-93750000D03*
X-3630000Y-93750000D03*
X-2360000Y-93750000D03*
X-1090000Y-93750000D03*
X180000Y-93750000D03*
X1450000Y-93750000D03*
X2720000Y-93750000D03*
X3990000Y-93750000D03*
X5260000Y-93750000D03*
D13*
X-1760000Y-82100000D03*
X-3160000Y-82100000D03*
X-1060000Y-82800000D03*
X-2460000Y-82800000D03*
X-3860000Y-82800000D03*
X-1760000Y-83500000D03*
D14*
X-2460000Y-83500000D03*
D13*
X-3160000Y-83500000D03*
X-1060000Y-84200000D03*
X-2460000Y-84200000D03*
X-3860000Y-84200000D03*
X-1760000Y-84900000D03*
X-3160000Y-84900000D03*
D12*
X-43810000Y-101825000D03*
X-43810000Y-102460000D03*
X-43810000Y-103095000D03*
X-43810000Y-103730000D03*
X-43810000Y-104365000D03*
X-43810000Y-105000000D03*
X-43810000Y-105635000D03*
X-43810000Y-106270000D03*
X-43810000Y-106905000D03*
X-43810000Y-107540000D03*
X-43810000Y-108175000D03*
X-46190000Y-108175000D03*
X-46190000Y-107540000D03*
X-46190000Y-106905000D03*
X-46190000Y-106270000D03*
X-46190000Y-105635000D03*
X-46190000Y-105000000D03*
X-46190000Y-104365000D03*
X-46190000Y-103730000D03*
X-46190000Y-103095000D03*
X-46190000Y-102460000D03*
X-46190000Y-101825000D03*
X-54175000Y-112190000D03*
X-53540000Y-112190000D03*
X-52905000Y-112190000D03*
X-52270000Y-112190000D03*
X-51635000Y-112190000D03*
X-51000000Y-112190000D03*
X-50365000Y-112190000D03*
X-49730000Y-112190000D03*
X-49095000Y-112190000D03*
X-48460000Y-112190000D03*
X-47825000Y-112190000D03*
X-47825000Y-109810000D03*
X-48460000Y-109810000D03*
X-49095000Y-109810000D03*
X-49730000Y-109810000D03*
X-50365000Y-109810000D03*
X-51000000Y-109810000D03*
X-51635000Y-109810000D03*
X-52270000Y-109810000D03*
X-52905000Y-109810000D03*
X-53540000Y-109810000D03*
X-54175000Y-109810000D03*
X-113825000Y-112190000D03*
X-114460000Y-112190000D03*
X-115095000Y-112190000D03*
X-115730000Y-112190000D03*
X-116365000Y-112190000D03*
X-117000000Y-112190000D03*
X-117635000Y-112190000D03*
X-118270000Y-112190000D03*
X-118905000Y-112190000D03*
X-119540000Y-112190000D03*
X-120175000Y-112190000D03*
X-120175000Y-109810000D03*
X-119540000Y-109810000D03*
X-118905000Y-109810000D03*
X-118270000Y-109810000D03*
X-117635000Y-109810000D03*
X-117000000Y-109810000D03*
X-116365000Y-109810000D03*
X-115730000Y-109810000D03*
X-115095000Y-109810000D03*
X-114460000Y-109810000D03*
X-113825000Y-109810000D03*
X-43810000Y-81175000D03*
X-43810000Y-80540000D03*
X-43810000Y-79905000D03*
X-43810000Y-79270000D03*
X-43810000Y-78635000D03*
X-43810000Y-78000000D03*
X-43810000Y-77365000D03*
X-43810000Y-76730000D03*
X-43810000Y-76095000D03*
X-43810000Y-75460000D03*
X-43810000Y-74825000D03*
X-46190000Y-75460000D03*
X-46190000Y-79905000D03*
X-46190000Y-79270000D03*
X-46190000Y-78000000D03*
X-46190000Y-80540000D03*
X-46190000Y-77365000D03*
X-46190000Y-78635000D03*
X-46190000Y-76730000D03*
X-46190000Y-81175000D03*
X-46190000Y-76095000D03*
X-46190000Y-74825000D03*
D17*
X22470000Y-148750000D03*
X22470000Y-149650000D03*
X23370000Y-149650000D03*
X23370000Y-148750000D03*
X-132382000Y-172000000D03*
X-131482000Y-172000000D03*
X-131482000Y-171100000D03*
X-132382000Y-171100000D03*
D18*
X-10000000Y-98787500D03*
X-10000000Y-97212500D03*
D19*
X-11905000Y-165200000D03*
X-10255000Y-165200000D03*
D17*
X-42450000Y-88450000D03*
X-41550000Y-88450000D03*
X-41550000Y-87550000D03*
X-42450000Y-87550000D03*
D20*
X-13188000Y-121700000D03*
X-17438000Y-121700000D03*
D21*
X-14088000Y-122600000D03*
X-16538000Y-122600000D03*
D22*
X-15313000Y-122600000D03*
D23*
X-13463000Y-120650000D03*
X-17163000Y-120650000D03*
D24*
X-43255000Y-166200000D03*
X-44905000Y-166200000D03*
D25*
X-131080000Y-180200000D03*
D26*
X-13305000Y-138200000D03*
X-14855000Y-138200000D03*
D27*
X-64137500Y-78950000D03*
X-64137500Y-77050000D03*
X-61862500Y-77050000D03*
X-61862500Y-78000000D03*
X-61862500Y-78950000D03*
D17*
X-113800000Y-115550000D03*
X-113800000Y-116450000D03*
X-112900000Y-116450000D03*
X-112900000Y-115550000D03*
D28*
X-64450000Y-89000000D03*
X-61650000Y-89000000D03*
D24*
X-122825000Y-77000000D03*
X-121175000Y-77000000D03*
D29*
X-98480000Y-60500000D03*
X-97520000Y-60500000D03*
D30*
X-29080000Y-143425000D03*
X-29080000Y-144975000D03*
D17*
X16950000Y-115550000D03*
X16950000Y-116450000D03*
X17850000Y-116450000D03*
X17850000Y-115550000D03*
D24*
X-68825000Y-75000000D03*
X-67175000Y-75000000D03*
D25*
X-84500000Y-63500000D03*
D17*
X82498000Y-137900000D03*
X81598000Y-137900000D03*
X81598000Y-138800000D03*
X82498000Y-138800000D03*
D29*
X-57480000Y-61500000D03*
X-56520000Y-61500000D03*
D17*
X52322000Y-127300000D03*
X53222000Y-127300000D03*
X53222000Y-126400000D03*
X52322000Y-126400000D03*
X-125677000Y-127300000D03*
X-124777000Y-127300000D03*
X-124777000Y-126400000D03*
X-125677000Y-126400000D03*
D29*
X-57480000Y-62500000D03*
X-56520000Y-62500000D03*
D31*
X-85000000Y-84825000D03*
X-85000000Y-83175000D03*
D32*
X-68950000Y-78000000D03*
X-67050000Y-78000000D03*
D17*
X79242000Y-159600000D03*
X78342000Y-159600000D03*
X78342000Y-160500000D03*
X79242000Y-160500000D03*
D33*
X-106520000Y-60500000D03*
X-107480000Y-60500000D03*
D34*
X-73950000Y-69000000D03*
X-72050000Y-69000000D03*
D35*
X-37000000Y-90825000D03*
X-37000000Y-89175000D03*
D24*
X-44255000Y-170700000D03*
X-45905000Y-170700000D03*
D17*
X7890000Y-182850000D03*
X7890000Y-181950000D03*
X6990000Y-181950000D03*
X6990000Y-182850000D03*
D36*
X-91510000Y-68000000D03*
X-90490000Y-68000000D03*
D37*
X-118490000Y-67500000D03*
X-119510000Y-67500000D03*
D24*
X-44255000Y-172700000D03*
X-45905000Y-172700000D03*
D33*
X-60020000Y-61500000D03*
X-60980000Y-61500000D03*
D38*
X-117212500Y-69000000D03*
X-118787500Y-69000000D03*
D17*
X-80153000Y-138800000D03*
X-79253000Y-138800000D03*
X-79253000Y-137900000D03*
X-80153000Y-137900000D03*
D39*
X-37000000Y-79050000D03*
X-37000000Y-80950000D03*
D27*
X-67862500Y-69950000D03*
X-67862500Y-69000000D03*
X-67862500Y-68050000D03*
X-70137500Y-68050000D03*
X-70137500Y-69950000D03*
D19*
X-44905000Y-164200000D03*
X-43255000Y-164200000D03*
X-14905000Y-142200000D03*
X-13255000Y-142200000D03*
D17*
X69720000Y-148750000D03*
X69720000Y-149650000D03*
X70620000Y-149650000D03*
X70620000Y-148750000D03*
D20*
X-22022000Y-121700000D03*
X-26272000Y-121700000D03*
D21*
X-22922000Y-122600000D03*
X-25372000Y-122600000D03*
D22*
X-24147000Y-122600000D03*
D23*
X-22297000Y-120650000D03*
X-25997000Y-120650000D03*
D17*
X64200000Y-115550000D03*
X64200000Y-116450000D03*
X65100000Y-116450000D03*
X65100000Y-115550000D03*
D40*
X-68900000Y-108850000D03*
X-75100000Y-108850000D03*
X-68900000Y-105150000D03*
X-75100000Y-105150000D03*
D17*
X-130658000Y-160500000D03*
X-129758000Y-160500000D03*
X-129758000Y-159600000D03*
X-130658000Y-159600000D03*
X-71530000Y-148750000D03*
X-71530000Y-149650000D03*
X-70630000Y-149650000D03*
X-70630000Y-148750000D03*
X50597000Y-138800000D03*
X51497000Y-138800000D03*
X51497000Y-137900000D03*
X50597000Y-137900000D03*
X-51508000Y-159600000D03*
X-52408000Y-159600000D03*
X-52408000Y-160500000D03*
X-51508000Y-160500000D03*
X-53233000Y-171100000D03*
X-54133000Y-171100000D03*
X-54133000Y-172000000D03*
X-53233000Y-172000000D03*
D37*
X-84490000Y-62000000D03*
X-85510000Y-62000000D03*
D41*
X-10000000Y-62775000D03*
X-10000000Y-61225000D03*
D42*
X-15000000Y-98000000D03*
D43*
X-19405000Y-128780000D03*
X-18811891Y-127348109D03*
X-18811891Y-130211891D03*
X-17380000Y-126755000D03*
D44*
X-17380000Y-128780000D03*
D43*
X-17380000Y-130805000D03*
X-15948109Y-127348109D03*
X-15948109Y-130211891D03*
X-15355000Y-128780000D03*
D45*
X-101000000Y-109000000D03*
D32*
X-105950000Y-99000000D03*
X-104050000Y-99000000D03*
D46*
X-69475000Y-93000000D03*
X-66525000Y-93000000D03*
D47*
X-28775000Y-79000000D03*
X-27225000Y-79000000D03*
D40*
X-58900000Y-108850000D03*
X-65100000Y-108850000D03*
X-58900000Y-105150000D03*
X-65100000Y-105150000D03*
D34*
X-88950000Y-62000000D03*
X-87050000Y-62000000D03*
D48*
X-121212500Y-79000000D03*
X-122787500Y-79000000D03*
D39*
X-94000000Y-84950000D03*
X-94000000Y-83050000D03*
D26*
X-27225000Y-86000000D03*
X-28775000Y-86000000D03*
D17*
X36973000Y-126400000D03*
X36073000Y-126400000D03*
X36073000Y-127300000D03*
X36973000Y-127300000D03*
D49*
X-122000000Y-96050000D03*
X-122000000Y-97950000D03*
D17*
X-32790000Y-127150000D03*
X-32790000Y-128050000D03*
X-31890000Y-128050000D03*
X-31890000Y-127150000D03*
D47*
X-44855000Y-162200000D03*
X-43305000Y-162200000D03*
D50*
X-33750000Y-86262500D03*
X-33250000Y-86262500D03*
X-32750000Y-86262500D03*
X-32250000Y-86262500D03*
D51*
X-31987500Y-85500000D03*
X-31987500Y-85000000D03*
X-31987500Y-84500000D03*
D50*
X-32250000Y-83737500D03*
X-32750000Y-83737500D03*
X-33250000Y-83737500D03*
X-33750000Y-83737500D03*
D51*
X-34012500Y-84500000D03*
X-34012500Y-85000000D03*
X-34012500Y-85500000D03*
D19*
X-67175000Y-85000000D03*
X-68825000Y-85000000D03*
X-110175000Y-108000000D03*
X-111825000Y-108000000D03*
D52*
X-40800000Y-107000000D03*
D53*
X-38260000Y-107000000D03*
X-35720000Y-107000000D03*
X-33180000Y-107000000D03*
D35*
X-89000000Y-98175000D03*
X-89000000Y-99825000D03*
D33*
X-106520000Y-69500000D03*
X-107480000Y-69500000D03*
D17*
X-1632000Y-172000000D03*
X-732000Y-172000000D03*
X-732000Y-171100000D03*
X-1632000Y-171100000D03*
D54*
X-1540000Y-97460000D03*
D55*
X-1540000Y-100000000D03*
D54*
X-1540000Y-102540000D03*
X1635000Y-97460000D03*
X1635000Y-102540000D03*
D55*
X3540000Y-98984000D03*
X3540000Y-101016000D03*
D56*
X-270000Y-100635000D03*
X-270000Y-99365000D03*
X1000000Y-100635000D03*
X1000000Y-99365000D03*
X2270000Y-100635000D03*
X2270000Y-99365000D03*
D57*
X-91050000Y-60862500D03*
X-92000000Y-60862500D03*
X-92950000Y-60862500D03*
X-92950000Y-63137500D03*
X-91050000Y-63137500D03*
X-112550000Y-66862500D03*
X-113500000Y-66862500D03*
X-114450000Y-66862500D03*
X-114450000Y-69137500D03*
X-112550000Y-69137500D03*
D58*
X-59650000Y-82000000D03*
X-56350000Y-82000000D03*
D45*
X-38080000Y-160200000D03*
D24*
X-33255000Y-162200000D03*
X-34905000Y-162200000D03*
D52*
X-40800000Y-63000000D03*
D53*
X-38260000Y-63000000D03*
X-35720000Y-63000000D03*
X-33180000Y-63000000D03*
D32*
X-7130000Y-146200000D03*
X-9030000Y-146200000D03*
D36*
X-63510000Y-61500000D03*
X-62490000Y-61500000D03*
D47*
X-15855000Y-165200000D03*
X-14305000Y-165200000D03*
D38*
X-68212500Y-62000000D03*
X-69787500Y-62000000D03*
D26*
X-57775000Y-93000000D03*
X-56225000Y-93000000D03*
D17*
X45617000Y-172000000D03*
X46517000Y-172000000D03*
X46517000Y-171100000D03*
X45617000Y-171100000D03*
D59*
X-27062500Y-94950000D03*
X-27062500Y-93050000D03*
X-28937500Y-94000000D03*
D17*
X-46528000Y-126400000D03*
X-47428000Y-126400000D03*
X-47428000Y-127300000D03*
X-46528000Y-127300000D03*
D24*
X-117825000Y-108000000D03*
X-116175000Y-108000000D03*
D17*
X-9790000Y-127150000D03*
X-9790000Y-128050000D03*
X-8890000Y-128050000D03*
X-8890000Y-127150000D03*
D41*
X-79000000Y-98225000D03*
X-79000000Y-99775000D03*
D26*
X-7305000Y-144200000D03*
X-8855000Y-144200000D03*
D24*
X-44255000Y-168700000D03*
X-45905000Y-168700000D03*
D35*
X-95000000Y-98175000D03*
X-95000000Y-99825000D03*
D26*
X-17305000Y-140200000D03*
X-18855000Y-140200000D03*
D24*
X-117825000Y-102000000D03*
X-116175000Y-102000000D03*
D17*
X-25715000Y-162650000D03*
X-26615000Y-162650000D03*
X-26615000Y-163550000D03*
X-25715000Y-163550000D03*
D42*
X-23000000Y-103000000D03*
D17*
X31993000Y-159600000D03*
X31093000Y-159600000D03*
X31093000Y-160500000D03*
X31993000Y-160500000D03*
X-85133000Y-172000000D03*
X-84233000Y-172000000D03*
X-84233000Y-171100000D03*
X-85133000Y-171100000D03*
D37*
X-116490000Y-62500000D03*
X-117510000Y-62500000D03*
D56*
X-123365000Y-90270000D03*
X-124635000Y-90270000D03*
X-123365000Y-89000000D03*
X-124635000Y-89000000D03*
X-123365000Y-87730000D03*
X-124635000Y-87730000D03*
D55*
X-125016000Y-91540000D03*
X-122984000Y-91540000D03*
D54*
X-126540000Y-89635000D03*
X-121460000Y-89635000D03*
X-126540000Y-86460000D03*
D55*
X-124000000Y-86460000D03*
D54*
X-121460000Y-86460000D03*
D19*
X-24905000Y-168200000D03*
X-23255000Y-168200000D03*
D60*
X-90892500Y-163000000D03*
X-90892500Y-163800000D03*
X-90892500Y-164600000D03*
X-90892500Y-165400000D03*
X-93267500Y-165400000D03*
X-93267500Y-164600000D03*
X-93267500Y-163800000D03*
X-93267500Y-163000000D03*
D17*
X-118780000Y-148750000D03*
X-118780000Y-149650000D03*
X-117880000Y-149650000D03*
X-117880000Y-148750000D03*
D61*
X-42080000Y-142550000D03*
X-42080000Y-145850000D03*
D42*
X-29080000Y-140200000D03*
D62*
X-10230000Y-140225000D03*
X-10230000Y-140875000D03*
X-10230000Y-141525000D03*
X-10230000Y-142175000D03*
X-5930000Y-142175000D03*
X-5930000Y-141525000D03*
X-5930000Y-140875000D03*
X-5930000Y-140225000D03*
D63*
X-8080000Y-141200000D03*
D17*
X74700000Y-115550000D03*
X74700000Y-116450000D03*
X75600000Y-116450000D03*
X75600000Y-115550000D03*
D41*
X-12000000Y-62775000D03*
X-12000000Y-61225000D03*
D20*
X-30855000Y-121700000D03*
X-35105000Y-121700000D03*
D21*
X-31755000Y-122600000D03*
X-34205000Y-122600000D03*
D22*
X-32980000Y-122600000D03*
D23*
X-31130000Y-120650000D03*
X-34830000Y-120650000D03*
D37*
X-84490000Y-68000000D03*
X-85510000Y-68000000D03*
D64*
X-38750000Y-86275000D03*
X-38250000Y-86275000D03*
X-37750000Y-86275000D03*
X-37250000Y-86275000D03*
D65*
X-36725000Y-85750000D03*
X-36725000Y-85250000D03*
X-36725000Y-84750000D03*
X-36725000Y-84250000D03*
D64*
X-37250000Y-83725000D03*
X-37750000Y-83725000D03*
X-38250000Y-83725000D03*
X-38750000Y-83725000D03*
D65*
X-39275000Y-84250000D03*
X-39275000Y-84750000D03*
X-39275000Y-85250000D03*
X-39275000Y-85750000D03*
D37*
X-68490000Y-65000000D03*
X-69510000Y-65000000D03*
D36*
X-66010000Y-61500000D03*
X-64990000Y-61500000D03*
D26*
X-13305000Y-144200000D03*
X-14855000Y-144200000D03*
D37*
X-118490000Y-62500000D03*
X-119510000Y-62500000D03*
D66*
X-61525000Y-99000000D03*
X-64475000Y-99000000D03*
D67*
X-23850000Y-90750000D03*
X-23850000Y-90250000D03*
X-23850000Y-89750000D03*
X-23850000Y-89250000D03*
X-23850000Y-88750000D03*
X-23850000Y-88250000D03*
X-23850000Y-87750000D03*
X-23850000Y-87250000D03*
X-23850000Y-86750000D03*
X-23850000Y-86250000D03*
X-23850000Y-85750000D03*
X-23850000Y-85250000D03*
X-23850000Y-84750000D03*
X-23850000Y-84250000D03*
X-23850000Y-83750000D03*
X-23850000Y-83250000D03*
X-23850000Y-82750000D03*
X-23850000Y-82250000D03*
X-23850000Y-81750000D03*
X-23850000Y-81250000D03*
X-23850000Y-80750000D03*
X-23850000Y-80250000D03*
X-23850000Y-79750000D03*
X-23850000Y-79250000D03*
D68*
X-20600000Y-92650000D03*
X-20600000Y-77350000D03*
D26*
X-126775000Y-77000000D03*
X-125225000Y-77000000D03*
D69*
X-118937500Y-64050000D03*
X-118937500Y-65950000D03*
X-117062500Y-65000000D03*
D25*
X-49000000Y-76000000D03*
D36*
X-57510000Y-63750000D03*
X-56490000Y-63750000D03*
D35*
X-18000000Y-62875000D03*
X-18000000Y-61225000D03*
D42*
X-39080000Y-140200000D03*
D36*
X-88510000Y-69500000D03*
X-87490000Y-69500000D03*
D19*
X-113175000Y-94000000D03*
X-114825000Y-94000000D03*
D25*
X-115000000Y-65000000D03*
D47*
X-56225000Y-85000000D03*
X-57775000Y-85000000D03*
D38*
X-68212500Y-63500000D03*
X-69787500Y-63500000D03*
D70*
X-82000000Y-97525000D03*
X-82000000Y-100475000D03*
D17*
X30268000Y-171100000D03*
X29368000Y-171100000D03*
X29368000Y-172000000D03*
X30268000Y-172000000D03*
D71*
X-68000000Y-89937500D03*
X-68950000Y-88062500D03*
X-67050000Y-88062500D03*
D72*
X-77130000Y-68545000D03*
X-77130000Y-66005000D03*
X-77130000Y-63465000D03*
D26*
X-57775000Y-87000000D03*
X-56225000Y-87000000D03*
D73*
X-55950000Y-70000000D03*
X-58050000Y-70000000D03*
D74*
X-60550000Y-67500000D03*
X-60550000Y-67000000D03*
X-60550000Y-66500000D03*
X-60550000Y-66000000D03*
X-60550000Y-65500000D03*
X-60550000Y-65000000D03*
X-60550000Y-64500000D03*
D75*
X-61500000Y-63550000D03*
X-62000000Y-63550000D03*
X-62500000Y-63550000D03*
X-63000000Y-63550000D03*
X-63500000Y-63550000D03*
X-64000000Y-63550000D03*
X-64500000Y-63550000D03*
D74*
X-65450000Y-64500000D03*
X-65450000Y-65000000D03*
X-65450000Y-65500000D03*
X-65450000Y-66000000D03*
X-65450000Y-66500000D03*
X-65450000Y-67000000D03*
X-65450000Y-67500000D03*
D75*
X-64500000Y-68450000D03*
X-64000000Y-68450000D03*
X-63500000Y-68450000D03*
X-63000000Y-68450000D03*
X-62500000Y-68450000D03*
X-62000000Y-68450000D03*
X-61500000Y-68450000D03*
D76*
X-63000000Y-66000000D03*
D29*
X-65980000Y-70000000D03*
X-65020000Y-70000000D03*
D31*
X3000000Y-71175000D03*
X3000000Y-72825000D03*
D25*
X-75500000Y-61875000D03*
D59*
X-56062500Y-66950000D03*
X-56062500Y-65050000D03*
X-57937500Y-66000000D03*
D36*
X-91510000Y-66500000D03*
X-90490000Y-66500000D03*
D77*
X-28000000Y-106000000D03*
D78*
X-28000000Y-104000000D03*
D17*
X-61030000Y-148750000D03*
X-61030000Y-149650000D03*
X-60130000Y-149650000D03*
X-60130000Y-148750000D03*
X93000Y-160500000D03*
X993000Y-160500000D03*
X993000Y-159600000D03*
X93000Y-159600000D03*
D58*
X-64650000Y-93000000D03*
X-61350000Y-93000000D03*
D17*
X55140000Y-182850000D03*
X55140000Y-181950000D03*
X54240000Y-181950000D03*
X54240000Y-182850000D03*
D79*
X-52280000Y-68890000D03*
X-52280000Y-63110000D03*
D80*
X-53345000Y-69350000D03*
X-53345000Y-68550000D03*
X-53345000Y-67250000D03*
X-53345000Y-66250000D03*
X-53345000Y-65750000D03*
X-53345000Y-64750000D03*
X-53345000Y-63450000D03*
X-53345000Y-62650000D03*
X-53345000Y-62950000D03*
X-53345000Y-63750000D03*
X-53345000Y-64250000D03*
X-53345000Y-65250000D03*
X-53345000Y-66750000D03*
X-53345000Y-67750000D03*
X-53345000Y-68250000D03*
X-53345000Y-69050000D03*
D81*
X-52780000Y-70320000D03*
D82*
X-48600000Y-70320000D03*
D81*
X-52780000Y-61680000D03*
D82*
X-48600000Y-61680000D03*
D17*
X47342000Y-160500000D03*
X48242000Y-160500000D03*
X48242000Y-159600000D03*
X47342000Y-159600000D03*
D83*
X-119050000Y-61000000D03*
X-116950000Y-61000000D03*
D52*
X-40800000Y-103000000D03*
D53*
X-38260000Y-103000000D03*
X-35720000Y-103000000D03*
X-33180000Y-103000000D03*
D59*
X-27062500Y-76950000D03*
X-27062500Y-75050000D03*
X-28937500Y-76000000D03*
D24*
X-63825000Y-75000000D03*
X-62175000Y-75000000D03*
D29*
X-88480000Y-60500000D03*
X-87520000Y-60500000D03*
D43*
X-35705000Y-176000000D03*
X-35111891Y-174568109D03*
X-35111891Y-177431891D03*
X-33680000Y-173975000D03*
D44*
X-33680000Y-176000000D03*
D43*
X-33680000Y-178025000D03*
X-32248109Y-174568109D03*
X-32248109Y-177431891D03*
X-31655000Y-176000000D03*
D37*
X-87490000Y-65000000D03*
X-88510000Y-65000000D03*
D49*
X-89000000Y-93050000D03*
X-89000000Y-94950000D03*
D17*
X77517000Y-171100000D03*
X76617000Y-171100000D03*
X76617000Y-172000000D03*
X77517000Y-172000000D03*
X35248000Y-137900000D03*
X34348000Y-137900000D03*
X34348000Y-138800000D03*
X35248000Y-138800000D03*
D49*
X-20000000Y-63000000D03*
X-20000000Y-61100000D03*
D32*
X-58950000Y-78000000D03*
X-57050000Y-78000000D03*
D84*
X-72000000Y-66150000D03*
X-72000000Y-64850000D03*
X-74000000Y-65500000D03*
D17*
X-48253000Y-137900000D03*
X-49153000Y-137900000D03*
X-49153000Y-138800000D03*
X-48253000Y-138800000D03*
D48*
X-121212500Y-81000000D03*
X-122787500Y-81000000D03*
D17*
X-56050000Y-115550000D03*
X-56050000Y-116450000D03*
X-55150000Y-116450000D03*
X-55150000Y-115550000D03*
D46*
X-27605000Y-170200000D03*
X-30555000Y-170200000D03*
D17*
X18390000Y-182850000D03*
X18390000Y-181950000D03*
X17490000Y-181950000D03*
X17490000Y-182850000D03*
D26*
X-57775000Y-99000000D03*
X-56225000Y-99000000D03*
D42*
X-13000000Y-107000000D03*
D39*
X-79000000Y-84950000D03*
X-79000000Y-83050000D03*
D36*
X-95510000Y-60500000D03*
X-94490000Y-60500000D03*
D49*
X-22000000Y-63000000D03*
X-22000000Y-61100000D03*
D41*
X-6000000Y-62775000D03*
X-6000000Y-61225000D03*
D17*
X-100482000Y-171100000D03*
X-101382000Y-171100000D03*
X-101382000Y-172000000D03*
X-100482000Y-172000000D03*
D46*
X-64475000Y-96000000D03*
X-61525000Y-96000000D03*
D17*
X27450000Y-115550000D03*
X27450000Y-116450000D03*
X28350000Y-116450000D03*
X28350000Y-115550000D03*
D85*
X-77850000Y-106400000D03*
X-96150000Y-106400000D03*
D86*
X-79750000Y-103150000D03*
X-80250000Y-103150000D03*
X-80750000Y-103150000D03*
X-81250000Y-103150000D03*
X-81750000Y-103150000D03*
X-82250000Y-103150000D03*
X-82750000Y-103150000D03*
X-83250000Y-103150000D03*
X-83750000Y-103150000D03*
X-84250000Y-103150000D03*
X-84750000Y-103150000D03*
X-85250000Y-103150000D03*
X-85750000Y-103150000D03*
X-86250000Y-103150000D03*
X-86750000Y-103150000D03*
X-87250000Y-103150000D03*
X-87750000Y-103150000D03*
X-88250000Y-103150000D03*
X-88750000Y-103150000D03*
X-89250000Y-103150000D03*
X-89750000Y-103150000D03*
X-90250000Y-103150000D03*
X-90750000Y-103150000D03*
X-91250000Y-103150000D03*
X-91750000Y-103150000D03*
X-92250000Y-103150000D03*
X-92750000Y-103150000D03*
X-93250000Y-103150000D03*
X-93750000Y-103150000D03*
X-94250000Y-103150000D03*
D31*
X-8000000Y-101175000D03*
X-8000000Y-102825000D03*
D30*
X-81000000Y-84775000D03*
X-81000000Y-83225000D03*
D45*
X-129080000Y-149200000D03*
D48*
X-39607500Y-172300000D03*
X-38032500Y-172300000D03*
D87*
X-116862500Y-96050000D03*
X-116862500Y-97950000D03*
X-119137500Y-97950000D03*
X-119137500Y-97000000D03*
X-119137500Y-96050000D03*
D88*
X-61600000Y-82000000D03*
X-64400000Y-82000000D03*
D47*
X-92855000Y-167200000D03*
X-91305000Y-167200000D03*
D48*
X-39607500Y-169300000D03*
X-38032500Y-169300000D03*
D24*
X-126825000Y-79000000D03*
X-125175000Y-79000000D03*
X-33255000Y-160200000D03*
X-34905000Y-160200000D03*
D25*
X-84500000Y-66500000D03*
D31*
X-10000000Y-101175000D03*
X-10000000Y-102825000D03*
D26*
X-63775000Y-85000000D03*
X-62225000Y-85000000D03*
X-27225000Y-73000000D03*
X-28775000Y-73000000D03*
D30*
X-39000000Y-89225000D03*
X-39000000Y-90775000D03*
D82*
X-126075000Y-109320000D03*
D81*
X-121895000Y-109320000D03*
D82*
X-126075000Y-100680000D03*
D81*
X-121895000Y-100680000D03*
D80*
X-121330000Y-101950000D03*
X-121330000Y-102750000D03*
X-121330000Y-103250000D03*
X-121330000Y-104250000D03*
X-121330000Y-105750000D03*
X-121330000Y-106750000D03*
X-121330000Y-107250000D03*
X-121330000Y-108050000D03*
X-121330000Y-108350000D03*
X-121330000Y-107550000D03*
X-121330000Y-106250000D03*
X-121330000Y-105250000D03*
X-121330000Y-104750000D03*
X-121330000Y-103750000D03*
X-121330000Y-102450000D03*
X-121330000Y-101650000D03*
D79*
X-122395000Y-107890000D03*
X-122395000Y-102110000D03*
D19*
X-14905000Y-140200000D03*
X-13255000Y-140200000D03*
D17*
X-93777000Y-126400000D03*
X-94677000Y-126400000D03*
X-94677000Y-127300000D03*
X-93777000Y-127300000D03*
D41*
X-91000000Y-98225000D03*
X-91000000Y-99775000D03*
D17*
X-65110000Y-182850000D03*
X-65110000Y-181950000D03*
X-66010000Y-181950000D03*
X-66010000Y-182850000D03*
D86*
X-6750000Y-71850000D03*
X-7250000Y-71850000D03*
X-7750000Y-71850000D03*
X-8250000Y-71850000D03*
X-8750000Y-71850000D03*
X-9250000Y-71850000D03*
X-9750000Y-71850000D03*
X-10250000Y-71850000D03*
X-10750000Y-71850000D03*
X-11250000Y-71850000D03*
X-11750000Y-71850000D03*
X-12250000Y-71850000D03*
X-12750000Y-71850000D03*
X-13250000Y-71850000D03*
X-13750000Y-71850000D03*
X-14250000Y-71850000D03*
X-14750000Y-71850000D03*
X-15250000Y-71850000D03*
X-15750000Y-71850000D03*
X-16250000Y-71850000D03*
X-16750000Y-71850000D03*
X-17250000Y-71850000D03*
X-17750000Y-71850000D03*
X-18250000Y-71850000D03*
X-18750000Y-71850000D03*
X-19250000Y-71850000D03*
X-19750000Y-71850000D03*
X-20250000Y-71850000D03*
X-20750000Y-71850000D03*
X-21250000Y-71850000D03*
D85*
X-4850000Y-68600000D03*
X-23150000Y-68600000D03*
D33*
X-109520000Y-62500000D03*
X-110480000Y-62500000D03*
D41*
X5000000Y-72775000D03*
X5000000Y-71225000D03*
D17*
X-95502000Y-137900000D03*
X-96402000Y-137900000D03*
X-96402000Y-138800000D03*
X-95502000Y-138800000D03*
D24*
X-126825000Y-83000000D03*
X-125175000Y-83000000D03*
D58*
X-112650000Y-106000000D03*
X-109350000Y-106000000D03*
D40*
X-48900000Y-108850000D03*
X-55100000Y-108850000D03*
X-48900000Y-105150000D03*
X-55100000Y-105150000D03*
D25*
X-55000000Y-61875000D03*
D89*
X-66350000Y-99000000D03*
X-69650000Y-99000000D03*
D48*
X-84787500Y-69500000D03*
X-83212500Y-69500000D03*
D17*
X-108280000Y-148750000D03*
X-108280000Y-149650000D03*
X-107380000Y-149650000D03*
X-107380000Y-148750000D03*
D42*
X-29080000Y-134200000D03*
D84*
X-72000000Y-63150000D03*
X-72000000Y-61850000D03*
X-74000000Y-62500000D03*
D18*
X-6000000Y-98787500D03*
X-6000000Y-97212500D03*
D45*
X-101000000Y-96000000D03*
D24*
X-126825000Y-81000000D03*
X-125175000Y-81000000D03*
D35*
X-35000000Y-90825000D03*
X-35000000Y-89175000D03*
D42*
X-13000000Y-98000000D03*
D26*
X-57775000Y-91000000D03*
X-56225000Y-91000000D03*
D48*
X-39607500Y-170800000D03*
X-38032500Y-170800000D03*
D17*
X-112360000Y-182850000D03*
X-112360000Y-181950000D03*
X-113260000Y-181950000D03*
X-113260000Y-182850000D03*
D72*
X-82370000Y-62460000D03*
X-82370000Y-65000000D03*
X-82370000Y-67540000D03*
D26*
X-27225000Y-88000000D03*
X-28775000Y-88000000D03*
D90*
X-106150000Y-106300000D03*
D91*
X-99850000Y-104000000D03*
D90*
X-106150000Y-104000000D03*
X-106150000Y-101700000D03*
D17*
X-122860000Y-182850000D03*
X-122860000Y-181950000D03*
X-123760000Y-181950000D03*
X-123760000Y-182850000D03*
D37*
X-68490000Y-66000000D03*
X-69510000Y-66000000D03*
D17*
X84222000Y-126400000D03*
X83322000Y-126400000D03*
X83322000Y-127300000D03*
X84222000Y-127300000D03*
X-75610000Y-182850000D03*
X-75610000Y-181950000D03*
X-76510000Y-181950000D03*
X-76510000Y-182850000D03*
D92*
X-106662500Y-62250000D03*
X-106662500Y-62750000D03*
X-106662500Y-63250000D03*
X-106662500Y-63750000D03*
X-106662500Y-64250000D03*
X-106662500Y-64750000D03*
X-106662500Y-65250000D03*
X-106662500Y-65750000D03*
X-106662500Y-66250000D03*
X-106662500Y-66750000D03*
X-106662500Y-67250000D03*
X-106662500Y-67750000D03*
D93*
X-105250000Y-69162500D03*
X-104750000Y-69162500D03*
X-104250000Y-69162500D03*
X-103750000Y-69162500D03*
X-103250000Y-69162500D03*
X-102750000Y-69162500D03*
X-102250000Y-69162500D03*
X-101750000Y-69162500D03*
X-101250000Y-69162500D03*
X-100750000Y-69162500D03*
X-100250000Y-69162500D03*
X-99750000Y-69162500D03*
D92*
X-98337500Y-67750000D03*
X-98337500Y-67250000D03*
X-98337500Y-66750000D03*
X-98337500Y-66250000D03*
X-98337500Y-65750000D03*
X-98337500Y-65250000D03*
X-98337500Y-64750000D03*
X-98337500Y-64250000D03*
X-98337500Y-63750000D03*
X-98337500Y-63250000D03*
X-98337500Y-62750000D03*
X-98337500Y-62250000D03*
D93*
X-99750000Y-60837500D03*
X-100250000Y-60837500D03*
X-100750000Y-60837500D03*
X-101250000Y-60837500D03*
X-101750000Y-60837500D03*
X-102250000Y-60837500D03*
X-102750000Y-60837500D03*
X-103250000Y-60837500D03*
X-103750000Y-60837500D03*
X-104250000Y-60837500D03*
X-104750000Y-60837500D03*
X-105250000Y-60837500D03*
D17*
X65640000Y-182850000D03*
X65640000Y-181950000D03*
X64740000Y-181950000D03*
X64740000Y-182850000D03*
D36*
X-57510000Y-68250000D03*
X-56490000Y-68250000D03*
D17*
X-78428000Y-127300000D03*
X-77528000Y-127300000D03*
X-77528000Y-126400000D03*
X-78428000Y-126400000D03*
D30*
X-92000000Y-84775000D03*
X-92000000Y-83225000D03*
X-23000000Y-106225000D03*
X-23000000Y-107775000D03*
D47*
X-28775000Y-97000000D03*
X-27225000Y-97000000D03*
D37*
X-90490000Y-65000000D03*
X-91510000Y-65000000D03*
D69*
X-116062500Y-105000000D03*
X-117937500Y-105950000D03*
X-117937500Y-104050000D03*
D17*
X-103300000Y-115550000D03*
X-103300000Y-116450000D03*
X-102400000Y-116450000D03*
X-102400000Y-115550000D03*
D45*
X-18080000Y-144200000D03*
D20*
X-4355000Y-121700000D03*
X-8605000Y-121700000D03*
D21*
X-5255000Y-122600000D03*
X-7705000Y-122600000D03*
D22*
X-6480000Y-122600000D03*
D23*
X-4630000Y-120650000D03*
X-8330000Y-120650000D03*
D34*
X-110450000Y-68000000D03*
X-108550000Y-68000000D03*
D41*
X-33000000Y-80775000D03*
X-33000000Y-79225000D03*
X-8000000Y-62775000D03*
X-8000000Y-61225000D03*
D17*
X-42450000Y-76450000D03*
X-41550000Y-76450000D03*
X-41550000Y-75550000D03*
X-42450000Y-75550000D03*
D29*
X-110480000Y-60500000D03*
X-109520000Y-60500000D03*
D19*
X-28825000Y-82000000D03*
X-27175000Y-82000000D03*
D94*
X-92000000Y-92350000D03*
X-92000000Y-95650000D03*
D17*
X-21545000Y-134850000D03*
X-22445000Y-134850000D03*
X-22445000Y-135750000D03*
X-21545000Y-135750000D03*
D95*
X-15700000Y-101850000D03*
X-18000000Y-101850000D03*
D96*
X-18000000Y-108150000D03*
D95*
X-20300000Y-101850000D03*
D26*
X-122775000Y-75000000D03*
X-121225000Y-75000000D03*
D17*
X-127402000Y-138800000D03*
X-126502000Y-138800000D03*
X-126502000Y-137900000D03*
X-127402000Y-137900000D03*
D48*
X-121212500Y-83000000D03*
X-122787500Y-83000000D03*
D26*
X-57825000Y-95000000D03*
X-56275000Y-95000000D03*
D39*
X-39080000Y-143250000D03*
X-39080000Y-145150000D03*
D29*
X-98480000Y-69500000D03*
X-97520000Y-69500000D03*
D36*
X-88510000Y-66500000D03*
X-87490000Y-66500000D03*
D29*
X-109980000Y-66500000D03*
X-109020000Y-66500000D03*
D58*
X-69650000Y-96000000D03*
X-66350000Y-96000000D03*
D17*
X11970000Y-148750000D03*
X11970000Y-149650000D03*
X12870000Y-149650000D03*
X12870000Y-148750000D03*
X-66550000Y-115550000D03*
X-66550000Y-116450000D03*
X-65650000Y-116450000D03*
X-65650000Y-115550000D03*
X-98757000Y-159600000D03*
X-99657000Y-159600000D03*
X-99657000Y-160500000D03*
X-98757000Y-160500000D03*
X-42450000Y-94450000D03*
X-41550000Y-94450000D03*
X-41550000Y-93550000D03*
X-42450000Y-93550000D03*
D73*
X-106050000Y-96000000D03*
X-103950000Y-96000000D03*
D17*
X-42450000Y-82450000D03*
X-41550000Y-82450000D03*
X-41550000Y-81550000D03*
X-42450000Y-81550000D03*
D78*
X-125950000Y-97000000D03*
D97*
X-125950000Y-95000000D03*
D47*
X-56225000Y-97000000D03*
X-57775000Y-97000000D03*
D49*
X-13000000Y-103950000D03*
X-13000000Y-102050000D03*
D48*
X-84787500Y-60500000D03*
X-83212500Y-60500000D03*
D30*
X-33000000Y-89225000D03*
X-33000000Y-90775000D03*
D45*
X-58000000Y-75000000D03*
D19*
X-117175000Y-94000000D03*
X-118825000Y-94000000D03*
D29*
X-110480000Y-69500000D03*
X-109520000Y-69500000D03*
D98*
X-17200000Y-170300000D03*
X-17200000Y-170800000D03*
X-17200000Y-171300000D03*
X-14440000Y-171300000D03*
X-14440000Y-170800000D03*
X-14440000Y-170300000D03*
D99*
X-15820000Y-170800000D03*
D25*
X82920000Y-118200000D03*
D31*
X-6000000Y-101175000D03*
X-6000000Y-102825000D03*
D17*
X59220000Y-148750000D03*
X59220000Y-149650000D03*
X60120000Y-149650000D03*
X60120000Y-148750000D03*
D54*
X-2540000Y-164660000D03*
D55*
X-5080000Y-164660000D03*
D54*
X-7620000Y-164660000D03*
X-2540000Y-167835000D03*
X-7620000Y-167835000D03*
D55*
X-4064000Y-169740000D03*
X-6096000Y-169740000D03*
D56*
X-5715000Y-165930000D03*
X-4445000Y-165930000D03*
X-5715000Y-167200000D03*
X-4445000Y-167200000D03*
X-5715000Y-168470000D03*
X-4445000Y-168470000D03*
D27*
X-42942500Y-160150000D03*
X-42942500Y-159200000D03*
X-42942500Y-158250000D03*
X-45217500Y-158250000D03*
X-45217500Y-160150000D03*
D85*
X-94650000Y-76600000D03*
X-79350000Y-76600000D03*
D86*
X-92750000Y-79850000D03*
X-92250000Y-79850000D03*
X-91750000Y-79850000D03*
X-91250000Y-79850000D03*
X-90750000Y-79850000D03*
X-90250000Y-79850000D03*
X-89750000Y-79850000D03*
X-89250000Y-79850000D03*
X-88750000Y-79850000D03*
X-88250000Y-79850000D03*
X-87750000Y-79850000D03*
X-87250000Y-79850000D03*
X-86750000Y-79850000D03*
X-86250000Y-79850000D03*
X-85750000Y-79850000D03*
X-85250000Y-79850000D03*
X-84750000Y-79850000D03*
X-84250000Y-79850000D03*
X-83750000Y-79850000D03*
X-83250000Y-79850000D03*
X-82750000Y-79850000D03*
X-82250000Y-79850000D03*
X-81750000Y-79850000D03*
X-81250000Y-79850000D03*
D26*
X-105775000Y-109000000D03*
X-104225000Y-109000000D03*
X-27225000Y-91000000D03*
X-28775000Y-91000000D03*
D25*
X-75500000Y-70125000D03*
D36*
X-88510000Y-68000000D03*
X-87490000Y-68000000D03*
D30*
X-39000000Y-79225000D03*
X-39000000Y-80775000D03*
D25*
X-121080000Y-118200000D03*
D95*
X-36380000Y-145350000D03*
X-34080000Y-145350000D03*
D96*
X-34080000Y-139050000D03*
D95*
X-31780000Y-145350000D03*
D47*
X-92855000Y-161200000D03*
X-91305000Y-161200000D03*
D45*
X-101000000Y-99000000D03*
D66*
X-124525000Y-75000000D03*
X-127475000Y-75000000D03*
D47*
X-24855000Y-170200000D03*
X-23305000Y-170200000D03*
D17*
X-83408000Y-160500000D03*
X-82508000Y-160500000D03*
X-82508000Y-159600000D03*
X-83408000Y-159600000D03*
D70*
X4000000Y-68475000D03*
X4000000Y-65525000D03*
D45*
X-38080000Y-162200000D03*
D100*
X-112400000Y-60650000D03*
X-114600000Y-60650000D03*
X-114600000Y-62350000D03*
X-112400000Y-62350000D03*
D25*
X-111000000Y-100000000D03*
D41*
X-93000000Y-98225000D03*
X-93000000Y-99775000D03*
D42*
X-23000000Y-98000000D03*
D34*
X-95950000Y-69500000D03*
X-94050000Y-69500000D03*
D49*
X-114000000Y-96050000D03*
X-114000000Y-97950000D03*
D68*
X-49600000Y-84350000D03*
X-49600000Y-99650000D03*
D67*
X-52850000Y-86250000D03*
X-52850000Y-86750000D03*
X-52850000Y-87250000D03*
X-52850000Y-87750000D03*
X-52850000Y-88250000D03*
X-52850000Y-88750000D03*
X-52850000Y-89250000D03*
X-52850000Y-89750000D03*
X-52850000Y-90250000D03*
X-52850000Y-90750000D03*
X-52850000Y-91250000D03*
X-52850000Y-91750000D03*
X-52850000Y-92250000D03*
X-52850000Y-92750000D03*
X-52850000Y-93250000D03*
X-52850000Y-93750000D03*
X-52850000Y-94250000D03*
X-52850000Y-94750000D03*
X-52850000Y-95250000D03*
X-52850000Y-95750000D03*
X-52850000Y-96250000D03*
X-52850000Y-96750000D03*
X-52850000Y-97250000D03*
X-52850000Y-97750000D03*
D101*
X-83000000Y-85475000D03*
X-83000000Y-82525000D03*
D26*
X-10305000Y-167200000D03*
X-11855000Y-167200000D03*
D19*
X-18905000Y-142200000D03*
X-17255000Y-142200000D03*
D41*
X1000000Y-72775000D03*
X1000000Y-71225000D03*
D26*
X-27225000Y-84000000D03*
X-28775000Y-84000000D03*
D38*
X-122787500Y-94000000D03*
X-121212500Y-94000000D03*
D49*
X-79000000Y-93050000D03*
X-79000000Y-94950000D03*
D61*
X-95000000Y-95650000D03*
X-95000000Y-92350000D03*
D79*
X-122720000Y-62110000D03*
X-122720000Y-67890000D03*
D80*
X-121655000Y-61650000D03*
X-121655000Y-62450000D03*
X-121655000Y-63750000D03*
X-121655000Y-64750000D03*
X-121655000Y-65250000D03*
X-121655000Y-66250000D03*
X-121655000Y-67550000D03*
X-121655000Y-68350000D03*
X-121655000Y-68050000D03*
X-121655000Y-67250000D03*
X-121655000Y-66750000D03*
X-121655000Y-65750000D03*
X-121655000Y-64250000D03*
X-121655000Y-63250000D03*
X-121655000Y-62750000D03*
X-121655000Y-61950000D03*
D81*
X-122220000Y-60680000D03*
D82*
X-126400000Y-60680000D03*
D81*
X-122220000Y-69320000D03*
D82*
X-126400000Y-69320000D03*
D17*
X3348000Y-138800000D03*
X4248000Y-138800000D03*
X4248000Y-137900000D03*
X3348000Y-137900000D03*
D59*
X-111937500Y-103000000D03*
X-110062500Y-102050000D03*
X-110062500Y-103950000D03*
D37*
X-116490000Y-67500000D03*
X-117510000Y-67500000D03*
D52*
X-40800000Y-67000000D03*
D53*
X-38260000Y-67000000D03*
X-35720000Y-67000000D03*
X-33180000Y-67000000D03*
D25*
X-49000000Y-103000000D03*
D18*
X-8000000Y-98787500D03*
X-8000000Y-97212500D03*
D47*
X-21855000Y-168200000D03*
X-20305000Y-168200000D03*
D17*
X5073000Y-127300000D03*
X5973000Y-127300000D03*
X5973000Y-126400000D03*
X5073000Y-126400000D03*
D102*
X-7080000Y-134200000D03*
D103*
X-9080000Y-134200000D03*
D102*
X-33080000Y-134200000D03*
D103*
X-35080000Y-134200000D03*
D55*
X-95500000Y-67540000D03*
X-96516000Y-62460000D03*
X-94484000Y-62460000D03*
M02*
