G04 #@! TF.GenerationSoftware,KiCad,Pcbnew,7.0.4-40-g0180cb380f*
G04 #@! TF.CreationDate,2023-05-29T16:48:42-07:00*
G04 #@! TF.ProjectId,SevenSegment,53657665-6e53-4656-976d-656e742e6b69,rev?*
G04 #@! TF.SameCoordinates,Original*
G04 #@! TF.FileFunction,Profile,NP*
%FSLAX46Y46*%
G04 Gerber Fmt 4.6, Leading zero omitted, Abs format (unit mm)*
G04 Created by KiCad (PCBNEW 7.0.4-40-g0180cb380f) date 2023-05-29 16:48:42*
%MOMM*%
%LPD*%
G01*
G04 APERTURE LIST*
G04 #@! TA.AperFunction,Profile*
%ADD10C,0.038100*%
G04 #@! TD*
G04 #@! TA.AperFunction,Profile*
%ADD11C,0.100000*%
G04 #@! TD*
G04 #@! TA.AperFunction,Profile*
%ADD12C,0.120000*%
G04 #@! TD*
G04 APERTURE END LIST*
D10*
X16000000Y-106000000D02*
X16500000Y-111000000D01*
X14000000Y-104000000D02*
X16000000Y-106000000D01*
X7000000Y-103500000D02*
X14000000Y-104000000D01*
X11500000Y-111000000D02*
X7000000Y-108500000D01*
D11*
X35750000Y-112000000D02*
X17000000Y-112000000D01*
D10*
X-44000000Y-108000000D02*
X-44000000Y-109000000D01*
X-46000000Y-70000000D02*
X-46000000Y-69000000D01*
X-44000000Y-61000000D02*
X-44000000Y-63000000D01*
X-64500000Y-71000000D02*
X-47000000Y-71000000D01*
X-128000000Y-71000000D02*
X-127000000Y-71000000D01*
X-64500000Y-73000000D02*
X-48000000Y-73000000D01*
X-82000000Y-73000000D02*
X-70500000Y-73000000D01*
X-54000000Y-110000000D02*
X-114000000Y-110000000D01*
D11*
X-48000000Y-112000000D02*
X-47750000Y-112000000D01*
D10*
X-44000000Y-69000000D02*
X-44000000Y-75000000D01*
D11*
X24790000Y-178400000D02*
X1790000Y-178400000D01*
X-97930000Y-178200000D02*
X-89680000Y-178200000D01*
D10*
X-128000000Y-59000000D02*
G75*
G03*
X-129000000Y-60000000I-1J-999999D01*
G01*
X-77500000Y-71000000D02*
X-70500000Y-71000000D01*
D11*
X10550000Y-120000000D02*
X33550000Y-120000000D01*
X88935000Y-119100000D02*
X83000000Y-112000000D01*
D10*
X5000000Y-110000000D02*
G75*
G03*
X6000000Y-109000000I0J1000000D01*
G01*
X-78500000Y-70000000D02*
G75*
G03*
X-77500000Y-71000000I999999J-1D01*
G01*
D11*
X57800000Y-120000000D02*
X80800000Y-120000000D01*
D10*
X-18580000Y-171200000D02*
X-28080000Y-171200000D01*
D11*
X-81710000Y-178400000D02*
X-77930000Y-153200000D01*
D10*
X-7080000Y-178200000D02*
X-7080000Y-173200000D01*
D11*
X54020000Y-145200000D02*
X57800000Y-120000000D01*
D10*
X-31080000Y-173200000D02*
X-31080000Y-178200000D01*
D11*
X2520000Y-120200000D02*
X-41980000Y-120200000D01*
X-98095000Y-179300000D02*
X-97930000Y-178200000D01*
X2685000Y-119100000D02*
X2520000Y-120200000D01*
X-41815000Y-119100000D02*
X-47750000Y-112000000D01*
X49040000Y-178400000D02*
X52820000Y-153200000D01*
X-100980000Y-145200000D02*
X-123980000Y-145200000D01*
D10*
X-48000000Y-110000000D02*
G75*
G03*
X-46000000Y-108000000I1J1999999D01*
G01*
X-46000000Y-75000000D02*
G75*
G03*
X-48000000Y-73000000I-1999999J1D01*
G01*
X-28080000Y-171200000D02*
X-29080000Y-172200000D01*
X-44000000Y-109000000D02*
G75*
G03*
X-43000000Y-110000000I1000000J0D01*
G01*
D11*
X-80980000Y-120200000D02*
X-89230000Y-120200000D01*
X72040000Y-178400000D02*
X49040000Y-178400000D01*
D10*
X-127000000Y-73000000D02*
G75*
G03*
X-129000000Y-75000000I-1J-1999999D01*
G01*
X5000000Y-60000000D02*
X-43000000Y-60000000D01*
D11*
X-7080000Y-178200000D02*
X-6180000Y-178200000D01*
X28570000Y-153200000D02*
X24790000Y-178400000D01*
X-58910000Y-186400000D02*
X-50845000Y-179300000D01*
D10*
X-82000000Y-71000000D02*
G75*
G03*
X-81000000Y-70000000I1J999999D01*
G01*
D11*
X-102180000Y-153200000D02*
X-105960000Y-178400000D01*
X-106160000Y-186400000D02*
X-98095000Y-179300000D01*
D10*
X-129000000Y-108000000D02*
G75*
G03*
X-127000000Y-110000000I1999999J-1D01*
G01*
D11*
X33550000Y-120000000D02*
X29770000Y-145200000D01*
D10*
X-44000000Y-81000000D02*
X-44000000Y-102000000D01*
D11*
X-89845000Y-179300000D02*
X-83910000Y-186400000D01*
D10*
X-30080000Y-172200000D02*
X-31080000Y-173200000D01*
D11*
X32820000Y-178200000D02*
X41070000Y-178200000D01*
X-49950000Y-120000000D02*
X-53730000Y-145200000D01*
X6770000Y-145200000D02*
X10550000Y-120000000D01*
X-89230000Y-120200000D02*
X-89065000Y-119100000D01*
D10*
X-9080000Y-171200000D02*
X-12580000Y-171200000D01*
D11*
X-128960000Y-178400000D02*
X-125180000Y-153200000D01*
X-58710000Y-178400000D02*
X-81710000Y-178400000D01*
X49770000Y-120200000D02*
X41520000Y-120200000D01*
D10*
X-129000000Y-108000000D02*
X-129000000Y-75000000D01*
X-121000000Y-73000000D02*
X-88000000Y-73000000D01*
D11*
X41520000Y-120200000D02*
X41685000Y-119100000D01*
X-95000000Y-112000000D02*
X-114000000Y-112000000D01*
X79905000Y-179300000D02*
X88935000Y-119100000D01*
D10*
X-46000000Y-62000000D02*
G75*
G03*
X-47000000Y-61000000I-999999J1D01*
G01*
X-81000000Y-70000000D02*
X-81000000Y-60000000D01*
D11*
X-6180000Y-178200000D02*
X-6345000Y-179300000D01*
X-105960000Y-178400000D02*
X-128960000Y-178400000D01*
D10*
X-43000000Y-110000000D02*
X5000000Y-110000000D01*
D11*
X58000000Y-112000000D02*
X49935000Y-119100000D01*
X-83910000Y-186400000D02*
X-58910000Y-186400000D01*
X46840000Y-186400000D02*
X71840000Y-186400000D01*
X71840000Y-186400000D02*
X79905000Y-179300000D01*
X-54930000Y-153200000D02*
X-58710000Y-178400000D01*
X-50845000Y-179300000D02*
X-50680000Y-178200000D01*
X-76730000Y-145200000D02*
X-72950000Y-120000000D01*
X80800000Y-120000000D02*
X77020000Y-145200000D01*
X-410000Y-186400000D02*
X24590000Y-186400000D01*
X-131160000Y-186400000D02*
X-106160000Y-186400000D01*
D10*
X6000000Y-103000000D02*
X6000000Y-61000000D01*
D11*
X-80815000Y-119100000D02*
X-80980000Y-120200000D01*
D10*
X-43000000Y-60000000D02*
G75*
G03*
X-44000000Y-61000000I0J-1000000D01*
G01*
D11*
X-50680000Y-178200000D02*
X-31080000Y-178200000D01*
X-72950000Y-120000000D02*
X-49950000Y-120000000D01*
X75820000Y-153200000D02*
X72040000Y-178400000D01*
D10*
X-129000000Y-70000000D02*
G75*
G03*
X-128000000Y-71000000I999999J-1D01*
G01*
D11*
X-89680000Y-178200000D02*
X-89845000Y-179300000D01*
D10*
X-17580000Y-172200000D02*
X-18580000Y-171200000D01*
D11*
X-97200000Y-120000000D02*
X-100980000Y-145200000D01*
D10*
X-47000000Y-71000000D02*
G75*
G03*
X-46000000Y-70000000I1J999999D01*
G01*
X-12580000Y-171200000D02*
X-13580000Y-172200000D01*
D11*
X49935000Y-119100000D02*
X49770000Y-120200000D01*
X-89065000Y-119100000D02*
X-95000000Y-112000000D01*
D10*
X-121000000Y-71000000D02*
X-88000000Y-71000000D01*
X-120000000Y-110000000D02*
X-127000000Y-110000000D01*
D11*
X-53730000Y-145200000D02*
X-76730000Y-145200000D01*
X11000000Y-112000000D02*
X10750000Y-112000000D01*
X-120200000Y-120000000D02*
X-97200000Y-120000000D01*
X-125180000Y-153200000D02*
X-102180000Y-153200000D01*
X52820000Y-153200000D02*
X75820000Y-153200000D01*
D10*
X-46000000Y-81000000D02*
X-46000000Y-102000000D01*
D11*
X41070000Y-178200000D02*
X40905000Y-179300000D01*
D10*
X6000000Y-61000000D02*
G75*
G03*
X5000000Y-60000000I-1000000J0D01*
G01*
D11*
X5570000Y-153200000D02*
X28570000Y-153200000D01*
D10*
X-29080000Y-172200000D02*
X-30080000Y-172200000D01*
X-13580000Y-172200000D02*
X-17580000Y-172200000D01*
D11*
X-54000000Y-112000000D02*
X-72750000Y-112000000D01*
X40905000Y-179300000D02*
X46840000Y-186400000D01*
D10*
X-81000000Y-60000000D02*
G75*
G03*
X-82000000Y-59000000I-999999J1D01*
G01*
X-9080000Y-171200000D02*
X-7080000Y-173200000D01*
D11*
X-120000000Y-112000000D02*
X-128065000Y-119100000D01*
X83000000Y-112000000D02*
X58000000Y-112000000D01*
D10*
X-46000000Y-63000000D02*
X-46000000Y-62000000D01*
D11*
X-128065000Y-119100000D02*
X-137095000Y-179300000D01*
D10*
X-47000000Y-61000000D02*
X-77500000Y-61000000D01*
D11*
X-77930000Y-153200000D02*
X-54930000Y-153200000D01*
X24590000Y-186400000D02*
X32655000Y-179300000D01*
X32655000Y-179300000D02*
X32820000Y-178200000D01*
X-41980000Y-120200000D02*
X-41815000Y-119100000D01*
X29770000Y-145200000D02*
X6770000Y-145200000D01*
D10*
X-77500000Y-61000000D02*
G75*
G03*
X-78500000Y-62000000I-1J-999999D01*
G01*
D11*
X1790000Y-178400000D02*
X5570000Y-153200000D01*
X10750000Y-112000000D02*
X2685000Y-119100000D01*
D10*
X-129000000Y-60000000D02*
X-129000000Y-70000000D01*
D11*
X-137095000Y-179300000D02*
X-131160000Y-186400000D01*
X77020000Y-145200000D02*
X54020000Y-145200000D01*
D10*
X-78500000Y-62000000D02*
X-78500000Y-70000000D01*
D11*
X41685000Y-119100000D02*
X35750000Y-112000000D01*
D10*
X-82000000Y-59000000D02*
X-128000000Y-59000000D01*
D11*
X-123980000Y-145200000D02*
X-120200000Y-120000000D01*
X-72750000Y-112000000D02*
X-80815000Y-119100000D01*
X-6345000Y-179300000D02*
X-410000Y-186400000D01*
D12*
X6000000Y-109000000D02*
X6000000Y-108500000D01*
X7000000Y-108500000D02*
X6000000Y-108500000D01*
X6000000Y-103500000D02*
X7000000Y-103500000D01*
X6000000Y-103500000D02*
X6000000Y-103000000D01*
X17000000Y-112000000D02*
X16500000Y-112000000D01*
X16500000Y-111000000D02*
X16500000Y-112000000D01*
X11500000Y-112000000D02*
X11500000Y-111000000D01*
X11500000Y-112000000D02*
X11000000Y-112000000D01*
X-127000000Y-71000000D02*
X-126500000Y-71000000D01*
X-126500000Y-72000000D02*
X-126500000Y-71000000D01*
X-121500000Y-71000000D02*
X-121500000Y-72000000D01*
X-121500000Y-71000000D02*
X-121000000Y-71000000D01*
X-121000000Y-73000000D02*
X-121500000Y-73000000D01*
X-121500000Y-72000000D02*
X-121500000Y-73000000D01*
X-126500000Y-73000000D02*
X-126500000Y-72000000D01*
X-126500000Y-73000000D02*
X-127000000Y-73000000D01*
X-44000000Y-63000000D02*
X-44000000Y-63500000D01*
X-45000000Y-63500000D02*
X-44000000Y-63500000D01*
X-44000000Y-68500000D02*
X-45000000Y-68500000D01*
X-44000000Y-68500000D02*
X-44000000Y-69000000D01*
X-46000000Y-63500000D02*
X-46000000Y-63000000D01*
X-46000000Y-63500000D02*
X-45000000Y-63500000D01*
X-45000000Y-68500000D02*
X-46000000Y-68500000D01*
X-46000000Y-69000000D02*
X-46000000Y-68500000D01*
X-70500000Y-71000000D02*
X-70000000Y-71000000D01*
X-70000000Y-72000000D02*
X-70000000Y-71000000D01*
X-65000000Y-71000000D02*
X-65000000Y-72000000D01*
X-65000000Y-71000000D02*
X-64500000Y-71000000D01*
X-64500000Y-73000000D02*
X-65000000Y-73000000D01*
X-65000000Y-72000000D02*
X-65000000Y-73000000D01*
X-70000000Y-73000000D02*
X-70000000Y-72000000D01*
X-70000000Y-73000000D02*
X-70500000Y-73000000D01*
X-82500000Y-71000000D02*
X-82000000Y-71000000D01*
X-82500000Y-71000000D02*
X-82500000Y-72000000D01*
X-87500000Y-72000000D02*
X-87500000Y-71000000D01*
X-88000000Y-71000000D02*
X-87500000Y-71000000D01*
X-87500000Y-73000000D02*
X-88000000Y-73000000D01*
X-87500000Y-73000000D02*
X-87500000Y-72000000D01*
X-82500000Y-72000000D02*
X-82500000Y-73000000D01*
X-82000000Y-73000000D02*
X-82500000Y-73000000D01*
X-44000000Y-102000000D02*
X-44000000Y-102500000D01*
X-45000000Y-102500000D02*
X-44000000Y-102500000D01*
X-44000000Y-107500000D02*
X-45000000Y-107500000D01*
X-44000000Y-107500000D02*
X-44000000Y-108000000D01*
X-46000000Y-108000000D02*
X-46000000Y-107500000D01*
X-45000000Y-107500000D02*
X-46000000Y-107500000D01*
X-46000000Y-102500000D02*
X-45000000Y-102500000D01*
X-46000000Y-102500000D02*
X-46000000Y-102000000D01*
X-53500000Y-112000000D02*
X-54000000Y-112000000D01*
X-53500000Y-112000000D02*
X-53500000Y-111000000D01*
X-48500000Y-111000000D02*
X-48500000Y-112000000D01*
X-48000000Y-112000000D02*
X-48500000Y-112000000D01*
X-48500000Y-110000000D02*
X-48000000Y-110000000D01*
X-48500000Y-110000000D02*
X-48500000Y-111000000D01*
X-53500000Y-111000000D02*
X-53500000Y-110000000D01*
X-54000000Y-110000000D02*
X-53500000Y-110000000D01*
X-114000000Y-112000000D02*
X-114500000Y-112000000D01*
X-114500000Y-111000000D02*
X-114500000Y-112000000D01*
X-119500000Y-112000000D02*
X-119500000Y-111000000D01*
X-119500000Y-112000000D02*
X-120000000Y-112000000D01*
X-120000000Y-110000000D02*
X-119500000Y-110000000D01*
X-119500000Y-111000000D02*
X-119500000Y-110000000D01*
X-114500000Y-110000000D02*
X-114500000Y-111000000D01*
X-114500000Y-110000000D02*
X-114000000Y-110000000D01*
X-44000000Y-80500000D02*
X-44000000Y-81000000D01*
X-44000000Y-80500000D02*
X-45000000Y-80500000D01*
X-45000000Y-75500000D02*
X-44000000Y-75500000D01*
X-44000000Y-75000000D02*
X-44000000Y-75500000D01*
X-46000000Y-75500000D02*
X-46000000Y-75000000D01*
X-46000000Y-81000000D02*
X-46000000Y-80500000D01*
X-45000000Y-80500000D02*
X-46000000Y-80500000D01*
X-46000000Y-75500000D02*
X-45000000Y-75500000D01*
M02*
