G04 #@! TF.GenerationSoftware,KiCad,Pcbnew,7.0.4-40-g0180cb380f*
G04 #@! TF.CreationDate,2023-05-29T16:48:42-07:00*
G04 #@! TF.ProjectId,SevenSegment,53657665-6e53-4656-976d-656e742e6b69,rev?*
G04 #@! TF.SameCoordinates,Original*
G04 #@! TF.FileFunction,Legend,Bot*
G04 #@! TF.FilePolarity,Positive*
%FSLAX46Y46*%
G04 Gerber Fmt 4.6, Leading zero omitted, Abs format (unit mm)*
G04 Created by KiCad (PCBNEW 7.0.4-40-g0180cb380f) date 2023-05-29 16:48:42*
%MOMM*%
%LPD*%
G01*
G04 APERTURE LIST*
%ADD10C,0.150000*%
%ADD11C,0.100000*%
%ADD12C,0.120000*%
G04 APERTURE END LIST*
D10*
X-99395237Y-64602200D02*
X-99509523Y-64649819D01*
X-99509523Y-64649819D02*
X-99699999Y-64649819D01*
X-99699999Y-64649819D02*
X-99776190Y-64602200D01*
X-99776190Y-64602200D02*
X-99814285Y-64554580D01*
X-99814285Y-64554580D02*
X-99852380Y-64459342D01*
X-99852380Y-64459342D02*
X-99852380Y-64364104D01*
X-99852380Y-64364104D02*
X-99814285Y-64268866D01*
X-99814285Y-64268866D02*
X-99776190Y-64221247D01*
X-99776190Y-64221247D02*
X-99699999Y-64173628D01*
X-99699999Y-64173628D02*
X-99547618Y-64126009D01*
X-99547618Y-64126009D02*
X-99471428Y-64078390D01*
X-99471428Y-64078390D02*
X-99433333Y-64030771D01*
X-99433333Y-64030771D02*
X-99395237Y-63935533D01*
X-99395237Y-63935533D02*
X-99395237Y-63840295D01*
X-99395237Y-63840295D02*
X-99433333Y-63745057D01*
X-99433333Y-63745057D02*
X-99471428Y-63697438D01*
X-99471428Y-63697438D02*
X-99547618Y-63649819D01*
X-99547618Y-63649819D02*
X-99738095Y-63649819D01*
X-99738095Y-63649819D02*
X-99852380Y-63697438D01*
X-100119047Y-63649819D02*
X-100309523Y-64649819D01*
X-100309523Y-64649819D02*
X-100461904Y-63935533D01*
X-100461904Y-63935533D02*
X-100614285Y-64649819D01*
X-100614285Y-64649819D02*
X-100804762Y-63649819D01*
X-101109524Y-64649819D02*
X-101109524Y-63649819D01*
X-101109524Y-63649819D02*
X-101300000Y-63649819D01*
X-101300000Y-63649819D02*
X-101414286Y-63697438D01*
X-101414286Y-63697438D02*
X-101490476Y-63792676D01*
X-101490476Y-63792676D02*
X-101528571Y-63887914D01*
X-101528571Y-63887914D02*
X-101566667Y-64078390D01*
X-101566667Y-64078390D02*
X-101566667Y-64221247D01*
X-101566667Y-64221247D02*
X-101528571Y-64411723D01*
X-101528571Y-64411723D02*
X-101490476Y-64506961D01*
X-101490476Y-64506961D02*
X-101414286Y-64602200D01*
X-101414286Y-64602200D02*
X-101300000Y-64649819D01*
X-101300000Y-64649819D02*
X-101109524Y-64649819D01*
X-102519048Y-64649819D02*
X-102519048Y-63649819D01*
X-102519048Y-63649819D02*
X-102823810Y-63649819D01*
X-102823810Y-63649819D02*
X-102900000Y-63697438D01*
X-102900000Y-63697438D02*
X-102938095Y-63745057D01*
X-102938095Y-63745057D02*
X-102976191Y-63840295D01*
X-102976191Y-63840295D02*
X-102976191Y-63983152D01*
X-102976191Y-63983152D02*
X-102938095Y-64078390D01*
X-102938095Y-64078390D02*
X-102900000Y-64126009D01*
X-102900000Y-64126009D02*
X-102823810Y-64173628D01*
X-102823810Y-64173628D02*
X-102519048Y-64173628D01*
X-103319048Y-64649819D02*
X-103319048Y-63983152D01*
X-103319048Y-64173628D02*
X-103357143Y-64078390D01*
X-103357143Y-64078390D02*
X-103395238Y-64030771D01*
X-103395238Y-64030771D02*
X-103471429Y-63983152D01*
X-103471429Y-63983152D02*
X-103547619Y-63983152D01*
X-103928571Y-64649819D02*
X-103852381Y-64602200D01*
X-103852381Y-64602200D02*
X-103814286Y-64554580D01*
X-103814286Y-64554580D02*
X-103776190Y-64459342D01*
X-103776190Y-64459342D02*
X-103776190Y-64173628D01*
X-103776190Y-64173628D02*
X-103814286Y-64078390D01*
X-103814286Y-64078390D02*
X-103852381Y-64030771D01*
X-103852381Y-64030771D02*
X-103928571Y-63983152D01*
X-103928571Y-63983152D02*
X-104042857Y-63983152D01*
X-104042857Y-63983152D02*
X-104119048Y-64030771D01*
X-104119048Y-64030771D02*
X-104157143Y-64078390D01*
X-104157143Y-64078390D02*
X-104195238Y-64173628D01*
X-104195238Y-64173628D02*
X-104195238Y-64459342D01*
X-104195238Y-64459342D02*
X-104157143Y-64554580D01*
X-104157143Y-64554580D02*
X-104119048Y-64602200D01*
X-104119048Y-64602200D02*
X-104042857Y-64649819D01*
X-104042857Y-64649819D02*
X-103928571Y-64649819D01*
X-104538096Y-64649819D02*
X-104538096Y-63649819D01*
X-104538096Y-64030771D02*
X-104614286Y-63983152D01*
X-104614286Y-63983152D02*
X-104766667Y-63983152D01*
X-104766667Y-63983152D02*
X-104842858Y-64030771D01*
X-104842858Y-64030771D02*
X-104880953Y-64078390D01*
X-104880953Y-64078390D02*
X-104919048Y-64173628D01*
X-104919048Y-64173628D02*
X-104919048Y-64459342D01*
X-104919048Y-64459342D02*
X-104880953Y-64554580D01*
X-104880953Y-64554580D02*
X-104842858Y-64602200D01*
X-104842858Y-64602200D02*
X-104766667Y-64649819D01*
X-104766667Y-64649819D02*
X-104614286Y-64649819D01*
X-104614286Y-64649819D02*
X-104538096Y-64602200D01*
X-105566668Y-64602200D02*
X-105490477Y-64649819D01*
X-105490477Y-64649819D02*
X-105338096Y-64649819D01*
X-105338096Y-64649819D02*
X-105261906Y-64602200D01*
X-105261906Y-64602200D02*
X-105223810Y-64506961D01*
X-105223810Y-64506961D02*
X-105223810Y-64126009D01*
X-105223810Y-64126009D02*
X-105261906Y-64030771D01*
X-105261906Y-64030771D02*
X-105338096Y-63983152D01*
X-105338096Y-63983152D02*
X-105490477Y-63983152D01*
X-105490477Y-63983152D02*
X-105566668Y-64030771D01*
X-105566668Y-64030771D02*
X-105604763Y-64126009D01*
X-105604763Y-64126009D02*
X-105604763Y-64221247D01*
X-105604763Y-64221247D02*
X-105223810Y-64316485D01*
X-100309523Y-66259819D02*
X-100309523Y-65259819D01*
X-100309523Y-65259819D02*
X-100576189Y-65974104D01*
X-100576189Y-65974104D02*
X-100842856Y-65259819D01*
X-100842856Y-65259819D02*
X-100842856Y-66259819D01*
X-101566666Y-66259819D02*
X-101566666Y-65736009D01*
X-101566666Y-65736009D02*
X-101528571Y-65640771D01*
X-101528571Y-65640771D02*
X-101452380Y-65593152D01*
X-101452380Y-65593152D02*
X-101299999Y-65593152D01*
X-101299999Y-65593152D02*
X-101223809Y-65640771D01*
X-101566666Y-66212200D02*
X-101490475Y-66259819D01*
X-101490475Y-66259819D02*
X-101299999Y-66259819D01*
X-101299999Y-66259819D02*
X-101223809Y-66212200D01*
X-101223809Y-66212200D02*
X-101185713Y-66116961D01*
X-101185713Y-66116961D02*
X-101185713Y-66021723D01*
X-101185713Y-66021723D02*
X-101223809Y-65926485D01*
X-101223809Y-65926485D02*
X-101299999Y-65878866D01*
X-101299999Y-65878866D02*
X-101490475Y-65878866D01*
X-101490475Y-65878866D02*
X-101566666Y-65831247D01*
X-101871428Y-65593152D02*
X-102061904Y-66259819D01*
X-102252381Y-65593152D02*
X-102061904Y-66259819D01*
X-102061904Y-66259819D02*
X-101985714Y-66497914D01*
X-101985714Y-66497914D02*
X-101947619Y-66545533D01*
X-101947619Y-66545533D02*
X-101871428Y-66593152D01*
X-103204762Y-65259819D02*
X-103128571Y-65450295D01*
X-103509523Y-65355057D02*
X-103547619Y-65307438D01*
X-103547619Y-65307438D02*
X-103623809Y-65259819D01*
X-103623809Y-65259819D02*
X-103814285Y-65259819D01*
X-103814285Y-65259819D02*
X-103890476Y-65307438D01*
X-103890476Y-65307438D02*
X-103928571Y-65355057D01*
X-103928571Y-65355057D02*
X-103966666Y-65450295D01*
X-103966666Y-65450295D02*
X-103966666Y-65545533D01*
X-103966666Y-65545533D02*
X-103928571Y-65688390D01*
X-103928571Y-65688390D02*
X-103471428Y-66259819D01*
X-103471428Y-66259819D02*
X-103966666Y-66259819D01*
X-104233333Y-65259819D02*
X-104728571Y-65259819D01*
X-104728571Y-65259819D02*
X-104461905Y-65640771D01*
X-104461905Y-65640771D02*
X-104576190Y-65640771D01*
X-104576190Y-65640771D02*
X-104652381Y-65688390D01*
X-104652381Y-65688390D02*
X-104690476Y-65736009D01*
X-104690476Y-65736009D02*
X-104728571Y-65831247D01*
X-104728571Y-65831247D02*
X-104728571Y-66069342D01*
X-104728571Y-66069342D02*
X-104690476Y-66164580D01*
X-104690476Y-66164580D02*
X-104652381Y-66212200D01*
X-104652381Y-66212200D02*
X-104576190Y-66259819D01*
X-104576190Y-66259819D02*
X-104347619Y-66259819D01*
X-104347619Y-66259819D02*
X-104271428Y-66212200D01*
X-104271428Y-66212200D02*
X-104233333Y-66164580D01*
X-64676190Y-67250419D02*
X-64714286Y-67202800D01*
X-64714286Y-67202800D02*
X-64828571Y-67155180D01*
X-64828571Y-67155180D02*
X-64904762Y-67155180D01*
X-64904762Y-67155180D02*
X-65019048Y-67202800D01*
X-65019048Y-67202800D02*
X-65095238Y-67298038D01*
X-65095238Y-67298038D02*
X-65133333Y-67393276D01*
X-65133333Y-67393276D02*
X-65171429Y-67583752D01*
X-65171429Y-67583752D02*
X-65171429Y-67726609D01*
X-65171429Y-67726609D02*
X-65133333Y-67917085D01*
X-65133333Y-67917085D02*
X-65095238Y-68012323D01*
X-65095238Y-68012323D02*
X-65019048Y-68107561D01*
X-65019048Y-68107561D02*
X-64904762Y-68155180D01*
X-64904762Y-68155180D02*
X-64828571Y-68155180D01*
X-64828571Y-68155180D02*
X-64714286Y-68107561D01*
X-64714286Y-68107561D02*
X-64676190Y-68059942D01*
X-64333333Y-67155180D02*
X-64333333Y-68155180D01*
X-64333333Y-68155180D02*
X-64028571Y-68155180D01*
X-64028571Y-68155180D02*
X-63952381Y-68107561D01*
X-63952381Y-68107561D02*
X-63914286Y-68059942D01*
X-63914286Y-68059942D02*
X-63876190Y-67964704D01*
X-63876190Y-67964704D02*
X-63876190Y-67821847D01*
X-63876190Y-67821847D02*
X-63914286Y-67726609D01*
X-63914286Y-67726609D02*
X-63952381Y-67678990D01*
X-63952381Y-67678990D02*
X-64028571Y-67631371D01*
X-64028571Y-67631371D02*
X-64333333Y-67631371D01*
X-63571429Y-68059942D02*
X-63533333Y-68107561D01*
X-63533333Y-68107561D02*
X-63457143Y-68155180D01*
X-63457143Y-68155180D02*
X-63266667Y-68155180D01*
X-63266667Y-68155180D02*
X-63190476Y-68107561D01*
X-63190476Y-68107561D02*
X-63152381Y-68059942D01*
X-63152381Y-68059942D02*
X-63114286Y-67964704D01*
X-63114286Y-67964704D02*
X-63114286Y-67869466D01*
X-63114286Y-67869466D02*
X-63152381Y-67726609D01*
X-63152381Y-67726609D02*
X-63609524Y-67155180D01*
X-63609524Y-67155180D02*
X-63114286Y-67155180D01*
X-62352381Y-67155180D02*
X-62809524Y-67155180D01*
X-62580952Y-67155180D02*
X-62580952Y-68155180D01*
X-62580952Y-68155180D02*
X-62657143Y-68012323D01*
X-62657143Y-68012323D02*
X-62733333Y-67917085D01*
X-62733333Y-67917085D02*
X-62809524Y-67869466D01*
X-61857142Y-68155180D02*
X-61780952Y-68155180D01*
X-61780952Y-68155180D02*
X-61704761Y-68107561D01*
X-61704761Y-68107561D02*
X-61666666Y-68059942D01*
X-61666666Y-68059942D02*
X-61628571Y-67964704D01*
X-61628571Y-67964704D02*
X-61590476Y-67774228D01*
X-61590476Y-67774228D02*
X-61590476Y-67536133D01*
X-61590476Y-67536133D02*
X-61628571Y-67345657D01*
X-61628571Y-67345657D02*
X-61666666Y-67250419D01*
X-61666666Y-67250419D02*
X-61704761Y-67202800D01*
X-61704761Y-67202800D02*
X-61780952Y-67155180D01*
X-61780952Y-67155180D02*
X-61857142Y-67155180D01*
X-61857142Y-67155180D02*
X-61933333Y-67202800D01*
X-61933333Y-67202800D02*
X-61971428Y-67250419D01*
X-61971428Y-67250419D02*
X-62009523Y-67345657D01*
X-62009523Y-67345657D02*
X-62047619Y-67536133D01*
X-62047619Y-67536133D02*
X-62047619Y-67774228D01*
X-62047619Y-67774228D02*
X-62009523Y-67964704D01*
X-62009523Y-67964704D02*
X-61971428Y-68059942D01*
X-61971428Y-68059942D02*
X-61933333Y-68107561D01*
X-61933333Y-68107561D02*
X-61857142Y-68155180D01*
X-61285714Y-68059942D02*
X-61247618Y-68107561D01*
X-61247618Y-68107561D02*
X-61171428Y-68155180D01*
X-61171428Y-68155180D02*
X-60980952Y-68155180D01*
X-60980952Y-68155180D02*
X-60904761Y-68107561D01*
X-60904761Y-68107561D02*
X-60866666Y-68059942D01*
X-60866666Y-68059942D02*
X-60828571Y-67964704D01*
X-60828571Y-67964704D02*
X-60828571Y-67869466D01*
X-60828571Y-67869466D02*
X-60866666Y-67726609D01*
X-60866666Y-67726609D02*
X-61323809Y-67155180D01*
X-61323809Y-67155180D02*
X-60828571Y-67155180D01*
X-66314286Y-66068990D02*
X-66047620Y-66068990D01*
X-65933334Y-65545180D02*
X-66314286Y-65545180D01*
X-66314286Y-65545180D02*
X-66314286Y-66545180D01*
X-66314286Y-66545180D02*
X-65933334Y-66545180D01*
X-65628572Y-65592800D02*
X-65514286Y-65545180D01*
X-65514286Y-65545180D02*
X-65323810Y-65545180D01*
X-65323810Y-65545180D02*
X-65247619Y-65592800D01*
X-65247619Y-65592800D02*
X-65209524Y-65640419D01*
X-65209524Y-65640419D02*
X-65171429Y-65735657D01*
X-65171429Y-65735657D02*
X-65171429Y-65830895D01*
X-65171429Y-65830895D02*
X-65209524Y-65926133D01*
X-65209524Y-65926133D02*
X-65247619Y-65973752D01*
X-65247619Y-65973752D02*
X-65323810Y-66021371D01*
X-65323810Y-66021371D02*
X-65476191Y-66068990D01*
X-65476191Y-66068990D02*
X-65552381Y-66116609D01*
X-65552381Y-66116609D02*
X-65590476Y-66164228D01*
X-65590476Y-66164228D02*
X-65628572Y-66259466D01*
X-65628572Y-66259466D02*
X-65628572Y-66354704D01*
X-65628572Y-66354704D02*
X-65590476Y-66449942D01*
X-65590476Y-66449942D02*
X-65552381Y-66497561D01*
X-65552381Y-66497561D02*
X-65476191Y-66545180D01*
X-65476191Y-66545180D02*
X-65285714Y-66545180D01*
X-65285714Y-66545180D02*
X-65171429Y-66497561D01*
X-64828571Y-65545180D02*
X-64828571Y-66545180D01*
X-64828571Y-66545180D02*
X-64523809Y-66545180D01*
X-64523809Y-66545180D02*
X-64447619Y-66497561D01*
X-64447619Y-66497561D02*
X-64409524Y-66449942D01*
X-64409524Y-66449942D02*
X-64371428Y-66354704D01*
X-64371428Y-66354704D02*
X-64371428Y-66211847D01*
X-64371428Y-66211847D02*
X-64409524Y-66116609D01*
X-64409524Y-66116609D02*
X-64447619Y-66068990D01*
X-64447619Y-66068990D02*
X-64523809Y-66021371D01*
X-64523809Y-66021371D02*
X-64828571Y-66021371D01*
X-64104762Y-66545180D02*
X-63609524Y-66545180D01*
X-63609524Y-66545180D02*
X-63876190Y-66164228D01*
X-63876190Y-66164228D02*
X-63761905Y-66164228D01*
X-63761905Y-66164228D02*
X-63685714Y-66116609D01*
X-63685714Y-66116609D02*
X-63647619Y-66068990D01*
X-63647619Y-66068990D02*
X-63609524Y-65973752D01*
X-63609524Y-65973752D02*
X-63609524Y-65735657D01*
X-63609524Y-65735657D02*
X-63647619Y-65640419D01*
X-63647619Y-65640419D02*
X-63685714Y-65592800D01*
X-63685714Y-65592800D02*
X-63761905Y-65545180D01*
X-63761905Y-65545180D02*
X-63990476Y-65545180D01*
X-63990476Y-65545180D02*
X-64066667Y-65592800D01*
X-64066667Y-65592800D02*
X-64104762Y-65640419D01*
X-63304762Y-66449942D02*
X-63266666Y-66497561D01*
X-63266666Y-66497561D02*
X-63190476Y-66545180D01*
X-63190476Y-66545180D02*
X-63000000Y-66545180D01*
X-63000000Y-66545180D02*
X-62923809Y-66497561D01*
X-62923809Y-66497561D02*
X-62885714Y-66449942D01*
X-62885714Y-66449942D02*
X-62847619Y-66354704D01*
X-62847619Y-66354704D02*
X-62847619Y-66259466D01*
X-62847619Y-66259466D02*
X-62885714Y-66116609D01*
X-62885714Y-66116609D02*
X-63342857Y-65545180D01*
X-63342857Y-65545180D02*
X-62847619Y-65545180D01*
X-61895237Y-65545180D02*
X-61895237Y-66545180D01*
X-61895237Y-66545180D02*
X-61590475Y-66545180D01*
X-61590475Y-66545180D02*
X-61514285Y-66497561D01*
X-61514285Y-66497561D02*
X-61476190Y-66449942D01*
X-61476190Y-66449942D02*
X-61438094Y-66354704D01*
X-61438094Y-66354704D02*
X-61438094Y-66211847D01*
X-61438094Y-66211847D02*
X-61476190Y-66116609D01*
X-61476190Y-66116609D02*
X-61514285Y-66068990D01*
X-61514285Y-66068990D02*
X-61590475Y-66021371D01*
X-61590475Y-66021371D02*
X-61895237Y-66021371D01*
X-60752380Y-66211847D02*
X-60752380Y-65402323D01*
X-60752380Y-65402323D02*
X-60790475Y-65307085D01*
X-60790475Y-65307085D02*
X-60828571Y-65259466D01*
X-60828571Y-65259466D02*
X-60904761Y-65211847D01*
X-60904761Y-65211847D02*
X-61019047Y-65211847D01*
X-61019047Y-65211847D02*
X-61095237Y-65259466D01*
X-60752380Y-65592800D02*
X-60828571Y-65545180D01*
X-60828571Y-65545180D02*
X-60980952Y-65545180D01*
X-60980952Y-65545180D02*
X-61057142Y-65592800D01*
X-61057142Y-65592800D02*
X-61095237Y-65640419D01*
X-61095237Y-65640419D02*
X-61133333Y-65735657D01*
X-61133333Y-65735657D02*
X-61133333Y-66021371D01*
X-61133333Y-66021371D02*
X-61095237Y-66116609D01*
X-61095237Y-66116609D02*
X-61057142Y-66164228D01*
X-61057142Y-66164228D02*
X-60980952Y-66211847D01*
X-60980952Y-66211847D02*
X-60828571Y-66211847D01*
X-60828571Y-66211847D02*
X-60752380Y-66164228D01*
X-60371427Y-65545180D02*
X-60371427Y-66211847D01*
X-60371427Y-66116609D02*
X-60333332Y-66164228D01*
X-60333332Y-66164228D02*
X-60257142Y-66211847D01*
X-60257142Y-66211847D02*
X-60142856Y-66211847D01*
X-60142856Y-66211847D02*
X-60066665Y-66164228D01*
X-60066665Y-66164228D02*
X-60028570Y-66068990D01*
X-60028570Y-66068990D02*
X-60028570Y-65545180D01*
X-60028570Y-66068990D02*
X-59990475Y-66164228D01*
X-59990475Y-66164228D02*
X-59914284Y-66211847D01*
X-59914284Y-66211847D02*
X-59799999Y-66211847D01*
X-59799999Y-66211847D02*
X-59723808Y-66164228D01*
X-59723808Y-66164228D02*
X-59685713Y-66068990D01*
X-59685713Y-66068990D02*
X-59685713Y-65545180D01*
X-65190476Y-63935180D02*
X-65190476Y-64935180D01*
X-65190476Y-64935180D02*
X-64923810Y-64220895D01*
X-64923810Y-64220895D02*
X-64657143Y-64935180D01*
X-64657143Y-64935180D02*
X-64657143Y-63935180D01*
X-63933333Y-63935180D02*
X-63933333Y-64458990D01*
X-63933333Y-64458990D02*
X-63971428Y-64554228D01*
X-63971428Y-64554228D02*
X-64047619Y-64601847D01*
X-64047619Y-64601847D02*
X-64200000Y-64601847D01*
X-64200000Y-64601847D02*
X-64276190Y-64554228D01*
X-63933333Y-63982800D02*
X-64009524Y-63935180D01*
X-64009524Y-63935180D02*
X-64200000Y-63935180D01*
X-64200000Y-63935180D02*
X-64276190Y-63982800D01*
X-64276190Y-63982800D02*
X-64314286Y-64078038D01*
X-64314286Y-64078038D02*
X-64314286Y-64173276D01*
X-64314286Y-64173276D02*
X-64276190Y-64268514D01*
X-64276190Y-64268514D02*
X-64200000Y-64316133D01*
X-64200000Y-64316133D02*
X-64009524Y-64316133D01*
X-64009524Y-64316133D02*
X-63933333Y-64363752D01*
X-63628571Y-64601847D02*
X-63438095Y-63935180D01*
X-63247618Y-64601847D02*
X-63438095Y-63935180D01*
X-63438095Y-63935180D02*
X-63514285Y-63697085D01*
X-63514285Y-63697085D02*
X-63552380Y-63649466D01*
X-63552380Y-63649466D02*
X-63628571Y-63601847D01*
X-62295237Y-64935180D02*
X-62371428Y-64744704D01*
X-61990476Y-64839942D02*
X-61952380Y-64887561D01*
X-61952380Y-64887561D02*
X-61876190Y-64935180D01*
X-61876190Y-64935180D02*
X-61685714Y-64935180D01*
X-61685714Y-64935180D02*
X-61609523Y-64887561D01*
X-61609523Y-64887561D02*
X-61571428Y-64839942D01*
X-61571428Y-64839942D02*
X-61533333Y-64744704D01*
X-61533333Y-64744704D02*
X-61533333Y-64649466D01*
X-61533333Y-64649466D02*
X-61571428Y-64506609D01*
X-61571428Y-64506609D02*
X-62028571Y-63935180D01*
X-62028571Y-63935180D02*
X-61533333Y-63935180D01*
X-61266666Y-64935180D02*
X-60771428Y-64935180D01*
X-60771428Y-64935180D02*
X-61038094Y-64554228D01*
X-61038094Y-64554228D02*
X-60923809Y-64554228D01*
X-60923809Y-64554228D02*
X-60847618Y-64506609D01*
X-60847618Y-64506609D02*
X-60809523Y-64458990D01*
X-60809523Y-64458990D02*
X-60771428Y-64363752D01*
X-60771428Y-64363752D02*
X-60771428Y-64125657D01*
X-60771428Y-64125657D02*
X-60809523Y-64030419D01*
X-60809523Y-64030419D02*
X-60847618Y-63982800D01*
X-60847618Y-63982800D02*
X-60923809Y-63935180D01*
X-60923809Y-63935180D02*
X-61152380Y-63935180D01*
X-61152380Y-63935180D02*
X-61228571Y-63982800D01*
X-61228571Y-63982800D02*
X-61266666Y-64030419D01*
X-3445419Y-80142856D02*
X-3397800Y-80104760D01*
X-3397800Y-80104760D02*
X-3350180Y-79990475D01*
X-3350180Y-79990475D02*
X-3350180Y-79914284D01*
X-3350180Y-79914284D02*
X-3397800Y-79799998D01*
X-3397800Y-79799998D02*
X-3493038Y-79723808D01*
X-3493038Y-79723808D02*
X-3588276Y-79685713D01*
X-3588276Y-79685713D02*
X-3778752Y-79647617D01*
X-3778752Y-79647617D02*
X-3921609Y-79647617D01*
X-3921609Y-79647617D02*
X-4112085Y-79685713D01*
X-4112085Y-79685713D02*
X-4207323Y-79723808D01*
X-4207323Y-79723808D02*
X-4302561Y-79799998D01*
X-4302561Y-79799998D02*
X-4350180Y-79914284D01*
X-4350180Y-79914284D02*
X-4350180Y-79990475D01*
X-4350180Y-79990475D02*
X-4302561Y-80104760D01*
X-4302561Y-80104760D02*
X-4254942Y-80142856D01*
X-3350180Y-80485713D02*
X-4016847Y-80485713D01*
X-3826371Y-80485713D02*
X-3921609Y-80523808D01*
X-3921609Y-80523808D02*
X-3969228Y-80561903D01*
X-3969228Y-80561903D02*
X-4016847Y-80638094D01*
X-4016847Y-80638094D02*
X-4016847Y-80714284D01*
X-3350180Y-81323808D02*
X-3873990Y-81323808D01*
X-3873990Y-81323808D02*
X-3969228Y-81285713D01*
X-3969228Y-81285713D02*
X-4016847Y-81209522D01*
X-4016847Y-81209522D02*
X-4016847Y-81057141D01*
X-4016847Y-81057141D02*
X-3969228Y-80980951D01*
X-3397800Y-81323808D02*
X-3350180Y-81247617D01*
X-3350180Y-81247617D02*
X-3350180Y-81057141D01*
X-3350180Y-81057141D02*
X-3397800Y-80980951D01*
X-3397800Y-80980951D02*
X-3493038Y-80942855D01*
X-3493038Y-80942855D02*
X-3588276Y-80942855D01*
X-3588276Y-80942855D02*
X-3683514Y-80980951D01*
X-3683514Y-80980951D02*
X-3731133Y-81057141D01*
X-3731133Y-81057141D02*
X-3731133Y-81247617D01*
X-3731133Y-81247617D02*
X-3778752Y-81323808D01*
X-4016847Y-81628570D02*
X-3350180Y-81780951D01*
X-3350180Y-81780951D02*
X-3826371Y-81933332D01*
X-3826371Y-81933332D02*
X-3350180Y-82085713D01*
X-3350180Y-82085713D02*
X-4016847Y-82238094D01*
X-3350180Y-82657141D02*
X-3397800Y-82580951D01*
X-3397800Y-82580951D02*
X-3493038Y-82542856D01*
X-3493038Y-82542856D02*
X-4350180Y-82542856D01*
X-3397800Y-83266666D02*
X-3350180Y-83190475D01*
X-3350180Y-83190475D02*
X-3350180Y-83038094D01*
X-3350180Y-83038094D02*
X-3397800Y-82961904D01*
X-3397800Y-82961904D02*
X-3493038Y-82923808D01*
X-3493038Y-82923808D02*
X-3873990Y-82923808D01*
X-3873990Y-82923808D02*
X-3969228Y-82961904D01*
X-3969228Y-82961904D02*
X-4016847Y-83038094D01*
X-4016847Y-83038094D02*
X-4016847Y-83190475D01*
X-4016847Y-83190475D02*
X-3969228Y-83266666D01*
X-3969228Y-83266666D02*
X-3873990Y-83304761D01*
X-3873990Y-83304761D02*
X-3778752Y-83304761D01*
X-3778752Y-83304761D02*
X-3683514Y-82923808D01*
X-3350180Y-83647618D02*
X-4016847Y-83647618D01*
X-3826371Y-83647618D02*
X-3921609Y-83685713D01*
X-3921609Y-83685713D02*
X-3969228Y-83723808D01*
X-3969228Y-83723808D02*
X-4016847Y-83799999D01*
X-4016847Y-83799999D02*
X-4016847Y-83876189D01*
X-3445419Y-85209523D02*
X-3397800Y-85171427D01*
X-3397800Y-85171427D02*
X-3350180Y-85057142D01*
X-3350180Y-85057142D02*
X-3350180Y-84980951D01*
X-3350180Y-84980951D02*
X-3397800Y-84866665D01*
X-3397800Y-84866665D02*
X-3493038Y-84790475D01*
X-3493038Y-84790475D02*
X-3588276Y-84752380D01*
X-3588276Y-84752380D02*
X-3778752Y-84714284D01*
X-3778752Y-84714284D02*
X-3921609Y-84714284D01*
X-3921609Y-84714284D02*
X-4112085Y-84752380D01*
X-4112085Y-84752380D02*
X-4207323Y-84790475D01*
X-4207323Y-84790475D02*
X-4302561Y-84866665D01*
X-4302561Y-84866665D02*
X-4350180Y-84980951D01*
X-4350180Y-84980951D02*
X-4350180Y-85057142D01*
X-4350180Y-85057142D02*
X-4302561Y-85171427D01*
X-4302561Y-85171427D02*
X-4254942Y-85209523D01*
X-3350180Y-85666665D02*
X-3397800Y-85590475D01*
X-3397800Y-85590475D02*
X-3445419Y-85552380D01*
X-3445419Y-85552380D02*
X-3540657Y-85514284D01*
X-3540657Y-85514284D02*
X-3826371Y-85514284D01*
X-3826371Y-85514284D02*
X-3921609Y-85552380D01*
X-3921609Y-85552380D02*
X-3969228Y-85590475D01*
X-3969228Y-85590475D02*
X-4016847Y-85666665D01*
X-4016847Y-85666665D02*
X-4016847Y-85780951D01*
X-4016847Y-85780951D02*
X-3969228Y-85857142D01*
X-3969228Y-85857142D02*
X-3921609Y-85895237D01*
X-3921609Y-85895237D02*
X-3826371Y-85933332D01*
X-3826371Y-85933332D02*
X-3540657Y-85933332D01*
X-3540657Y-85933332D02*
X-3445419Y-85895237D01*
X-3445419Y-85895237D02*
X-3397800Y-85857142D01*
X-3397800Y-85857142D02*
X-3350180Y-85780951D01*
X-3350180Y-85780951D02*
X-3350180Y-85666665D01*
X-4016847Y-86276190D02*
X-3350180Y-86276190D01*
X-3921609Y-86276190D02*
X-3969228Y-86314285D01*
X-3969228Y-86314285D02*
X-4016847Y-86390475D01*
X-4016847Y-86390475D02*
X-4016847Y-86504761D01*
X-4016847Y-86504761D02*
X-3969228Y-86580952D01*
X-3969228Y-86580952D02*
X-3873990Y-86619047D01*
X-3873990Y-86619047D02*
X-3350180Y-86619047D01*
X-4016847Y-86885714D02*
X-4016847Y-87190476D01*
X-4350180Y-87000000D02*
X-3493038Y-87000000D01*
X-3493038Y-87000000D02*
X-3397800Y-87038095D01*
X-3397800Y-87038095D02*
X-3350180Y-87114285D01*
X-3350180Y-87114285D02*
X-3350180Y-87190476D01*
X-3350180Y-87457143D02*
X-4016847Y-87457143D01*
X-3826371Y-87457143D02*
X-3921609Y-87495238D01*
X-3921609Y-87495238D02*
X-3969228Y-87533333D01*
X-3969228Y-87533333D02*
X-4016847Y-87609524D01*
X-4016847Y-87609524D02*
X-4016847Y-87685714D01*
X-3350180Y-88066666D02*
X-3397800Y-87990476D01*
X-3397800Y-87990476D02*
X-3445419Y-87952381D01*
X-3445419Y-87952381D02*
X-3540657Y-87914285D01*
X-3540657Y-87914285D02*
X-3826371Y-87914285D01*
X-3826371Y-87914285D02*
X-3921609Y-87952381D01*
X-3921609Y-87952381D02*
X-3969228Y-87990476D01*
X-3969228Y-87990476D02*
X-4016847Y-88066666D01*
X-4016847Y-88066666D02*
X-4016847Y-88180952D01*
X-4016847Y-88180952D02*
X-3969228Y-88257143D01*
X-3969228Y-88257143D02*
X-3921609Y-88295238D01*
X-3921609Y-88295238D02*
X-3826371Y-88333333D01*
X-3826371Y-88333333D02*
X-3540657Y-88333333D01*
X-3540657Y-88333333D02*
X-3445419Y-88295238D01*
X-3445419Y-88295238D02*
X-3397800Y-88257143D01*
X-3397800Y-88257143D02*
X-3350180Y-88180952D01*
X-3350180Y-88180952D02*
X-3350180Y-88066666D01*
X-3350180Y-88790476D02*
X-3397800Y-88714286D01*
X-3397800Y-88714286D02*
X-3493038Y-88676191D01*
X-3493038Y-88676191D02*
X-4350180Y-88676191D01*
X-3350180Y-89209524D02*
X-3397800Y-89133334D01*
X-3397800Y-89133334D02*
X-3493038Y-89095239D01*
X-3493038Y-89095239D02*
X-4350180Y-89095239D01*
X-3397800Y-89819049D02*
X-3350180Y-89742858D01*
X-3350180Y-89742858D02*
X-3350180Y-89590477D01*
X-3350180Y-89590477D02*
X-3397800Y-89514287D01*
X-3397800Y-89514287D02*
X-3493038Y-89476191D01*
X-3493038Y-89476191D02*
X-3873990Y-89476191D01*
X-3873990Y-89476191D02*
X-3969228Y-89514287D01*
X-3969228Y-89514287D02*
X-4016847Y-89590477D01*
X-4016847Y-89590477D02*
X-4016847Y-89742858D01*
X-4016847Y-89742858D02*
X-3969228Y-89819049D01*
X-3969228Y-89819049D02*
X-3873990Y-89857144D01*
X-3873990Y-89857144D02*
X-3778752Y-89857144D01*
X-3778752Y-89857144D02*
X-3683514Y-89476191D01*
X-3350180Y-90200001D02*
X-4016847Y-90200001D01*
X-3826371Y-90200001D02*
X-3921609Y-90238096D01*
X-3921609Y-90238096D02*
X-3969228Y-90276191D01*
X-3969228Y-90276191D02*
X-4016847Y-90352382D01*
X-4016847Y-90352382D02*
X-4016847Y-90428572D01*
X-1740180Y-82809523D02*
X-2740180Y-82809523D01*
X-2740180Y-82809523D02*
X-2025895Y-83076189D01*
X-2025895Y-83076189D02*
X-2740180Y-83342856D01*
X-2740180Y-83342856D02*
X-1740180Y-83342856D01*
X-1740180Y-84066666D02*
X-2263990Y-84066666D01*
X-2263990Y-84066666D02*
X-2359228Y-84028571D01*
X-2359228Y-84028571D02*
X-2406847Y-83952380D01*
X-2406847Y-83952380D02*
X-2406847Y-83799999D01*
X-2406847Y-83799999D02*
X-2359228Y-83723809D01*
X-1787800Y-84066666D02*
X-1740180Y-83990475D01*
X-1740180Y-83990475D02*
X-1740180Y-83799999D01*
X-1740180Y-83799999D02*
X-1787800Y-83723809D01*
X-1787800Y-83723809D02*
X-1883038Y-83685713D01*
X-1883038Y-83685713D02*
X-1978276Y-83685713D01*
X-1978276Y-83685713D02*
X-2073514Y-83723809D01*
X-2073514Y-83723809D02*
X-2121133Y-83799999D01*
X-2121133Y-83799999D02*
X-2121133Y-83990475D01*
X-2121133Y-83990475D02*
X-2168752Y-84066666D01*
X-2406847Y-84371428D02*
X-1740180Y-84561904D01*
X-2406847Y-84752381D02*
X-1740180Y-84561904D01*
X-1740180Y-84561904D02*
X-1502085Y-84485714D01*
X-1502085Y-84485714D02*
X-1454466Y-84447619D01*
X-1454466Y-84447619D02*
X-1406847Y-84371428D01*
X-2740180Y-85704762D02*
X-2549704Y-85628571D01*
X-2644942Y-86009523D02*
X-2692561Y-86047619D01*
X-2692561Y-86047619D02*
X-2740180Y-86123809D01*
X-2740180Y-86123809D02*
X-2740180Y-86314285D01*
X-2740180Y-86314285D02*
X-2692561Y-86390476D01*
X-2692561Y-86390476D02*
X-2644942Y-86428571D01*
X-2644942Y-86428571D02*
X-2549704Y-86466666D01*
X-2549704Y-86466666D02*
X-2454466Y-86466666D01*
X-2454466Y-86466666D02*
X-2311609Y-86428571D01*
X-2311609Y-86428571D02*
X-1740180Y-85971428D01*
X-1740180Y-85971428D02*
X-1740180Y-86466666D01*
X-2740180Y-86733333D02*
X-2740180Y-87228571D01*
X-2740180Y-87228571D02*
X-2359228Y-86961905D01*
X-2359228Y-86961905D02*
X-2359228Y-87076190D01*
X-2359228Y-87076190D02*
X-2311609Y-87152381D01*
X-2311609Y-87152381D02*
X-2263990Y-87190476D01*
X-2263990Y-87190476D02*
X-2168752Y-87228571D01*
X-2168752Y-87228571D02*
X-1930657Y-87228571D01*
X-1930657Y-87228571D02*
X-1835419Y-87190476D01*
X-1835419Y-87190476D02*
X-1787800Y-87152381D01*
X-1787800Y-87152381D02*
X-1740180Y-87076190D01*
X-1740180Y-87076190D02*
X-1740180Y-86847619D01*
X-1740180Y-86847619D02*
X-1787800Y-86771428D01*
X-1787800Y-86771428D02*
X-1835419Y-86733333D01*
D11*
X-7751428Y-131588704D02*
X-7722856Y-131626800D01*
X-7722856Y-131626800D02*
X-7637142Y-131664895D01*
X-7637142Y-131664895D02*
X-7579999Y-131664895D01*
X-7579999Y-131664895D02*
X-7494285Y-131626800D01*
X-7494285Y-131626800D02*
X-7437142Y-131550609D01*
X-7437142Y-131550609D02*
X-7408571Y-131474419D01*
X-7408571Y-131474419D02*
X-7379999Y-131322038D01*
X-7379999Y-131322038D02*
X-7379999Y-131207752D01*
X-7379999Y-131207752D02*
X-7408571Y-131055371D01*
X-7408571Y-131055371D02*
X-7437142Y-130979180D01*
X-7437142Y-130979180D02*
X-7494285Y-130902990D01*
X-7494285Y-130902990D02*
X-7579999Y-130864895D01*
X-7579999Y-130864895D02*
X-7637142Y-130864895D01*
X-7637142Y-130864895D02*
X-7722856Y-130902990D01*
X-7722856Y-130902990D02*
X-7751428Y-130941085D01*
X-8179999Y-130864895D02*
X-8179999Y-131436323D01*
X-8179999Y-131436323D02*
X-8151428Y-131550609D01*
X-8151428Y-131550609D02*
X-8094285Y-131626800D01*
X-8094285Y-131626800D02*
X-8008571Y-131664895D01*
X-8008571Y-131664895D02*
X-7951428Y-131664895D01*
X-8408571Y-130864895D02*
X-8779999Y-130864895D01*
X-8779999Y-130864895D02*
X-8579999Y-131169657D01*
X-8579999Y-131169657D02*
X-8665714Y-131169657D01*
X-8665714Y-131169657D02*
X-8722857Y-131207752D01*
X-8722857Y-131207752D02*
X-8751428Y-131245847D01*
X-8751428Y-131245847D02*
X-8779999Y-131322038D01*
X-8779999Y-131322038D02*
X-8779999Y-131512514D01*
X-8779999Y-131512514D02*
X-8751428Y-131588704D01*
X-8751428Y-131588704D02*
X-8722857Y-131626800D01*
X-8722857Y-131626800D02*
X-8665714Y-131664895D01*
X-8665714Y-131664895D02*
X-8494285Y-131664895D01*
X-8494285Y-131664895D02*
X-8437142Y-131626800D01*
X-8437142Y-131626800D02*
X-8408571Y-131588704D01*
X-33751428Y-131588704D02*
X-33722856Y-131626800D01*
X-33722856Y-131626800D02*
X-33637142Y-131664895D01*
X-33637142Y-131664895D02*
X-33579999Y-131664895D01*
X-33579999Y-131664895D02*
X-33494285Y-131626800D01*
X-33494285Y-131626800D02*
X-33437142Y-131550609D01*
X-33437142Y-131550609D02*
X-33408571Y-131474419D01*
X-33408571Y-131474419D02*
X-33379999Y-131322038D01*
X-33379999Y-131322038D02*
X-33379999Y-131207752D01*
X-33379999Y-131207752D02*
X-33408571Y-131055371D01*
X-33408571Y-131055371D02*
X-33437142Y-130979180D01*
X-33437142Y-130979180D02*
X-33494285Y-130902990D01*
X-33494285Y-130902990D02*
X-33579999Y-130864895D01*
X-33579999Y-130864895D02*
X-33637142Y-130864895D01*
X-33637142Y-130864895D02*
X-33722856Y-130902990D01*
X-33722856Y-130902990D02*
X-33751428Y-130941085D01*
X-34179999Y-130864895D02*
X-34179999Y-131436323D01*
X-34179999Y-131436323D02*
X-34151428Y-131550609D01*
X-34151428Y-131550609D02*
X-34094285Y-131626800D01*
X-34094285Y-131626800D02*
X-34008571Y-131664895D01*
X-34008571Y-131664895D02*
X-33951428Y-131664895D01*
X-34779999Y-131664895D02*
X-34437142Y-131664895D01*
X-34608571Y-131664895D02*
X-34608571Y-130864895D01*
X-34608571Y-130864895D02*
X-34551428Y-130979180D01*
X-34551428Y-130979180D02*
X-34494285Y-131055371D01*
X-34494285Y-131055371D02*
X-34437142Y-131093466D01*
X-29165714Y-169988704D02*
X-29137142Y-170026800D01*
X-29137142Y-170026800D02*
X-29051428Y-170064895D01*
X-29051428Y-170064895D02*
X-28994285Y-170064895D01*
X-28994285Y-170064895D02*
X-28908571Y-170026800D01*
X-28908571Y-170026800D02*
X-28851428Y-169950609D01*
X-28851428Y-169950609D02*
X-28822857Y-169874419D01*
X-28822857Y-169874419D02*
X-28794285Y-169722038D01*
X-28794285Y-169722038D02*
X-28794285Y-169607752D01*
X-28794285Y-169607752D02*
X-28822857Y-169455371D01*
X-28822857Y-169455371D02*
X-28851428Y-169379180D01*
X-28851428Y-169379180D02*
X-28908571Y-169302990D01*
X-28908571Y-169302990D02*
X-28994285Y-169264895D01*
X-28994285Y-169264895D02*
X-29051428Y-169264895D01*
X-29051428Y-169264895D02*
X-29137142Y-169302990D01*
X-29137142Y-169302990D02*
X-29165714Y-169341085D01*
X-29422857Y-169264895D02*
X-29422857Y-169912514D01*
X-29422857Y-169912514D02*
X-29451428Y-169988704D01*
X-29451428Y-169988704D02*
X-29480000Y-170026800D01*
X-29480000Y-170026800D02*
X-29537142Y-170064895D01*
X-29537142Y-170064895D02*
X-29651428Y-170064895D01*
X-29651428Y-170064895D02*
X-29708571Y-170026800D01*
X-29708571Y-170026800D02*
X-29737142Y-169988704D01*
X-29737142Y-169988704D02*
X-29765714Y-169912514D01*
X-29765714Y-169912514D02*
X-29765714Y-169264895D01*
X-30022856Y-169341085D02*
X-30051428Y-169302990D01*
X-30051428Y-169302990D02*
X-30108571Y-169264895D01*
X-30108571Y-169264895D02*
X-30251428Y-169264895D01*
X-30251428Y-169264895D02*
X-30308571Y-169302990D01*
X-30308571Y-169302990D02*
X-30337142Y-169341085D01*
X-30337142Y-169341085D02*
X-30365713Y-169417276D01*
X-30365713Y-169417276D02*
X-30365713Y-169493466D01*
X-30365713Y-169493466D02*
X-30337142Y-169607752D01*
X-30337142Y-169607752D02*
X-29994285Y-170064895D01*
X-29994285Y-170064895D02*
X-30365713Y-170064895D01*
X-97414700Y-64428572D02*
X-97381366Y-64500000D01*
X-97381366Y-64500000D02*
X-97381366Y-64619048D01*
X-97381366Y-64619048D02*
X-97414700Y-64666667D01*
X-97414700Y-64666667D02*
X-97448033Y-64690476D01*
X-97448033Y-64690476D02*
X-97514700Y-64714286D01*
X-97514700Y-64714286D02*
X-97581366Y-64714286D01*
X-97581366Y-64714286D02*
X-97648033Y-64690476D01*
X-97648033Y-64690476D02*
X-97681366Y-64666667D01*
X-97681366Y-64666667D02*
X-97714700Y-64619048D01*
X-97714700Y-64619048D02*
X-97748033Y-64523810D01*
X-97748033Y-64523810D02*
X-97781366Y-64476191D01*
X-97781366Y-64476191D02*
X-97814700Y-64452381D01*
X-97814700Y-64452381D02*
X-97881366Y-64428572D01*
X-97881366Y-64428572D02*
X-97948033Y-64428572D01*
X-97948033Y-64428572D02*
X-98014700Y-64452381D01*
X-98014700Y-64452381D02*
X-98048033Y-64476191D01*
X-98048033Y-64476191D02*
X-98081366Y-64523810D01*
X-98081366Y-64523810D02*
X-98081366Y-64642857D01*
X-98081366Y-64642857D02*
X-98048033Y-64714286D01*
X-98081366Y-65071428D02*
X-97581366Y-65071428D01*
X-97581366Y-65071428D02*
X-97481366Y-65047619D01*
X-97481366Y-65047619D02*
X-97414700Y-65000000D01*
X-97414700Y-65000000D02*
X-97381366Y-64928571D01*
X-97381366Y-64928571D02*
X-97381366Y-64880952D01*
X-98014700Y-65285714D02*
X-98048033Y-65309523D01*
X-98048033Y-65309523D02*
X-98081366Y-65357142D01*
X-98081366Y-65357142D02*
X-98081366Y-65476190D01*
X-98081366Y-65476190D02*
X-98048033Y-65523809D01*
X-98048033Y-65523809D02*
X-98014700Y-65547618D01*
X-98014700Y-65547618D02*
X-97948033Y-65571428D01*
X-97948033Y-65571428D02*
X-97881366Y-65571428D01*
X-97881366Y-65571428D02*
X-97781366Y-65547618D01*
X-97781366Y-65547618D02*
X-97381366Y-65261904D01*
X-97381366Y-65261904D02*
X-97381366Y-65571428D01*
X-63345000Y-120300000D02*
X-62845000Y-120300000D01*
X-62845000Y-120300000D02*
X-63095000Y-120050000D01*
X-62345000Y-120300000D02*
X-61845000Y-120300000D01*
X-61845000Y-120300000D02*
X-62095000Y-120050000D01*
X-63095000Y-120050000D02*
X-63345000Y-120300000D01*
X-62095000Y-120050000D02*
X-62345000Y-120300000D01*
X-63095000Y-119800000D02*
X-63345000Y-119550000D01*
X-62095000Y-119800000D02*
X-63095000Y-119800000D01*
X-63345000Y-119550000D02*
X-63345000Y-118550000D01*
X-61845000Y-119550000D02*
X-62095000Y-119800000D01*
X-63345000Y-118550000D02*
X-63095000Y-118300000D01*
X-61845000Y-118550000D02*
X-61845000Y-119550000D01*
X-63095000Y-118300000D02*
X-63345000Y-118050000D01*
X-62845000Y-118300000D02*
X-62345000Y-118300000D01*
X-62095000Y-118300000D02*
X-61845000Y-118550000D01*
X-63345000Y-118050000D02*
X-63345000Y-117050000D01*
X-61845000Y-118050000D02*
X-62095000Y-118300000D01*
X-63345000Y-117050000D02*
X-63095000Y-116800000D01*
X-61845000Y-117050000D02*
X-61845000Y-118050000D01*
X-63095000Y-116800000D02*
X-63345000Y-116550000D01*
X-62845000Y-116800000D02*
X-62345000Y-116800000D01*
X-62095000Y-116800000D02*
X-61845000Y-117050000D01*
X-63345000Y-116550000D02*
X-63345000Y-115550000D01*
X-61845000Y-116550000D02*
X-62095000Y-116800000D01*
X-63345000Y-115550000D02*
X-63095000Y-115300000D01*
X-61845000Y-115550000D02*
X-61845000Y-116550000D01*
X-63095000Y-115300000D02*
X-63345000Y-115050000D01*
X-62845000Y-115300000D02*
X-62345000Y-115300000D01*
X-62095000Y-115300000D02*
X-61845000Y-115550000D01*
X-63345000Y-115050000D02*
X-63345000Y-114050000D01*
X-61845000Y-115050000D02*
X-62095000Y-115300000D01*
X-63345000Y-114050000D02*
X-63095000Y-113800000D01*
X-61845000Y-114050000D02*
X-61845000Y-115050000D01*
X-63095000Y-113800000D02*
X-62095000Y-113800000D01*
X-62095000Y-113800000D02*
X-61845000Y-114050000D01*
X-62845000Y-113550000D02*
X-62345000Y-113550000D01*
X-62345000Y-113550000D02*
X-62595000Y-113300000D01*
X-62595000Y-113300000D02*
X-62845000Y-113550000D01*
X-128750000Y-68500000D02*
X-128250000Y-68500000D01*
X-128250000Y-68500000D02*
X-128500000Y-68250000D01*
X-127750000Y-68500000D02*
X-127250000Y-68500000D01*
X-127250000Y-68500000D02*
X-127500000Y-68250000D01*
X-128500000Y-68250000D02*
X-128750000Y-68500000D01*
X-127500000Y-68250000D02*
X-127750000Y-68500000D01*
X-128500000Y-68000000D02*
X-128750000Y-67750000D01*
X-127500000Y-68000000D02*
X-128500000Y-68000000D01*
X-128750000Y-67750000D02*
X-128750000Y-66750000D01*
X-127250000Y-67750000D02*
X-127500000Y-68000000D01*
X-128750000Y-66750000D02*
X-128500000Y-66500000D01*
X-127250000Y-66750000D02*
X-127250000Y-67750000D01*
X-128500000Y-66500000D02*
X-128750000Y-66250000D01*
X-128250000Y-66500000D02*
X-127750000Y-66500000D01*
X-127500000Y-66500000D02*
X-127250000Y-66750000D01*
X-128750000Y-66250000D02*
X-128750000Y-65250000D01*
X-127250000Y-66250000D02*
X-127500000Y-66500000D01*
X-128750000Y-65250000D02*
X-128500000Y-65000000D01*
X-127250000Y-65250000D02*
X-127250000Y-66250000D01*
X-128500000Y-65000000D02*
X-128750000Y-64750000D01*
X-128250000Y-65000000D02*
X-127750000Y-65000000D01*
X-127500000Y-65000000D02*
X-127250000Y-65250000D01*
X-128750000Y-64750000D02*
X-128750000Y-63750000D01*
X-127250000Y-64750000D02*
X-127500000Y-65000000D01*
X-128750000Y-63750000D02*
X-128500000Y-63500000D01*
X-127250000Y-63750000D02*
X-127250000Y-64750000D01*
X-128500000Y-63500000D02*
X-128750000Y-63250000D01*
X-128250000Y-63500000D02*
X-127750000Y-63500000D01*
X-127500000Y-63500000D02*
X-127250000Y-63750000D01*
X-128750000Y-63250000D02*
X-128750000Y-62250000D01*
X-127250000Y-63250000D02*
X-127500000Y-63500000D01*
X-128750000Y-62250000D02*
X-128500000Y-62000000D01*
X-127250000Y-62250000D02*
X-127250000Y-63250000D01*
X-128500000Y-62000000D02*
X-127500000Y-62000000D01*
X-127500000Y-62000000D02*
X-127250000Y-62250000D01*
X-128250000Y-61750000D02*
X-127750000Y-61750000D01*
X-127750000Y-61750000D02*
X-128000000Y-61500000D01*
X-128000000Y-61500000D02*
X-128250000Y-61750000D01*
G36*
X1723743Y-80996324D02*
G01*
X1758044Y-81138039D01*
X1681220Y-81255304D01*
X1571905Y-81349190D01*
X1400956Y-81238822D01*
X1267220Y-81059698D01*
X1439436Y-80940170D01*
X1648179Y-80883688D01*
X1723743Y-80996324D01*
G37*
G36*
X1305872Y-81259161D02*
G01*
X1334607Y-81424740D01*
X1226089Y-81432616D01*
X1033652Y-81376800D01*
X936388Y-81295653D01*
X948170Y-81275602D01*
X1118686Y-81159831D01*
X1245620Y-81121296D01*
X1305872Y-81259161D01*
G37*
G36*
X1365194Y-80661561D02*
G01*
X1472480Y-80727728D01*
X1390326Y-80886354D01*
X1266188Y-80979496D01*
X1140215Y-80863877D01*
X1048631Y-80689385D01*
X1048630Y-80689385D01*
X1053075Y-80674708D01*
X1175574Y-80639610D01*
X1365194Y-80661561D01*
G37*
G36*
X4937800Y-78512567D02*
G01*
X4937800Y-78770329D01*
X4839718Y-78770434D01*
X4741637Y-78770329D01*
X4741637Y-78611682D01*
X4741637Y-78453036D01*
X4486665Y-78453036D01*
X4235109Y-78453609D01*
X4157486Y-78456549D01*
X4157484Y-78456549D01*
X4157589Y-78254908D01*
X4548883Y-78254908D01*
X4937800Y-78254908D01*
X4937800Y-78512567D01*
G37*
G36*
X4938004Y-79120075D02*
G01*
X4938004Y-79390963D01*
X4843953Y-79390963D01*
X4750005Y-79390963D01*
X4750005Y-79220120D01*
X4750005Y-79049278D01*
X4692335Y-79049278D01*
X4634767Y-79049278D01*
X4634767Y-79205961D01*
X4634767Y-79362644D01*
X4549914Y-79362644D01*
X4464958Y-79362644D01*
X4464958Y-79205961D01*
X4464958Y-79049278D01*
X4404290Y-79049278D01*
X4343622Y-79049278D01*
X4343728Y-79220120D01*
X4343728Y-79390963D01*
X4251227Y-79390344D01*
X4158726Y-79389725D01*
X4158196Y-79119353D01*
X4157484Y-78849187D01*
X4547847Y-78849187D01*
X4938004Y-78849187D01*
X4938004Y-79120075D01*
G37*
G36*
X4434159Y-80335310D02*
G01*
X4710525Y-80335929D01*
X4732745Y-80340374D01*
X4778220Y-80353500D01*
X4796411Y-80361561D01*
X4889635Y-80441557D01*
X4942242Y-80564030D01*
X4946999Y-80593589D01*
X4944210Y-80716372D01*
X4825561Y-80913052D01*
X4761276Y-80945298D01*
X4738331Y-80950879D01*
X4718591Y-80956461D01*
X4438608Y-80956461D01*
X4158728Y-80956461D01*
X4158199Y-80856829D01*
X4157580Y-80757300D01*
X4423507Y-80757300D01*
X4657037Y-80756753D01*
X4701836Y-80753061D01*
X4740697Y-80728566D01*
X4763124Y-80604646D01*
X4692121Y-80537157D01*
X4619202Y-80535493D01*
X4418959Y-80534881D01*
X4157580Y-80534987D01*
X4157580Y-80434838D01*
X4157484Y-80334781D01*
X4434159Y-80335310D01*
G37*
G36*
X4938013Y-79590539D02*
G01*
X4938013Y-79689655D01*
X4811716Y-79689655D01*
X4630228Y-79684696D01*
X4565529Y-79678702D01*
X4555918Y-79680147D01*
X4573591Y-79689758D01*
X4597362Y-79698750D01*
X4664335Y-79725208D01*
X4728827Y-79750530D01*
X4760039Y-79762622D01*
X4798487Y-79777298D01*
X4821741Y-79786290D01*
X4822360Y-79855226D01*
X4822980Y-79924059D01*
X4814298Y-79926435D01*
X4797658Y-79932222D01*
X4778434Y-79939974D01*
X4743811Y-79953410D01*
X4718387Y-79962608D01*
X4697406Y-79970773D01*
X4670327Y-79981108D01*
X4654204Y-79987103D01*
X4577930Y-80016455D01*
X4556122Y-80028547D01*
X4564701Y-80030616D01*
X4647073Y-80023381D01*
X4828974Y-80017800D01*
X4937081Y-80018419D01*
X4937081Y-80117431D01*
X4937081Y-80216444D01*
X4547957Y-80216444D01*
X4158834Y-80216444D01*
X4158834Y-80117741D01*
X4158834Y-80018936D01*
X4181055Y-80008911D01*
X4216402Y-79993718D01*
X4231594Y-79986897D01*
X4248854Y-79979248D01*
X4302391Y-79956408D01*
X4374325Y-79925298D01*
X4396752Y-79915480D01*
X4419800Y-79905455D01*
X4488426Y-79875379D01*
X4505583Y-79868248D01*
X4526460Y-79859359D01*
X4536279Y-79854401D01*
X4513128Y-79843859D01*
X4488736Y-79833420D01*
X4470133Y-79825359D01*
X4451012Y-79817298D01*
X4432202Y-79809339D01*
X4407294Y-79798384D01*
X4336601Y-79767791D01*
X4318514Y-79759936D01*
X4272005Y-79740403D01*
X4252782Y-79731928D01*
X4224463Y-79719319D01*
X4195111Y-79707020D01*
X4172373Y-79697098D01*
X4159764Y-79691933D01*
X4158213Y-79592404D01*
X4158103Y-79592604D01*
X4158526Y-79492972D01*
X4548373Y-79492146D01*
X4938013Y-79491527D01*
X4938013Y-79590539D01*
G37*
G36*
X2276062Y-78749850D02*
G01*
X2146222Y-78796685D01*
X2043083Y-78841435D01*
X1929910Y-78890539D01*
X1720996Y-78999587D01*
X1720190Y-79000082D01*
X1520286Y-79123044D01*
X1428182Y-79188908D01*
X1328587Y-79260128D01*
X1149182Y-79408016D01*
X1146706Y-79410056D01*
X975450Y-79572044D01*
X898807Y-79655132D01*
X815626Y-79745308D01*
X669406Y-79927364D01*
X668039Y-79929065D01*
X533498Y-80122533D01*
X479101Y-80213754D01*
X412808Y-80324927D01*
X307648Y-80533735D01*
X306777Y-80535464D01*
X216211Y-80753361D01*
X157105Y-80871079D01*
X131563Y-80921951D01*
X32553Y-81070448D01*
X-121853Y-81212493D01*
X-322822Y-81287697D01*
X-538211Y-81284585D01*
X-735876Y-81191680D01*
X-864265Y-81048771D01*
X-930566Y-80885429D01*
X-947129Y-80709540D01*
X-947218Y-80709435D01*
X-927589Y-80563291D01*
X-869496Y-80436480D01*
X-744833Y-80334674D01*
X-592407Y-80369714D01*
X-529433Y-80542532D01*
X-570393Y-80725868D01*
X-480166Y-80887822D01*
X-289170Y-80871906D01*
X-255068Y-80827981D01*
X-195532Y-80827981D01*
X-181890Y-80840280D01*
X23472Y-80999960D01*
X38975Y-81009882D01*
X50137Y-80995206D01*
X118867Y-80887512D01*
X127859Y-80871079D01*
X112046Y-80861054D01*
X-90526Y-80706128D01*
X-109957Y-80688765D01*
X-121738Y-80711916D01*
X-184371Y-80813305D01*
X-195532Y-80827981D01*
X-255068Y-80827981D01*
X-153647Y-80697345D01*
X-67532Y-80501609D01*
X-66627Y-80499422D01*
X-34819Y-80499422D01*
X-24587Y-80508517D01*
X78340Y-80593708D01*
X186873Y-80669747D01*
X207130Y-80682770D01*
X216122Y-80660343D01*
X264388Y-80549238D01*
X271312Y-80533735D01*
X257153Y-80524434D01*
X53031Y-80362376D01*
X33497Y-80344082D01*
X21405Y-80367854D01*
X-29961Y-80486606D01*
X-34819Y-80499422D01*
X-66627Y-80499422D01*
X11173Y-80311320D01*
X88720Y-80162802D01*
X125378Y-80162802D01*
X136747Y-80173447D01*
X340662Y-80340982D01*
X359266Y-80354624D01*
X370118Y-80334367D01*
X428822Y-80229154D01*
X437814Y-80213754D01*
X423551Y-80203006D01*
X226147Y-80036814D01*
X207957Y-80019451D01*
X195141Y-80041052D01*
X132819Y-80149159D01*
X125378Y-80162802D01*
X88720Y-80162802D01*
X124097Y-80095049D01*
X251389Y-79886903D01*
X275828Y-79852330D01*
X315651Y-79852330D01*
X327123Y-79864112D01*
X517809Y-80044566D01*
X534862Y-80059655D01*
X547678Y-80040742D01*
X616201Y-79941937D01*
X626846Y-79927364D01*
X613411Y-79915272D01*
X427065Y-79736781D01*
X410736Y-79719521D01*
X396576Y-79738642D01*
X325056Y-79838791D01*
X315651Y-79852330D01*
X275828Y-79852330D01*
X392266Y-79687606D01*
X499272Y-79555500D01*
X541890Y-79555500D01*
X552432Y-79568419D01*
X729992Y-79761690D01*
X745392Y-79776882D01*
X759242Y-79760242D01*
X836653Y-79669292D01*
X849468Y-79655132D01*
X835826Y-79641697D01*
X664674Y-79451424D01*
X650101Y-79432717D01*
X634184Y-79450287D01*
X552742Y-79542891D01*
X541890Y-79555500D01*
X499272Y-79555500D01*
X545943Y-79497881D01*
X711635Y-79318452D01*
X745230Y-79286473D01*
X792418Y-79286473D01*
X802546Y-79300529D01*
X967807Y-79503101D01*
X981760Y-79518397D01*
X996539Y-79503927D01*
X1083252Y-79421452D01*
X1098032Y-79408016D01*
X1084596Y-79393237D01*
X923676Y-79194592D01*
X910653Y-79176402D01*
X894013Y-79191388D01*
X804923Y-79274484D01*
X792418Y-79286473D01*
X745230Y-79286473D01*
X888558Y-79150041D01*
X1019078Y-79040906D01*
X1071160Y-79040906D01*
X1080255Y-79055996D01*
X1228153Y-79270350D01*
X1240556Y-79286473D01*
X1256575Y-79273760D01*
X1351557Y-79200897D01*
X1367783Y-79188908D01*
X1355587Y-79172785D01*
X1210790Y-78961738D01*
X1199421Y-78942928D01*
X1181748Y-78955950D01*
X1085010Y-79029951D01*
X1071160Y-79040906D01*
X1019078Y-79040906D01*
X1075927Y-78993372D01*
X1272958Y-78849170D01*
X1308017Y-78826863D01*
X1368713Y-78826863D01*
X1376258Y-78842779D01*
X1506689Y-79067675D01*
X1517645Y-79084004D01*
X1534077Y-79073256D01*
X1636190Y-79010934D01*
X1654380Y-79000082D01*
X1642495Y-78982512D01*
X1516094Y-78761750D01*
X1506793Y-78741700D01*
X1487775Y-78753069D01*
X1383596Y-78817354D01*
X1368713Y-78826863D01*
X1308017Y-78826863D01*
X1478865Y-78718157D01*
X1609984Y-78646408D01*
X1678979Y-78646408D01*
X1686627Y-78663669D01*
X1804242Y-78894455D01*
X1813751Y-78911199D01*
X1830804Y-78902413D01*
X1937981Y-78850634D01*
X1957618Y-78841435D01*
X1946869Y-78822625D01*
X1832354Y-78594629D01*
X1824086Y-78575715D01*
X1805482Y-78584500D01*
X1695825Y-78637830D01*
X1678979Y-78646408D01*
X1609984Y-78646408D01*
X1692864Y-78601056D01*
X1906533Y-78502128D01*
X2014462Y-78502128D01*
X2018182Y-78513703D01*
X2110166Y-78755239D01*
X2117814Y-78772499D01*
X2135488Y-78765781D01*
X2247418Y-78719376D01*
X2266332Y-78711521D01*
X2257857Y-78692814D01*
X2169801Y-78459856D01*
X2163600Y-78440220D01*
X2144169Y-78446937D01*
X2030068Y-78488796D01*
X2026141Y-78490346D01*
X2023040Y-78493547D01*
X2014462Y-78502128D01*
X1906533Y-78502128D01*
X1914170Y-78498592D01*
X2141999Y-78411487D01*
X2365238Y-78349288D01*
X2598415Y-78301142D01*
X2833888Y-78269120D01*
X3064015Y-78255293D01*
X3281155Y-78261729D01*
X3495671Y-78303041D01*
X3678645Y-78380221D01*
X3828821Y-78492413D01*
X3944676Y-78638388D01*
X4025365Y-78816363D01*
X4070667Y-79024680D01*
X4070349Y-79034189D01*
X4114208Y-79312424D01*
X4131143Y-79563874D01*
X4125230Y-79789698D01*
X4101829Y-80095621D01*
X4101252Y-80103167D01*
X4023841Y-80730519D01*
X3919041Y-80748812D01*
X3794708Y-80598021D01*
X3793671Y-80525364D01*
X3837813Y-80525364D01*
X3840602Y-80585929D01*
X3873158Y-80641429D01*
X3942818Y-80704268D01*
X3967519Y-80709226D01*
X3973203Y-80706850D01*
X4048651Y-80095621D01*
X3940639Y-80184280D01*
X3901993Y-80190188D01*
X3890400Y-80205321D01*
X3863546Y-80321654D01*
X3844013Y-80435446D01*
X3844119Y-80435446D01*
X3837814Y-80525363D01*
X3837813Y-80525364D01*
X3793671Y-80525364D01*
X3792885Y-80470267D01*
X3818169Y-80312250D01*
X3801942Y-80098413D01*
X3751299Y-79958163D01*
X3681123Y-80047770D01*
X3545247Y-80252387D01*
X3410648Y-80413226D01*
X3350393Y-80471517D01*
X3386153Y-80496322D01*
X3524853Y-80586032D01*
X3751691Y-80734515D01*
X3900681Y-80846386D01*
X3984773Y-80931437D01*
X4158613Y-81126877D01*
X4158825Y-81073650D01*
X4545881Y-81073333D01*
X4820015Y-81073214D01*
X4935521Y-81073650D01*
X4935627Y-81073650D01*
X4938109Y-81173696D01*
X4938109Y-81272812D01*
X4814292Y-81273431D01*
X4690475Y-81274050D01*
X4690052Y-81290173D01*
X4689628Y-81306400D01*
X4700170Y-81314565D01*
X4736531Y-81341024D01*
X4743062Y-81345777D01*
X4777685Y-81371099D01*
X4798665Y-81386395D01*
X4834735Y-81412543D01*
X4880108Y-81445926D01*
X4922999Y-81476932D01*
X4938089Y-81487887D01*
X4938089Y-81611084D01*
X4938089Y-81734280D01*
X4920415Y-81720534D01*
X4883828Y-81691596D01*
X4860574Y-81673406D01*
X4849205Y-81664104D01*
X4810758Y-81633615D01*
X4774068Y-81604469D01*
X4758875Y-81591860D01*
X4717844Y-81559924D01*
X4685494Y-81534086D01*
X4671025Y-81523750D01*
X4669167Y-81527058D01*
X4665015Y-81535131D01*
X4641262Y-81581318D01*
X4535738Y-81657076D01*
X4422257Y-81673303D01*
X4321488Y-81659246D01*
X4300921Y-81651081D01*
X4284178Y-81656456D01*
X4200875Y-81649634D01*
X4055658Y-81617047D01*
X3945387Y-81577184D01*
X3892884Y-81532019D01*
X3850923Y-81441275D01*
X3792941Y-81339886D01*
X3709677Y-81299683D01*
X3822723Y-81299683D01*
X3894244Y-81420399D01*
X3931244Y-81501531D01*
X3964213Y-81529437D01*
X4187869Y-81594239D01*
X4265797Y-81604057D01*
X4316610Y-81535131D01*
X4268524Y-81497875D01*
X4191919Y-81411314D01*
X4180425Y-81339577D01*
X4342485Y-81339577D01*
X4346104Y-81416472D01*
X4401398Y-81475176D01*
X4489454Y-81459364D01*
X4515913Y-81418436D01*
X4520871Y-81341024D01*
X4519114Y-81273845D01*
X4429404Y-81273316D01*
X4342485Y-81273845D01*
X4342485Y-81339577D01*
X4180425Y-81339577D01*
X4157174Y-81194470D01*
X4031583Y-81074189D01*
X3940442Y-80957172D01*
X3929827Y-81195947D01*
X3822723Y-81299683D01*
X3709677Y-81299683D01*
X3660443Y-81275911D01*
X3461075Y-81194572D01*
X3257063Y-81110872D01*
X3043323Y-81030137D01*
X2885814Y-80992207D01*
X2800340Y-80978151D01*
X2671887Y-81082367D01*
X2599997Y-81140693D01*
X2401163Y-81265780D01*
X2201276Y-81353739D01*
X1997777Y-81404894D01*
X1788103Y-81419571D01*
X1651507Y-81528853D01*
X1498056Y-81614458D01*
X1301734Y-81668455D01*
X1036521Y-81682914D01*
X917665Y-81726426D01*
X731733Y-81755675D01*
X539548Y-81757682D01*
X387155Y-81712576D01*
X374132Y-81692836D01*
X371137Y-81639609D01*
X378517Y-81620481D01*
X437306Y-81620481D01*
X604026Y-81466892D01*
X731439Y-81391564D01*
X855491Y-81545247D01*
X1002121Y-81623281D01*
X867348Y-81675784D01*
X903418Y-81667929D01*
X1016073Y-81627829D01*
X1033230Y-81623077D01*
X1293038Y-81610779D01*
X1478891Y-81560279D01*
X1622704Y-81477358D01*
X1756390Y-81367795D01*
X1765485Y-81362421D01*
X1769104Y-81359838D01*
X2046567Y-81249305D01*
X2236861Y-81170290D01*
X2351144Y-81116682D01*
X2400573Y-81082367D01*
X2396305Y-81061235D01*
X2349497Y-81047171D01*
X2271306Y-81034066D01*
X2172890Y-81015805D01*
X2065405Y-80986278D01*
X1960009Y-80939371D01*
X1867858Y-80868972D01*
X1800110Y-80768970D01*
X1721355Y-80666134D01*
X1530147Y-80520010D01*
X1288410Y-80428836D01*
X1276525Y-80422324D01*
X1162319Y-80332097D01*
X1257714Y-80414263D01*
X1073509Y-80437424D01*
X948896Y-80522784D01*
X804576Y-80409524D01*
X703639Y-80254480D01*
X725663Y-80412295D01*
X830247Y-80616318D01*
X833453Y-80644430D01*
X926465Y-80578869D01*
X929653Y-80666653D01*
X869110Y-80807521D01*
X805955Y-80991474D01*
X797900Y-81125227D01*
X762675Y-81272247D01*
X703229Y-81248321D01*
X696614Y-81224446D01*
X682662Y-81243153D01*
X514300Y-81430945D01*
X437306Y-81620481D01*
X378517Y-81620481D01*
X463844Y-81399314D01*
X636857Y-81205527D01*
X625436Y-81029211D01*
X655954Y-80853910D01*
X771526Y-80633676D01*
X651975Y-80357302D01*
X657631Y-80155669D01*
X678612Y-80134895D01*
X891595Y-80134831D01*
X1109003Y-80225503D01*
X1310821Y-80373537D01*
X1498174Y-80442941D01*
X1660567Y-80539521D01*
X1659017Y-80534356D01*
X1618496Y-80339601D01*
X1623452Y-80128623D01*
X1670724Y-79906941D01*
X1757150Y-79680069D01*
X1879569Y-79453523D01*
X2034819Y-79232818D01*
X2219739Y-79023472D01*
X2431166Y-78830998D01*
X2503657Y-78722229D01*
X2423581Y-78710105D01*
X2418328Y-78711521D01*
X2276062Y-78749850D01*
G37*
X-5250000Y-81500000D02*
X-5750000Y-81500000D01*
X-5750000Y-81500000D02*
X-5500000Y-81750000D01*
X-6250000Y-81500000D02*
X-6750000Y-81500000D01*
X-6750000Y-81500000D02*
X-6500000Y-81750000D01*
X-5500000Y-81750000D02*
X-5250000Y-81500000D01*
X-6500000Y-81750000D02*
X-6250000Y-81500000D01*
X-5500000Y-82000000D02*
X-5250000Y-82250000D01*
X-6500000Y-82000000D02*
X-5500000Y-82000000D01*
X-5250000Y-82250000D02*
X-5250000Y-83250000D01*
X-6750000Y-82250000D02*
X-6500000Y-82000000D01*
X-5250000Y-83250000D02*
X-5500000Y-83500000D01*
X-6750000Y-83250000D02*
X-6750000Y-82250000D01*
X-5500000Y-83500000D02*
X-5250000Y-83750000D01*
X-5750000Y-83500000D02*
X-6250000Y-83500000D01*
X-6500000Y-83500000D02*
X-6750000Y-83250000D01*
X-5250000Y-83750000D02*
X-5250000Y-84750000D01*
X-6750000Y-83750000D02*
X-6500000Y-83500000D01*
X-5250000Y-84750000D02*
X-5500000Y-85000000D01*
X-6750000Y-84750000D02*
X-6750000Y-83750000D01*
X-5500000Y-85000000D02*
X-5250000Y-85250000D01*
X-5750000Y-85000000D02*
X-6250000Y-85000000D01*
X-6500000Y-85000000D02*
X-6750000Y-84750000D01*
X-5250000Y-85250000D02*
X-5250000Y-86250000D01*
X-6750000Y-85250000D02*
X-6500000Y-85000000D01*
X-5250000Y-86250000D02*
X-5500000Y-86500000D01*
X-6750000Y-86250000D02*
X-6750000Y-85250000D01*
X-5500000Y-86500000D02*
X-5250000Y-86750000D01*
X-5750000Y-86500000D02*
X-6250000Y-86500000D01*
X-6500000Y-86500000D02*
X-6750000Y-86250000D01*
X-5250000Y-86750000D02*
X-5250000Y-87750000D01*
X-6750000Y-86750000D02*
X-6500000Y-86500000D01*
X-5250000Y-87750000D02*
X-5500000Y-88000000D01*
X-6750000Y-87750000D02*
X-6750000Y-86750000D01*
X-5500000Y-88000000D02*
X-6500000Y-88000000D01*
X-6500000Y-88000000D02*
X-6750000Y-87750000D01*
X-5750000Y-88250000D02*
X-6250000Y-88250000D01*
X-6250000Y-88250000D02*
X-6000000Y-88500000D01*
X-6000000Y-88500000D02*
X-5750000Y-88250000D01*
D12*
X-4720000Y-132090000D02*
X-4720000Y-133340000D01*
X-5020000Y-137110000D02*
X-11140000Y-137110000D01*
X-5020000Y-135000000D02*
X-5630000Y-135000000D01*
X-5020000Y-133700000D02*
X-5630000Y-133700000D01*
X-5020000Y-132390000D02*
X-5020000Y-137110000D01*
X-5630000Y-136500000D02*
X-10530000Y-136500000D01*
X-5630000Y-133000000D02*
X-5630000Y-136500000D01*
X-5970000Y-132090000D02*
X-4720000Y-132090000D01*
X-6480000Y-132190000D02*
X-6480000Y-132390000D01*
X-6780000Y-132390000D02*
X-6780000Y-132190000D01*
X-6780000Y-132290000D02*
X-6480000Y-132290000D01*
X-6780000Y-132190000D02*
X-6480000Y-132190000D01*
X-7580000Y-133000000D02*
X-5630000Y-133000000D01*
X-7580000Y-132390000D02*
X-7580000Y-133000000D01*
X-7980000Y-136500000D02*
X-7980000Y-136000000D01*
X-7980000Y-136000000D02*
X-8180000Y-136000000D01*
X-8080000Y-136500000D02*
X-8080000Y-136000000D01*
X-8180000Y-136000000D02*
X-8180000Y-136500000D01*
X-8580000Y-133000000D02*
X-8580000Y-132390000D01*
X-10530000Y-136500000D02*
X-10530000Y-133000000D01*
X-10530000Y-133000000D02*
X-8580000Y-133000000D01*
X-11140000Y-137110000D02*
X-11140000Y-132390000D01*
X-11140000Y-135000000D02*
X-10530000Y-135000000D01*
X-11140000Y-133700000D02*
X-10530000Y-133700000D01*
X-11140000Y-132390000D02*
X-5020000Y-132390000D01*
X-30720000Y-132090000D02*
X-30720000Y-133340000D01*
X-31020000Y-137110000D02*
X-37140000Y-137110000D01*
X-31020000Y-135000000D02*
X-31630000Y-135000000D01*
X-31020000Y-133700000D02*
X-31630000Y-133700000D01*
X-31020000Y-132390000D02*
X-31020000Y-137110000D01*
X-31630000Y-136500000D02*
X-36530000Y-136500000D01*
X-31630000Y-133000000D02*
X-31630000Y-136500000D01*
X-31970000Y-132090000D02*
X-30720000Y-132090000D01*
X-32480000Y-132190000D02*
X-32480000Y-132390000D01*
X-32780000Y-132390000D02*
X-32780000Y-132190000D01*
X-32780000Y-132290000D02*
X-32480000Y-132290000D01*
X-32780000Y-132190000D02*
X-32480000Y-132190000D01*
X-33580000Y-133000000D02*
X-31630000Y-133000000D01*
X-33580000Y-132390000D02*
X-33580000Y-133000000D01*
X-33980000Y-136500000D02*
X-33980000Y-136000000D01*
X-33980000Y-136000000D02*
X-34180000Y-136000000D01*
X-34080000Y-136500000D02*
X-34080000Y-136000000D01*
X-34180000Y-136000000D02*
X-34180000Y-136500000D01*
X-34580000Y-133000000D02*
X-34580000Y-132390000D01*
X-36530000Y-136500000D02*
X-36530000Y-133000000D01*
X-36530000Y-133000000D02*
X-34580000Y-133000000D01*
X-37140000Y-137110000D02*
X-37140000Y-132390000D01*
X-37140000Y-135000000D02*
X-36530000Y-135000000D01*
X-37140000Y-133700000D02*
X-36530000Y-133700000D01*
X-37140000Y-132390000D02*
X-31020000Y-132390000D01*
X-28280000Y-152250000D02*
X-26780000Y-152250000D01*
X-28280000Y-153250000D02*
X-28280000Y-152250000D01*
X-28280000Y-171300000D02*
X-28680000Y-171300000D01*
X-28280000Y-171300000D02*
X-28280000Y-178100000D01*
X-28280000Y-178100000D02*
X-9880000Y-178100000D01*
X-9880000Y-152250000D02*
X-11380000Y-152250000D01*
X-9880000Y-152250000D02*
X-9880000Y-153250000D01*
X-9880000Y-178100000D02*
X-9880000Y-171900000D01*
G36*
X-119563291Y-102072411D02*
G01*
X-119436480Y-102130504D01*
X-119334674Y-102255167D01*
X-119369714Y-102407593D01*
X-119542532Y-102470567D01*
X-119725868Y-102429607D01*
X-119887822Y-102519834D01*
X-119871906Y-102710830D01*
X-119697345Y-102846353D01*
X-119501609Y-102932468D01*
X-119311320Y-103011173D01*
X-119095049Y-103124097D01*
X-118886903Y-103251389D01*
X-118687606Y-103392266D01*
X-118497881Y-103545943D01*
X-118318452Y-103711635D01*
X-118150041Y-103888558D01*
X-117993372Y-104075927D01*
X-117849170Y-104272958D01*
X-117718157Y-104478865D01*
X-117601056Y-104692864D01*
X-117498592Y-104914170D01*
X-117411487Y-105141999D01*
X-117349288Y-105365238D01*
X-117301142Y-105598415D01*
X-117269120Y-105833888D01*
X-117255293Y-106064015D01*
X-117261729Y-106281155D01*
X-117303041Y-106495671D01*
X-117380221Y-106678645D01*
X-117492413Y-106828821D01*
X-117638388Y-106944676D01*
X-117816363Y-107025365D01*
X-118024680Y-107070667D01*
X-118034189Y-107070349D01*
X-118312424Y-107114208D01*
X-118563874Y-107131143D01*
X-118789698Y-107125230D01*
X-119095621Y-107101829D01*
X-119103167Y-107101252D01*
X-119730519Y-107023841D01*
X-119740350Y-106967519D01*
X-119709226Y-106967519D01*
X-119706850Y-106973203D01*
X-119095621Y-107048651D01*
X-119184280Y-106940639D01*
X-119190188Y-106901993D01*
X-119205321Y-106890400D01*
X-119321654Y-106863546D01*
X-119435446Y-106844013D01*
X-119435446Y-106844119D01*
X-119525363Y-106837814D01*
X-119525364Y-106837813D01*
X-119585929Y-106840602D01*
X-119641429Y-106873158D01*
X-119704268Y-106942818D01*
X-119709226Y-106967519D01*
X-119740350Y-106967519D01*
X-119748812Y-106919041D01*
X-119598021Y-106794708D01*
X-119470267Y-106792885D01*
X-119312250Y-106818169D01*
X-119098413Y-106801942D01*
X-118958163Y-106751299D01*
X-119047770Y-106681123D01*
X-119252387Y-106545247D01*
X-119413226Y-106410648D01*
X-119471517Y-106350393D01*
X-119496322Y-106386153D01*
X-119586032Y-106524853D01*
X-119734515Y-106751691D01*
X-119846386Y-106900681D01*
X-119931437Y-106984773D01*
X-120126877Y-107158613D01*
X-120073650Y-107158825D01*
X-120073333Y-107545881D01*
X-120073214Y-107820015D01*
X-120073650Y-107935521D01*
X-120073650Y-107935627D01*
X-120173696Y-107938109D01*
X-120272812Y-107938109D01*
X-120273431Y-107814292D01*
X-120274050Y-107690475D01*
X-120290173Y-107690052D01*
X-120306400Y-107689628D01*
X-120314565Y-107700170D01*
X-120341024Y-107736531D01*
X-120345777Y-107743062D01*
X-120371099Y-107777685D01*
X-120386395Y-107798665D01*
X-120412543Y-107834735D01*
X-120445926Y-107880108D01*
X-120476932Y-107922999D01*
X-120487887Y-107938089D01*
X-120611084Y-107938089D01*
X-120734280Y-107938089D01*
X-120720534Y-107920415D01*
X-120691596Y-107883828D01*
X-120673406Y-107860574D01*
X-120664104Y-107849205D01*
X-120633615Y-107810758D01*
X-120604469Y-107774068D01*
X-120591860Y-107758875D01*
X-120559924Y-107717844D01*
X-120534086Y-107685494D01*
X-120523750Y-107671025D01*
X-120527058Y-107669167D01*
X-120535131Y-107665015D01*
X-120581318Y-107641262D01*
X-120657076Y-107535738D01*
X-120673303Y-107422257D01*
X-120670393Y-107401398D01*
X-120475176Y-107401398D01*
X-120459364Y-107489454D01*
X-120418436Y-107515913D01*
X-120341024Y-107520871D01*
X-120273845Y-107519114D01*
X-120273316Y-107429404D01*
X-120273845Y-107342485D01*
X-120339577Y-107342485D01*
X-120416472Y-107346104D01*
X-120475176Y-107401398D01*
X-120670393Y-107401398D01*
X-120659246Y-107321488D01*
X-120651081Y-107300921D01*
X-120656456Y-107284178D01*
X-120654951Y-107265797D01*
X-120604057Y-107265797D01*
X-120535131Y-107316610D01*
X-120497875Y-107268524D01*
X-120411314Y-107191919D01*
X-120194470Y-107157174D01*
X-120074189Y-107031583D01*
X-119957172Y-106940442D01*
X-120195947Y-106929827D01*
X-120299683Y-106822723D01*
X-120420399Y-106894244D01*
X-120501531Y-106931244D01*
X-120529437Y-106964213D01*
X-120594239Y-107187869D01*
X-120604057Y-107265797D01*
X-120654951Y-107265797D01*
X-120649634Y-107200875D01*
X-120617047Y-107055658D01*
X-120577184Y-106945387D01*
X-120532019Y-106892884D01*
X-120441275Y-106850923D01*
X-120339886Y-106792941D01*
X-120275911Y-106660443D01*
X-120194572Y-106461075D01*
X-120110872Y-106257063D01*
X-120030137Y-106043323D01*
X-119992207Y-105885814D01*
X-119978151Y-105800340D01*
X-120082367Y-105671887D01*
X-120140693Y-105599997D01*
X-120265780Y-105401163D01*
X-120353739Y-105201276D01*
X-120404894Y-104997777D01*
X-120419571Y-104788103D01*
X-120528853Y-104651507D01*
X-120614458Y-104498056D01*
X-120668455Y-104301734D01*
X-120682914Y-104036521D01*
X-120726426Y-103917665D01*
X-120734341Y-103867348D01*
X-120675784Y-103867348D01*
X-120667929Y-103903418D01*
X-120627829Y-104016073D01*
X-120623077Y-104033230D01*
X-120610779Y-104293038D01*
X-120560279Y-104478891D01*
X-120477358Y-104622704D01*
X-120367795Y-104756390D01*
X-120362421Y-104765485D01*
X-120359838Y-104769104D01*
X-120249305Y-105046567D01*
X-120170290Y-105236861D01*
X-120116682Y-105351144D01*
X-120082367Y-105400573D01*
X-120061235Y-105396305D01*
X-120047171Y-105349497D01*
X-120034066Y-105271306D01*
X-120015805Y-105172890D01*
X-119986278Y-105065405D01*
X-119939371Y-104960009D01*
X-119868972Y-104867858D01*
X-119768970Y-104800110D01*
X-119666134Y-104721355D01*
X-119520010Y-104530147D01*
X-119428836Y-104288410D01*
X-119422324Y-104276525D01*
X-119332097Y-104162319D01*
X-119414263Y-104257714D01*
X-119437424Y-104073509D01*
X-119522784Y-103948896D01*
X-119409524Y-103804576D01*
X-119254480Y-103703639D01*
X-119412295Y-103725663D01*
X-119616318Y-103830247D01*
X-119644430Y-103833453D01*
X-119578869Y-103926465D01*
X-119666653Y-103929653D01*
X-119807521Y-103869110D01*
X-119991474Y-103805955D01*
X-120125227Y-103797900D01*
X-120272247Y-103762675D01*
X-120248321Y-103703229D01*
X-120224446Y-103696614D01*
X-120243153Y-103682662D01*
X-120430945Y-103514300D01*
X-120620481Y-103437306D01*
X-120466892Y-103604026D01*
X-120391564Y-103731439D01*
X-120545247Y-103855491D01*
X-120623281Y-104002121D01*
X-120675784Y-103867348D01*
X-120734341Y-103867348D01*
X-120755675Y-103731733D01*
X-120757682Y-103539548D01*
X-120712576Y-103387155D01*
X-120692836Y-103374132D01*
X-120639609Y-103371137D01*
X-120399314Y-103463844D01*
X-120205527Y-103636857D01*
X-120029211Y-103625436D01*
X-119853910Y-103655954D01*
X-119633676Y-103771526D01*
X-119357302Y-103651975D01*
X-119155669Y-103657631D01*
X-119134895Y-103678612D01*
X-119134831Y-103891595D01*
X-119225503Y-104109003D01*
X-119373537Y-104310821D01*
X-119442941Y-104498174D01*
X-119539521Y-104660567D01*
X-119534356Y-104659017D01*
X-119339601Y-104618496D01*
X-119128623Y-104623452D01*
X-118906941Y-104670724D01*
X-118680069Y-104757150D01*
X-118453523Y-104879569D01*
X-118232818Y-105034819D01*
X-118023472Y-105219739D01*
X-117830998Y-105431166D01*
X-117722229Y-105503657D01*
X-117710105Y-105423581D01*
X-117711521Y-105418328D01*
X-117749850Y-105276062D01*
X-117796685Y-105146222D01*
X-117809011Y-105117814D01*
X-117772499Y-105117814D01*
X-117765781Y-105135488D01*
X-117719376Y-105247418D01*
X-117711521Y-105266332D01*
X-117692814Y-105257857D01*
X-117459856Y-105169801D01*
X-117440220Y-105163600D01*
X-117446937Y-105144169D01*
X-117488796Y-105030068D01*
X-117490346Y-105026141D01*
X-117493547Y-105023040D01*
X-117502128Y-105014462D01*
X-117513703Y-105018182D01*
X-117755239Y-105110166D01*
X-117772499Y-105117814D01*
X-117809011Y-105117814D01*
X-117841435Y-105043083D01*
X-117890539Y-104929910D01*
X-117951171Y-104813751D01*
X-117911199Y-104813751D01*
X-117902413Y-104830804D01*
X-117850634Y-104937981D01*
X-117841435Y-104957618D01*
X-117822625Y-104946869D01*
X-117594629Y-104832354D01*
X-117575715Y-104824086D01*
X-117584500Y-104805482D01*
X-117637830Y-104695825D01*
X-117646408Y-104678979D01*
X-117663669Y-104686627D01*
X-117894455Y-104804242D01*
X-117911199Y-104813751D01*
X-117951171Y-104813751D01*
X-117999587Y-104720996D01*
X-118000082Y-104720190D01*
X-118123044Y-104520286D01*
X-118124933Y-104517645D01*
X-118084004Y-104517645D01*
X-118073256Y-104534077D01*
X-118010934Y-104636190D01*
X-118000082Y-104654380D01*
X-117982512Y-104642495D01*
X-117761750Y-104516094D01*
X-117741700Y-104506793D01*
X-117753069Y-104487775D01*
X-117817354Y-104383596D01*
X-117826863Y-104368713D01*
X-117842779Y-104376258D01*
X-118067675Y-104506689D01*
X-118084004Y-104517645D01*
X-118124933Y-104517645D01*
X-118188908Y-104428182D01*
X-118260128Y-104328587D01*
X-118332694Y-104240556D01*
X-118286473Y-104240556D01*
X-118273760Y-104256575D01*
X-118200897Y-104351557D01*
X-118188908Y-104367783D01*
X-118172785Y-104355587D01*
X-117961738Y-104210790D01*
X-117942928Y-104199421D01*
X-117955950Y-104181748D01*
X-118029951Y-104085010D01*
X-118040906Y-104071160D01*
X-118055996Y-104080255D01*
X-118270350Y-104228153D01*
X-118286473Y-104240556D01*
X-118332694Y-104240556D01*
X-118408016Y-104149182D01*
X-118410056Y-104146706D01*
X-118566075Y-103981760D01*
X-118518397Y-103981760D01*
X-118503927Y-103996539D01*
X-118421452Y-104083252D01*
X-118408016Y-104098032D01*
X-118393237Y-104084596D01*
X-118194592Y-103923676D01*
X-118176402Y-103910653D01*
X-118191388Y-103894013D01*
X-118274484Y-103804923D01*
X-118286473Y-103792418D01*
X-118300529Y-103802546D01*
X-118503101Y-103967807D01*
X-118518397Y-103981760D01*
X-118566075Y-103981760D01*
X-118572044Y-103975450D01*
X-118655132Y-103898807D01*
X-118745308Y-103815626D01*
X-118832755Y-103745392D01*
X-118776882Y-103745392D01*
X-118760242Y-103759242D01*
X-118669292Y-103836653D01*
X-118655132Y-103849468D01*
X-118641697Y-103835826D01*
X-118451424Y-103664674D01*
X-118432717Y-103650101D01*
X-118450287Y-103634184D01*
X-118542891Y-103552742D01*
X-118555500Y-103541890D01*
X-118568419Y-103552432D01*
X-118761690Y-103729992D01*
X-118776882Y-103745392D01*
X-118832755Y-103745392D01*
X-118927364Y-103669406D01*
X-118929065Y-103668039D01*
X-119120572Y-103534862D01*
X-119059655Y-103534862D01*
X-119040742Y-103547678D01*
X-118941937Y-103616201D01*
X-118927364Y-103626846D01*
X-118915272Y-103613411D01*
X-118736781Y-103427065D01*
X-118719521Y-103410736D01*
X-118738642Y-103396576D01*
X-118838791Y-103325056D01*
X-118852330Y-103315651D01*
X-118864112Y-103327123D01*
X-119044566Y-103517809D01*
X-119059655Y-103534862D01*
X-119120572Y-103534862D01*
X-119122533Y-103533498D01*
X-119213754Y-103479101D01*
X-119324927Y-103412808D01*
X-119431241Y-103359266D01*
X-119354624Y-103359266D01*
X-119334367Y-103370118D01*
X-119229154Y-103428822D01*
X-119213754Y-103437814D01*
X-119203006Y-103423551D01*
X-119036814Y-103226147D01*
X-119019451Y-103207957D01*
X-119041052Y-103195141D01*
X-119149159Y-103132819D01*
X-119162802Y-103125378D01*
X-119173447Y-103136747D01*
X-119340982Y-103340662D01*
X-119354624Y-103359266D01*
X-119431241Y-103359266D01*
X-119533735Y-103307648D01*
X-119535464Y-103306777D01*
X-119753361Y-103216211D01*
X-119771447Y-103207130D01*
X-119682770Y-103207130D01*
X-119660343Y-103216122D01*
X-119549238Y-103264388D01*
X-119533735Y-103271312D01*
X-119524434Y-103257153D01*
X-119362376Y-103053031D01*
X-119344082Y-103033497D01*
X-119367854Y-103021405D01*
X-119486606Y-102970039D01*
X-119499422Y-102965181D01*
X-119508517Y-102975413D01*
X-119593708Y-103078340D01*
X-119669747Y-103186873D01*
X-119682770Y-103207130D01*
X-119771447Y-103207130D01*
X-119871079Y-103157105D01*
X-119921951Y-103131563D01*
X-120060816Y-103038975D01*
X-120009882Y-103038975D01*
X-119995206Y-103050137D01*
X-119887512Y-103118867D01*
X-119871079Y-103127859D01*
X-119861054Y-103112046D01*
X-119706128Y-102909474D01*
X-119688765Y-102890043D01*
X-119711916Y-102878262D01*
X-119813305Y-102815629D01*
X-119827981Y-102804468D01*
X-119840280Y-102818110D01*
X-119999960Y-103023472D01*
X-120009882Y-103038975D01*
X-120060816Y-103038975D01*
X-120070448Y-103032553D01*
X-120212493Y-102878147D01*
X-120287697Y-102677178D01*
X-120284585Y-102461789D01*
X-120191680Y-102264124D01*
X-120048771Y-102135735D01*
X-119885429Y-102069434D01*
X-119709540Y-102052871D01*
X-119709435Y-102052782D01*
X-119563291Y-102072411D01*
G37*
G36*
X-118492972Y-107158526D02*
G01*
X-118492146Y-107548373D01*
X-118491527Y-107938013D01*
X-118590539Y-107938013D01*
X-118689655Y-107938013D01*
X-118689655Y-107811716D01*
X-118684696Y-107630228D01*
X-118678702Y-107565529D01*
X-118680147Y-107555918D01*
X-118689758Y-107573591D01*
X-118698750Y-107597362D01*
X-118725208Y-107664335D01*
X-118750530Y-107728827D01*
X-118762622Y-107760039D01*
X-118777298Y-107798487D01*
X-118786290Y-107821741D01*
X-118855226Y-107822360D01*
X-118924059Y-107822980D01*
X-118926435Y-107814298D01*
X-118932222Y-107797658D01*
X-118939974Y-107778434D01*
X-118953410Y-107743811D01*
X-118962608Y-107718387D01*
X-118970773Y-107697406D01*
X-118981108Y-107670327D01*
X-118987103Y-107654204D01*
X-119016455Y-107577930D01*
X-119028547Y-107556122D01*
X-119030616Y-107564701D01*
X-119023381Y-107647073D01*
X-119017800Y-107828974D01*
X-119018419Y-107937081D01*
X-119117431Y-107937081D01*
X-119216444Y-107937081D01*
X-119216444Y-107547957D01*
X-119216444Y-107158834D01*
X-119117741Y-107158834D01*
X-119018936Y-107158834D01*
X-119008911Y-107181055D01*
X-118993718Y-107216402D01*
X-118986897Y-107231594D01*
X-118979248Y-107248854D01*
X-118956408Y-107302391D01*
X-118925298Y-107374325D01*
X-118915480Y-107396752D01*
X-118905455Y-107419800D01*
X-118875379Y-107488426D01*
X-118868248Y-107505583D01*
X-118859359Y-107526460D01*
X-118854401Y-107536279D01*
X-118843859Y-107513128D01*
X-118833420Y-107488736D01*
X-118825359Y-107470133D01*
X-118817298Y-107451012D01*
X-118809339Y-107432202D01*
X-118798384Y-107407294D01*
X-118767791Y-107336601D01*
X-118759936Y-107318514D01*
X-118740403Y-107272005D01*
X-118731928Y-107252782D01*
X-118719319Y-107224463D01*
X-118707020Y-107195111D01*
X-118697098Y-107172373D01*
X-118691933Y-107159764D01*
X-118592404Y-107158213D01*
X-118592604Y-107158103D01*
X-118492972Y-107158526D01*
G37*
G36*
X-119335310Y-107434159D02*
G01*
X-119335929Y-107710525D01*
X-119340374Y-107732745D01*
X-119353500Y-107778220D01*
X-119361561Y-107796411D01*
X-119441557Y-107889635D01*
X-119564030Y-107942242D01*
X-119593589Y-107946999D01*
X-119716372Y-107944210D01*
X-119913052Y-107825561D01*
X-119945298Y-107761276D01*
X-119950879Y-107738331D01*
X-119956461Y-107718591D01*
X-119956461Y-107438608D01*
X-119956461Y-107158728D01*
X-119856829Y-107158199D01*
X-119757300Y-107157580D01*
X-119757300Y-107423507D01*
X-119756753Y-107657037D01*
X-119753061Y-107701836D01*
X-119728566Y-107740697D01*
X-119604646Y-107763124D01*
X-119537157Y-107692121D01*
X-119535493Y-107619202D01*
X-119534881Y-107418959D01*
X-119534987Y-107157580D01*
X-119434838Y-107157580D01*
X-119334781Y-107157484D01*
X-119335310Y-107434159D01*
G37*
G36*
X-117849187Y-107547847D02*
G01*
X-117849187Y-107938004D01*
X-118120075Y-107938004D01*
X-118390963Y-107938004D01*
X-118390963Y-107843953D01*
X-118390963Y-107750005D01*
X-118220120Y-107750005D01*
X-118049278Y-107750005D01*
X-118049278Y-107692335D01*
X-118049278Y-107634767D01*
X-118205961Y-107634767D01*
X-118362644Y-107634767D01*
X-118362644Y-107549914D01*
X-118362644Y-107464958D01*
X-118205961Y-107464958D01*
X-118049278Y-107464958D01*
X-118049278Y-107404290D01*
X-118049278Y-107343622D01*
X-118220120Y-107343728D01*
X-118390963Y-107343728D01*
X-118390344Y-107251227D01*
X-118389725Y-107158726D01*
X-118119353Y-107158196D01*
X-117849187Y-107157484D01*
X-117849187Y-107547847D01*
G37*
G36*
X-117254908Y-107157589D02*
G01*
X-117254908Y-107548883D01*
X-117254908Y-107937800D01*
X-117512567Y-107937800D01*
X-117770329Y-107937800D01*
X-117770434Y-107839718D01*
X-117770329Y-107741637D01*
X-117611682Y-107741637D01*
X-117453036Y-107741637D01*
X-117453036Y-107486665D01*
X-117453609Y-107235109D01*
X-117456549Y-107157486D01*
X-117456549Y-107157484D01*
X-117254908Y-107157589D01*
G37*
G36*
X-119674708Y-104053075D02*
G01*
X-119639610Y-104175574D01*
X-119661561Y-104365194D01*
X-119727728Y-104472480D01*
X-119886354Y-104390326D01*
X-119979496Y-104266188D01*
X-119863877Y-104140215D01*
X-119689385Y-104048631D01*
X-119689385Y-104048630D01*
X-119674708Y-104053075D01*
G37*
G36*
X-120275602Y-103948170D02*
G01*
X-120159831Y-104118686D01*
X-120121296Y-104245620D01*
X-120259161Y-104305872D01*
X-120424740Y-104334607D01*
X-120432616Y-104226089D01*
X-120376800Y-104033652D01*
X-120295653Y-103936388D01*
X-120275602Y-103948170D01*
G37*
G36*
X-119940170Y-104439436D02*
G01*
X-119883688Y-104648179D01*
X-119996324Y-104723743D01*
X-120138039Y-104758044D01*
X-120255304Y-104681220D01*
X-120349190Y-104571905D01*
X-120238822Y-104400956D01*
X-120059698Y-104267220D01*
X-119940170Y-104439436D01*
G37*
X-96770000Y-66905000D02*
X-96135000Y-66905000D01*
X-96770000Y-66270000D02*
X-96770000Y-66905000D01*
G36*
X-54744696Y-66318780D02*
G01*
X-54650810Y-66428095D01*
X-54761178Y-66599044D01*
X-54940302Y-66732780D01*
X-55059830Y-66560564D01*
X-55116312Y-66351821D01*
X-55003676Y-66276257D01*
X-54861961Y-66241956D01*
X-54744696Y-66318780D01*
G37*
G36*
X-54567384Y-66773911D02*
G01*
X-54623200Y-66966348D01*
X-54704347Y-67063612D01*
X-54724398Y-67051830D01*
X-54840169Y-66881314D01*
X-54878704Y-66754380D01*
X-54740839Y-66694128D01*
X-54575260Y-66665393D01*
X-54567384Y-66773911D01*
G37*
G36*
X-55113646Y-66609674D02*
G01*
X-55020504Y-66733812D01*
X-55136123Y-66859785D01*
X-55310615Y-66951369D01*
X-55310615Y-66951370D01*
X-55325292Y-66946925D01*
X-55360390Y-66824426D01*
X-55338439Y-66634806D01*
X-55272272Y-66527520D01*
X-55113646Y-66609674D01*
G37*
G36*
X-57229566Y-63160282D02*
G01*
X-57229671Y-63258363D01*
X-57388318Y-63258363D01*
X-57546964Y-63258363D01*
X-57546964Y-63513335D01*
X-57546391Y-63764891D01*
X-57543451Y-63842514D01*
X-57543451Y-63842516D01*
X-57745092Y-63842411D01*
X-57745092Y-63451117D01*
X-57745092Y-63062200D01*
X-57487433Y-63062200D01*
X-57229671Y-63062200D01*
X-57229566Y-63160282D01*
G37*
G36*
X-56609037Y-63156047D02*
G01*
X-56609037Y-63249995D01*
X-56779880Y-63249995D01*
X-56950722Y-63249995D01*
X-56950722Y-63307665D01*
X-56950722Y-63365233D01*
X-56794039Y-63365233D01*
X-56637356Y-63365233D01*
X-56637356Y-63450086D01*
X-56637356Y-63535042D01*
X-56794039Y-63535042D01*
X-56950722Y-63535042D01*
X-56950722Y-63595710D01*
X-56950722Y-63656378D01*
X-56779880Y-63656272D01*
X-56609037Y-63656272D01*
X-56609656Y-63748773D01*
X-56610275Y-63841274D01*
X-56880647Y-63841804D01*
X-57150813Y-63842516D01*
X-57150813Y-63452153D01*
X-57150813Y-63061996D01*
X-56879925Y-63061996D01*
X-56609037Y-63061996D01*
X-56609037Y-63156047D01*
G37*
G36*
X-55283628Y-63055790D02*
G01*
X-55086948Y-63174439D01*
X-55054702Y-63238724D01*
X-55049121Y-63261669D01*
X-55043539Y-63281409D01*
X-55043539Y-63561392D01*
X-55043539Y-63841272D01*
X-55143171Y-63841801D01*
X-55242700Y-63842420D01*
X-55242700Y-63576493D01*
X-55243247Y-63342963D01*
X-55246939Y-63298164D01*
X-55271434Y-63259303D01*
X-55395354Y-63236876D01*
X-55462843Y-63307879D01*
X-55464507Y-63380798D01*
X-55465119Y-63581041D01*
X-55465013Y-63842420D01*
X-55565162Y-63842420D01*
X-55665219Y-63842516D01*
X-55664690Y-63565841D01*
X-55664071Y-63289475D01*
X-55659626Y-63267255D01*
X-55646500Y-63221780D01*
X-55638439Y-63203589D01*
X-55558443Y-63110365D01*
X-55435970Y-63057758D01*
X-55406411Y-63053001D01*
X-55283628Y-63055790D01*
G37*
G36*
X-56310345Y-63188284D02*
G01*
X-56315304Y-63369772D01*
X-56321298Y-63434471D01*
X-56319853Y-63444082D01*
X-56310242Y-63426409D01*
X-56301250Y-63402638D01*
X-56274792Y-63335665D01*
X-56249470Y-63271173D01*
X-56237378Y-63239961D01*
X-56222702Y-63201513D01*
X-56213710Y-63178259D01*
X-56144774Y-63177640D01*
X-56075941Y-63177020D01*
X-56073565Y-63185702D01*
X-56067778Y-63202342D01*
X-56060026Y-63221566D01*
X-56046590Y-63256189D01*
X-56037392Y-63281613D01*
X-56029227Y-63302594D01*
X-56018892Y-63329673D01*
X-56012897Y-63345796D01*
X-55983545Y-63422070D01*
X-55971453Y-63443878D01*
X-55969384Y-63435299D01*
X-55976619Y-63352927D01*
X-55982200Y-63171026D01*
X-55981581Y-63062919D01*
X-55882569Y-63062919D01*
X-55783556Y-63062919D01*
X-55783556Y-63452043D01*
X-55783556Y-63841166D01*
X-55882259Y-63841166D01*
X-55981064Y-63841166D01*
X-55991089Y-63818945D01*
X-56006282Y-63783598D01*
X-56013103Y-63768406D01*
X-56020752Y-63751146D01*
X-56043592Y-63697609D01*
X-56074702Y-63625675D01*
X-56084520Y-63603248D01*
X-56094545Y-63580200D01*
X-56124621Y-63511574D01*
X-56131752Y-63494417D01*
X-56140641Y-63473540D01*
X-56145599Y-63463721D01*
X-56156141Y-63486872D01*
X-56166580Y-63511264D01*
X-56174641Y-63529867D01*
X-56182702Y-63548988D01*
X-56190661Y-63567798D01*
X-56201616Y-63592706D01*
X-56232209Y-63663399D01*
X-56240064Y-63681486D01*
X-56259597Y-63727995D01*
X-56268072Y-63747218D01*
X-56280681Y-63775537D01*
X-56292980Y-63804889D01*
X-56302902Y-63827627D01*
X-56308067Y-63840236D01*
X-56407596Y-63841787D01*
X-56407396Y-63841897D01*
X-56507028Y-63841474D01*
X-56507854Y-63451627D01*
X-56508473Y-63061987D01*
X-56409461Y-63061987D01*
X-56310345Y-63061987D01*
X-56310345Y-63188284D01*
G37*
G36*
X-54726569Y-63185708D02*
G01*
X-54725950Y-63309525D01*
X-54709827Y-63309948D01*
X-54693600Y-63310372D01*
X-54685435Y-63299830D01*
X-54658976Y-63263469D01*
X-54654223Y-63256938D01*
X-54628901Y-63222315D01*
X-54613605Y-63201335D01*
X-54587457Y-63165265D01*
X-54554074Y-63119892D01*
X-54523068Y-63077001D01*
X-54512113Y-63061911D01*
X-54388916Y-63061911D01*
X-54265720Y-63061911D01*
X-54279466Y-63079585D01*
X-54308404Y-63116172D01*
X-54326594Y-63139426D01*
X-54335896Y-63150795D01*
X-54366385Y-63189242D01*
X-54395531Y-63225932D01*
X-54408140Y-63241125D01*
X-54440076Y-63282156D01*
X-54465914Y-63314506D01*
X-54476250Y-63328975D01*
X-54472942Y-63330833D01*
X-54464869Y-63334985D01*
X-54418682Y-63358738D01*
X-54342924Y-63464262D01*
X-54326697Y-63577743D01*
X-54340754Y-63678512D01*
X-54348919Y-63699079D01*
X-54343544Y-63715822D01*
X-54350366Y-63799125D01*
X-54382953Y-63944342D01*
X-54422816Y-64054613D01*
X-54467981Y-64107116D01*
X-54558725Y-64149077D01*
X-54660114Y-64207059D01*
X-54724089Y-64339557D01*
X-54805428Y-64538925D01*
X-54889128Y-64742937D01*
X-54969863Y-64956677D01*
X-55007793Y-65114186D01*
X-55021849Y-65199660D01*
X-54917633Y-65328113D01*
X-54859307Y-65400003D01*
X-54734220Y-65598837D01*
X-54646261Y-65798724D01*
X-54595106Y-66002223D01*
X-54580429Y-66211897D01*
X-54471147Y-66348493D01*
X-54385542Y-66501944D01*
X-54331545Y-66698266D01*
X-54317086Y-66963479D01*
X-54273574Y-67082335D01*
X-54244325Y-67268267D01*
X-54242318Y-67460452D01*
X-54287424Y-67612845D01*
X-54307164Y-67625868D01*
X-54360391Y-67628863D01*
X-54600686Y-67536156D01*
X-54794473Y-67363143D01*
X-54970789Y-67374564D01*
X-55146090Y-67344046D01*
X-55366324Y-67228474D01*
X-55642698Y-67348025D01*
X-55844331Y-67342369D01*
X-55865105Y-67321388D01*
X-55865113Y-67296361D01*
X-55745520Y-67296361D01*
X-55587705Y-67274337D01*
X-55383682Y-67169753D01*
X-55355570Y-67166547D01*
X-55421131Y-67073535D01*
X-55333347Y-67070347D01*
X-55192479Y-67130890D01*
X-55008526Y-67194045D01*
X-54874773Y-67202100D01*
X-54727753Y-67237325D01*
X-54751679Y-67296771D01*
X-54775554Y-67303386D01*
X-54756847Y-67317338D01*
X-54569055Y-67485700D01*
X-54379518Y-67562693D01*
X-54533108Y-67395974D01*
X-54608436Y-67268561D01*
X-54454753Y-67144509D01*
X-54376719Y-66997879D01*
X-54324216Y-67132652D01*
X-54332071Y-67096582D01*
X-54372171Y-66983927D01*
X-54376923Y-66966770D01*
X-54389221Y-66706962D01*
X-54439721Y-66521109D01*
X-54522642Y-66377296D01*
X-54632205Y-66243610D01*
X-54637579Y-66234515D01*
X-54640162Y-66230896D01*
X-54750695Y-65953433D01*
X-54829710Y-65763139D01*
X-54883318Y-65648856D01*
X-54917633Y-65599427D01*
X-54938765Y-65603695D01*
X-54952829Y-65650503D01*
X-54965934Y-65728694D01*
X-54984195Y-65827110D01*
X-55013722Y-65934595D01*
X-55060629Y-66039991D01*
X-55131028Y-66132142D01*
X-55231030Y-66199890D01*
X-55333866Y-66278645D01*
X-55479990Y-66469853D01*
X-55571164Y-66711590D01*
X-55577676Y-66723475D01*
X-55667903Y-66837681D01*
X-55585737Y-66742286D01*
X-55562576Y-66926491D01*
X-55477216Y-67051104D01*
X-55590476Y-67195424D01*
X-55745520Y-67296361D01*
X-55865113Y-67296361D01*
X-55865169Y-67108405D01*
X-55774497Y-66890997D01*
X-55626463Y-66689179D01*
X-55557059Y-66501826D01*
X-55460479Y-66339433D01*
X-55465644Y-66340983D01*
X-55660399Y-66381504D01*
X-55871377Y-66376548D01*
X-56093059Y-66329276D01*
X-56319931Y-66242850D01*
X-56546477Y-66120431D01*
X-56767182Y-65965181D01*
X-56976528Y-65780261D01*
X-57169002Y-65568834D01*
X-57277771Y-65496343D01*
X-57289895Y-65576419D01*
X-57288479Y-65581672D01*
X-57250150Y-65723938D01*
X-57203315Y-65853778D01*
X-57158565Y-65956917D01*
X-57109461Y-66070090D01*
X-57000413Y-66279004D01*
X-56999918Y-66279810D01*
X-56876956Y-66479714D01*
X-56811092Y-66571818D01*
X-56739872Y-66671413D01*
X-56591984Y-66850818D01*
X-56589944Y-66853294D01*
X-56427956Y-67024550D01*
X-56344868Y-67101193D01*
X-56254692Y-67184374D01*
X-56072636Y-67330594D01*
X-56070935Y-67331961D01*
X-55877467Y-67466502D01*
X-55786246Y-67520899D01*
X-55675073Y-67587192D01*
X-55466265Y-67692352D01*
X-55464536Y-67693223D01*
X-55246639Y-67783789D01*
X-55128921Y-67842895D01*
X-55078049Y-67868437D01*
X-54929552Y-67967447D01*
X-54787507Y-68121853D01*
X-54712303Y-68322822D01*
X-54715415Y-68538211D01*
X-54808320Y-68735876D01*
X-54951229Y-68864265D01*
X-55114571Y-68930566D01*
X-55290460Y-68947129D01*
X-55290565Y-68947218D01*
X-55436709Y-68927589D01*
X-55563520Y-68869496D01*
X-55665326Y-68744833D01*
X-55630286Y-68592407D01*
X-55457468Y-68529433D01*
X-55274132Y-68570393D01*
X-55112178Y-68480166D01*
X-55128094Y-68289170D01*
X-55302655Y-68153647D01*
X-55401961Y-68109957D01*
X-55311235Y-68109957D01*
X-55288084Y-68121738D01*
X-55186695Y-68184371D01*
X-55172019Y-68195532D01*
X-55159720Y-68181890D01*
X-55000040Y-67976528D01*
X-54990118Y-67961025D01*
X-55004794Y-67949863D01*
X-55112488Y-67881133D01*
X-55128921Y-67872141D01*
X-55138946Y-67887954D01*
X-55293872Y-68090526D01*
X-55311235Y-68109957D01*
X-55401961Y-68109957D01*
X-55498391Y-68067532D01*
X-55688680Y-67988827D01*
X-55731435Y-67966503D01*
X-55655918Y-67966503D01*
X-55632146Y-67978595D01*
X-55513394Y-68029961D01*
X-55500578Y-68034819D01*
X-55491483Y-68024587D01*
X-55406292Y-67921660D01*
X-55330253Y-67813127D01*
X-55317230Y-67792870D01*
X-55339657Y-67783878D01*
X-55450762Y-67735612D01*
X-55466265Y-67728688D01*
X-55475566Y-67742847D01*
X-55637624Y-67946969D01*
X-55655918Y-67966503D01*
X-55731435Y-67966503D01*
X-55904951Y-67875903D01*
X-56042078Y-67792043D01*
X-55980549Y-67792043D01*
X-55958948Y-67804859D01*
X-55850841Y-67867181D01*
X-55837198Y-67874622D01*
X-55826553Y-67863253D01*
X-55659018Y-67659338D01*
X-55645376Y-67640734D01*
X-55665633Y-67629882D01*
X-55770846Y-67571178D01*
X-55786246Y-67562186D01*
X-55796994Y-67576449D01*
X-55963186Y-67773853D01*
X-55980549Y-67792043D01*
X-56042078Y-67792043D01*
X-56113097Y-67748611D01*
X-56312394Y-67607734D01*
X-56335197Y-67589264D01*
X-56280479Y-67589264D01*
X-56261358Y-67603424D01*
X-56161209Y-67674944D01*
X-56147670Y-67684349D01*
X-56135888Y-67672877D01*
X-55955434Y-67482191D01*
X-55940345Y-67465138D01*
X-55959258Y-67452322D01*
X-56058063Y-67383799D01*
X-56072636Y-67373154D01*
X-56084728Y-67386589D01*
X-56263219Y-67572935D01*
X-56280479Y-67589264D01*
X-56335197Y-67589264D01*
X-56502119Y-67454057D01*
X-56614912Y-67349899D01*
X-56567283Y-67349899D01*
X-56549713Y-67365816D01*
X-56457109Y-67447258D01*
X-56444500Y-67458110D01*
X-56431581Y-67447568D01*
X-56238310Y-67270008D01*
X-56223118Y-67254608D01*
X-56239758Y-67240758D01*
X-56330708Y-67163347D01*
X-56344868Y-67150532D01*
X-56358303Y-67164174D01*
X-56548576Y-67335326D01*
X-56567283Y-67349899D01*
X-56614912Y-67349899D01*
X-56681548Y-67288365D01*
X-56849959Y-67111442D01*
X-56868434Y-67089347D01*
X-56823598Y-67089347D01*
X-56808612Y-67105987D01*
X-56725516Y-67195077D01*
X-56713527Y-67207582D01*
X-56699471Y-67197454D01*
X-56496899Y-67032193D01*
X-56481603Y-67018240D01*
X-56496073Y-67003461D01*
X-56578548Y-66916748D01*
X-56591984Y-66901968D01*
X-56606763Y-66915404D01*
X-56805408Y-67076324D01*
X-56823598Y-67089347D01*
X-56868434Y-67089347D01*
X-57006628Y-66924073D01*
X-57097010Y-66800579D01*
X-57057072Y-66800579D01*
X-57044050Y-66818252D01*
X-56970049Y-66914990D01*
X-56959094Y-66928840D01*
X-56944004Y-66919745D01*
X-56729650Y-66771847D01*
X-56713527Y-66759444D01*
X-56726240Y-66743425D01*
X-56799103Y-66648443D01*
X-56811092Y-66632217D01*
X-56827215Y-66644413D01*
X-57038262Y-66789210D01*
X-57057072Y-66800579D01*
X-57097010Y-66800579D01*
X-57150830Y-66727042D01*
X-57281843Y-66521135D01*
X-57297125Y-66493207D01*
X-57258300Y-66493207D01*
X-57246931Y-66512225D01*
X-57182646Y-66616404D01*
X-57173137Y-66631287D01*
X-57157221Y-66623742D01*
X-56932325Y-66493311D01*
X-56915996Y-66482355D01*
X-56926744Y-66465923D01*
X-56989066Y-66363810D01*
X-56999918Y-66345620D01*
X-57017488Y-66357505D01*
X-57238250Y-66483906D01*
X-57258300Y-66493207D01*
X-57297125Y-66493207D01*
X-57398944Y-66307136D01*
X-57459699Y-66175914D01*
X-57424285Y-66175914D01*
X-57415500Y-66194518D01*
X-57362170Y-66304175D01*
X-57353592Y-66321021D01*
X-57336331Y-66313373D01*
X-57105545Y-66195758D01*
X-57088801Y-66186249D01*
X-57097587Y-66169196D01*
X-57149366Y-66062019D01*
X-57158565Y-66042382D01*
X-57177375Y-66053131D01*
X-57405371Y-66167646D01*
X-57424285Y-66175914D01*
X-57459699Y-66175914D01*
X-57501408Y-66085830D01*
X-57588513Y-65858001D01*
X-57594531Y-65836400D01*
X-57559780Y-65836400D01*
X-57553063Y-65855831D01*
X-57511204Y-65969932D01*
X-57509654Y-65973859D01*
X-57506453Y-65976960D01*
X-57497872Y-65985538D01*
X-57486297Y-65981818D01*
X-57244761Y-65889834D01*
X-57227501Y-65882186D01*
X-57234219Y-65864512D01*
X-57280624Y-65752582D01*
X-57288479Y-65733668D01*
X-57307186Y-65742143D01*
X-57540144Y-65830199D01*
X-57559780Y-65836400D01*
X-57594531Y-65836400D01*
X-57650712Y-65634762D01*
X-57698858Y-65401585D01*
X-57730880Y-65166112D01*
X-57744707Y-64935985D01*
X-57738271Y-64718845D01*
X-57696959Y-64504329D01*
X-57619779Y-64321355D01*
X-57507587Y-64171179D01*
X-57361612Y-64055324D01*
X-57183637Y-63974635D01*
X-57076559Y-63951349D01*
X-55904379Y-63951349D01*
X-55815720Y-64059361D01*
X-55809812Y-64098007D01*
X-55794679Y-64109600D01*
X-55678346Y-64136454D01*
X-55564554Y-64155987D01*
X-55564554Y-64155881D01*
X-55474637Y-64162186D01*
X-55474636Y-64162187D01*
X-55414071Y-64159398D01*
X-55358571Y-64126842D01*
X-55295732Y-64057182D01*
X-55290774Y-64032481D01*
X-55293150Y-64026797D01*
X-55904379Y-63951349D01*
X-57076559Y-63951349D01*
X-56975320Y-63929333D01*
X-56965811Y-63929651D01*
X-56687576Y-63885792D01*
X-56436126Y-63868857D01*
X-56210302Y-63874770D01*
X-55904379Y-63898171D01*
X-55896833Y-63898748D01*
X-55269481Y-63976159D01*
X-55251188Y-64080959D01*
X-55401979Y-64205292D01*
X-55529733Y-64207115D01*
X-55687750Y-64181831D01*
X-55901587Y-64198058D01*
X-56041837Y-64248701D01*
X-55952230Y-64318877D01*
X-55747613Y-64454753D01*
X-55586774Y-64589352D01*
X-55528483Y-64649607D01*
X-55503678Y-64613847D01*
X-55413968Y-64475147D01*
X-55265485Y-64248309D01*
X-55153614Y-64099319D01*
X-55113400Y-64059558D01*
X-55042828Y-64059558D01*
X-54804053Y-64070173D01*
X-54700317Y-64177277D01*
X-54579601Y-64105756D01*
X-54498469Y-64068756D01*
X-54470563Y-64035787D01*
X-54405761Y-63812131D01*
X-54395943Y-63734203D01*
X-54464869Y-63683390D01*
X-54502125Y-63731476D01*
X-54588686Y-63808081D01*
X-54805530Y-63842826D01*
X-54925811Y-63968417D01*
X-55042828Y-64059558D01*
X-55113400Y-64059558D01*
X-55068563Y-64015227D01*
X-54873123Y-63841387D01*
X-54926350Y-63841175D01*
X-54926572Y-63570596D01*
X-54726684Y-63570596D01*
X-54726155Y-63657515D01*
X-54660423Y-63657515D01*
X-54583528Y-63653896D01*
X-54524824Y-63598602D01*
X-54540636Y-63510546D01*
X-54581564Y-63484087D01*
X-54658976Y-63479129D01*
X-54726155Y-63480886D01*
X-54726684Y-63570596D01*
X-54926572Y-63570596D01*
X-54926667Y-63454119D01*
X-54926786Y-63179985D01*
X-54926350Y-63064479D01*
X-54926350Y-63064373D01*
X-54826304Y-63061891D01*
X-54727188Y-63061891D01*
X-54726569Y-63185708D01*
G37*
G36*
X-119940170Y-64439436D02*
G01*
X-119883688Y-64648179D01*
X-119996324Y-64723743D01*
X-120138039Y-64758044D01*
X-120255304Y-64681220D01*
X-120349190Y-64571905D01*
X-120238822Y-64400956D01*
X-120059698Y-64267220D01*
X-119940170Y-64439436D01*
G37*
G36*
X-120275602Y-63948170D02*
G01*
X-120159831Y-64118686D01*
X-120121296Y-64245620D01*
X-120259161Y-64305872D01*
X-120424740Y-64334607D01*
X-120432616Y-64226089D01*
X-120376800Y-64033652D01*
X-120295653Y-63936388D01*
X-120275602Y-63948170D01*
G37*
G36*
X-119674708Y-64053075D02*
G01*
X-119639610Y-64175574D01*
X-119661561Y-64365194D01*
X-119727728Y-64472480D01*
X-119886354Y-64390326D01*
X-119979496Y-64266188D01*
X-119863877Y-64140215D01*
X-119689385Y-64048631D01*
X-119689385Y-64048630D01*
X-119674708Y-64053075D01*
G37*
G36*
X-117254908Y-67157589D02*
G01*
X-117254908Y-67548883D01*
X-117254908Y-67937800D01*
X-117512567Y-67937800D01*
X-117770329Y-67937800D01*
X-117770434Y-67839718D01*
X-117770329Y-67741637D01*
X-117611682Y-67741637D01*
X-117453036Y-67741637D01*
X-117453036Y-67486665D01*
X-117453609Y-67235109D01*
X-117456549Y-67157486D01*
X-117456549Y-67157484D01*
X-117254908Y-67157589D01*
G37*
G36*
X-117849187Y-67547847D02*
G01*
X-117849187Y-67938004D01*
X-118120075Y-67938004D01*
X-118390963Y-67938004D01*
X-118390963Y-67843953D01*
X-118390963Y-67750005D01*
X-118220120Y-67750005D01*
X-118049278Y-67750005D01*
X-118049278Y-67692335D01*
X-118049278Y-67634767D01*
X-118205961Y-67634767D01*
X-118362644Y-67634767D01*
X-118362644Y-67549914D01*
X-118362644Y-67464958D01*
X-118205961Y-67464958D01*
X-118049278Y-67464958D01*
X-118049278Y-67404290D01*
X-118049278Y-67343622D01*
X-118220120Y-67343728D01*
X-118390963Y-67343728D01*
X-118390344Y-67251227D01*
X-118389725Y-67158726D01*
X-118119353Y-67158196D01*
X-117849187Y-67157484D01*
X-117849187Y-67547847D01*
G37*
G36*
X-119335310Y-67434159D02*
G01*
X-119335929Y-67710525D01*
X-119340374Y-67732745D01*
X-119353500Y-67778220D01*
X-119361561Y-67796411D01*
X-119441557Y-67889635D01*
X-119564030Y-67942242D01*
X-119593589Y-67946999D01*
X-119716372Y-67944210D01*
X-119913052Y-67825561D01*
X-119945298Y-67761276D01*
X-119950879Y-67738331D01*
X-119956461Y-67718591D01*
X-119956461Y-67438608D01*
X-119956461Y-67158728D01*
X-119856829Y-67158199D01*
X-119757300Y-67157580D01*
X-119757300Y-67423507D01*
X-119756753Y-67657037D01*
X-119753061Y-67701836D01*
X-119728566Y-67740697D01*
X-119604646Y-67763124D01*
X-119537157Y-67692121D01*
X-119535493Y-67619202D01*
X-119534881Y-67418959D01*
X-119534987Y-67157580D01*
X-119434838Y-67157580D01*
X-119334781Y-67157484D01*
X-119335310Y-67434159D01*
G37*
G36*
X-118492972Y-67158526D02*
G01*
X-118492146Y-67548373D01*
X-118491527Y-67938013D01*
X-118590539Y-67938013D01*
X-118689655Y-67938013D01*
X-118689655Y-67811716D01*
X-118684696Y-67630228D01*
X-118678702Y-67565529D01*
X-118680147Y-67555918D01*
X-118689758Y-67573591D01*
X-118698750Y-67597362D01*
X-118725208Y-67664335D01*
X-118750530Y-67728827D01*
X-118762622Y-67760039D01*
X-118777298Y-67798487D01*
X-118786290Y-67821741D01*
X-118855226Y-67822360D01*
X-118924059Y-67822980D01*
X-118926435Y-67814298D01*
X-118932222Y-67797658D01*
X-118939974Y-67778434D01*
X-118953410Y-67743811D01*
X-118962608Y-67718387D01*
X-118970773Y-67697406D01*
X-118981108Y-67670327D01*
X-118987103Y-67654204D01*
X-119016455Y-67577930D01*
X-119028547Y-67556122D01*
X-119030616Y-67564701D01*
X-119023381Y-67647073D01*
X-119017800Y-67828974D01*
X-119018419Y-67937081D01*
X-119117431Y-67937081D01*
X-119216444Y-67937081D01*
X-119216444Y-67547957D01*
X-119216444Y-67158834D01*
X-119117741Y-67158834D01*
X-119018936Y-67158834D01*
X-119008911Y-67181055D01*
X-118993718Y-67216402D01*
X-118986897Y-67231594D01*
X-118979248Y-67248854D01*
X-118956408Y-67302391D01*
X-118925298Y-67374325D01*
X-118915480Y-67396752D01*
X-118905455Y-67419800D01*
X-118875379Y-67488426D01*
X-118868248Y-67505583D01*
X-118859359Y-67526460D01*
X-118854401Y-67536279D01*
X-118843859Y-67513128D01*
X-118833420Y-67488736D01*
X-118825359Y-67470133D01*
X-118817298Y-67451012D01*
X-118809339Y-67432202D01*
X-118798384Y-67407294D01*
X-118767791Y-67336601D01*
X-118759936Y-67318514D01*
X-118740403Y-67272005D01*
X-118731928Y-67252782D01*
X-118719319Y-67224463D01*
X-118707020Y-67195111D01*
X-118697098Y-67172373D01*
X-118691933Y-67159764D01*
X-118592404Y-67158213D01*
X-118592604Y-67158103D01*
X-118492972Y-67158526D01*
G37*
G36*
X-119563291Y-62072411D02*
G01*
X-119436480Y-62130504D01*
X-119334674Y-62255167D01*
X-119369714Y-62407593D01*
X-119542532Y-62470567D01*
X-119725868Y-62429607D01*
X-119887822Y-62519834D01*
X-119871906Y-62710830D01*
X-119697345Y-62846353D01*
X-119501609Y-62932468D01*
X-119311320Y-63011173D01*
X-119095049Y-63124097D01*
X-118886903Y-63251389D01*
X-118687606Y-63392266D01*
X-118497881Y-63545943D01*
X-118318452Y-63711635D01*
X-118150041Y-63888558D01*
X-117993372Y-64075927D01*
X-117849170Y-64272958D01*
X-117718157Y-64478865D01*
X-117601056Y-64692864D01*
X-117498592Y-64914170D01*
X-117411487Y-65141999D01*
X-117349288Y-65365238D01*
X-117301142Y-65598415D01*
X-117269120Y-65833888D01*
X-117255293Y-66064015D01*
X-117261729Y-66281155D01*
X-117303041Y-66495671D01*
X-117380221Y-66678645D01*
X-117492413Y-66828821D01*
X-117638388Y-66944676D01*
X-117816363Y-67025365D01*
X-118024680Y-67070667D01*
X-118034189Y-67070349D01*
X-118312424Y-67114208D01*
X-118563874Y-67131143D01*
X-118789698Y-67125230D01*
X-119095621Y-67101829D01*
X-119103167Y-67101252D01*
X-119730519Y-67023841D01*
X-119740350Y-66967519D01*
X-119709226Y-66967519D01*
X-119706850Y-66973203D01*
X-119095621Y-67048651D01*
X-119184280Y-66940639D01*
X-119190188Y-66901993D01*
X-119205321Y-66890400D01*
X-119321654Y-66863546D01*
X-119435446Y-66844013D01*
X-119435446Y-66844119D01*
X-119525363Y-66837814D01*
X-119525364Y-66837813D01*
X-119585929Y-66840602D01*
X-119641429Y-66873158D01*
X-119704268Y-66942818D01*
X-119709226Y-66967519D01*
X-119740350Y-66967519D01*
X-119748812Y-66919041D01*
X-119598021Y-66794708D01*
X-119470267Y-66792885D01*
X-119312250Y-66818169D01*
X-119098413Y-66801942D01*
X-118958163Y-66751299D01*
X-119047770Y-66681123D01*
X-119252387Y-66545247D01*
X-119413226Y-66410648D01*
X-119471517Y-66350393D01*
X-119496322Y-66386153D01*
X-119586032Y-66524853D01*
X-119734515Y-66751691D01*
X-119846386Y-66900681D01*
X-119931437Y-66984773D01*
X-120126877Y-67158613D01*
X-120073650Y-67158825D01*
X-120073333Y-67545881D01*
X-120073214Y-67820015D01*
X-120073650Y-67935521D01*
X-120073650Y-67935627D01*
X-120173696Y-67938109D01*
X-120272812Y-67938109D01*
X-120273431Y-67814292D01*
X-120274050Y-67690475D01*
X-120290173Y-67690052D01*
X-120306400Y-67689628D01*
X-120314565Y-67700170D01*
X-120341024Y-67736531D01*
X-120345777Y-67743062D01*
X-120371099Y-67777685D01*
X-120386395Y-67798665D01*
X-120412543Y-67834735D01*
X-120445926Y-67880108D01*
X-120476932Y-67922999D01*
X-120487887Y-67938089D01*
X-120611084Y-67938089D01*
X-120734280Y-67938089D01*
X-120720534Y-67920415D01*
X-120691596Y-67883828D01*
X-120673406Y-67860574D01*
X-120664104Y-67849205D01*
X-120633615Y-67810758D01*
X-120604469Y-67774068D01*
X-120591860Y-67758875D01*
X-120559924Y-67717844D01*
X-120534086Y-67685494D01*
X-120523750Y-67671025D01*
X-120527058Y-67669167D01*
X-120535131Y-67665015D01*
X-120581318Y-67641262D01*
X-120657076Y-67535738D01*
X-120673303Y-67422257D01*
X-120670393Y-67401398D01*
X-120475176Y-67401398D01*
X-120459364Y-67489454D01*
X-120418436Y-67515913D01*
X-120341024Y-67520871D01*
X-120273845Y-67519114D01*
X-120273316Y-67429404D01*
X-120273845Y-67342485D01*
X-120339577Y-67342485D01*
X-120416472Y-67346104D01*
X-120475176Y-67401398D01*
X-120670393Y-67401398D01*
X-120659246Y-67321488D01*
X-120651081Y-67300921D01*
X-120656456Y-67284178D01*
X-120654951Y-67265797D01*
X-120604057Y-67265797D01*
X-120535131Y-67316610D01*
X-120497875Y-67268524D01*
X-120411314Y-67191919D01*
X-120194470Y-67157174D01*
X-120074189Y-67031583D01*
X-119957172Y-66940442D01*
X-120195947Y-66929827D01*
X-120299683Y-66822723D01*
X-120420399Y-66894244D01*
X-120501531Y-66931244D01*
X-120529437Y-66964213D01*
X-120594239Y-67187869D01*
X-120604057Y-67265797D01*
X-120654951Y-67265797D01*
X-120649634Y-67200875D01*
X-120617047Y-67055658D01*
X-120577184Y-66945387D01*
X-120532019Y-66892884D01*
X-120441275Y-66850923D01*
X-120339886Y-66792941D01*
X-120275911Y-66660443D01*
X-120194572Y-66461075D01*
X-120110872Y-66257063D01*
X-120030137Y-66043323D01*
X-119992207Y-65885814D01*
X-119978151Y-65800340D01*
X-120082367Y-65671887D01*
X-120140693Y-65599997D01*
X-120265780Y-65401163D01*
X-120353739Y-65201276D01*
X-120404894Y-64997777D01*
X-120419571Y-64788103D01*
X-120528853Y-64651507D01*
X-120614458Y-64498056D01*
X-120668455Y-64301734D01*
X-120682914Y-64036521D01*
X-120726426Y-63917665D01*
X-120734341Y-63867348D01*
X-120675784Y-63867348D01*
X-120667929Y-63903418D01*
X-120627829Y-64016073D01*
X-120623077Y-64033230D01*
X-120610779Y-64293038D01*
X-120560279Y-64478891D01*
X-120477358Y-64622704D01*
X-120367795Y-64756390D01*
X-120362421Y-64765485D01*
X-120359838Y-64769104D01*
X-120249305Y-65046567D01*
X-120170290Y-65236861D01*
X-120116682Y-65351144D01*
X-120082367Y-65400573D01*
X-120061235Y-65396305D01*
X-120047171Y-65349497D01*
X-120034066Y-65271306D01*
X-120015805Y-65172890D01*
X-119986278Y-65065405D01*
X-119939371Y-64960009D01*
X-119868972Y-64867858D01*
X-119768970Y-64800110D01*
X-119666134Y-64721355D01*
X-119520010Y-64530147D01*
X-119428836Y-64288410D01*
X-119422324Y-64276525D01*
X-119332097Y-64162319D01*
X-119414263Y-64257714D01*
X-119437424Y-64073509D01*
X-119522784Y-63948896D01*
X-119409524Y-63804576D01*
X-119254480Y-63703639D01*
X-119412295Y-63725663D01*
X-119616318Y-63830247D01*
X-119644430Y-63833453D01*
X-119578869Y-63926465D01*
X-119666653Y-63929653D01*
X-119807521Y-63869110D01*
X-119991474Y-63805955D01*
X-120125227Y-63797900D01*
X-120272247Y-63762675D01*
X-120248321Y-63703229D01*
X-120224446Y-63696614D01*
X-120243153Y-63682662D01*
X-120430945Y-63514300D01*
X-120620481Y-63437306D01*
X-120466892Y-63604026D01*
X-120391564Y-63731439D01*
X-120545247Y-63855491D01*
X-120623281Y-64002121D01*
X-120675784Y-63867348D01*
X-120734341Y-63867348D01*
X-120755675Y-63731733D01*
X-120757682Y-63539548D01*
X-120712576Y-63387155D01*
X-120692836Y-63374132D01*
X-120639609Y-63371137D01*
X-120399314Y-63463844D01*
X-120205527Y-63636857D01*
X-120029211Y-63625436D01*
X-119853910Y-63655954D01*
X-119633676Y-63771526D01*
X-119357302Y-63651975D01*
X-119155669Y-63657631D01*
X-119134895Y-63678612D01*
X-119134831Y-63891595D01*
X-119225503Y-64109003D01*
X-119373537Y-64310821D01*
X-119442941Y-64498174D01*
X-119539521Y-64660567D01*
X-119534356Y-64659017D01*
X-119339601Y-64618496D01*
X-119128623Y-64623452D01*
X-118906941Y-64670724D01*
X-118680069Y-64757150D01*
X-118453523Y-64879569D01*
X-118232818Y-65034819D01*
X-118023472Y-65219739D01*
X-117830998Y-65431166D01*
X-117722229Y-65503657D01*
X-117710105Y-65423581D01*
X-117711521Y-65418328D01*
X-117749850Y-65276062D01*
X-117796685Y-65146222D01*
X-117809011Y-65117814D01*
X-117772499Y-65117814D01*
X-117765781Y-65135488D01*
X-117719376Y-65247418D01*
X-117711521Y-65266332D01*
X-117692814Y-65257857D01*
X-117459856Y-65169801D01*
X-117440220Y-65163600D01*
X-117446937Y-65144169D01*
X-117488796Y-65030068D01*
X-117490346Y-65026141D01*
X-117493547Y-65023040D01*
X-117502128Y-65014462D01*
X-117513703Y-65018182D01*
X-117755239Y-65110166D01*
X-117772499Y-65117814D01*
X-117809011Y-65117814D01*
X-117841435Y-65043083D01*
X-117890539Y-64929910D01*
X-117951171Y-64813751D01*
X-117911199Y-64813751D01*
X-117902413Y-64830804D01*
X-117850634Y-64937981D01*
X-117841435Y-64957618D01*
X-117822625Y-64946869D01*
X-117594629Y-64832354D01*
X-117575715Y-64824086D01*
X-117584500Y-64805482D01*
X-117637830Y-64695825D01*
X-117646408Y-64678979D01*
X-117663669Y-64686627D01*
X-117894455Y-64804242D01*
X-117911199Y-64813751D01*
X-117951171Y-64813751D01*
X-117999587Y-64720996D01*
X-118000082Y-64720190D01*
X-118123044Y-64520286D01*
X-118124933Y-64517645D01*
X-118084004Y-64517645D01*
X-118073256Y-64534077D01*
X-118010934Y-64636190D01*
X-118000082Y-64654380D01*
X-117982512Y-64642495D01*
X-117761750Y-64516094D01*
X-117741700Y-64506793D01*
X-117753069Y-64487775D01*
X-117817354Y-64383596D01*
X-117826863Y-64368713D01*
X-117842779Y-64376258D01*
X-118067675Y-64506689D01*
X-118084004Y-64517645D01*
X-118124933Y-64517645D01*
X-118188908Y-64428182D01*
X-118260128Y-64328587D01*
X-118332694Y-64240556D01*
X-118286473Y-64240556D01*
X-118273760Y-64256575D01*
X-118200897Y-64351557D01*
X-118188908Y-64367783D01*
X-118172785Y-64355587D01*
X-117961738Y-64210790D01*
X-117942928Y-64199421D01*
X-117955950Y-64181748D01*
X-118029951Y-64085010D01*
X-118040906Y-64071160D01*
X-118055996Y-64080255D01*
X-118270350Y-64228153D01*
X-118286473Y-64240556D01*
X-118332694Y-64240556D01*
X-118408016Y-64149182D01*
X-118410056Y-64146706D01*
X-118566075Y-63981760D01*
X-118518397Y-63981760D01*
X-118503927Y-63996539D01*
X-118421452Y-64083252D01*
X-118408016Y-64098032D01*
X-118393237Y-64084596D01*
X-118194592Y-63923676D01*
X-118176402Y-63910653D01*
X-118191388Y-63894013D01*
X-118274484Y-63804923D01*
X-118286473Y-63792418D01*
X-118300529Y-63802546D01*
X-118503101Y-63967807D01*
X-118518397Y-63981760D01*
X-118566075Y-63981760D01*
X-118572044Y-63975450D01*
X-118655132Y-63898807D01*
X-118745308Y-63815626D01*
X-118832755Y-63745392D01*
X-118776882Y-63745392D01*
X-118760242Y-63759242D01*
X-118669292Y-63836653D01*
X-118655132Y-63849468D01*
X-118641697Y-63835826D01*
X-118451424Y-63664674D01*
X-118432717Y-63650101D01*
X-118450287Y-63634184D01*
X-118542891Y-63552742D01*
X-118555500Y-63541890D01*
X-118568419Y-63552432D01*
X-118761690Y-63729992D01*
X-118776882Y-63745392D01*
X-118832755Y-63745392D01*
X-118927364Y-63669406D01*
X-118929065Y-63668039D01*
X-119120572Y-63534862D01*
X-119059655Y-63534862D01*
X-119040742Y-63547678D01*
X-118941937Y-63616201D01*
X-118927364Y-63626846D01*
X-118915272Y-63613411D01*
X-118736781Y-63427065D01*
X-118719521Y-63410736D01*
X-118738642Y-63396576D01*
X-118838791Y-63325056D01*
X-118852330Y-63315651D01*
X-118864112Y-63327123D01*
X-119044566Y-63517809D01*
X-119059655Y-63534862D01*
X-119120572Y-63534862D01*
X-119122533Y-63533498D01*
X-119213754Y-63479101D01*
X-119324927Y-63412808D01*
X-119431241Y-63359266D01*
X-119354624Y-63359266D01*
X-119334367Y-63370118D01*
X-119229154Y-63428822D01*
X-119213754Y-63437814D01*
X-119203006Y-63423551D01*
X-119036814Y-63226147D01*
X-119019451Y-63207957D01*
X-119041052Y-63195141D01*
X-119149159Y-63132819D01*
X-119162802Y-63125378D01*
X-119173447Y-63136747D01*
X-119340982Y-63340662D01*
X-119354624Y-63359266D01*
X-119431241Y-63359266D01*
X-119533735Y-63307648D01*
X-119535464Y-63306777D01*
X-119753361Y-63216211D01*
X-119771447Y-63207130D01*
X-119682770Y-63207130D01*
X-119660343Y-63216122D01*
X-119549238Y-63264388D01*
X-119533735Y-63271312D01*
X-119524434Y-63257153D01*
X-119362376Y-63053031D01*
X-119344082Y-63033497D01*
X-119367854Y-63021405D01*
X-119486606Y-62970039D01*
X-119499422Y-62965181D01*
X-119508517Y-62975413D01*
X-119593708Y-63078340D01*
X-119669747Y-63186873D01*
X-119682770Y-63207130D01*
X-119771447Y-63207130D01*
X-119871079Y-63157105D01*
X-119921951Y-63131563D01*
X-120060816Y-63038975D01*
X-120009882Y-63038975D01*
X-119995206Y-63050137D01*
X-119887512Y-63118867D01*
X-119871079Y-63127859D01*
X-119861054Y-63112046D01*
X-119706128Y-62909474D01*
X-119688765Y-62890043D01*
X-119711916Y-62878262D01*
X-119813305Y-62815629D01*
X-119827981Y-62804468D01*
X-119840280Y-62818110D01*
X-119999960Y-63023472D01*
X-120009882Y-63038975D01*
X-120060816Y-63038975D01*
X-120070448Y-63032553D01*
X-120212493Y-62878147D01*
X-120287697Y-62677178D01*
X-120284585Y-62461789D01*
X-120191680Y-62264124D01*
X-120048771Y-62135735D01*
X-119885429Y-62069434D01*
X-119709540Y-62052871D01*
X-119709435Y-62052782D01*
X-119563291Y-62072411D01*
G37*
D11*
X-128000000Y-101500000D02*
X-128250000Y-101750000D01*
X-127750000Y-101750000D02*
X-128000000Y-101500000D01*
X-128250000Y-101750000D02*
X-127750000Y-101750000D01*
X-127500000Y-102000000D02*
X-127250000Y-102250000D01*
X-128500000Y-102000000D02*
X-127500000Y-102000000D01*
X-127250000Y-102250000D02*
X-127250000Y-103250000D01*
X-128750000Y-102250000D02*
X-128500000Y-102000000D01*
X-127250000Y-103250000D02*
X-127500000Y-103500000D01*
X-128750000Y-103250000D02*
X-128750000Y-102250000D01*
X-127500000Y-103500000D02*
X-127250000Y-103750000D01*
X-128250000Y-103500000D02*
X-127750000Y-103500000D01*
X-128500000Y-103500000D02*
X-128750000Y-103250000D01*
X-127250000Y-103750000D02*
X-127250000Y-104750000D01*
X-128750000Y-103750000D02*
X-128500000Y-103500000D01*
X-127250000Y-104750000D02*
X-127500000Y-105000000D01*
X-128750000Y-104750000D02*
X-128750000Y-103750000D01*
X-127500000Y-105000000D02*
X-127250000Y-105250000D01*
X-128250000Y-105000000D02*
X-127750000Y-105000000D01*
X-128500000Y-105000000D02*
X-128750000Y-104750000D01*
X-127250000Y-105250000D02*
X-127250000Y-106250000D01*
X-128750000Y-105250000D02*
X-128500000Y-105000000D01*
X-127250000Y-106250000D02*
X-127500000Y-106500000D01*
X-128750000Y-106250000D02*
X-128750000Y-105250000D01*
X-127500000Y-106500000D02*
X-127250000Y-106750000D01*
X-128250000Y-106500000D02*
X-127750000Y-106500000D01*
X-128500000Y-106500000D02*
X-128750000Y-106250000D01*
X-127250000Y-106750000D02*
X-127250000Y-107750000D01*
X-128750000Y-106750000D02*
X-128500000Y-106500000D01*
X-127250000Y-107750000D02*
X-127500000Y-108000000D01*
X-128750000Y-107750000D02*
X-128750000Y-106750000D01*
X-127500000Y-108000000D02*
X-128500000Y-108000000D01*
X-128500000Y-108000000D02*
X-128750000Y-107750000D01*
X-127500000Y-108250000D02*
X-127750000Y-108500000D01*
X-128500000Y-108250000D02*
X-128750000Y-108500000D01*
X-127250000Y-108500000D02*
X-127500000Y-108250000D01*
X-127750000Y-108500000D02*
X-127250000Y-108500000D01*
X-128250000Y-108500000D02*
X-128500000Y-108250000D01*
X-128750000Y-108500000D02*
X-128250000Y-108500000D01*
X-46250000Y-62500000D02*
X-46750000Y-62500000D01*
X-46750000Y-62500000D02*
X-46500000Y-62750000D01*
X-47250000Y-62500000D02*
X-47750000Y-62500000D01*
X-47750000Y-62500000D02*
X-47500000Y-62750000D01*
X-46500000Y-62750000D02*
X-46250000Y-62500000D01*
X-47500000Y-62750000D02*
X-47250000Y-62500000D01*
X-46500000Y-63000000D02*
X-46250000Y-63250000D01*
X-47500000Y-63000000D02*
X-46500000Y-63000000D01*
X-46250000Y-63250000D02*
X-46250000Y-64250000D01*
X-47750000Y-63250000D02*
X-47500000Y-63000000D01*
X-46250000Y-64250000D02*
X-46500000Y-64500000D01*
X-47750000Y-64250000D02*
X-47750000Y-63250000D01*
X-46500000Y-64500000D02*
X-46250000Y-64750000D01*
X-46750000Y-64500000D02*
X-47250000Y-64500000D01*
X-47500000Y-64500000D02*
X-47750000Y-64250000D01*
X-46250000Y-64750000D02*
X-46250000Y-65750000D01*
X-47750000Y-64750000D02*
X-47500000Y-64500000D01*
X-46250000Y-65750000D02*
X-46500000Y-66000000D01*
X-47750000Y-65750000D02*
X-47750000Y-64750000D01*
X-46500000Y-66000000D02*
X-46250000Y-66250000D01*
X-46750000Y-66000000D02*
X-47250000Y-66000000D01*
X-47500000Y-66000000D02*
X-47750000Y-65750000D01*
X-46250000Y-66250000D02*
X-46250000Y-67250000D01*
X-47750000Y-66250000D02*
X-47500000Y-66000000D01*
X-46250000Y-67250000D02*
X-46500000Y-67500000D01*
X-47750000Y-67250000D02*
X-47750000Y-66250000D01*
X-46500000Y-67500000D02*
X-46250000Y-67750000D01*
X-46750000Y-67500000D02*
X-47250000Y-67500000D01*
X-47500000Y-67500000D02*
X-47750000Y-67250000D01*
X-46250000Y-67750000D02*
X-46250000Y-68750000D01*
X-47750000Y-67750000D02*
X-47500000Y-67500000D01*
X-46250000Y-68750000D02*
X-46500000Y-69000000D01*
X-47750000Y-68750000D02*
X-47750000Y-67750000D01*
X-46500000Y-69000000D02*
X-47500000Y-69000000D01*
X-47500000Y-69000000D02*
X-47750000Y-68750000D01*
X-46750000Y-69250000D02*
X-47250000Y-69250000D01*
X-47250000Y-69250000D02*
X-47000000Y-69500000D01*
X-47000000Y-69500000D02*
X-46750000Y-69250000D01*
M02*
