G04 #@! TF.GenerationSoftware,KiCad,Pcbnew,7.0.4-40-g0180cb380f*
G04 #@! TF.CreationDate,2023-06-23T20:45:51-07:00*
G04 #@! TF.ProjectId,RobotOwl,526f626f-744f-4776-9c2e-6b696361645f,rev?*
G04 #@! TF.SameCoordinates,Original*
G04 #@! TF.FileFunction,Copper,L2,Bot*
G04 #@! TF.FilePolarity,Positive*
%FSLAX46Y46*%
G04 Gerber Fmt 4.6, Leading zero omitted, Abs format (unit mm)*
G04 Created by KiCad (PCBNEW 7.0.4-40-g0180cb380f) date 2023-06-23 20:45:51*
%MOMM*%
%LPD*%
G01*
G04 APERTURE LIST*
G04 #@! TA.AperFunction,ComponentPad*
%ADD10R,1.524000X1.524000*%
G04 #@! TD*
G04 #@! TA.AperFunction,ComponentPad*
%ADD11C,1.524000*%
G04 #@! TD*
G04 #@! TA.AperFunction,ComponentPad*
%ADD12R,1.700000X1.700000*%
G04 #@! TD*
G04 #@! TA.AperFunction,ComponentPad*
%ADD13O,1.700000X1.700000*%
G04 #@! TD*
G04 #@! TA.AperFunction,ComponentPad*
%ADD14C,0.800000*%
G04 #@! TD*
G04 #@! TA.AperFunction,ComponentPad*
%ADD15C,5.400000*%
G04 #@! TD*
G04 #@! TA.AperFunction,ViaPad*
%ADD16C,0.900000*%
G04 #@! TD*
G04 #@! TA.AperFunction,ViaPad*
%ADD17C,0.700000*%
G04 #@! TD*
G04 #@! TA.AperFunction,Conductor*
%ADD18C,0.500000*%
G04 #@! TD*
G04 #@! TA.AperFunction,Conductor*
%ADD19C,0.200000*%
G04 #@! TD*
G04 APERTURE END LIST*
D10*
X134760000Y-63902500D03*
X137300000Y-63902500D03*
D11*
X134760000Y-66442500D03*
X137300000Y-66442500D03*
X134760000Y-68982500D03*
X137300000Y-68982500D03*
X134760000Y-71522500D03*
X137300000Y-71522500D03*
X134760000Y-74062500D03*
X137300000Y-74062500D03*
X134760000Y-76602500D03*
X137300000Y-76602500D03*
X134760000Y-79142500D03*
X137300000Y-79142500D03*
X134760000Y-81682500D03*
X137300000Y-81682500D03*
X134760000Y-84222500D03*
X137300000Y-84222500D03*
X134760000Y-86762500D03*
X137300000Y-86762500D03*
X134760000Y-89302500D03*
X137300000Y-89302500D03*
X134760000Y-91842500D03*
X137300000Y-91842500D03*
X134760000Y-94382500D03*
X137300000Y-94382500D03*
X134760000Y-96922500D03*
X137300000Y-96922500D03*
X134760000Y-99462500D03*
X137300000Y-99462500D03*
X134760000Y-102002500D03*
X137300000Y-102002500D03*
X134760000Y-104542500D03*
X137300000Y-104542500D03*
X134760000Y-107082500D03*
X137300000Y-107082500D03*
X134760000Y-109622500D03*
X137300000Y-109622500D03*
X134760000Y-112162500D03*
X137300000Y-112162500D03*
X162700000Y-112162500D03*
X165240000Y-112162500D03*
X162700000Y-109622500D03*
X165240000Y-109622500D03*
X162700000Y-107082500D03*
X165240000Y-107082500D03*
X162700000Y-104542500D03*
X165240000Y-104542500D03*
X162700000Y-102002500D03*
X165240000Y-102002500D03*
X162700000Y-99462500D03*
X165240000Y-99462500D03*
X162700000Y-96922500D03*
X165240000Y-96922500D03*
X162700000Y-94382500D03*
X165240000Y-94382500D03*
X162700000Y-91842500D03*
X165240000Y-91842500D03*
X162700000Y-89302500D03*
X165240000Y-89302500D03*
X162700000Y-86762500D03*
X165240000Y-86762500D03*
X162700000Y-84222500D03*
X165240000Y-84222500D03*
X162700000Y-81682500D03*
X165240000Y-81682500D03*
X162700000Y-79142500D03*
X165240000Y-79142500D03*
X162700000Y-76602500D03*
X165240000Y-76602500D03*
X162700000Y-74062500D03*
X165240000Y-74062500D03*
X162700000Y-71522500D03*
X165240000Y-71522500D03*
X162700000Y-68982500D03*
X165240000Y-68982500D03*
X162700000Y-66442500D03*
X165240000Y-66442500D03*
X162700000Y-63902500D03*
X165240000Y-63902500D03*
D12*
X152475000Y-138000000D03*
D13*
X155015000Y-138000000D03*
X157555000Y-138000000D03*
D12*
X142460000Y-138000000D03*
D13*
X145000000Y-138000000D03*
X147540000Y-138000000D03*
D14*
X122975000Y-125000000D03*
X123568109Y-123568109D03*
X123568109Y-126431891D03*
X125000000Y-122975000D03*
D15*
X125000000Y-125000000D03*
D14*
X125000000Y-127025000D03*
X126431891Y-123568109D03*
X126431891Y-126431891D03*
X127025000Y-125000000D03*
X122975000Y-75000000D03*
X123568109Y-73568109D03*
X123568109Y-76431891D03*
X125000000Y-72975000D03*
D15*
X125000000Y-75000000D03*
D14*
X125000000Y-77025000D03*
X126431891Y-73568109D03*
X126431891Y-76431891D03*
X127025000Y-75000000D03*
X172975000Y-125000000D03*
X173568109Y-123568109D03*
X173568109Y-126431891D03*
X175000000Y-122975000D03*
D15*
X175000000Y-125000000D03*
D14*
X175000000Y-127025000D03*
X176431891Y-123568109D03*
X176431891Y-126431891D03*
X177025000Y-125000000D03*
D12*
X112475000Y-90000000D03*
D13*
X115015000Y-90000000D03*
X117555000Y-90000000D03*
D12*
X186000000Y-98460000D03*
D13*
X186000000Y-101000000D03*
D14*
X172975000Y-75000000D03*
X173568109Y-73568109D03*
X173568109Y-76431891D03*
X175000000Y-72975000D03*
D15*
X175000000Y-75000000D03*
D14*
X175000000Y-77025000D03*
X176431891Y-73568109D03*
X176431891Y-76431891D03*
X177025000Y-75000000D03*
D16*
X155750000Y-119000000D03*
X145000000Y-53000000D03*
X158000000Y-110000000D03*
X194875000Y-83369000D03*
X119453000Y-136840000D03*
X102822000Y-91966000D03*
X128000000Y-113000000D03*
X145000000Y-110000000D03*
X146750000Y-119000000D03*
X152750000Y-119000000D03*
X113160000Y-69453000D03*
X186840000Y-130547000D03*
X141966000Y-147178000D03*
X118000000Y-113000000D03*
X152000000Y-110000000D03*
X156000000Y-110000000D03*
X144750000Y-119000000D03*
X158034000Y-52822000D03*
X166631000Y-144875000D03*
X149500000Y-119000000D03*
X180000000Y-102000000D03*
X175000000Y-102000000D03*
X197178000Y-108034000D03*
X105125000Y-116631000D03*
X118000000Y-110000000D03*
X180547000Y-63160000D03*
X133369000Y-55125000D03*
X143000000Y-110000000D03*
D17*
X181500000Y-101000000D03*
X178500000Y-100000000D03*
D16*
X141000000Y-112000000D03*
D17*
X160000000Y-60000000D03*
X178500000Y-101000000D03*
D16*
X142339116Y-53339116D03*
X158000000Y-115000000D03*
X132000000Y-113000000D03*
D18*
X156000000Y-110000000D02*
X155750000Y-110250000D01*
X144750000Y-119000000D02*
X146750000Y-119000000D01*
X145000000Y-110000000D02*
X144750000Y-110250000D01*
X118000000Y-113000000D02*
X128000000Y-113000000D01*
X146750000Y-119000000D02*
X149500000Y-119000000D01*
X144750000Y-110250000D02*
X144750000Y-119000000D01*
X143000000Y-110000000D02*
X145000000Y-110000000D01*
X152000000Y-110000000D02*
X156000000Y-110000000D01*
X149500000Y-119000000D02*
X152750000Y-119000000D01*
X155750000Y-110250000D02*
X155750000Y-119000000D01*
X152750000Y-119000000D02*
X155750000Y-119000000D01*
X156000000Y-110000000D02*
X158000000Y-110000000D01*
D19*
X181500000Y-98500000D02*
X179500000Y-96500000D01*
X166600000Y-71600000D02*
X165240000Y-71600000D01*
X181500000Y-101000000D02*
X181500000Y-98500000D01*
X179500000Y-96500000D02*
X179500000Y-84500000D01*
X179500000Y-84500000D02*
X166600000Y-71600000D01*
X178500000Y-100000000D02*
X178500000Y-85000000D01*
X178500000Y-85000000D02*
X167640000Y-74140000D01*
X167640000Y-74140000D02*
X165240000Y-74140000D01*
D18*
X139980000Y-63980000D02*
X137300000Y-63980000D01*
X141000000Y-65000000D02*
X139980000Y-63980000D01*
X141000000Y-112000000D02*
X141000000Y-65000000D01*
D19*
X161540000Y-99540000D02*
X162700000Y-99540000D01*
X160000000Y-98000000D02*
X161540000Y-99540000D01*
X160000000Y-60000000D02*
X160000000Y-98000000D01*
X169180000Y-76680000D02*
X177500000Y-85000000D01*
X177500000Y-100000000D02*
X177500000Y-85000000D01*
X169180000Y-76680000D02*
X165240000Y-76680000D01*
X178500000Y-101000000D02*
X177500000Y-100000000D01*
X139660884Y-53339116D02*
X115015000Y-77985000D01*
X115015000Y-77985000D02*
X115015000Y-90000000D01*
X142339116Y-53339116D02*
X139660884Y-53339116D01*
D18*
X158000000Y-119000000D02*
X158000000Y-115000000D01*
X144000000Y-121000000D02*
X156000000Y-121000000D01*
X137000000Y-114000000D02*
X144000000Y-121000000D01*
X132000000Y-113000000D02*
X133000000Y-114000000D01*
X133000000Y-114000000D02*
X137000000Y-114000000D01*
X156000000Y-121000000D02*
X158000000Y-119000000D01*
G04 #@! TA.AperFunction,Conductor*
G36*
X150708094Y-50015524D02*
G01*
X152121005Y-50055524D01*
X152122257Y-50055578D01*
X153533510Y-50135548D01*
X153534755Y-50135636D01*
X154943217Y-50255514D01*
X154944463Y-50255638D01*
X156348887Y-50415316D01*
X156350224Y-50415488D01*
X157749579Y-50614848D01*
X157750873Y-50615052D01*
X159143998Y-50853927D01*
X159145315Y-50854172D01*
X160531110Y-51132373D01*
X160532423Y-51132657D01*
X160906944Y-51218936D01*
X161909760Y-51449956D01*
X161911088Y-51450282D01*
X163278910Y-51806435D01*
X163280232Y-51806799D01*
X164637451Y-52201524D01*
X164638716Y-52201913D01*
X165740727Y-52556532D01*
X165983378Y-52634616D01*
X165984171Y-52634871D01*
X165985498Y-52635319D01*
X167318226Y-53106201D01*
X167319406Y-53106637D01*
X168638298Y-53615055D01*
X168639491Y-53615534D01*
X169943475Y-54161076D01*
X169944667Y-54161594D01*
X171232625Y-54743788D01*
X171233893Y-54744383D01*
X172504844Y-55362784D01*
X172506095Y-55363415D01*
X173759010Y-56017519D01*
X173760242Y-56018185D01*
X174994207Y-56707520D01*
X174995287Y-56708143D01*
X176209314Y-57432159D01*
X176210414Y-57432837D01*
X177403396Y-58190873D01*
X177404531Y-58191617D01*
X178544565Y-58962147D01*
X178575558Y-58983094D01*
X178576707Y-58983895D01*
X179724838Y-59808171D01*
X179725965Y-59809004D01*
X180850313Y-60665445D01*
X180851416Y-60666309D01*
X181951091Y-61554235D01*
X181952168Y-61555130D01*
X183026268Y-62473814D01*
X183027320Y-62474739D01*
X184074990Y-63423449D01*
X184076015Y-63424404D01*
X184782760Y-64101763D01*
X184982689Y-64293380D01*
X185096435Y-64402396D01*
X185097422Y-64403370D01*
X186089736Y-65409827D01*
X186090682Y-65410815D01*
X187054137Y-66444971D01*
X187055078Y-66446009D01*
X187988868Y-67507002D01*
X187989779Y-67508067D01*
X188893173Y-68595062D01*
X188894054Y-68596152D01*
X189766315Y-69708265D01*
X189767164Y-69709379D01*
X189927498Y-69926164D01*
X190573963Y-70800243D01*
X190607613Y-70845740D01*
X190608430Y-70846879D01*
X191416388Y-72006574D01*
X191417173Y-72007735D01*
X192191990Y-73189832D01*
X192192730Y-73190997D01*
X192933792Y-74394558D01*
X192934477Y-74395708D01*
X193641194Y-75619778D01*
X193641877Y-75621001D01*
X194313640Y-76864521D01*
X194314288Y-76865763D01*
X194950598Y-78127807D01*
X194951211Y-78129067D01*
X195551559Y-79408629D01*
X195552136Y-79409906D01*
X196116034Y-80705947D01*
X196116575Y-80707239D01*
X196643559Y-82018691D01*
X196644063Y-82019998D01*
X196833074Y-82531778D01*
X197133731Y-83345855D01*
X197134197Y-83347176D01*
X197586140Y-84686336D01*
X197586569Y-84687670D01*
X198000450Y-86039128D01*
X198000841Y-86040474D01*
X198376298Y-87403063D01*
X198376651Y-87404419D01*
X198713405Y-88777111D01*
X198713719Y-88778476D01*
X198826656Y-89302503D01*
X199009689Y-90151778D01*
X199011494Y-90160150D01*
X199011768Y-90161523D01*
X199270328Y-91551096D01*
X199270552Y-91552404D01*
X199489682Y-92948728D01*
X199489879Y-92950115D01*
X199669402Y-94352031D01*
X199669560Y-94353423D01*
X199809344Y-95759918D01*
X199809463Y-95761314D01*
X199909383Y-97171125D01*
X199909462Y-97172523D01*
X199969450Y-98584664D01*
X199969489Y-98586065D01*
X199989490Y-99999296D01*
X199989490Y-100000704D01*
X199969489Y-101413934D01*
X199969450Y-101415335D01*
X199909462Y-102827476D01*
X199909383Y-102828874D01*
X199809463Y-104238685D01*
X199809344Y-104240081D01*
X199669560Y-105646576D01*
X199669402Y-105647968D01*
X199489879Y-107049884D01*
X199489682Y-107051271D01*
X199270552Y-108447595D01*
X199270326Y-108448915D01*
X199089034Y-109423231D01*
X199011769Y-109838475D01*
X199011494Y-109839849D01*
X198713719Y-111221523D01*
X198713405Y-111222888D01*
X198376651Y-112595580D01*
X198376298Y-112596936D01*
X198000841Y-113959525D01*
X198000450Y-113960871D01*
X197586569Y-115312329D01*
X197586140Y-115313663D01*
X197134197Y-116652823D01*
X197133731Y-116654144D01*
X196644063Y-117980001D01*
X196643559Y-117981308D01*
X196116575Y-119292760D01*
X196116034Y-119294052D01*
X195552136Y-120590093D01*
X195551559Y-120591370D01*
X194951211Y-121870932D01*
X194950598Y-121872192D01*
X194314288Y-123134236D01*
X194313640Y-123135478D01*
X193641877Y-124378998D01*
X193641194Y-124380221D01*
X192934477Y-125604291D01*
X192933773Y-125605471D01*
X192886341Y-125682507D01*
X192192741Y-126808985D01*
X192191990Y-126810167D01*
X191417173Y-127992264D01*
X191416388Y-127993425D01*
X190608430Y-129153120D01*
X190607613Y-129154259D01*
X189767164Y-130290620D01*
X189766315Y-130291734D01*
X188894054Y-131403847D01*
X188893173Y-131404937D01*
X187989779Y-132491932D01*
X187988868Y-132492997D01*
X187055078Y-133553990D01*
X187054137Y-133555028D01*
X186090682Y-134589184D01*
X186089713Y-134590196D01*
X185097432Y-135596619D01*
X185096435Y-135597603D01*
X184076015Y-136575595D01*
X184074990Y-136576550D01*
X183027320Y-137525260D01*
X183026268Y-137526185D01*
X181952168Y-138444869D01*
X181951091Y-138445764D01*
X180851416Y-139333690D01*
X180850313Y-139334554D01*
X179725965Y-140190995D01*
X179724838Y-140191828D01*
X178576707Y-141016104D01*
X178575558Y-141016905D01*
X177404544Y-141808373D01*
X177403372Y-141809141D01*
X176210447Y-142567142D01*
X176209263Y-142567870D01*
X174995340Y-143291824D01*
X174994147Y-143292514D01*
X173760242Y-143981814D01*
X173759010Y-143982480D01*
X172506095Y-144636584D01*
X172504844Y-144637215D01*
X171233893Y-145255616D01*
X171232625Y-145256211D01*
X169944694Y-145838393D01*
X169943409Y-145838952D01*
X168639562Y-146384436D01*
X168638262Y-146384958D01*
X167319477Y-146893335D01*
X167318162Y-146893821D01*
X165985498Y-147364680D01*
X165984171Y-147365128D01*
X164638716Y-147798086D01*
X164637389Y-147798493D01*
X164409257Y-147864842D01*
X163280260Y-148193192D01*
X163278910Y-148193564D01*
X161911088Y-148549717D01*
X161909727Y-148550051D01*
X160532423Y-148867342D01*
X160531053Y-148867638D01*
X159145338Y-149145822D01*
X159143960Y-149146079D01*
X157750879Y-149384946D01*
X157749513Y-149385161D01*
X157286155Y-149451173D01*
X156350255Y-149584507D01*
X156348865Y-149584685D01*
X154944520Y-149744355D01*
X154943149Y-149744491D01*
X153534825Y-149864357D01*
X153533439Y-149864455D01*
X152975486Y-149896072D01*
X152122318Y-149944418D01*
X152120936Y-149944477D01*
X150708094Y-149984475D01*
X150706706Y-149984495D01*
X149293294Y-149984495D01*
X149291905Y-149984475D01*
X147879060Y-149944477D01*
X147877681Y-149944418D01*
X147319735Y-149912801D01*
X146466555Y-149864455D01*
X146465179Y-149864357D01*
X145056844Y-149744491D01*
X145055479Y-149744355D01*
X143651134Y-149584685D01*
X143649744Y-149584507D01*
X142952417Y-149485162D01*
X142250476Y-149385159D01*
X142249120Y-149384946D01*
X140856039Y-149146079D01*
X140854661Y-149145822D01*
X139468946Y-148867638D01*
X139467576Y-148867342D01*
X138090272Y-148550051D01*
X138088911Y-148549717D01*
X136721089Y-148193564D01*
X136719739Y-148193192D01*
X136210977Y-148045227D01*
X135899958Y-147954772D01*
X149165828Y-147954772D01*
X149175608Y-148135149D01*
X149175609Y-148135157D01*
X149223935Y-148309208D01*
X149223938Y-148309217D01*
X149308547Y-148468808D01*
X149308550Y-148468812D01*
X149308551Y-148468814D01*
X149425498Y-148606494D01*
X149425499Y-148606495D01*
X149425501Y-148606497D01*
X149502532Y-148665054D01*
X149569308Y-148715816D01*
X149733256Y-148791667D01*
X149909678Y-148830500D01*
X150045028Y-148830500D01*
X150179586Y-148815866D01*
X150350774Y-148758186D01*
X150505561Y-148665054D01*
X150636708Y-148540825D01*
X150738083Y-148391307D01*
X150804947Y-148223492D01*
X150834172Y-148045227D01*
X150824392Y-147864848D01*
X150776064Y-147690788D01*
X150776061Y-147690782D01*
X150691452Y-147531191D01*
X150691450Y-147531189D01*
X150691449Y-147531186D01*
X150574502Y-147393506D01*
X150574500Y-147393504D01*
X150574498Y-147393502D01*
X150430693Y-147284185D01*
X150430692Y-147284184D01*
X150339116Y-147241816D01*
X150266747Y-147208334D01*
X150266745Y-147208333D01*
X150231459Y-147200566D01*
X150090322Y-147169500D01*
X150090318Y-147169500D01*
X149954972Y-147169500D01*
X149820411Y-147184134D01*
X149649228Y-147241813D01*
X149649222Y-147241816D01*
X149494442Y-147334943D01*
X149363291Y-147459175D01*
X149261918Y-147608689D01*
X149229207Y-147690788D01*
X149195053Y-147776508D01*
X149191481Y-147798297D01*
X149165828Y-147954772D01*
X135899958Y-147954772D01*
X135362591Y-147798487D01*
X135361283Y-147798086D01*
X134015828Y-147365128D01*
X134014501Y-147364680D01*
X133123674Y-147049931D01*
X132681812Y-146893811D01*
X132680553Y-146893346D01*
X131361738Y-146384958D01*
X131360473Y-146384450D01*
X130056558Y-145838938D01*
X130055305Y-145838393D01*
X128767374Y-145256211D01*
X128766106Y-145255616D01*
X127495155Y-144637215D01*
X127493904Y-144636584D01*
X126240989Y-143982480D01*
X126239757Y-143981814D01*
X125709274Y-143685469D01*
X125005814Y-143292492D01*
X125004689Y-143291842D01*
X123790704Y-142567852D01*
X123789552Y-142567142D01*
X122596627Y-141809141D01*
X122595455Y-141808373D01*
X121424441Y-141016905D01*
X121423292Y-141016104D01*
X120275161Y-140191828D01*
X120274034Y-140190995D01*
X119149686Y-139334554D01*
X119148583Y-139333690D01*
X118580584Y-138875063D01*
X141355500Y-138875063D01*
X141355501Y-138875070D01*
X141370265Y-138949300D01*
X141370266Y-138949302D01*
X141426513Y-139033480D01*
X141426516Y-139033484D01*
X141510699Y-139089734D01*
X141584933Y-139104500D01*
X143335066Y-139104499D01*
X143409301Y-139089734D01*
X143493484Y-139033484D01*
X143549734Y-138949301D01*
X143564500Y-138875067D01*
X143564499Y-138000000D01*
X143890768Y-138000000D01*
X143909655Y-138203822D01*
X143945783Y-138330798D01*
X143965672Y-138400701D01*
X144056912Y-138583935D01*
X144180268Y-138747285D01*
X144331538Y-138885186D01*
X144505573Y-138992944D01*
X144696444Y-139066888D01*
X144897653Y-139104500D01*
X145102347Y-139104500D01*
X145303556Y-139066888D01*
X145494427Y-138992944D01*
X145668462Y-138885186D01*
X145819732Y-138747285D01*
X145943088Y-138583935D01*
X146034328Y-138400701D01*
X146090345Y-138203821D01*
X146099966Y-138100000D01*
X146494767Y-138100000D01*
X146505190Y-138205831D01*
X146505191Y-138205836D01*
X146565232Y-138403762D01*
X146565234Y-138403767D01*
X146662724Y-138586160D01*
X146662731Y-138586170D01*
X146793940Y-138746050D01*
X146793949Y-138746059D01*
X146953829Y-138877268D01*
X146953839Y-138877275D01*
X147136232Y-138974765D01*
X147136237Y-138974767D01*
X147334166Y-139034808D01*
X147439998Y-139045231D01*
X147440000Y-139045230D01*
X147440000Y-138490764D01*
X147504237Y-138500000D01*
X147575763Y-138500000D01*
X147640000Y-138490764D01*
X147640000Y-139045230D01*
X147640001Y-139045231D01*
X147745833Y-139034808D01*
X147943762Y-138974767D01*
X147943767Y-138974765D01*
X148126160Y-138877275D01*
X148126170Y-138877268D01*
X148128857Y-138875063D01*
X151370500Y-138875063D01*
X151370501Y-138875070D01*
X151385265Y-138949300D01*
X151385266Y-138949302D01*
X151441513Y-139033480D01*
X151441516Y-139033484D01*
X151525699Y-139089734D01*
X151599933Y-139104500D01*
X153350066Y-139104499D01*
X153424301Y-139089734D01*
X153508484Y-139033484D01*
X153564734Y-138949301D01*
X153579500Y-138875067D01*
X153579499Y-138000000D01*
X153905768Y-138000000D01*
X153924655Y-138203822D01*
X153960783Y-138330798D01*
X153980672Y-138400701D01*
X154071912Y-138583935D01*
X154195268Y-138747285D01*
X154346538Y-138885186D01*
X154520573Y-138992944D01*
X154711444Y-139066888D01*
X154912653Y-139104500D01*
X155117347Y-139104500D01*
X155318556Y-139066888D01*
X155509427Y-138992944D01*
X155683462Y-138885186D01*
X155834732Y-138747285D01*
X155958088Y-138583935D01*
X156049328Y-138400701D01*
X156105345Y-138203821D01*
X156114966Y-138100000D01*
X156509767Y-138100000D01*
X156520190Y-138205831D01*
X156520191Y-138205836D01*
X156580232Y-138403762D01*
X156580234Y-138403767D01*
X156677724Y-138586160D01*
X156677731Y-138586170D01*
X156808940Y-138746050D01*
X156808949Y-138746059D01*
X156968829Y-138877268D01*
X156968839Y-138877275D01*
X157151232Y-138974765D01*
X157151237Y-138974767D01*
X157349166Y-139034808D01*
X157454998Y-139045231D01*
X157455000Y-139045230D01*
X157455000Y-138490764D01*
X157519237Y-138500000D01*
X157590763Y-138500000D01*
X157655000Y-138490764D01*
X157655000Y-139045230D01*
X157655001Y-139045231D01*
X157760833Y-139034808D01*
X157958762Y-138974767D01*
X157958767Y-138974765D01*
X158141160Y-138877275D01*
X158141170Y-138877268D01*
X158301050Y-138746059D01*
X158301059Y-138746050D01*
X158432268Y-138586170D01*
X158432275Y-138586160D01*
X158529765Y-138403767D01*
X158529767Y-138403762D01*
X158589808Y-138205836D01*
X158589809Y-138205831D01*
X158600232Y-138100000D01*
X158046746Y-138100000D01*
X158055000Y-138071889D01*
X158055000Y-137928111D01*
X158046746Y-137900000D01*
X158600232Y-137900000D01*
X158600232Y-137899999D01*
X158589809Y-137794168D01*
X158589808Y-137794163D01*
X158529767Y-137596237D01*
X158529765Y-137596232D01*
X158432275Y-137413839D01*
X158432268Y-137413829D01*
X158301059Y-137253949D01*
X158301050Y-137253940D01*
X158141170Y-137122731D01*
X158141160Y-137122724D01*
X157958767Y-137025234D01*
X157958762Y-137025232D01*
X157760836Y-136965191D01*
X157760831Y-136965190D01*
X157655000Y-136954767D01*
X157655000Y-137509235D01*
X157590763Y-137500000D01*
X157519237Y-137500000D01*
X157455000Y-137509235D01*
X157455000Y-136954767D01*
X157454999Y-136954767D01*
X157349168Y-136965190D01*
X157349163Y-136965191D01*
X157151237Y-137025232D01*
X157151232Y-137025234D01*
X156968839Y-137122724D01*
X156968829Y-137122731D01*
X156808949Y-137253940D01*
X156808940Y-137253949D01*
X156677731Y-137413829D01*
X156677724Y-137413839D01*
X156580234Y-137596232D01*
X156580232Y-137596237D01*
X156520191Y-137794163D01*
X156520190Y-137794168D01*
X156509767Y-137899999D01*
X156509768Y-137900000D01*
X157063254Y-137900000D01*
X157055000Y-137928111D01*
X157055000Y-138071889D01*
X157063254Y-138100000D01*
X156509767Y-138100000D01*
X156114966Y-138100000D01*
X156124232Y-138000000D01*
X156105345Y-137796179D01*
X156049328Y-137599299D01*
X155958088Y-137416065D01*
X155834732Y-137252715D01*
X155683462Y-137114814D01*
X155579910Y-137050697D01*
X155509432Y-137007059D01*
X155509427Y-137007056D01*
X155404789Y-136966519D01*
X155318556Y-136933112D01*
X155318555Y-136933111D01*
X155318553Y-136933111D01*
X155117347Y-136895500D01*
X154912653Y-136895500D01*
X154711446Y-136933111D01*
X154520572Y-137007056D01*
X154520567Y-137007059D01*
X154346542Y-137114811D01*
X154346540Y-137114812D01*
X154346538Y-137114814D01*
X154335435Y-137124936D01*
X154195269Y-137252714D01*
X154071913Y-137416063D01*
X154071908Y-137416072D01*
X153980672Y-137599298D01*
X153924655Y-137796177D01*
X153905768Y-138000000D01*
X153579499Y-138000000D01*
X153579499Y-137124934D01*
X153564734Y-137050699D01*
X153564733Y-137050697D01*
X153508486Y-136966519D01*
X153508485Y-136966518D01*
X153508484Y-136966516D01*
X153424301Y-136910266D01*
X153350067Y-136895500D01*
X153350066Y-136895500D01*
X151599936Y-136895500D01*
X151599929Y-136895501D01*
X151525699Y-136910265D01*
X151525697Y-136910266D01*
X151441519Y-136966513D01*
X151441514Y-136966518D01*
X151414428Y-137007056D01*
X151385266Y-137050699D01*
X151372513Y-137114811D01*
X151370500Y-137124933D01*
X151370500Y-138875063D01*
X148128857Y-138875063D01*
X148286050Y-138746059D01*
X148286059Y-138746050D01*
X148417268Y-138586170D01*
X148417275Y-138586160D01*
X148514765Y-138403767D01*
X148514767Y-138403762D01*
X148574808Y-138205836D01*
X148574809Y-138205831D01*
X148585232Y-138100000D01*
X148031746Y-138100000D01*
X148040000Y-138071889D01*
X148040000Y-137928111D01*
X148031746Y-137900000D01*
X148585232Y-137900000D01*
X148585232Y-137899999D01*
X148574809Y-137794168D01*
X148574808Y-137794163D01*
X148514767Y-137596237D01*
X148514765Y-137596232D01*
X148417275Y-137413839D01*
X148417268Y-137413829D01*
X148286059Y-137253949D01*
X148286050Y-137253940D01*
X148126170Y-137122731D01*
X148126160Y-137122724D01*
X147943767Y-137025234D01*
X147943762Y-137025232D01*
X147745836Y-136965191D01*
X147745831Y-136965190D01*
X147640000Y-136954767D01*
X147640000Y-137509235D01*
X147575763Y-137500000D01*
X147504237Y-137500000D01*
X147440000Y-137509235D01*
X147440000Y-136954767D01*
X147439999Y-136954767D01*
X147334168Y-136965190D01*
X147334163Y-136965191D01*
X147136237Y-137025232D01*
X147136232Y-137025234D01*
X146953839Y-137122724D01*
X146953829Y-137122731D01*
X146793949Y-137253940D01*
X146793940Y-137253949D01*
X146662731Y-137413829D01*
X146662724Y-137413839D01*
X146565234Y-137596232D01*
X146565232Y-137596237D01*
X146505191Y-137794163D01*
X146505190Y-137794168D01*
X146494767Y-137899999D01*
X146494768Y-137900000D01*
X147048254Y-137900000D01*
X147040000Y-137928111D01*
X147040000Y-138071889D01*
X147048254Y-138100000D01*
X146494767Y-138100000D01*
X146099966Y-138100000D01*
X146109232Y-138000000D01*
X146090345Y-137796179D01*
X146034328Y-137599299D01*
X145943088Y-137416065D01*
X145819732Y-137252715D01*
X145668462Y-137114814D01*
X145564910Y-137050697D01*
X145494432Y-137007059D01*
X145494427Y-137007056D01*
X145389789Y-136966519D01*
X145303556Y-136933112D01*
X145303555Y-136933111D01*
X145303553Y-136933111D01*
X145102347Y-136895500D01*
X144897653Y-136895500D01*
X144696446Y-136933111D01*
X144505572Y-137007056D01*
X144505567Y-137007059D01*
X144331542Y-137114811D01*
X144331540Y-137114812D01*
X144331538Y-137114814D01*
X144320435Y-137124936D01*
X144180269Y-137252714D01*
X144056913Y-137416063D01*
X144056908Y-137416072D01*
X143965672Y-137599298D01*
X143909655Y-137796177D01*
X143890768Y-138000000D01*
X143564499Y-138000000D01*
X143564499Y-137124934D01*
X143549734Y-137050699D01*
X143549733Y-137050697D01*
X143493486Y-136966519D01*
X143493485Y-136966518D01*
X143493484Y-136966516D01*
X143409301Y-136910266D01*
X143335067Y-136895500D01*
X143335066Y-136895500D01*
X141584936Y-136895500D01*
X141584929Y-136895501D01*
X141510699Y-136910265D01*
X141510697Y-136910266D01*
X141426519Y-136966513D01*
X141426514Y-136966518D01*
X141399428Y-137007056D01*
X141370266Y-137050699D01*
X141357513Y-137114811D01*
X141355500Y-137124933D01*
X141355500Y-138875063D01*
X118580584Y-138875063D01*
X118048908Y-138445764D01*
X118047831Y-138444869D01*
X116973731Y-137526185D01*
X116972679Y-137525260D01*
X115925009Y-136576550D01*
X115923984Y-136575595D01*
X114903564Y-135597603D01*
X114902567Y-135596619D01*
X113910261Y-134590170D01*
X113909317Y-134589184D01*
X112945862Y-133555028D01*
X112944921Y-133553990D01*
X112011131Y-132492997D01*
X112010220Y-132491932D01*
X111106826Y-131404937D01*
X111105945Y-131403847D01*
X110233684Y-130291734D01*
X110232835Y-130290620D01*
X109392386Y-129154259D01*
X109391569Y-129153120D01*
X108583611Y-127993425D01*
X108582826Y-127992264D01*
X108558073Y-127954500D01*
X107808009Y-126810167D01*
X107807281Y-126809021D01*
X107066195Y-125605420D01*
X107065522Y-125604291D01*
X106716634Y-124999999D01*
X122040493Y-124999999D01*
X122060504Y-125343580D01*
X122120266Y-125682506D01*
X122120266Y-125682507D01*
X122218971Y-126012205D01*
X122218973Y-126012212D01*
X122355285Y-126328217D01*
X122355288Y-126328224D01*
X122527367Y-126626274D01*
X122527369Y-126626277D01*
X122732888Y-126902337D01*
X122969069Y-127152673D01*
X123232701Y-127373886D01*
X123232705Y-127373889D01*
X123520246Y-127563008D01*
X123827799Y-127717467D01*
X124151204Y-127835177D01*
X124151207Y-127835177D01*
X124151208Y-127835178D01*
X124486076Y-127914543D01*
X124486081Y-127914543D01*
X124486087Y-127914545D01*
X124827920Y-127954500D01*
X125172077Y-127954500D01*
X125172080Y-127954500D01*
X125513913Y-127914545D01*
X125513919Y-127914543D01*
X125513923Y-127914543D01*
X125737168Y-127861632D01*
X125848796Y-127835177D01*
X126172201Y-127717467D01*
X126479754Y-127563008D01*
X126767295Y-127373889D01*
X127030937Y-127152667D01*
X127267114Y-126902334D01*
X127472632Y-126626276D01*
X127644712Y-126328224D01*
X127781027Y-126012211D01*
X127879733Y-125682509D01*
X127939496Y-125343578D01*
X127959507Y-125000000D01*
X127959507Y-124999999D01*
X172040493Y-124999999D01*
X172060504Y-125343580D01*
X172120266Y-125682506D01*
X172120266Y-125682507D01*
X172218971Y-126012205D01*
X172218973Y-126012212D01*
X172355285Y-126328217D01*
X172355288Y-126328224D01*
X172527367Y-126626274D01*
X172527369Y-126626277D01*
X172732888Y-126902337D01*
X172969069Y-127152673D01*
X173232701Y-127373886D01*
X173232705Y-127373889D01*
X173520246Y-127563008D01*
X173827799Y-127717467D01*
X174151204Y-127835177D01*
X174151207Y-127835177D01*
X174151208Y-127835178D01*
X174486076Y-127914543D01*
X174486081Y-127914543D01*
X174486087Y-127914545D01*
X174827920Y-127954500D01*
X175172077Y-127954500D01*
X175172080Y-127954500D01*
X175513913Y-127914545D01*
X175513919Y-127914543D01*
X175513923Y-127914543D01*
X175737168Y-127861632D01*
X175848796Y-127835177D01*
X176172201Y-127717467D01*
X176479754Y-127563008D01*
X176767295Y-127373889D01*
X177030937Y-127152667D01*
X177267114Y-126902334D01*
X177472632Y-126626276D01*
X177644712Y-126328224D01*
X177781027Y-126012211D01*
X177879733Y-125682509D01*
X177939496Y-125343578D01*
X177959507Y-125000000D01*
X177939496Y-124656422D01*
X177879733Y-124317491D01*
X177781027Y-123987789D01*
X177644712Y-123671776D01*
X177472632Y-123373724D01*
X177267114Y-123097666D01*
X177267113Y-123097665D01*
X177267111Y-123097662D01*
X177030930Y-122847326D01*
X176767298Y-122626113D01*
X176479755Y-122436992D01*
X176172203Y-122282534D01*
X176172198Y-122282532D01*
X175848791Y-122164821D01*
X175513923Y-122085456D01*
X175402817Y-122072469D01*
X175172080Y-122045500D01*
X175172077Y-122045500D01*
X174827923Y-122045500D01*
X174827920Y-122045500D01*
X174639561Y-122067516D01*
X174486076Y-122085456D01*
X174151208Y-122164821D01*
X173827801Y-122282532D01*
X173827796Y-122282534D01*
X173520244Y-122436992D01*
X173232701Y-122626113D01*
X172969069Y-122847326D01*
X172732888Y-123097662D01*
X172527369Y-123373722D01*
X172527367Y-123373725D01*
X172355288Y-123671775D01*
X172355285Y-123671782D01*
X172218973Y-123987787D01*
X172218971Y-123987794D01*
X172120266Y-124317492D01*
X172120266Y-124317493D01*
X172060504Y-124656419D01*
X172040493Y-124999999D01*
X127959507Y-124999999D01*
X127939496Y-124656422D01*
X127879733Y-124317491D01*
X127781027Y-123987789D01*
X127644712Y-123671776D01*
X127472632Y-123373724D01*
X127267114Y-123097666D01*
X127267113Y-123097665D01*
X127267111Y-123097662D01*
X127030930Y-122847326D01*
X126767298Y-122626113D01*
X126479755Y-122436992D01*
X126172203Y-122282534D01*
X126172198Y-122282532D01*
X125848791Y-122164821D01*
X125513923Y-122085456D01*
X125402817Y-122072469D01*
X125172080Y-122045500D01*
X125172077Y-122045500D01*
X124827923Y-122045500D01*
X124827920Y-122045500D01*
X124639561Y-122067516D01*
X124486076Y-122085456D01*
X124151208Y-122164821D01*
X123827801Y-122282532D01*
X123827796Y-122282534D01*
X123520244Y-122436992D01*
X123232701Y-122626113D01*
X122969069Y-122847326D01*
X122732888Y-123097662D01*
X122527369Y-123373722D01*
X122527367Y-123373725D01*
X122355288Y-123671775D01*
X122355285Y-123671782D01*
X122218973Y-123987787D01*
X122218971Y-123987794D01*
X122120266Y-124317492D01*
X122120266Y-124317493D01*
X122060504Y-124656419D01*
X122040493Y-124999999D01*
X106716634Y-124999999D01*
X106358805Y-124380221D01*
X106358122Y-124378998D01*
X105976073Y-123671776D01*
X105686345Y-123135452D01*
X105685711Y-123134236D01*
X105049401Y-121872192D01*
X105048788Y-121870932D01*
X104448440Y-120591370D01*
X104447863Y-120590093D01*
X103883965Y-119294052D01*
X103883443Y-119292806D01*
X103356430Y-117981284D01*
X103355950Y-117980038D01*
X102866251Y-116654095D01*
X102865802Y-116652823D01*
X102413859Y-115313663D01*
X102413430Y-115312329D01*
X102173660Y-114529400D01*
X101999533Y-113960819D01*
X101999171Y-113959571D01*
X101734764Y-113000001D01*
X131290326Y-113000001D01*
X131310947Y-113169833D01*
X131310948Y-113169835D01*
X131371615Y-113329802D01*
X131468799Y-113470599D01*
X131468800Y-113470600D01*
X131468801Y-113470601D01*
X131596859Y-113584050D01*
X131748346Y-113663557D01*
X131914458Y-113704500D01*
X131950021Y-113704500D01*
X132008212Y-113723407D01*
X132020025Y-113733496D01*
X132597387Y-114310858D01*
X132610665Y-114327335D01*
X132614804Y-114333775D01*
X132654668Y-114368317D01*
X132657244Y-114370716D01*
X132668776Y-114382247D01*
X132668779Y-114382250D01*
X132681835Y-114392024D01*
X132684549Y-114394209D01*
X132724442Y-114428777D01*
X132731404Y-114431956D01*
X132749604Y-114442755D01*
X132755734Y-114447344D01*
X132805152Y-114465775D01*
X132808417Y-114467128D01*
X132835571Y-114479528D01*
X132856404Y-114489042D01*
X132863976Y-114490130D01*
X132884486Y-114495364D01*
X132891658Y-114498040D01*
X132944296Y-114501804D01*
X132947789Y-114502180D01*
X132963917Y-114504500D01*
X132980201Y-114504500D01*
X132983734Y-114504626D01*
X132988821Y-114504989D01*
X133036360Y-114508390D01*
X133041947Y-114507174D01*
X133043845Y-114506762D01*
X133064888Y-114504500D01*
X136750021Y-114504500D01*
X136808212Y-114523407D01*
X136820025Y-114533496D01*
X143597387Y-121310858D01*
X143610665Y-121327335D01*
X143614804Y-121333775D01*
X143654664Y-121368314D01*
X143657244Y-121370716D01*
X143668776Y-121382247D01*
X143668779Y-121382250D01*
X143681835Y-121392024D01*
X143684549Y-121394209D01*
X143724442Y-121428777D01*
X143731404Y-121431956D01*
X143749604Y-121442755D01*
X143755734Y-121447344D01*
X143805152Y-121465775D01*
X143808417Y-121467128D01*
X143835571Y-121479528D01*
X143856404Y-121489042D01*
X143863976Y-121490130D01*
X143884486Y-121495364D01*
X143891658Y-121498040D01*
X143891657Y-121498040D01*
X143902701Y-121498829D01*
X143944284Y-121501803D01*
X143947772Y-121502178D01*
X143963917Y-121504500D01*
X143980212Y-121504500D01*
X143983744Y-121504625D01*
X144036360Y-121508389D01*
X144043015Y-121506941D01*
X144043840Y-121506762D01*
X144064883Y-121504500D01*
X155935117Y-121504500D01*
X155956160Y-121506762D01*
X155957181Y-121506984D01*
X155963640Y-121508389D01*
X156016255Y-121504625D01*
X156019788Y-121504500D01*
X156036081Y-121504500D01*
X156036083Y-121504500D01*
X156052224Y-121502179D01*
X156055714Y-121501803D01*
X156108342Y-121498040D01*
X156115508Y-121495366D01*
X156136023Y-121490130D01*
X156143596Y-121489042D01*
X156191608Y-121467114D01*
X156194823Y-121465783D01*
X156244267Y-121447343D01*
X156250390Y-121442758D01*
X156268600Y-121431954D01*
X156275558Y-121428777D01*
X156315450Y-121394209D01*
X156318134Y-121392045D01*
X156331221Y-121382250D01*
X156342772Y-121370697D01*
X156345307Y-121368337D01*
X156385196Y-121333775D01*
X156389334Y-121327336D01*
X156402607Y-121310862D01*
X158310862Y-119402607D01*
X158327337Y-119389332D01*
X158333775Y-119385196D01*
X158368337Y-119345307D01*
X158370697Y-119342772D01*
X158382250Y-119331221D01*
X158392045Y-119318134D01*
X158394209Y-119315450D01*
X158428777Y-119275558D01*
X158431954Y-119268600D01*
X158442759Y-119250390D01*
X158447343Y-119244267D01*
X158465783Y-119194823D01*
X158467114Y-119191608D01*
X158489042Y-119143596D01*
X158490130Y-119136023D01*
X158495366Y-119115508D01*
X158498040Y-119108342D01*
X158501803Y-119055714D01*
X158502179Y-119052224D01*
X158504500Y-119036083D01*
X158504500Y-119019787D01*
X158504626Y-119016254D01*
X158508389Y-118963640D01*
X158506762Y-118956160D01*
X158504500Y-118935117D01*
X158504500Y-115538283D01*
X158523407Y-115480092D01*
X158529404Y-115472626D01*
X158531192Y-115470606D01*
X158531199Y-115470601D01*
X158628385Y-115329802D01*
X158689052Y-115169836D01*
X158709674Y-115000000D01*
X158689052Y-114830164D01*
X158628385Y-114670198D01*
X158531199Y-114529399D01*
X158403141Y-114415950D01*
X158251654Y-114336443D01*
X158251653Y-114336442D01*
X158251652Y-114336442D01*
X158085544Y-114295500D01*
X158085542Y-114295500D01*
X157914458Y-114295500D01*
X157914455Y-114295500D01*
X157748347Y-114336442D01*
X157596857Y-114415951D01*
X157468799Y-114529400D01*
X157371615Y-114670197D01*
X157310948Y-114830164D01*
X157310947Y-114830166D01*
X157290326Y-114999998D01*
X157290326Y-115000001D01*
X157310947Y-115169833D01*
X157310948Y-115169835D01*
X157371615Y-115329802D01*
X157468797Y-115470596D01*
X157470596Y-115472626D01*
X157471276Y-115474187D01*
X157472203Y-115475530D01*
X157471940Y-115475711D01*
X157495037Y-115528718D01*
X157495500Y-115538283D01*
X157495500Y-118750021D01*
X157476593Y-118808212D01*
X157466504Y-118820025D01*
X155820025Y-120466504D01*
X155765508Y-120494281D01*
X155750021Y-120495500D01*
X144249979Y-120495500D01*
X144191788Y-120476593D01*
X144179975Y-120466504D01*
X137402611Y-113689140D01*
X137389332Y-113672661D01*
X137385196Y-113666225D01*
X137345331Y-113631682D01*
X137342754Y-113629282D01*
X137331226Y-113617754D01*
X137331221Y-113617750D01*
X137318163Y-113607975D01*
X137315420Y-113605764D01*
X137275558Y-113571223D01*
X137275556Y-113571222D01*
X137275557Y-113571222D01*
X137268593Y-113568042D01*
X137250400Y-113557248D01*
X137244267Y-113552657D01*
X137244266Y-113552656D01*
X137244264Y-113552655D01*
X137194836Y-113534219D01*
X137191571Y-113532867D01*
X137143596Y-113510958D01*
X137143590Y-113510956D01*
X137136020Y-113509868D01*
X137115516Y-113504635D01*
X137108342Y-113501960D01*
X137108338Y-113501959D01*
X137108335Y-113501959D01*
X137055721Y-113498195D01*
X137052212Y-113497817D01*
X137036091Y-113495500D01*
X137036083Y-113495500D01*
X137019788Y-113495500D01*
X137016255Y-113495374D01*
X136963640Y-113491611D01*
X136963639Y-113491611D01*
X136956160Y-113493238D01*
X136935117Y-113495500D01*
X133249979Y-113495500D01*
X133191788Y-113476593D01*
X133179975Y-113466504D01*
X132733304Y-113019833D01*
X132705527Y-112965316D01*
X132705036Y-112961808D01*
X132689052Y-112830164D01*
X132628385Y-112670198D01*
X132577816Y-112596936D01*
X132531200Y-112529400D01*
X132403142Y-112415951D01*
X132403141Y-112415950D01*
X132251654Y-112336443D01*
X132251653Y-112336442D01*
X132251652Y-112336442D01*
X132085544Y-112295500D01*
X132085542Y-112295500D01*
X131914458Y-112295500D01*
X131914455Y-112295500D01*
X131748347Y-112336442D01*
X131596857Y-112415951D01*
X131468799Y-112529400D01*
X131371615Y-112670197D01*
X131310948Y-112830164D01*
X131310947Y-112830166D01*
X131290326Y-112999998D01*
X131290326Y-113000001D01*
X101734764Y-113000001D01*
X101623699Y-112596929D01*
X101623348Y-112595580D01*
X101579280Y-112415950D01*
X101517104Y-112162503D01*
X133738582Y-112162503D01*
X133758206Y-112361763D01*
X133758207Y-112361766D01*
X133816334Y-112553383D01*
X133816335Y-112553385D01*
X133910719Y-112729966D01*
X133942221Y-112768351D01*
X134037748Y-112884752D01*
X134037753Y-112884756D01*
X134192533Y-113011780D01*
X134369114Y-113106164D01*
X134369120Y-113106167D01*
X134560731Y-113164292D01*
X134560733Y-113164292D01*
X134560736Y-113164293D01*
X134759997Y-113183918D01*
X134760000Y-113183918D01*
X134760003Y-113183918D01*
X134959263Y-113164293D01*
X134959264Y-113164292D01*
X134959269Y-113164292D01*
X135150880Y-113106167D01*
X135245536Y-113055572D01*
X135327466Y-113011780D01*
X135327467Y-113011778D01*
X135327469Y-113011778D01*
X135482252Y-112884752D01*
X135609278Y-112729969D01*
X135622892Y-112704500D01*
X135660971Y-112633256D01*
X135703667Y-112553380D01*
X135761792Y-112361769D01*
X135762845Y-112351085D01*
X135781418Y-112162503D01*
X136278582Y-112162503D01*
X136298206Y-112361763D01*
X136298207Y-112361766D01*
X136356334Y-112553383D01*
X136356335Y-112553385D01*
X136450719Y-112729966D01*
X136482221Y-112768351D01*
X136577748Y-112884752D01*
X136577753Y-112884756D01*
X136732533Y-113011780D01*
X136909114Y-113106164D01*
X136909120Y-113106167D01*
X137100731Y-113164292D01*
X137100733Y-113164292D01*
X137100736Y-113164293D01*
X137299997Y-113183918D01*
X137300000Y-113183918D01*
X137300003Y-113183918D01*
X137499263Y-113164293D01*
X137499264Y-113164292D01*
X137499269Y-113164292D01*
X137690880Y-113106167D01*
X137785536Y-113055572D01*
X137867466Y-113011780D01*
X137867467Y-113011778D01*
X137867469Y-113011778D01*
X138022252Y-112884752D01*
X138149278Y-112729969D01*
X138162892Y-112704500D01*
X138200971Y-112633256D01*
X138243667Y-112553380D01*
X138301792Y-112361769D01*
X138302845Y-112351085D01*
X138321418Y-112162503D01*
X138321418Y-112162496D01*
X138301793Y-111963236D01*
X138301792Y-111963233D01*
X138301792Y-111963231D01*
X138243667Y-111771620D01*
X138189456Y-111670198D01*
X138149280Y-111595033D01*
X138022256Y-111440253D01*
X138022252Y-111440248D01*
X137991760Y-111415224D01*
X137867466Y-111313219D01*
X137690885Y-111218835D01*
X137690883Y-111218834D01*
X137676322Y-111214417D01*
X137499269Y-111160708D01*
X137499266Y-111160707D01*
X137499263Y-111160706D01*
X137300003Y-111141082D01*
X137299997Y-111141082D01*
X137100736Y-111160706D01*
X137100733Y-111160707D01*
X136909116Y-111218834D01*
X136909114Y-111218835D01*
X136732533Y-111313219D01*
X136577753Y-111440243D01*
X136577743Y-111440253D01*
X136450719Y-111595033D01*
X136356335Y-111771614D01*
X136356334Y-111771616D01*
X136298207Y-111963233D01*
X136298206Y-111963236D01*
X136278582Y-112162496D01*
X136278582Y-112162503D01*
X135781418Y-112162503D01*
X135781418Y-112162496D01*
X135761793Y-111963236D01*
X135761792Y-111963233D01*
X135761792Y-111963231D01*
X135703667Y-111771620D01*
X135649456Y-111670198D01*
X135609280Y-111595033D01*
X135482256Y-111440253D01*
X135482252Y-111440248D01*
X135451760Y-111415224D01*
X135327466Y-111313219D01*
X135150885Y-111218835D01*
X135150883Y-111218834D01*
X135136322Y-111214417D01*
X134959269Y-111160708D01*
X134959266Y-111160707D01*
X134959263Y-111160706D01*
X134760003Y-111141082D01*
X134759997Y-111141082D01*
X134560736Y-111160706D01*
X134560733Y-111160707D01*
X134369116Y-111218834D01*
X134369114Y-111218835D01*
X134192533Y-111313219D01*
X134037753Y-111440243D01*
X134037743Y-111440253D01*
X133910719Y-111595033D01*
X133816335Y-111771614D01*
X133816334Y-111771616D01*
X133758207Y-111963233D01*
X133758206Y-111963236D01*
X133738582Y-112162496D01*
X133738582Y-112162503D01*
X101517104Y-112162503D01*
X101286585Y-111222849D01*
X101286280Y-111221523D01*
X101285701Y-111218835D01*
X100988489Y-109839772D01*
X100988241Y-109838533D01*
X100948044Y-109622503D01*
X133738582Y-109622503D01*
X133758206Y-109821763D01*
X133758207Y-109821766D01*
X133816334Y-110013383D01*
X133816335Y-110013385D01*
X133910719Y-110189966D01*
X134037743Y-110344746D01*
X134037748Y-110344752D01*
X134037753Y-110344756D01*
X134192533Y-110471780D01*
X134369114Y-110566164D01*
X134369120Y-110566167D01*
X134560731Y-110624292D01*
X134560733Y-110624292D01*
X134560736Y-110624293D01*
X134759997Y-110643918D01*
X134760000Y-110643918D01*
X134760003Y-110643918D01*
X134959263Y-110624293D01*
X134959264Y-110624292D01*
X134959269Y-110624292D01*
X135150880Y-110566167D01*
X135230756Y-110523471D01*
X135327466Y-110471780D01*
X135327467Y-110471778D01*
X135327469Y-110471778D01*
X135482252Y-110344752D01*
X135609278Y-110189969D01*
X135703667Y-110013380D01*
X135761792Y-109821769D01*
X135781418Y-109622503D01*
X136278582Y-109622503D01*
X136298206Y-109821763D01*
X136298207Y-109821766D01*
X136356334Y-110013383D01*
X136356335Y-110013385D01*
X136450719Y-110189966D01*
X136577743Y-110344746D01*
X136577748Y-110344752D01*
X136577753Y-110344756D01*
X136732533Y-110471780D01*
X136909114Y-110566164D01*
X136909120Y-110566167D01*
X137100731Y-110624292D01*
X137100733Y-110624292D01*
X137100736Y-110624293D01*
X137299997Y-110643918D01*
X137300000Y-110643918D01*
X137300003Y-110643918D01*
X137499263Y-110624293D01*
X137499264Y-110624292D01*
X137499269Y-110624292D01*
X137690880Y-110566167D01*
X137770756Y-110523471D01*
X137867466Y-110471780D01*
X137867467Y-110471778D01*
X137867469Y-110471778D01*
X138022252Y-110344752D01*
X138149278Y-110189969D01*
X138243667Y-110013380D01*
X138301792Y-109821769D01*
X138321418Y-109622500D01*
X138321418Y-109622496D01*
X138301793Y-109423236D01*
X138301792Y-109423233D01*
X138301792Y-109423231D01*
X138243667Y-109231620D01*
X138243664Y-109231614D01*
X138149280Y-109055033D01*
X138022256Y-108900253D01*
X138022252Y-108900248D01*
X138022246Y-108900243D01*
X137867466Y-108773219D01*
X137690885Y-108678835D01*
X137690883Y-108678834D01*
X137499266Y-108620707D01*
X137499263Y-108620706D01*
X137300003Y-108601082D01*
X137299997Y-108601082D01*
X137100736Y-108620706D01*
X137100733Y-108620707D01*
X136909116Y-108678834D01*
X136909114Y-108678835D01*
X136732533Y-108773219D01*
X136577753Y-108900243D01*
X136577743Y-108900253D01*
X136450719Y-109055033D01*
X136356335Y-109231614D01*
X136356334Y-109231616D01*
X136298207Y-109423233D01*
X136298206Y-109423236D01*
X136278582Y-109622496D01*
X136278582Y-109622503D01*
X135781418Y-109622503D01*
X135781418Y-109622500D01*
X135781418Y-109622496D01*
X135761793Y-109423236D01*
X135761792Y-109423233D01*
X135761792Y-109423231D01*
X135703667Y-109231620D01*
X135703664Y-109231614D01*
X135609280Y-109055033D01*
X135482256Y-108900253D01*
X135482252Y-108900248D01*
X135482246Y-108900243D01*
X135327466Y-108773219D01*
X135150885Y-108678835D01*
X135150883Y-108678834D01*
X134959266Y-108620707D01*
X134959263Y-108620706D01*
X134760003Y-108601082D01*
X134759997Y-108601082D01*
X134560736Y-108620706D01*
X134560733Y-108620707D01*
X134369116Y-108678834D01*
X134369114Y-108678835D01*
X134192533Y-108773219D01*
X134037753Y-108900243D01*
X134037743Y-108900253D01*
X133910719Y-109055033D01*
X133816335Y-109231614D01*
X133816334Y-109231616D01*
X133758207Y-109423233D01*
X133758206Y-109423236D01*
X133738582Y-109622496D01*
X133738582Y-109622503D01*
X100948044Y-109622503D01*
X100729661Y-108448849D01*
X100729453Y-108447633D01*
X100515219Y-107082503D01*
X133738582Y-107082503D01*
X133758206Y-107281763D01*
X133758207Y-107281766D01*
X133816334Y-107473383D01*
X133816335Y-107473385D01*
X133910719Y-107649966D01*
X134037743Y-107804746D01*
X134037748Y-107804752D01*
X134037753Y-107804756D01*
X134192533Y-107931780D01*
X134369114Y-108026164D01*
X134369120Y-108026167D01*
X134560731Y-108084292D01*
X134560733Y-108084292D01*
X134560736Y-108084293D01*
X134759997Y-108103918D01*
X134760000Y-108103918D01*
X134760003Y-108103918D01*
X134959263Y-108084293D01*
X134959264Y-108084292D01*
X134959269Y-108084292D01*
X135150880Y-108026167D01*
X135230756Y-107983471D01*
X135327466Y-107931780D01*
X135327467Y-107931778D01*
X135327469Y-107931778D01*
X135482252Y-107804752D01*
X135609278Y-107649969D01*
X135703667Y-107473380D01*
X135761792Y-107281769D01*
X135781418Y-107082503D01*
X136278582Y-107082503D01*
X136298206Y-107281763D01*
X136298207Y-107281766D01*
X136356334Y-107473383D01*
X136356335Y-107473385D01*
X136450719Y-107649966D01*
X136577743Y-107804746D01*
X136577748Y-107804752D01*
X136577753Y-107804756D01*
X136732533Y-107931780D01*
X136909114Y-108026164D01*
X136909120Y-108026167D01*
X137100731Y-108084292D01*
X137100733Y-108084292D01*
X137100736Y-108084293D01*
X137299997Y-108103918D01*
X137300000Y-108103918D01*
X137300003Y-108103918D01*
X137499263Y-108084293D01*
X137499264Y-108084292D01*
X137499269Y-108084292D01*
X137690880Y-108026167D01*
X137770756Y-107983471D01*
X137867466Y-107931780D01*
X137867467Y-107931778D01*
X137867469Y-107931778D01*
X138022252Y-107804752D01*
X138149278Y-107649969D01*
X138243667Y-107473380D01*
X138301792Y-107281769D01*
X138321418Y-107082500D01*
X138318636Y-107054254D01*
X138301793Y-106883236D01*
X138301792Y-106883233D01*
X138301792Y-106883231D01*
X138243667Y-106691620D01*
X138243664Y-106691614D01*
X138149280Y-106515033D01*
X138022256Y-106360253D01*
X138022252Y-106360248D01*
X138022246Y-106360243D01*
X137867466Y-106233219D01*
X137690885Y-106138835D01*
X137690883Y-106138834D01*
X137499266Y-106080707D01*
X137499263Y-106080706D01*
X137300003Y-106061082D01*
X137299997Y-106061082D01*
X137100736Y-106080706D01*
X137100733Y-106080707D01*
X136909116Y-106138834D01*
X136909114Y-106138835D01*
X136732533Y-106233219D01*
X136577753Y-106360243D01*
X136577743Y-106360253D01*
X136450719Y-106515033D01*
X136356335Y-106691614D01*
X136356334Y-106691616D01*
X136298207Y-106883233D01*
X136298206Y-106883236D01*
X136278582Y-107082496D01*
X136278582Y-107082503D01*
X135781418Y-107082503D01*
X135781418Y-107082500D01*
X135778636Y-107054254D01*
X135761793Y-106883236D01*
X135761792Y-106883233D01*
X135761792Y-106883231D01*
X135703667Y-106691620D01*
X135703664Y-106691614D01*
X135609280Y-106515033D01*
X135482256Y-106360253D01*
X135482252Y-106360248D01*
X135482246Y-106360243D01*
X135327466Y-106233219D01*
X135150885Y-106138835D01*
X135150883Y-106138834D01*
X134959266Y-106080707D01*
X134959263Y-106080706D01*
X134760003Y-106061082D01*
X134759997Y-106061082D01*
X134560736Y-106080706D01*
X134560733Y-106080707D01*
X134369116Y-106138834D01*
X134369114Y-106138835D01*
X134192533Y-106233219D01*
X134037753Y-106360243D01*
X134037743Y-106360253D01*
X133910719Y-106515033D01*
X133816335Y-106691614D01*
X133816334Y-106691616D01*
X133758207Y-106883233D01*
X133758206Y-106883236D01*
X133738582Y-107082496D01*
X133738582Y-107082503D01*
X100515219Y-107082503D01*
X100510312Y-107051237D01*
X100510120Y-107049884D01*
X100488779Y-106883233D01*
X100330596Y-105647964D01*
X100330439Y-105646576D01*
X100220711Y-104542503D01*
X133738582Y-104542503D01*
X133758206Y-104741763D01*
X133758207Y-104741766D01*
X133816334Y-104933383D01*
X133816335Y-104933385D01*
X133910719Y-105109966D01*
X134037743Y-105264746D01*
X134037748Y-105264752D01*
X134037753Y-105264756D01*
X134192533Y-105391780D01*
X134369114Y-105486164D01*
X134369120Y-105486167D01*
X134560731Y-105544292D01*
X134560733Y-105544292D01*
X134560736Y-105544293D01*
X134759997Y-105563918D01*
X134760000Y-105563918D01*
X134760003Y-105563918D01*
X134959263Y-105544293D01*
X134959264Y-105544292D01*
X134959269Y-105544292D01*
X135150880Y-105486167D01*
X135230756Y-105443471D01*
X135327466Y-105391780D01*
X135327467Y-105391778D01*
X135327469Y-105391778D01*
X135482252Y-105264752D01*
X135609278Y-105109969D01*
X135703667Y-104933380D01*
X135761792Y-104741769D01*
X135781418Y-104542503D01*
X136278582Y-104542503D01*
X136298206Y-104741763D01*
X136298207Y-104741766D01*
X136356334Y-104933383D01*
X136356335Y-104933385D01*
X136450719Y-105109966D01*
X136577743Y-105264746D01*
X136577748Y-105264752D01*
X136577753Y-105264756D01*
X136732533Y-105391780D01*
X136909114Y-105486164D01*
X136909120Y-105486167D01*
X137100731Y-105544292D01*
X137100733Y-105544292D01*
X137100736Y-105544293D01*
X137299997Y-105563918D01*
X137300000Y-105563918D01*
X137300003Y-105563918D01*
X137499263Y-105544293D01*
X137499264Y-105544292D01*
X137499269Y-105544292D01*
X137690880Y-105486167D01*
X137770756Y-105443471D01*
X137867466Y-105391780D01*
X137867467Y-105391778D01*
X137867469Y-105391778D01*
X138022252Y-105264752D01*
X138149278Y-105109969D01*
X138243667Y-104933380D01*
X138301792Y-104741769D01*
X138321418Y-104542500D01*
X138321418Y-104542496D01*
X138301793Y-104343236D01*
X138301792Y-104343233D01*
X138301792Y-104343231D01*
X138243667Y-104151620D01*
X138243664Y-104151614D01*
X138149280Y-103975033D01*
X138022256Y-103820253D01*
X138022252Y-103820248D01*
X138022246Y-103820243D01*
X137867466Y-103693219D01*
X137690885Y-103598835D01*
X137690883Y-103598834D01*
X137499266Y-103540707D01*
X137499263Y-103540706D01*
X137300003Y-103521082D01*
X137299997Y-103521082D01*
X137100736Y-103540706D01*
X137100733Y-103540707D01*
X136909116Y-103598834D01*
X136909114Y-103598835D01*
X136732533Y-103693219D01*
X136577753Y-103820243D01*
X136577743Y-103820253D01*
X136450719Y-103975033D01*
X136356335Y-104151614D01*
X136356334Y-104151616D01*
X136298207Y-104343233D01*
X136298206Y-104343236D01*
X136278582Y-104542496D01*
X136278582Y-104542503D01*
X135781418Y-104542503D01*
X135781418Y-104542500D01*
X135781418Y-104542496D01*
X135761793Y-104343236D01*
X135761792Y-104343233D01*
X135761792Y-104343231D01*
X135703667Y-104151620D01*
X135703664Y-104151614D01*
X135609280Y-103975033D01*
X135482256Y-103820253D01*
X135482252Y-103820248D01*
X135482246Y-103820243D01*
X135327466Y-103693219D01*
X135150885Y-103598835D01*
X135150883Y-103598834D01*
X134959266Y-103540707D01*
X134959263Y-103540706D01*
X134760003Y-103521082D01*
X134759997Y-103521082D01*
X134560736Y-103540706D01*
X134560733Y-103540707D01*
X134369116Y-103598834D01*
X134369114Y-103598835D01*
X134192533Y-103693219D01*
X134037753Y-103820243D01*
X134037743Y-103820253D01*
X133910719Y-103975033D01*
X133816335Y-104151614D01*
X133816334Y-104151616D01*
X133758207Y-104343233D01*
X133758206Y-104343236D01*
X133738582Y-104542496D01*
X133738582Y-104542503D01*
X100220711Y-104542503D01*
X100190655Y-104240081D01*
X100190541Y-104238747D01*
X100090613Y-102828822D01*
X100090537Y-102827476D01*
X100055492Y-102002503D01*
X133738582Y-102002503D01*
X133758206Y-102201763D01*
X133758207Y-102201766D01*
X133816334Y-102393383D01*
X133816335Y-102393385D01*
X133910719Y-102569966D01*
X134037743Y-102724746D01*
X134037748Y-102724752D01*
X134037753Y-102724756D01*
X134192533Y-102851780D01*
X134369114Y-102946164D01*
X134369120Y-102946167D01*
X134560731Y-103004292D01*
X134560733Y-103004292D01*
X134560736Y-103004293D01*
X134759997Y-103023918D01*
X134760000Y-103023918D01*
X134760003Y-103023918D01*
X134959263Y-103004293D01*
X134959264Y-103004292D01*
X134959269Y-103004292D01*
X135150880Y-102946167D01*
X135230756Y-102903471D01*
X135327466Y-102851780D01*
X135327467Y-102851778D01*
X135327469Y-102851778D01*
X135482252Y-102724752D01*
X135609278Y-102569969D01*
X135703667Y-102393380D01*
X135761792Y-102201769D01*
X135775077Y-102066888D01*
X135781418Y-102002503D01*
X136278582Y-102002503D01*
X136298206Y-102201763D01*
X136298207Y-102201766D01*
X136356334Y-102393383D01*
X136356335Y-102393385D01*
X136450719Y-102569966D01*
X136577743Y-102724746D01*
X136577748Y-102724752D01*
X136577753Y-102724756D01*
X136732533Y-102851780D01*
X136909114Y-102946164D01*
X136909120Y-102946167D01*
X137100731Y-103004292D01*
X137100733Y-103004292D01*
X137100736Y-103004293D01*
X137299997Y-103023918D01*
X137300000Y-103023918D01*
X137300003Y-103023918D01*
X137499263Y-103004293D01*
X137499264Y-103004292D01*
X137499269Y-103004292D01*
X137690880Y-102946167D01*
X137770756Y-102903471D01*
X137867466Y-102851780D01*
X137867467Y-102851778D01*
X137867469Y-102851778D01*
X138022252Y-102724752D01*
X138149278Y-102569969D01*
X138243667Y-102393380D01*
X138301792Y-102201769D01*
X138315077Y-102066888D01*
X138321418Y-102002503D01*
X138321418Y-102002496D01*
X138301793Y-101803236D01*
X138301792Y-101803233D01*
X138301792Y-101803231D01*
X138243667Y-101611620D01*
X138243664Y-101611614D01*
X138149280Y-101435033D01*
X138022256Y-101280253D01*
X138022252Y-101280248D01*
X137873055Y-101157806D01*
X137867466Y-101153219D01*
X137690885Y-101058835D01*
X137690883Y-101058834D01*
X137499266Y-101000707D01*
X137499263Y-101000706D01*
X137300003Y-100981082D01*
X137299997Y-100981082D01*
X137100736Y-101000706D01*
X137100733Y-101000707D01*
X136909116Y-101058834D01*
X136909114Y-101058835D01*
X136732533Y-101153219D01*
X136577753Y-101280243D01*
X136577743Y-101280253D01*
X136450719Y-101435033D01*
X136356335Y-101611614D01*
X136356334Y-101611616D01*
X136298207Y-101803233D01*
X136298206Y-101803236D01*
X136278582Y-102002496D01*
X136278582Y-102002503D01*
X135781418Y-102002503D01*
X135781418Y-102002496D01*
X135761793Y-101803236D01*
X135761792Y-101803233D01*
X135761792Y-101803231D01*
X135703667Y-101611620D01*
X135703664Y-101611614D01*
X135609280Y-101435033D01*
X135482256Y-101280253D01*
X135482252Y-101280248D01*
X135333055Y-101157806D01*
X135327466Y-101153219D01*
X135150885Y-101058835D01*
X135150883Y-101058834D01*
X134959266Y-101000707D01*
X134959263Y-101000706D01*
X134760003Y-100981082D01*
X134759997Y-100981082D01*
X134560736Y-101000706D01*
X134560733Y-101000707D01*
X134369116Y-101058834D01*
X134369114Y-101058835D01*
X134192533Y-101153219D01*
X134037753Y-101280243D01*
X134037743Y-101280253D01*
X133910719Y-101435033D01*
X133816335Y-101611614D01*
X133816334Y-101611616D01*
X133758207Y-101803233D01*
X133758206Y-101803236D01*
X133738582Y-102002496D01*
X133738582Y-102002503D01*
X100055492Y-102002503D01*
X100055086Y-101992940D01*
X100030548Y-101415316D01*
X100030510Y-101413934D01*
X100026820Y-101153219D01*
X100010509Y-100000635D01*
X100010509Y-99999364D01*
X100011140Y-99954773D01*
X101165828Y-99954773D01*
X101174607Y-100116699D01*
X101175608Y-100135149D01*
X101175609Y-100135157D01*
X101223935Y-100309208D01*
X101223938Y-100309217D01*
X101308547Y-100468808D01*
X101308550Y-100468812D01*
X101308551Y-100468814D01*
X101425498Y-100606494D01*
X101425499Y-100606495D01*
X101425501Y-100606497D01*
X101502532Y-100665054D01*
X101569308Y-100715816D01*
X101733256Y-100791667D01*
X101909678Y-100830500D01*
X102045028Y-100830500D01*
X102179586Y-100815866D01*
X102350774Y-100758186D01*
X102505561Y-100665054D01*
X102636708Y-100540825D01*
X102738083Y-100391307D01*
X102804947Y-100223492D01*
X102829694Y-100072539D01*
X114495500Y-100072539D01*
X114528447Y-100184746D01*
X114536371Y-100211732D01*
X114614804Y-100333775D01*
X114724442Y-100428777D01*
X114856404Y-100489042D01*
X114856407Y-100489042D01*
X114856409Y-100489043D01*
X114963912Y-100504500D01*
X115036083Y-100504500D01*
X115036088Y-100504500D01*
X115143590Y-100489043D01*
X115143590Y-100489042D01*
X115143596Y-100489042D01*
X115275558Y-100428777D01*
X115385196Y-100333775D01*
X115463629Y-100211732D01*
X115504500Y-100072536D01*
X115504500Y-99927464D01*
X115463629Y-99788268D01*
X115385196Y-99666225D01*
X115275558Y-99571223D01*
X115143596Y-99510958D01*
X115143594Y-99510957D01*
X115143593Y-99510957D01*
X115143590Y-99510956D01*
X115036088Y-99495500D01*
X115036083Y-99495500D01*
X114963917Y-99495500D01*
X114963912Y-99495500D01*
X114856409Y-99510956D01*
X114856406Y-99510957D01*
X114724440Y-99571224D01*
X114614805Y-99666224D01*
X114614803Y-99666226D01*
X114536371Y-99788267D01*
X114536370Y-99788270D01*
X114495500Y-99927460D01*
X114495500Y-100072539D01*
X102829694Y-100072539D01*
X102834172Y-100045227D01*
X102824392Y-99864848D01*
X102776064Y-99690788D01*
X102755241Y-99651511D01*
X102691452Y-99531191D01*
X102691450Y-99531189D01*
X102691449Y-99531186D01*
X102633109Y-99462503D01*
X133738582Y-99462503D01*
X133758206Y-99661763D01*
X133758207Y-99661766D01*
X133758208Y-99661769D01*
X133812939Y-99842193D01*
X133816334Y-99853383D01*
X133816335Y-99853385D01*
X133910719Y-100029966D01*
X134019307Y-100162281D01*
X134037748Y-100184752D01*
X134037753Y-100184756D01*
X134192533Y-100311780D01*
X134369114Y-100406164D01*
X134369120Y-100406167D01*
X134560731Y-100464292D01*
X134560733Y-100464292D01*
X134560736Y-100464293D01*
X134759997Y-100483918D01*
X134760000Y-100483918D01*
X134760003Y-100483918D01*
X134959263Y-100464293D01*
X134959264Y-100464292D01*
X134959269Y-100464292D01*
X135150880Y-100406167D01*
X135286316Y-100333775D01*
X135327466Y-100311780D01*
X135327467Y-100311778D01*
X135327469Y-100311778D01*
X135482252Y-100184752D01*
X135609278Y-100029969D01*
X135609594Y-100029379D01*
X135681688Y-99894500D01*
X135703667Y-99853380D01*
X135761792Y-99661769D01*
X135762803Y-99651511D01*
X135781418Y-99462503D01*
X136278582Y-99462503D01*
X136298206Y-99661763D01*
X136298207Y-99661766D01*
X136298208Y-99661769D01*
X136352939Y-99842193D01*
X136356334Y-99853383D01*
X136356335Y-99853385D01*
X136450719Y-100029966D01*
X136559307Y-100162281D01*
X136577748Y-100184752D01*
X136577753Y-100184756D01*
X136732533Y-100311780D01*
X136909114Y-100406164D01*
X136909120Y-100406167D01*
X137100731Y-100464292D01*
X137100733Y-100464292D01*
X137100736Y-100464293D01*
X137299997Y-100483918D01*
X137300000Y-100483918D01*
X137300003Y-100483918D01*
X137499263Y-100464293D01*
X137499264Y-100464292D01*
X137499269Y-100464292D01*
X137690880Y-100406167D01*
X137826316Y-100333775D01*
X137867466Y-100311780D01*
X137867467Y-100311778D01*
X137867469Y-100311778D01*
X138022252Y-100184752D01*
X138149278Y-100029969D01*
X138149594Y-100029379D01*
X138221688Y-99894500D01*
X138243667Y-99853380D01*
X138301792Y-99661769D01*
X138302803Y-99651511D01*
X138321418Y-99462503D01*
X138321418Y-99462496D01*
X138301793Y-99263236D01*
X138301792Y-99263233D01*
X138301792Y-99263231D01*
X138243667Y-99071620D01*
X138243664Y-99071614D01*
X138149280Y-98895033D01*
X138022256Y-98740253D01*
X138022252Y-98740248D01*
X137958401Y-98687847D01*
X137867466Y-98613219D01*
X137690885Y-98518835D01*
X137690883Y-98518834D01*
X137499266Y-98460707D01*
X137499263Y-98460706D01*
X137300003Y-98441082D01*
X137299997Y-98441082D01*
X137100736Y-98460706D01*
X137100733Y-98460707D01*
X136909116Y-98518834D01*
X136909114Y-98518835D01*
X136732533Y-98613219D01*
X136577753Y-98740243D01*
X136577743Y-98740253D01*
X136450719Y-98895033D01*
X136356335Y-99071614D01*
X136356334Y-99071616D01*
X136298207Y-99263233D01*
X136298206Y-99263236D01*
X136278582Y-99462496D01*
X136278582Y-99462503D01*
X135781418Y-99462503D01*
X135781418Y-99462496D01*
X135761793Y-99263236D01*
X135761792Y-99263233D01*
X135761792Y-99263231D01*
X135703667Y-99071620D01*
X135703664Y-99071614D01*
X135609280Y-98895033D01*
X135482256Y-98740253D01*
X135482252Y-98740248D01*
X135418401Y-98687847D01*
X135327466Y-98613219D01*
X135150885Y-98518835D01*
X135150883Y-98518834D01*
X134959266Y-98460707D01*
X134959263Y-98460706D01*
X134760003Y-98441082D01*
X134759997Y-98441082D01*
X134560736Y-98460706D01*
X134560733Y-98460707D01*
X134369116Y-98518834D01*
X134369114Y-98518835D01*
X134192533Y-98613219D01*
X134037753Y-98740243D01*
X134037743Y-98740253D01*
X133910719Y-98895033D01*
X133816335Y-99071614D01*
X133816334Y-99071616D01*
X133758207Y-99263233D01*
X133758206Y-99263236D01*
X133738582Y-99462496D01*
X133738582Y-99462503D01*
X102633109Y-99462503D01*
X102574502Y-99393506D01*
X102574500Y-99393504D01*
X102574498Y-99393502D01*
X102430693Y-99284185D01*
X102430692Y-99284184D01*
X102339116Y-99241816D01*
X102266747Y-99208334D01*
X102266745Y-99208333D01*
X102231459Y-99200566D01*
X102090322Y-99169500D01*
X102090318Y-99169500D01*
X101954972Y-99169500D01*
X101820411Y-99184134D01*
X101649228Y-99241813D01*
X101649222Y-99241816D01*
X101494442Y-99334943D01*
X101363291Y-99459175D01*
X101261918Y-99608689D01*
X101229207Y-99690788D01*
X101195053Y-99776508D01*
X101165828Y-99954773D01*
X100011140Y-99954773D01*
X100030510Y-98586065D01*
X100030549Y-98584664D01*
X100033346Y-98518835D01*
X100090537Y-97172517D01*
X100090612Y-97171181D01*
X100108237Y-96922503D01*
X133738582Y-96922503D01*
X133758206Y-97121763D01*
X133758207Y-97121766D01*
X133816334Y-97313383D01*
X133816335Y-97313385D01*
X133910719Y-97489966D01*
X134037743Y-97644746D01*
X134037748Y-97644752D01*
X134037753Y-97644756D01*
X134192533Y-97771780D01*
X134369114Y-97866164D01*
X134369120Y-97866167D01*
X134560731Y-97924292D01*
X134560733Y-97924292D01*
X134560736Y-97924293D01*
X134759997Y-97943918D01*
X134760000Y-97943918D01*
X134760003Y-97943918D01*
X134959263Y-97924293D01*
X134959264Y-97924292D01*
X134959269Y-97924292D01*
X135150880Y-97866167D01*
X135251935Y-97812152D01*
X135327466Y-97771780D01*
X135327467Y-97771778D01*
X135327469Y-97771778D01*
X135482252Y-97644752D01*
X135609278Y-97489969D01*
X135643195Y-97426516D01*
X135703664Y-97313385D01*
X135703665Y-97313383D01*
X135703667Y-97313380D01*
X135761792Y-97121769D01*
X135781418Y-96922503D01*
X136278582Y-96922503D01*
X136298206Y-97121763D01*
X136298207Y-97121766D01*
X136356334Y-97313383D01*
X136356335Y-97313385D01*
X136450719Y-97489966D01*
X136577743Y-97644746D01*
X136577748Y-97644752D01*
X136577753Y-97644756D01*
X136732533Y-97771780D01*
X136909114Y-97866164D01*
X136909120Y-97866167D01*
X137100731Y-97924292D01*
X137100733Y-97924292D01*
X137100736Y-97924293D01*
X137299997Y-97943918D01*
X137300000Y-97943918D01*
X137300003Y-97943918D01*
X137499263Y-97924293D01*
X137499264Y-97924292D01*
X137499269Y-97924292D01*
X137690880Y-97866167D01*
X137791935Y-97812152D01*
X137867466Y-97771780D01*
X137867467Y-97771778D01*
X137867469Y-97771778D01*
X138022252Y-97644752D01*
X138149278Y-97489969D01*
X138183195Y-97426516D01*
X138243664Y-97313385D01*
X138243665Y-97313383D01*
X138243667Y-97313380D01*
X138301792Y-97121769D01*
X138321418Y-96922500D01*
X138321418Y-96922496D01*
X138301793Y-96723236D01*
X138301792Y-96723233D01*
X138301792Y-96723231D01*
X138243667Y-96531620D01*
X138163777Y-96382156D01*
X138149280Y-96355033D01*
X138022256Y-96200253D01*
X138022252Y-96200248D01*
X138022246Y-96200243D01*
X137867466Y-96073219D01*
X137690885Y-95978835D01*
X137690883Y-95978834D01*
X137499266Y-95920707D01*
X137499263Y-95920706D01*
X137300003Y-95901082D01*
X137299997Y-95901082D01*
X137100736Y-95920706D01*
X137100733Y-95920707D01*
X136909116Y-95978834D01*
X136909114Y-95978835D01*
X136732533Y-96073219D01*
X136577753Y-96200243D01*
X136577743Y-96200253D01*
X136450719Y-96355033D01*
X136356335Y-96531614D01*
X136356334Y-96531616D01*
X136298207Y-96723233D01*
X136298206Y-96723236D01*
X136278582Y-96922496D01*
X136278582Y-96922503D01*
X135781418Y-96922503D01*
X135781418Y-96922500D01*
X135781418Y-96922496D01*
X135761793Y-96723236D01*
X135761792Y-96723233D01*
X135761792Y-96723231D01*
X135703667Y-96531620D01*
X135623777Y-96382156D01*
X135609280Y-96355033D01*
X135482256Y-96200253D01*
X135482252Y-96200248D01*
X135482246Y-96200243D01*
X135327466Y-96073219D01*
X135150885Y-95978835D01*
X135150883Y-95978834D01*
X134959266Y-95920707D01*
X134959263Y-95920706D01*
X134760003Y-95901082D01*
X134759997Y-95901082D01*
X134560736Y-95920706D01*
X134560733Y-95920707D01*
X134369116Y-95978834D01*
X134369114Y-95978835D01*
X134192533Y-96073219D01*
X134037753Y-96200243D01*
X134037743Y-96200253D01*
X133910719Y-96355033D01*
X133816335Y-96531614D01*
X133816334Y-96531616D01*
X133758207Y-96723233D01*
X133758206Y-96723236D01*
X133738582Y-96922496D01*
X133738582Y-96922503D01*
X100108237Y-96922503D01*
X100190541Y-95761246D01*
X100190655Y-95759918D01*
X100327549Y-94382503D01*
X133738582Y-94382503D01*
X133758206Y-94581763D01*
X133758207Y-94581766D01*
X133816334Y-94773383D01*
X133816335Y-94773385D01*
X133910719Y-94949966D01*
X134037743Y-95104746D01*
X134037748Y-95104752D01*
X134037753Y-95104756D01*
X134192533Y-95231780D01*
X134369114Y-95326164D01*
X134369120Y-95326167D01*
X134560731Y-95384292D01*
X134560733Y-95384292D01*
X134560736Y-95384293D01*
X134759997Y-95403918D01*
X134760000Y-95403918D01*
X134760003Y-95403918D01*
X134959263Y-95384293D01*
X134959264Y-95384292D01*
X134959269Y-95384292D01*
X135150880Y-95326167D01*
X135230756Y-95283471D01*
X135327466Y-95231780D01*
X135327467Y-95231778D01*
X135327469Y-95231778D01*
X135482252Y-95104752D01*
X135609278Y-94949969D01*
X135703667Y-94773380D01*
X135761792Y-94581769D01*
X135781418Y-94382503D01*
X136278582Y-94382503D01*
X136298206Y-94581763D01*
X136298207Y-94581766D01*
X136356334Y-94773383D01*
X136356335Y-94773385D01*
X136450719Y-94949966D01*
X136577743Y-95104746D01*
X136577748Y-95104752D01*
X136577753Y-95104756D01*
X136732533Y-95231780D01*
X136909114Y-95326164D01*
X136909120Y-95326167D01*
X137100731Y-95384292D01*
X137100733Y-95384292D01*
X137100736Y-95384293D01*
X137299997Y-95403918D01*
X137300000Y-95403918D01*
X137300003Y-95403918D01*
X137499263Y-95384293D01*
X137499264Y-95384292D01*
X137499269Y-95384292D01*
X137690880Y-95326167D01*
X137770756Y-95283471D01*
X137867466Y-95231780D01*
X137867467Y-95231778D01*
X137867469Y-95231778D01*
X138022252Y-95104752D01*
X138149278Y-94949969D01*
X138243667Y-94773380D01*
X138301792Y-94581769D01*
X138321418Y-94382500D01*
X138321418Y-94382496D01*
X138301793Y-94183236D01*
X138301792Y-94183233D01*
X138301792Y-94183231D01*
X138243667Y-93991620D01*
X138243664Y-93991614D01*
X138149280Y-93815033D01*
X138022256Y-93660253D01*
X138022252Y-93660248D01*
X138022246Y-93660243D01*
X137867466Y-93533219D01*
X137690885Y-93438835D01*
X137690883Y-93438834D01*
X137499266Y-93380707D01*
X137499263Y-93380706D01*
X137300003Y-93361082D01*
X137299997Y-93361082D01*
X137100736Y-93380706D01*
X137100733Y-93380707D01*
X136909116Y-93438834D01*
X136909114Y-93438835D01*
X136732533Y-93533219D01*
X136577753Y-93660243D01*
X136577743Y-93660253D01*
X136450719Y-93815033D01*
X136356335Y-93991614D01*
X136356334Y-93991616D01*
X136298207Y-94183233D01*
X136298206Y-94183236D01*
X136278582Y-94382496D01*
X136278582Y-94382503D01*
X135781418Y-94382503D01*
X135781418Y-94382500D01*
X135781418Y-94382496D01*
X135761793Y-94183236D01*
X135761792Y-94183233D01*
X135761792Y-94183231D01*
X135703667Y-93991620D01*
X135703664Y-93991614D01*
X135609280Y-93815033D01*
X135482256Y-93660253D01*
X135482252Y-93660248D01*
X135482246Y-93660243D01*
X135327466Y-93533219D01*
X135150885Y-93438835D01*
X135150883Y-93438834D01*
X134959266Y-93380707D01*
X134959263Y-93380706D01*
X134760003Y-93361082D01*
X134759997Y-93361082D01*
X134560736Y-93380706D01*
X134560733Y-93380707D01*
X134369116Y-93438834D01*
X134369114Y-93438835D01*
X134192533Y-93533219D01*
X134037753Y-93660243D01*
X134037743Y-93660253D01*
X133910719Y-93815033D01*
X133816335Y-93991614D01*
X133816334Y-93991616D01*
X133758207Y-94183233D01*
X133758206Y-94183236D01*
X133738582Y-94382496D01*
X133738582Y-94382503D01*
X100327549Y-94382503D01*
X100330439Y-94353423D01*
X100330597Y-94352031D01*
X100376750Y-93991616D01*
X100510122Y-92950098D01*
X100510310Y-92948772D01*
X100683921Y-91842503D01*
X133738582Y-91842503D01*
X133758206Y-92041763D01*
X133758207Y-92041766D01*
X133816334Y-92233383D01*
X133816335Y-92233385D01*
X133910719Y-92409966D01*
X134037743Y-92564746D01*
X134037748Y-92564752D01*
X134037753Y-92564756D01*
X134192533Y-92691780D01*
X134369114Y-92786164D01*
X134369120Y-92786167D01*
X134560731Y-92844292D01*
X134560733Y-92844292D01*
X134560736Y-92844293D01*
X134759997Y-92863918D01*
X134760000Y-92863918D01*
X134760003Y-92863918D01*
X134959263Y-92844293D01*
X134959264Y-92844292D01*
X134959269Y-92844292D01*
X135150880Y-92786167D01*
X135230756Y-92743471D01*
X135327466Y-92691780D01*
X135327467Y-92691778D01*
X135327469Y-92691778D01*
X135482252Y-92564752D01*
X135609278Y-92409969D01*
X135703667Y-92233380D01*
X135761792Y-92041769D01*
X135781418Y-91842503D01*
X136278582Y-91842503D01*
X136298206Y-92041763D01*
X136298207Y-92041766D01*
X136356334Y-92233383D01*
X136356335Y-92233385D01*
X136450719Y-92409966D01*
X136577743Y-92564746D01*
X136577748Y-92564752D01*
X136577753Y-92564756D01*
X136732533Y-92691780D01*
X136909114Y-92786164D01*
X136909120Y-92786167D01*
X137100731Y-92844292D01*
X137100733Y-92844292D01*
X137100736Y-92844293D01*
X137299997Y-92863918D01*
X137300000Y-92863918D01*
X137300003Y-92863918D01*
X137499263Y-92844293D01*
X137499264Y-92844292D01*
X137499269Y-92844292D01*
X137690880Y-92786167D01*
X137770756Y-92743471D01*
X137867466Y-92691780D01*
X137867467Y-92691778D01*
X137867469Y-92691778D01*
X138022252Y-92564752D01*
X138149278Y-92409969D01*
X138243667Y-92233380D01*
X138301792Y-92041769D01*
X138321418Y-91842500D01*
X138321418Y-91842496D01*
X138301793Y-91643236D01*
X138301792Y-91643233D01*
X138301792Y-91643231D01*
X138243667Y-91451620D01*
X138243664Y-91451614D01*
X138149280Y-91275033D01*
X138022256Y-91120253D01*
X138022252Y-91120248D01*
X138003062Y-91104499D01*
X137867466Y-90993219D01*
X137690885Y-90898835D01*
X137690883Y-90898834D01*
X137499266Y-90840707D01*
X137499263Y-90840706D01*
X137300003Y-90821082D01*
X137299997Y-90821082D01*
X137100736Y-90840706D01*
X137100733Y-90840707D01*
X136909116Y-90898834D01*
X136909114Y-90898835D01*
X136732533Y-90993219D01*
X136577753Y-91120243D01*
X136577743Y-91120253D01*
X136450719Y-91275033D01*
X136356335Y-91451614D01*
X136356334Y-91451616D01*
X136298207Y-91643233D01*
X136298206Y-91643236D01*
X136278582Y-91842496D01*
X136278582Y-91842503D01*
X135781418Y-91842503D01*
X135781418Y-91842500D01*
X135781418Y-91842496D01*
X135761793Y-91643236D01*
X135761792Y-91643233D01*
X135761792Y-91643231D01*
X135703667Y-91451620D01*
X135703664Y-91451614D01*
X135609280Y-91275033D01*
X135482256Y-91120253D01*
X135482252Y-91120248D01*
X135463062Y-91104499D01*
X135327466Y-90993219D01*
X135150885Y-90898835D01*
X135150883Y-90898834D01*
X134959266Y-90840707D01*
X134959263Y-90840706D01*
X134760003Y-90821082D01*
X134759997Y-90821082D01*
X134560736Y-90840706D01*
X134560733Y-90840707D01*
X134369116Y-90898834D01*
X134369114Y-90898835D01*
X134192533Y-90993219D01*
X134037753Y-91120243D01*
X134037743Y-91120253D01*
X133910719Y-91275033D01*
X133816335Y-91451614D01*
X133816334Y-91451616D01*
X133758207Y-91643233D01*
X133758206Y-91643236D01*
X133738582Y-91842496D01*
X133738582Y-91842503D01*
X100683921Y-91842503D01*
X100729455Y-91552354D01*
X100729659Y-91551162D01*
X100855462Y-90875063D01*
X111370500Y-90875063D01*
X111370501Y-90875070D01*
X111385265Y-90949300D01*
X111385266Y-90949302D01*
X111414611Y-90993219D01*
X111441516Y-91033484D01*
X111525699Y-91089734D01*
X111599933Y-91104500D01*
X113350066Y-91104499D01*
X113424301Y-91089734D01*
X113508484Y-91033484D01*
X113564734Y-90949301D01*
X113579500Y-90875067D01*
X113579499Y-90000000D01*
X113905768Y-90000000D01*
X113924655Y-90203822D01*
X113936703Y-90246165D01*
X113980672Y-90400701D01*
X114071912Y-90583935D01*
X114195268Y-90747285D01*
X114346538Y-90885186D01*
X114520573Y-90992944D01*
X114711444Y-91066888D01*
X114912653Y-91104500D01*
X115117347Y-91104500D01*
X115318556Y-91066888D01*
X115509427Y-90992944D01*
X115683462Y-90885186D01*
X115834732Y-90747285D01*
X115958088Y-90583935D01*
X116049328Y-90400701D01*
X116105345Y-90203821D01*
X116114966Y-90100000D01*
X116509767Y-90100000D01*
X116520190Y-90205831D01*
X116520191Y-90205836D01*
X116580232Y-90403762D01*
X116580234Y-90403767D01*
X116677724Y-90586160D01*
X116677731Y-90586170D01*
X116808940Y-90746050D01*
X116808949Y-90746059D01*
X116968829Y-90877268D01*
X116968839Y-90877275D01*
X117151232Y-90974765D01*
X117151237Y-90974767D01*
X117349166Y-91034808D01*
X117454998Y-91045231D01*
X117455000Y-91045230D01*
X117455000Y-90490764D01*
X117519237Y-90500000D01*
X117590763Y-90500000D01*
X117655000Y-90490764D01*
X117655000Y-91045230D01*
X117655001Y-91045231D01*
X117760833Y-91034808D01*
X117958762Y-90974767D01*
X117958767Y-90974765D01*
X118141160Y-90877275D01*
X118141170Y-90877268D01*
X118301050Y-90746059D01*
X118301059Y-90746050D01*
X118432268Y-90586170D01*
X118432275Y-90586160D01*
X118529765Y-90403767D01*
X118529767Y-90403762D01*
X118589808Y-90205836D01*
X118589809Y-90205831D01*
X118600232Y-90100000D01*
X118046746Y-90100000D01*
X118055000Y-90071889D01*
X118055000Y-89928111D01*
X118046746Y-89900000D01*
X118600232Y-89900000D01*
X118600232Y-89899999D01*
X118589809Y-89794168D01*
X118589808Y-89794163D01*
X118529767Y-89596237D01*
X118529765Y-89596232D01*
X118432275Y-89413839D01*
X118432268Y-89413829D01*
X118340906Y-89302503D01*
X133738582Y-89302503D01*
X133758206Y-89501763D01*
X133758207Y-89501766D01*
X133816334Y-89693383D01*
X133816335Y-89693385D01*
X133910719Y-89869966D01*
X133958437Y-89928111D01*
X134037748Y-90024752D01*
X134037753Y-90024756D01*
X134192533Y-90151780D01*
X134369114Y-90246164D01*
X134369120Y-90246167D01*
X134560731Y-90304292D01*
X134560733Y-90304292D01*
X134560736Y-90304293D01*
X134759997Y-90323918D01*
X134760000Y-90323918D01*
X134760003Y-90323918D01*
X134959263Y-90304293D01*
X134959264Y-90304292D01*
X134959269Y-90304292D01*
X135150880Y-90246167D01*
X135310553Y-90160820D01*
X135327466Y-90151780D01*
X135327467Y-90151778D01*
X135327469Y-90151778D01*
X135482252Y-90024752D01*
X135609278Y-89869969D01*
X135703667Y-89693380D01*
X135761792Y-89501769D01*
X135761967Y-89500000D01*
X135781418Y-89302503D01*
X136278582Y-89302503D01*
X136298206Y-89501763D01*
X136298207Y-89501766D01*
X136356334Y-89693383D01*
X136356335Y-89693385D01*
X136450719Y-89869966D01*
X136498437Y-89928111D01*
X136577748Y-90024752D01*
X136577753Y-90024756D01*
X136732533Y-90151780D01*
X136909114Y-90246164D01*
X136909120Y-90246167D01*
X137100731Y-90304292D01*
X137100733Y-90304292D01*
X137100736Y-90304293D01*
X137299997Y-90323918D01*
X137300000Y-90323918D01*
X137300003Y-90323918D01*
X137499263Y-90304293D01*
X137499264Y-90304292D01*
X137499269Y-90304292D01*
X137690880Y-90246167D01*
X137850553Y-90160820D01*
X137867466Y-90151780D01*
X137867467Y-90151778D01*
X137867469Y-90151778D01*
X138022252Y-90024752D01*
X138149278Y-89869969D01*
X138243667Y-89693380D01*
X138301792Y-89501769D01*
X138301967Y-89500000D01*
X138321418Y-89302503D01*
X138321418Y-89302496D01*
X138301793Y-89103236D01*
X138301792Y-89103233D01*
X138301792Y-89103231D01*
X138243667Y-88911620D01*
X138235051Y-88895500D01*
X138149280Y-88735033D01*
X138022256Y-88580253D01*
X138022252Y-88580248D01*
X138022246Y-88580243D01*
X137867466Y-88453219D01*
X137690885Y-88358835D01*
X137690883Y-88358834D01*
X137499266Y-88300707D01*
X137499263Y-88300706D01*
X137300003Y-88281082D01*
X137299997Y-88281082D01*
X137100736Y-88300706D01*
X137100733Y-88300707D01*
X136909116Y-88358834D01*
X136909114Y-88358835D01*
X136732533Y-88453219D01*
X136577753Y-88580243D01*
X136577743Y-88580253D01*
X136450719Y-88735033D01*
X136356335Y-88911614D01*
X136356334Y-88911616D01*
X136298207Y-89103233D01*
X136298206Y-89103236D01*
X136278582Y-89302496D01*
X136278582Y-89302503D01*
X135781418Y-89302503D01*
X135781418Y-89302496D01*
X135761793Y-89103236D01*
X135761792Y-89103233D01*
X135761792Y-89103231D01*
X135703667Y-88911620D01*
X135695051Y-88895500D01*
X135609280Y-88735033D01*
X135482256Y-88580253D01*
X135482252Y-88580248D01*
X135482246Y-88580243D01*
X135327466Y-88453219D01*
X135150885Y-88358835D01*
X135150883Y-88358834D01*
X134959266Y-88300707D01*
X134959263Y-88300706D01*
X134760003Y-88281082D01*
X134759997Y-88281082D01*
X134560736Y-88300706D01*
X134560733Y-88300707D01*
X134369116Y-88358834D01*
X134369114Y-88358835D01*
X134192533Y-88453219D01*
X134037753Y-88580243D01*
X134037743Y-88580253D01*
X133910719Y-88735033D01*
X133816335Y-88911614D01*
X133816334Y-88911616D01*
X133758207Y-89103233D01*
X133758206Y-89103236D01*
X133738582Y-89302496D01*
X133738582Y-89302503D01*
X118340906Y-89302503D01*
X118301059Y-89253949D01*
X118301050Y-89253940D01*
X118141170Y-89122731D01*
X118141160Y-89122724D01*
X117958767Y-89025234D01*
X117958762Y-89025232D01*
X117760836Y-88965191D01*
X117760831Y-88965190D01*
X117655000Y-88954767D01*
X117654999Y-89509235D01*
X117590763Y-89500000D01*
X117519237Y-89500000D01*
X117454999Y-89509235D01*
X117455000Y-88954767D01*
X117454999Y-88954767D01*
X117349168Y-88965190D01*
X117349163Y-88965191D01*
X117151237Y-89025232D01*
X117151232Y-89025234D01*
X116968839Y-89122724D01*
X116968829Y-89122731D01*
X116808949Y-89253940D01*
X116808940Y-89253949D01*
X116677731Y-89413829D01*
X116677724Y-89413839D01*
X116580234Y-89596232D01*
X116580232Y-89596237D01*
X116520191Y-89794163D01*
X116520190Y-89794168D01*
X116509767Y-89899999D01*
X116509768Y-89900000D01*
X117063254Y-89900000D01*
X117055000Y-89928111D01*
X117055000Y-90071889D01*
X117063254Y-90100000D01*
X116509767Y-90100000D01*
X116114966Y-90100000D01*
X116124232Y-90000000D01*
X116105345Y-89796179D01*
X116049328Y-89599299D01*
X115958088Y-89416065D01*
X115834732Y-89252715D01*
X115683462Y-89114814D01*
X115579910Y-89050697D01*
X115509432Y-89007059D01*
X115509431Y-89007058D01*
X115509427Y-89007056D01*
X115496726Y-89002135D01*
X115432735Y-88977344D01*
X115385305Y-88938692D01*
X115369500Y-88885030D01*
X115369500Y-86762503D01*
X133738582Y-86762503D01*
X133758206Y-86961763D01*
X133758207Y-86961766D01*
X133816334Y-87153383D01*
X133816335Y-87153385D01*
X133910719Y-87329966D01*
X133970708Y-87403063D01*
X134037748Y-87484752D01*
X134037753Y-87484756D01*
X134192533Y-87611780D01*
X134369114Y-87706164D01*
X134369120Y-87706167D01*
X134560731Y-87764292D01*
X134560733Y-87764292D01*
X134560736Y-87764293D01*
X134759997Y-87783918D01*
X134760000Y-87783918D01*
X134760003Y-87783918D01*
X134959263Y-87764293D01*
X134959264Y-87764292D01*
X134959269Y-87764292D01*
X135150880Y-87706167D01*
X135230756Y-87663471D01*
X135327466Y-87611780D01*
X135327467Y-87611778D01*
X135327469Y-87611778D01*
X135482252Y-87484752D01*
X135609278Y-87329969D01*
X135703667Y-87153380D01*
X135761792Y-86961769D01*
X135781418Y-86762503D01*
X136278582Y-86762503D01*
X136298206Y-86961763D01*
X136298207Y-86961766D01*
X136356334Y-87153383D01*
X136356335Y-87153385D01*
X136450719Y-87329966D01*
X136510708Y-87403063D01*
X136577748Y-87484752D01*
X136577753Y-87484756D01*
X136732533Y-87611780D01*
X136909114Y-87706164D01*
X136909120Y-87706167D01*
X137100731Y-87764292D01*
X137100733Y-87764292D01*
X137100736Y-87764293D01*
X137299997Y-87783918D01*
X137300000Y-87783918D01*
X137300003Y-87783918D01*
X137499263Y-87764293D01*
X137499264Y-87764292D01*
X137499269Y-87764292D01*
X137690880Y-87706167D01*
X137770756Y-87663471D01*
X137867466Y-87611780D01*
X137867467Y-87611778D01*
X137867469Y-87611778D01*
X138022252Y-87484752D01*
X138149278Y-87329969D01*
X138243667Y-87153380D01*
X138301792Y-86961769D01*
X138321418Y-86762500D01*
X138321418Y-86762496D01*
X138301793Y-86563236D01*
X138301792Y-86563233D01*
X138301792Y-86563231D01*
X138243667Y-86371620D01*
X138243664Y-86371614D01*
X138149280Y-86195033D01*
X138022256Y-86040253D01*
X138022252Y-86040248D01*
X138022246Y-86040243D01*
X137867466Y-85913219D01*
X137690885Y-85818835D01*
X137690883Y-85818834D01*
X137499266Y-85760707D01*
X137499263Y-85760706D01*
X137300003Y-85741082D01*
X137299997Y-85741082D01*
X137100736Y-85760706D01*
X137100733Y-85760707D01*
X136909116Y-85818834D01*
X136909114Y-85818835D01*
X136732533Y-85913219D01*
X136577753Y-86040243D01*
X136577743Y-86040253D01*
X136450719Y-86195033D01*
X136356335Y-86371614D01*
X136356334Y-86371616D01*
X136298207Y-86563233D01*
X136298206Y-86563236D01*
X136278582Y-86762496D01*
X136278582Y-86762503D01*
X135781418Y-86762503D01*
X135781418Y-86762500D01*
X135781418Y-86762496D01*
X135761793Y-86563236D01*
X135761792Y-86563233D01*
X135761792Y-86563231D01*
X135703667Y-86371620D01*
X135703664Y-86371614D01*
X135609280Y-86195033D01*
X135482256Y-86040253D01*
X135482252Y-86040248D01*
X135482246Y-86040243D01*
X135327466Y-85913219D01*
X135150885Y-85818835D01*
X135150883Y-85818834D01*
X134959266Y-85760707D01*
X134959263Y-85760706D01*
X134760003Y-85741082D01*
X134759997Y-85741082D01*
X134560736Y-85760706D01*
X134560733Y-85760707D01*
X134369116Y-85818834D01*
X134369114Y-85818835D01*
X134192533Y-85913219D01*
X134037753Y-86040243D01*
X134037743Y-86040253D01*
X133910719Y-86195033D01*
X133816335Y-86371614D01*
X133816334Y-86371616D01*
X133758207Y-86563233D01*
X133758206Y-86563236D01*
X133738582Y-86762496D01*
X133738582Y-86762503D01*
X115369500Y-86762503D01*
X115369500Y-84222503D01*
X133738582Y-84222503D01*
X133758206Y-84421763D01*
X133758207Y-84421766D01*
X133816334Y-84613383D01*
X133816335Y-84613385D01*
X133910719Y-84789966D01*
X133993101Y-84890349D01*
X134037748Y-84944752D01*
X134037753Y-84944756D01*
X134192533Y-85071780D01*
X134369114Y-85166164D01*
X134369120Y-85166167D01*
X134560731Y-85224292D01*
X134560733Y-85224292D01*
X134560736Y-85224293D01*
X134759997Y-85243918D01*
X134760000Y-85243918D01*
X134760003Y-85243918D01*
X134959263Y-85224293D01*
X134959264Y-85224292D01*
X134959269Y-85224292D01*
X135150880Y-85166167D01*
X135284314Y-85094845D01*
X135327466Y-85071780D01*
X135327467Y-85071778D01*
X135327469Y-85071778D01*
X135482252Y-84944752D01*
X135609278Y-84789969D01*
X135611871Y-84785119D01*
X135703664Y-84613385D01*
X135703665Y-84613383D01*
X135703667Y-84613380D01*
X135761792Y-84421769D01*
X135764188Y-84397449D01*
X135781418Y-84222503D01*
X136278582Y-84222503D01*
X136298206Y-84421763D01*
X136298207Y-84421766D01*
X136356334Y-84613383D01*
X136356335Y-84613385D01*
X136450719Y-84789966D01*
X136533101Y-84890349D01*
X136577748Y-84944752D01*
X136577753Y-84944756D01*
X136732533Y-85071780D01*
X136909114Y-85166164D01*
X136909120Y-85166167D01*
X137100731Y-85224292D01*
X137100733Y-85224292D01*
X137100736Y-85224293D01*
X137299997Y-85243918D01*
X137300000Y-85243918D01*
X137300003Y-85243918D01*
X137499263Y-85224293D01*
X137499264Y-85224292D01*
X137499269Y-85224292D01*
X137690880Y-85166167D01*
X137824314Y-85094845D01*
X137867466Y-85071780D01*
X137867467Y-85071778D01*
X137867469Y-85071778D01*
X138022252Y-84944752D01*
X138149278Y-84789969D01*
X138151871Y-84785119D01*
X138243664Y-84613385D01*
X138243665Y-84613383D01*
X138243667Y-84613380D01*
X138301792Y-84421769D01*
X138304188Y-84397449D01*
X138321418Y-84222503D01*
X138321418Y-84222496D01*
X138301793Y-84023236D01*
X138301792Y-84023233D01*
X138301792Y-84023231D01*
X138243667Y-83831620D01*
X138243664Y-83831614D01*
X138149280Y-83655033D01*
X138022256Y-83500253D01*
X138022252Y-83500248D01*
X138022246Y-83500243D01*
X137867466Y-83373219D01*
X137690885Y-83278835D01*
X137690883Y-83278834D01*
X137499266Y-83220707D01*
X137499263Y-83220706D01*
X137300003Y-83201082D01*
X137299997Y-83201082D01*
X137100736Y-83220706D01*
X137100733Y-83220707D01*
X136909116Y-83278834D01*
X136909114Y-83278835D01*
X136732533Y-83373219D01*
X136577753Y-83500243D01*
X136577743Y-83500253D01*
X136450719Y-83655033D01*
X136356335Y-83831614D01*
X136356334Y-83831616D01*
X136298207Y-84023233D01*
X136298206Y-84023236D01*
X136278582Y-84222496D01*
X136278582Y-84222503D01*
X135781418Y-84222503D01*
X135781418Y-84222496D01*
X135761793Y-84023236D01*
X135761792Y-84023233D01*
X135761792Y-84023231D01*
X135703667Y-83831620D01*
X135703664Y-83831614D01*
X135609280Y-83655033D01*
X135482256Y-83500253D01*
X135482252Y-83500248D01*
X135482246Y-83500243D01*
X135327466Y-83373219D01*
X135150885Y-83278835D01*
X135150883Y-83278834D01*
X134959266Y-83220707D01*
X134959263Y-83220706D01*
X134760003Y-83201082D01*
X134759997Y-83201082D01*
X134560736Y-83220706D01*
X134560733Y-83220707D01*
X134369116Y-83278834D01*
X134369114Y-83278835D01*
X134192533Y-83373219D01*
X134037753Y-83500243D01*
X134037743Y-83500253D01*
X133910719Y-83655033D01*
X133816335Y-83831614D01*
X133816334Y-83831616D01*
X133758207Y-84023233D01*
X133758206Y-84023236D01*
X133738582Y-84222496D01*
X133738582Y-84222503D01*
X115369500Y-84222503D01*
X115369500Y-81682503D01*
X133738582Y-81682503D01*
X133758206Y-81881763D01*
X133758207Y-81881766D01*
X133816334Y-82073383D01*
X133816335Y-82073385D01*
X133910719Y-82249966D01*
X134037743Y-82404746D01*
X134037748Y-82404752D01*
X134037753Y-82404756D01*
X134192533Y-82531780D01*
X134369114Y-82626164D01*
X134369120Y-82626167D01*
X134560731Y-82684292D01*
X134560733Y-82684292D01*
X134560736Y-82684293D01*
X134759997Y-82703918D01*
X134760000Y-82703918D01*
X134760003Y-82703918D01*
X134959263Y-82684293D01*
X134959264Y-82684292D01*
X134959269Y-82684292D01*
X135150880Y-82626167D01*
X135230756Y-82583471D01*
X135327466Y-82531780D01*
X135327467Y-82531778D01*
X135327469Y-82531778D01*
X135482252Y-82404752D01*
X135609278Y-82249969D01*
X135703667Y-82073380D01*
X135761792Y-81881769D01*
X135781418Y-81682503D01*
X136278582Y-81682503D01*
X136298206Y-81881763D01*
X136298207Y-81881766D01*
X136356334Y-82073383D01*
X136356335Y-82073385D01*
X136450719Y-82249966D01*
X136577743Y-82404746D01*
X136577748Y-82404752D01*
X136577753Y-82404756D01*
X136732533Y-82531780D01*
X136909114Y-82626164D01*
X136909120Y-82626167D01*
X137100731Y-82684292D01*
X137100733Y-82684292D01*
X137100736Y-82684293D01*
X137299997Y-82703918D01*
X137300000Y-82703918D01*
X137300003Y-82703918D01*
X137499263Y-82684293D01*
X137499264Y-82684292D01*
X137499269Y-82684292D01*
X137690880Y-82626167D01*
X137770756Y-82583471D01*
X137867466Y-82531780D01*
X137867467Y-82531778D01*
X137867469Y-82531778D01*
X138022252Y-82404752D01*
X138149278Y-82249969D01*
X138243667Y-82073380D01*
X138301792Y-81881769D01*
X138321418Y-81682500D01*
X138321418Y-81682496D01*
X138301793Y-81483236D01*
X138301792Y-81483233D01*
X138301792Y-81483231D01*
X138243667Y-81291620D01*
X138243664Y-81291614D01*
X138149280Y-81115033D01*
X138022256Y-80960253D01*
X138022252Y-80960248D01*
X138022246Y-80960243D01*
X137867466Y-80833219D01*
X137690885Y-80738835D01*
X137690883Y-80738834D01*
X137499266Y-80680707D01*
X137499263Y-80680706D01*
X137300003Y-80661082D01*
X137299997Y-80661082D01*
X137100736Y-80680706D01*
X137100733Y-80680707D01*
X136909116Y-80738834D01*
X136909114Y-80738835D01*
X136732533Y-80833219D01*
X136577753Y-80960243D01*
X136577743Y-80960253D01*
X136450719Y-81115033D01*
X136356335Y-81291614D01*
X136356334Y-81291616D01*
X136298207Y-81483233D01*
X136298206Y-81483236D01*
X136278582Y-81682496D01*
X136278582Y-81682503D01*
X135781418Y-81682503D01*
X135781418Y-81682500D01*
X135781418Y-81682496D01*
X135761793Y-81483236D01*
X135761792Y-81483233D01*
X135761792Y-81483231D01*
X135703667Y-81291620D01*
X135703664Y-81291614D01*
X135609280Y-81115033D01*
X135482256Y-80960253D01*
X135482252Y-80960248D01*
X135482246Y-80960243D01*
X135327466Y-80833219D01*
X135150885Y-80738835D01*
X135150883Y-80738834D01*
X134959266Y-80680707D01*
X134959263Y-80680706D01*
X134760003Y-80661082D01*
X134759997Y-80661082D01*
X134560736Y-80680706D01*
X134560733Y-80680707D01*
X134369116Y-80738834D01*
X134369114Y-80738835D01*
X134192533Y-80833219D01*
X134037753Y-80960243D01*
X134037743Y-80960253D01*
X133910719Y-81115033D01*
X133816335Y-81291614D01*
X133816334Y-81291616D01*
X133758207Y-81483233D01*
X133758206Y-81483236D01*
X133738582Y-81682496D01*
X133738582Y-81682503D01*
X115369500Y-81682503D01*
X115369500Y-79142503D01*
X133738582Y-79142503D01*
X133758206Y-79341763D01*
X133758207Y-79341766D01*
X133816334Y-79533383D01*
X133816335Y-79533385D01*
X133910719Y-79709966D01*
X134037743Y-79864746D01*
X134037748Y-79864752D01*
X134037753Y-79864756D01*
X134192533Y-79991780D01*
X134369114Y-80086164D01*
X134369120Y-80086167D01*
X134560731Y-80144292D01*
X134560733Y-80144292D01*
X134560736Y-80144293D01*
X134759997Y-80163918D01*
X134760000Y-80163918D01*
X134760003Y-80163918D01*
X134959263Y-80144293D01*
X134959264Y-80144292D01*
X134959269Y-80144292D01*
X135150880Y-80086167D01*
X135230756Y-80043471D01*
X135327466Y-79991780D01*
X135327467Y-79991778D01*
X135327469Y-79991778D01*
X135482252Y-79864752D01*
X135609278Y-79709969D01*
X135703667Y-79533380D01*
X135761792Y-79341769D01*
X135781418Y-79142503D01*
X136278582Y-79142503D01*
X136298206Y-79341763D01*
X136298207Y-79341766D01*
X136356334Y-79533383D01*
X136356335Y-79533385D01*
X136450719Y-79709966D01*
X136577743Y-79864746D01*
X136577748Y-79864752D01*
X136577753Y-79864756D01*
X136732533Y-79991780D01*
X136909114Y-80086164D01*
X136909120Y-80086167D01*
X137100731Y-80144292D01*
X137100733Y-80144292D01*
X137100736Y-80144293D01*
X137299997Y-80163918D01*
X137300000Y-80163918D01*
X137300003Y-80163918D01*
X137499263Y-80144293D01*
X137499264Y-80144292D01*
X137499269Y-80144292D01*
X137690880Y-80086167D01*
X137770756Y-80043471D01*
X137867466Y-79991780D01*
X137867467Y-79991778D01*
X137867469Y-79991778D01*
X138022252Y-79864752D01*
X138149278Y-79709969D01*
X138243667Y-79533380D01*
X138301792Y-79341769D01*
X138321418Y-79142500D01*
X138321418Y-79142496D01*
X138301793Y-78943236D01*
X138301792Y-78943233D01*
X138301792Y-78943231D01*
X138243667Y-78751620D01*
X138243664Y-78751614D01*
X138149280Y-78575033D01*
X138022256Y-78420253D01*
X138022252Y-78420248D01*
X138022246Y-78420243D01*
X137867466Y-78293219D01*
X137690885Y-78198835D01*
X137690883Y-78198834D01*
X137499266Y-78140707D01*
X137499263Y-78140706D01*
X137300003Y-78121082D01*
X137299997Y-78121082D01*
X137100736Y-78140706D01*
X137100733Y-78140707D01*
X136909116Y-78198834D01*
X136909114Y-78198835D01*
X136732533Y-78293219D01*
X136577753Y-78420243D01*
X136577743Y-78420253D01*
X136450719Y-78575033D01*
X136356335Y-78751614D01*
X136356334Y-78751616D01*
X136298207Y-78943233D01*
X136298206Y-78943236D01*
X136278582Y-79142496D01*
X136278582Y-79142503D01*
X135781418Y-79142503D01*
X135781418Y-79142500D01*
X135781418Y-79142496D01*
X135761793Y-78943236D01*
X135761792Y-78943233D01*
X135761792Y-78943231D01*
X135703667Y-78751620D01*
X135703664Y-78751614D01*
X135609280Y-78575033D01*
X135482256Y-78420253D01*
X135482252Y-78420248D01*
X135482246Y-78420243D01*
X135327466Y-78293219D01*
X135150885Y-78198835D01*
X135150883Y-78198834D01*
X134959266Y-78140707D01*
X134959263Y-78140706D01*
X134760003Y-78121082D01*
X134759997Y-78121082D01*
X134560736Y-78140706D01*
X134560733Y-78140707D01*
X134369116Y-78198834D01*
X134369114Y-78198835D01*
X134192533Y-78293219D01*
X134037753Y-78420243D01*
X134037743Y-78420253D01*
X133910719Y-78575033D01*
X133816335Y-78751614D01*
X133816334Y-78751616D01*
X133758207Y-78943233D01*
X133758206Y-78943236D01*
X133738582Y-79142496D01*
X133738582Y-79142503D01*
X115369500Y-79142503D01*
X115369500Y-78172847D01*
X115388407Y-78114656D01*
X115398496Y-78102843D01*
X118501339Y-75000000D01*
X122040493Y-75000000D01*
X122060504Y-75343580D01*
X122120266Y-75682506D01*
X122120266Y-75682507D01*
X122218971Y-76012205D01*
X122218973Y-76012212D01*
X122355285Y-76328217D01*
X122355288Y-76328224D01*
X122527367Y-76626274D01*
X122527369Y-76626277D01*
X122732888Y-76902337D01*
X122969069Y-77152673D01*
X123232701Y-77373886D01*
X123232705Y-77373889D01*
X123351129Y-77451778D01*
X123494640Y-77546167D01*
X123520246Y-77563008D01*
X123827799Y-77717467D01*
X124151204Y-77835177D01*
X124151207Y-77835177D01*
X124151208Y-77835178D01*
X124486076Y-77914543D01*
X124486081Y-77914543D01*
X124486087Y-77914545D01*
X124827920Y-77954500D01*
X125172077Y-77954500D01*
X125172080Y-77954500D01*
X125513913Y-77914545D01*
X125513919Y-77914543D01*
X125513923Y-77914543D01*
X125737168Y-77861632D01*
X125848796Y-77835177D01*
X126172201Y-77717467D01*
X126479754Y-77563008D01*
X126767295Y-77373889D01*
X127030937Y-77152667D01*
X127267114Y-76902334D01*
X127472632Y-76626276D01*
X127486357Y-76602503D01*
X133738582Y-76602503D01*
X133758206Y-76801763D01*
X133758207Y-76801766D01*
X133816334Y-76993383D01*
X133816335Y-76993385D01*
X133910719Y-77169966D01*
X134037743Y-77324746D01*
X134037748Y-77324752D01*
X134037753Y-77324756D01*
X134192533Y-77451780D01*
X134369114Y-77546164D01*
X134369120Y-77546167D01*
X134560731Y-77604292D01*
X134560733Y-77604292D01*
X134560736Y-77604293D01*
X134759997Y-77623918D01*
X134760000Y-77623918D01*
X134760003Y-77623918D01*
X134959263Y-77604293D01*
X134959264Y-77604292D01*
X134959269Y-77604292D01*
X135150880Y-77546167D01*
X135230756Y-77503471D01*
X135327466Y-77451780D01*
X135327467Y-77451778D01*
X135327469Y-77451778D01*
X135482252Y-77324752D01*
X135609278Y-77169969D01*
X135703667Y-76993380D01*
X135761792Y-76801769D01*
X135779077Y-76626277D01*
X135781418Y-76602503D01*
X136278582Y-76602503D01*
X136298206Y-76801763D01*
X136298207Y-76801766D01*
X136356334Y-76993383D01*
X136356335Y-76993385D01*
X136450719Y-77169966D01*
X136577743Y-77324746D01*
X136577748Y-77324752D01*
X136577753Y-77324756D01*
X136732533Y-77451780D01*
X136909114Y-77546164D01*
X136909120Y-77546167D01*
X137100731Y-77604292D01*
X137100733Y-77604292D01*
X137100736Y-77604293D01*
X137299997Y-77623918D01*
X137300000Y-77623918D01*
X137300003Y-77623918D01*
X137499263Y-77604293D01*
X137499264Y-77604292D01*
X137499269Y-77604292D01*
X137690880Y-77546167D01*
X137770756Y-77503471D01*
X137867466Y-77451780D01*
X137867467Y-77451778D01*
X137867469Y-77451778D01*
X138022252Y-77324752D01*
X138149278Y-77169969D01*
X138243667Y-76993380D01*
X138301792Y-76801769D01*
X138319077Y-76626277D01*
X138321418Y-76602503D01*
X138321418Y-76602496D01*
X138301793Y-76403236D01*
X138301792Y-76403233D01*
X138301792Y-76403231D01*
X138243667Y-76211620D01*
X138214203Y-76156496D01*
X138149280Y-76035033D01*
X138022256Y-75880253D01*
X138022252Y-75880248D01*
X138022246Y-75880243D01*
X137867466Y-75753219D01*
X137690885Y-75658835D01*
X137690883Y-75658834D01*
X137499266Y-75600707D01*
X137499263Y-75600706D01*
X137300003Y-75581082D01*
X137299997Y-75581082D01*
X137100736Y-75600706D01*
X137100733Y-75600707D01*
X136909116Y-75658834D01*
X136909114Y-75658835D01*
X136732533Y-75753219D01*
X136577753Y-75880243D01*
X136577743Y-75880253D01*
X136450719Y-76035033D01*
X136356335Y-76211614D01*
X136356334Y-76211616D01*
X136298207Y-76403233D01*
X136298206Y-76403236D01*
X136278582Y-76602496D01*
X136278582Y-76602503D01*
X135781418Y-76602503D01*
X135781418Y-76602496D01*
X135761793Y-76403236D01*
X135761792Y-76403233D01*
X135761792Y-76403231D01*
X135703667Y-76211620D01*
X135674203Y-76156496D01*
X135609280Y-76035033D01*
X135482256Y-75880253D01*
X135482252Y-75880248D01*
X135482246Y-75880243D01*
X135327466Y-75753219D01*
X135150885Y-75658835D01*
X135150883Y-75658834D01*
X134959266Y-75600707D01*
X134959263Y-75600706D01*
X134760003Y-75581082D01*
X134759997Y-75581082D01*
X134560736Y-75600706D01*
X134560733Y-75600707D01*
X134369116Y-75658834D01*
X134369114Y-75658835D01*
X134192533Y-75753219D01*
X134037753Y-75880243D01*
X134037743Y-75880253D01*
X133910719Y-76035033D01*
X133816335Y-76211614D01*
X133816334Y-76211616D01*
X133758207Y-76403233D01*
X133758206Y-76403236D01*
X133738582Y-76602496D01*
X133738582Y-76602503D01*
X127486357Y-76602503D01*
X127644712Y-76328224D01*
X127781027Y-76012211D01*
X127879733Y-75682509D01*
X127939496Y-75343578D01*
X127959507Y-75000000D01*
X127939496Y-74656422D01*
X127879733Y-74317491D01*
X127803395Y-74062503D01*
X133738582Y-74062503D01*
X133758206Y-74261763D01*
X133758207Y-74261766D01*
X133816334Y-74453383D01*
X133816335Y-74453385D01*
X133910719Y-74629966D01*
X133932431Y-74656422D01*
X134037748Y-74784752D01*
X134037753Y-74784756D01*
X134192533Y-74911780D01*
X134357582Y-75000000D01*
X134369120Y-75006167D01*
X134560731Y-75064292D01*
X134560733Y-75064292D01*
X134560736Y-75064293D01*
X134759997Y-75083918D01*
X134760000Y-75083918D01*
X134760003Y-75083918D01*
X134959263Y-75064293D01*
X134959264Y-75064292D01*
X134959269Y-75064292D01*
X135150880Y-75006167D01*
X135230756Y-74963471D01*
X135327466Y-74911780D01*
X135327467Y-74911778D01*
X135327469Y-74911778D01*
X135482252Y-74784752D01*
X135609278Y-74629969D01*
X135703667Y-74453380D01*
X135761792Y-74261769D01*
X135781418Y-74062503D01*
X136278582Y-74062503D01*
X136298206Y-74261763D01*
X136298207Y-74261766D01*
X136356334Y-74453383D01*
X136356335Y-74453385D01*
X136450719Y-74629966D01*
X136472431Y-74656422D01*
X136577748Y-74784752D01*
X136577753Y-74784756D01*
X136732533Y-74911780D01*
X136897582Y-75000000D01*
X136909120Y-75006167D01*
X137100731Y-75064292D01*
X137100733Y-75064292D01*
X137100736Y-75064293D01*
X137299997Y-75083918D01*
X137300000Y-75083918D01*
X137300003Y-75083918D01*
X137499263Y-75064293D01*
X137499264Y-75064292D01*
X137499269Y-75064292D01*
X137690880Y-75006167D01*
X137770756Y-74963471D01*
X137867466Y-74911780D01*
X137867467Y-74911778D01*
X137867469Y-74911778D01*
X138022252Y-74784752D01*
X138149278Y-74629969D01*
X138243667Y-74453380D01*
X138301792Y-74261769D01*
X138321418Y-74062500D01*
X138321418Y-74062496D01*
X138301793Y-73863236D01*
X138301792Y-73863233D01*
X138301792Y-73863231D01*
X138243667Y-73671620D01*
X138243664Y-73671614D01*
X138149280Y-73495033D01*
X138022256Y-73340253D01*
X138022252Y-73340248D01*
X138022246Y-73340243D01*
X137867466Y-73213219D01*
X137690885Y-73118835D01*
X137690883Y-73118834D01*
X137499266Y-73060707D01*
X137499263Y-73060706D01*
X137300003Y-73041082D01*
X137299997Y-73041082D01*
X137100736Y-73060706D01*
X137100733Y-73060707D01*
X136909116Y-73118834D01*
X136909114Y-73118835D01*
X136732533Y-73213219D01*
X136577753Y-73340243D01*
X136577743Y-73340253D01*
X136450719Y-73495033D01*
X136356335Y-73671614D01*
X136356334Y-73671616D01*
X136298207Y-73863233D01*
X136298206Y-73863236D01*
X136278582Y-74062496D01*
X136278582Y-74062503D01*
X135781418Y-74062503D01*
X135781418Y-74062500D01*
X135781418Y-74062496D01*
X135761793Y-73863236D01*
X135761792Y-73863233D01*
X135761792Y-73863231D01*
X135703667Y-73671620D01*
X135703664Y-73671614D01*
X135609280Y-73495033D01*
X135482256Y-73340253D01*
X135482252Y-73340248D01*
X135482246Y-73340243D01*
X135327466Y-73213219D01*
X135150885Y-73118835D01*
X135150883Y-73118834D01*
X134959266Y-73060707D01*
X134959263Y-73060706D01*
X134760003Y-73041082D01*
X134759997Y-73041082D01*
X134560736Y-73060706D01*
X134560733Y-73060707D01*
X134369116Y-73118834D01*
X134369114Y-73118835D01*
X134192533Y-73213219D01*
X134037753Y-73340243D01*
X134037743Y-73340253D01*
X133910719Y-73495033D01*
X133816335Y-73671614D01*
X133816334Y-73671616D01*
X133758207Y-73863233D01*
X133758206Y-73863236D01*
X133738582Y-74062496D01*
X133738582Y-74062503D01*
X127803395Y-74062503D01*
X127781027Y-73987789D01*
X127644712Y-73671776D01*
X127472632Y-73373724D01*
X127267114Y-73097666D01*
X127267113Y-73097665D01*
X127267111Y-73097662D01*
X127030930Y-72847326D01*
X126767298Y-72626113D01*
X126479755Y-72436992D01*
X126172203Y-72282534D01*
X126172198Y-72282532D01*
X125848791Y-72164821D01*
X125513923Y-72085456D01*
X125402817Y-72072469D01*
X125172080Y-72045500D01*
X125172077Y-72045500D01*
X124827923Y-72045500D01*
X124827920Y-72045500D01*
X124639561Y-72067516D01*
X124486076Y-72085456D01*
X124151208Y-72164821D01*
X123827801Y-72282532D01*
X123827796Y-72282534D01*
X123520244Y-72436992D01*
X123232701Y-72626113D01*
X122969069Y-72847326D01*
X122732888Y-73097662D01*
X122527369Y-73373722D01*
X122527367Y-73373725D01*
X122355288Y-73671775D01*
X122355285Y-73671782D01*
X122218973Y-73987787D01*
X122218971Y-73987794D01*
X122120266Y-74317492D01*
X122120266Y-74317493D01*
X122060504Y-74656419D01*
X122040493Y-75000000D01*
X118501339Y-75000000D01*
X121978836Y-71522503D01*
X133738582Y-71522503D01*
X133758206Y-71721763D01*
X133758207Y-71721766D01*
X133816334Y-71913383D01*
X133816335Y-71913385D01*
X133910719Y-72089966D01*
X134037743Y-72244746D01*
X134037748Y-72244752D01*
X134037753Y-72244756D01*
X134192533Y-72371780D01*
X134369114Y-72466164D01*
X134369120Y-72466167D01*
X134560731Y-72524292D01*
X134560733Y-72524292D01*
X134560736Y-72524293D01*
X134759997Y-72543918D01*
X134760000Y-72543918D01*
X134760003Y-72543918D01*
X134959263Y-72524293D01*
X134959264Y-72524292D01*
X134959269Y-72524292D01*
X135150880Y-72466167D01*
X135230756Y-72423471D01*
X135327466Y-72371780D01*
X135327467Y-72371778D01*
X135327469Y-72371778D01*
X135482252Y-72244752D01*
X135609278Y-72089969D01*
X135611691Y-72085456D01*
X135703664Y-71913385D01*
X135703665Y-71913383D01*
X135703667Y-71913380D01*
X135761792Y-71721769D01*
X135781418Y-71522503D01*
X136278582Y-71522503D01*
X136298206Y-71721763D01*
X136298207Y-71721766D01*
X136356334Y-71913383D01*
X136356335Y-71913385D01*
X136450719Y-72089966D01*
X136577743Y-72244746D01*
X136577748Y-72244752D01*
X136577753Y-72244756D01*
X136732533Y-72371780D01*
X136909114Y-72466164D01*
X136909120Y-72466167D01*
X137100731Y-72524292D01*
X137100733Y-72524292D01*
X137100736Y-72524293D01*
X137299997Y-72543918D01*
X137300000Y-72543918D01*
X137300003Y-72543918D01*
X137499263Y-72524293D01*
X137499264Y-72524292D01*
X137499269Y-72524292D01*
X137690880Y-72466167D01*
X137770756Y-72423471D01*
X137867466Y-72371780D01*
X137867467Y-72371778D01*
X137867469Y-72371778D01*
X138022252Y-72244752D01*
X138149278Y-72089969D01*
X138151691Y-72085456D01*
X138243664Y-71913385D01*
X138243665Y-71913383D01*
X138243667Y-71913380D01*
X138301792Y-71721769D01*
X138321418Y-71522500D01*
X138307638Y-71382587D01*
X138301793Y-71323236D01*
X138301792Y-71323233D01*
X138301792Y-71323231D01*
X138243667Y-71131620D01*
X138243664Y-71131614D01*
X138149280Y-70955033D01*
X138022256Y-70800253D01*
X138022252Y-70800248D01*
X138022246Y-70800243D01*
X137867466Y-70673219D01*
X137690885Y-70578835D01*
X137690883Y-70578834D01*
X137499266Y-70520707D01*
X137499263Y-70520706D01*
X137300003Y-70501082D01*
X137299997Y-70501082D01*
X137100736Y-70520706D01*
X137100733Y-70520707D01*
X136909116Y-70578834D01*
X136909114Y-70578835D01*
X136732533Y-70673219D01*
X136577753Y-70800243D01*
X136577743Y-70800253D01*
X136450719Y-70955033D01*
X136356335Y-71131614D01*
X136356334Y-71131616D01*
X136298207Y-71323233D01*
X136298206Y-71323236D01*
X136278582Y-71522496D01*
X136278582Y-71522503D01*
X135781418Y-71522503D01*
X135781418Y-71522500D01*
X135767638Y-71382587D01*
X135761793Y-71323236D01*
X135761792Y-71323233D01*
X135761792Y-71323231D01*
X135703667Y-71131620D01*
X135703664Y-71131614D01*
X135609280Y-70955033D01*
X135482256Y-70800253D01*
X135482252Y-70800248D01*
X135482246Y-70800243D01*
X135327466Y-70673219D01*
X135150885Y-70578835D01*
X135150883Y-70578834D01*
X134959266Y-70520707D01*
X134959263Y-70520706D01*
X134760003Y-70501082D01*
X134759997Y-70501082D01*
X134560736Y-70520706D01*
X134560733Y-70520707D01*
X134369116Y-70578834D01*
X134369114Y-70578835D01*
X134192533Y-70673219D01*
X134037753Y-70800243D01*
X134037743Y-70800253D01*
X133910719Y-70955033D01*
X133816335Y-71131614D01*
X133816334Y-71131616D01*
X133758207Y-71323233D01*
X133758206Y-71323236D01*
X133738582Y-71522496D01*
X133738582Y-71522503D01*
X121978836Y-71522503D01*
X124518836Y-68982503D01*
X133738582Y-68982503D01*
X133758206Y-69181763D01*
X133758207Y-69181766D01*
X133816334Y-69373383D01*
X133816335Y-69373385D01*
X133910719Y-69549966D01*
X134028152Y-69693059D01*
X134037748Y-69704752D01*
X134037753Y-69704756D01*
X134192533Y-69831780D01*
X134369114Y-69926164D01*
X134369120Y-69926167D01*
X134560731Y-69984292D01*
X134560733Y-69984292D01*
X134560736Y-69984293D01*
X134759997Y-70003918D01*
X134760000Y-70003918D01*
X134760003Y-70003918D01*
X134959263Y-69984293D01*
X134959264Y-69984292D01*
X134959269Y-69984292D01*
X135150880Y-69926167D01*
X135230756Y-69883471D01*
X135327466Y-69831780D01*
X135327467Y-69831778D01*
X135327469Y-69831778D01*
X135482252Y-69704752D01*
X135609278Y-69549969D01*
X135703667Y-69373380D01*
X135761792Y-69181769D01*
X135781418Y-68982503D01*
X136278582Y-68982503D01*
X136298206Y-69181763D01*
X136298207Y-69181766D01*
X136356334Y-69373383D01*
X136356335Y-69373385D01*
X136450719Y-69549966D01*
X136568152Y-69693059D01*
X136577748Y-69704752D01*
X136577753Y-69704756D01*
X136732533Y-69831780D01*
X136909114Y-69926164D01*
X136909120Y-69926167D01*
X137100731Y-69984292D01*
X137100733Y-69984292D01*
X137100736Y-69984293D01*
X137299997Y-70003918D01*
X137300000Y-70003918D01*
X137300003Y-70003918D01*
X137499263Y-69984293D01*
X137499264Y-69984292D01*
X137499269Y-69984292D01*
X137690880Y-69926167D01*
X137770756Y-69883471D01*
X137867466Y-69831780D01*
X137867467Y-69831778D01*
X137867469Y-69831778D01*
X138022252Y-69704752D01*
X138149278Y-69549969D01*
X138243667Y-69373380D01*
X138301792Y-69181769D01*
X138321418Y-68982500D01*
X138321418Y-68982496D01*
X138301793Y-68783236D01*
X138301792Y-68783233D01*
X138301792Y-68783231D01*
X138243667Y-68591620D01*
X138243664Y-68591614D01*
X138149280Y-68415033D01*
X138022256Y-68260253D01*
X138022252Y-68260248D01*
X138022246Y-68260243D01*
X137867466Y-68133219D01*
X137690885Y-68038835D01*
X137690883Y-68038834D01*
X137499266Y-67980707D01*
X137499263Y-67980706D01*
X137300003Y-67961082D01*
X137299997Y-67961082D01*
X137100736Y-67980706D01*
X137100733Y-67980707D01*
X136909116Y-68038834D01*
X136909114Y-68038835D01*
X136732533Y-68133219D01*
X136577753Y-68260243D01*
X136577743Y-68260253D01*
X136450719Y-68415033D01*
X136356335Y-68591614D01*
X136356334Y-68591616D01*
X136298207Y-68783233D01*
X136298206Y-68783236D01*
X136278582Y-68982496D01*
X136278582Y-68982503D01*
X135781418Y-68982503D01*
X135781418Y-68982500D01*
X135781418Y-68982496D01*
X135761793Y-68783236D01*
X135761792Y-68783233D01*
X135761792Y-68783231D01*
X135703667Y-68591620D01*
X135703664Y-68591614D01*
X135609280Y-68415033D01*
X135482256Y-68260253D01*
X135482252Y-68260248D01*
X135482246Y-68260243D01*
X135327466Y-68133219D01*
X135150885Y-68038835D01*
X135150883Y-68038834D01*
X134959266Y-67980707D01*
X134959263Y-67980706D01*
X134760003Y-67961082D01*
X134759997Y-67961082D01*
X134560736Y-67980706D01*
X134560733Y-67980707D01*
X134369116Y-68038834D01*
X134369114Y-68038835D01*
X134192533Y-68133219D01*
X134037753Y-68260243D01*
X134037743Y-68260253D01*
X133910719Y-68415033D01*
X133816335Y-68591614D01*
X133816334Y-68591616D01*
X133758207Y-68783233D01*
X133758206Y-68783236D01*
X133738582Y-68982496D01*
X133738582Y-68982503D01*
X124518836Y-68982503D01*
X127058836Y-66442503D01*
X133738582Y-66442503D01*
X133758206Y-66641763D01*
X133758207Y-66641766D01*
X133816334Y-66833383D01*
X133816335Y-66833385D01*
X133910719Y-67009966D01*
X134037743Y-67164746D01*
X134037748Y-67164752D01*
X134037753Y-67164756D01*
X134192533Y-67291780D01*
X134369114Y-67386164D01*
X134369120Y-67386167D01*
X134560731Y-67444292D01*
X134560733Y-67444292D01*
X134560736Y-67444293D01*
X134759997Y-67463918D01*
X134760000Y-67463918D01*
X134760003Y-67463918D01*
X134959263Y-67444293D01*
X134959264Y-67444292D01*
X134959269Y-67444292D01*
X135150880Y-67386167D01*
X135230756Y-67343471D01*
X135327466Y-67291780D01*
X135327467Y-67291778D01*
X135327469Y-67291778D01*
X135482252Y-67164752D01*
X135609278Y-67009969D01*
X135703667Y-66833380D01*
X135761792Y-66641769D01*
X135781073Y-66446009D01*
X135781418Y-66442503D01*
X136278582Y-66442503D01*
X136298206Y-66641763D01*
X136298207Y-66641766D01*
X136356334Y-66833383D01*
X136356335Y-66833385D01*
X136450719Y-67009966D01*
X136577743Y-67164746D01*
X136577748Y-67164752D01*
X136577753Y-67164756D01*
X136732533Y-67291780D01*
X136909114Y-67386164D01*
X136909120Y-67386167D01*
X137100731Y-67444292D01*
X137100733Y-67444292D01*
X137100736Y-67444293D01*
X137299997Y-67463918D01*
X137300000Y-67463918D01*
X137300003Y-67463918D01*
X137499263Y-67444293D01*
X137499264Y-67444292D01*
X137499269Y-67444292D01*
X137690880Y-67386167D01*
X137770756Y-67343471D01*
X137867466Y-67291780D01*
X137867467Y-67291778D01*
X137867469Y-67291778D01*
X138022252Y-67164752D01*
X138149278Y-67009969D01*
X138243667Y-66833380D01*
X138301792Y-66641769D01*
X138321073Y-66446009D01*
X138321418Y-66442503D01*
X138321418Y-66442496D01*
X138301793Y-66243236D01*
X138301792Y-66243233D01*
X138301792Y-66243231D01*
X138243667Y-66051620D01*
X138243664Y-66051614D01*
X138149280Y-65875033D01*
X138022256Y-65720253D01*
X138022252Y-65720248D01*
X138022246Y-65720243D01*
X137867466Y-65593219D01*
X137690885Y-65498835D01*
X137690883Y-65498834D01*
X137499266Y-65440707D01*
X137499263Y-65440706D01*
X137300003Y-65421082D01*
X137299997Y-65421082D01*
X137100736Y-65440706D01*
X137100733Y-65440707D01*
X136909116Y-65498834D01*
X136909114Y-65498835D01*
X136732533Y-65593219D01*
X136577753Y-65720243D01*
X136577743Y-65720253D01*
X136450719Y-65875033D01*
X136356335Y-66051614D01*
X136356334Y-66051616D01*
X136298207Y-66243233D01*
X136298206Y-66243236D01*
X136278582Y-66442496D01*
X136278582Y-66442503D01*
X135781418Y-66442503D01*
X135781418Y-66442496D01*
X135761793Y-66243236D01*
X135761792Y-66243233D01*
X135761792Y-66243231D01*
X135703667Y-66051620D01*
X135703664Y-66051614D01*
X135609280Y-65875033D01*
X135482256Y-65720253D01*
X135482252Y-65720248D01*
X135482246Y-65720243D01*
X135327466Y-65593219D01*
X135150885Y-65498835D01*
X135150883Y-65498834D01*
X134959266Y-65440707D01*
X134959263Y-65440706D01*
X134760003Y-65421082D01*
X134759997Y-65421082D01*
X134560736Y-65440706D01*
X134560733Y-65440707D01*
X134369116Y-65498834D01*
X134369114Y-65498835D01*
X134192533Y-65593219D01*
X134037753Y-65720243D01*
X134037743Y-65720253D01*
X133910719Y-65875033D01*
X133816335Y-66051614D01*
X133816334Y-66051616D01*
X133758207Y-66243233D01*
X133758206Y-66243236D01*
X133738582Y-66442496D01*
X133738582Y-66442503D01*
X127058836Y-66442503D01*
X128811776Y-64689563D01*
X133743500Y-64689563D01*
X133743501Y-64689570D01*
X133758265Y-64763800D01*
X133758266Y-64763802D01*
X133813302Y-64846167D01*
X133814516Y-64847984D01*
X133898699Y-64904234D01*
X133972933Y-64919000D01*
X135547066Y-64918999D01*
X135621301Y-64904234D01*
X135705484Y-64847984D01*
X135761734Y-64763801D01*
X135776500Y-64689567D01*
X135776500Y-64689563D01*
X136283500Y-64689563D01*
X136283501Y-64689570D01*
X136298265Y-64763800D01*
X136298266Y-64763802D01*
X136353302Y-64846167D01*
X136354516Y-64847984D01*
X136438699Y-64904234D01*
X136512933Y-64919000D01*
X138087066Y-64918999D01*
X138161301Y-64904234D01*
X138245484Y-64847984D01*
X138301734Y-64763801D01*
X138316500Y-64689567D01*
X138316500Y-64583499D01*
X138335407Y-64525309D01*
X138384907Y-64489345D01*
X138415500Y-64484500D01*
X139730021Y-64484500D01*
X139788212Y-64503407D01*
X139800025Y-64513496D01*
X140466504Y-65179975D01*
X140494281Y-65234492D01*
X140495500Y-65249979D01*
X140495500Y-111461716D01*
X140476593Y-111519907D01*
X140470606Y-111527362D01*
X140468801Y-111529399D01*
X140371615Y-111670197D01*
X140310948Y-111830164D01*
X140310947Y-111830166D01*
X140290326Y-111999998D01*
X140290326Y-112000001D01*
X140310947Y-112169833D01*
X140310947Y-112169834D01*
X140310948Y-112169836D01*
X140358606Y-112295500D01*
X140371615Y-112329802D01*
X140468799Y-112470599D01*
X140468800Y-112470600D01*
X140468801Y-112470601D01*
X140596859Y-112584050D01*
X140748346Y-112663557D01*
X140914458Y-112704500D01*
X141085539Y-112704500D01*
X141085542Y-112704500D01*
X141251654Y-112663557D01*
X141403141Y-112584050D01*
X141531199Y-112470601D01*
X141628385Y-112329802D01*
X141689052Y-112169836D01*
X141689942Y-112162503D01*
X161733345Y-112162503D01*
X161751917Y-112351080D01*
X161751918Y-112351085D01*
X161806927Y-112532423D01*
X161896255Y-112699543D01*
X161896259Y-112699549D01*
X161952724Y-112768351D01*
X162368848Y-112352226D01*
X162415813Y-112424112D01*
X162508031Y-112495889D01*
X162094147Y-112909774D01*
X162094146Y-112909774D01*
X162162950Y-112966240D01*
X162162956Y-112966244D01*
X162330076Y-113055572D01*
X162511414Y-113110581D01*
X162511419Y-113110582D01*
X162699997Y-113129155D01*
X162700003Y-113129155D01*
X162888580Y-113110582D01*
X162888585Y-113110581D01*
X163069923Y-113055572D01*
X163237043Y-112966244D01*
X163237050Y-112966239D01*
X163305851Y-112909774D01*
X162889330Y-112493253D01*
X162937251Y-112467320D01*
X163023371Y-112373769D01*
X163032310Y-112353387D01*
X163447274Y-112768351D01*
X163503739Y-112699550D01*
X163503744Y-112699543D01*
X163593072Y-112532423D01*
X163648081Y-112351085D01*
X163648082Y-112351080D01*
X163666655Y-112162503D01*
X164273345Y-112162503D01*
X164291917Y-112351080D01*
X164291918Y-112351085D01*
X164346927Y-112532423D01*
X164436255Y-112699543D01*
X164436259Y-112699549D01*
X164492724Y-112768351D01*
X164908848Y-112352226D01*
X164955813Y-112424112D01*
X165048031Y-112495889D01*
X164634147Y-112909774D01*
X164634146Y-112909774D01*
X164702950Y-112966240D01*
X164702956Y-112966244D01*
X164870076Y-113055572D01*
X165051414Y-113110581D01*
X165051419Y-113110582D01*
X165239997Y-113129155D01*
X165240003Y-113129155D01*
X165428580Y-113110582D01*
X165428585Y-113110581D01*
X165609923Y-113055572D01*
X165777043Y-112966244D01*
X165777050Y-112966239D01*
X165845851Y-112909774D01*
X165429330Y-112493253D01*
X165477251Y-112467320D01*
X165563371Y-112373769D01*
X165572310Y-112353387D01*
X165987274Y-112768351D01*
X166043739Y-112699550D01*
X166043744Y-112699543D01*
X166133072Y-112532423D01*
X166188081Y-112351085D01*
X166188082Y-112351080D01*
X166206655Y-112162503D01*
X166206655Y-112162496D01*
X166188082Y-111973919D01*
X166188081Y-111973914D01*
X166133072Y-111792576D01*
X166043744Y-111625456D01*
X166043740Y-111625450D01*
X165987274Y-111556647D01*
X165571150Y-111972770D01*
X165524187Y-111900888D01*
X165431965Y-111829109D01*
X165845851Y-111415224D01*
X165845852Y-111415224D01*
X165777049Y-111358759D01*
X165777043Y-111358755D01*
X165609923Y-111269427D01*
X165428585Y-111214418D01*
X165428580Y-111214417D01*
X165240003Y-111195845D01*
X165239997Y-111195845D01*
X165051419Y-111214417D01*
X165051414Y-111214418D01*
X164870076Y-111269427D01*
X164702952Y-111358757D01*
X164634147Y-111415224D01*
X165050669Y-111831746D01*
X165002749Y-111857680D01*
X164916629Y-111951231D01*
X164907689Y-111971612D01*
X164492724Y-111556647D01*
X164436257Y-111625452D01*
X164346927Y-111792576D01*
X164291918Y-111973914D01*
X164291917Y-111973919D01*
X164273345Y-112162496D01*
X164273345Y-112162503D01*
X163666655Y-112162503D01*
X163666655Y-112162496D01*
X163648082Y-111973919D01*
X163648081Y-111973914D01*
X163593072Y-111792576D01*
X163503744Y-111625456D01*
X163503740Y-111625450D01*
X163447274Y-111556647D01*
X163031150Y-111972770D01*
X162984187Y-111900888D01*
X162891965Y-111829109D01*
X163305851Y-111415224D01*
X163305852Y-111415224D01*
X163237049Y-111358759D01*
X163237043Y-111358755D01*
X163069923Y-111269427D01*
X162888585Y-111214418D01*
X162888580Y-111214417D01*
X162700003Y-111195845D01*
X162699997Y-111195845D01*
X162511419Y-111214417D01*
X162511414Y-111214418D01*
X162330076Y-111269427D01*
X162162952Y-111358757D01*
X162094147Y-111415224D01*
X162510669Y-111831746D01*
X162462749Y-111857680D01*
X162376629Y-111951231D01*
X162367689Y-111971612D01*
X161952724Y-111556647D01*
X161896257Y-111625452D01*
X161806927Y-111792576D01*
X161751918Y-111973914D01*
X161751917Y-111973919D01*
X161733345Y-112162496D01*
X161733345Y-112162503D01*
X141689942Y-112162503D01*
X141709674Y-112000000D01*
X141705209Y-111963231D01*
X141699362Y-111915081D01*
X141689052Y-111830164D01*
X141628385Y-111670198D01*
X141531199Y-111529399D01*
X141531194Y-111529394D01*
X141529394Y-111527362D01*
X141528712Y-111525797D01*
X141527797Y-111524471D01*
X141528056Y-111524291D01*
X141504962Y-111471266D01*
X141504500Y-111461716D01*
X141504500Y-109622503D01*
X161678582Y-109622503D01*
X161698206Y-109821763D01*
X161698207Y-109821766D01*
X161756334Y-110013383D01*
X161756335Y-110013385D01*
X161850719Y-110189966D01*
X161977743Y-110344746D01*
X161977748Y-110344752D01*
X161977753Y-110344756D01*
X162132533Y-110471780D01*
X162309114Y-110566164D01*
X162309120Y-110566167D01*
X162500731Y-110624292D01*
X162500733Y-110624292D01*
X162500736Y-110624293D01*
X162699997Y-110643918D01*
X162700000Y-110643918D01*
X162700003Y-110643918D01*
X162899263Y-110624293D01*
X162899264Y-110624292D01*
X162899269Y-110624292D01*
X163090880Y-110566167D01*
X163170756Y-110523471D01*
X163267466Y-110471780D01*
X163267467Y-110471778D01*
X163267469Y-110471778D01*
X163422252Y-110344752D01*
X163549278Y-110189969D01*
X163643667Y-110013380D01*
X163701792Y-109821769D01*
X163721418Y-109622503D01*
X164218582Y-109622503D01*
X164238206Y-109821763D01*
X164238207Y-109821766D01*
X164296334Y-110013383D01*
X164296335Y-110013385D01*
X164390719Y-110189966D01*
X164517743Y-110344746D01*
X164517748Y-110344752D01*
X164517753Y-110344756D01*
X164672533Y-110471780D01*
X164849114Y-110566164D01*
X164849120Y-110566167D01*
X165040731Y-110624292D01*
X165040733Y-110624292D01*
X165040736Y-110624293D01*
X165239997Y-110643918D01*
X165240000Y-110643918D01*
X165240003Y-110643918D01*
X165439263Y-110624293D01*
X165439264Y-110624292D01*
X165439269Y-110624292D01*
X165630880Y-110566167D01*
X165710756Y-110523471D01*
X165807466Y-110471780D01*
X165807467Y-110471778D01*
X165807469Y-110471778D01*
X165962252Y-110344752D01*
X166089278Y-110189969D01*
X166183667Y-110013380D01*
X166241792Y-109821769D01*
X166261418Y-109622500D01*
X166261418Y-109622496D01*
X166241793Y-109423236D01*
X166241792Y-109423233D01*
X166241792Y-109423231D01*
X166183667Y-109231620D01*
X166183664Y-109231614D01*
X166089280Y-109055033D01*
X165962256Y-108900253D01*
X165962252Y-108900248D01*
X165962246Y-108900243D01*
X165807466Y-108773219D01*
X165630885Y-108678835D01*
X165630883Y-108678834D01*
X165439266Y-108620707D01*
X165439263Y-108620706D01*
X165240003Y-108601082D01*
X165239997Y-108601082D01*
X165040736Y-108620706D01*
X165040733Y-108620707D01*
X164849116Y-108678834D01*
X164849114Y-108678835D01*
X164672533Y-108773219D01*
X164517753Y-108900243D01*
X164517743Y-108900253D01*
X164390719Y-109055033D01*
X164296335Y-109231614D01*
X164296334Y-109231616D01*
X164238207Y-109423233D01*
X164238206Y-109423236D01*
X164218582Y-109622496D01*
X164218582Y-109622503D01*
X163721418Y-109622503D01*
X163721418Y-109622500D01*
X163721418Y-109622496D01*
X163701793Y-109423236D01*
X163701792Y-109423233D01*
X163701792Y-109423231D01*
X163643667Y-109231620D01*
X163643664Y-109231614D01*
X163549280Y-109055033D01*
X163422256Y-108900253D01*
X163422252Y-108900248D01*
X163422246Y-108900243D01*
X163267466Y-108773219D01*
X163090885Y-108678835D01*
X163090883Y-108678834D01*
X162899266Y-108620707D01*
X162899263Y-108620706D01*
X162700003Y-108601082D01*
X162699997Y-108601082D01*
X162500736Y-108620706D01*
X162500733Y-108620707D01*
X162309116Y-108678834D01*
X162309114Y-108678835D01*
X162132533Y-108773219D01*
X161977753Y-108900243D01*
X161977743Y-108900253D01*
X161850719Y-109055033D01*
X161756335Y-109231614D01*
X161756334Y-109231616D01*
X161698207Y-109423233D01*
X161698206Y-109423236D01*
X161678582Y-109622496D01*
X161678582Y-109622503D01*
X141504500Y-109622503D01*
X141504500Y-107082503D01*
X161678582Y-107082503D01*
X161698206Y-107281763D01*
X161698207Y-107281766D01*
X161756334Y-107473383D01*
X161756335Y-107473385D01*
X161850719Y-107649966D01*
X161977743Y-107804746D01*
X161977748Y-107804752D01*
X161977753Y-107804756D01*
X162132533Y-107931780D01*
X162309114Y-108026164D01*
X162309120Y-108026167D01*
X162500731Y-108084292D01*
X162500733Y-108084292D01*
X162500736Y-108084293D01*
X162699997Y-108103918D01*
X162700000Y-108103918D01*
X162700003Y-108103918D01*
X162899263Y-108084293D01*
X162899264Y-108084292D01*
X162899269Y-108084292D01*
X163090880Y-108026167D01*
X163170756Y-107983471D01*
X163267466Y-107931780D01*
X163267467Y-107931778D01*
X163267469Y-107931778D01*
X163422252Y-107804752D01*
X163549278Y-107649969D01*
X163643667Y-107473380D01*
X163701792Y-107281769D01*
X163721418Y-107082503D01*
X164218582Y-107082503D01*
X164238206Y-107281763D01*
X164238207Y-107281766D01*
X164296334Y-107473383D01*
X164296335Y-107473385D01*
X164390719Y-107649966D01*
X164517743Y-107804746D01*
X164517748Y-107804752D01*
X164517753Y-107804756D01*
X164672533Y-107931780D01*
X164849114Y-108026164D01*
X164849120Y-108026167D01*
X165040731Y-108084292D01*
X165040733Y-108084292D01*
X165040736Y-108084293D01*
X165239997Y-108103918D01*
X165240000Y-108103918D01*
X165240003Y-108103918D01*
X165439263Y-108084293D01*
X165439264Y-108084292D01*
X165439269Y-108084292D01*
X165630880Y-108026167D01*
X165710756Y-107983471D01*
X165807466Y-107931780D01*
X165807467Y-107931778D01*
X165807469Y-107931778D01*
X165962252Y-107804752D01*
X166089278Y-107649969D01*
X166183667Y-107473380D01*
X166241792Y-107281769D01*
X166261418Y-107082500D01*
X166258636Y-107054254D01*
X166241793Y-106883236D01*
X166241792Y-106883233D01*
X166241792Y-106883231D01*
X166183667Y-106691620D01*
X166183664Y-106691614D01*
X166089280Y-106515033D01*
X165962256Y-106360253D01*
X165962252Y-106360248D01*
X165962246Y-106360243D01*
X165807466Y-106233219D01*
X165630885Y-106138835D01*
X165630883Y-106138834D01*
X165439266Y-106080707D01*
X165439263Y-106080706D01*
X165240003Y-106061082D01*
X165239997Y-106061082D01*
X165040736Y-106080706D01*
X165040733Y-106080707D01*
X164849116Y-106138834D01*
X164849114Y-106138835D01*
X164672533Y-106233219D01*
X164517753Y-106360243D01*
X164517743Y-106360253D01*
X164390719Y-106515033D01*
X164296335Y-106691614D01*
X164296334Y-106691616D01*
X164238207Y-106883233D01*
X164238206Y-106883236D01*
X164218582Y-107082496D01*
X164218582Y-107082503D01*
X163721418Y-107082503D01*
X163721418Y-107082500D01*
X163718636Y-107054254D01*
X163701793Y-106883236D01*
X163701792Y-106883233D01*
X163701792Y-106883231D01*
X163643667Y-106691620D01*
X163643664Y-106691614D01*
X163549280Y-106515033D01*
X163422256Y-106360253D01*
X163422252Y-106360248D01*
X163422246Y-106360243D01*
X163267466Y-106233219D01*
X163090885Y-106138835D01*
X163090883Y-106138834D01*
X162899266Y-106080707D01*
X162899263Y-106080706D01*
X162700003Y-106061082D01*
X162699997Y-106061082D01*
X162500736Y-106080706D01*
X162500733Y-106080707D01*
X162309116Y-106138834D01*
X162309114Y-106138835D01*
X162132533Y-106233219D01*
X161977753Y-106360243D01*
X161977743Y-106360253D01*
X161850719Y-106515033D01*
X161756335Y-106691614D01*
X161756334Y-106691616D01*
X161698207Y-106883233D01*
X161698206Y-106883236D01*
X161678582Y-107082496D01*
X161678582Y-107082503D01*
X141504500Y-107082503D01*
X141504500Y-104542503D01*
X161678582Y-104542503D01*
X161698206Y-104741763D01*
X161698207Y-104741766D01*
X161756334Y-104933383D01*
X161756335Y-104933385D01*
X161850719Y-105109966D01*
X161977743Y-105264746D01*
X161977748Y-105264752D01*
X161977753Y-105264756D01*
X162132533Y-105391780D01*
X162309114Y-105486164D01*
X162309120Y-105486167D01*
X162500731Y-105544292D01*
X162500733Y-105544292D01*
X162500736Y-105544293D01*
X162699997Y-105563918D01*
X162700000Y-105563918D01*
X162700003Y-105563918D01*
X162899263Y-105544293D01*
X162899264Y-105544292D01*
X162899269Y-105544292D01*
X163090880Y-105486167D01*
X163170756Y-105443471D01*
X163267466Y-105391780D01*
X163267467Y-105391778D01*
X163267469Y-105391778D01*
X163422252Y-105264752D01*
X163549278Y-105109969D01*
X163643667Y-104933380D01*
X163701792Y-104741769D01*
X163721418Y-104542503D01*
X164218582Y-104542503D01*
X164238206Y-104741763D01*
X164238207Y-104741766D01*
X164296334Y-104933383D01*
X164296335Y-104933385D01*
X164390719Y-105109966D01*
X164517743Y-105264746D01*
X164517748Y-105264752D01*
X164517753Y-105264756D01*
X164672533Y-105391780D01*
X164849114Y-105486164D01*
X164849120Y-105486167D01*
X165040731Y-105544292D01*
X165040733Y-105544292D01*
X165040736Y-105544293D01*
X165239997Y-105563918D01*
X165240000Y-105563918D01*
X165240003Y-105563918D01*
X165439263Y-105544293D01*
X165439264Y-105544292D01*
X165439269Y-105544292D01*
X165630880Y-105486167D01*
X165710756Y-105443471D01*
X165807466Y-105391780D01*
X165807467Y-105391778D01*
X165807469Y-105391778D01*
X165962252Y-105264752D01*
X166089278Y-105109969D01*
X166183667Y-104933380D01*
X166241792Y-104741769D01*
X166261418Y-104542500D01*
X166261418Y-104542496D01*
X166241793Y-104343236D01*
X166241792Y-104343233D01*
X166241792Y-104343231D01*
X166183667Y-104151620D01*
X166183664Y-104151614D01*
X166089280Y-103975033D01*
X165962256Y-103820253D01*
X165962252Y-103820248D01*
X165962246Y-103820243D01*
X165807466Y-103693219D01*
X165630885Y-103598835D01*
X165630883Y-103598834D01*
X165439266Y-103540707D01*
X165439263Y-103540706D01*
X165240003Y-103521082D01*
X165239997Y-103521082D01*
X165040736Y-103540706D01*
X165040733Y-103540707D01*
X164849116Y-103598834D01*
X164849114Y-103598835D01*
X164672533Y-103693219D01*
X164517753Y-103820243D01*
X164517743Y-103820253D01*
X164390719Y-103975033D01*
X164296335Y-104151614D01*
X164296334Y-104151616D01*
X164238207Y-104343233D01*
X164238206Y-104343236D01*
X164218582Y-104542496D01*
X164218582Y-104542503D01*
X163721418Y-104542503D01*
X163721418Y-104542500D01*
X163721418Y-104542496D01*
X163701793Y-104343236D01*
X163701792Y-104343233D01*
X163701792Y-104343231D01*
X163643667Y-104151620D01*
X163643664Y-104151614D01*
X163549280Y-103975033D01*
X163422256Y-103820253D01*
X163422252Y-103820248D01*
X163422246Y-103820243D01*
X163267466Y-103693219D01*
X163090885Y-103598835D01*
X163090883Y-103598834D01*
X162899266Y-103540707D01*
X162899263Y-103540706D01*
X162700003Y-103521082D01*
X162699997Y-103521082D01*
X162500736Y-103540706D01*
X162500733Y-103540707D01*
X162309116Y-103598834D01*
X162309114Y-103598835D01*
X162132533Y-103693219D01*
X161977753Y-103820243D01*
X161977743Y-103820253D01*
X161850719Y-103975033D01*
X161756335Y-104151614D01*
X161756334Y-104151616D01*
X161698207Y-104343233D01*
X161698206Y-104343236D01*
X161678582Y-104542496D01*
X161678582Y-104542503D01*
X141504500Y-104542503D01*
X141504500Y-102002503D01*
X161678582Y-102002503D01*
X161698206Y-102201763D01*
X161698207Y-102201766D01*
X161756334Y-102393383D01*
X161756335Y-102393385D01*
X161850719Y-102569966D01*
X161977743Y-102724746D01*
X161977748Y-102724752D01*
X161977753Y-102724756D01*
X162132533Y-102851780D01*
X162309114Y-102946164D01*
X162309120Y-102946167D01*
X162500731Y-103004292D01*
X162500733Y-103004292D01*
X162500736Y-103004293D01*
X162699997Y-103023918D01*
X162700000Y-103023918D01*
X162700003Y-103023918D01*
X162899263Y-103004293D01*
X162899264Y-103004292D01*
X162899269Y-103004292D01*
X163090880Y-102946167D01*
X163170756Y-102903471D01*
X163267466Y-102851780D01*
X163267467Y-102851778D01*
X163267469Y-102851778D01*
X163422252Y-102724752D01*
X163549278Y-102569969D01*
X163643667Y-102393380D01*
X163701792Y-102201769D01*
X163715077Y-102066888D01*
X163721418Y-102002503D01*
X164218582Y-102002503D01*
X164238206Y-102201763D01*
X164238207Y-102201766D01*
X164296334Y-102393383D01*
X164296335Y-102393385D01*
X164390719Y-102569966D01*
X164517743Y-102724746D01*
X164517748Y-102724752D01*
X164517753Y-102724756D01*
X164672533Y-102851780D01*
X164849114Y-102946164D01*
X164849120Y-102946167D01*
X165040731Y-103004292D01*
X165040733Y-103004292D01*
X165040736Y-103004293D01*
X165239997Y-103023918D01*
X165240000Y-103023918D01*
X165240003Y-103023918D01*
X165439263Y-103004293D01*
X165439264Y-103004292D01*
X165439269Y-103004292D01*
X165630880Y-102946167D01*
X165710756Y-102903471D01*
X165807466Y-102851780D01*
X165807467Y-102851778D01*
X165807469Y-102851778D01*
X165962252Y-102724752D01*
X166089278Y-102569969D01*
X166183667Y-102393380D01*
X166241792Y-102201769D01*
X166255077Y-102066888D01*
X166261418Y-102002503D01*
X166261418Y-102002496D01*
X166241793Y-101803236D01*
X166241792Y-101803233D01*
X166241792Y-101803231D01*
X166183667Y-101611620D01*
X166183664Y-101611614D01*
X166089280Y-101435033D01*
X165962256Y-101280253D01*
X165962252Y-101280248D01*
X165813055Y-101157806D01*
X165807466Y-101153219D01*
X165630885Y-101058835D01*
X165630883Y-101058834D01*
X165439266Y-101000707D01*
X165439263Y-101000706D01*
X165240003Y-100981082D01*
X165239997Y-100981082D01*
X165040736Y-101000706D01*
X165040733Y-101000707D01*
X164849116Y-101058834D01*
X164849114Y-101058835D01*
X164672533Y-101153219D01*
X164517753Y-101280243D01*
X164517743Y-101280253D01*
X164390719Y-101435033D01*
X164296335Y-101611614D01*
X164296334Y-101611616D01*
X164238207Y-101803233D01*
X164238206Y-101803236D01*
X164218582Y-102002496D01*
X164218582Y-102002503D01*
X163721418Y-102002503D01*
X163721418Y-102002496D01*
X163701793Y-101803236D01*
X163701792Y-101803233D01*
X163701792Y-101803231D01*
X163643667Y-101611620D01*
X163643664Y-101611614D01*
X163549280Y-101435033D01*
X163422256Y-101280253D01*
X163422252Y-101280248D01*
X163273055Y-101157806D01*
X163267466Y-101153219D01*
X163090885Y-101058835D01*
X163090883Y-101058834D01*
X162899266Y-101000707D01*
X162899263Y-101000706D01*
X162700003Y-100981082D01*
X162699997Y-100981082D01*
X162500736Y-101000706D01*
X162500733Y-101000707D01*
X162309116Y-101058834D01*
X162309114Y-101058835D01*
X162132533Y-101153219D01*
X161977753Y-101280243D01*
X161977743Y-101280253D01*
X161850719Y-101435033D01*
X161756335Y-101611614D01*
X161756334Y-101611616D01*
X161698207Y-101803233D01*
X161698206Y-101803236D01*
X161678582Y-102002496D01*
X161678582Y-102002503D01*
X141504500Y-102002503D01*
X141504500Y-65064880D01*
X141506764Y-65043831D01*
X141508389Y-65036362D01*
X141508389Y-65036360D01*
X141504626Y-64983743D01*
X141504500Y-64980211D01*
X141504500Y-64963916D01*
X141504130Y-64961345D01*
X141502178Y-64947772D01*
X141501803Y-64944277D01*
X141498943Y-64904292D01*
X141498040Y-64891658D01*
X141495364Y-64884486D01*
X141490130Y-64863976D01*
X141489042Y-64856404D01*
X141479528Y-64835571D01*
X141467128Y-64808417D01*
X141465775Y-64805152D01*
X141447344Y-64755734D01*
X141442755Y-64749604D01*
X141431956Y-64731404D01*
X141428777Y-64724442D01*
X141394209Y-64684549D01*
X141392024Y-64681835D01*
X141382250Y-64668779D01*
X141382246Y-64668776D01*
X141370716Y-64657244D01*
X141368317Y-64654668D01*
X141333775Y-64614804D01*
X141327335Y-64610665D01*
X141310858Y-64597387D01*
X140382611Y-63669140D01*
X140369332Y-63652661D01*
X140365196Y-63646225D01*
X140325331Y-63611682D01*
X140322754Y-63609282D01*
X140311226Y-63597754D01*
X140311221Y-63597750D01*
X140298163Y-63587975D01*
X140295420Y-63585764D01*
X140255558Y-63551223D01*
X140255556Y-63551222D01*
X140255557Y-63551222D01*
X140248593Y-63548042D01*
X140230400Y-63537248D01*
X140224267Y-63532657D01*
X140224266Y-63532656D01*
X140224264Y-63532655D01*
X140174836Y-63514219D01*
X140171571Y-63512867D01*
X140168840Y-63511620D01*
X140123596Y-63490958D01*
X140123590Y-63490956D01*
X140116020Y-63489868D01*
X140095516Y-63484635D01*
X140088342Y-63481960D01*
X140088338Y-63481959D01*
X140088335Y-63481959D01*
X140035721Y-63478195D01*
X140032212Y-63477817D01*
X140016091Y-63475500D01*
X140016083Y-63475500D01*
X139999788Y-63475500D01*
X139996255Y-63475374D01*
X139943640Y-63471611D01*
X139943639Y-63471611D01*
X139936160Y-63473238D01*
X139915117Y-63475500D01*
X138415499Y-63475500D01*
X138357308Y-63456593D01*
X138321344Y-63407093D01*
X138316499Y-63376500D01*
X138316499Y-63115436D01*
X138316498Y-63115429D01*
X138301734Y-63041199D01*
X138301733Y-63041197D01*
X138245486Y-62957019D01*
X138245485Y-62957018D01*
X138245484Y-62957016D01*
X138161301Y-62900766D01*
X138087067Y-62886000D01*
X138087066Y-62886000D01*
X136512936Y-62886000D01*
X136512929Y-62886001D01*
X136438699Y-62900765D01*
X136438697Y-62900766D01*
X136354519Y-62957013D01*
X136354514Y-62957018D01*
X136317016Y-63013137D01*
X136298266Y-63041199D01*
X136283501Y-63115429D01*
X136283500Y-63115433D01*
X136283500Y-64689563D01*
X135776500Y-64689563D01*
X135776499Y-63115434D01*
X135761734Y-63041199D01*
X135761733Y-63041197D01*
X135705486Y-62957019D01*
X135705485Y-62957018D01*
X135705484Y-62957016D01*
X135621301Y-62900766D01*
X135547067Y-62886000D01*
X135547066Y-62886000D01*
X133972936Y-62886000D01*
X133972929Y-62886001D01*
X133898699Y-62900765D01*
X133898697Y-62900766D01*
X133814519Y-62957013D01*
X133814514Y-62957018D01*
X133777015Y-63013137D01*
X133758266Y-63041199D01*
X133743501Y-63115429D01*
X133743500Y-63115433D01*
X133743500Y-64689563D01*
X128811776Y-64689563D01*
X133501339Y-60000000D01*
X159390284Y-60000000D01*
X159411059Y-60157805D01*
X159411060Y-60157806D01*
X159471968Y-60304854D01*
X159471970Y-60304858D01*
X159568863Y-60431131D01*
X159568864Y-60431132D01*
X159568866Y-60431134D01*
X159606768Y-60460217D01*
X159641423Y-60510640D01*
X159645500Y-60538758D01*
X159645500Y-97952965D01*
X159643393Y-97973279D01*
X159640905Y-97985145D01*
X159645120Y-98018960D01*
X159645500Y-98025088D01*
X159645500Y-98029379D01*
X159648957Y-98050100D01*
X159649252Y-98052122D01*
X159655538Y-98102550D01*
X159657655Y-98109661D01*
X159660071Y-98116699D01*
X159684248Y-98161373D01*
X159685172Y-98163168D01*
X159707501Y-98208840D01*
X159707502Y-98208842D01*
X159711818Y-98214887D01*
X159716379Y-98220746D01*
X159716381Y-98220749D01*
X159741803Y-98244151D01*
X159753751Y-98255150D01*
X159755227Y-98256567D01*
X161256073Y-99757412D01*
X161268946Y-99773265D01*
X161271066Y-99776509D01*
X161275579Y-99783416D01*
X161300611Y-99802899D01*
X161302462Y-99804340D01*
X161307059Y-99808399D01*
X161310100Y-99811439D01*
X161310103Y-99811442D01*
X161327232Y-99823672D01*
X161328861Y-99824887D01*
X161368942Y-99856084D01*
X161375481Y-99859622D01*
X161382147Y-99862880D01*
X161382152Y-99862884D01*
X161430882Y-99877391D01*
X161432780Y-99877999D01*
X161480844Y-99894500D01*
X161480846Y-99894500D01*
X161488167Y-99895722D01*
X161495537Y-99896640D01*
X161495544Y-99896642D01*
X161546326Y-99894541D01*
X161548339Y-99894500D01*
X161718974Y-99894500D01*
X161777165Y-99913407D01*
X161806284Y-99946832D01*
X161850719Y-100029966D01*
X161959307Y-100162281D01*
X161977748Y-100184752D01*
X161977753Y-100184756D01*
X162132533Y-100311780D01*
X162309114Y-100406164D01*
X162309120Y-100406167D01*
X162500731Y-100464292D01*
X162500733Y-100464292D01*
X162500736Y-100464293D01*
X162699997Y-100483918D01*
X162700000Y-100483918D01*
X162700003Y-100483918D01*
X162899263Y-100464293D01*
X162899264Y-100464292D01*
X162899269Y-100464292D01*
X163090880Y-100406167D01*
X163226316Y-100333775D01*
X163267466Y-100311780D01*
X163267467Y-100311778D01*
X163267469Y-100311778D01*
X163422252Y-100184752D01*
X163549278Y-100029969D01*
X163549594Y-100029379D01*
X163621688Y-99894500D01*
X163643667Y-99853380D01*
X163701792Y-99661769D01*
X163702803Y-99651511D01*
X163721418Y-99462503D01*
X164218582Y-99462503D01*
X164238206Y-99661763D01*
X164238207Y-99661766D01*
X164238208Y-99661769D01*
X164292939Y-99842193D01*
X164296334Y-99853383D01*
X164296335Y-99853385D01*
X164390719Y-100029966D01*
X164499307Y-100162281D01*
X164517748Y-100184752D01*
X164517753Y-100184756D01*
X164672533Y-100311780D01*
X164849114Y-100406164D01*
X164849120Y-100406167D01*
X165040731Y-100464292D01*
X165040733Y-100464292D01*
X165040736Y-100464293D01*
X165239997Y-100483918D01*
X165240000Y-100483918D01*
X165240003Y-100483918D01*
X165439263Y-100464293D01*
X165439264Y-100464292D01*
X165439269Y-100464292D01*
X165630880Y-100406167D01*
X165766316Y-100333775D01*
X165807466Y-100311780D01*
X165807467Y-100311778D01*
X165807469Y-100311778D01*
X165962252Y-100184752D01*
X166089278Y-100029969D01*
X166089594Y-100029379D01*
X166161688Y-99894500D01*
X166183667Y-99853380D01*
X166241792Y-99661769D01*
X166242803Y-99651511D01*
X166261418Y-99462503D01*
X166261418Y-99462496D01*
X166241793Y-99263236D01*
X166241792Y-99263233D01*
X166241792Y-99263231D01*
X166183667Y-99071620D01*
X166183664Y-99071614D01*
X166089280Y-98895033D01*
X165962256Y-98740253D01*
X165962252Y-98740248D01*
X165898401Y-98687847D01*
X165807466Y-98613219D01*
X165630885Y-98518835D01*
X165630883Y-98518834D01*
X165439266Y-98460707D01*
X165439263Y-98460706D01*
X165240003Y-98441082D01*
X165239997Y-98441082D01*
X165040736Y-98460706D01*
X165040733Y-98460707D01*
X164849116Y-98518834D01*
X164849114Y-98518835D01*
X164672533Y-98613219D01*
X164517753Y-98740243D01*
X164517743Y-98740253D01*
X164390719Y-98895033D01*
X164296335Y-99071614D01*
X164296334Y-99071616D01*
X164238207Y-99263233D01*
X164238206Y-99263236D01*
X164218582Y-99462496D01*
X164218582Y-99462503D01*
X163721418Y-99462503D01*
X163721418Y-99462496D01*
X163701793Y-99263236D01*
X163701792Y-99263233D01*
X163701792Y-99263231D01*
X163643667Y-99071620D01*
X163643664Y-99071614D01*
X163549280Y-98895033D01*
X163422256Y-98740253D01*
X163422252Y-98740248D01*
X163358401Y-98687847D01*
X163267466Y-98613219D01*
X163090885Y-98518835D01*
X163090883Y-98518834D01*
X162899266Y-98460707D01*
X162899263Y-98460706D01*
X162700003Y-98441082D01*
X162699997Y-98441082D01*
X162500736Y-98460706D01*
X162500733Y-98460707D01*
X162309116Y-98518834D01*
X162309114Y-98518835D01*
X162132533Y-98613219D01*
X161977753Y-98740243D01*
X161977743Y-98740253D01*
X161850720Y-98895031D01*
X161755383Y-99073395D01*
X161711277Y-99115801D01*
X161650669Y-99124184D01*
X161598069Y-99096730D01*
X160383496Y-97882156D01*
X160355719Y-97827639D01*
X160354500Y-97812152D01*
X160354500Y-96922503D01*
X161678582Y-96922503D01*
X161698206Y-97121763D01*
X161698207Y-97121766D01*
X161756334Y-97313383D01*
X161756335Y-97313385D01*
X161850719Y-97489966D01*
X161977743Y-97644746D01*
X161977748Y-97644752D01*
X161977753Y-97644756D01*
X162132533Y-97771780D01*
X162309114Y-97866164D01*
X162309120Y-97866167D01*
X162500731Y-97924292D01*
X162500733Y-97924292D01*
X162500736Y-97924293D01*
X162699997Y-97943918D01*
X162700000Y-97943918D01*
X162700003Y-97943918D01*
X162899263Y-97924293D01*
X162899264Y-97924292D01*
X162899269Y-97924292D01*
X163090880Y-97866167D01*
X163191935Y-97812152D01*
X163267466Y-97771780D01*
X163267467Y-97771778D01*
X163267469Y-97771778D01*
X163422252Y-97644752D01*
X163549278Y-97489969D01*
X163583195Y-97426516D01*
X163643664Y-97313385D01*
X163643665Y-97313383D01*
X163643667Y-97313380D01*
X163701792Y-97121769D01*
X163721418Y-96922503D01*
X164218582Y-96922503D01*
X164238206Y-97121763D01*
X164238207Y-97121766D01*
X164296334Y-97313383D01*
X164296335Y-97313385D01*
X164390719Y-97489966D01*
X164517743Y-97644746D01*
X164517748Y-97644752D01*
X164517753Y-97644756D01*
X164672533Y-97771780D01*
X164849114Y-97866164D01*
X164849120Y-97866167D01*
X165040731Y-97924292D01*
X165040733Y-97924292D01*
X165040736Y-97924293D01*
X165239997Y-97943918D01*
X165240000Y-97943918D01*
X165240003Y-97943918D01*
X165439263Y-97924293D01*
X165439264Y-97924292D01*
X165439269Y-97924292D01*
X165630880Y-97866167D01*
X165731935Y-97812152D01*
X165807466Y-97771780D01*
X165807467Y-97771778D01*
X165807469Y-97771778D01*
X165962252Y-97644752D01*
X166089278Y-97489969D01*
X166123195Y-97426516D01*
X166183664Y-97313385D01*
X166183665Y-97313383D01*
X166183667Y-97313380D01*
X166241792Y-97121769D01*
X166261418Y-96922500D01*
X166261418Y-96922496D01*
X166241793Y-96723236D01*
X166241792Y-96723233D01*
X166241792Y-96723231D01*
X166183667Y-96531620D01*
X166103777Y-96382156D01*
X166089280Y-96355033D01*
X165962256Y-96200253D01*
X165962252Y-96200248D01*
X165962246Y-96200243D01*
X165807466Y-96073219D01*
X165630885Y-95978835D01*
X165630883Y-95978834D01*
X165439266Y-95920707D01*
X165439263Y-95920706D01*
X165240003Y-95901082D01*
X165239997Y-95901082D01*
X165040736Y-95920706D01*
X165040733Y-95920707D01*
X164849116Y-95978834D01*
X164849114Y-95978835D01*
X164672533Y-96073219D01*
X164517753Y-96200243D01*
X164517743Y-96200253D01*
X164390719Y-96355033D01*
X164296335Y-96531614D01*
X164296334Y-96531616D01*
X164238207Y-96723233D01*
X164238206Y-96723236D01*
X164218582Y-96922496D01*
X164218582Y-96922503D01*
X163721418Y-96922503D01*
X163721418Y-96922500D01*
X163721418Y-96922496D01*
X163701793Y-96723236D01*
X163701792Y-96723233D01*
X163701792Y-96723231D01*
X163643667Y-96531620D01*
X163563777Y-96382156D01*
X163549280Y-96355033D01*
X163422256Y-96200253D01*
X163422252Y-96200248D01*
X163422246Y-96200243D01*
X163267466Y-96073219D01*
X163090885Y-95978835D01*
X163090883Y-95978834D01*
X162899266Y-95920707D01*
X162899263Y-95920706D01*
X162700003Y-95901082D01*
X162699997Y-95901082D01*
X162500736Y-95920706D01*
X162500733Y-95920707D01*
X162309116Y-95978834D01*
X162309114Y-95978835D01*
X162132533Y-96073219D01*
X161977753Y-96200243D01*
X161977743Y-96200253D01*
X161850719Y-96355033D01*
X161756335Y-96531614D01*
X161756334Y-96531616D01*
X161698207Y-96723233D01*
X161698206Y-96723236D01*
X161678582Y-96922496D01*
X161678582Y-96922503D01*
X160354500Y-96922503D01*
X160354500Y-94382503D01*
X161678582Y-94382503D01*
X161698206Y-94581763D01*
X161698207Y-94581766D01*
X161756334Y-94773383D01*
X161756335Y-94773385D01*
X161850719Y-94949966D01*
X161977743Y-95104746D01*
X161977748Y-95104752D01*
X161977753Y-95104756D01*
X162132533Y-95231780D01*
X162309114Y-95326164D01*
X162309120Y-95326167D01*
X162500731Y-95384292D01*
X162500733Y-95384292D01*
X162500736Y-95384293D01*
X162699997Y-95403918D01*
X162700000Y-95403918D01*
X162700003Y-95403918D01*
X162899263Y-95384293D01*
X162899264Y-95384292D01*
X162899269Y-95384292D01*
X163090880Y-95326167D01*
X163170756Y-95283471D01*
X163267466Y-95231780D01*
X163267467Y-95231778D01*
X163267469Y-95231778D01*
X163422252Y-95104752D01*
X163549278Y-94949969D01*
X163643667Y-94773380D01*
X163701792Y-94581769D01*
X163721418Y-94382503D01*
X164218582Y-94382503D01*
X164238206Y-94581763D01*
X164238207Y-94581766D01*
X164296334Y-94773383D01*
X164296335Y-94773385D01*
X164390719Y-94949966D01*
X164517743Y-95104746D01*
X164517748Y-95104752D01*
X164517753Y-95104756D01*
X164672533Y-95231780D01*
X164849114Y-95326164D01*
X164849120Y-95326167D01*
X165040731Y-95384292D01*
X165040733Y-95384292D01*
X165040736Y-95384293D01*
X165239997Y-95403918D01*
X165240000Y-95403918D01*
X165240003Y-95403918D01*
X165439263Y-95384293D01*
X165439264Y-95384292D01*
X165439269Y-95384292D01*
X165630880Y-95326167D01*
X165710756Y-95283471D01*
X165807466Y-95231780D01*
X165807467Y-95231778D01*
X165807469Y-95231778D01*
X165962252Y-95104752D01*
X166089278Y-94949969D01*
X166183667Y-94773380D01*
X166241792Y-94581769D01*
X166261418Y-94382500D01*
X166261418Y-94382496D01*
X166241793Y-94183236D01*
X166241792Y-94183233D01*
X166241792Y-94183231D01*
X166183667Y-93991620D01*
X166183664Y-93991614D01*
X166089280Y-93815033D01*
X165962256Y-93660253D01*
X165962252Y-93660248D01*
X165962246Y-93660243D01*
X165807466Y-93533219D01*
X165630885Y-93438835D01*
X165630883Y-93438834D01*
X165439266Y-93380707D01*
X165439263Y-93380706D01*
X165240003Y-93361082D01*
X165239997Y-93361082D01*
X165040736Y-93380706D01*
X165040733Y-93380707D01*
X164849116Y-93438834D01*
X164849114Y-93438835D01*
X164672533Y-93533219D01*
X164517753Y-93660243D01*
X164517743Y-93660253D01*
X164390719Y-93815033D01*
X164296335Y-93991614D01*
X164296334Y-93991616D01*
X164238207Y-94183233D01*
X164238206Y-94183236D01*
X164218582Y-94382496D01*
X164218582Y-94382503D01*
X163721418Y-94382503D01*
X163721418Y-94382500D01*
X163721418Y-94382496D01*
X163701793Y-94183236D01*
X163701792Y-94183233D01*
X163701792Y-94183231D01*
X163643667Y-93991620D01*
X163643664Y-93991614D01*
X163549280Y-93815033D01*
X163422256Y-93660253D01*
X163422252Y-93660248D01*
X163422246Y-93660243D01*
X163267466Y-93533219D01*
X163090885Y-93438835D01*
X163090883Y-93438834D01*
X162899266Y-93380707D01*
X162899263Y-93380706D01*
X162700003Y-93361082D01*
X162699997Y-93361082D01*
X162500736Y-93380706D01*
X162500733Y-93380707D01*
X162309116Y-93438834D01*
X162309114Y-93438835D01*
X162132533Y-93533219D01*
X161977753Y-93660243D01*
X161977743Y-93660253D01*
X161850719Y-93815033D01*
X161756335Y-93991614D01*
X161756334Y-93991616D01*
X161698207Y-94183233D01*
X161698206Y-94183236D01*
X161678582Y-94382496D01*
X161678582Y-94382503D01*
X160354500Y-94382503D01*
X160354500Y-91842503D01*
X161678582Y-91842503D01*
X161698206Y-92041763D01*
X161698207Y-92041766D01*
X161756334Y-92233383D01*
X161756335Y-92233385D01*
X161850719Y-92409966D01*
X161977743Y-92564746D01*
X161977748Y-92564752D01*
X161977753Y-92564756D01*
X162132533Y-92691780D01*
X162309114Y-92786164D01*
X162309120Y-92786167D01*
X162500731Y-92844292D01*
X162500733Y-92844292D01*
X162500736Y-92844293D01*
X162699997Y-92863918D01*
X162700000Y-92863918D01*
X162700003Y-92863918D01*
X162899263Y-92844293D01*
X162899264Y-92844292D01*
X162899269Y-92844292D01*
X163090880Y-92786167D01*
X163170756Y-92743471D01*
X163267466Y-92691780D01*
X163267467Y-92691778D01*
X163267469Y-92691778D01*
X163422252Y-92564752D01*
X163549278Y-92409969D01*
X163643667Y-92233380D01*
X163701792Y-92041769D01*
X163721418Y-91842503D01*
X164218582Y-91842503D01*
X164238206Y-92041763D01*
X164238207Y-92041766D01*
X164296334Y-92233383D01*
X164296335Y-92233385D01*
X164390719Y-92409966D01*
X164517743Y-92564746D01*
X164517748Y-92564752D01*
X164517753Y-92564756D01*
X164672533Y-92691780D01*
X164849114Y-92786164D01*
X164849120Y-92786167D01*
X165040731Y-92844292D01*
X165040733Y-92844292D01*
X165040736Y-92844293D01*
X165239997Y-92863918D01*
X165240000Y-92863918D01*
X165240003Y-92863918D01*
X165439263Y-92844293D01*
X165439264Y-92844292D01*
X165439269Y-92844292D01*
X165630880Y-92786167D01*
X165710756Y-92743471D01*
X165807466Y-92691780D01*
X165807467Y-92691778D01*
X165807469Y-92691778D01*
X165962252Y-92564752D01*
X166089278Y-92409969D01*
X166183667Y-92233380D01*
X166241792Y-92041769D01*
X166261418Y-91842500D01*
X166261418Y-91842496D01*
X166241793Y-91643236D01*
X166241792Y-91643233D01*
X166241792Y-91643231D01*
X166183667Y-91451620D01*
X166183664Y-91451614D01*
X166089280Y-91275033D01*
X165962256Y-91120253D01*
X165962252Y-91120248D01*
X165943062Y-91104499D01*
X165807466Y-90993219D01*
X165630885Y-90898835D01*
X165630883Y-90898834D01*
X165439266Y-90840707D01*
X165439263Y-90840706D01*
X165240003Y-90821082D01*
X165239997Y-90821082D01*
X165040736Y-90840706D01*
X165040733Y-90840707D01*
X164849116Y-90898834D01*
X164849114Y-90898835D01*
X164672533Y-90993219D01*
X164517753Y-91120243D01*
X164517743Y-91120253D01*
X164390719Y-91275033D01*
X164296335Y-91451614D01*
X164296334Y-91451616D01*
X164238207Y-91643233D01*
X164238206Y-91643236D01*
X164218582Y-91842496D01*
X164218582Y-91842503D01*
X163721418Y-91842503D01*
X163721418Y-91842500D01*
X163721418Y-91842496D01*
X163701793Y-91643236D01*
X163701792Y-91643233D01*
X163701792Y-91643231D01*
X163643667Y-91451620D01*
X163643664Y-91451614D01*
X163549280Y-91275033D01*
X163422256Y-91120253D01*
X163422252Y-91120248D01*
X163403062Y-91104499D01*
X163267466Y-90993219D01*
X163090885Y-90898835D01*
X163090883Y-90898834D01*
X162899266Y-90840707D01*
X162899263Y-90840706D01*
X162700003Y-90821082D01*
X162699997Y-90821082D01*
X162500736Y-90840706D01*
X162500733Y-90840707D01*
X162309116Y-90898834D01*
X162309114Y-90898835D01*
X162132533Y-90993219D01*
X161977753Y-91120243D01*
X161977743Y-91120253D01*
X161850719Y-91275033D01*
X161756335Y-91451614D01*
X161756334Y-91451616D01*
X161698207Y-91643233D01*
X161698206Y-91643236D01*
X161678582Y-91842496D01*
X161678582Y-91842503D01*
X160354500Y-91842503D01*
X160354500Y-89302503D01*
X161678582Y-89302503D01*
X161698206Y-89501763D01*
X161698207Y-89501766D01*
X161756334Y-89693383D01*
X161756335Y-89693385D01*
X161850719Y-89869966D01*
X161898437Y-89928111D01*
X161977748Y-90024752D01*
X161977753Y-90024756D01*
X162132533Y-90151780D01*
X162309114Y-90246164D01*
X162309120Y-90246167D01*
X162500731Y-90304292D01*
X162500733Y-90304292D01*
X162500736Y-90304293D01*
X162699997Y-90323918D01*
X162700000Y-90323918D01*
X162700003Y-90323918D01*
X162899263Y-90304293D01*
X162899264Y-90304292D01*
X162899269Y-90304292D01*
X163090880Y-90246167D01*
X163250553Y-90160820D01*
X163267466Y-90151780D01*
X163267467Y-90151778D01*
X163267469Y-90151778D01*
X163422252Y-90024752D01*
X163549278Y-89869969D01*
X163643667Y-89693380D01*
X163701792Y-89501769D01*
X163701967Y-89500000D01*
X163721418Y-89302503D01*
X164218582Y-89302503D01*
X164238206Y-89501763D01*
X164238207Y-89501766D01*
X164296334Y-89693383D01*
X164296335Y-89693385D01*
X164390719Y-89869966D01*
X164438437Y-89928111D01*
X164517748Y-90024752D01*
X164517753Y-90024756D01*
X164672533Y-90151780D01*
X164849114Y-90246164D01*
X164849120Y-90246167D01*
X165040731Y-90304292D01*
X165040733Y-90304292D01*
X165040736Y-90304293D01*
X165239997Y-90323918D01*
X165240000Y-90323918D01*
X165240003Y-90323918D01*
X165439263Y-90304293D01*
X165439264Y-90304292D01*
X165439269Y-90304292D01*
X165630880Y-90246167D01*
X165790553Y-90160820D01*
X165807466Y-90151780D01*
X165807467Y-90151778D01*
X165807469Y-90151778D01*
X165962252Y-90024752D01*
X166089278Y-89869969D01*
X166183667Y-89693380D01*
X166241792Y-89501769D01*
X166241967Y-89500000D01*
X166261418Y-89302503D01*
X166261418Y-89302496D01*
X166241793Y-89103236D01*
X166241792Y-89103233D01*
X166241792Y-89103231D01*
X166183667Y-88911620D01*
X166175051Y-88895500D01*
X166089280Y-88735033D01*
X165962256Y-88580253D01*
X165962252Y-88580248D01*
X165962246Y-88580243D01*
X165807466Y-88453219D01*
X165630885Y-88358835D01*
X165630883Y-88358834D01*
X165439266Y-88300707D01*
X165439263Y-88300706D01*
X165240003Y-88281082D01*
X165239997Y-88281082D01*
X165040736Y-88300706D01*
X165040733Y-88300707D01*
X164849116Y-88358834D01*
X164849114Y-88358835D01*
X164672533Y-88453219D01*
X164517753Y-88580243D01*
X164517743Y-88580253D01*
X164390719Y-88735033D01*
X164296335Y-88911614D01*
X164296334Y-88911616D01*
X164238207Y-89103233D01*
X164238206Y-89103236D01*
X164218582Y-89302496D01*
X164218582Y-89302503D01*
X163721418Y-89302503D01*
X163721418Y-89302496D01*
X163701793Y-89103236D01*
X163701792Y-89103233D01*
X163701792Y-89103231D01*
X163643667Y-88911620D01*
X163635051Y-88895500D01*
X163549280Y-88735033D01*
X163422256Y-88580253D01*
X163422252Y-88580248D01*
X163422246Y-88580243D01*
X163267466Y-88453219D01*
X163090885Y-88358835D01*
X163090883Y-88358834D01*
X162899266Y-88300707D01*
X162899263Y-88300706D01*
X162700003Y-88281082D01*
X162699997Y-88281082D01*
X162500736Y-88300706D01*
X162500733Y-88300707D01*
X162309116Y-88358834D01*
X162309114Y-88358835D01*
X162132533Y-88453219D01*
X161977753Y-88580243D01*
X161977743Y-88580253D01*
X161850719Y-88735033D01*
X161756335Y-88911614D01*
X161756334Y-88911616D01*
X161698207Y-89103233D01*
X161698206Y-89103236D01*
X161678582Y-89302496D01*
X161678582Y-89302503D01*
X160354500Y-89302503D01*
X160354500Y-86762503D01*
X161678582Y-86762503D01*
X161698206Y-86961763D01*
X161698207Y-86961766D01*
X161756334Y-87153383D01*
X161756335Y-87153385D01*
X161850719Y-87329966D01*
X161910708Y-87403063D01*
X161977748Y-87484752D01*
X161977753Y-87484756D01*
X162132533Y-87611780D01*
X162309114Y-87706164D01*
X162309120Y-87706167D01*
X162500731Y-87764292D01*
X162500733Y-87764292D01*
X162500736Y-87764293D01*
X162699997Y-87783918D01*
X162700000Y-87783918D01*
X162700003Y-87783918D01*
X162899263Y-87764293D01*
X162899264Y-87764292D01*
X162899269Y-87764292D01*
X163090880Y-87706167D01*
X163170756Y-87663471D01*
X163267466Y-87611780D01*
X163267467Y-87611778D01*
X163267469Y-87611778D01*
X163422252Y-87484752D01*
X163549278Y-87329969D01*
X163643667Y-87153380D01*
X163701792Y-86961769D01*
X163721418Y-86762503D01*
X164218582Y-86762503D01*
X164238206Y-86961763D01*
X164238207Y-86961766D01*
X164296334Y-87153383D01*
X164296335Y-87153385D01*
X164390719Y-87329966D01*
X164450708Y-87403063D01*
X164517748Y-87484752D01*
X164517753Y-87484756D01*
X164672533Y-87611780D01*
X164849114Y-87706164D01*
X164849120Y-87706167D01*
X165040731Y-87764292D01*
X165040733Y-87764292D01*
X165040736Y-87764293D01*
X165239997Y-87783918D01*
X165240000Y-87783918D01*
X165240003Y-87783918D01*
X165439263Y-87764293D01*
X165439264Y-87764292D01*
X165439269Y-87764292D01*
X165630880Y-87706167D01*
X165710756Y-87663471D01*
X165807466Y-87611780D01*
X165807467Y-87611778D01*
X165807469Y-87611778D01*
X165962252Y-87484752D01*
X166089278Y-87329969D01*
X166183667Y-87153380D01*
X166241792Y-86961769D01*
X166261418Y-86762500D01*
X166261418Y-86762496D01*
X166241793Y-86563236D01*
X166241792Y-86563233D01*
X166241792Y-86563231D01*
X166183667Y-86371620D01*
X166183664Y-86371614D01*
X166089280Y-86195033D01*
X165962256Y-86040253D01*
X165962252Y-86040248D01*
X165962246Y-86040243D01*
X165807466Y-85913219D01*
X165630885Y-85818835D01*
X165630883Y-85818834D01*
X165439266Y-85760707D01*
X165439263Y-85760706D01*
X165240003Y-85741082D01*
X165239997Y-85741082D01*
X165040736Y-85760706D01*
X165040733Y-85760707D01*
X164849116Y-85818834D01*
X164849114Y-85818835D01*
X164672533Y-85913219D01*
X164517753Y-86040243D01*
X164517743Y-86040253D01*
X164390719Y-86195033D01*
X164296335Y-86371614D01*
X164296334Y-86371616D01*
X164238207Y-86563233D01*
X164238206Y-86563236D01*
X164218582Y-86762496D01*
X164218582Y-86762503D01*
X163721418Y-86762503D01*
X163721418Y-86762500D01*
X163721418Y-86762496D01*
X163701793Y-86563236D01*
X163701792Y-86563233D01*
X163701792Y-86563231D01*
X163643667Y-86371620D01*
X163643664Y-86371614D01*
X163549280Y-86195033D01*
X163422256Y-86040253D01*
X163422252Y-86040248D01*
X163422246Y-86040243D01*
X163267466Y-85913219D01*
X163090885Y-85818835D01*
X163090883Y-85818834D01*
X162899266Y-85760707D01*
X162899263Y-85760706D01*
X162700003Y-85741082D01*
X162699997Y-85741082D01*
X162500736Y-85760706D01*
X162500733Y-85760707D01*
X162309116Y-85818834D01*
X162309114Y-85818835D01*
X162132533Y-85913219D01*
X161977753Y-86040243D01*
X161977743Y-86040253D01*
X161850719Y-86195033D01*
X161756335Y-86371614D01*
X161756334Y-86371616D01*
X161698207Y-86563233D01*
X161698206Y-86563236D01*
X161678582Y-86762496D01*
X161678582Y-86762503D01*
X160354500Y-86762503D01*
X160354500Y-84222503D01*
X161678582Y-84222503D01*
X161698206Y-84421763D01*
X161698207Y-84421766D01*
X161756334Y-84613383D01*
X161756335Y-84613385D01*
X161850719Y-84789966D01*
X161933101Y-84890349D01*
X161977748Y-84944752D01*
X161977753Y-84944756D01*
X162132533Y-85071780D01*
X162309114Y-85166164D01*
X162309120Y-85166167D01*
X162500731Y-85224292D01*
X162500733Y-85224292D01*
X162500736Y-85224293D01*
X162699997Y-85243918D01*
X162700000Y-85243918D01*
X162700003Y-85243918D01*
X162899263Y-85224293D01*
X162899264Y-85224292D01*
X162899269Y-85224292D01*
X163090880Y-85166167D01*
X163224314Y-85094845D01*
X163267466Y-85071780D01*
X163267467Y-85071778D01*
X163267469Y-85071778D01*
X163422252Y-84944752D01*
X163549278Y-84789969D01*
X163551871Y-84785119D01*
X163643664Y-84613385D01*
X163643665Y-84613383D01*
X163643667Y-84613380D01*
X163701792Y-84421769D01*
X163704188Y-84397449D01*
X163721418Y-84222503D01*
X164218582Y-84222503D01*
X164238206Y-84421763D01*
X164238207Y-84421766D01*
X164296334Y-84613383D01*
X164296335Y-84613385D01*
X164390719Y-84789966D01*
X164473101Y-84890349D01*
X164517748Y-84944752D01*
X164517753Y-84944756D01*
X164672533Y-85071780D01*
X164849114Y-85166164D01*
X164849120Y-85166167D01*
X165040731Y-85224292D01*
X165040733Y-85224292D01*
X165040736Y-85224293D01*
X165239997Y-85243918D01*
X165240000Y-85243918D01*
X165240003Y-85243918D01*
X165439263Y-85224293D01*
X165439264Y-85224292D01*
X165439269Y-85224292D01*
X165630880Y-85166167D01*
X165764314Y-85094845D01*
X165807466Y-85071780D01*
X165807467Y-85071778D01*
X165807469Y-85071778D01*
X165962252Y-84944752D01*
X166089278Y-84789969D01*
X166091871Y-84785119D01*
X166183664Y-84613385D01*
X166183665Y-84613383D01*
X166183667Y-84613380D01*
X166241792Y-84421769D01*
X166244188Y-84397449D01*
X166261418Y-84222503D01*
X166261418Y-84222496D01*
X166241793Y-84023236D01*
X166241792Y-84023233D01*
X166241792Y-84023231D01*
X166183667Y-83831620D01*
X166183664Y-83831614D01*
X166089280Y-83655033D01*
X165962256Y-83500253D01*
X165962252Y-83500248D01*
X165962246Y-83500243D01*
X165807466Y-83373219D01*
X165630885Y-83278835D01*
X165630883Y-83278834D01*
X165439266Y-83220707D01*
X165439263Y-83220706D01*
X165240003Y-83201082D01*
X165239997Y-83201082D01*
X165040736Y-83220706D01*
X165040733Y-83220707D01*
X164849116Y-83278834D01*
X164849114Y-83278835D01*
X164672533Y-83373219D01*
X164517753Y-83500243D01*
X164517743Y-83500253D01*
X164390719Y-83655033D01*
X164296335Y-83831614D01*
X164296334Y-83831616D01*
X164238207Y-84023233D01*
X164238206Y-84023236D01*
X164218582Y-84222496D01*
X164218582Y-84222503D01*
X163721418Y-84222503D01*
X163721418Y-84222496D01*
X163701793Y-84023236D01*
X163701792Y-84023233D01*
X163701792Y-84023231D01*
X163643667Y-83831620D01*
X163643664Y-83831614D01*
X163549280Y-83655033D01*
X163422256Y-83500253D01*
X163422252Y-83500248D01*
X163422246Y-83500243D01*
X163267466Y-83373219D01*
X163090885Y-83278835D01*
X163090883Y-83278834D01*
X162899266Y-83220707D01*
X162899263Y-83220706D01*
X162700003Y-83201082D01*
X162699997Y-83201082D01*
X162500736Y-83220706D01*
X162500733Y-83220707D01*
X162309116Y-83278834D01*
X162309114Y-83278835D01*
X162132533Y-83373219D01*
X161977753Y-83500243D01*
X161977743Y-83500253D01*
X161850719Y-83655033D01*
X161756335Y-83831614D01*
X161756334Y-83831616D01*
X161698207Y-84023233D01*
X161698206Y-84023236D01*
X161678582Y-84222496D01*
X161678582Y-84222503D01*
X160354500Y-84222503D01*
X160354500Y-81682503D01*
X161678582Y-81682503D01*
X161698206Y-81881763D01*
X161698207Y-81881766D01*
X161756334Y-82073383D01*
X161756335Y-82073385D01*
X161850719Y-82249966D01*
X161977743Y-82404746D01*
X161977748Y-82404752D01*
X161977753Y-82404756D01*
X162132533Y-82531780D01*
X162309114Y-82626164D01*
X162309120Y-82626167D01*
X162500731Y-82684292D01*
X162500733Y-82684292D01*
X162500736Y-82684293D01*
X162699997Y-82703918D01*
X162700000Y-82703918D01*
X162700003Y-82703918D01*
X162899263Y-82684293D01*
X162899264Y-82684292D01*
X162899269Y-82684292D01*
X163090880Y-82626167D01*
X163170756Y-82583471D01*
X163267466Y-82531780D01*
X163267467Y-82531778D01*
X163267469Y-82531778D01*
X163422252Y-82404752D01*
X163549278Y-82249969D01*
X163643667Y-82073380D01*
X163701792Y-81881769D01*
X163721418Y-81682503D01*
X164218582Y-81682503D01*
X164238206Y-81881763D01*
X164238207Y-81881766D01*
X164296334Y-82073383D01*
X164296335Y-82073385D01*
X164390719Y-82249966D01*
X164517743Y-82404746D01*
X164517748Y-82404752D01*
X164517753Y-82404756D01*
X164672533Y-82531780D01*
X164849114Y-82626164D01*
X164849120Y-82626167D01*
X165040731Y-82684292D01*
X165040733Y-82684292D01*
X165040736Y-82684293D01*
X165239997Y-82703918D01*
X165240000Y-82703918D01*
X165240003Y-82703918D01*
X165439263Y-82684293D01*
X165439264Y-82684292D01*
X165439269Y-82684292D01*
X165630880Y-82626167D01*
X165710756Y-82583471D01*
X165807466Y-82531780D01*
X165807467Y-82531778D01*
X165807469Y-82531778D01*
X165962252Y-82404752D01*
X166089278Y-82249969D01*
X166183667Y-82073380D01*
X166241792Y-81881769D01*
X166261418Y-81682500D01*
X166261418Y-81682496D01*
X166241793Y-81483236D01*
X166241792Y-81483233D01*
X166241792Y-81483231D01*
X166183667Y-81291620D01*
X166183664Y-81291614D01*
X166089280Y-81115033D01*
X165962256Y-80960253D01*
X165962252Y-80960248D01*
X165962246Y-80960243D01*
X165807466Y-80833219D01*
X165630885Y-80738835D01*
X165630883Y-80738834D01*
X165439266Y-80680707D01*
X165439263Y-80680706D01*
X165240003Y-80661082D01*
X165239997Y-80661082D01*
X165040736Y-80680706D01*
X165040733Y-80680707D01*
X164849116Y-80738834D01*
X164849114Y-80738835D01*
X164672533Y-80833219D01*
X164517753Y-80960243D01*
X164517743Y-80960253D01*
X164390719Y-81115033D01*
X164296335Y-81291614D01*
X164296334Y-81291616D01*
X164238207Y-81483233D01*
X164238206Y-81483236D01*
X164218582Y-81682496D01*
X164218582Y-81682503D01*
X163721418Y-81682503D01*
X163721418Y-81682500D01*
X163721418Y-81682496D01*
X163701793Y-81483236D01*
X163701792Y-81483233D01*
X163701792Y-81483231D01*
X163643667Y-81291620D01*
X163643664Y-81291614D01*
X163549280Y-81115033D01*
X163422256Y-80960253D01*
X163422252Y-80960248D01*
X163422246Y-80960243D01*
X163267466Y-80833219D01*
X163090885Y-80738835D01*
X163090883Y-80738834D01*
X162899266Y-80680707D01*
X162899263Y-80680706D01*
X162700003Y-80661082D01*
X162699997Y-80661082D01*
X162500736Y-80680706D01*
X162500733Y-80680707D01*
X162309116Y-80738834D01*
X162309114Y-80738835D01*
X162132533Y-80833219D01*
X161977753Y-80960243D01*
X161977743Y-80960253D01*
X161850719Y-81115033D01*
X161756335Y-81291614D01*
X161756334Y-81291616D01*
X161698207Y-81483233D01*
X161698206Y-81483236D01*
X161678582Y-81682496D01*
X161678582Y-81682503D01*
X160354500Y-81682503D01*
X160354500Y-79142503D01*
X161678582Y-79142503D01*
X161698206Y-79341763D01*
X161698207Y-79341766D01*
X161756334Y-79533383D01*
X161756335Y-79533385D01*
X161850719Y-79709966D01*
X161977743Y-79864746D01*
X161977748Y-79864752D01*
X161977753Y-79864756D01*
X162132533Y-79991780D01*
X162309114Y-80086164D01*
X162309120Y-80086167D01*
X162500731Y-80144292D01*
X162500733Y-80144292D01*
X162500736Y-80144293D01*
X162699997Y-80163918D01*
X162700000Y-80163918D01*
X162700003Y-80163918D01*
X162899263Y-80144293D01*
X162899264Y-80144292D01*
X162899269Y-80144292D01*
X163090880Y-80086167D01*
X163170756Y-80043471D01*
X163267466Y-79991780D01*
X163267467Y-79991778D01*
X163267469Y-79991778D01*
X163422252Y-79864752D01*
X163549278Y-79709969D01*
X163643667Y-79533380D01*
X163701792Y-79341769D01*
X163721418Y-79142503D01*
X164218582Y-79142503D01*
X164238206Y-79341763D01*
X164238207Y-79341766D01*
X164296334Y-79533383D01*
X164296335Y-79533385D01*
X164390719Y-79709966D01*
X164517743Y-79864746D01*
X164517748Y-79864752D01*
X164517753Y-79864756D01*
X164672533Y-79991780D01*
X164849114Y-80086164D01*
X164849120Y-80086167D01*
X165040731Y-80144292D01*
X165040733Y-80144292D01*
X165040736Y-80144293D01*
X165239997Y-80163918D01*
X165240000Y-80163918D01*
X165240003Y-80163918D01*
X165439263Y-80144293D01*
X165439264Y-80144292D01*
X165439269Y-80144292D01*
X165630880Y-80086167D01*
X165710756Y-80043471D01*
X165807466Y-79991780D01*
X165807467Y-79991778D01*
X165807469Y-79991778D01*
X165962252Y-79864752D01*
X166089278Y-79709969D01*
X166183667Y-79533380D01*
X166241792Y-79341769D01*
X166261418Y-79142500D01*
X166261418Y-79142496D01*
X166241793Y-78943236D01*
X166241792Y-78943233D01*
X166241792Y-78943231D01*
X166183667Y-78751620D01*
X166183664Y-78751614D01*
X166089280Y-78575033D01*
X165962256Y-78420253D01*
X165962252Y-78420248D01*
X165962246Y-78420243D01*
X165807466Y-78293219D01*
X165630885Y-78198835D01*
X165630883Y-78198834D01*
X165439266Y-78140707D01*
X165439263Y-78140706D01*
X165240003Y-78121082D01*
X165239997Y-78121082D01*
X165040736Y-78140706D01*
X165040733Y-78140707D01*
X164849116Y-78198834D01*
X164849114Y-78198835D01*
X164672533Y-78293219D01*
X164517753Y-78420243D01*
X164517743Y-78420253D01*
X164390719Y-78575033D01*
X164296335Y-78751614D01*
X164296334Y-78751616D01*
X164238207Y-78943233D01*
X164238206Y-78943236D01*
X164218582Y-79142496D01*
X164218582Y-79142503D01*
X163721418Y-79142503D01*
X163721418Y-79142500D01*
X163721418Y-79142496D01*
X163701793Y-78943236D01*
X163701792Y-78943233D01*
X163701792Y-78943231D01*
X163643667Y-78751620D01*
X163643664Y-78751614D01*
X163549280Y-78575033D01*
X163422256Y-78420253D01*
X163422252Y-78420248D01*
X163422246Y-78420243D01*
X163267466Y-78293219D01*
X163090885Y-78198835D01*
X163090883Y-78198834D01*
X162899266Y-78140707D01*
X162899263Y-78140706D01*
X162700003Y-78121082D01*
X162699997Y-78121082D01*
X162500736Y-78140706D01*
X162500733Y-78140707D01*
X162309116Y-78198834D01*
X162309114Y-78198835D01*
X162132533Y-78293219D01*
X161977753Y-78420243D01*
X161977743Y-78420253D01*
X161850719Y-78575033D01*
X161756335Y-78751614D01*
X161756334Y-78751616D01*
X161698207Y-78943233D01*
X161698206Y-78943236D01*
X161678582Y-79142496D01*
X161678582Y-79142503D01*
X160354500Y-79142503D01*
X160354500Y-76602503D01*
X161678582Y-76602503D01*
X161698206Y-76801763D01*
X161698207Y-76801766D01*
X161756334Y-76993383D01*
X161756335Y-76993385D01*
X161850719Y-77169966D01*
X161977743Y-77324746D01*
X161977748Y-77324752D01*
X161977753Y-77324756D01*
X162132533Y-77451780D01*
X162309114Y-77546164D01*
X162309120Y-77546167D01*
X162500731Y-77604292D01*
X162500733Y-77604292D01*
X162500736Y-77604293D01*
X162699997Y-77623918D01*
X162700000Y-77623918D01*
X162700003Y-77623918D01*
X162899263Y-77604293D01*
X162899264Y-77604292D01*
X162899269Y-77604292D01*
X163090880Y-77546167D01*
X163170756Y-77503471D01*
X163267466Y-77451780D01*
X163267467Y-77451778D01*
X163267469Y-77451778D01*
X163422252Y-77324752D01*
X163549278Y-77169969D01*
X163643667Y-76993380D01*
X163701792Y-76801769D01*
X163719077Y-76626277D01*
X163721418Y-76602503D01*
X164218582Y-76602503D01*
X164238206Y-76801763D01*
X164238207Y-76801766D01*
X164296334Y-76993383D01*
X164296335Y-76993385D01*
X164390719Y-77169966D01*
X164517743Y-77324746D01*
X164517748Y-77324752D01*
X164517753Y-77324756D01*
X164672533Y-77451780D01*
X164849114Y-77546164D01*
X164849120Y-77546167D01*
X165040731Y-77604292D01*
X165040733Y-77604292D01*
X165040736Y-77604293D01*
X165239997Y-77623918D01*
X165240000Y-77623918D01*
X165240003Y-77623918D01*
X165439263Y-77604293D01*
X165439264Y-77604292D01*
X165439269Y-77604292D01*
X165630880Y-77546167D01*
X165710756Y-77503471D01*
X165807466Y-77451780D01*
X165807467Y-77451778D01*
X165807469Y-77451778D01*
X165962252Y-77324752D01*
X166089278Y-77169969D01*
X166133715Y-77086832D01*
X166177821Y-77044425D01*
X166221026Y-77034500D01*
X168992153Y-77034500D01*
X169050344Y-77053407D01*
X169062157Y-77063496D01*
X177116504Y-85117843D01*
X177144281Y-85172360D01*
X177145500Y-85187847D01*
X177145500Y-99952965D01*
X177143393Y-99973279D01*
X177140905Y-99985147D01*
X177143636Y-100007059D01*
X177145120Y-100018960D01*
X177145500Y-100025088D01*
X177145500Y-100029379D01*
X177148957Y-100050100D01*
X177149252Y-100052122D01*
X177155538Y-100102550D01*
X177157655Y-100109661D01*
X177160071Y-100116699D01*
X177170056Y-100135149D01*
X177182317Y-100157806D01*
X177184248Y-100161373D01*
X177185172Y-100163168D01*
X177195722Y-100184746D01*
X177207502Y-100208842D01*
X177211818Y-100214887D01*
X177216379Y-100220746D01*
X177216381Y-100220749D01*
X177251106Y-100252715D01*
X177253752Y-100255151D01*
X177255228Y-100256568D01*
X177868370Y-100869708D01*
X177896147Y-100924225D01*
X177896519Y-100952632D01*
X177890284Y-100999997D01*
X177890284Y-101000000D01*
X177911059Y-101157805D01*
X177911060Y-101157806D01*
X177971970Y-101304858D01*
X178068866Y-101431134D01*
X178195142Y-101528030D01*
X178342194Y-101588940D01*
X178499999Y-101609716D01*
X178499999Y-101609715D01*
X178500000Y-101609716D01*
X178657806Y-101588940D01*
X178804858Y-101528030D01*
X178931134Y-101431134D01*
X179028030Y-101304858D01*
X179088940Y-101157806D01*
X179109716Y-101000000D01*
X179088940Y-100842194D01*
X179028030Y-100695142D01*
X178931134Y-100568866D01*
X178931132Y-100568865D01*
X178927184Y-100563719D01*
X178928538Y-100562679D01*
X178904494Y-100515487D01*
X178914065Y-100455055D01*
X178927518Y-100436537D01*
X178927184Y-100436281D01*
X178931132Y-100431135D01*
X178931134Y-100431134D01*
X179028030Y-100304858D01*
X179088940Y-100157806D01*
X179109716Y-100000000D01*
X179103761Y-99954772D01*
X179088940Y-99842194D01*
X179028030Y-99695142D01*
X178931134Y-99568866D01*
X178915133Y-99556588D01*
X178893231Y-99539781D01*
X178858576Y-99489356D01*
X178854500Y-99461240D01*
X178854500Y-85047034D01*
X178856607Y-85026718D01*
X178859095Y-85014853D01*
X178854879Y-84981034D01*
X178854500Y-84974911D01*
X178854500Y-84970621D01*
X178851039Y-84949880D01*
X178850744Y-84947855D01*
X178848833Y-84932530D01*
X178844461Y-84897449D01*
X178844459Y-84897445D01*
X178842347Y-84890349D01*
X178839928Y-84883300D01*
X178837786Y-84879342D01*
X178815733Y-84838593D01*
X178814814Y-84836805D01*
X178795060Y-84796399D01*
X178792499Y-84791160D01*
X178792498Y-84791159D01*
X178788185Y-84785119D01*
X178783621Y-84779254D01*
X178783619Y-84779251D01*
X178746243Y-84744844D01*
X178744771Y-84743431D01*
X167923926Y-73922587D01*
X167911051Y-73906732D01*
X167904420Y-73896583D01*
X167877534Y-73875657D01*
X167872939Y-73871600D01*
X167869897Y-73868558D01*
X167852774Y-73856332D01*
X167851142Y-73855115D01*
X167811054Y-73823913D01*
X167804535Y-73820386D01*
X167797850Y-73817117D01*
X167797848Y-73817116D01*
X167749141Y-73802614D01*
X167747195Y-73801991D01*
X167699157Y-73785500D01*
X167691828Y-73784277D01*
X167684457Y-73783358D01*
X167684456Y-73783358D01*
X167684454Y-73783358D01*
X167679022Y-73783582D01*
X167633673Y-73785458D01*
X167631661Y-73785500D01*
X166291635Y-73785500D01*
X166233444Y-73766593D01*
X166197480Y-73717093D01*
X166196898Y-73715238D01*
X166183667Y-73671620D01*
X166183664Y-73671614D01*
X166089280Y-73495033D01*
X165962256Y-73340253D01*
X165962252Y-73340248D01*
X165962246Y-73340243D01*
X165807466Y-73213219D01*
X165630885Y-73118835D01*
X165630883Y-73118834D01*
X165439266Y-73060707D01*
X165439263Y-73060706D01*
X165240003Y-73041082D01*
X165239997Y-73041082D01*
X165040736Y-73060706D01*
X165040733Y-73060707D01*
X164849116Y-73118834D01*
X164849114Y-73118835D01*
X164672533Y-73213219D01*
X164517753Y-73340243D01*
X164517743Y-73340253D01*
X164390719Y-73495033D01*
X164296335Y-73671614D01*
X164296334Y-73671616D01*
X164238207Y-73863233D01*
X164238206Y-73863236D01*
X164218582Y-74062496D01*
X164218582Y-74062503D01*
X164238206Y-74261763D01*
X164238207Y-74261766D01*
X164296334Y-74453383D01*
X164296335Y-74453385D01*
X164390719Y-74629966D01*
X164412431Y-74656422D01*
X164517748Y-74784752D01*
X164517753Y-74784756D01*
X164672533Y-74911780D01*
X164837582Y-75000000D01*
X164849120Y-75006167D01*
X165040731Y-75064292D01*
X165040733Y-75064292D01*
X165040736Y-75064293D01*
X165239997Y-75083918D01*
X165240000Y-75083918D01*
X165240003Y-75083918D01*
X165439263Y-75064293D01*
X165439264Y-75064292D01*
X165439269Y-75064292D01*
X165630880Y-75006167D01*
X165710756Y-74963471D01*
X165807466Y-74911780D01*
X165807467Y-74911778D01*
X165807469Y-74911778D01*
X165962252Y-74784752D01*
X166089278Y-74629969D01*
X166133715Y-74546832D01*
X166177821Y-74504425D01*
X166221026Y-74494500D01*
X167452153Y-74494500D01*
X167510344Y-74513407D01*
X167522157Y-74523496D01*
X169155157Y-76156496D01*
X169182934Y-76211013D01*
X169173363Y-76271445D01*
X169130098Y-76314710D01*
X169085153Y-76325500D01*
X166291635Y-76325500D01*
X166233444Y-76306593D01*
X166197480Y-76257093D01*
X166196898Y-76255238D01*
X166183667Y-76211620D01*
X166154203Y-76156496D01*
X166089280Y-76035033D01*
X165962256Y-75880253D01*
X165962252Y-75880248D01*
X165962246Y-75880243D01*
X165807466Y-75753219D01*
X165630885Y-75658835D01*
X165630883Y-75658834D01*
X165439266Y-75600707D01*
X165439263Y-75600706D01*
X165240003Y-75581082D01*
X165239997Y-75581082D01*
X165040736Y-75600706D01*
X165040733Y-75600707D01*
X164849116Y-75658834D01*
X164849114Y-75658835D01*
X164672533Y-75753219D01*
X164517753Y-75880243D01*
X164517743Y-75880253D01*
X164390719Y-76035033D01*
X164296335Y-76211614D01*
X164296334Y-76211616D01*
X164238207Y-76403233D01*
X164238206Y-76403236D01*
X164218582Y-76602496D01*
X164218582Y-76602503D01*
X163721418Y-76602503D01*
X163721418Y-76602496D01*
X163701793Y-76403236D01*
X163701792Y-76403233D01*
X163701792Y-76403231D01*
X163643667Y-76211620D01*
X163614203Y-76156496D01*
X163549280Y-76035033D01*
X163422256Y-75880253D01*
X163422252Y-75880248D01*
X163422246Y-75880243D01*
X163267466Y-75753219D01*
X163090885Y-75658835D01*
X163090883Y-75658834D01*
X162899266Y-75600707D01*
X162899263Y-75600706D01*
X162700003Y-75581082D01*
X162699997Y-75581082D01*
X162500736Y-75600706D01*
X162500733Y-75600707D01*
X162309116Y-75658834D01*
X162309114Y-75658835D01*
X162132533Y-75753219D01*
X161977753Y-75880243D01*
X161977743Y-75880253D01*
X161850719Y-76035033D01*
X161756335Y-76211614D01*
X161756334Y-76211616D01*
X161698207Y-76403233D01*
X161698206Y-76403236D01*
X161678582Y-76602496D01*
X161678582Y-76602503D01*
X160354500Y-76602503D01*
X160354500Y-74062503D01*
X161678582Y-74062503D01*
X161698206Y-74261763D01*
X161698207Y-74261766D01*
X161756334Y-74453383D01*
X161756335Y-74453385D01*
X161850719Y-74629966D01*
X161872431Y-74656422D01*
X161977748Y-74784752D01*
X161977753Y-74784756D01*
X162132533Y-74911780D01*
X162297582Y-75000000D01*
X162309120Y-75006167D01*
X162500731Y-75064292D01*
X162500733Y-75064292D01*
X162500736Y-75064293D01*
X162699997Y-75083918D01*
X162700000Y-75083918D01*
X162700003Y-75083918D01*
X162899263Y-75064293D01*
X162899264Y-75064292D01*
X162899269Y-75064292D01*
X163090880Y-75006167D01*
X163170756Y-74963471D01*
X163267466Y-74911780D01*
X163267467Y-74911778D01*
X163267469Y-74911778D01*
X163422252Y-74784752D01*
X163549278Y-74629969D01*
X163643667Y-74453380D01*
X163701792Y-74261769D01*
X163721418Y-74062500D01*
X163721418Y-74062496D01*
X163701793Y-73863236D01*
X163701792Y-73863233D01*
X163701792Y-73863231D01*
X163643667Y-73671620D01*
X163643664Y-73671614D01*
X163549280Y-73495033D01*
X163422256Y-73340253D01*
X163422252Y-73340248D01*
X163422246Y-73340243D01*
X163267466Y-73213219D01*
X163090885Y-73118835D01*
X163090883Y-73118834D01*
X162899266Y-73060707D01*
X162899263Y-73060706D01*
X162700003Y-73041082D01*
X162699997Y-73041082D01*
X162500736Y-73060706D01*
X162500733Y-73060707D01*
X162309116Y-73118834D01*
X162309114Y-73118835D01*
X162132533Y-73213219D01*
X161977753Y-73340243D01*
X161977743Y-73340253D01*
X161850719Y-73495033D01*
X161756335Y-73671614D01*
X161756334Y-73671616D01*
X161698207Y-73863233D01*
X161698206Y-73863236D01*
X161678582Y-74062496D01*
X161678582Y-74062503D01*
X160354500Y-74062503D01*
X160354500Y-71522503D01*
X161678582Y-71522503D01*
X161698206Y-71721763D01*
X161698207Y-71721766D01*
X161756334Y-71913383D01*
X161756335Y-71913385D01*
X161850719Y-72089966D01*
X161977743Y-72244746D01*
X161977748Y-72244752D01*
X161977753Y-72244756D01*
X162132533Y-72371780D01*
X162309114Y-72466164D01*
X162309120Y-72466167D01*
X162500731Y-72524292D01*
X162500733Y-72524292D01*
X162500736Y-72524293D01*
X162699997Y-72543918D01*
X162700000Y-72543918D01*
X162700003Y-72543918D01*
X162899263Y-72524293D01*
X162899264Y-72524292D01*
X162899269Y-72524292D01*
X163090880Y-72466167D01*
X163170756Y-72423471D01*
X163267466Y-72371780D01*
X163267467Y-72371778D01*
X163267469Y-72371778D01*
X163422252Y-72244752D01*
X163549278Y-72089969D01*
X163551691Y-72085456D01*
X163643664Y-71913385D01*
X163643665Y-71913383D01*
X163643667Y-71913380D01*
X163701792Y-71721769D01*
X163721418Y-71522503D01*
X164218582Y-71522503D01*
X164238206Y-71721763D01*
X164238207Y-71721766D01*
X164296334Y-71913383D01*
X164296335Y-71913385D01*
X164390719Y-72089966D01*
X164517743Y-72244746D01*
X164517748Y-72244752D01*
X164517753Y-72244756D01*
X164672533Y-72371780D01*
X164849114Y-72466164D01*
X164849120Y-72466167D01*
X165040731Y-72524292D01*
X165040733Y-72524292D01*
X165040736Y-72524293D01*
X165239997Y-72543918D01*
X165240000Y-72543918D01*
X165240003Y-72543918D01*
X165439263Y-72524293D01*
X165439264Y-72524292D01*
X165439269Y-72524292D01*
X165630880Y-72466167D01*
X165710756Y-72423471D01*
X165807466Y-72371780D01*
X165807467Y-72371778D01*
X165807469Y-72371778D01*
X165962252Y-72244752D01*
X166089278Y-72089969D01*
X166091691Y-72085456D01*
X166133716Y-72006832D01*
X166177821Y-71964425D01*
X166221026Y-71954500D01*
X166412153Y-71954500D01*
X166470344Y-71973407D01*
X166482157Y-71983496D01*
X179116504Y-84617843D01*
X179144281Y-84672360D01*
X179145500Y-84687847D01*
X179145500Y-96452965D01*
X179143393Y-96473279D01*
X179140905Y-96485145D01*
X179145120Y-96518960D01*
X179145500Y-96525088D01*
X179145500Y-96529379D01*
X179148957Y-96550100D01*
X179149252Y-96552122D01*
X179155538Y-96602550D01*
X179157655Y-96609661D01*
X179160071Y-96616699D01*
X179184248Y-96661373D01*
X179185172Y-96663168D01*
X179207501Y-96708840D01*
X179207502Y-96708842D01*
X179211818Y-96714887D01*
X179216379Y-96720746D01*
X179216381Y-96720749D01*
X179253751Y-96755150D01*
X179255227Y-96756567D01*
X181116504Y-98617843D01*
X181144281Y-98672360D01*
X181145500Y-98687847D01*
X181145500Y-100461240D01*
X181126593Y-100519431D01*
X181106769Y-100539781D01*
X181068869Y-100568863D01*
X181068864Y-100568868D01*
X180971970Y-100695141D01*
X180971968Y-100695145D01*
X180911060Y-100842193D01*
X180911059Y-100842194D01*
X180890284Y-100999999D01*
X180890284Y-101000000D01*
X180911059Y-101157805D01*
X180911060Y-101157806D01*
X180971970Y-101304858D01*
X181068866Y-101431134D01*
X181195142Y-101528030D01*
X181342194Y-101588940D01*
X181499999Y-101609716D01*
X181499999Y-101609715D01*
X181500000Y-101609716D01*
X181657806Y-101588940D01*
X181804858Y-101528030D01*
X181931134Y-101431134D01*
X182028030Y-101304858D01*
X182088940Y-101157806D01*
X182109716Y-101000000D01*
X184890768Y-101000000D01*
X184909655Y-101203821D01*
X184965672Y-101400701D01*
X185056912Y-101583935D01*
X185180268Y-101747285D01*
X185331538Y-101885186D01*
X185505573Y-101992944D01*
X185696444Y-102066888D01*
X185897653Y-102104500D01*
X186102347Y-102104500D01*
X186303556Y-102066888D01*
X186494427Y-101992944D01*
X186668462Y-101885186D01*
X186819732Y-101747285D01*
X186943088Y-101583935D01*
X187034328Y-101400701D01*
X187090345Y-101203821D01*
X187109232Y-101000000D01*
X187090345Y-100796179D01*
X187034328Y-100599299D01*
X186943088Y-100416065D01*
X186819732Y-100252715D01*
X186668462Y-100114814D01*
X186494427Y-100007056D01*
X186359469Y-99954773D01*
X197165828Y-99954773D01*
X197174607Y-100116699D01*
X197175608Y-100135149D01*
X197175609Y-100135157D01*
X197223935Y-100309208D01*
X197223938Y-100309217D01*
X197308547Y-100468808D01*
X197308550Y-100468812D01*
X197308551Y-100468814D01*
X197425498Y-100606494D01*
X197425499Y-100606495D01*
X197425501Y-100606497D01*
X197502532Y-100665054D01*
X197569308Y-100715816D01*
X197733256Y-100791667D01*
X197909678Y-100830500D01*
X198045028Y-100830500D01*
X198179586Y-100815866D01*
X198350774Y-100758186D01*
X198505561Y-100665054D01*
X198636708Y-100540825D01*
X198738083Y-100391307D01*
X198804947Y-100223492D01*
X198834172Y-100045227D01*
X198824392Y-99864848D01*
X198776064Y-99690788D01*
X198755241Y-99651511D01*
X198691452Y-99531191D01*
X198691450Y-99531189D01*
X198691449Y-99531186D01*
X198574502Y-99393506D01*
X198574500Y-99393504D01*
X198574498Y-99393502D01*
X198430693Y-99284185D01*
X198430692Y-99284184D01*
X198339116Y-99241816D01*
X198266747Y-99208334D01*
X198266745Y-99208333D01*
X198231459Y-99200566D01*
X198090322Y-99169500D01*
X198090318Y-99169500D01*
X197954972Y-99169500D01*
X197820411Y-99184134D01*
X197649228Y-99241813D01*
X197649222Y-99241816D01*
X197494442Y-99334943D01*
X197363291Y-99459175D01*
X197261918Y-99608689D01*
X197229207Y-99690788D01*
X197195053Y-99776508D01*
X197165828Y-99954773D01*
X186359469Y-99954773D01*
X186303556Y-99933112D01*
X186303555Y-99933111D01*
X186303553Y-99933111D01*
X186102347Y-99895500D01*
X185897653Y-99895500D01*
X185696446Y-99933111D01*
X185505572Y-100007056D01*
X185505567Y-100007059D01*
X185331542Y-100114811D01*
X185331540Y-100114812D01*
X185331538Y-100114814D01*
X185180268Y-100252715D01*
X185140895Y-100304854D01*
X185056913Y-100416063D01*
X185056908Y-100416072D01*
X184965672Y-100599298D01*
X184909655Y-100796177D01*
X184909654Y-100796179D01*
X184909655Y-100796179D01*
X184890768Y-101000000D01*
X182109716Y-101000000D01*
X182088940Y-100842194D01*
X182028030Y-100695142D01*
X181931134Y-100568866D01*
X181923071Y-100562679D01*
X181893231Y-100539781D01*
X181858576Y-100489356D01*
X181854500Y-100461240D01*
X181854500Y-99335063D01*
X184895500Y-99335063D01*
X184895501Y-99335070D01*
X184910265Y-99409300D01*
X184910266Y-99409302D01*
X184966513Y-99493480D01*
X184966516Y-99493484D01*
X185050699Y-99549734D01*
X185124933Y-99564500D01*
X186875066Y-99564499D01*
X186949301Y-99549734D01*
X187033484Y-99493484D01*
X187089734Y-99409301D01*
X187104500Y-99335067D01*
X187104499Y-97584934D01*
X187089734Y-97510699D01*
X187089733Y-97510697D01*
X187033486Y-97426519D01*
X187033485Y-97426518D01*
X187033484Y-97426516D01*
X186949301Y-97370266D01*
X186875067Y-97355500D01*
X186875066Y-97355500D01*
X185124936Y-97355500D01*
X185124929Y-97355501D01*
X185050699Y-97370265D01*
X185050697Y-97370266D01*
X184966519Y-97426513D01*
X184966514Y-97426518D01*
X184929015Y-97482637D01*
X184910266Y-97510699D01*
X184895501Y-97584929D01*
X184895500Y-97584933D01*
X184895500Y-99335063D01*
X181854500Y-99335063D01*
X181854500Y-98547034D01*
X181856607Y-98526718D01*
X181859095Y-98514853D01*
X181854879Y-98481034D01*
X181854500Y-98474911D01*
X181854500Y-98470621D01*
X181851039Y-98449880D01*
X181850744Y-98447855D01*
X181848833Y-98432530D01*
X181844461Y-98397449D01*
X181844459Y-98397445D01*
X181842347Y-98390349D01*
X181839928Y-98383300D01*
X181837786Y-98379342D01*
X181815733Y-98338593D01*
X181814814Y-98336805D01*
X181805867Y-98318505D01*
X181792499Y-98291160D01*
X181792498Y-98291159D01*
X181788185Y-98285119D01*
X181783621Y-98279254D01*
X181783619Y-98279251D01*
X181746243Y-98244844D01*
X181744771Y-98243431D01*
X179883496Y-96382156D01*
X179855719Y-96327639D01*
X179854500Y-96312152D01*
X179854500Y-84547034D01*
X179856607Y-84526718D01*
X179859095Y-84514853D01*
X179854879Y-84481034D01*
X179854500Y-84474911D01*
X179854500Y-84470621D01*
X179851039Y-84449880D01*
X179850744Y-84447855D01*
X179847492Y-84421766D01*
X179844461Y-84397449D01*
X179844459Y-84397445D01*
X179842347Y-84390349D01*
X179839928Y-84383300D01*
X179837786Y-84379342D01*
X179815733Y-84338593D01*
X179814814Y-84336805D01*
X179805867Y-84318505D01*
X179792499Y-84291160D01*
X179792498Y-84291159D01*
X179788185Y-84285119D01*
X179783621Y-84279254D01*
X179783619Y-84279251D01*
X179746243Y-84244844D01*
X179744771Y-84243431D01*
X170501339Y-75000000D01*
X172040493Y-75000000D01*
X172060504Y-75343580D01*
X172120266Y-75682506D01*
X172120266Y-75682507D01*
X172218971Y-76012205D01*
X172218973Y-76012212D01*
X172355285Y-76328217D01*
X172355288Y-76328224D01*
X172527367Y-76626274D01*
X172527369Y-76626277D01*
X172732888Y-76902337D01*
X172969069Y-77152673D01*
X173232701Y-77373886D01*
X173232705Y-77373889D01*
X173351129Y-77451778D01*
X173494640Y-77546167D01*
X173520246Y-77563008D01*
X173827799Y-77717467D01*
X174151204Y-77835177D01*
X174151207Y-77835177D01*
X174151208Y-77835178D01*
X174486076Y-77914543D01*
X174486081Y-77914543D01*
X174486087Y-77914545D01*
X174827920Y-77954500D01*
X175172077Y-77954500D01*
X175172080Y-77954500D01*
X175513913Y-77914545D01*
X175513919Y-77914543D01*
X175513923Y-77914543D01*
X175737168Y-77861632D01*
X175848796Y-77835177D01*
X176172201Y-77717467D01*
X176479754Y-77563008D01*
X176767295Y-77373889D01*
X177030937Y-77152667D01*
X177267114Y-76902334D01*
X177472632Y-76626276D01*
X177644712Y-76328224D01*
X177781027Y-76012211D01*
X177879733Y-75682509D01*
X177939496Y-75343578D01*
X177959507Y-75000000D01*
X177939496Y-74656422D01*
X177879733Y-74317491D01*
X177781027Y-73987789D01*
X177644712Y-73671776D01*
X177472632Y-73373724D01*
X177267114Y-73097666D01*
X177267113Y-73097665D01*
X177267111Y-73097662D01*
X177030930Y-72847326D01*
X176767298Y-72626113D01*
X176479755Y-72436992D01*
X176172203Y-72282534D01*
X176172198Y-72282532D01*
X175848791Y-72164821D01*
X175513923Y-72085456D01*
X175402817Y-72072469D01*
X175172080Y-72045500D01*
X175172077Y-72045500D01*
X174827923Y-72045500D01*
X174827920Y-72045500D01*
X174639561Y-72067516D01*
X174486076Y-72085456D01*
X174151208Y-72164821D01*
X173827801Y-72282532D01*
X173827796Y-72282534D01*
X173520244Y-72436992D01*
X173232701Y-72626113D01*
X172969069Y-72847326D01*
X172732888Y-73097662D01*
X172527369Y-73373722D01*
X172527367Y-73373725D01*
X172355288Y-73671775D01*
X172355285Y-73671782D01*
X172218973Y-73987787D01*
X172218971Y-73987794D01*
X172120266Y-74317492D01*
X172120266Y-74317493D01*
X172060504Y-74656419D01*
X172040493Y-75000000D01*
X170501339Y-75000000D01*
X166883926Y-71382587D01*
X166871051Y-71366732D01*
X166864420Y-71356583D01*
X166837534Y-71335657D01*
X166832939Y-71331600D01*
X166829897Y-71328558D01*
X166812774Y-71316332D01*
X166811142Y-71315115D01*
X166771054Y-71283913D01*
X166764535Y-71280386D01*
X166757850Y-71277117D01*
X166757848Y-71277116D01*
X166709141Y-71262614D01*
X166707195Y-71261991D01*
X166659157Y-71245500D01*
X166651828Y-71244277D01*
X166644457Y-71243358D01*
X166644456Y-71243358D01*
X166644454Y-71243358D01*
X166639022Y-71243582D01*
X166593673Y-71245458D01*
X166591661Y-71245500D01*
X166291635Y-71245500D01*
X166233444Y-71226593D01*
X166197480Y-71177093D01*
X166196898Y-71175238D01*
X166183667Y-71131620D01*
X166183664Y-71131614D01*
X166089280Y-70955033D01*
X165962256Y-70800253D01*
X165962252Y-70800248D01*
X165962246Y-70800243D01*
X165807466Y-70673219D01*
X165630885Y-70578835D01*
X165630883Y-70578834D01*
X165439266Y-70520707D01*
X165439263Y-70520706D01*
X165240003Y-70501082D01*
X165239997Y-70501082D01*
X165040736Y-70520706D01*
X165040733Y-70520707D01*
X164849116Y-70578834D01*
X164849114Y-70578835D01*
X164672533Y-70673219D01*
X164517753Y-70800243D01*
X164517743Y-70800253D01*
X164390719Y-70955033D01*
X164296335Y-71131614D01*
X164296334Y-71131616D01*
X164238207Y-71323233D01*
X164238206Y-71323236D01*
X164218582Y-71522496D01*
X164218582Y-71522503D01*
X163721418Y-71522503D01*
X163721418Y-71522500D01*
X163707638Y-71382587D01*
X163701793Y-71323236D01*
X163701792Y-71323233D01*
X163701792Y-71323231D01*
X163643667Y-71131620D01*
X163643664Y-71131614D01*
X163549280Y-70955033D01*
X163422256Y-70800253D01*
X163422252Y-70800248D01*
X163422246Y-70800243D01*
X163267466Y-70673219D01*
X163090885Y-70578835D01*
X163090883Y-70578834D01*
X162899266Y-70520707D01*
X162899263Y-70520706D01*
X162700003Y-70501082D01*
X162699997Y-70501082D01*
X162500736Y-70520706D01*
X162500733Y-70520707D01*
X162309116Y-70578834D01*
X162309114Y-70578835D01*
X162132533Y-70673219D01*
X161977753Y-70800243D01*
X161977743Y-70800253D01*
X161850719Y-70955033D01*
X161756335Y-71131614D01*
X161756334Y-71131616D01*
X161698207Y-71323233D01*
X161698206Y-71323236D01*
X161678582Y-71522496D01*
X161678582Y-71522503D01*
X160354500Y-71522503D01*
X160354500Y-68982503D01*
X161678582Y-68982503D01*
X161698206Y-69181763D01*
X161698207Y-69181766D01*
X161756334Y-69373383D01*
X161756335Y-69373385D01*
X161850719Y-69549966D01*
X161968152Y-69693059D01*
X161977748Y-69704752D01*
X161977753Y-69704756D01*
X162132533Y-69831780D01*
X162309114Y-69926164D01*
X162309120Y-69926167D01*
X162500731Y-69984292D01*
X162500733Y-69984292D01*
X162500736Y-69984293D01*
X162699997Y-70003918D01*
X162700000Y-70003918D01*
X162700003Y-70003918D01*
X162899263Y-69984293D01*
X162899264Y-69984292D01*
X162899269Y-69984292D01*
X163090880Y-69926167D01*
X163170756Y-69883471D01*
X163267466Y-69831780D01*
X163267467Y-69831778D01*
X163267469Y-69831778D01*
X163422252Y-69704752D01*
X163549278Y-69549969D01*
X163643667Y-69373380D01*
X163701792Y-69181769D01*
X163721418Y-68982503D01*
X164218582Y-68982503D01*
X164238206Y-69181763D01*
X164238207Y-69181766D01*
X164296334Y-69373383D01*
X164296335Y-69373385D01*
X164390719Y-69549966D01*
X164508152Y-69693059D01*
X164517748Y-69704752D01*
X164517753Y-69704756D01*
X164672533Y-69831780D01*
X164849114Y-69926164D01*
X164849120Y-69926167D01*
X165040731Y-69984292D01*
X165040733Y-69984292D01*
X165040736Y-69984293D01*
X165239997Y-70003918D01*
X165240000Y-70003918D01*
X165240003Y-70003918D01*
X165439263Y-69984293D01*
X165439264Y-69984292D01*
X165439269Y-69984292D01*
X165630880Y-69926167D01*
X165710756Y-69883471D01*
X165807466Y-69831780D01*
X165807467Y-69831778D01*
X165807469Y-69831778D01*
X165962252Y-69704752D01*
X166089278Y-69549969D01*
X166183667Y-69373380D01*
X166241792Y-69181769D01*
X166261418Y-68982500D01*
X166261418Y-68982496D01*
X166241793Y-68783236D01*
X166241792Y-68783233D01*
X166241792Y-68783231D01*
X166183667Y-68591620D01*
X166183664Y-68591614D01*
X166089280Y-68415033D01*
X165962256Y-68260253D01*
X165962252Y-68260248D01*
X165962246Y-68260243D01*
X165807466Y-68133219D01*
X165630885Y-68038835D01*
X165630883Y-68038834D01*
X165439266Y-67980707D01*
X165439263Y-67980706D01*
X165240003Y-67961082D01*
X165239997Y-67961082D01*
X165040736Y-67980706D01*
X165040733Y-67980707D01*
X164849116Y-68038834D01*
X164849114Y-68038835D01*
X164672533Y-68133219D01*
X164517753Y-68260243D01*
X164517743Y-68260253D01*
X164390719Y-68415033D01*
X164296335Y-68591614D01*
X164296334Y-68591616D01*
X164238207Y-68783233D01*
X164238206Y-68783236D01*
X164218582Y-68982496D01*
X164218582Y-68982503D01*
X163721418Y-68982503D01*
X163721418Y-68982500D01*
X163721418Y-68982496D01*
X163701793Y-68783236D01*
X163701792Y-68783233D01*
X163701792Y-68783231D01*
X163643667Y-68591620D01*
X163643664Y-68591614D01*
X163549280Y-68415033D01*
X163422256Y-68260253D01*
X163422252Y-68260248D01*
X163422246Y-68260243D01*
X163267466Y-68133219D01*
X163090885Y-68038835D01*
X163090883Y-68038834D01*
X162899266Y-67980707D01*
X162899263Y-67980706D01*
X162700003Y-67961082D01*
X162699997Y-67961082D01*
X162500736Y-67980706D01*
X162500733Y-67980707D01*
X162309116Y-68038834D01*
X162309114Y-68038835D01*
X162132533Y-68133219D01*
X161977753Y-68260243D01*
X161977743Y-68260253D01*
X161850719Y-68415033D01*
X161756335Y-68591614D01*
X161756334Y-68591616D01*
X161698207Y-68783233D01*
X161698206Y-68783236D01*
X161678582Y-68982496D01*
X161678582Y-68982503D01*
X160354500Y-68982503D01*
X160354500Y-66442503D01*
X161678582Y-66442503D01*
X161698206Y-66641763D01*
X161698207Y-66641766D01*
X161756334Y-66833383D01*
X161756335Y-66833385D01*
X161850719Y-67009966D01*
X161977743Y-67164746D01*
X161977748Y-67164752D01*
X161977753Y-67164756D01*
X162132533Y-67291780D01*
X162309114Y-67386164D01*
X162309120Y-67386167D01*
X162500731Y-67444292D01*
X162500733Y-67444292D01*
X162500736Y-67444293D01*
X162699997Y-67463918D01*
X162700000Y-67463918D01*
X162700003Y-67463918D01*
X162899263Y-67444293D01*
X162899264Y-67444292D01*
X162899269Y-67444292D01*
X163090880Y-67386167D01*
X163170756Y-67343471D01*
X163267466Y-67291780D01*
X163267467Y-67291778D01*
X163267469Y-67291778D01*
X163422252Y-67164752D01*
X163549278Y-67009969D01*
X163643667Y-66833380D01*
X163701792Y-66641769D01*
X163721073Y-66446009D01*
X163721418Y-66442503D01*
X164218582Y-66442503D01*
X164238206Y-66641763D01*
X164238207Y-66641766D01*
X164296334Y-66833383D01*
X164296335Y-66833385D01*
X164390719Y-67009966D01*
X164517743Y-67164746D01*
X164517748Y-67164752D01*
X164517753Y-67164756D01*
X164672533Y-67291780D01*
X164849114Y-67386164D01*
X164849120Y-67386167D01*
X165040731Y-67444292D01*
X165040733Y-67444292D01*
X165040736Y-67444293D01*
X165239997Y-67463918D01*
X165240000Y-67463918D01*
X165240003Y-67463918D01*
X165439263Y-67444293D01*
X165439264Y-67444292D01*
X165439269Y-67444292D01*
X165630880Y-67386167D01*
X165710756Y-67343471D01*
X165807466Y-67291780D01*
X165807467Y-67291778D01*
X165807469Y-67291778D01*
X165962252Y-67164752D01*
X166089278Y-67009969D01*
X166183667Y-66833380D01*
X166241792Y-66641769D01*
X166261073Y-66446009D01*
X166261418Y-66442503D01*
X166261418Y-66442496D01*
X166241793Y-66243236D01*
X166241792Y-66243233D01*
X166241792Y-66243231D01*
X166183667Y-66051620D01*
X166183664Y-66051614D01*
X166089280Y-65875033D01*
X165962256Y-65720253D01*
X165962252Y-65720248D01*
X165962246Y-65720243D01*
X165807466Y-65593219D01*
X165630885Y-65498835D01*
X165630883Y-65498834D01*
X165439266Y-65440707D01*
X165439263Y-65440706D01*
X165240003Y-65421082D01*
X165239997Y-65421082D01*
X165040736Y-65440706D01*
X165040733Y-65440707D01*
X164849116Y-65498834D01*
X164849114Y-65498835D01*
X164672533Y-65593219D01*
X164517753Y-65720243D01*
X164517743Y-65720253D01*
X164390719Y-65875033D01*
X164296335Y-66051614D01*
X164296334Y-66051616D01*
X164238207Y-66243233D01*
X164238206Y-66243236D01*
X164218582Y-66442496D01*
X164218582Y-66442503D01*
X163721418Y-66442503D01*
X163721418Y-66442496D01*
X163701793Y-66243236D01*
X163701792Y-66243233D01*
X163701792Y-66243231D01*
X163643667Y-66051620D01*
X163643664Y-66051614D01*
X163549280Y-65875033D01*
X163422256Y-65720253D01*
X163422252Y-65720248D01*
X163422246Y-65720243D01*
X163267466Y-65593219D01*
X163090885Y-65498835D01*
X163090883Y-65498834D01*
X162899266Y-65440707D01*
X162899263Y-65440706D01*
X162700003Y-65421082D01*
X162699997Y-65421082D01*
X162500736Y-65440706D01*
X162500733Y-65440707D01*
X162309116Y-65498834D01*
X162309114Y-65498835D01*
X162132533Y-65593219D01*
X161977753Y-65720243D01*
X161977743Y-65720253D01*
X161850719Y-65875033D01*
X161756335Y-66051614D01*
X161756334Y-66051616D01*
X161698207Y-66243233D01*
X161698206Y-66243236D01*
X161678582Y-66442496D01*
X161678582Y-66442503D01*
X160354500Y-66442503D01*
X160354500Y-63902503D01*
X161678582Y-63902503D01*
X161698206Y-64101763D01*
X161698207Y-64101766D01*
X161756334Y-64293383D01*
X161756335Y-64293385D01*
X161850719Y-64469966D01*
X161955290Y-64597387D01*
X161977748Y-64624752D01*
X161977753Y-64624756D01*
X162132533Y-64751780D01*
X162309114Y-64846164D01*
X162309120Y-64846167D01*
X162500731Y-64904292D01*
X162500733Y-64904292D01*
X162500736Y-64904293D01*
X162699997Y-64923918D01*
X162700000Y-64923918D01*
X162700003Y-64923918D01*
X162899263Y-64904293D01*
X162899264Y-64904292D01*
X162899269Y-64904292D01*
X163090880Y-64846167D01*
X163244976Y-64763801D01*
X163267466Y-64751780D01*
X163267467Y-64751778D01*
X163267469Y-64751778D01*
X163422252Y-64624752D01*
X163549278Y-64469969D01*
X163643667Y-64293380D01*
X163701792Y-64101769D01*
X163721418Y-63902503D01*
X164218582Y-63902503D01*
X164238206Y-64101763D01*
X164238207Y-64101766D01*
X164296334Y-64293383D01*
X164296335Y-64293385D01*
X164390719Y-64469966D01*
X164495290Y-64597387D01*
X164517748Y-64624752D01*
X164517753Y-64624756D01*
X164672533Y-64751780D01*
X164849114Y-64846164D01*
X164849120Y-64846167D01*
X165040731Y-64904292D01*
X165040733Y-64904292D01*
X165040736Y-64904293D01*
X165239997Y-64923918D01*
X165240000Y-64923918D01*
X165240003Y-64923918D01*
X165439263Y-64904293D01*
X165439264Y-64904292D01*
X165439269Y-64904292D01*
X165630880Y-64846167D01*
X165784976Y-64763801D01*
X165807466Y-64751780D01*
X165807467Y-64751778D01*
X165807469Y-64751778D01*
X165962252Y-64624752D01*
X166089278Y-64469969D01*
X166183667Y-64293380D01*
X166241792Y-64101769D01*
X166261418Y-63902500D01*
X166261418Y-63902496D01*
X166241793Y-63703236D01*
X166241792Y-63703233D01*
X166241792Y-63703231D01*
X166183667Y-63511620D01*
X166172622Y-63490956D01*
X166089280Y-63335033D01*
X165962256Y-63180253D01*
X165962252Y-63180248D01*
X165883278Y-63115436D01*
X165807466Y-63053219D01*
X165630885Y-62958835D01*
X165630883Y-62958834D01*
X165624883Y-62957014D01*
X165535074Y-62929770D01*
X165439266Y-62900707D01*
X165439263Y-62900706D01*
X165240003Y-62881082D01*
X165239997Y-62881082D01*
X165040736Y-62900706D01*
X165040733Y-62900707D01*
X164849116Y-62958834D01*
X164849114Y-62958835D01*
X164672533Y-63053219D01*
X164517753Y-63180243D01*
X164517743Y-63180253D01*
X164390719Y-63335033D01*
X164296335Y-63511614D01*
X164296334Y-63511616D01*
X164238207Y-63703233D01*
X164238206Y-63703236D01*
X164218582Y-63902496D01*
X164218582Y-63902503D01*
X163721418Y-63902503D01*
X163721418Y-63902500D01*
X163721418Y-63902496D01*
X163701793Y-63703236D01*
X163701792Y-63703233D01*
X163701792Y-63703231D01*
X163643667Y-63511620D01*
X163632622Y-63490956D01*
X163549280Y-63335033D01*
X163422256Y-63180253D01*
X163422252Y-63180248D01*
X163343278Y-63115436D01*
X163267466Y-63053219D01*
X163090885Y-62958835D01*
X163090883Y-62958834D01*
X163084883Y-62957014D01*
X162995074Y-62929770D01*
X162899266Y-62900707D01*
X162899263Y-62900706D01*
X162700003Y-62881082D01*
X162699997Y-62881082D01*
X162500736Y-62900706D01*
X162500733Y-62900707D01*
X162309116Y-62958834D01*
X162309114Y-62958835D01*
X162132533Y-63053219D01*
X161977753Y-63180243D01*
X161977743Y-63180253D01*
X161850719Y-63335033D01*
X161756335Y-63511614D01*
X161756334Y-63511616D01*
X161698207Y-63703233D01*
X161698206Y-63703236D01*
X161678582Y-63902496D01*
X161678582Y-63902503D01*
X160354500Y-63902503D01*
X160354500Y-60538758D01*
X160373407Y-60480567D01*
X160393228Y-60460220D01*
X160431134Y-60431134D01*
X160528030Y-60304858D01*
X160588940Y-60157806D01*
X160609716Y-60000000D01*
X160588940Y-59842194D01*
X160528030Y-59695142D01*
X160431134Y-59568866D01*
X160304858Y-59471970D01*
X160304854Y-59471968D01*
X160157806Y-59411060D01*
X160157805Y-59411059D01*
X160000000Y-59390284D01*
X159842194Y-59411059D01*
X159842193Y-59411060D01*
X159695145Y-59471968D01*
X159695141Y-59471970D01*
X159568868Y-59568864D01*
X159568864Y-59568868D01*
X159471970Y-59695141D01*
X159471968Y-59695145D01*
X159411060Y-59842193D01*
X159411059Y-59842194D01*
X159390284Y-59999999D01*
X159390284Y-60000000D01*
X133501339Y-60000000D01*
X139778727Y-53722612D01*
X139833244Y-53694835D01*
X139848731Y-53693616D01*
X141675819Y-53693616D01*
X141734010Y-53712523D01*
X141757295Y-53736378D01*
X141807915Y-53809715D01*
X141807916Y-53809716D01*
X141807917Y-53809717D01*
X141935975Y-53923166D01*
X142087462Y-54002673D01*
X142253574Y-54043616D01*
X142424655Y-54043616D01*
X142424658Y-54043616D01*
X142590770Y-54002673D01*
X142742257Y-53923166D01*
X142870315Y-53809717D01*
X142967501Y-53668918D01*
X143028168Y-53508952D01*
X143048790Y-53339116D01*
X143028168Y-53169280D01*
X142967501Y-53009314D01*
X142870315Y-52868515D01*
X142742257Y-52755066D01*
X142590770Y-52675559D01*
X142590769Y-52675558D01*
X142590768Y-52675558D01*
X142424660Y-52634616D01*
X142424658Y-52634616D01*
X142253574Y-52634616D01*
X142253571Y-52634616D01*
X142087463Y-52675558D01*
X141935973Y-52755067D01*
X141807915Y-52868516D01*
X141757295Y-52941854D01*
X141708678Y-52979004D01*
X141675819Y-52984616D01*
X139707918Y-52984616D01*
X139687603Y-52982509D01*
X139675736Y-52980021D01*
X139641922Y-52984236D01*
X139635796Y-52984616D01*
X139631506Y-52984616D01*
X139610770Y-52988075D01*
X139608750Y-52988369D01*
X139558334Y-52994655D01*
X139551188Y-52996782D01*
X139544187Y-52999186D01*
X139499499Y-53023369D01*
X139497681Y-53024305D01*
X139452046Y-53046615D01*
X139445994Y-53050935D01*
X139440134Y-53055496D01*
X139405733Y-53092866D01*
X139404317Y-53094342D01*
X114797585Y-77701074D01*
X114781736Y-77713945D01*
X114771586Y-77720577D01*
X114771581Y-77720581D01*
X114750652Y-77747469D01*
X114746594Y-77752066D01*
X114743563Y-77755096D01*
X114743554Y-77755107D01*
X114731332Y-77772223D01*
X114730113Y-77773857D01*
X114698915Y-77813942D01*
X114695388Y-77820460D01*
X114692113Y-77827158D01*
X114677617Y-77875848D01*
X114676994Y-77877794D01*
X114660499Y-77925843D01*
X114659277Y-77933171D01*
X114658358Y-77940543D01*
X114658358Y-77940544D01*
X114660458Y-77991325D01*
X114660500Y-77993338D01*
X114660500Y-88885030D01*
X114641593Y-88943221D01*
X114597265Y-88977344D01*
X114520575Y-89007055D01*
X114520567Y-89007059D01*
X114346542Y-89114811D01*
X114346540Y-89114812D01*
X114346538Y-89114814D01*
X114335435Y-89124936D01*
X114195269Y-89252714D01*
X114071913Y-89416063D01*
X114071908Y-89416072D01*
X113980672Y-89599298D01*
X113924655Y-89796177D01*
X113905768Y-90000000D01*
X113579499Y-90000000D01*
X113579499Y-89124934D01*
X113564734Y-89050699D01*
X113564733Y-89050697D01*
X113508486Y-88966519D01*
X113508485Y-88966518D01*
X113508484Y-88966516D01*
X113424301Y-88910266D01*
X113350067Y-88895500D01*
X113350066Y-88895500D01*
X111599936Y-88895500D01*
X111599929Y-88895501D01*
X111525699Y-88910265D01*
X111525697Y-88910266D01*
X111441519Y-88966513D01*
X111441514Y-88966518D01*
X111414428Y-89007055D01*
X111385266Y-89050699D01*
X111374816Y-89103236D01*
X111370500Y-89124933D01*
X111370500Y-90875063D01*
X100855462Y-90875063D01*
X100988244Y-90161452D01*
X100988486Y-90160240D01*
X101286288Y-88778440D01*
X101286581Y-88777165D01*
X101623350Y-87404408D01*
X101623701Y-87403063D01*
X101692500Y-87153383D01*
X101999176Y-86040408D01*
X101999528Y-86039199D01*
X102281691Y-85117841D01*
X102413430Y-84687670D01*
X102413859Y-84686336D01*
X102438479Y-84613385D01*
X102865814Y-83347139D01*
X102866243Y-83345925D01*
X103355959Y-82019937D01*
X103356421Y-82018739D01*
X103883453Y-80707168D01*
X103883965Y-80705947D01*
X103894947Y-80680708D01*
X104447869Y-79409891D01*
X104448440Y-79408629D01*
X104479813Y-79341763D01*
X105048794Y-78129053D01*
X105049382Y-78127844D01*
X105685722Y-76865740D01*
X105686330Y-76864575D01*
X106358130Y-75620985D01*
X106358805Y-75619778D01*
X106668184Y-75083918D01*
X107065536Y-74395684D01*
X107066176Y-74394609D01*
X107807301Y-73190946D01*
X107807988Y-73189864D01*
X108582858Y-72007686D01*
X108583611Y-72006574D01*
X108593363Y-71992577D01*
X109391582Y-70846859D01*
X109392349Y-70845790D01*
X110232862Y-69709342D01*
X110233666Y-69708288D01*
X111105975Y-68596113D01*
X111106826Y-68595062D01*
X112010220Y-67508067D01*
X112011131Y-67507002D01*
X112312345Y-67164756D01*
X112944940Y-66445986D01*
X112945862Y-66444971D01*
X113909317Y-65410815D01*
X113910228Y-65409863D01*
X114902614Y-64403333D01*
X114903521Y-64402437D01*
X115832984Y-63511620D01*
X115923984Y-63424404D01*
X115925009Y-63423449D01*
X116265159Y-63115429D01*
X116972705Y-62474715D01*
X116973731Y-62473814D01*
X118047831Y-61555130D01*
X118048908Y-61554235D01*
X118122427Y-61494871D01*
X119148615Y-60666283D01*
X119149686Y-60665445D01*
X119352916Y-60510640D01*
X120274065Y-59808980D01*
X120275138Y-59808187D01*
X121423316Y-58983878D01*
X121424394Y-58983126D01*
X122595500Y-58191596D01*
X122596570Y-58190894D01*
X123789617Y-57432816D01*
X123790654Y-57432177D01*
X125004742Y-56708125D01*
X125005761Y-56707537D01*
X126239783Y-56018170D01*
X126240959Y-56017534D01*
X127493905Y-55363414D01*
X127495155Y-55362784D01*
X128766106Y-54744383D01*
X128767342Y-54743802D01*
X130055358Y-54161582D01*
X130056498Y-54161087D01*
X131360532Y-53615524D01*
X131361676Y-53615065D01*
X132680616Y-53106629D01*
X132681750Y-53106209D01*
X134014513Y-52635314D01*
X134015804Y-52634878D01*
X135361291Y-52201910D01*
X135362529Y-52201530D01*
X136719785Y-51806794D01*
X136721089Y-51806435D01*
X138088911Y-51450282D01*
X138090222Y-51449960D01*
X139467578Y-51132656D01*
X139468875Y-51132376D01*
X140854697Y-50854170D01*
X140855989Y-50853929D01*
X142249138Y-50615050D01*
X142250409Y-50614849D01*
X143649784Y-50415486D01*
X143651103Y-50415317D01*
X145055543Y-50255637D01*
X145056775Y-50255514D01*
X146465249Y-50135636D01*
X146466484Y-50135548D01*
X147877745Y-50055578D01*
X147878991Y-50055524D01*
X149291905Y-50015524D01*
X149293295Y-50015505D01*
X150706705Y-50015505D01*
X150708094Y-50015524D01*
G37*
G04 #@! TD.AperFunction*
M02*
