M48
; DRILL file {KiCad 7.0.4-40-g0180cb380f} date Fri Jun 23 20:45:53 2023
; FORMAT={-:-/ absolute / inch / decimal}
; #@! TF.CreationDate,2023-06-23T20:45:53-07:00
; #@! TF.GenerationSoftware,Kicad,Pcbnew,7.0.4-40-g0180cb380f
; #@! TF.FileFunction,Plated,1,2,PTH
FMAT,2
INCH
; #@! TA.AperFunction,Plated,PTH,ViaDrill
T1C0.0118
; #@! TA.AperFunction,Plated,PTH,ViaDrill
T2C0.0197
; #@! TA.AperFunction,Plated,PTH,ComponentDrill
T3C0.0197
; #@! TA.AperFunction,Plated,PTH,ComponentDrill
T4C0.0300
; #@! TA.AperFunction,Plated,PTH,ComponentDrill
T5C0.0394
; #@! TA.AperFunction,Plated,PTH,ComponentDrill
T6C0.1063
%
G90
G05
T1
X6.2992Y-2.3622
X7.0276Y-3.937
X7.0276Y-3.9764
X7.1457Y-3.9764
T2
X4.0481Y-3.6207
X4.1388Y-4.5918
X4.4551Y-2.7344
X4.6457Y-4.3307
X4.6457Y-4.4488
X4.7029Y-5.3874
X5.0394Y-4.4488
X5.1969Y-4.4488
X5.2507Y-2.1703
X5.5512Y-4.4094
X5.5892Y-5.7944
X5.6039Y-2.1
X5.6299Y-4.3307
X5.6988Y-4.685
X5.7087Y-2.0866
X5.7087Y-4.3307
X5.7776Y-4.685
X5.8858Y-4.685
X5.9843Y-4.3307
X6.0138Y-4.685
X6.1319Y-4.685
X6.1417Y-4.3307
X6.2205Y-4.3307
X6.2205Y-4.5276
X6.2218Y-2.0796
X6.5603Y-5.7037
X6.8898Y-4.0157
X7.0866Y-4.0157
X7.1081Y-2.4866
X7.3559Y-5.1396
X7.6722Y-3.2822
X7.7629Y-4.2533
T3
X4.8415Y-2.9528
X4.8415Y-4.9213
X4.8649Y-2.8964
X4.8649Y-3.0091
X4.8649Y-4.8649
X4.8649Y-4.9776
X4.9213Y-2.873
X4.9213Y-3.0325
X4.9213Y-4.8415
X4.9213Y-5.001
X4.9776Y-2.8964
X4.9776Y-3.0091
X4.9776Y-4.8649
X4.9776Y-4.9776
X5.001Y-2.9528
X5.001Y-4.9213
X6.81Y-2.9528
X6.81Y-4.9213
X6.8334Y-2.8964
X6.8334Y-3.0091
X6.8334Y-4.8649
X6.8334Y-4.9776
X6.8898Y-2.873
X6.8898Y-3.0325
X6.8898Y-4.8415
X6.8898Y-5.001
X6.9461Y-2.8964
X6.9461Y-3.0091
X6.9461Y-4.8649
X6.9461Y-4.9776
X6.9695Y-2.9528
X6.9695Y-4.9213
T4
X5.3055Y-2.5158
X5.3055Y-2.6158
X5.3055Y-2.7158
X5.3055Y-2.8158
X5.3055Y-2.9158
X5.3055Y-3.0158
X5.3055Y-3.1158
X5.3055Y-3.2158
X5.3055Y-3.3158
X5.3055Y-3.4158
X5.3055Y-3.5158
X5.3055Y-3.6158
X5.3055Y-3.7158
X5.3055Y-3.8158
X5.3055Y-3.9158
X5.3055Y-4.0158
X5.3055Y-4.1158
X5.3055Y-4.2158
X5.3055Y-4.3158
X5.3055Y-4.4158
X5.4055Y-2.5158
X5.4055Y-2.6158
X5.4055Y-2.7158
X5.4055Y-2.8158
X5.4055Y-2.9158
X5.4055Y-3.0158
X5.4055Y-3.1158
X5.4055Y-3.2158
X5.4055Y-3.3158
X5.4055Y-3.4158
X5.4055Y-3.5158
X5.4055Y-3.6158
X5.4055Y-3.7158
X5.4055Y-3.8158
X5.4055Y-3.9158
X5.4055Y-4.0158
X5.4055Y-4.1158
X5.4055Y-4.2158
X5.4055Y-4.3158
X5.4055Y-4.4158
X6.4055Y-2.5158
X6.4055Y-2.6158
X6.4055Y-2.7158
X6.4055Y-2.8158
X6.4055Y-2.9158
X6.4055Y-3.0158
X6.4055Y-3.1158
X6.4055Y-3.2158
X6.4055Y-3.3158
X6.4055Y-3.4158
X6.4055Y-3.5158
X6.4055Y-3.6158
X6.4055Y-3.7158
X6.4055Y-3.8158
X6.4055Y-3.9158
X6.4055Y-4.0158
X6.4055Y-4.1158
X6.4055Y-4.2158
X6.4055Y-4.3158
X6.4055Y-4.4158
X6.5055Y-2.5158
X6.5055Y-2.6158
X6.5055Y-2.7158
X6.5055Y-2.8158
X6.5055Y-2.9158
X6.5055Y-3.0158
X6.5055Y-3.1158
X6.5055Y-3.2158
X6.5055Y-3.3158
X6.5055Y-3.4158
X6.5055Y-3.5158
X6.5055Y-3.6158
X6.5055Y-3.7158
X6.5055Y-3.8158
X6.5055Y-3.9158
X6.5055Y-4.0158
X6.5055Y-4.1158
X6.5055Y-4.2158
X6.5055Y-4.3158
X6.5055Y-4.4158
T5
X4.4281Y-3.5433
X4.5281Y-3.5433
X4.6281Y-3.5433
X5.6087Y-5.4331
X5.7087Y-5.4331
X5.8087Y-5.4331
X6.003Y-5.4331
X6.103Y-5.4331
X6.203Y-5.4331
X7.3228Y-3.8764
X7.3228Y-3.9764
T6
X4.9213Y-2.9528
X4.9213Y-4.9213
X6.8898Y-2.9528
X6.8898Y-4.9213
T0
M30
