G04 #@! TF.GenerationSoftware,KiCad,Pcbnew,7.0.4-40-g0180cb380f*
G04 #@! TF.CreationDate,2023-06-23T20:45:51-07:00*
G04 #@! TF.ProjectId,RobotOwl,526f626f-744f-4776-9c2e-6b696361645f,rev?*
G04 #@! TF.SameCoordinates,Original*
G04 #@! TF.FileFunction,Legend,Top*
G04 #@! TF.FilePolarity,Positive*
%FSLAX46Y46*%
G04 Gerber Fmt 4.6, Leading zero omitted, Abs format (unit mm)*
G04 Created by KiCad (PCBNEW 7.0.4-40-g0180cb380f) date 2023-06-23 20:45:51*
%MOMM*%
%LPD*%
G01*
G04 APERTURE LIST*
%ADD10C,0.150000*%
%ADD11C,0.100000*%
%ADD12C,0.120000*%
G04 APERTURE END LIST*
D10*
X163619047Y-118798390D02*
X164380952Y-118798390D01*
X163771428Y-119084104D02*
X164228571Y-119084104D01*
X164000000Y-118369819D02*
X164000000Y-118798390D01*
X164076190Y-119369819D02*
X163923809Y-119369819D01*
X112347619Y-86869819D02*
X111966667Y-86869819D01*
X111966667Y-86869819D02*
X111928571Y-87346009D01*
X111928571Y-87346009D02*
X111966667Y-87298390D01*
X111966667Y-87298390D02*
X112042857Y-87250771D01*
X112042857Y-87250771D02*
X112233333Y-87250771D01*
X112233333Y-87250771D02*
X112309524Y-87298390D01*
X112309524Y-87298390D02*
X112347619Y-87346009D01*
X112347619Y-87346009D02*
X112385714Y-87441247D01*
X112385714Y-87441247D02*
X112385714Y-87679342D01*
X112385714Y-87679342D02*
X112347619Y-87774580D01*
X112347619Y-87774580D02*
X112309524Y-87822200D01*
X112309524Y-87822200D02*
X112233333Y-87869819D01*
X112233333Y-87869819D02*
X112042857Y-87869819D01*
X112042857Y-87869819D02*
X111966667Y-87822200D01*
X111966667Y-87822200D02*
X111928571Y-87774580D01*
X112614286Y-86869819D02*
X112880953Y-87869819D01*
X112880953Y-87869819D02*
X113147619Y-86869819D01*
X142828570Y-142322200D02*
X142942856Y-142369819D01*
X142942856Y-142369819D02*
X143133332Y-142369819D01*
X143133332Y-142369819D02*
X143209523Y-142322200D01*
X143209523Y-142322200D02*
X143247618Y-142274580D01*
X143247618Y-142274580D02*
X143285713Y-142179342D01*
X143285713Y-142179342D02*
X143285713Y-142084104D01*
X143285713Y-142084104D02*
X143247618Y-141988866D01*
X143247618Y-141988866D02*
X143209523Y-141941247D01*
X143209523Y-141941247D02*
X143133332Y-141893628D01*
X143133332Y-141893628D02*
X142980951Y-141846009D01*
X142980951Y-141846009D02*
X142904761Y-141798390D01*
X142904761Y-141798390D02*
X142866666Y-141750771D01*
X142866666Y-141750771D02*
X142828570Y-141655533D01*
X142828570Y-141655533D02*
X142828570Y-141560295D01*
X142828570Y-141560295D02*
X142866666Y-141465057D01*
X142866666Y-141465057D02*
X142904761Y-141417438D01*
X142904761Y-141417438D02*
X142980951Y-141369819D01*
X142980951Y-141369819D02*
X143171428Y-141369819D01*
X143171428Y-141369819D02*
X143285713Y-141417438D01*
X143933333Y-142322200D02*
X143857142Y-142369819D01*
X143857142Y-142369819D02*
X143704761Y-142369819D01*
X143704761Y-142369819D02*
X143628571Y-142322200D01*
X143628571Y-142322200D02*
X143590475Y-142226961D01*
X143590475Y-142226961D02*
X143590475Y-141846009D01*
X143590475Y-141846009D02*
X143628571Y-141750771D01*
X143628571Y-141750771D02*
X143704761Y-141703152D01*
X143704761Y-141703152D02*
X143857142Y-141703152D01*
X143857142Y-141703152D02*
X143933333Y-141750771D01*
X143933333Y-141750771D02*
X143971428Y-141846009D01*
X143971428Y-141846009D02*
X143971428Y-141941247D01*
X143971428Y-141941247D02*
X143590475Y-142036485D01*
X144314285Y-142369819D02*
X144314285Y-141703152D01*
X144314285Y-141893628D02*
X144352380Y-141798390D01*
X144352380Y-141798390D02*
X144390475Y-141750771D01*
X144390475Y-141750771D02*
X144466666Y-141703152D01*
X144466666Y-141703152D02*
X144542856Y-141703152D01*
X144733332Y-141703152D02*
X144923808Y-142369819D01*
X144923808Y-142369819D02*
X145114285Y-141703152D01*
X145533332Y-142369819D02*
X145457142Y-142322200D01*
X145457142Y-142322200D02*
X145419047Y-142274580D01*
X145419047Y-142274580D02*
X145380951Y-142179342D01*
X145380951Y-142179342D02*
X145380951Y-141893628D01*
X145380951Y-141893628D02*
X145419047Y-141798390D01*
X145419047Y-141798390D02*
X145457142Y-141750771D01*
X145457142Y-141750771D02*
X145533332Y-141703152D01*
X145533332Y-141703152D02*
X145647618Y-141703152D01*
X145647618Y-141703152D02*
X145723809Y-141750771D01*
X145723809Y-141750771D02*
X145761904Y-141798390D01*
X145761904Y-141798390D02*
X145799999Y-141893628D01*
X145799999Y-141893628D02*
X145799999Y-142179342D01*
X145799999Y-142179342D02*
X145761904Y-142274580D01*
X145761904Y-142274580D02*
X145723809Y-142322200D01*
X145723809Y-142322200D02*
X145647618Y-142369819D01*
X145647618Y-142369819D02*
X145533332Y-142369819D01*
X147171428Y-142369819D02*
X146714285Y-142369819D01*
X146942857Y-142369819D02*
X146942857Y-141369819D01*
X146942857Y-141369819D02*
X146866666Y-141512676D01*
X146866666Y-141512676D02*
X146790476Y-141607914D01*
X146790476Y-141607914D02*
X146714285Y-141655533D01*
X154847619Y-139869819D02*
X154466667Y-139869819D01*
X154466667Y-139869819D02*
X154428571Y-140346009D01*
X154428571Y-140346009D02*
X154466667Y-140298390D01*
X154466667Y-140298390D02*
X154542857Y-140250771D01*
X154542857Y-140250771D02*
X154733333Y-140250771D01*
X154733333Y-140250771D02*
X154809524Y-140298390D01*
X154809524Y-140298390D02*
X154847619Y-140346009D01*
X154847619Y-140346009D02*
X154885714Y-140441247D01*
X154885714Y-140441247D02*
X154885714Y-140679342D01*
X154885714Y-140679342D02*
X154847619Y-140774580D01*
X154847619Y-140774580D02*
X154809524Y-140822200D01*
X154809524Y-140822200D02*
X154733333Y-140869819D01*
X154733333Y-140869819D02*
X154542857Y-140869819D01*
X154542857Y-140869819D02*
X154466667Y-140822200D01*
X154466667Y-140822200D02*
X154428571Y-140774580D01*
X155114286Y-139869819D02*
X155380953Y-140869819D01*
X155380953Y-140869819D02*
X155647619Y-139869819D01*
X147119047Y-140298390D02*
X147880952Y-140298390D01*
X147271428Y-140584104D02*
X147728571Y-140584104D01*
X147500000Y-139869819D02*
X147500000Y-140298390D01*
X147576190Y-140869819D02*
X147423809Y-140869819D01*
X153238094Y-130649819D02*
X153390475Y-130649819D01*
X153390475Y-130649819D02*
X153466665Y-130697438D01*
X153466665Y-130697438D02*
X153542856Y-130792676D01*
X153542856Y-130792676D02*
X153580951Y-130983152D01*
X153580951Y-130983152D02*
X153580951Y-131316485D01*
X153580951Y-131316485D02*
X153542856Y-131506961D01*
X153542856Y-131506961D02*
X153466665Y-131602200D01*
X153466665Y-131602200D02*
X153390475Y-131649819D01*
X153390475Y-131649819D02*
X153238094Y-131649819D01*
X153238094Y-131649819D02*
X153161903Y-131602200D01*
X153161903Y-131602200D02*
X153085713Y-131506961D01*
X153085713Y-131506961D02*
X153047617Y-131316485D01*
X153047617Y-131316485D02*
X153047617Y-130983152D01*
X153047617Y-130983152D02*
X153085713Y-130792676D01*
X153085713Y-130792676D02*
X153161903Y-130697438D01*
X153161903Y-130697438D02*
X153238094Y-130649819D01*
X153847617Y-130983152D02*
X153999998Y-131649819D01*
X153999998Y-131649819D02*
X154152379Y-131173628D01*
X154152379Y-131173628D02*
X154304760Y-131649819D01*
X154304760Y-131649819D02*
X154457141Y-130983152D01*
X154876188Y-131649819D02*
X154799998Y-131602200D01*
X154799998Y-131602200D02*
X154761903Y-131506961D01*
X154761903Y-131506961D02*
X154761903Y-130649819D01*
X156247618Y-131649819D02*
X155980951Y-131173628D01*
X155790475Y-131649819D02*
X155790475Y-130649819D01*
X155790475Y-130649819D02*
X156095237Y-130649819D01*
X156095237Y-130649819D02*
X156171427Y-130697438D01*
X156171427Y-130697438D02*
X156209522Y-130745057D01*
X156209522Y-130745057D02*
X156247618Y-130840295D01*
X156247618Y-130840295D02*
X156247618Y-130983152D01*
X156247618Y-130983152D02*
X156209522Y-131078390D01*
X156209522Y-131078390D02*
X156171427Y-131126009D01*
X156171427Y-131126009D02*
X156095237Y-131173628D01*
X156095237Y-131173628D02*
X155790475Y-131173628D01*
X156704760Y-131649819D02*
X156628570Y-131602200D01*
X156628570Y-131602200D02*
X156590475Y-131554580D01*
X156590475Y-131554580D02*
X156552379Y-131459342D01*
X156552379Y-131459342D02*
X156552379Y-131173628D01*
X156552379Y-131173628D02*
X156590475Y-131078390D01*
X156590475Y-131078390D02*
X156628570Y-131030771D01*
X156628570Y-131030771D02*
X156704760Y-130983152D01*
X156704760Y-130983152D02*
X156819046Y-130983152D01*
X156819046Y-130983152D02*
X156895237Y-131030771D01*
X156895237Y-131030771D02*
X156933332Y-131078390D01*
X156933332Y-131078390D02*
X156971427Y-131173628D01*
X156971427Y-131173628D02*
X156971427Y-131459342D01*
X156971427Y-131459342D02*
X156933332Y-131554580D01*
X156933332Y-131554580D02*
X156895237Y-131602200D01*
X156895237Y-131602200D02*
X156819046Y-131649819D01*
X156819046Y-131649819D02*
X156704760Y-131649819D01*
X157314285Y-131649819D02*
X157314285Y-130649819D01*
X157314285Y-131030771D02*
X157390475Y-130983152D01*
X157390475Y-130983152D02*
X157542856Y-130983152D01*
X157542856Y-130983152D02*
X157619047Y-131030771D01*
X157619047Y-131030771D02*
X157657142Y-131078390D01*
X157657142Y-131078390D02*
X157695237Y-131173628D01*
X157695237Y-131173628D02*
X157695237Y-131459342D01*
X157695237Y-131459342D02*
X157657142Y-131554580D01*
X157657142Y-131554580D02*
X157619047Y-131602200D01*
X157619047Y-131602200D02*
X157542856Y-131649819D01*
X157542856Y-131649819D02*
X157390475Y-131649819D01*
X157390475Y-131649819D02*
X157314285Y-131602200D01*
X158152380Y-131649819D02*
X158076190Y-131602200D01*
X158076190Y-131602200D02*
X158038095Y-131554580D01*
X158038095Y-131554580D02*
X157999999Y-131459342D01*
X157999999Y-131459342D02*
X157999999Y-131173628D01*
X157999999Y-131173628D02*
X158038095Y-131078390D01*
X158038095Y-131078390D02*
X158076190Y-131030771D01*
X158076190Y-131030771D02*
X158152380Y-130983152D01*
X158152380Y-130983152D02*
X158266666Y-130983152D01*
X158266666Y-130983152D02*
X158342857Y-131030771D01*
X158342857Y-131030771D02*
X158380952Y-131078390D01*
X158380952Y-131078390D02*
X158419047Y-131173628D01*
X158419047Y-131173628D02*
X158419047Y-131459342D01*
X158419047Y-131459342D02*
X158380952Y-131554580D01*
X158380952Y-131554580D02*
X158342857Y-131602200D01*
X158342857Y-131602200D02*
X158266666Y-131649819D01*
X158266666Y-131649819D02*
X158152380Y-131649819D01*
X158647619Y-130983152D02*
X158952381Y-130983152D01*
X158761905Y-130649819D02*
X158761905Y-131506961D01*
X158761905Y-131506961D02*
X158800000Y-131602200D01*
X158800000Y-131602200D02*
X158876190Y-131649819D01*
X158876190Y-131649819D02*
X158952381Y-131649819D01*
X160095238Y-131126009D02*
X160209524Y-131173628D01*
X160209524Y-131173628D02*
X160247619Y-131221247D01*
X160247619Y-131221247D02*
X160285715Y-131316485D01*
X160285715Y-131316485D02*
X160285715Y-131459342D01*
X160285715Y-131459342D02*
X160247619Y-131554580D01*
X160247619Y-131554580D02*
X160209524Y-131602200D01*
X160209524Y-131602200D02*
X160133334Y-131649819D01*
X160133334Y-131649819D02*
X159828572Y-131649819D01*
X159828572Y-131649819D02*
X159828572Y-130649819D01*
X159828572Y-130649819D02*
X160095238Y-130649819D01*
X160095238Y-130649819D02*
X160171429Y-130697438D01*
X160171429Y-130697438D02*
X160209524Y-130745057D01*
X160209524Y-130745057D02*
X160247619Y-130840295D01*
X160247619Y-130840295D02*
X160247619Y-130935533D01*
X160247619Y-130935533D02*
X160209524Y-131030771D01*
X160209524Y-131030771D02*
X160171429Y-131078390D01*
X160171429Y-131078390D02*
X160095238Y-131126009D01*
X160095238Y-131126009D02*
X159828572Y-131126009D01*
X160742857Y-131649819D02*
X160666667Y-131602200D01*
X160666667Y-131602200D02*
X160628572Y-131554580D01*
X160628572Y-131554580D02*
X160590476Y-131459342D01*
X160590476Y-131459342D02*
X160590476Y-131173628D01*
X160590476Y-131173628D02*
X160628572Y-131078390D01*
X160628572Y-131078390D02*
X160666667Y-131030771D01*
X160666667Y-131030771D02*
X160742857Y-130983152D01*
X160742857Y-130983152D02*
X160857143Y-130983152D01*
X160857143Y-130983152D02*
X160933334Y-131030771D01*
X160933334Y-131030771D02*
X160971429Y-131078390D01*
X160971429Y-131078390D02*
X161009524Y-131173628D01*
X161009524Y-131173628D02*
X161009524Y-131459342D01*
X161009524Y-131459342D02*
X160971429Y-131554580D01*
X160971429Y-131554580D02*
X160933334Y-131602200D01*
X160933334Y-131602200D02*
X160857143Y-131649819D01*
X160857143Y-131649819D02*
X160742857Y-131649819D01*
X161695239Y-131649819D02*
X161695239Y-131126009D01*
X161695239Y-131126009D02*
X161657144Y-131030771D01*
X161657144Y-131030771D02*
X161580953Y-130983152D01*
X161580953Y-130983152D02*
X161428572Y-130983152D01*
X161428572Y-130983152D02*
X161352382Y-131030771D01*
X161695239Y-131602200D02*
X161619048Y-131649819D01*
X161619048Y-131649819D02*
X161428572Y-131649819D01*
X161428572Y-131649819D02*
X161352382Y-131602200D01*
X161352382Y-131602200D02*
X161314286Y-131506961D01*
X161314286Y-131506961D02*
X161314286Y-131411723D01*
X161314286Y-131411723D02*
X161352382Y-131316485D01*
X161352382Y-131316485D02*
X161428572Y-131268866D01*
X161428572Y-131268866D02*
X161619048Y-131268866D01*
X161619048Y-131268866D02*
X161695239Y-131221247D01*
X162076192Y-131649819D02*
X162076192Y-130983152D01*
X162076192Y-131173628D02*
X162114287Y-131078390D01*
X162114287Y-131078390D02*
X162152382Y-131030771D01*
X162152382Y-131030771D02*
X162228573Y-130983152D01*
X162228573Y-130983152D02*
X162304763Y-130983152D01*
X162914287Y-131649819D02*
X162914287Y-130649819D01*
X162914287Y-131602200D02*
X162838096Y-131649819D01*
X162838096Y-131649819D02*
X162685715Y-131649819D01*
X162685715Y-131649819D02*
X162609525Y-131602200D01*
X162609525Y-131602200D02*
X162571430Y-131554580D01*
X162571430Y-131554580D02*
X162533334Y-131459342D01*
X162533334Y-131459342D02*
X162533334Y-131173628D01*
X162533334Y-131173628D02*
X162571430Y-131078390D01*
X162571430Y-131078390D02*
X162609525Y-131030771D01*
X162609525Y-131030771D02*
X162685715Y-130983152D01*
X162685715Y-130983152D02*
X162838096Y-130983152D01*
X162838096Y-130983152D02*
X162914287Y-131030771D01*
X154971428Y-133259819D02*
X154971428Y-132593152D01*
X154971428Y-132783628D02*
X155009523Y-132688390D01*
X155009523Y-132688390D02*
X155047618Y-132640771D01*
X155047618Y-132640771D02*
X155123809Y-132593152D01*
X155123809Y-132593152D02*
X155199999Y-132593152D01*
X155885713Y-133259819D02*
X155428570Y-133259819D01*
X155657142Y-133259819D02*
X155657142Y-132259819D01*
X155657142Y-132259819D02*
X155580951Y-132402676D01*
X155580951Y-132402676D02*
X155504761Y-132497914D01*
X155504761Y-132497914D02*
X155428570Y-132545533D01*
X157066666Y-132259819D02*
X157066666Y-132974104D01*
X157066666Y-132974104D02*
X157028571Y-133116961D01*
X157028571Y-133116961D02*
X156952380Y-133212200D01*
X156952380Y-133212200D02*
X156838095Y-133259819D01*
X156838095Y-133259819D02*
X156761904Y-133259819D01*
X157790476Y-132593152D02*
X157790476Y-133259819D01*
X157447619Y-132593152D02*
X157447619Y-133116961D01*
X157447619Y-133116961D02*
X157485714Y-133212200D01*
X157485714Y-133212200D02*
X157561904Y-133259819D01*
X157561904Y-133259819D02*
X157676190Y-133259819D01*
X157676190Y-133259819D02*
X157752381Y-133212200D01*
X157752381Y-133212200D02*
X157790476Y-133164580D01*
X158171429Y-132593152D02*
X158171429Y-133259819D01*
X158171429Y-132688390D02*
X158209524Y-132640771D01*
X158209524Y-132640771D02*
X158285714Y-132593152D01*
X158285714Y-132593152D02*
X158400000Y-132593152D01*
X158400000Y-132593152D02*
X158476191Y-132640771D01*
X158476191Y-132640771D02*
X158514286Y-132736009D01*
X158514286Y-132736009D02*
X158514286Y-133259819D01*
X159542858Y-132259819D02*
X159466667Y-132450295D01*
X159847619Y-132355057D02*
X159885715Y-132307438D01*
X159885715Y-132307438D02*
X159961905Y-132259819D01*
X159961905Y-132259819D02*
X160152381Y-132259819D01*
X160152381Y-132259819D02*
X160228572Y-132307438D01*
X160228572Y-132307438D02*
X160266667Y-132355057D01*
X160266667Y-132355057D02*
X160304762Y-132450295D01*
X160304762Y-132450295D02*
X160304762Y-132545533D01*
X160304762Y-132545533D02*
X160266667Y-132688390D01*
X160266667Y-132688390D02*
X159809524Y-133259819D01*
X159809524Y-133259819D02*
X160304762Y-133259819D01*
X160571429Y-132259819D02*
X161066667Y-132259819D01*
X161066667Y-132259819D02*
X160800001Y-132640771D01*
X160800001Y-132640771D02*
X160914286Y-132640771D01*
X160914286Y-132640771D02*
X160990477Y-132688390D01*
X160990477Y-132688390D02*
X161028572Y-132736009D01*
X161028572Y-132736009D02*
X161066667Y-132831247D01*
X161066667Y-132831247D02*
X161066667Y-133069342D01*
X161066667Y-133069342D02*
X161028572Y-133164580D01*
X161028572Y-133164580D02*
X160990477Y-133212200D01*
X160990477Y-133212200D02*
X160914286Y-133259819D01*
X160914286Y-133259819D02*
X160685715Y-133259819D01*
X160685715Y-133259819D02*
X160609524Y-133212200D01*
X160609524Y-133212200D02*
X160571429Y-133164580D01*
X117119047Y-87298390D02*
X117880952Y-87298390D01*
X117271428Y-87584104D02*
X117728571Y-87584104D01*
X117500000Y-86869819D02*
X117500000Y-87298390D01*
X117576190Y-87869819D02*
X117423809Y-87869819D01*
X112638095Y-86369819D02*
X112638095Y-85369819D01*
X112638095Y-85369819D02*
X113095238Y-86369819D01*
X113095238Y-86369819D02*
X113095238Y-85369819D01*
X113780952Y-86322200D02*
X113704761Y-86369819D01*
X113704761Y-86369819D02*
X113552380Y-86369819D01*
X113552380Y-86369819D02*
X113476190Y-86322200D01*
X113476190Y-86322200D02*
X113438094Y-86226961D01*
X113438094Y-86226961D02*
X113438094Y-85846009D01*
X113438094Y-85846009D02*
X113476190Y-85750771D01*
X113476190Y-85750771D02*
X113552380Y-85703152D01*
X113552380Y-85703152D02*
X113704761Y-85703152D01*
X113704761Y-85703152D02*
X113780952Y-85750771D01*
X113780952Y-85750771D02*
X113819047Y-85846009D01*
X113819047Y-85846009D02*
X113819047Y-85941247D01*
X113819047Y-85941247D02*
X113438094Y-86036485D01*
X114276189Y-86369819D02*
X114199999Y-86322200D01*
X114199999Y-86322200D02*
X114161904Y-86274580D01*
X114161904Y-86274580D02*
X114123808Y-86179342D01*
X114123808Y-86179342D02*
X114123808Y-85893628D01*
X114123808Y-85893628D02*
X114161904Y-85798390D01*
X114161904Y-85798390D02*
X114199999Y-85750771D01*
X114199999Y-85750771D02*
X114276189Y-85703152D01*
X114276189Y-85703152D02*
X114390475Y-85703152D01*
X114390475Y-85703152D02*
X114466666Y-85750771D01*
X114466666Y-85750771D02*
X114504761Y-85798390D01*
X114504761Y-85798390D02*
X114542856Y-85893628D01*
X114542856Y-85893628D02*
X114542856Y-86179342D01*
X114542856Y-86179342D02*
X114504761Y-86274580D01*
X114504761Y-86274580D02*
X114466666Y-86322200D01*
X114466666Y-86322200D02*
X114390475Y-86369819D01*
X114390475Y-86369819D02*
X114276189Y-86369819D01*
X114885714Y-85703152D02*
X114885714Y-86703152D01*
X114885714Y-85750771D02*
X114961904Y-85703152D01*
X114961904Y-85703152D02*
X115114285Y-85703152D01*
X115114285Y-85703152D02*
X115190476Y-85750771D01*
X115190476Y-85750771D02*
X115228571Y-85798390D01*
X115228571Y-85798390D02*
X115266666Y-85893628D01*
X115266666Y-85893628D02*
X115266666Y-86179342D01*
X115266666Y-86179342D02*
X115228571Y-86274580D01*
X115228571Y-86274580D02*
X115190476Y-86322200D01*
X115190476Y-86322200D02*
X115114285Y-86369819D01*
X115114285Y-86369819D02*
X114961904Y-86369819D01*
X114961904Y-86369819D02*
X114885714Y-86322200D01*
X115609524Y-86369819D02*
X115609524Y-85703152D01*
X115609524Y-85369819D02*
X115571428Y-85417438D01*
X115571428Y-85417438D02*
X115609524Y-85465057D01*
X115609524Y-85465057D02*
X115647619Y-85417438D01*
X115647619Y-85417438D02*
X115609524Y-85369819D01*
X115609524Y-85369819D02*
X115609524Y-85465057D01*
X115914285Y-86369819D02*
X116333333Y-85703152D01*
X115914285Y-85703152D02*
X116333333Y-86369819D01*
X116942857Y-86322200D02*
X116866666Y-86369819D01*
X116866666Y-86369819D02*
X116714285Y-86369819D01*
X116714285Y-86369819D02*
X116638095Y-86322200D01*
X116638095Y-86322200D02*
X116599999Y-86226961D01*
X116599999Y-86226961D02*
X116599999Y-85846009D01*
X116599999Y-85846009D02*
X116638095Y-85750771D01*
X116638095Y-85750771D02*
X116714285Y-85703152D01*
X116714285Y-85703152D02*
X116866666Y-85703152D01*
X116866666Y-85703152D02*
X116942857Y-85750771D01*
X116942857Y-85750771D02*
X116980952Y-85846009D01*
X116980952Y-85846009D02*
X116980952Y-85941247D01*
X116980952Y-85941247D02*
X116599999Y-86036485D01*
X117438094Y-86369819D02*
X117361904Y-86322200D01*
X117361904Y-86322200D02*
X117323809Y-86226961D01*
X117323809Y-86226961D02*
X117323809Y-85369819D01*
X142157142Y-140869819D02*
X142347619Y-140869819D01*
X142347619Y-140869819D02*
X142347619Y-140107914D01*
X142347619Y-140107914D02*
X142652381Y-140107914D01*
X142652381Y-140107914D02*
X142652381Y-140869819D01*
X142652381Y-140869819D02*
X142842857Y-140869819D01*
X114657142Y-87869819D02*
X114847619Y-87869819D01*
X114847619Y-87869819D02*
X114847619Y-87107914D01*
X114847619Y-87107914D02*
X115152381Y-87107914D01*
X115152381Y-87107914D02*
X115152381Y-87869819D01*
X115152381Y-87869819D02*
X115342857Y-87869819D01*
X152157142Y-140869819D02*
X152347619Y-140869819D01*
X152347619Y-140869819D02*
X152347619Y-140107914D01*
X152347619Y-140107914D02*
X152652381Y-140107914D01*
X152652381Y-140107914D02*
X152652381Y-140869819D01*
X152652381Y-140869819D02*
X152842857Y-140869819D01*
X131319047Y-60454819D02*
X131814285Y-60454819D01*
X131814285Y-60454819D02*
X131547619Y-60835771D01*
X131547619Y-60835771D02*
X131661904Y-60835771D01*
X131661904Y-60835771D02*
X131738095Y-60883390D01*
X131738095Y-60883390D02*
X131776190Y-60931009D01*
X131776190Y-60931009D02*
X131814285Y-61026247D01*
X131814285Y-61026247D02*
X131814285Y-61264342D01*
X131814285Y-61264342D02*
X131776190Y-61359580D01*
X131776190Y-61359580D02*
X131738095Y-61407200D01*
X131738095Y-61407200D02*
X131661904Y-61454819D01*
X131661904Y-61454819D02*
X131433333Y-61454819D01*
X131433333Y-61454819D02*
X131357142Y-61407200D01*
X131357142Y-61407200D02*
X131319047Y-61359580D01*
X132157143Y-61359580D02*
X132195238Y-61407200D01*
X132195238Y-61407200D02*
X132157143Y-61454819D01*
X132157143Y-61454819D02*
X132119047Y-61407200D01*
X132119047Y-61407200D02*
X132157143Y-61359580D01*
X132157143Y-61359580D02*
X132157143Y-61454819D01*
X132461904Y-60454819D02*
X132957142Y-60454819D01*
X132957142Y-60454819D02*
X132690476Y-60835771D01*
X132690476Y-60835771D02*
X132804761Y-60835771D01*
X132804761Y-60835771D02*
X132880952Y-60883390D01*
X132880952Y-60883390D02*
X132919047Y-60931009D01*
X132919047Y-60931009D02*
X132957142Y-61026247D01*
X132957142Y-61026247D02*
X132957142Y-61264342D01*
X132957142Y-61264342D02*
X132919047Y-61359580D01*
X132919047Y-61359580D02*
X132880952Y-61407200D01*
X132880952Y-61407200D02*
X132804761Y-61454819D01*
X132804761Y-61454819D02*
X132576190Y-61454819D01*
X132576190Y-61454819D02*
X132499999Y-61407200D01*
X132499999Y-61407200D02*
X132461904Y-61359580D01*
X133185714Y-60454819D02*
X133452381Y-61454819D01*
X133452381Y-61454819D02*
X133719047Y-60454819D01*
X152828570Y-142322200D02*
X152942856Y-142369819D01*
X152942856Y-142369819D02*
X153133332Y-142369819D01*
X153133332Y-142369819D02*
X153209523Y-142322200D01*
X153209523Y-142322200D02*
X153247618Y-142274580D01*
X153247618Y-142274580D02*
X153285713Y-142179342D01*
X153285713Y-142179342D02*
X153285713Y-142084104D01*
X153285713Y-142084104D02*
X153247618Y-141988866D01*
X153247618Y-141988866D02*
X153209523Y-141941247D01*
X153209523Y-141941247D02*
X153133332Y-141893628D01*
X153133332Y-141893628D02*
X152980951Y-141846009D01*
X152980951Y-141846009D02*
X152904761Y-141798390D01*
X152904761Y-141798390D02*
X152866666Y-141750771D01*
X152866666Y-141750771D02*
X152828570Y-141655533D01*
X152828570Y-141655533D02*
X152828570Y-141560295D01*
X152828570Y-141560295D02*
X152866666Y-141465057D01*
X152866666Y-141465057D02*
X152904761Y-141417438D01*
X152904761Y-141417438D02*
X152980951Y-141369819D01*
X152980951Y-141369819D02*
X153171428Y-141369819D01*
X153171428Y-141369819D02*
X153285713Y-141417438D01*
X153933333Y-142322200D02*
X153857142Y-142369819D01*
X153857142Y-142369819D02*
X153704761Y-142369819D01*
X153704761Y-142369819D02*
X153628571Y-142322200D01*
X153628571Y-142322200D02*
X153590475Y-142226961D01*
X153590475Y-142226961D02*
X153590475Y-141846009D01*
X153590475Y-141846009D02*
X153628571Y-141750771D01*
X153628571Y-141750771D02*
X153704761Y-141703152D01*
X153704761Y-141703152D02*
X153857142Y-141703152D01*
X153857142Y-141703152D02*
X153933333Y-141750771D01*
X153933333Y-141750771D02*
X153971428Y-141846009D01*
X153971428Y-141846009D02*
X153971428Y-141941247D01*
X153971428Y-141941247D02*
X153590475Y-142036485D01*
X154314285Y-142369819D02*
X154314285Y-141703152D01*
X154314285Y-141893628D02*
X154352380Y-141798390D01*
X154352380Y-141798390D02*
X154390475Y-141750771D01*
X154390475Y-141750771D02*
X154466666Y-141703152D01*
X154466666Y-141703152D02*
X154542856Y-141703152D01*
X154733332Y-141703152D02*
X154923808Y-142369819D01*
X154923808Y-142369819D02*
X155114285Y-141703152D01*
X155533332Y-142369819D02*
X155457142Y-142322200D01*
X155457142Y-142322200D02*
X155419047Y-142274580D01*
X155419047Y-142274580D02*
X155380951Y-142179342D01*
X155380951Y-142179342D02*
X155380951Y-141893628D01*
X155380951Y-141893628D02*
X155419047Y-141798390D01*
X155419047Y-141798390D02*
X155457142Y-141750771D01*
X155457142Y-141750771D02*
X155533332Y-141703152D01*
X155533332Y-141703152D02*
X155647618Y-141703152D01*
X155647618Y-141703152D02*
X155723809Y-141750771D01*
X155723809Y-141750771D02*
X155761904Y-141798390D01*
X155761904Y-141798390D02*
X155799999Y-141893628D01*
X155799999Y-141893628D02*
X155799999Y-142179342D01*
X155799999Y-142179342D02*
X155761904Y-142274580D01*
X155761904Y-142274580D02*
X155723809Y-142322200D01*
X155723809Y-142322200D02*
X155647618Y-142369819D01*
X155647618Y-142369819D02*
X155533332Y-142369819D01*
X156714285Y-141465057D02*
X156752381Y-141417438D01*
X156752381Y-141417438D02*
X156828571Y-141369819D01*
X156828571Y-141369819D02*
X157019047Y-141369819D01*
X157019047Y-141369819D02*
X157095238Y-141417438D01*
X157095238Y-141417438D02*
X157133333Y-141465057D01*
X157133333Y-141465057D02*
X157171428Y-141560295D01*
X157171428Y-141560295D02*
X157171428Y-141655533D01*
X157171428Y-141655533D02*
X157133333Y-141798390D01*
X157133333Y-141798390D02*
X156676190Y-142369819D01*
X156676190Y-142369819D02*
X157171428Y-142369819D01*
X144847619Y-139869819D02*
X144466667Y-139869819D01*
X144466667Y-139869819D02*
X144428571Y-140346009D01*
X144428571Y-140346009D02*
X144466667Y-140298390D01*
X144466667Y-140298390D02*
X144542857Y-140250771D01*
X144542857Y-140250771D02*
X144733333Y-140250771D01*
X144733333Y-140250771D02*
X144809524Y-140298390D01*
X144809524Y-140298390D02*
X144847619Y-140346009D01*
X144847619Y-140346009D02*
X144885714Y-140441247D01*
X144885714Y-140441247D02*
X144885714Y-140679342D01*
X144885714Y-140679342D02*
X144847619Y-140774580D01*
X144847619Y-140774580D02*
X144809524Y-140822200D01*
X144809524Y-140822200D02*
X144733333Y-140869819D01*
X144733333Y-140869819D02*
X144542857Y-140869819D01*
X144542857Y-140869819D02*
X144466667Y-140822200D01*
X144466667Y-140822200D02*
X144428571Y-140774580D01*
X145114286Y-139869819D02*
X145380953Y-140869819D01*
X145380953Y-140869819D02*
X145647619Y-139869819D01*
X183790475Y-103822200D02*
X183904761Y-103869819D01*
X183904761Y-103869819D02*
X184095237Y-103869819D01*
X184095237Y-103869819D02*
X184171428Y-103822200D01*
X184171428Y-103822200D02*
X184209523Y-103774580D01*
X184209523Y-103774580D02*
X184247618Y-103679342D01*
X184247618Y-103679342D02*
X184247618Y-103584104D01*
X184247618Y-103584104D02*
X184209523Y-103488866D01*
X184209523Y-103488866D02*
X184171428Y-103441247D01*
X184171428Y-103441247D02*
X184095237Y-103393628D01*
X184095237Y-103393628D02*
X183942856Y-103346009D01*
X183942856Y-103346009D02*
X183866666Y-103298390D01*
X183866666Y-103298390D02*
X183828571Y-103250771D01*
X183828571Y-103250771D02*
X183790475Y-103155533D01*
X183790475Y-103155533D02*
X183790475Y-103060295D01*
X183790475Y-103060295D02*
X183828571Y-102965057D01*
X183828571Y-102965057D02*
X183866666Y-102917438D01*
X183866666Y-102917438D02*
X183942856Y-102869819D01*
X183942856Y-102869819D02*
X184133333Y-102869819D01*
X184133333Y-102869819D02*
X184247618Y-102917438D01*
X184590476Y-103203152D02*
X184590476Y-104203152D01*
X184590476Y-103250771D02*
X184666666Y-103203152D01*
X184666666Y-103203152D02*
X184819047Y-103203152D01*
X184819047Y-103203152D02*
X184895238Y-103250771D01*
X184895238Y-103250771D02*
X184933333Y-103298390D01*
X184933333Y-103298390D02*
X184971428Y-103393628D01*
X184971428Y-103393628D02*
X184971428Y-103679342D01*
X184971428Y-103679342D02*
X184933333Y-103774580D01*
X184933333Y-103774580D02*
X184895238Y-103822200D01*
X184895238Y-103822200D02*
X184819047Y-103869819D01*
X184819047Y-103869819D02*
X184666666Y-103869819D01*
X184666666Y-103869819D02*
X184590476Y-103822200D01*
X185619048Y-103822200D02*
X185542857Y-103869819D01*
X185542857Y-103869819D02*
X185390476Y-103869819D01*
X185390476Y-103869819D02*
X185314286Y-103822200D01*
X185314286Y-103822200D02*
X185276190Y-103726961D01*
X185276190Y-103726961D02*
X185276190Y-103346009D01*
X185276190Y-103346009D02*
X185314286Y-103250771D01*
X185314286Y-103250771D02*
X185390476Y-103203152D01*
X185390476Y-103203152D02*
X185542857Y-103203152D01*
X185542857Y-103203152D02*
X185619048Y-103250771D01*
X185619048Y-103250771D02*
X185657143Y-103346009D01*
X185657143Y-103346009D02*
X185657143Y-103441247D01*
X185657143Y-103441247D02*
X185276190Y-103536485D01*
X186342857Y-103869819D02*
X186342857Y-103346009D01*
X186342857Y-103346009D02*
X186304762Y-103250771D01*
X186304762Y-103250771D02*
X186228571Y-103203152D01*
X186228571Y-103203152D02*
X186076190Y-103203152D01*
X186076190Y-103203152D02*
X186000000Y-103250771D01*
X186342857Y-103822200D02*
X186266666Y-103869819D01*
X186266666Y-103869819D02*
X186076190Y-103869819D01*
X186076190Y-103869819D02*
X186000000Y-103822200D01*
X186000000Y-103822200D02*
X185961904Y-103726961D01*
X185961904Y-103726961D02*
X185961904Y-103631723D01*
X185961904Y-103631723D02*
X186000000Y-103536485D01*
X186000000Y-103536485D02*
X186076190Y-103488866D01*
X186076190Y-103488866D02*
X186266666Y-103488866D01*
X186266666Y-103488866D02*
X186342857Y-103441247D01*
X186723810Y-103869819D02*
X186723810Y-102869819D01*
X186800000Y-103488866D02*
X187028572Y-103869819D01*
X187028572Y-103203152D02*
X186723810Y-103584104D01*
X187676191Y-103822200D02*
X187600000Y-103869819D01*
X187600000Y-103869819D02*
X187447619Y-103869819D01*
X187447619Y-103869819D02*
X187371429Y-103822200D01*
X187371429Y-103822200D02*
X187333333Y-103726961D01*
X187333333Y-103726961D02*
X187333333Y-103346009D01*
X187333333Y-103346009D02*
X187371429Y-103250771D01*
X187371429Y-103250771D02*
X187447619Y-103203152D01*
X187447619Y-103203152D02*
X187600000Y-103203152D01*
X187600000Y-103203152D02*
X187676191Y-103250771D01*
X187676191Y-103250771D02*
X187714286Y-103346009D01*
X187714286Y-103346009D02*
X187714286Y-103441247D01*
X187714286Y-103441247D02*
X187333333Y-103536485D01*
X188057143Y-103869819D02*
X188057143Y-103203152D01*
X188057143Y-103393628D02*
X188095238Y-103298390D01*
X188095238Y-103298390D02*
X188133333Y-103250771D01*
X188133333Y-103250771D02*
X188209524Y-103203152D01*
X188209524Y-103203152D02*
X188285714Y-103203152D01*
X157119047Y-140298390D02*
X157880952Y-140298390D01*
X157271428Y-140584104D02*
X157728571Y-140584104D01*
X157500000Y-139869819D02*
X157500000Y-140298390D01*
X157576190Y-140869819D02*
X157423809Y-140869819D01*
X135847619Y-118369819D02*
X135466667Y-118369819D01*
X135466667Y-118369819D02*
X135428571Y-118846009D01*
X135428571Y-118846009D02*
X135466667Y-118798390D01*
X135466667Y-118798390D02*
X135542857Y-118750771D01*
X135542857Y-118750771D02*
X135733333Y-118750771D01*
X135733333Y-118750771D02*
X135809524Y-118798390D01*
X135809524Y-118798390D02*
X135847619Y-118846009D01*
X135847619Y-118846009D02*
X135885714Y-118941247D01*
X135885714Y-118941247D02*
X135885714Y-119179342D01*
X135885714Y-119179342D02*
X135847619Y-119274580D01*
X135847619Y-119274580D02*
X135809524Y-119322200D01*
X135809524Y-119322200D02*
X135733333Y-119369819D01*
X135733333Y-119369819D02*
X135542857Y-119369819D01*
X135542857Y-119369819D02*
X135466667Y-119322200D01*
X135466667Y-119322200D02*
X135428571Y-119274580D01*
X136114286Y-118369819D02*
X136380953Y-119369819D01*
X136380953Y-119369819D02*
X136647619Y-118369819D01*
D11*
X139390476Y-63457419D02*
X139390476Y-64266942D01*
X139390476Y-64266942D02*
X139428571Y-64362180D01*
X139428571Y-64362180D02*
X139466666Y-64409800D01*
X139466666Y-64409800D02*
X139542857Y-64457419D01*
X139542857Y-64457419D02*
X139695238Y-64457419D01*
X139695238Y-64457419D02*
X139771428Y-64409800D01*
X139771428Y-64409800D02*
X139809523Y-64362180D01*
X139809523Y-64362180D02*
X139847619Y-64266942D01*
X139847619Y-64266942D02*
X139847619Y-63457419D01*
X140647618Y-64457419D02*
X140190475Y-64457419D01*
X140419047Y-64457419D02*
X140419047Y-63457419D01*
X140419047Y-63457419D02*
X140342856Y-63600276D01*
X140342856Y-63600276D02*
X140266666Y-63695514D01*
X140266666Y-63695514D02*
X140190475Y-63743133D01*
D10*
X132477029Y-84677319D02*
X132019886Y-84677319D01*
X132248458Y-84677319D02*
X132248458Y-83677319D01*
X132248458Y-83677319D02*
X132172267Y-83820176D01*
X132172267Y-83820176D02*
X132096077Y-83915414D01*
X132096077Y-83915414D02*
X132019886Y-83963033D01*
X132743696Y-83677319D02*
X133277030Y-83677319D01*
X133277030Y-83677319D02*
X132934172Y-84677319D01*
X132402244Y-102497595D02*
X131945101Y-102497595D01*
X132173673Y-102497595D02*
X132173673Y-101497595D01*
X132173673Y-101497595D02*
X132097482Y-101640452D01*
X132097482Y-101640452D02*
X132021292Y-101735690D01*
X132021292Y-101735690D02*
X131945101Y-101783309D01*
X133164149Y-102497595D02*
X132707006Y-102497595D01*
X132935578Y-102497595D02*
X132935578Y-101497595D01*
X132935578Y-101497595D02*
X132859387Y-101640452D01*
X132859387Y-101640452D02*
X132783197Y-101735690D01*
X132783197Y-101735690D02*
X132707006Y-101783309D01*
X132477029Y-107537319D02*
X132019886Y-107537319D01*
X132248458Y-107537319D02*
X132248458Y-106537319D01*
X132248458Y-106537319D02*
X132172267Y-106680176D01*
X132172267Y-106680176D02*
X132096077Y-106775414D01*
X132096077Y-106775414D02*
X132019886Y-106823033D01*
X132743696Y-106537319D02*
X133238934Y-106537319D01*
X133238934Y-106537319D02*
X132972268Y-106918271D01*
X132972268Y-106918271D02*
X133086553Y-106918271D01*
X133086553Y-106918271D02*
X133162744Y-106965890D01*
X133162744Y-106965890D02*
X133200839Y-107013509D01*
X133200839Y-107013509D02*
X133238934Y-107108747D01*
X133238934Y-107108747D02*
X133238934Y-107346842D01*
X133238934Y-107346842D02*
X133200839Y-107442080D01*
X133200839Y-107442080D02*
X133162744Y-107489700D01*
X133162744Y-107489700D02*
X133086553Y-107537319D01*
X133086553Y-107537319D02*
X132857982Y-107537319D01*
X132857982Y-107537319D02*
X132781791Y-107489700D01*
X132781791Y-107489700D02*
X132743696Y-107442080D01*
X132591315Y-111617319D02*
X132210363Y-111617319D01*
X132210363Y-111617319D02*
X132172267Y-112093509D01*
X132172267Y-112093509D02*
X132210363Y-112045890D01*
X132210363Y-112045890D02*
X132286553Y-111998271D01*
X132286553Y-111998271D02*
X132477029Y-111998271D01*
X132477029Y-111998271D02*
X132553220Y-112045890D01*
X132553220Y-112045890D02*
X132591315Y-112093509D01*
X132591315Y-112093509D02*
X132629410Y-112188747D01*
X132629410Y-112188747D02*
X132629410Y-112426842D01*
X132629410Y-112426842D02*
X132591315Y-112522080D01*
X132591315Y-112522080D02*
X132553220Y-112569700D01*
X132553220Y-112569700D02*
X132477029Y-112617319D01*
X132477029Y-112617319D02*
X132286553Y-112617319D01*
X132286553Y-112617319D02*
X132210363Y-112569700D01*
X132210363Y-112569700D02*
X132172267Y-112522080D01*
X132896077Y-111950652D02*
X133086553Y-112617319D01*
X133086553Y-112617319D02*
X133277030Y-111950652D01*
X132477029Y-79597319D02*
X132019886Y-79597319D01*
X132248458Y-79597319D02*
X132248458Y-78597319D01*
X132248458Y-78597319D02*
X132172267Y-78740176D01*
X132172267Y-78740176D02*
X132096077Y-78835414D01*
X132096077Y-78835414D02*
X132019886Y-78883033D01*
X133200839Y-78597319D02*
X132819887Y-78597319D01*
X132819887Y-78597319D02*
X132781791Y-79073509D01*
X132781791Y-79073509D02*
X132819887Y-79025890D01*
X132819887Y-79025890D02*
X132896077Y-78978271D01*
X132896077Y-78978271D02*
X133086553Y-78978271D01*
X133086553Y-78978271D02*
X133162744Y-79025890D01*
X133162744Y-79025890D02*
X133200839Y-79073509D01*
X133200839Y-79073509D02*
X133238934Y-79168747D01*
X133238934Y-79168747D02*
X133238934Y-79406842D01*
X133238934Y-79406842D02*
X133200839Y-79502080D01*
X133200839Y-79502080D02*
X133162744Y-79549700D01*
X133162744Y-79549700D02*
X133086553Y-79597319D01*
X133086553Y-79597319D02*
X132896077Y-79597319D01*
X132896077Y-79597319D02*
X132819887Y-79549700D01*
X132819887Y-79549700D02*
X132781791Y-79502080D01*
X132477029Y-110077319D02*
X132019886Y-110077319D01*
X132248458Y-110077319D02*
X132248458Y-109077319D01*
X132248458Y-109077319D02*
X132172267Y-109220176D01*
X132172267Y-109220176D02*
X132096077Y-109315414D01*
X132096077Y-109315414D02*
X132019886Y-109363033D01*
X133162744Y-109410652D02*
X133162744Y-110077319D01*
X132972268Y-109029700D02*
X132781791Y-109743985D01*
X132781791Y-109743985D02*
X133277030Y-109743985D01*
X167142017Y-76390652D02*
X167142017Y-77057319D01*
X166951541Y-76009700D02*
X166761064Y-76723985D01*
X166761064Y-76723985D02*
X167256303Y-76723985D01*
X167980112Y-77057319D02*
X167522969Y-77057319D01*
X167751541Y-77057319D02*
X167751541Y-76057319D01*
X167751541Y-76057319D02*
X167675350Y-76200176D01*
X167675350Y-76200176D02*
X167599160Y-76295414D01*
X167599160Y-76295414D02*
X167522969Y-76343033D01*
X167142017Y-99250652D02*
X167142017Y-99917319D01*
X166951541Y-98869700D02*
X166761064Y-99583985D01*
X166761064Y-99583985D02*
X167256303Y-99583985D01*
X167675350Y-99345890D02*
X167599160Y-99298271D01*
X167599160Y-99298271D02*
X167561065Y-99250652D01*
X167561065Y-99250652D02*
X167522969Y-99155414D01*
X167522969Y-99155414D02*
X167522969Y-99107795D01*
X167522969Y-99107795D02*
X167561065Y-99012557D01*
X167561065Y-99012557D02*
X167599160Y-98964938D01*
X167599160Y-98964938D02*
X167675350Y-98917319D01*
X167675350Y-98917319D02*
X167827731Y-98917319D01*
X167827731Y-98917319D02*
X167903922Y-98964938D01*
X167903922Y-98964938D02*
X167942017Y-99012557D01*
X167942017Y-99012557D02*
X167980112Y-99107795D01*
X167980112Y-99107795D02*
X167980112Y-99155414D01*
X167980112Y-99155414D02*
X167942017Y-99250652D01*
X167942017Y-99250652D02*
X167903922Y-99298271D01*
X167903922Y-99298271D02*
X167827731Y-99345890D01*
X167827731Y-99345890D02*
X167675350Y-99345890D01*
X167675350Y-99345890D02*
X167599160Y-99393509D01*
X167599160Y-99393509D02*
X167561065Y-99441128D01*
X167561065Y-99441128D02*
X167522969Y-99536366D01*
X167522969Y-99536366D02*
X167522969Y-99726842D01*
X167522969Y-99726842D02*
X167561065Y-99822080D01*
X167561065Y-99822080D02*
X167599160Y-99869700D01*
X167599160Y-99869700D02*
X167675350Y-99917319D01*
X167675350Y-99917319D02*
X167827731Y-99917319D01*
X167827731Y-99917319D02*
X167903922Y-99869700D01*
X167903922Y-99869700D02*
X167942017Y-99822080D01*
X167942017Y-99822080D02*
X167980112Y-99726842D01*
X167980112Y-99726842D02*
X167980112Y-99536366D01*
X167980112Y-99536366D02*
X167942017Y-99441128D01*
X167942017Y-99441128D02*
X167903922Y-99393509D01*
X167903922Y-99393509D02*
X167827731Y-99345890D01*
X166951541Y-93837319D02*
X167027731Y-93837319D01*
X167027731Y-93837319D02*
X167103922Y-93884938D01*
X167103922Y-93884938D02*
X167142017Y-93932557D01*
X167142017Y-93932557D02*
X167180112Y-94027795D01*
X167180112Y-94027795D02*
X167218207Y-94218271D01*
X167218207Y-94218271D02*
X167218207Y-94456366D01*
X167218207Y-94456366D02*
X167180112Y-94646842D01*
X167180112Y-94646842D02*
X167142017Y-94742080D01*
X167142017Y-94742080D02*
X167103922Y-94789700D01*
X167103922Y-94789700D02*
X167027731Y-94837319D01*
X167027731Y-94837319D02*
X166951541Y-94837319D01*
X166951541Y-94837319D02*
X166875350Y-94789700D01*
X166875350Y-94789700D02*
X166837255Y-94742080D01*
X166837255Y-94742080D02*
X166799160Y-94646842D01*
X166799160Y-94646842D02*
X166761064Y-94456366D01*
X166761064Y-94456366D02*
X166761064Y-94218271D01*
X166761064Y-94218271D02*
X166799160Y-94027795D01*
X166799160Y-94027795D02*
X166837255Y-93932557D01*
X166837255Y-93932557D02*
X166875350Y-93884938D01*
X166875350Y-93884938D02*
X166951541Y-93837319D01*
X132477029Y-87217319D02*
X132019886Y-87217319D01*
X132248458Y-87217319D02*
X132248458Y-86217319D01*
X132248458Y-86217319D02*
X132172267Y-86360176D01*
X132172267Y-86360176D02*
X132096077Y-86455414D01*
X132096077Y-86455414D02*
X132019886Y-86503033D01*
X132934172Y-86645890D02*
X132857982Y-86598271D01*
X132857982Y-86598271D02*
X132819887Y-86550652D01*
X132819887Y-86550652D02*
X132781791Y-86455414D01*
X132781791Y-86455414D02*
X132781791Y-86407795D01*
X132781791Y-86407795D02*
X132819887Y-86312557D01*
X132819887Y-86312557D02*
X132857982Y-86264938D01*
X132857982Y-86264938D02*
X132934172Y-86217319D01*
X132934172Y-86217319D02*
X133086553Y-86217319D01*
X133086553Y-86217319D02*
X133162744Y-86264938D01*
X133162744Y-86264938D02*
X133200839Y-86312557D01*
X133200839Y-86312557D02*
X133238934Y-86407795D01*
X133238934Y-86407795D02*
X133238934Y-86455414D01*
X133238934Y-86455414D02*
X133200839Y-86550652D01*
X133200839Y-86550652D02*
X133162744Y-86598271D01*
X133162744Y-86598271D02*
X133086553Y-86645890D01*
X133086553Y-86645890D02*
X132934172Y-86645890D01*
X132934172Y-86645890D02*
X132857982Y-86693509D01*
X132857982Y-86693509D02*
X132819887Y-86741128D01*
X132819887Y-86741128D02*
X132781791Y-86836366D01*
X132781791Y-86836366D02*
X132781791Y-87026842D01*
X132781791Y-87026842D02*
X132819887Y-87122080D01*
X132819887Y-87122080D02*
X132857982Y-87169700D01*
X132857982Y-87169700D02*
X132934172Y-87217319D01*
X132934172Y-87217319D02*
X133086553Y-87217319D01*
X133086553Y-87217319D02*
X133162744Y-87169700D01*
X133162744Y-87169700D02*
X133200839Y-87122080D01*
X133200839Y-87122080D02*
X133238934Y-87026842D01*
X133238934Y-87026842D02*
X133238934Y-86836366D01*
X133238934Y-86836366D02*
X133200839Y-86741128D01*
X133200839Y-86741128D02*
X133162744Y-86693509D01*
X133162744Y-86693509D02*
X133086553Y-86645890D01*
X132477029Y-82137319D02*
X132019886Y-82137319D01*
X132248458Y-82137319D02*
X132248458Y-81137319D01*
X132248458Y-81137319D02*
X132172267Y-81280176D01*
X132172267Y-81280176D02*
X132096077Y-81375414D01*
X132096077Y-81375414D02*
X132019886Y-81423033D01*
X133162744Y-81137319D02*
X133010363Y-81137319D01*
X133010363Y-81137319D02*
X132934172Y-81184938D01*
X132934172Y-81184938D02*
X132896077Y-81232557D01*
X132896077Y-81232557D02*
X132819887Y-81375414D01*
X132819887Y-81375414D02*
X132781791Y-81565890D01*
X132781791Y-81565890D02*
X132781791Y-81946842D01*
X132781791Y-81946842D02*
X132819887Y-82042080D01*
X132819887Y-82042080D02*
X132857982Y-82089700D01*
X132857982Y-82089700D02*
X132934172Y-82137319D01*
X132934172Y-82137319D02*
X133086553Y-82137319D01*
X133086553Y-82137319D02*
X133162744Y-82089700D01*
X133162744Y-82089700D02*
X133200839Y-82042080D01*
X133200839Y-82042080D02*
X133238934Y-81946842D01*
X133238934Y-81946842D02*
X133238934Y-81708747D01*
X133238934Y-81708747D02*
X133200839Y-81613509D01*
X133200839Y-81613509D02*
X133162744Y-81565890D01*
X133162744Y-81565890D02*
X133086553Y-81518271D01*
X133086553Y-81518271D02*
X132934172Y-81518271D01*
X132934172Y-81518271D02*
X132857982Y-81565890D01*
X132857982Y-81565890D02*
X132819887Y-81613509D01*
X132819887Y-81613509D02*
X132781791Y-81708747D01*
X133200839Y-70977319D02*
X132819887Y-70977319D01*
X132819887Y-70977319D02*
X132781791Y-71453509D01*
X132781791Y-71453509D02*
X132819887Y-71405890D01*
X132819887Y-71405890D02*
X132896077Y-71358271D01*
X132896077Y-71358271D02*
X133086553Y-71358271D01*
X133086553Y-71358271D02*
X133162744Y-71405890D01*
X133162744Y-71405890D02*
X133200839Y-71453509D01*
X133200839Y-71453509D02*
X133238934Y-71548747D01*
X133238934Y-71548747D02*
X133238934Y-71786842D01*
X133238934Y-71786842D02*
X133200839Y-71882080D01*
X133200839Y-71882080D02*
X133162744Y-71929700D01*
X133162744Y-71929700D02*
X133086553Y-71977319D01*
X133086553Y-71977319D02*
X132896077Y-71977319D01*
X132896077Y-71977319D02*
X132819887Y-71929700D01*
X132819887Y-71929700D02*
X132781791Y-71882080D01*
X133162744Y-68770652D02*
X133162744Y-69437319D01*
X132972268Y-68389700D02*
X132781791Y-69103985D01*
X132781791Y-69103985D02*
X133277030Y-69103985D01*
X166761064Y-71072557D02*
X166799160Y-71024938D01*
X166799160Y-71024938D02*
X166875350Y-70977319D01*
X166875350Y-70977319D02*
X167065826Y-70977319D01*
X167065826Y-70977319D02*
X167142017Y-71024938D01*
X167142017Y-71024938D02*
X167180112Y-71072557D01*
X167180112Y-71072557D02*
X167218207Y-71167795D01*
X167218207Y-71167795D02*
X167218207Y-71263033D01*
X167218207Y-71263033D02*
X167180112Y-71405890D01*
X167180112Y-71405890D02*
X166722969Y-71977319D01*
X166722969Y-71977319D02*
X167218207Y-71977319D01*
X166722969Y-86217319D02*
X167218207Y-86217319D01*
X167218207Y-86217319D02*
X166951541Y-86598271D01*
X166951541Y-86598271D02*
X167065826Y-86598271D01*
X167065826Y-86598271D02*
X167142017Y-86645890D01*
X167142017Y-86645890D02*
X167180112Y-86693509D01*
X167180112Y-86693509D02*
X167218207Y-86788747D01*
X167218207Y-86788747D02*
X167218207Y-87026842D01*
X167218207Y-87026842D02*
X167180112Y-87122080D01*
X167180112Y-87122080D02*
X167142017Y-87169700D01*
X167142017Y-87169700D02*
X167065826Y-87217319D01*
X167065826Y-87217319D02*
X166837255Y-87217319D01*
X166837255Y-87217319D02*
X166761064Y-87169700D01*
X166761064Y-87169700D02*
X166722969Y-87122080D01*
X167484874Y-86217319D02*
X168018208Y-86217319D01*
X168018208Y-86217319D02*
X167675350Y-87217319D01*
X130991315Y-63357319D02*
X131486553Y-63357319D01*
X131486553Y-63357319D02*
X131219887Y-63738271D01*
X131219887Y-63738271D02*
X131334172Y-63738271D01*
X131334172Y-63738271D02*
X131410363Y-63785890D01*
X131410363Y-63785890D02*
X131448458Y-63833509D01*
X131448458Y-63833509D02*
X131486553Y-63928747D01*
X131486553Y-63928747D02*
X131486553Y-64166842D01*
X131486553Y-64166842D02*
X131448458Y-64262080D01*
X131448458Y-64262080D02*
X131410363Y-64309700D01*
X131410363Y-64309700D02*
X131334172Y-64357319D01*
X131334172Y-64357319D02*
X131105601Y-64357319D01*
X131105601Y-64357319D02*
X131029410Y-64309700D01*
X131029410Y-64309700D02*
X130991315Y-64262080D01*
X131829411Y-64262080D02*
X131867506Y-64309700D01*
X131867506Y-64309700D02*
X131829411Y-64357319D01*
X131829411Y-64357319D02*
X131791315Y-64309700D01*
X131791315Y-64309700D02*
X131829411Y-64262080D01*
X131829411Y-64262080D02*
X131829411Y-64357319D01*
X132134172Y-63357319D02*
X132629410Y-63357319D01*
X132629410Y-63357319D02*
X132362744Y-63738271D01*
X132362744Y-63738271D02*
X132477029Y-63738271D01*
X132477029Y-63738271D02*
X132553220Y-63785890D01*
X132553220Y-63785890D02*
X132591315Y-63833509D01*
X132591315Y-63833509D02*
X132629410Y-63928747D01*
X132629410Y-63928747D02*
X132629410Y-64166842D01*
X132629410Y-64166842D02*
X132591315Y-64262080D01*
X132591315Y-64262080D02*
X132553220Y-64309700D01*
X132553220Y-64309700D02*
X132477029Y-64357319D01*
X132477029Y-64357319D02*
X132248458Y-64357319D01*
X132248458Y-64357319D02*
X132172267Y-64309700D01*
X132172267Y-64309700D02*
X132134172Y-64262080D01*
X132896077Y-63690652D02*
X133086553Y-64357319D01*
X133086553Y-64357319D02*
X133277030Y-63690652D01*
X166722969Y-83677319D02*
X167218207Y-83677319D01*
X167218207Y-83677319D02*
X166951541Y-84058271D01*
X166951541Y-84058271D02*
X167065826Y-84058271D01*
X167065826Y-84058271D02*
X167142017Y-84105890D01*
X167142017Y-84105890D02*
X167180112Y-84153509D01*
X167180112Y-84153509D02*
X167218207Y-84248747D01*
X167218207Y-84248747D02*
X167218207Y-84486842D01*
X167218207Y-84486842D02*
X167180112Y-84582080D01*
X167180112Y-84582080D02*
X167142017Y-84629700D01*
X167142017Y-84629700D02*
X167065826Y-84677319D01*
X167065826Y-84677319D02*
X166837255Y-84677319D01*
X166837255Y-84677319D02*
X166761064Y-84629700D01*
X166761064Y-84629700D02*
X166722969Y-84582080D01*
X167675350Y-84105890D02*
X167599160Y-84058271D01*
X167599160Y-84058271D02*
X167561065Y-84010652D01*
X167561065Y-84010652D02*
X167522969Y-83915414D01*
X167522969Y-83915414D02*
X167522969Y-83867795D01*
X167522969Y-83867795D02*
X167561065Y-83772557D01*
X167561065Y-83772557D02*
X167599160Y-83724938D01*
X167599160Y-83724938D02*
X167675350Y-83677319D01*
X167675350Y-83677319D02*
X167827731Y-83677319D01*
X167827731Y-83677319D02*
X167903922Y-83724938D01*
X167903922Y-83724938D02*
X167942017Y-83772557D01*
X167942017Y-83772557D02*
X167980112Y-83867795D01*
X167980112Y-83867795D02*
X167980112Y-83915414D01*
X167980112Y-83915414D02*
X167942017Y-84010652D01*
X167942017Y-84010652D02*
X167903922Y-84058271D01*
X167903922Y-84058271D02*
X167827731Y-84105890D01*
X167827731Y-84105890D02*
X167675350Y-84105890D01*
X167675350Y-84105890D02*
X167599160Y-84153509D01*
X167599160Y-84153509D02*
X167561065Y-84201128D01*
X167561065Y-84201128D02*
X167522969Y-84296366D01*
X167522969Y-84296366D02*
X167522969Y-84486842D01*
X167522969Y-84486842D02*
X167561065Y-84582080D01*
X167561065Y-84582080D02*
X167599160Y-84629700D01*
X167599160Y-84629700D02*
X167675350Y-84677319D01*
X167675350Y-84677319D02*
X167827731Y-84677319D01*
X167827731Y-84677319D02*
X167903922Y-84629700D01*
X167903922Y-84629700D02*
X167942017Y-84582080D01*
X167942017Y-84582080D02*
X167980112Y-84486842D01*
X167980112Y-84486842D02*
X167980112Y-84296366D01*
X167980112Y-84296366D02*
X167942017Y-84201128D01*
X167942017Y-84201128D02*
X167903922Y-84153509D01*
X167903922Y-84153509D02*
X167827731Y-84105890D01*
X132857982Y-97377319D02*
X133010363Y-97377319D01*
X133010363Y-97377319D02*
X133086553Y-97329700D01*
X133086553Y-97329700D02*
X133124649Y-97282080D01*
X133124649Y-97282080D02*
X133200839Y-97139223D01*
X133200839Y-97139223D02*
X133238934Y-96948747D01*
X133238934Y-96948747D02*
X133238934Y-96567795D01*
X133238934Y-96567795D02*
X133200839Y-96472557D01*
X133200839Y-96472557D02*
X133162744Y-96424938D01*
X133162744Y-96424938D02*
X133086553Y-96377319D01*
X133086553Y-96377319D02*
X132934172Y-96377319D01*
X132934172Y-96377319D02*
X132857982Y-96424938D01*
X132857982Y-96424938D02*
X132819887Y-96472557D01*
X132819887Y-96472557D02*
X132781791Y-96567795D01*
X132781791Y-96567795D02*
X132781791Y-96805890D01*
X132781791Y-96805890D02*
X132819887Y-96901128D01*
X132819887Y-96901128D02*
X132857982Y-96948747D01*
X132857982Y-96948747D02*
X132934172Y-96996366D01*
X132934172Y-96996366D02*
X133086553Y-96996366D01*
X133086553Y-96996366D02*
X133162744Y-96948747D01*
X133162744Y-96948747D02*
X133200839Y-96901128D01*
X133200839Y-96901128D02*
X133238934Y-96805890D01*
X166722969Y-88757319D02*
X167218207Y-88757319D01*
X167218207Y-88757319D02*
X166951541Y-89138271D01*
X166951541Y-89138271D02*
X167065826Y-89138271D01*
X167065826Y-89138271D02*
X167142017Y-89185890D01*
X167142017Y-89185890D02*
X167180112Y-89233509D01*
X167180112Y-89233509D02*
X167218207Y-89328747D01*
X167218207Y-89328747D02*
X167218207Y-89566842D01*
X167218207Y-89566842D02*
X167180112Y-89662080D01*
X167180112Y-89662080D02*
X167142017Y-89709700D01*
X167142017Y-89709700D02*
X167065826Y-89757319D01*
X167065826Y-89757319D02*
X166837255Y-89757319D01*
X166837255Y-89757319D02*
X166761064Y-89709700D01*
X166761064Y-89709700D02*
X166722969Y-89662080D01*
X167903922Y-88757319D02*
X167751541Y-88757319D01*
X167751541Y-88757319D02*
X167675350Y-88804938D01*
X167675350Y-88804938D02*
X167637255Y-88852557D01*
X167637255Y-88852557D02*
X167561065Y-88995414D01*
X167561065Y-88995414D02*
X167522969Y-89185890D01*
X167522969Y-89185890D02*
X167522969Y-89566842D01*
X167522969Y-89566842D02*
X167561065Y-89662080D01*
X167561065Y-89662080D02*
X167599160Y-89709700D01*
X167599160Y-89709700D02*
X167675350Y-89757319D01*
X167675350Y-89757319D02*
X167827731Y-89757319D01*
X167827731Y-89757319D02*
X167903922Y-89709700D01*
X167903922Y-89709700D02*
X167942017Y-89662080D01*
X167942017Y-89662080D02*
X167980112Y-89566842D01*
X167980112Y-89566842D02*
X167980112Y-89328747D01*
X167980112Y-89328747D02*
X167942017Y-89233509D01*
X167942017Y-89233509D02*
X167903922Y-89185890D01*
X167903922Y-89185890D02*
X167827731Y-89138271D01*
X167827731Y-89138271D02*
X167675350Y-89138271D01*
X167675350Y-89138271D02*
X167599160Y-89185890D01*
X167599160Y-89185890D02*
X167561065Y-89233509D01*
X167561065Y-89233509D02*
X167522969Y-89328747D01*
X167142017Y-96710652D02*
X167142017Y-97377319D01*
X166951541Y-96329700D02*
X166761064Y-97043985D01*
X166761064Y-97043985D02*
X167256303Y-97043985D01*
X167942017Y-96377319D02*
X167561065Y-96377319D01*
X167561065Y-96377319D02*
X167522969Y-96853509D01*
X167522969Y-96853509D02*
X167561065Y-96805890D01*
X167561065Y-96805890D02*
X167637255Y-96758271D01*
X167637255Y-96758271D02*
X167827731Y-96758271D01*
X167827731Y-96758271D02*
X167903922Y-96805890D01*
X167903922Y-96805890D02*
X167942017Y-96853509D01*
X167942017Y-96853509D02*
X167980112Y-96948747D01*
X167980112Y-96948747D02*
X167980112Y-97186842D01*
X167980112Y-97186842D02*
X167942017Y-97282080D01*
X167942017Y-97282080D02*
X167903922Y-97329700D01*
X167903922Y-97329700D02*
X167827731Y-97377319D01*
X167827731Y-97377319D02*
X167637255Y-97377319D01*
X167637255Y-97377319D02*
X167561065Y-97329700D01*
X167561065Y-97329700D02*
X167522969Y-97282080D01*
X167256303Y-66897319D02*
X166989636Y-66421128D01*
X166799160Y-66897319D02*
X166799160Y-65897319D01*
X166799160Y-65897319D02*
X167103922Y-65897319D01*
X167103922Y-65897319D02*
X167180112Y-65944938D01*
X167180112Y-65944938D02*
X167218207Y-65992557D01*
X167218207Y-65992557D02*
X167256303Y-66087795D01*
X167256303Y-66087795D02*
X167256303Y-66230652D01*
X167256303Y-66230652D02*
X167218207Y-66325890D01*
X167218207Y-66325890D02*
X167180112Y-66373509D01*
X167180112Y-66373509D02*
X167103922Y-66421128D01*
X167103922Y-66421128D02*
X166799160Y-66421128D01*
X167522969Y-65897319D02*
X168056303Y-66897319D01*
X168056303Y-65897319D02*
X167522969Y-66897319D01*
X167142017Y-73850652D02*
X167142017Y-74517319D01*
X166951541Y-73469700D02*
X166761064Y-74183985D01*
X166761064Y-74183985D02*
X167256303Y-74183985D01*
X167522969Y-73612557D02*
X167561065Y-73564938D01*
X167561065Y-73564938D02*
X167637255Y-73517319D01*
X167637255Y-73517319D02*
X167827731Y-73517319D01*
X167827731Y-73517319D02*
X167903922Y-73564938D01*
X167903922Y-73564938D02*
X167942017Y-73612557D01*
X167942017Y-73612557D02*
X167980112Y-73707795D01*
X167980112Y-73707795D02*
X167980112Y-73803033D01*
X167980112Y-73803033D02*
X167942017Y-73945890D01*
X167942017Y-73945890D02*
X167484874Y-74517319D01*
X167484874Y-74517319D02*
X167980112Y-74517319D01*
X132443820Y-99878301D02*
X131986677Y-99878301D01*
X132215249Y-99878301D02*
X132215249Y-98878301D01*
X132215249Y-98878301D02*
X132139058Y-99021158D01*
X132139058Y-99021158D02*
X132062868Y-99116396D01*
X132062868Y-99116396D02*
X131986677Y-99164015D01*
X132939059Y-98878301D02*
X133015249Y-98878301D01*
X133015249Y-98878301D02*
X133091440Y-98925920D01*
X133091440Y-98925920D02*
X133129535Y-98973539D01*
X133129535Y-98973539D02*
X133167630Y-99068777D01*
X133167630Y-99068777D02*
X133205725Y-99259253D01*
X133205725Y-99259253D02*
X133205725Y-99497348D01*
X133205725Y-99497348D02*
X133167630Y-99687824D01*
X133167630Y-99687824D02*
X133129535Y-99783062D01*
X133129535Y-99783062D02*
X133091440Y-99830682D01*
X133091440Y-99830682D02*
X133015249Y-99878301D01*
X133015249Y-99878301D02*
X132939059Y-99878301D01*
X132939059Y-99878301D02*
X132862868Y-99830682D01*
X132862868Y-99830682D02*
X132824773Y-99783062D01*
X132824773Y-99783062D02*
X132786678Y-99687824D01*
X132786678Y-99687824D02*
X132748582Y-99497348D01*
X132748582Y-99497348D02*
X132748582Y-99259253D01*
X132748582Y-99259253D02*
X132786678Y-99068777D01*
X132786678Y-99068777D02*
X132824773Y-98973539D01*
X132824773Y-98973539D02*
X132862868Y-98925920D01*
X132862868Y-98925920D02*
X132939059Y-98878301D01*
X132743696Y-76057319D02*
X133277030Y-76057319D01*
X133277030Y-76057319D02*
X132934172Y-77057319D01*
X132477029Y-104997319D02*
X132019886Y-104997319D01*
X132248458Y-104997319D02*
X132248458Y-103997319D01*
X132248458Y-103997319D02*
X132172267Y-104140176D01*
X132172267Y-104140176D02*
X132096077Y-104235414D01*
X132096077Y-104235414D02*
X132019886Y-104283033D01*
X132781791Y-104092557D02*
X132819887Y-104044938D01*
X132819887Y-104044938D02*
X132896077Y-103997319D01*
X132896077Y-103997319D02*
X133086553Y-103997319D01*
X133086553Y-103997319D02*
X133162744Y-104044938D01*
X133162744Y-104044938D02*
X133200839Y-104092557D01*
X133200839Y-104092557D02*
X133238934Y-104187795D01*
X133238934Y-104187795D02*
X133238934Y-104283033D01*
X133238934Y-104283033D02*
X133200839Y-104425890D01*
X133200839Y-104425890D02*
X132743696Y-104997319D01*
X132743696Y-104997319D02*
X133238934Y-104997319D01*
X132400839Y-94170652D02*
X132400839Y-94837319D01*
X132210363Y-93789700D02*
X132019886Y-94503985D01*
X132019886Y-94503985D02*
X132515125Y-94503985D01*
X133162744Y-93837319D02*
X133010363Y-93837319D01*
X133010363Y-93837319D02*
X132934172Y-93884938D01*
X132934172Y-93884938D02*
X132896077Y-93932557D01*
X132896077Y-93932557D02*
X132819887Y-94075414D01*
X132819887Y-94075414D02*
X132781791Y-94265890D01*
X132781791Y-94265890D02*
X132781791Y-94646842D01*
X132781791Y-94646842D02*
X132819887Y-94742080D01*
X132819887Y-94742080D02*
X132857982Y-94789700D01*
X132857982Y-94789700D02*
X132934172Y-94837319D01*
X132934172Y-94837319D02*
X133086553Y-94837319D01*
X133086553Y-94837319D02*
X133162744Y-94789700D01*
X133162744Y-94789700D02*
X133200839Y-94742080D01*
X133200839Y-94742080D02*
X133238934Y-94646842D01*
X133238934Y-94646842D02*
X133238934Y-94408747D01*
X133238934Y-94408747D02*
X133200839Y-94313509D01*
X133200839Y-94313509D02*
X133162744Y-94265890D01*
X133162744Y-94265890D02*
X133086553Y-94218271D01*
X133086553Y-94218271D02*
X132934172Y-94218271D01*
X132934172Y-94218271D02*
X132857982Y-94265890D01*
X132857982Y-94265890D02*
X132819887Y-94313509D01*
X132819887Y-94313509D02*
X132781791Y-94408747D01*
X167142017Y-101790652D02*
X167142017Y-102457319D01*
X166951541Y-101409700D02*
X166761064Y-102123985D01*
X166761064Y-102123985D02*
X167256303Y-102123985D01*
X167484874Y-101457319D02*
X168018208Y-101457319D01*
X168018208Y-101457319D02*
X167675350Y-102457319D01*
X167218207Y-69437319D02*
X166761064Y-69437319D01*
X166989636Y-69437319D02*
X166989636Y-68437319D01*
X166989636Y-68437319D02*
X166913445Y-68580176D01*
X166913445Y-68580176D02*
X166837255Y-68675414D01*
X166837255Y-68675414D02*
X166761064Y-68723033D01*
X167142017Y-78930652D02*
X167142017Y-79597319D01*
X166951541Y-78549700D02*
X166761064Y-79263985D01*
X166761064Y-79263985D02*
X167256303Y-79263985D01*
X167713446Y-78597319D02*
X167789636Y-78597319D01*
X167789636Y-78597319D02*
X167865827Y-78644938D01*
X167865827Y-78644938D02*
X167903922Y-78692557D01*
X167903922Y-78692557D02*
X167942017Y-78787795D01*
X167942017Y-78787795D02*
X167980112Y-78978271D01*
X167980112Y-78978271D02*
X167980112Y-79216366D01*
X167980112Y-79216366D02*
X167942017Y-79406842D01*
X167942017Y-79406842D02*
X167903922Y-79502080D01*
X167903922Y-79502080D02*
X167865827Y-79549700D01*
X167865827Y-79549700D02*
X167789636Y-79597319D01*
X167789636Y-79597319D02*
X167713446Y-79597319D01*
X167713446Y-79597319D02*
X167637255Y-79549700D01*
X167637255Y-79549700D02*
X167599160Y-79502080D01*
X167599160Y-79502080D02*
X167561065Y-79406842D01*
X167561065Y-79406842D02*
X167522969Y-79216366D01*
X167522969Y-79216366D02*
X167522969Y-78978271D01*
X167522969Y-78978271D02*
X167561065Y-78787795D01*
X167561065Y-78787795D02*
X167599160Y-78692557D01*
X167599160Y-78692557D02*
X167637255Y-78644938D01*
X167637255Y-78644938D02*
X167713446Y-78597319D01*
X166684874Y-63357319D02*
X167142017Y-63357319D01*
X166913445Y-64357319D02*
X166913445Y-63357319D01*
X167332493Y-63357319D02*
X167865827Y-64357319D01*
X167865827Y-63357319D02*
X167332493Y-64357319D01*
X167218207Y-111664938D02*
X167142017Y-111617319D01*
X167142017Y-111617319D02*
X167027731Y-111617319D01*
X167027731Y-111617319D02*
X166913445Y-111664938D01*
X166913445Y-111664938D02*
X166837255Y-111760176D01*
X166837255Y-111760176D02*
X166799160Y-111855414D01*
X166799160Y-111855414D02*
X166761064Y-112045890D01*
X166761064Y-112045890D02*
X166761064Y-112188747D01*
X166761064Y-112188747D02*
X166799160Y-112379223D01*
X166799160Y-112379223D02*
X166837255Y-112474461D01*
X166837255Y-112474461D02*
X166913445Y-112569700D01*
X166913445Y-112569700D02*
X167027731Y-112617319D01*
X167027731Y-112617319D02*
X167103922Y-112617319D01*
X167103922Y-112617319D02*
X167218207Y-112569700D01*
X167218207Y-112569700D02*
X167256303Y-112522080D01*
X167256303Y-112522080D02*
X167256303Y-112188747D01*
X167256303Y-112188747D02*
X167103922Y-112188747D01*
X167599160Y-112617319D02*
X167599160Y-111617319D01*
X167599160Y-111617319D02*
X168056303Y-112617319D01*
X168056303Y-112617319D02*
X168056303Y-111617319D01*
X168437255Y-112617319D02*
X168437255Y-111617319D01*
X168437255Y-111617319D02*
X168627731Y-111617319D01*
X168627731Y-111617319D02*
X168742017Y-111664938D01*
X168742017Y-111664938D02*
X168818207Y-111760176D01*
X168818207Y-111760176D02*
X168856302Y-111855414D01*
X168856302Y-111855414D02*
X168894398Y-112045890D01*
X168894398Y-112045890D02*
X168894398Y-112188747D01*
X168894398Y-112188747D02*
X168856302Y-112379223D01*
X168856302Y-112379223D02*
X168818207Y-112474461D01*
X168818207Y-112474461D02*
X168742017Y-112569700D01*
X168742017Y-112569700D02*
X168627731Y-112617319D01*
X168627731Y-112617319D02*
X168437255Y-112617319D01*
X132019887Y-66373509D02*
X132286553Y-66373509D01*
X132400839Y-66897319D02*
X132019887Y-66897319D01*
X132019887Y-66897319D02*
X132019887Y-65897319D01*
X132019887Y-65897319D02*
X132400839Y-65897319D01*
X132743697Y-66897319D02*
X132743697Y-65897319D01*
X132743697Y-65897319D02*
X133200840Y-66897319D01*
X133200840Y-66897319D02*
X133200840Y-65897319D01*
X133129535Y-73516885D02*
X132977154Y-73516885D01*
X132977154Y-73516885D02*
X132900963Y-73564504D01*
X132900963Y-73564504D02*
X132862868Y-73612123D01*
X132862868Y-73612123D02*
X132786678Y-73754980D01*
X132786678Y-73754980D02*
X132748582Y-73945456D01*
X132748582Y-73945456D02*
X132748582Y-74326408D01*
X132748582Y-74326408D02*
X132786678Y-74421646D01*
X132786678Y-74421646D02*
X132824773Y-74469266D01*
X132824773Y-74469266D02*
X132900963Y-74516885D01*
X132900963Y-74516885D02*
X133053344Y-74516885D01*
X133053344Y-74516885D02*
X133129535Y-74469266D01*
X133129535Y-74469266D02*
X133167630Y-74421646D01*
X133167630Y-74421646D02*
X133205725Y-74326408D01*
X133205725Y-74326408D02*
X133205725Y-74088313D01*
X133205725Y-74088313D02*
X133167630Y-73993075D01*
X133167630Y-73993075D02*
X133129535Y-73945456D01*
X133129535Y-73945456D02*
X133053344Y-73897837D01*
X133053344Y-73897837D02*
X132900963Y-73897837D01*
X132900963Y-73897837D02*
X132824773Y-73945456D01*
X132824773Y-73945456D02*
X132786678Y-73993075D01*
X132786678Y-73993075D02*
X132748582Y-74088313D01*
X166761064Y-106632557D02*
X166799160Y-106584938D01*
X166799160Y-106584938D02*
X166875350Y-106537319D01*
X166875350Y-106537319D02*
X167065826Y-106537319D01*
X167065826Y-106537319D02*
X167142017Y-106584938D01*
X167142017Y-106584938D02*
X167180112Y-106632557D01*
X167180112Y-106632557D02*
X167218207Y-106727795D01*
X167218207Y-106727795D02*
X167218207Y-106823033D01*
X167218207Y-106823033D02*
X167180112Y-106965890D01*
X167180112Y-106965890D02*
X166722969Y-107537319D01*
X166722969Y-107537319D02*
X167218207Y-107537319D01*
X167713446Y-106537319D02*
X167789636Y-106537319D01*
X167789636Y-106537319D02*
X167865827Y-106584938D01*
X167865827Y-106584938D02*
X167903922Y-106632557D01*
X167903922Y-106632557D02*
X167942017Y-106727795D01*
X167942017Y-106727795D02*
X167980112Y-106918271D01*
X167980112Y-106918271D02*
X167980112Y-107156366D01*
X167980112Y-107156366D02*
X167942017Y-107346842D01*
X167942017Y-107346842D02*
X167903922Y-107442080D01*
X167903922Y-107442080D02*
X167865827Y-107489700D01*
X167865827Y-107489700D02*
X167789636Y-107537319D01*
X167789636Y-107537319D02*
X167713446Y-107537319D01*
X167713446Y-107537319D02*
X167637255Y-107489700D01*
X167637255Y-107489700D02*
X167599160Y-107442080D01*
X167599160Y-107442080D02*
X167561065Y-107346842D01*
X167561065Y-107346842D02*
X167522969Y-107156366D01*
X167522969Y-107156366D02*
X167522969Y-106918271D01*
X167522969Y-106918271D02*
X167561065Y-106727795D01*
X167561065Y-106727795D02*
X167599160Y-106632557D01*
X167599160Y-106632557D02*
X167637255Y-106584938D01*
X167637255Y-106584938D02*
X167713446Y-106537319D01*
X166761064Y-104092557D02*
X166799160Y-104044938D01*
X166799160Y-104044938D02*
X166875350Y-103997319D01*
X166875350Y-103997319D02*
X167065826Y-103997319D01*
X167065826Y-103997319D02*
X167142017Y-104044938D01*
X167142017Y-104044938D02*
X167180112Y-104092557D01*
X167180112Y-104092557D02*
X167218207Y-104187795D01*
X167218207Y-104187795D02*
X167218207Y-104283033D01*
X167218207Y-104283033D02*
X167180112Y-104425890D01*
X167180112Y-104425890D02*
X166722969Y-104997319D01*
X166722969Y-104997319D02*
X167218207Y-104997319D01*
X167980112Y-104997319D02*
X167522969Y-104997319D01*
X167751541Y-104997319D02*
X167751541Y-103997319D01*
X167751541Y-103997319D02*
X167675350Y-104140176D01*
X167675350Y-104140176D02*
X167599160Y-104235414D01*
X167599160Y-104235414D02*
X167522969Y-104283033D01*
X166722969Y-81137319D02*
X167218207Y-81137319D01*
X167218207Y-81137319D02*
X166951541Y-81518271D01*
X166951541Y-81518271D02*
X167065826Y-81518271D01*
X167065826Y-81518271D02*
X167142017Y-81565890D01*
X167142017Y-81565890D02*
X167180112Y-81613509D01*
X167180112Y-81613509D02*
X167218207Y-81708747D01*
X167218207Y-81708747D02*
X167218207Y-81946842D01*
X167218207Y-81946842D02*
X167180112Y-82042080D01*
X167180112Y-82042080D02*
X167142017Y-82089700D01*
X167142017Y-82089700D02*
X167065826Y-82137319D01*
X167065826Y-82137319D02*
X166837255Y-82137319D01*
X166837255Y-82137319D02*
X166761064Y-82089700D01*
X166761064Y-82089700D02*
X166722969Y-82042080D01*
X167599160Y-82137319D02*
X167751541Y-82137319D01*
X167751541Y-82137319D02*
X167827731Y-82089700D01*
X167827731Y-82089700D02*
X167865827Y-82042080D01*
X167865827Y-82042080D02*
X167942017Y-81899223D01*
X167942017Y-81899223D02*
X167980112Y-81708747D01*
X167980112Y-81708747D02*
X167980112Y-81327795D01*
X167980112Y-81327795D02*
X167942017Y-81232557D01*
X167942017Y-81232557D02*
X167903922Y-81184938D01*
X167903922Y-81184938D02*
X167827731Y-81137319D01*
X167827731Y-81137319D02*
X167675350Y-81137319D01*
X167675350Y-81137319D02*
X167599160Y-81184938D01*
X167599160Y-81184938D02*
X167561065Y-81232557D01*
X167561065Y-81232557D02*
X167522969Y-81327795D01*
X167522969Y-81327795D02*
X167522969Y-81565890D01*
X167522969Y-81565890D02*
X167561065Y-81661128D01*
X167561065Y-81661128D02*
X167599160Y-81708747D01*
X167599160Y-81708747D02*
X167675350Y-81756366D01*
X167675350Y-81756366D02*
X167827731Y-81756366D01*
X167827731Y-81756366D02*
X167903922Y-81708747D01*
X167903922Y-81708747D02*
X167942017Y-81661128D01*
X167942017Y-81661128D02*
X167980112Y-81565890D01*
X167218207Y-110077319D02*
X166761064Y-110077319D01*
X166989636Y-110077319D02*
X166989636Y-109077319D01*
X166989636Y-109077319D02*
X166913445Y-109220176D01*
X166913445Y-109220176D02*
X166837255Y-109315414D01*
X166837255Y-109315414D02*
X166761064Y-109363033D01*
X167599160Y-110077319D02*
X167751541Y-110077319D01*
X167751541Y-110077319D02*
X167827731Y-110029700D01*
X167827731Y-110029700D02*
X167865827Y-109982080D01*
X167865827Y-109982080D02*
X167942017Y-109839223D01*
X167942017Y-109839223D02*
X167980112Y-109648747D01*
X167980112Y-109648747D02*
X167980112Y-109267795D01*
X167980112Y-109267795D02*
X167942017Y-109172557D01*
X167942017Y-109172557D02*
X167903922Y-109124938D01*
X167903922Y-109124938D02*
X167827731Y-109077319D01*
X167827731Y-109077319D02*
X167675350Y-109077319D01*
X167675350Y-109077319D02*
X167599160Y-109124938D01*
X167599160Y-109124938D02*
X167561065Y-109172557D01*
X167561065Y-109172557D02*
X167522969Y-109267795D01*
X167522969Y-109267795D02*
X167522969Y-109505890D01*
X167522969Y-109505890D02*
X167561065Y-109601128D01*
X167561065Y-109601128D02*
X167599160Y-109648747D01*
X167599160Y-109648747D02*
X167675350Y-109696366D01*
X167675350Y-109696366D02*
X167827731Y-109696366D01*
X167827731Y-109696366D02*
X167903922Y-109648747D01*
X167903922Y-109648747D02*
X167942017Y-109601128D01*
X167942017Y-109601128D02*
X167980112Y-109505890D01*
X132743696Y-91297319D02*
X133238934Y-91297319D01*
X133238934Y-91297319D02*
X132972268Y-91678271D01*
X132972268Y-91678271D02*
X133086553Y-91678271D01*
X133086553Y-91678271D02*
X133162744Y-91725890D01*
X133162744Y-91725890D02*
X133200839Y-91773509D01*
X133200839Y-91773509D02*
X133238934Y-91868747D01*
X133238934Y-91868747D02*
X133238934Y-92106842D01*
X133238934Y-92106842D02*
X133200839Y-92202080D01*
X133200839Y-92202080D02*
X133162744Y-92249700D01*
X133162744Y-92249700D02*
X133086553Y-92297319D01*
X133086553Y-92297319D02*
X132857982Y-92297319D01*
X132857982Y-92297319D02*
X132781791Y-92249700D01*
X132781791Y-92249700D02*
X132743696Y-92202080D01*
X132934172Y-89185890D02*
X132857982Y-89138271D01*
X132857982Y-89138271D02*
X132819887Y-89090652D01*
X132819887Y-89090652D02*
X132781791Y-88995414D01*
X132781791Y-88995414D02*
X132781791Y-88947795D01*
X132781791Y-88947795D02*
X132819887Y-88852557D01*
X132819887Y-88852557D02*
X132857982Y-88804938D01*
X132857982Y-88804938D02*
X132934172Y-88757319D01*
X132934172Y-88757319D02*
X133086553Y-88757319D01*
X133086553Y-88757319D02*
X133162744Y-88804938D01*
X133162744Y-88804938D02*
X133200839Y-88852557D01*
X133200839Y-88852557D02*
X133238934Y-88947795D01*
X133238934Y-88947795D02*
X133238934Y-88995414D01*
X133238934Y-88995414D02*
X133200839Y-89090652D01*
X133200839Y-89090652D02*
X133162744Y-89138271D01*
X133162744Y-89138271D02*
X133086553Y-89185890D01*
X133086553Y-89185890D02*
X132934172Y-89185890D01*
X132934172Y-89185890D02*
X132857982Y-89233509D01*
X132857982Y-89233509D02*
X132819887Y-89281128D01*
X132819887Y-89281128D02*
X132781791Y-89376366D01*
X132781791Y-89376366D02*
X132781791Y-89566842D01*
X132781791Y-89566842D02*
X132819887Y-89662080D01*
X132819887Y-89662080D02*
X132857982Y-89709700D01*
X132857982Y-89709700D02*
X132934172Y-89757319D01*
X132934172Y-89757319D02*
X133086553Y-89757319D01*
X133086553Y-89757319D02*
X133162744Y-89709700D01*
X133162744Y-89709700D02*
X133200839Y-89662080D01*
X133200839Y-89662080D02*
X133238934Y-89566842D01*
X133238934Y-89566842D02*
X133238934Y-89376366D01*
X133238934Y-89376366D02*
X133200839Y-89281128D01*
X133200839Y-89281128D02*
X133162744Y-89233509D01*
X133162744Y-89233509D02*
X133086553Y-89185890D01*
X166722969Y-91297319D02*
X167218207Y-91297319D01*
X167218207Y-91297319D02*
X166951541Y-91678271D01*
X166951541Y-91678271D02*
X167065826Y-91678271D01*
X167065826Y-91678271D02*
X167142017Y-91725890D01*
X167142017Y-91725890D02*
X167180112Y-91773509D01*
X167180112Y-91773509D02*
X167218207Y-91868747D01*
X167218207Y-91868747D02*
X167218207Y-92106842D01*
X167218207Y-92106842D02*
X167180112Y-92202080D01*
X167180112Y-92202080D02*
X167142017Y-92249700D01*
X167142017Y-92249700D02*
X167065826Y-92297319D01*
X167065826Y-92297319D02*
X166837255Y-92297319D01*
X166837255Y-92297319D02*
X166761064Y-92249700D01*
X166761064Y-92249700D02*
X166722969Y-92202080D01*
X167942017Y-91297319D02*
X167561065Y-91297319D01*
X167561065Y-91297319D02*
X167522969Y-91773509D01*
X167522969Y-91773509D02*
X167561065Y-91725890D01*
X167561065Y-91725890D02*
X167637255Y-91678271D01*
X167637255Y-91678271D02*
X167827731Y-91678271D01*
X167827731Y-91678271D02*
X167903922Y-91725890D01*
X167903922Y-91725890D02*
X167942017Y-91773509D01*
X167942017Y-91773509D02*
X167980112Y-91868747D01*
X167980112Y-91868747D02*
X167980112Y-92106842D01*
X167980112Y-92106842D02*
X167942017Y-92202080D01*
X167942017Y-92202080D02*
X167903922Y-92249700D01*
X167903922Y-92249700D02*
X167827731Y-92297319D01*
X167827731Y-92297319D02*
X167637255Y-92297319D01*
X167637255Y-92297319D02*
X167561065Y-92249700D01*
X167561065Y-92249700D02*
X167522969Y-92202080D01*
D11*
X191341266Y-111688877D02*
X190375340Y-111430058D01*
X190375340Y-111430058D02*
X190424639Y-111246072D01*
X190424639Y-111246072D02*
X190500215Y-111148005D01*
X190500215Y-111148005D02*
X190611927Y-111099060D01*
X190611927Y-111099060D02*
X190713780Y-111086913D01*
X190713780Y-111086913D02*
X190907626Y-111099414D01*
X190907626Y-111099414D02*
X191045615Y-111136389D01*
X191045615Y-111136389D02*
X191219741Y-111222485D01*
X191219741Y-111222485D02*
X191301874Y-111283931D01*
X191301874Y-111283931D02*
X191374148Y-111382175D01*
X191374148Y-111382175D02*
X191390565Y-111504891D01*
X191390565Y-111504891D02*
X191341266Y-111688877D01*
X190671133Y-110326143D02*
X190631694Y-110473332D01*
X190631694Y-110473332D02*
X190657971Y-110559251D01*
X190657971Y-110559251D02*
X190694108Y-110608372D01*
X190694108Y-110608372D02*
X190812378Y-110718941D01*
X190812378Y-110718941D02*
X190986504Y-110805037D01*
X190986504Y-110805037D02*
X191354476Y-110903635D01*
X191354476Y-110903635D02*
X191456328Y-110891487D01*
X191456328Y-110891487D02*
X191512185Y-110867015D01*
X191512185Y-110867015D02*
X191577901Y-110805745D01*
X191577901Y-110805745D02*
X191617340Y-110658556D01*
X191617340Y-110658556D02*
X191591063Y-110572637D01*
X191591063Y-110572637D02*
X191554926Y-110523515D01*
X191554926Y-110523515D02*
X191472793Y-110462069D01*
X191472793Y-110462069D02*
X191242811Y-110400445D01*
X191242811Y-110400445D02*
X191140958Y-110412593D01*
X191140958Y-110412593D02*
X191085102Y-110437065D01*
X191085102Y-110437065D02*
X191019386Y-110498335D01*
X191019386Y-110498335D02*
X190979946Y-110645524D01*
X190979946Y-110645524D02*
X191006223Y-110731443D01*
X191006223Y-110731443D02*
X191042360Y-110780565D01*
X191042360Y-110780565D02*
X191124493Y-110842011D01*
D10*
X192326689Y-115342218D02*
X192178793Y-115894176D01*
X192252741Y-115618197D02*
X191286815Y-115359378D01*
X191286815Y-115359378D02*
X191400155Y-115488345D01*
X191400155Y-115488345D02*
X191467499Y-115604987D01*
X191467499Y-115604987D02*
X191488846Y-115709305D01*
D11*
X124866667Y-109457419D02*
X124600000Y-108981228D01*
X124409524Y-109457419D02*
X124409524Y-108457419D01*
X124409524Y-108457419D02*
X124714286Y-108457419D01*
X124714286Y-108457419D02*
X124790476Y-108505038D01*
X124790476Y-108505038D02*
X124828571Y-108552657D01*
X124828571Y-108552657D02*
X124866667Y-108647895D01*
X124866667Y-108647895D02*
X124866667Y-108790752D01*
X124866667Y-108790752D02*
X124828571Y-108885990D01*
X124828571Y-108885990D02*
X124790476Y-108933609D01*
X124790476Y-108933609D02*
X124714286Y-108981228D01*
X124714286Y-108981228D02*
X124409524Y-108981228D01*
X125628571Y-109457419D02*
X125171428Y-109457419D01*
X125400000Y-109457419D02*
X125400000Y-108457419D01*
X125400000Y-108457419D02*
X125323809Y-108600276D01*
X125323809Y-108600276D02*
X125247619Y-108695514D01*
X125247619Y-108695514D02*
X125171428Y-108743133D01*
X119866667Y-109457419D02*
X119600000Y-108981228D01*
X119409524Y-109457419D02*
X119409524Y-108457419D01*
X119409524Y-108457419D02*
X119714286Y-108457419D01*
X119714286Y-108457419D02*
X119790476Y-108505038D01*
X119790476Y-108505038D02*
X119828571Y-108552657D01*
X119828571Y-108552657D02*
X119866667Y-108647895D01*
X119866667Y-108647895D02*
X119866667Y-108790752D01*
X119866667Y-108790752D02*
X119828571Y-108885990D01*
X119828571Y-108885990D02*
X119790476Y-108933609D01*
X119790476Y-108933609D02*
X119714286Y-108981228D01*
X119714286Y-108981228D02*
X119409524Y-108981228D01*
X120171428Y-108552657D02*
X120209524Y-108505038D01*
X120209524Y-108505038D02*
X120285714Y-108457419D01*
X120285714Y-108457419D02*
X120476190Y-108457419D01*
X120476190Y-108457419D02*
X120552381Y-108505038D01*
X120552381Y-108505038D02*
X120590476Y-108552657D01*
X120590476Y-108552657D02*
X120628571Y-108647895D01*
X120628571Y-108647895D02*
X120628571Y-108743133D01*
X120628571Y-108743133D02*
X120590476Y-108885990D01*
X120590476Y-108885990D02*
X120133333Y-109457419D01*
X120133333Y-109457419D02*
X120628571Y-109457419D01*
X124366666Y-115457419D02*
X123985714Y-115457419D01*
X123985714Y-115457419D02*
X123985714Y-114457419D01*
X125052380Y-115457419D02*
X124595237Y-115457419D01*
X124823809Y-115457419D02*
X124823809Y-114457419D01*
X124823809Y-114457419D02*
X124747618Y-114600276D01*
X124747618Y-114600276D02*
X124671428Y-114695514D01*
X124671428Y-114695514D02*
X124595237Y-114743133D01*
X128990476Y-107957419D02*
X129447619Y-107957419D01*
X129219047Y-108957419D02*
X129219047Y-107957419D01*
X129714286Y-108957419D02*
X129714286Y-107957419D01*
X129714286Y-107957419D02*
X130019048Y-107957419D01*
X130019048Y-107957419D02*
X130095238Y-108005038D01*
X130095238Y-108005038D02*
X130133333Y-108052657D01*
X130133333Y-108052657D02*
X130171429Y-108147895D01*
X130171429Y-108147895D02*
X130171429Y-108290752D01*
X130171429Y-108290752D02*
X130133333Y-108385990D01*
X130133333Y-108385990D02*
X130095238Y-108433609D01*
X130095238Y-108433609D02*
X130019048Y-108481228D01*
X130019048Y-108481228D02*
X129714286Y-108481228D01*
X130857143Y-108290752D02*
X130857143Y-108957419D01*
X130666667Y-107909800D02*
X130476190Y-108624085D01*
X130476190Y-108624085D02*
X130971429Y-108624085D01*
X153866667Y-114862180D02*
X153828571Y-114909800D01*
X153828571Y-114909800D02*
X153714286Y-114957419D01*
X153714286Y-114957419D02*
X153638095Y-114957419D01*
X153638095Y-114957419D02*
X153523809Y-114909800D01*
X153523809Y-114909800D02*
X153447619Y-114814561D01*
X153447619Y-114814561D02*
X153409524Y-114719323D01*
X153409524Y-114719323D02*
X153371428Y-114528847D01*
X153371428Y-114528847D02*
X153371428Y-114385990D01*
X153371428Y-114385990D02*
X153409524Y-114195514D01*
X153409524Y-114195514D02*
X153447619Y-114100276D01*
X153447619Y-114100276D02*
X153523809Y-114005038D01*
X153523809Y-114005038D02*
X153638095Y-113957419D01*
X153638095Y-113957419D02*
X153714286Y-113957419D01*
X153714286Y-113957419D02*
X153828571Y-114005038D01*
X153828571Y-114005038D02*
X153866667Y-114052657D01*
X154552381Y-114290752D02*
X154552381Y-114957419D01*
X154361905Y-113909800D02*
X154171428Y-114624085D01*
X154171428Y-114624085D02*
X154666667Y-114624085D01*
X109138148Y-90056583D02*
X108172222Y-89797764D01*
X108172222Y-89797764D02*
X108221521Y-89613779D01*
X108221521Y-89613779D02*
X108297097Y-89515712D01*
X108297097Y-89515712D02*
X108408809Y-89466767D01*
X108408809Y-89466767D02*
X108510662Y-89454619D01*
X108510662Y-89454619D02*
X108704508Y-89467121D01*
X108704508Y-89467121D02*
X108842497Y-89504095D01*
X108842497Y-89504095D02*
X109016623Y-89590191D01*
X109016623Y-89590191D02*
X109098756Y-89651638D01*
X109098756Y-89651638D02*
X109171030Y-89749881D01*
X109171030Y-89749881D02*
X109187447Y-89872598D01*
X109187447Y-89872598D02*
X109138148Y-90056583D01*
X109453661Y-88879074D02*
X109335344Y-89320640D01*
X109394502Y-89099857D02*
X108428576Y-88841038D01*
X108428576Y-88841038D02*
X108546846Y-88951606D01*
X108546846Y-88951606D02*
X108619120Y-89049850D01*
X108619120Y-89049850D02*
X108645397Y-89135769D01*
X108658606Y-88350527D02*
X108622469Y-88301405D01*
X108622469Y-88301405D02*
X108596193Y-88215486D01*
X108596193Y-88215486D02*
X108645491Y-88031500D01*
X108645491Y-88031500D02*
X108711207Y-87970230D01*
X108711207Y-87970230D02*
X108767064Y-87945758D01*
X108767064Y-87945758D02*
X108868916Y-87933610D01*
X108868916Y-87933610D02*
X108960909Y-87958259D01*
X108960909Y-87958259D02*
X109089039Y-88032031D01*
X109089039Y-88032031D02*
X109522679Y-88621493D01*
X109522679Y-88621493D02*
X109650856Y-88143130D01*
D10*
X108699849Y-84341254D02*
X108551953Y-84893212D01*
X108625901Y-84617233D02*
X107659975Y-84358414D01*
X107659975Y-84358414D02*
X107773315Y-84487381D01*
X107773315Y-84487381D02*
X107840659Y-84604023D01*
X107840659Y-84604023D02*
X107862006Y-84708341D01*
D11*
X149866667Y-58957419D02*
X149600000Y-58481228D01*
X149409524Y-58957419D02*
X149409524Y-57957419D01*
X149409524Y-57957419D02*
X149714286Y-57957419D01*
X149714286Y-57957419D02*
X149790476Y-58005038D01*
X149790476Y-58005038D02*
X149828571Y-58052657D01*
X149828571Y-58052657D02*
X149866667Y-58147895D01*
X149866667Y-58147895D02*
X149866667Y-58290752D01*
X149866667Y-58290752D02*
X149828571Y-58385990D01*
X149828571Y-58385990D02*
X149790476Y-58433609D01*
X149790476Y-58433609D02*
X149714286Y-58481228D01*
X149714286Y-58481228D02*
X149409524Y-58481228D01*
X150133333Y-57957419D02*
X150628571Y-57957419D01*
X150628571Y-57957419D02*
X150361905Y-58338371D01*
X150361905Y-58338371D02*
X150476190Y-58338371D01*
X150476190Y-58338371D02*
X150552381Y-58385990D01*
X150552381Y-58385990D02*
X150590476Y-58433609D01*
X150590476Y-58433609D02*
X150628571Y-58528847D01*
X150628571Y-58528847D02*
X150628571Y-58766942D01*
X150628571Y-58766942D02*
X150590476Y-58862180D01*
X150590476Y-58862180D02*
X150552381Y-58909800D01*
X150552381Y-58909800D02*
X150476190Y-58957419D01*
X150476190Y-58957419D02*
X150247619Y-58957419D01*
X150247619Y-58957419D02*
X150171428Y-58909800D01*
X150171428Y-58909800D02*
X150133333Y-58862180D01*
X129409524Y-115957419D02*
X129409524Y-114957419D01*
X129409524Y-114957419D02*
X129600000Y-114957419D01*
X129600000Y-114957419D02*
X129714286Y-115005038D01*
X129714286Y-115005038D02*
X129790476Y-115100276D01*
X129790476Y-115100276D02*
X129828571Y-115195514D01*
X129828571Y-115195514D02*
X129866667Y-115385990D01*
X129866667Y-115385990D02*
X129866667Y-115528847D01*
X129866667Y-115528847D02*
X129828571Y-115719323D01*
X129828571Y-115719323D02*
X129790476Y-115814561D01*
X129790476Y-115814561D02*
X129714286Y-115909800D01*
X129714286Y-115909800D02*
X129600000Y-115957419D01*
X129600000Y-115957419D02*
X129409524Y-115957419D01*
X130628571Y-115957419D02*
X130171428Y-115957419D01*
X130400000Y-115957419D02*
X130400000Y-114957419D01*
X130400000Y-114957419D02*
X130323809Y-115100276D01*
X130323809Y-115100276D02*
X130247619Y-115195514D01*
X130247619Y-115195514D02*
X130171428Y-115243133D01*
X154733333Y-134957419D02*
X154733333Y-135671704D01*
X154733333Y-135671704D02*
X154695238Y-135814561D01*
X154695238Y-135814561D02*
X154619047Y-135909800D01*
X154619047Y-135909800D02*
X154504762Y-135957419D01*
X154504762Y-135957419D02*
X154428571Y-135957419D01*
X155457143Y-135290752D02*
X155457143Y-135957419D01*
X155266667Y-134909800D02*
X155076190Y-135624085D01*
X155076190Y-135624085D02*
X155571429Y-135624085D01*
X142866667Y-114862180D02*
X142828571Y-114909800D01*
X142828571Y-114909800D02*
X142714286Y-114957419D01*
X142714286Y-114957419D02*
X142638095Y-114957419D01*
X142638095Y-114957419D02*
X142523809Y-114909800D01*
X142523809Y-114909800D02*
X142447619Y-114814561D01*
X142447619Y-114814561D02*
X142409524Y-114719323D01*
X142409524Y-114719323D02*
X142371428Y-114528847D01*
X142371428Y-114528847D02*
X142371428Y-114385990D01*
X142371428Y-114385990D02*
X142409524Y-114195514D01*
X142409524Y-114195514D02*
X142447619Y-114100276D01*
X142447619Y-114100276D02*
X142523809Y-114005038D01*
X142523809Y-114005038D02*
X142638095Y-113957419D01*
X142638095Y-113957419D02*
X142714286Y-113957419D01*
X142714286Y-113957419D02*
X142828571Y-114005038D01*
X142828571Y-114005038D02*
X142866667Y-114052657D01*
X143552381Y-113957419D02*
X143400000Y-113957419D01*
X143400000Y-113957419D02*
X143323809Y-114005038D01*
X143323809Y-114005038D02*
X143285714Y-114052657D01*
X143285714Y-114052657D02*
X143209524Y-114195514D01*
X143209524Y-114195514D02*
X143171428Y-114385990D01*
X143171428Y-114385990D02*
X143171428Y-114766942D01*
X143171428Y-114766942D02*
X143209524Y-114862180D01*
X143209524Y-114862180D02*
X143247619Y-114909800D01*
X143247619Y-114909800D02*
X143323809Y-114957419D01*
X143323809Y-114957419D02*
X143476190Y-114957419D01*
X143476190Y-114957419D02*
X143552381Y-114909800D01*
X143552381Y-114909800D02*
X143590476Y-114862180D01*
X143590476Y-114862180D02*
X143628571Y-114766942D01*
X143628571Y-114766942D02*
X143628571Y-114528847D01*
X143628571Y-114528847D02*
X143590476Y-114433609D01*
X143590476Y-114433609D02*
X143552381Y-114385990D01*
X143552381Y-114385990D02*
X143476190Y-114338371D01*
X143476190Y-114338371D02*
X143323809Y-114338371D01*
X143323809Y-114338371D02*
X143247619Y-114385990D01*
X143247619Y-114385990D02*
X143209524Y-114433609D01*
X143209524Y-114433609D02*
X143171428Y-114528847D01*
X138311122Y-141341266D02*
X138569941Y-140375340D01*
X138569941Y-140375340D02*
X138753927Y-140424639D01*
X138753927Y-140424639D02*
X138851994Y-140500215D01*
X138851994Y-140500215D02*
X138900939Y-140611927D01*
X138900939Y-140611927D02*
X138913086Y-140713780D01*
X138913086Y-140713780D02*
X138900585Y-140907626D01*
X138900585Y-140907626D02*
X138863610Y-141045615D01*
X138863610Y-141045615D02*
X138777514Y-141219741D01*
X138777514Y-141219741D02*
X138716068Y-141301874D01*
X138716068Y-141301874D02*
X138617824Y-141374148D01*
X138617824Y-141374148D02*
X138495108Y-141390565D01*
X138495108Y-141390565D02*
X138311122Y-141341266D01*
X139120660Y-141558181D02*
X139267848Y-141597620D01*
X139267848Y-141597620D02*
X139353768Y-141571343D01*
X139353768Y-141571343D02*
X139402889Y-141535206D01*
X139402889Y-141535206D02*
X139513458Y-141416937D01*
X139513458Y-141416937D02*
X139599554Y-141242811D01*
X139599554Y-141242811D02*
X139698152Y-140874839D01*
X139698152Y-140874839D02*
X139686004Y-140772986D01*
X139686004Y-140772986D02*
X139661531Y-140717130D01*
X139661531Y-140717130D02*
X139600262Y-140651414D01*
X139600262Y-140651414D02*
X139453073Y-140611975D01*
X139453073Y-140611975D02*
X139367154Y-140638252D01*
X139367154Y-140638252D02*
X139318032Y-140674388D01*
X139318032Y-140674388D02*
X139256586Y-140756521D01*
X139256586Y-140756521D02*
X139194962Y-140986504D01*
X139194962Y-140986504D02*
X139207110Y-141088357D01*
X139207110Y-141088357D02*
X139231582Y-141144213D01*
X139231582Y-141144213D02*
X139292852Y-141209929D01*
X139292852Y-141209929D02*
X139440041Y-141249368D01*
X139440041Y-141249368D02*
X139525960Y-141223091D01*
X139525960Y-141223091D02*
X139575081Y-141186954D01*
X139575081Y-141186954D02*
X139636528Y-141104821D01*
D10*
X134657781Y-142326689D02*
X134105823Y-142178793D01*
X134381802Y-142252741D02*
X134640621Y-141286815D01*
X134640621Y-141286815D02*
X134511654Y-141400155D01*
X134511654Y-141400155D02*
X134395012Y-141467499D01*
X134395012Y-141467499D02*
X134290694Y-141488846D01*
D11*
X152909524Y-55957419D02*
X152909524Y-54957419D01*
X152909524Y-54957419D02*
X153100000Y-54957419D01*
X153100000Y-54957419D02*
X153214286Y-55005038D01*
X153214286Y-55005038D02*
X153290476Y-55100276D01*
X153290476Y-55100276D02*
X153328571Y-55195514D01*
X153328571Y-55195514D02*
X153366667Y-55385990D01*
X153366667Y-55385990D02*
X153366667Y-55528847D01*
X153366667Y-55528847D02*
X153328571Y-55719323D01*
X153328571Y-55719323D02*
X153290476Y-55814561D01*
X153290476Y-55814561D02*
X153214286Y-55909800D01*
X153214286Y-55909800D02*
X153100000Y-55957419D01*
X153100000Y-55957419D02*
X152909524Y-55957419D01*
X153671428Y-55052657D02*
X153709524Y-55005038D01*
X153709524Y-55005038D02*
X153785714Y-54957419D01*
X153785714Y-54957419D02*
X153976190Y-54957419D01*
X153976190Y-54957419D02*
X154052381Y-55005038D01*
X154052381Y-55005038D02*
X154090476Y-55052657D01*
X154090476Y-55052657D02*
X154128571Y-55147895D01*
X154128571Y-55147895D02*
X154128571Y-55243133D01*
X154128571Y-55243133D02*
X154090476Y-55385990D01*
X154090476Y-55385990D02*
X153633333Y-55957419D01*
X153633333Y-55957419D02*
X154128571Y-55957419D01*
X159990476Y-116457419D02*
X160447619Y-116457419D01*
X160219047Y-117457419D02*
X160219047Y-116457419D01*
X160714286Y-117457419D02*
X160714286Y-116457419D01*
X160714286Y-116457419D02*
X161019048Y-116457419D01*
X161019048Y-116457419D02*
X161095238Y-116505038D01*
X161095238Y-116505038D02*
X161133333Y-116552657D01*
X161133333Y-116552657D02*
X161171429Y-116647895D01*
X161171429Y-116647895D02*
X161171429Y-116790752D01*
X161171429Y-116790752D02*
X161133333Y-116885990D01*
X161133333Y-116885990D02*
X161095238Y-116933609D01*
X161095238Y-116933609D02*
X161019048Y-116981228D01*
X161019048Y-116981228D02*
X160714286Y-116981228D01*
X161933333Y-117457419D02*
X161476190Y-117457419D01*
X161704762Y-117457419D02*
X161704762Y-116457419D01*
X161704762Y-116457419D02*
X161628571Y-116600276D01*
X161628571Y-116600276D02*
X161552381Y-116695514D01*
X161552381Y-116695514D02*
X161476190Y-116743133D01*
X144733333Y-134957419D02*
X144733333Y-135671704D01*
X144733333Y-135671704D02*
X144695238Y-135814561D01*
X144695238Y-135814561D02*
X144619047Y-135909800D01*
X144619047Y-135909800D02*
X144504762Y-135957419D01*
X144504762Y-135957419D02*
X144428571Y-135957419D01*
X145038095Y-134957419D02*
X145533333Y-134957419D01*
X145533333Y-134957419D02*
X145266667Y-135338371D01*
X145266667Y-135338371D02*
X145380952Y-135338371D01*
X145380952Y-135338371D02*
X145457143Y-135385990D01*
X145457143Y-135385990D02*
X145495238Y-135433609D01*
X145495238Y-135433609D02*
X145533333Y-135528847D01*
X145533333Y-135528847D02*
X145533333Y-135766942D01*
X145533333Y-135766942D02*
X145495238Y-135862180D01*
X145495238Y-135862180D02*
X145457143Y-135909800D01*
X145457143Y-135909800D02*
X145380952Y-135957419D01*
X145380952Y-135957419D02*
X145152381Y-135957419D01*
X145152381Y-135957419D02*
X145076190Y-135909800D01*
X145076190Y-135909800D02*
X145038095Y-135862180D01*
X179311152Y-69853788D02*
X180018259Y-69146681D01*
X180018259Y-69146681D02*
X180152946Y-69281368D01*
X180152946Y-69281368D02*
X180200086Y-69395852D01*
X180200086Y-69395852D02*
X180186617Y-69517071D01*
X180186617Y-69517071D02*
X180146211Y-69611352D01*
X180146211Y-69611352D02*
X180038462Y-69772976D01*
X180038462Y-69772976D02*
X179937447Y-69873991D01*
X179937447Y-69873991D02*
X179775822Y-69981741D01*
X179775822Y-69981741D02*
X179681541Y-70022147D01*
X179681541Y-70022147D02*
X179560323Y-70035616D01*
X179560323Y-70035616D02*
X179445839Y-69988475D01*
X179445839Y-69988475D02*
X179311152Y-69853788D01*
X180590678Y-70190506D02*
X180119274Y-70661910D01*
X180725366Y-69786445D02*
X180085602Y-70156834D01*
X180085602Y-70156834D02*
X180435788Y-70507020D01*
D10*
X184210547Y-72062500D02*
X183806486Y-71658439D01*
X184008516Y-71860469D02*
X184715623Y-71153363D01*
X184715623Y-71153363D02*
X184547264Y-71187034D01*
X184547264Y-71187034D02*
X184412577Y-71187034D01*
X184412577Y-71187034D02*
X184311562Y-71153363D01*
D11*
X149390476Y-89457419D02*
X149390476Y-90266942D01*
X149390476Y-90266942D02*
X149428571Y-90362180D01*
X149428571Y-90362180D02*
X149466666Y-90409800D01*
X149466666Y-90409800D02*
X149542857Y-90457419D01*
X149542857Y-90457419D02*
X149695238Y-90457419D01*
X149695238Y-90457419D02*
X149771428Y-90409800D01*
X149771428Y-90409800D02*
X149809523Y-90362180D01*
X149809523Y-90362180D02*
X149847619Y-90266942D01*
X149847619Y-90266942D02*
X149847619Y-89457419D01*
X150571428Y-89790752D02*
X150571428Y-90457419D01*
X150380952Y-89409800D02*
X150190475Y-90124085D01*
X150190475Y-90124085D02*
X150685714Y-90124085D01*
X160548165Y-141646919D02*
X160289346Y-140680993D01*
X160289346Y-140680993D02*
X160473332Y-140631694D01*
X160473332Y-140631694D02*
X160596048Y-140648111D01*
X160596048Y-140648111D02*
X160694292Y-140720385D01*
X160694292Y-140720385D02*
X160755739Y-140802518D01*
X160755739Y-140802518D02*
X160841835Y-140976644D01*
X160841835Y-140976644D02*
X160878809Y-141114633D01*
X160878809Y-141114633D02*
X160891311Y-141308479D01*
X160891311Y-141308479D02*
X160879163Y-141410332D01*
X160879163Y-141410332D02*
X160830218Y-141522044D01*
X160830218Y-141522044D02*
X160732151Y-141597620D01*
X160732151Y-141597620D02*
X160548165Y-141646919D01*
X161283401Y-140858327D02*
X161197482Y-140832050D01*
X161197482Y-140832050D02*
X161148360Y-140795913D01*
X161148360Y-140795913D02*
X161086913Y-140713780D01*
X161086913Y-140713780D02*
X161074589Y-140667783D01*
X161074589Y-140667783D02*
X161086736Y-140565931D01*
X161086736Y-140565931D02*
X161111209Y-140510074D01*
X161111209Y-140510074D02*
X161172479Y-140444358D01*
X161172479Y-140444358D02*
X161319667Y-140404919D01*
X161319667Y-140404919D02*
X161405586Y-140431196D01*
X161405586Y-140431196D02*
X161454708Y-140467333D01*
X161454708Y-140467333D02*
X161516155Y-140549466D01*
X161516155Y-140549466D02*
X161528480Y-140595463D01*
X161528480Y-140595463D02*
X161516332Y-140697315D01*
X161516332Y-140697315D02*
X161491859Y-140753171D01*
X161491859Y-140753171D02*
X161430590Y-140818887D01*
X161430590Y-140818887D02*
X161283401Y-140858327D01*
X161283401Y-140858327D02*
X161222131Y-140924043D01*
X161222131Y-140924043D02*
X161197659Y-140979899D01*
X161197659Y-140979899D02*
X161185511Y-141081752D01*
X161185511Y-141081752D02*
X161234810Y-141265737D01*
X161234810Y-141265737D02*
X161296257Y-141347871D01*
X161296257Y-141347871D02*
X161345379Y-141384007D01*
X161345379Y-141384007D02*
X161431298Y-141410284D01*
X161431298Y-141410284D02*
X161578486Y-141370845D01*
X161578486Y-141370845D02*
X161639756Y-141305129D01*
X161639756Y-141305129D02*
X161664228Y-141249273D01*
X161664228Y-141249273D02*
X161676376Y-141147420D01*
X161676376Y-141147420D02*
X161627077Y-140963434D01*
X161627077Y-140963434D02*
X161565631Y-140881301D01*
X161565631Y-140881301D02*
X161516509Y-140845164D01*
X161516509Y-140845164D02*
X161430590Y-140818887D01*
D10*
X157876992Y-144326991D02*
X157325034Y-144474887D01*
X157601013Y-144400939D02*
X157342194Y-143435013D01*
X157342194Y-143435013D02*
X157287175Y-143597652D01*
X157287175Y-143597652D02*
X157219831Y-143714294D01*
X157219831Y-143714294D02*
X157140163Y-143784940D01*
D11*
X114866667Y-93862180D02*
X114828571Y-93909800D01*
X114828571Y-93909800D02*
X114714286Y-93957419D01*
X114714286Y-93957419D02*
X114638095Y-93957419D01*
X114638095Y-93957419D02*
X114523809Y-93909800D01*
X114523809Y-93909800D02*
X114447619Y-93814561D01*
X114447619Y-93814561D02*
X114409524Y-93719323D01*
X114409524Y-93719323D02*
X114371428Y-93528847D01*
X114371428Y-93528847D02*
X114371428Y-93385990D01*
X114371428Y-93385990D02*
X114409524Y-93195514D01*
X114409524Y-93195514D02*
X114447619Y-93100276D01*
X114447619Y-93100276D02*
X114523809Y-93005038D01*
X114523809Y-93005038D02*
X114638095Y-92957419D01*
X114638095Y-92957419D02*
X114714286Y-92957419D01*
X114714286Y-92957419D02*
X114828571Y-93005038D01*
X114828571Y-93005038D02*
X114866667Y-93052657D01*
X115133333Y-92957419D02*
X115628571Y-92957419D01*
X115628571Y-92957419D02*
X115361905Y-93338371D01*
X115361905Y-93338371D02*
X115476190Y-93338371D01*
X115476190Y-93338371D02*
X115552381Y-93385990D01*
X115552381Y-93385990D02*
X115590476Y-93433609D01*
X115590476Y-93433609D02*
X115628571Y-93528847D01*
X115628571Y-93528847D02*
X115628571Y-93766942D01*
X115628571Y-93766942D02*
X115590476Y-93862180D01*
X115590476Y-93862180D02*
X115552381Y-93909800D01*
X115552381Y-93909800D02*
X115476190Y-93957419D01*
X115476190Y-93957419D02*
X115247619Y-93957419D01*
X115247619Y-93957419D02*
X115171428Y-93909800D01*
X115171428Y-93909800D02*
X115133333Y-93862180D01*
X195390476Y-100457419D02*
X195390476Y-99457419D01*
X195390476Y-99933609D02*
X195847619Y-99933609D01*
X195847619Y-100457419D02*
X195847619Y-99457419D01*
X196190475Y-99552657D02*
X196228571Y-99505038D01*
X196228571Y-99505038D02*
X196304761Y-99457419D01*
X196304761Y-99457419D02*
X196495237Y-99457419D01*
X196495237Y-99457419D02*
X196571428Y-99505038D01*
X196571428Y-99505038D02*
X196609523Y-99552657D01*
X196609523Y-99552657D02*
X196647618Y-99647895D01*
X196647618Y-99647895D02*
X196647618Y-99743133D01*
X196647618Y-99743133D02*
X196609523Y-99885990D01*
X196609523Y-99885990D02*
X196152380Y-100457419D01*
X196152380Y-100457419D02*
X196647618Y-100457419D01*
X124390476Y-121757419D02*
X124390476Y-120757419D01*
X124390476Y-121233609D02*
X124847619Y-121233609D01*
X124847619Y-121757419D02*
X124847619Y-120757419D01*
X125571428Y-120757419D02*
X125419047Y-120757419D01*
X125419047Y-120757419D02*
X125342856Y-120805038D01*
X125342856Y-120805038D02*
X125304761Y-120852657D01*
X125304761Y-120852657D02*
X125228571Y-120995514D01*
X125228571Y-120995514D02*
X125190475Y-121185990D01*
X125190475Y-121185990D02*
X125190475Y-121566942D01*
X125190475Y-121566942D02*
X125228571Y-121662180D01*
X125228571Y-121662180D02*
X125266666Y-121709800D01*
X125266666Y-121709800D02*
X125342856Y-121757419D01*
X125342856Y-121757419D02*
X125495237Y-121757419D01*
X125495237Y-121757419D02*
X125571428Y-121709800D01*
X125571428Y-121709800D02*
X125609523Y-121662180D01*
X125609523Y-121662180D02*
X125647618Y-121566942D01*
X125647618Y-121566942D02*
X125647618Y-121328847D01*
X125647618Y-121328847D02*
X125609523Y-121233609D01*
X125609523Y-121233609D02*
X125571428Y-121185990D01*
X125571428Y-121185990D02*
X125495237Y-121138371D01*
X125495237Y-121138371D02*
X125342856Y-121138371D01*
X125342856Y-121138371D02*
X125266666Y-121185990D01*
X125266666Y-121185990D02*
X125228571Y-121233609D01*
X125228571Y-121233609D02*
X125190475Y-121328847D01*
X149390476Y-146957419D02*
X149390476Y-145957419D01*
X149390476Y-146433609D02*
X149847619Y-146433609D01*
X149847619Y-146957419D02*
X149847619Y-145957419D01*
X150152380Y-145957419D02*
X150647618Y-145957419D01*
X150647618Y-145957419D02*
X150380952Y-146338371D01*
X150380952Y-146338371D02*
X150495237Y-146338371D01*
X150495237Y-146338371D02*
X150571428Y-146385990D01*
X150571428Y-146385990D02*
X150609523Y-146433609D01*
X150609523Y-146433609D02*
X150647618Y-146528847D01*
X150647618Y-146528847D02*
X150647618Y-146766942D01*
X150647618Y-146766942D02*
X150609523Y-146862180D01*
X150609523Y-146862180D02*
X150571428Y-146909800D01*
X150571428Y-146909800D02*
X150495237Y-146957419D01*
X150495237Y-146957419D02*
X150266666Y-146957419D01*
X150266666Y-146957419D02*
X150190475Y-146909800D01*
X150190475Y-146909800D02*
X150152380Y-146862180D01*
X179958040Y-130793099D02*
X179250933Y-130085992D01*
X179250933Y-130085992D02*
X179385620Y-129951305D01*
X179385620Y-129951305D02*
X179500104Y-129904165D01*
X179500104Y-129904165D02*
X179621323Y-129917634D01*
X179621323Y-129917634D02*
X179715604Y-129958040D01*
X179715604Y-129958040D02*
X179877228Y-130065789D01*
X179877228Y-130065789D02*
X179978243Y-130166804D01*
X179978243Y-130166804D02*
X180085993Y-130328429D01*
X180085993Y-130328429D02*
X180126399Y-130422710D01*
X180126399Y-130422710D02*
X180139868Y-130543928D01*
X180139868Y-130543928D02*
X180092727Y-130658412D01*
X180092727Y-130658412D02*
X179958040Y-130793099D01*
X179762744Y-129574182D02*
X180139868Y-129197058D01*
X180139868Y-129197058D02*
X180604538Y-130146601D01*
D10*
X178984772Y-134449696D02*
X178580711Y-134853757D01*
X178782741Y-134651727D02*
X178075635Y-133944620D01*
X178075635Y-133944620D02*
X178109306Y-134112979D01*
X178109306Y-134112979D02*
X178109306Y-134247666D01*
X178109306Y-134247666D02*
X178075635Y-134348681D01*
D11*
X119584414Y-70958222D02*
X118877307Y-70251115D01*
X118877307Y-70251115D02*
X119011994Y-70116428D01*
X119011994Y-70116428D02*
X119126478Y-70069287D01*
X119126478Y-70069287D02*
X119247696Y-70082756D01*
X119247696Y-70082756D02*
X119341977Y-70123162D01*
X119341977Y-70123162D02*
X119503602Y-70230912D01*
X119503602Y-70230912D02*
X119604617Y-70331927D01*
X119604617Y-70331927D02*
X119712366Y-70493551D01*
X119712366Y-70493551D02*
X119752772Y-70587832D01*
X119752772Y-70587832D02*
X119766241Y-70709051D01*
X119766241Y-70709051D02*
X119719101Y-70823535D01*
X119719101Y-70823535D02*
X119584414Y-70958222D01*
X120446411Y-70096225D02*
X120123162Y-70419473D01*
X120284786Y-70257849D02*
X119577679Y-69550742D01*
X119577679Y-69550742D02*
X119624820Y-69705632D01*
X119624820Y-69705632D02*
X119638289Y-69826851D01*
X119638289Y-69826851D02*
X119618085Y-69914397D01*
X119927866Y-69200556D02*
X120278052Y-68850370D01*
X120278052Y-68850370D02*
X120358864Y-69308306D01*
X120358864Y-69308306D02*
X120439676Y-69227493D01*
X120439676Y-69227493D02*
X120527223Y-69207290D01*
X120527223Y-69207290D02*
X120587832Y-69214025D01*
X120587832Y-69214025D02*
X120682113Y-69254431D01*
X120682113Y-69254431D02*
X120850472Y-69422789D01*
X120850472Y-69422789D02*
X120890878Y-69517070D01*
X120890878Y-69517070D02*
X120897612Y-69577680D01*
X120897612Y-69577680D02*
X120877409Y-69665226D01*
X120877409Y-69665226D02*
X120715785Y-69826850D01*
X120715785Y-69826850D02*
X120628238Y-69847054D01*
X120628238Y-69847054D02*
X120567629Y-69840319D01*
D10*
X122062500Y-65789452D02*
X121658439Y-66193513D01*
X121860469Y-65991483D02*
X121153363Y-65284376D01*
X121153363Y-65284376D02*
X121187034Y-65452735D01*
X121187034Y-65452735D02*
X121187034Y-65587422D01*
X121187034Y-65587422D02*
X121153363Y-65688437D01*
D11*
X124390476Y-71757419D02*
X124390476Y-70757419D01*
X124390476Y-71233609D02*
X124847619Y-71233609D01*
X124847619Y-71757419D02*
X124847619Y-70757419D01*
X125571428Y-71090752D02*
X125571428Y-71757419D01*
X125380952Y-70709800D02*
X125190475Y-71424085D01*
X125190475Y-71424085D02*
X125685714Y-71424085D01*
X156733333Y-116507419D02*
X156733333Y-117221704D01*
X156733333Y-117221704D02*
X156695238Y-117364561D01*
X156695238Y-117364561D02*
X156619047Y-117459800D01*
X156619047Y-117459800D02*
X156504762Y-117507419D01*
X156504762Y-117507419D02*
X156428571Y-117507419D01*
X157533333Y-117507419D02*
X157076190Y-117507419D01*
X157304762Y-117507419D02*
X157304762Y-116507419D01*
X157304762Y-116507419D02*
X157228571Y-116650276D01*
X157228571Y-116650276D02*
X157152381Y-116745514D01*
X157152381Y-116745514D02*
X157076190Y-116793133D01*
X138179927Y-59640997D02*
X137921108Y-58675071D01*
X137921108Y-58675071D02*
X138105094Y-58625772D01*
X138105094Y-58625772D02*
X138227810Y-58642189D01*
X138227810Y-58642189D02*
X138326054Y-58714462D01*
X138326054Y-58714462D02*
X138387501Y-58796596D01*
X138387501Y-58796596D02*
X138473597Y-58970722D01*
X138473597Y-58970722D02*
X138510571Y-59108711D01*
X138510571Y-59108711D02*
X138523072Y-59302557D01*
X138523072Y-59302557D02*
X138510925Y-59404410D01*
X138510925Y-59404410D02*
X138461980Y-59516122D01*
X138461980Y-59516122D02*
X138363913Y-59591698D01*
X138363913Y-59591698D02*
X138179927Y-59640997D01*
X139357437Y-59325484D02*
X138915871Y-59443801D01*
X139136654Y-59384643D02*
X138877835Y-58418717D01*
X138877835Y-58418717D02*
X138841214Y-58576426D01*
X138841214Y-58576426D02*
X138792269Y-58688138D01*
X138792269Y-58688138D02*
X138731000Y-58753854D01*
X139847240Y-58504057D02*
X140019786Y-59148008D01*
X139564656Y-58185385D02*
X139565541Y-58924630D01*
X139565541Y-58924630D02*
X140043905Y-58796453D01*
D10*
X142910398Y-56403755D02*
X142358440Y-56551651D01*
X142634419Y-56477703D02*
X142375600Y-55511777D01*
X142375600Y-55511777D02*
X142320581Y-55674416D01*
X142320581Y-55674416D02*
X142253237Y-55791058D01*
X142253237Y-55791058D02*
X142173569Y-55861704D01*
D11*
X125890476Y-114457419D02*
X125890476Y-115266942D01*
X125890476Y-115266942D02*
X125928571Y-115362180D01*
X125928571Y-115362180D02*
X125966666Y-115409800D01*
X125966666Y-115409800D02*
X126042857Y-115457419D01*
X126042857Y-115457419D02*
X126195238Y-115457419D01*
X126195238Y-115457419D02*
X126271428Y-115409800D01*
X126271428Y-115409800D02*
X126309523Y-115362180D01*
X126309523Y-115362180D02*
X126347619Y-115266942D01*
X126347619Y-115266942D02*
X126347619Y-114457419D01*
X126690475Y-114552657D02*
X126728571Y-114505038D01*
X126728571Y-114505038D02*
X126804761Y-114457419D01*
X126804761Y-114457419D02*
X126995237Y-114457419D01*
X126995237Y-114457419D02*
X127071428Y-114505038D01*
X127071428Y-114505038D02*
X127109523Y-114552657D01*
X127109523Y-114552657D02*
X127147618Y-114647895D01*
X127147618Y-114647895D02*
X127147618Y-114743133D01*
X127147618Y-114743133D02*
X127109523Y-114885990D01*
X127109523Y-114885990D02*
X126652380Y-115457419D01*
X126652380Y-115457419D02*
X127147618Y-115457419D01*
X108254482Y-110180193D02*
X109220408Y-109921374D01*
X109220408Y-109921374D02*
X109269707Y-110105360D01*
X109269707Y-110105360D02*
X109253290Y-110228076D01*
X109253290Y-110228076D02*
X109181017Y-110326320D01*
X109181017Y-110326320D02*
X109098883Y-110387767D01*
X109098883Y-110387767D02*
X108924757Y-110473863D01*
X108924757Y-110473863D02*
X108786768Y-110510837D01*
X108786768Y-110510837D02*
X108592922Y-110523338D01*
X108592922Y-110523338D02*
X108491069Y-110511191D01*
X108491069Y-110511191D02*
X108379357Y-110462246D01*
X108379357Y-110462246D02*
X108303781Y-110364179D01*
X108303781Y-110364179D02*
X108254482Y-110180193D01*
X108569995Y-111357703D02*
X108451678Y-110916137D01*
X108510836Y-111136920D02*
X109476762Y-110878101D01*
X109476762Y-110878101D02*
X109319053Y-110841480D01*
X109319053Y-110841480D02*
X109207341Y-110792535D01*
X109207341Y-110792535D02*
X109141625Y-110731266D01*
X108767191Y-112093646D02*
X108648873Y-111652080D01*
X108708032Y-111872863D02*
X109673958Y-111614044D01*
X109673958Y-111614044D02*
X109516249Y-111577424D01*
X109516249Y-111577424D02*
X109404536Y-111528479D01*
X109404536Y-111528479D02*
X109338820Y-111467210D01*
D10*
X105673008Y-107876992D02*
X105525112Y-107325034D01*
X105599060Y-107601013D02*
X106564986Y-107342194D01*
X106564986Y-107342194D02*
X106402347Y-107287175D01*
X106402347Y-107287175D02*
X106285705Y-107219831D01*
X106285705Y-107219831D02*
X106215059Y-107140163D01*
D11*
X119866667Y-112362180D02*
X119828571Y-112409800D01*
X119828571Y-112409800D02*
X119714286Y-112457419D01*
X119714286Y-112457419D02*
X119638095Y-112457419D01*
X119638095Y-112457419D02*
X119523809Y-112409800D01*
X119523809Y-112409800D02*
X119447619Y-112314561D01*
X119447619Y-112314561D02*
X119409524Y-112219323D01*
X119409524Y-112219323D02*
X119371428Y-112028847D01*
X119371428Y-112028847D02*
X119371428Y-111885990D01*
X119371428Y-111885990D02*
X119409524Y-111695514D01*
X119409524Y-111695514D02*
X119447619Y-111600276D01*
X119447619Y-111600276D02*
X119523809Y-111505038D01*
X119523809Y-111505038D02*
X119638095Y-111457419D01*
X119638095Y-111457419D02*
X119714286Y-111457419D01*
X119714286Y-111457419D02*
X119828571Y-111505038D01*
X119828571Y-111505038D02*
X119866667Y-111552657D01*
X120628571Y-112457419D02*
X120171428Y-112457419D01*
X120400000Y-112457419D02*
X120400000Y-111457419D01*
X120400000Y-111457419D02*
X120323809Y-111600276D01*
X120323809Y-111600276D02*
X120247619Y-111695514D01*
X120247619Y-111695514D02*
X120171428Y-111743133D01*
X171485714Y-97862180D02*
X171447618Y-97909800D01*
X171447618Y-97909800D02*
X171333333Y-97957419D01*
X171333333Y-97957419D02*
X171257142Y-97957419D01*
X171257142Y-97957419D02*
X171142856Y-97909800D01*
X171142856Y-97909800D02*
X171066666Y-97814561D01*
X171066666Y-97814561D02*
X171028571Y-97719323D01*
X171028571Y-97719323D02*
X170990475Y-97528847D01*
X170990475Y-97528847D02*
X170990475Y-97385990D01*
X170990475Y-97385990D02*
X171028571Y-97195514D01*
X171028571Y-97195514D02*
X171066666Y-97100276D01*
X171066666Y-97100276D02*
X171142856Y-97005038D01*
X171142856Y-97005038D02*
X171257142Y-96957419D01*
X171257142Y-96957419D02*
X171333333Y-96957419D01*
X171333333Y-96957419D02*
X171447618Y-97005038D01*
X171447618Y-97005038D02*
X171485714Y-97052657D01*
X172247618Y-97957419D02*
X171790475Y-97957419D01*
X172019047Y-97957419D02*
X172019047Y-96957419D01*
X172019047Y-96957419D02*
X171942856Y-97100276D01*
X171942856Y-97100276D02*
X171866666Y-97195514D01*
X171866666Y-97195514D02*
X171790475Y-97243133D01*
X172742857Y-96957419D02*
X172819047Y-96957419D01*
X172819047Y-96957419D02*
X172895238Y-97005038D01*
X172895238Y-97005038D02*
X172933333Y-97052657D01*
X172933333Y-97052657D02*
X172971428Y-97147895D01*
X172971428Y-97147895D02*
X173009523Y-97338371D01*
X173009523Y-97338371D02*
X173009523Y-97576466D01*
X173009523Y-97576466D02*
X172971428Y-97766942D01*
X172971428Y-97766942D02*
X172933333Y-97862180D01*
X172933333Y-97862180D02*
X172895238Y-97909800D01*
X172895238Y-97909800D02*
X172819047Y-97957419D01*
X172819047Y-97957419D02*
X172742857Y-97957419D01*
X172742857Y-97957419D02*
X172666666Y-97909800D01*
X172666666Y-97909800D02*
X172628571Y-97862180D01*
X172628571Y-97862180D02*
X172590476Y-97766942D01*
X172590476Y-97766942D02*
X172552380Y-97576466D01*
X172552380Y-97576466D02*
X172552380Y-97338371D01*
X172552380Y-97338371D02*
X172590476Y-97147895D01*
X172590476Y-97147895D02*
X172628571Y-97052657D01*
X172628571Y-97052657D02*
X172666666Y-97005038D01*
X172666666Y-97005038D02*
X172742857Y-96957419D01*
X129866667Y-112362180D02*
X129828571Y-112409800D01*
X129828571Y-112409800D02*
X129714286Y-112457419D01*
X129714286Y-112457419D02*
X129638095Y-112457419D01*
X129638095Y-112457419D02*
X129523809Y-112409800D01*
X129523809Y-112409800D02*
X129447619Y-112314561D01*
X129447619Y-112314561D02*
X129409524Y-112219323D01*
X129409524Y-112219323D02*
X129371428Y-112028847D01*
X129371428Y-112028847D02*
X129371428Y-111885990D01*
X129371428Y-111885990D02*
X129409524Y-111695514D01*
X129409524Y-111695514D02*
X129447619Y-111600276D01*
X129447619Y-111600276D02*
X129523809Y-111505038D01*
X129523809Y-111505038D02*
X129638095Y-111457419D01*
X129638095Y-111457419D02*
X129714286Y-111457419D01*
X129714286Y-111457419D02*
X129828571Y-111505038D01*
X129828571Y-111505038D02*
X129866667Y-111552657D01*
X130171428Y-111552657D02*
X130209524Y-111505038D01*
X130209524Y-111505038D02*
X130285714Y-111457419D01*
X130285714Y-111457419D02*
X130476190Y-111457419D01*
X130476190Y-111457419D02*
X130552381Y-111505038D01*
X130552381Y-111505038D02*
X130590476Y-111552657D01*
X130590476Y-111552657D02*
X130628571Y-111647895D01*
X130628571Y-111647895D02*
X130628571Y-111743133D01*
X130628571Y-111743133D02*
X130590476Y-111885990D01*
X130590476Y-111885990D02*
X130133333Y-112457419D01*
X130133333Y-112457419D02*
X130628571Y-112457419D01*
X174866667Y-98362180D02*
X174828571Y-98409800D01*
X174828571Y-98409800D02*
X174714286Y-98457419D01*
X174714286Y-98457419D02*
X174638095Y-98457419D01*
X174638095Y-98457419D02*
X174523809Y-98409800D01*
X174523809Y-98409800D02*
X174447619Y-98314561D01*
X174447619Y-98314561D02*
X174409524Y-98219323D01*
X174409524Y-98219323D02*
X174371428Y-98028847D01*
X174371428Y-98028847D02*
X174371428Y-97885990D01*
X174371428Y-97885990D02*
X174409524Y-97695514D01*
X174409524Y-97695514D02*
X174447619Y-97600276D01*
X174447619Y-97600276D02*
X174523809Y-97505038D01*
X174523809Y-97505038D02*
X174638095Y-97457419D01*
X174638095Y-97457419D02*
X174714286Y-97457419D01*
X174714286Y-97457419D02*
X174828571Y-97505038D01*
X174828571Y-97505038D02*
X174866667Y-97552657D01*
X175247619Y-98457419D02*
X175400000Y-98457419D01*
X175400000Y-98457419D02*
X175476190Y-98409800D01*
X175476190Y-98409800D02*
X175514286Y-98362180D01*
X175514286Y-98362180D02*
X175590476Y-98219323D01*
X175590476Y-98219323D02*
X175628571Y-98028847D01*
X175628571Y-98028847D02*
X175628571Y-97647895D01*
X175628571Y-97647895D02*
X175590476Y-97552657D01*
X175590476Y-97552657D02*
X175552381Y-97505038D01*
X175552381Y-97505038D02*
X175476190Y-97457419D01*
X175476190Y-97457419D02*
X175323809Y-97457419D01*
X175323809Y-97457419D02*
X175247619Y-97505038D01*
X175247619Y-97505038D02*
X175209524Y-97552657D01*
X175209524Y-97552657D02*
X175171428Y-97647895D01*
X175171428Y-97647895D02*
X175171428Y-97885990D01*
X175171428Y-97885990D02*
X175209524Y-97981228D01*
X175209524Y-97981228D02*
X175247619Y-98028847D01*
X175247619Y-98028847D02*
X175323809Y-98076466D01*
X175323809Y-98076466D02*
X175476190Y-98076466D01*
X175476190Y-98076466D02*
X175552381Y-98028847D01*
X175552381Y-98028847D02*
X175590476Y-97981228D01*
X175590476Y-97981228D02*
X175628571Y-97885990D01*
X190457600Y-88547899D02*
X191423526Y-88289080D01*
X191423526Y-88289080D02*
X191472825Y-88473066D01*
X191472825Y-88473066D02*
X191456408Y-88595782D01*
X191456408Y-88595782D02*
X191384134Y-88694026D01*
X191384134Y-88694026D02*
X191302001Y-88755473D01*
X191302001Y-88755473D02*
X191127875Y-88841569D01*
X191127875Y-88841569D02*
X190989886Y-88878543D01*
X190989886Y-88878543D02*
X190796040Y-88891045D01*
X190796040Y-88891045D02*
X190694187Y-88878897D01*
X190694187Y-88878897D02*
X190582475Y-88829952D01*
X190582475Y-88829952D02*
X190506899Y-88731885D01*
X190506899Y-88731885D02*
X190457600Y-88547899D01*
X191729179Y-89429793D02*
X191630581Y-89061821D01*
X191630581Y-89061821D02*
X191160757Y-89148271D01*
X191160757Y-89148271D02*
X191216613Y-89172743D01*
X191216613Y-89172743D02*
X191282329Y-89234013D01*
X191282329Y-89234013D02*
X191331628Y-89417999D01*
X191331628Y-89417999D02*
X191305351Y-89503918D01*
X191305351Y-89503918D02*
X191269214Y-89553040D01*
X191269214Y-89553040D02*
X191187081Y-89614487D01*
X191187081Y-89614487D02*
X190957099Y-89676110D01*
X190957099Y-89676110D02*
X190855246Y-89663962D01*
X190855246Y-89663962D02*
X190799390Y-89639490D01*
X190799390Y-89639490D02*
X190733674Y-89578220D01*
X190733674Y-89578220D02*
X190684375Y-89394234D01*
X190684375Y-89394234D02*
X190710652Y-89308315D01*
X190710652Y-89308315D02*
X190746789Y-89259193D01*
D10*
X193596244Y-92910398D02*
X193448348Y-92358440D01*
X193522296Y-92634419D02*
X194488222Y-92375600D01*
X194488222Y-92375600D02*
X194325583Y-92320581D01*
X194325583Y-92320581D02*
X194208941Y-92253237D01*
X194208941Y-92253237D02*
X194138295Y-92173569D01*
D11*
X179390476Y-97457419D02*
X179390476Y-98266942D01*
X179390476Y-98266942D02*
X179428571Y-98362180D01*
X179428571Y-98362180D02*
X179466666Y-98409800D01*
X179466666Y-98409800D02*
X179542857Y-98457419D01*
X179542857Y-98457419D02*
X179695238Y-98457419D01*
X179695238Y-98457419D02*
X179771428Y-98409800D01*
X179771428Y-98409800D02*
X179809523Y-98362180D01*
X179809523Y-98362180D02*
X179847619Y-98266942D01*
X179847619Y-98266942D02*
X179847619Y-97457419D01*
X180609523Y-97457419D02*
X180228571Y-97457419D01*
X180228571Y-97457419D02*
X180190475Y-97933609D01*
X180190475Y-97933609D02*
X180228571Y-97885990D01*
X180228571Y-97885990D02*
X180304761Y-97838371D01*
X180304761Y-97838371D02*
X180495237Y-97838371D01*
X180495237Y-97838371D02*
X180571428Y-97885990D01*
X180571428Y-97885990D02*
X180609523Y-97933609D01*
X180609523Y-97933609D02*
X180647618Y-98028847D01*
X180647618Y-98028847D02*
X180647618Y-98266942D01*
X180647618Y-98266942D02*
X180609523Y-98362180D01*
X180609523Y-98362180D02*
X180571428Y-98409800D01*
X180571428Y-98409800D02*
X180495237Y-98457419D01*
X180495237Y-98457419D02*
X180304761Y-98457419D01*
X180304761Y-98457419D02*
X180228571Y-98409800D01*
X180228571Y-98409800D02*
X180190475Y-98362180D01*
X155866667Y-114862180D02*
X155828571Y-114909800D01*
X155828571Y-114909800D02*
X155714286Y-114957419D01*
X155714286Y-114957419D02*
X155638095Y-114957419D01*
X155638095Y-114957419D02*
X155523809Y-114909800D01*
X155523809Y-114909800D02*
X155447619Y-114814561D01*
X155447619Y-114814561D02*
X155409524Y-114719323D01*
X155409524Y-114719323D02*
X155371428Y-114528847D01*
X155371428Y-114528847D02*
X155371428Y-114385990D01*
X155371428Y-114385990D02*
X155409524Y-114195514D01*
X155409524Y-114195514D02*
X155447619Y-114100276D01*
X155447619Y-114100276D02*
X155523809Y-114005038D01*
X155523809Y-114005038D02*
X155638095Y-113957419D01*
X155638095Y-113957419D02*
X155714286Y-113957419D01*
X155714286Y-113957419D02*
X155828571Y-114005038D01*
X155828571Y-114005038D02*
X155866667Y-114052657D01*
X156133333Y-113957419D02*
X156666667Y-113957419D01*
X156666667Y-113957419D02*
X156323809Y-114957419D01*
X118937525Y-129688666D02*
X119644632Y-128981559D01*
X119644632Y-128981559D02*
X119779319Y-129116246D01*
X119779319Y-129116246D02*
X119826460Y-129230730D01*
X119826460Y-129230730D02*
X119812991Y-129351948D01*
X119812991Y-129351948D02*
X119772585Y-129446229D01*
X119772585Y-129446229D02*
X119664835Y-129607854D01*
X119664835Y-129607854D02*
X119563820Y-129708869D01*
X119563820Y-129708869D02*
X119402196Y-129816618D01*
X119402196Y-129816618D02*
X119307915Y-129857024D01*
X119307915Y-129857024D02*
X119186696Y-129870493D01*
X119186696Y-129870493D02*
X119072212Y-129823353D01*
X119072212Y-129823353D02*
X118937525Y-129688666D01*
X119799522Y-130550663D02*
X119476274Y-130227414D01*
X119637898Y-130389038D02*
X120345005Y-129681931D01*
X120345005Y-129681931D02*
X120190115Y-129729072D01*
X120190115Y-129729072D02*
X120068896Y-129742541D01*
X120068896Y-129742541D02*
X119981350Y-129722337D01*
X120856815Y-130193742D02*
X120910690Y-130247617D01*
X120910690Y-130247617D02*
X120930893Y-130335164D01*
X120930893Y-130335164D02*
X120924159Y-130395773D01*
X120924159Y-130395773D02*
X120883753Y-130490054D01*
X120883753Y-130490054D02*
X120776003Y-130651678D01*
X120776003Y-130651678D02*
X120607645Y-130820037D01*
X120607645Y-130820037D02*
X120446020Y-130927786D01*
X120446020Y-130927786D02*
X120351739Y-130968192D01*
X120351739Y-130968192D02*
X120291130Y-130974927D01*
X120291130Y-130974927D02*
X120203584Y-130954724D01*
X120203584Y-130954724D02*
X120149709Y-130900849D01*
X120149709Y-130900849D02*
X120129506Y-130813302D01*
X120129506Y-130813302D02*
X120136240Y-130752693D01*
X120136240Y-130752693D02*
X120176646Y-130658412D01*
X120176646Y-130658412D02*
X120284396Y-130496788D01*
X120284396Y-130496788D02*
X120452754Y-130328429D01*
X120452754Y-130328429D02*
X120614379Y-130220680D01*
X120614379Y-130220680D02*
X120708660Y-130180273D01*
X120708660Y-130180273D02*
X120769269Y-130173539D01*
X120769269Y-130173539D02*
X120856815Y-130193742D01*
D10*
X115550303Y-128984772D02*
X115146242Y-128580711D01*
X115348272Y-128782741D02*
X116055379Y-128075635D01*
X116055379Y-128075635D02*
X115887020Y-128109306D01*
X115887020Y-128109306D02*
X115752333Y-128109306D01*
X115752333Y-128109306D02*
X115651318Y-128075635D01*
D11*
X144866667Y-114862180D02*
X144828571Y-114909800D01*
X144828571Y-114909800D02*
X144714286Y-114957419D01*
X144714286Y-114957419D02*
X144638095Y-114957419D01*
X144638095Y-114957419D02*
X144523809Y-114909800D01*
X144523809Y-114909800D02*
X144447619Y-114814561D01*
X144447619Y-114814561D02*
X144409524Y-114719323D01*
X144409524Y-114719323D02*
X144371428Y-114528847D01*
X144371428Y-114528847D02*
X144371428Y-114385990D01*
X144371428Y-114385990D02*
X144409524Y-114195514D01*
X144409524Y-114195514D02*
X144447619Y-114100276D01*
X144447619Y-114100276D02*
X144523809Y-114005038D01*
X144523809Y-114005038D02*
X144638095Y-113957419D01*
X144638095Y-113957419D02*
X144714286Y-113957419D01*
X144714286Y-113957419D02*
X144828571Y-114005038D01*
X144828571Y-114005038D02*
X144866667Y-114052657D01*
X145590476Y-113957419D02*
X145209524Y-113957419D01*
X145209524Y-113957419D02*
X145171428Y-114433609D01*
X145171428Y-114433609D02*
X145209524Y-114385990D01*
X145209524Y-114385990D02*
X145285714Y-114338371D01*
X145285714Y-114338371D02*
X145476190Y-114338371D01*
X145476190Y-114338371D02*
X145552381Y-114385990D01*
X145552381Y-114385990D02*
X145590476Y-114433609D01*
X145590476Y-114433609D02*
X145628571Y-114528847D01*
X145628571Y-114528847D02*
X145628571Y-114766942D01*
X145628571Y-114766942D02*
X145590476Y-114862180D01*
X145590476Y-114862180D02*
X145552381Y-114909800D01*
X145552381Y-114909800D02*
X145476190Y-114957419D01*
X145476190Y-114957419D02*
X145285714Y-114957419D01*
X145285714Y-114957419D02*
X145209524Y-114909800D01*
X145209524Y-114909800D02*
X145171428Y-114862180D01*
X174390476Y-121757419D02*
X174390476Y-120757419D01*
X174390476Y-121233609D02*
X174847619Y-121233609D01*
X174847619Y-121757419D02*
X174847619Y-120757419D01*
X175152380Y-120757419D02*
X175685714Y-120757419D01*
X175685714Y-120757419D02*
X175342856Y-121757419D01*
X137990476Y-60457419D02*
X138447619Y-60457419D01*
X138219047Y-61457419D02*
X138219047Y-60457419D01*
X138714286Y-61457419D02*
X138714286Y-60457419D01*
X138714286Y-60457419D02*
X139019048Y-60457419D01*
X139019048Y-60457419D02*
X139095238Y-60505038D01*
X139095238Y-60505038D02*
X139133333Y-60552657D01*
X139133333Y-60552657D02*
X139171429Y-60647895D01*
X139171429Y-60647895D02*
X139171429Y-60790752D01*
X139171429Y-60790752D02*
X139133333Y-60885990D01*
X139133333Y-60885990D02*
X139095238Y-60933609D01*
X139095238Y-60933609D02*
X139019048Y-60981228D01*
X139019048Y-60981228D02*
X138714286Y-60981228D01*
X139438095Y-60457419D02*
X139933333Y-60457419D01*
X139933333Y-60457419D02*
X139666667Y-60838371D01*
X139666667Y-60838371D02*
X139780952Y-60838371D01*
X139780952Y-60838371D02*
X139857143Y-60885990D01*
X139857143Y-60885990D02*
X139895238Y-60933609D01*
X139895238Y-60933609D02*
X139933333Y-61028847D01*
X139933333Y-61028847D02*
X139933333Y-61266942D01*
X139933333Y-61266942D02*
X139895238Y-61362180D01*
X139895238Y-61362180D02*
X139857143Y-61409800D01*
X139857143Y-61409800D02*
X139780952Y-61457419D01*
X139780952Y-61457419D02*
X139552381Y-61457419D01*
X139552381Y-61457419D02*
X139476190Y-61409800D01*
X139476190Y-61409800D02*
X139438095Y-61362180D01*
X114733333Y-91457419D02*
X114733333Y-92171704D01*
X114733333Y-92171704D02*
X114695238Y-92314561D01*
X114695238Y-92314561D02*
X114619047Y-92409800D01*
X114619047Y-92409800D02*
X114504762Y-92457419D01*
X114504762Y-92457419D02*
X114428571Y-92457419D01*
X115495238Y-91457419D02*
X115114286Y-91457419D01*
X115114286Y-91457419D02*
X115076190Y-91933609D01*
X115076190Y-91933609D02*
X115114286Y-91885990D01*
X115114286Y-91885990D02*
X115190476Y-91838371D01*
X115190476Y-91838371D02*
X115380952Y-91838371D01*
X115380952Y-91838371D02*
X115457143Y-91885990D01*
X115457143Y-91885990D02*
X115495238Y-91933609D01*
X115495238Y-91933609D02*
X115533333Y-92028847D01*
X115533333Y-92028847D02*
X115533333Y-92266942D01*
X115533333Y-92266942D02*
X115495238Y-92362180D01*
X115495238Y-92362180D02*
X115457143Y-92409800D01*
X115457143Y-92409800D02*
X115380952Y-92457419D01*
X115380952Y-92457419D02*
X115190476Y-92457419D01*
X115190476Y-92457419D02*
X115114286Y-92409800D01*
X115114286Y-92409800D02*
X115076190Y-92362180D01*
X160311388Y-59236746D02*
X160570207Y-58270820D01*
X160570207Y-58270820D02*
X160754193Y-58320119D01*
X160754193Y-58320119D02*
X160852260Y-58395695D01*
X160852260Y-58395695D02*
X160901205Y-58507407D01*
X160901205Y-58507407D02*
X160913352Y-58609260D01*
X160913352Y-58609260D02*
X160900851Y-58803106D01*
X160900851Y-58803106D02*
X160863876Y-58941095D01*
X160863876Y-58941095D02*
X160777780Y-59115221D01*
X160777780Y-59115221D02*
X160716334Y-59197354D01*
X160716334Y-59197354D02*
X160618090Y-59269628D01*
X160618090Y-59269628D02*
X160495374Y-59286045D01*
X160495374Y-59286045D02*
X160311388Y-59236746D01*
X161269353Y-58458156D02*
X161747717Y-58586333D01*
X161747717Y-58586333D02*
X161391539Y-58885286D01*
X161391539Y-58885286D02*
X161501930Y-58914866D01*
X161501930Y-58914866D02*
X161563200Y-58980582D01*
X161563200Y-58980582D02*
X161587672Y-59036438D01*
X161587672Y-59036438D02*
X161599820Y-59138291D01*
X161599820Y-59138291D02*
X161538196Y-59368273D01*
X161538196Y-59368273D02*
X161476750Y-59450406D01*
X161476750Y-59450406D02*
X161427628Y-59486543D01*
X161427628Y-59486543D02*
X161341709Y-59512820D01*
X161341709Y-59512820D02*
X161120926Y-59453661D01*
X161120926Y-59453661D02*
X161059656Y-59387945D01*
X161059656Y-59387945D02*
X161035184Y-59332089D01*
D10*
X165658745Y-58699849D02*
X165106787Y-58551953D01*
X165382766Y-58625901D02*
X165641585Y-57659975D01*
X165641585Y-57659975D02*
X165512618Y-57773315D01*
X165512618Y-57773315D02*
X165395976Y-57840659D01*
X165395976Y-57840659D02*
X165291658Y-57862006D01*
D11*
X157866667Y-110362180D02*
X157828571Y-110409800D01*
X157828571Y-110409800D02*
X157714286Y-110457419D01*
X157714286Y-110457419D02*
X157638095Y-110457419D01*
X157638095Y-110457419D02*
X157523809Y-110409800D01*
X157523809Y-110409800D02*
X157447619Y-110314561D01*
X157447619Y-110314561D02*
X157409524Y-110219323D01*
X157409524Y-110219323D02*
X157371428Y-110028847D01*
X157371428Y-110028847D02*
X157371428Y-109885990D01*
X157371428Y-109885990D02*
X157409524Y-109695514D01*
X157409524Y-109695514D02*
X157447619Y-109600276D01*
X157447619Y-109600276D02*
X157523809Y-109505038D01*
X157523809Y-109505038D02*
X157638095Y-109457419D01*
X157638095Y-109457419D02*
X157714286Y-109457419D01*
X157714286Y-109457419D02*
X157828571Y-109505038D01*
X157828571Y-109505038D02*
X157866667Y-109552657D01*
X158323809Y-109885990D02*
X158247619Y-109838371D01*
X158247619Y-109838371D02*
X158209524Y-109790752D01*
X158209524Y-109790752D02*
X158171428Y-109695514D01*
X158171428Y-109695514D02*
X158171428Y-109647895D01*
X158171428Y-109647895D02*
X158209524Y-109552657D01*
X158209524Y-109552657D02*
X158247619Y-109505038D01*
X158247619Y-109505038D02*
X158323809Y-109457419D01*
X158323809Y-109457419D02*
X158476190Y-109457419D01*
X158476190Y-109457419D02*
X158552381Y-109505038D01*
X158552381Y-109505038D02*
X158590476Y-109552657D01*
X158590476Y-109552657D02*
X158628571Y-109647895D01*
X158628571Y-109647895D02*
X158628571Y-109695514D01*
X158628571Y-109695514D02*
X158590476Y-109790752D01*
X158590476Y-109790752D02*
X158552381Y-109838371D01*
X158552381Y-109838371D02*
X158476190Y-109885990D01*
X158476190Y-109885990D02*
X158323809Y-109885990D01*
X158323809Y-109885990D02*
X158247619Y-109933609D01*
X158247619Y-109933609D02*
X158209524Y-109981228D01*
X158209524Y-109981228D02*
X158171428Y-110076466D01*
X158171428Y-110076466D02*
X158171428Y-110266942D01*
X158171428Y-110266942D02*
X158209524Y-110362180D01*
X158209524Y-110362180D02*
X158247619Y-110409800D01*
X158247619Y-110409800D02*
X158323809Y-110457419D01*
X158323809Y-110457419D02*
X158476190Y-110457419D01*
X158476190Y-110457419D02*
X158552381Y-110409800D01*
X158552381Y-110409800D02*
X158590476Y-110362180D01*
X158590476Y-110362180D02*
X158628571Y-110266942D01*
X158628571Y-110266942D02*
X158628571Y-110076466D01*
X158628571Y-110076466D02*
X158590476Y-109981228D01*
X158590476Y-109981228D02*
X158552381Y-109933609D01*
X158552381Y-109933609D02*
X158476190Y-109885990D01*
X185733333Y-95587419D02*
X185733333Y-96301704D01*
X185733333Y-96301704D02*
X185695238Y-96444561D01*
X185695238Y-96444561D02*
X185619047Y-96539800D01*
X185619047Y-96539800D02*
X185504762Y-96587419D01*
X185504762Y-96587419D02*
X185428571Y-96587419D01*
X186076190Y-95682657D02*
X186114286Y-95635038D01*
X186114286Y-95635038D02*
X186190476Y-95587419D01*
X186190476Y-95587419D02*
X186380952Y-95587419D01*
X186380952Y-95587419D02*
X186457143Y-95635038D01*
X186457143Y-95635038D02*
X186495238Y-95682657D01*
X186495238Y-95682657D02*
X186533333Y-95777895D01*
X186533333Y-95777895D02*
X186533333Y-95873133D01*
X186533333Y-95873133D02*
X186495238Y-96015990D01*
X186495238Y-96015990D02*
X186038095Y-96587419D01*
X186038095Y-96587419D02*
X186533333Y-96587419D01*
X151866667Y-110457419D02*
X151600000Y-109981228D01*
X151409524Y-110457419D02*
X151409524Y-109457419D01*
X151409524Y-109457419D02*
X151714286Y-109457419D01*
X151714286Y-109457419D02*
X151790476Y-109505038D01*
X151790476Y-109505038D02*
X151828571Y-109552657D01*
X151828571Y-109552657D02*
X151866667Y-109647895D01*
X151866667Y-109647895D02*
X151866667Y-109790752D01*
X151866667Y-109790752D02*
X151828571Y-109885990D01*
X151828571Y-109885990D02*
X151790476Y-109933609D01*
X151790476Y-109933609D02*
X151714286Y-109981228D01*
X151714286Y-109981228D02*
X151409524Y-109981228D01*
X152552381Y-109790752D02*
X152552381Y-110457419D01*
X152361905Y-109409800D02*
X152171428Y-110124085D01*
X152171428Y-110124085D02*
X152666667Y-110124085D01*
X174390476Y-71757419D02*
X174390476Y-70757419D01*
X174390476Y-71233609D02*
X174847619Y-71233609D01*
X174847619Y-71757419D02*
X174847619Y-70757419D01*
X175609523Y-70757419D02*
X175228571Y-70757419D01*
X175228571Y-70757419D02*
X175190475Y-71233609D01*
X175190475Y-71233609D02*
X175228571Y-71185990D01*
X175228571Y-71185990D02*
X175304761Y-71138371D01*
X175304761Y-71138371D02*
X175495237Y-71138371D01*
X175495237Y-71138371D02*
X175571428Y-71185990D01*
X175571428Y-71185990D02*
X175609523Y-71233609D01*
X175609523Y-71233609D02*
X175647618Y-71328847D01*
X175647618Y-71328847D02*
X175647618Y-71566942D01*
X175647618Y-71566942D02*
X175609523Y-71662180D01*
X175609523Y-71662180D02*
X175571428Y-71709800D01*
X175571428Y-71709800D02*
X175495237Y-71757419D01*
X175495237Y-71757419D02*
X175304761Y-71757419D01*
X175304761Y-71757419D02*
X175228571Y-71709800D01*
X175228571Y-71709800D02*
X175190475Y-71662180D01*
X137990476Y-116457419D02*
X138447619Y-116457419D01*
X138219047Y-117457419D02*
X138219047Y-116457419D01*
X138714286Y-117457419D02*
X138714286Y-116457419D01*
X138714286Y-116457419D02*
X139019048Y-116457419D01*
X139019048Y-116457419D02*
X139095238Y-116505038D01*
X139095238Y-116505038D02*
X139133333Y-116552657D01*
X139133333Y-116552657D02*
X139171429Y-116647895D01*
X139171429Y-116647895D02*
X139171429Y-116790752D01*
X139171429Y-116790752D02*
X139133333Y-116885990D01*
X139133333Y-116885990D02*
X139095238Y-116933609D01*
X139095238Y-116933609D02*
X139019048Y-116981228D01*
X139019048Y-116981228D02*
X138714286Y-116981228D01*
X139476190Y-116552657D02*
X139514286Y-116505038D01*
X139514286Y-116505038D02*
X139590476Y-116457419D01*
X139590476Y-116457419D02*
X139780952Y-116457419D01*
X139780952Y-116457419D02*
X139857143Y-116505038D01*
X139857143Y-116505038D02*
X139895238Y-116552657D01*
X139895238Y-116552657D02*
X139933333Y-116647895D01*
X139933333Y-116647895D02*
X139933333Y-116743133D01*
X139933333Y-116743133D02*
X139895238Y-116885990D01*
X139895238Y-116885990D02*
X139438095Y-117457419D01*
X139438095Y-117457419D02*
X139933333Y-117457419D01*
X114390476Y-101705419D02*
X114390476Y-102514942D01*
X114390476Y-102514942D02*
X114428571Y-102610180D01*
X114428571Y-102610180D02*
X114466666Y-102657800D01*
X114466666Y-102657800D02*
X114542857Y-102705419D01*
X114542857Y-102705419D02*
X114695238Y-102705419D01*
X114695238Y-102705419D02*
X114771428Y-102657800D01*
X114771428Y-102657800D02*
X114809523Y-102610180D01*
X114809523Y-102610180D02*
X114847619Y-102514942D01*
X114847619Y-102514942D02*
X114847619Y-101705419D01*
X115152380Y-101705419D02*
X115647618Y-101705419D01*
X115647618Y-101705419D02*
X115380952Y-102086371D01*
X115380952Y-102086371D02*
X115495237Y-102086371D01*
X115495237Y-102086371D02*
X115571428Y-102133990D01*
X115571428Y-102133990D02*
X115609523Y-102181609D01*
X115609523Y-102181609D02*
X115647618Y-102276847D01*
X115647618Y-102276847D02*
X115647618Y-102514942D01*
X115647618Y-102514942D02*
X115609523Y-102610180D01*
X115609523Y-102610180D02*
X115571428Y-102657800D01*
X115571428Y-102657800D02*
X115495237Y-102705419D01*
X115495237Y-102705419D02*
X115266666Y-102705419D01*
X115266666Y-102705419D02*
X115190475Y-102657800D01*
X115190475Y-102657800D02*
X115152380Y-102610180D01*
X103390476Y-100457419D02*
X103390476Y-99457419D01*
X103390476Y-99933609D02*
X103847619Y-99933609D01*
X103847619Y-100457419D02*
X103847619Y-99457419D01*
X104647618Y-100457419D02*
X104190475Y-100457419D01*
X104419047Y-100457419D02*
X104419047Y-99457419D01*
X104419047Y-99457419D02*
X104342856Y-99600276D01*
X104342856Y-99600276D02*
X104266666Y-99695514D01*
X104266666Y-99695514D02*
X104190475Y-99743133D01*
D12*
X135970000Y-62572500D02*
X135970000Y-63902500D01*
X135970000Y-65172500D02*
X138630000Y-65172500D01*
X135970000Y-113492500D02*
X135970000Y-65172500D01*
X137300000Y-62572500D02*
X135970000Y-62572500D01*
X138630000Y-62572500D02*
X138630000Y-113492500D01*
X138630000Y-62572500D02*
X164030000Y-62572500D01*
X140940000Y-56352500D02*
X140940000Y-62572500D01*
X140940000Y-56352500D02*
X159060000Y-56352500D01*
X159060000Y-56352500D02*
X159060000Y-62572500D01*
X161370000Y-113492500D02*
X161370000Y-62572500D01*
X164030000Y-62572500D02*
X164030000Y-113492500D01*
X164030000Y-113492500D02*
X135970000Y-113492500D01*
D11*
X153500000Y-75332500D02*
G75*
G03*
X153500000Y-75332500I-3500000J0D01*
G01*
X154500000Y-128250000D02*
X154750000Y-128500000D01*
X154500000Y-128750000D02*
X154500000Y-128250000D01*
X154500000Y-129250000D02*
X154750000Y-129500000D01*
X154500000Y-129750000D02*
X154500000Y-129250000D01*
X154750000Y-128500000D02*
X154500000Y-128750000D01*
X154750000Y-129500000D02*
X154500000Y-129750000D01*
X155000000Y-128500000D02*
X155000000Y-129500000D01*
X155000000Y-129500000D02*
X155250000Y-129750000D01*
X155250000Y-128250000D02*
X155000000Y-128500000D01*
X155250000Y-129750000D02*
X156250000Y-129750000D01*
X156250000Y-128250000D02*
X155250000Y-128250000D01*
X156250000Y-129750000D02*
X156500000Y-129500000D01*
X156500000Y-128500000D02*
X156250000Y-128250000D01*
X156500000Y-129250000D02*
X156500000Y-128750000D01*
X156500000Y-129500000D02*
X156750000Y-129750000D01*
X156750000Y-128250000D02*
X156500000Y-128500000D01*
X156750000Y-129750000D02*
X157750000Y-129750000D01*
X157750000Y-128250000D02*
X156750000Y-128250000D01*
X157750000Y-129750000D02*
X158000000Y-129500000D01*
X158000000Y-128500000D02*
X157750000Y-128250000D01*
X158000000Y-129250000D02*
X158000000Y-128750000D01*
X158000000Y-129500000D02*
X158250000Y-129750000D01*
X158250000Y-128250000D02*
X158000000Y-128500000D01*
X158250000Y-129750000D02*
X159250000Y-129750000D01*
X159250000Y-128250000D02*
X158250000Y-128250000D01*
X159250000Y-129750000D02*
X159500000Y-129500000D01*
X159500000Y-128500000D02*
X159250000Y-128250000D01*
X159500000Y-129250000D02*
X159500000Y-128750000D01*
X159500000Y-129500000D02*
X159750000Y-129750000D01*
X159750000Y-128250000D02*
X159500000Y-128500000D01*
X159750000Y-129750000D02*
X160750000Y-129750000D01*
X160750000Y-128250000D02*
X159750000Y-128250000D01*
X160750000Y-129750000D02*
X161000000Y-129500000D01*
X161000000Y-128500000D02*
X160750000Y-128250000D01*
X161000000Y-129500000D02*
X161000000Y-128500000D01*
X161250000Y-128750000D02*
X161500000Y-129000000D01*
X161250000Y-129250000D02*
X161250000Y-128750000D01*
X161500000Y-129000000D02*
X161250000Y-129250000D01*
D12*
X190832014Y-114719877D02*
X192721393Y-107668618D01*
X196144607Y-116143382D02*
X198033986Y-109092123D01*
X198033986Y-109092123D02*
X196923171Y-108794481D01*
X125237258Y-110522500D02*
X124762742Y-110522500D01*
X125237258Y-109477500D02*
X124762742Y-109477500D01*
X120237258Y-110522500D02*
X119762742Y-110522500D01*
X120237258Y-109477500D02*
X119762742Y-109477500D01*
X124397936Y-115640000D02*
X125602064Y-115640000D01*
X124397936Y-118360000D02*
X125602064Y-118360000D01*
X153090000Y-112711252D02*
X153090000Y-111288748D01*
X154910000Y-112711252D02*
X154910000Y-111288748D01*
X109167986Y-85280123D02*
X107278607Y-92331382D01*
X103855393Y-83856618D02*
X101966014Y-90907877D01*
X101966014Y-90907877D02*
X103076829Y-91205519D01*
X149762742Y-56477500D02*
X150237258Y-56477500D01*
X149762742Y-57522500D02*
X150237258Y-57522500D01*
X132360000Y-118000000D02*
X132360000Y-116000000D01*
X132360000Y-118000000D02*
X128350000Y-118000000D01*
X132360000Y-116000000D02*
X128350000Y-116000000D01*
X151145000Y-139330000D02*
X151145000Y-138000000D01*
X152475000Y-139330000D02*
X151145000Y-139330000D01*
X153745000Y-139330000D02*
X158885000Y-139330000D01*
X153745000Y-139330000D02*
X153745000Y-136670000D01*
X158885000Y-139330000D02*
X158885000Y-136670000D01*
X153745000Y-136670000D02*
X158885000Y-136670000D01*
X142265000Y-112261252D02*
X142265000Y-111738748D01*
X143735000Y-112261252D02*
X143735000Y-111738748D01*
X135280123Y-140832014D02*
X142331382Y-142721393D01*
X133856618Y-146144607D02*
X140907877Y-148033986D01*
X140907877Y-148033986D02*
X141205519Y-146923171D01*
X153590000Y-51690000D02*
X152400000Y-51690000D01*
X152410000Y-54400000D02*
X153590000Y-54400000D01*
X152400000Y-55200000D02*
X152400000Y-54400000D01*
X152400000Y-51690000D02*
X152400000Y-50800000D01*
X152400000Y-50800000D02*
X147600000Y-50800000D01*
X147600000Y-55200000D02*
X152400000Y-55200000D01*
X147600000Y-54400000D02*
X147600000Y-55200000D01*
X147600000Y-50800000D02*
X147600000Y-51690000D01*
X141130000Y-139330000D02*
X141130000Y-138000000D01*
X142460000Y-139330000D02*
X141130000Y-139330000D01*
X143730000Y-139330000D02*
X148870000Y-139330000D01*
X143730000Y-139330000D02*
X143730000Y-136670000D01*
X148870000Y-139330000D02*
X148870000Y-136670000D01*
X143730000Y-136670000D02*
X148870000Y-136670000D01*
X183163396Y-71998483D02*
X178001517Y-66836604D01*
X187052483Y-68109396D02*
X181890604Y-62947517D01*
X181890604Y-62947517D02*
X181077431Y-63760689D01*
D11*
X119000000Y-89950000D02*
X119000000Y-113950000D01*
X119000000Y-113950000D02*
X181000000Y-113950000D01*
X122490000Y-93450000D02*
X177510000Y-93450000D01*
X122490000Y-106550000D02*
X122490000Y-93450000D01*
X177510000Y-93450000D02*
X177510000Y-106550000D01*
X177510000Y-106550000D02*
X122490000Y-106550000D01*
X181000000Y-89950000D02*
X119000000Y-89950000D01*
X181000000Y-113950000D02*
X181000000Y-89950000D01*
D12*
X157668618Y-142721393D02*
X164719877Y-140832014D01*
X159092123Y-148033986D02*
X166143382Y-146144607D01*
X166143382Y-146144607D02*
X165845740Y-145033792D01*
X115140580Y-95510000D02*
X114859420Y-95510000D01*
X115140580Y-94490000D02*
X114859420Y-94490000D01*
X178001517Y-133163396D02*
X183163396Y-128001517D01*
X181890604Y-137052483D02*
X187052483Y-131890604D01*
X187052483Y-131890604D02*
X186239311Y-131077431D01*
X121998483Y-66836604D02*
X116836604Y-71998483D01*
X118109396Y-62947517D02*
X112947517Y-68109396D01*
X112947517Y-68109396D02*
X113760689Y-68922569D01*
X142350000Y-117750000D02*
X142350000Y-119090000D01*
X142350000Y-121810000D02*
X142350000Y-123550000D01*
X142350000Y-123550000D02*
X157650000Y-123550000D01*
X143840000Y-117750000D02*
X142350000Y-117750000D01*
X143840000Y-117750000D02*
X143840000Y-116550000D01*
X156160000Y-117750000D02*
X157650000Y-117750000D01*
X157650000Y-117750000D02*
X157650000Y-119090000D01*
X157650000Y-123550000D02*
X157650000Y-121810000D01*
X142331382Y-57278607D02*
X135280123Y-59167986D01*
X140907877Y-51966014D02*
X133856618Y-53855393D01*
X133856618Y-53855393D02*
X134154260Y-54966208D01*
X125000000Y-114560000D02*
X126800000Y-114560000D01*
X125000000Y-114560000D02*
X124200000Y-114560000D01*
X125000000Y-111440000D02*
X125800000Y-111440000D01*
X125000000Y-111440000D02*
X124200000Y-111440000D01*
X107278607Y-107668618D02*
X109167986Y-114719877D01*
X101966014Y-109092123D02*
X103855393Y-116143382D01*
X103855393Y-116143382D02*
X104966208Y-115845740D01*
X120261252Y-113735000D02*
X119738748Y-113735000D01*
X120261252Y-112265000D02*
X119738748Y-112265000D01*
X172735000Y-99738748D02*
X172735000Y-100261252D01*
X171265000Y-99738748D02*
X171265000Y-100261252D01*
X130261252Y-113735000D02*
X129738748Y-113735000D01*
X130261252Y-112265000D02*
X129738748Y-112265000D01*
X175510000Y-99859420D02*
X175510000Y-100140580D01*
X174490000Y-99859420D02*
X174490000Y-100140580D01*
X192721393Y-92331382D02*
X190832014Y-85280123D01*
X198033986Y-90907877D02*
X196144607Y-83856618D01*
X196144607Y-83856618D02*
X195033792Y-84154260D01*
D11*
X178850000Y-98950000D02*
X178850000Y-99450000D01*
X178850000Y-98950000D02*
X179350000Y-98950000D01*
X179050000Y-99150000D02*
X179050000Y-100850000D01*
X179050000Y-99150000D02*
X180950000Y-99150000D01*
X179050000Y-100850000D02*
X180950000Y-100850000D01*
X180950000Y-99150000D02*
X180950000Y-100850000D01*
D12*
X155490000Y-112140580D02*
X155490000Y-111859420D01*
X156510000Y-112140580D02*
X156510000Y-111859420D01*
X116836604Y-128001517D02*
X121998483Y-133163396D01*
X112947517Y-131890604D02*
X118109396Y-137052483D01*
X118109396Y-137052483D02*
X118922569Y-136239311D01*
X144490000Y-112140580D02*
X144490000Y-111859420D01*
X145510000Y-112140580D02*
X145510000Y-111859420D01*
X111145000Y-91330000D02*
X111145000Y-90000000D01*
X112475000Y-91330000D02*
X111145000Y-91330000D01*
X113745000Y-91330000D02*
X118885000Y-91330000D01*
X113745000Y-91330000D02*
X113745000Y-88670000D01*
X118885000Y-91330000D02*
X118885000Y-88670000D01*
X113745000Y-88670000D02*
X118885000Y-88670000D01*
X164719877Y-59167986D02*
X157668618Y-57278607D01*
X166143382Y-53855393D02*
X159092123Y-51966014D01*
X159092123Y-51966014D02*
X158794481Y-53076829D01*
X157265000Y-112261252D02*
X157265000Y-111738748D01*
X158735000Y-112261252D02*
X158735000Y-111738748D01*
X184670000Y-97130000D02*
X186000000Y-97130000D01*
X184670000Y-98460000D02*
X184670000Y-97130000D01*
X184670000Y-99730000D02*
X184670000Y-102330000D01*
X184670000Y-99730000D02*
X187330000Y-99730000D01*
X184670000Y-102330000D02*
X187330000Y-102330000D01*
X187330000Y-99730000D02*
X187330000Y-102330000D01*
X151477500Y-112237258D02*
X151477500Y-111762742D01*
X152522500Y-112237258D02*
X152522500Y-111762742D01*
X113560000Y-100590000D02*
X113560000Y-101090000D01*
X114060000Y-97370000D02*
X113560000Y-97370000D01*
X114060000Y-101090000D02*
X113560000Y-101090000D01*
X116440000Y-97370000D02*
X115940000Y-97370000D01*
X116440000Y-97370000D02*
X116440000Y-97870000D01*
X116440000Y-100590000D02*
X116440000Y-101090000D01*
X116440000Y-101090000D02*
X115940000Y-101090000D01*
G36*
X143238822Y-129400956D02*
G01*
X143349190Y-129571905D01*
X143255304Y-129681220D01*
X143138039Y-129758044D01*
X142996324Y-129723743D01*
X142883688Y-129648179D01*
X142940170Y-129439436D01*
X143059698Y-129267220D01*
X143238822Y-129400956D01*
G37*
G36*
X143376800Y-129033652D02*
G01*
X143432616Y-129226089D01*
X143424740Y-129334607D01*
X143259161Y-129305872D01*
X143121296Y-129245620D01*
X143159831Y-129118686D01*
X143275602Y-128948170D01*
X143295653Y-128936388D01*
X143376800Y-129033652D01*
G37*
G36*
X142689385Y-129048631D02*
G01*
X142863877Y-129140215D01*
X142979496Y-129266188D01*
X142886354Y-129390326D01*
X142727728Y-129472480D01*
X142661561Y-129365194D01*
X142639610Y-129175574D01*
X142674708Y-129053075D01*
X142689385Y-129048630D01*
X142689385Y-129048631D01*
G37*
G36*
X140456549Y-132157486D02*
G01*
X140453609Y-132235109D01*
X140453036Y-132486665D01*
X140453036Y-132741637D01*
X140611682Y-132741637D01*
X140770329Y-132741637D01*
X140770434Y-132839718D01*
X140770329Y-132937800D01*
X140512567Y-132937800D01*
X140254908Y-132937800D01*
X140254908Y-132548883D01*
X140254908Y-132157589D01*
X140456549Y-132157484D01*
X140456549Y-132157486D01*
G37*
G36*
X141119353Y-132158196D02*
G01*
X141389725Y-132158726D01*
X141390344Y-132251227D01*
X141390963Y-132343728D01*
X141220120Y-132343728D01*
X141049278Y-132343622D01*
X141049278Y-132404290D01*
X141049278Y-132464958D01*
X141205961Y-132464958D01*
X141362644Y-132464958D01*
X141362644Y-132549914D01*
X141362644Y-132634767D01*
X141205961Y-132634767D01*
X141049278Y-132634767D01*
X141049278Y-132692335D01*
X141049278Y-132750005D01*
X141220120Y-132750005D01*
X141390963Y-132750005D01*
X141390963Y-132843953D01*
X141390963Y-132938004D01*
X141120075Y-132938004D01*
X140849187Y-132938004D01*
X140849187Y-132547847D01*
X140849187Y-132157484D01*
X141119353Y-132158196D01*
G37*
G36*
X142434838Y-132157580D02*
G01*
X142534987Y-132157580D01*
X142534881Y-132418959D01*
X142535493Y-132619202D01*
X142537157Y-132692121D01*
X142604646Y-132763124D01*
X142728566Y-132740697D01*
X142753061Y-132701836D01*
X142756753Y-132657037D01*
X142757300Y-132423507D01*
X142757300Y-132157580D01*
X142856829Y-132158199D01*
X142956461Y-132158728D01*
X142956461Y-132438608D01*
X142956461Y-132718591D01*
X142950879Y-132738331D01*
X142945298Y-132761276D01*
X142913052Y-132825561D01*
X142716372Y-132944210D01*
X142593589Y-132946999D01*
X142564030Y-132942242D01*
X142441557Y-132889635D01*
X142361561Y-132796411D01*
X142353500Y-132778220D01*
X142340374Y-132732745D01*
X142335929Y-132710525D01*
X142335310Y-132434159D01*
X142334781Y-132157484D01*
X142434838Y-132157580D01*
G37*
G36*
X141592404Y-132158213D02*
G01*
X141691933Y-132159764D01*
X141697098Y-132172373D01*
X141707020Y-132195111D01*
X141719319Y-132224463D01*
X141731928Y-132252782D01*
X141740403Y-132272005D01*
X141759936Y-132318514D01*
X141767791Y-132336601D01*
X141798384Y-132407294D01*
X141809339Y-132432202D01*
X141817298Y-132451012D01*
X141825359Y-132470133D01*
X141833420Y-132488736D01*
X141843859Y-132513128D01*
X141854401Y-132536279D01*
X141859359Y-132526460D01*
X141868248Y-132505583D01*
X141875379Y-132488426D01*
X141905455Y-132419800D01*
X141915480Y-132396752D01*
X141925298Y-132374325D01*
X141956408Y-132302391D01*
X141979248Y-132248854D01*
X141986897Y-132231594D01*
X141993718Y-132216402D01*
X142008911Y-132181055D01*
X142018936Y-132158834D01*
X142117741Y-132158834D01*
X142216444Y-132158834D01*
X142216444Y-132547957D01*
X142216444Y-132937081D01*
X142117431Y-132937081D01*
X142018419Y-132937081D01*
X142017800Y-132828974D01*
X142023381Y-132647073D01*
X142030616Y-132564701D01*
X142028547Y-132556122D01*
X142016455Y-132577930D01*
X141987103Y-132654204D01*
X141981108Y-132670327D01*
X141970773Y-132697406D01*
X141962608Y-132718387D01*
X141953410Y-132743811D01*
X141939974Y-132778434D01*
X141932222Y-132797658D01*
X141926435Y-132814298D01*
X141924059Y-132822980D01*
X141855226Y-132822360D01*
X141786290Y-132821741D01*
X141777298Y-132798487D01*
X141762622Y-132760039D01*
X141750530Y-132728827D01*
X141725208Y-132664335D01*
X141698750Y-132597362D01*
X141689758Y-132573591D01*
X141680147Y-132555918D01*
X141678702Y-132565529D01*
X141684696Y-132630228D01*
X141689655Y-132811716D01*
X141689655Y-132938013D01*
X141590539Y-132938013D01*
X141491527Y-132938013D01*
X141492146Y-132548373D01*
X141492972Y-132158526D01*
X141592604Y-132158103D01*
X141592404Y-132158213D01*
G37*
G36*
X142709540Y-127052871D02*
G01*
X142885429Y-127069434D01*
X143048771Y-127135735D01*
X143191680Y-127264124D01*
X143284585Y-127461789D01*
X143287697Y-127677178D01*
X143212493Y-127878147D01*
X143070448Y-128032553D01*
X142921951Y-128131563D01*
X142871079Y-128157105D01*
X142753361Y-128216211D01*
X142535464Y-128306777D01*
X142533735Y-128307648D01*
X142324927Y-128412808D01*
X142213754Y-128479101D01*
X142122533Y-128533498D01*
X141929065Y-128668039D01*
X141927364Y-128669406D01*
X141745308Y-128815626D01*
X141655132Y-128898807D01*
X141572044Y-128975450D01*
X141410056Y-129146706D01*
X141408016Y-129149182D01*
X141260128Y-129328587D01*
X141188908Y-129428182D01*
X141123044Y-129520286D01*
X141000082Y-129720190D01*
X140999587Y-129720996D01*
X140890539Y-129929910D01*
X140841435Y-130043083D01*
X140796685Y-130146222D01*
X140749850Y-130276062D01*
X140711521Y-130418328D01*
X140710105Y-130423581D01*
X140722229Y-130503657D01*
X140830998Y-130431166D01*
X141023472Y-130219739D01*
X141232818Y-130034819D01*
X141453523Y-129879569D01*
X141680069Y-129757150D01*
X141906941Y-129670724D01*
X142128623Y-129623452D01*
X142339601Y-129618496D01*
X142534356Y-129659017D01*
X142539521Y-129660567D01*
X142442941Y-129498174D01*
X142373537Y-129310821D01*
X142225503Y-129109003D01*
X142134831Y-128891595D01*
X142134887Y-128703639D01*
X142254480Y-128703639D01*
X142409524Y-128804576D01*
X142522784Y-128948896D01*
X142437424Y-129073509D01*
X142414263Y-129257714D01*
X142332097Y-129162319D01*
X142422324Y-129276525D01*
X142428836Y-129288410D01*
X142520010Y-129530147D01*
X142666134Y-129721355D01*
X142768970Y-129800110D01*
X142868972Y-129867858D01*
X142939371Y-129960009D01*
X142986278Y-130065405D01*
X143015805Y-130172890D01*
X143034066Y-130271306D01*
X143047171Y-130349497D01*
X143061235Y-130396305D01*
X143082367Y-130400573D01*
X143116682Y-130351144D01*
X143170290Y-130236861D01*
X143249305Y-130046567D01*
X143359838Y-129769104D01*
X143362421Y-129765485D01*
X143367795Y-129756390D01*
X143477358Y-129622704D01*
X143560279Y-129478891D01*
X143610779Y-129293038D01*
X143623077Y-129033230D01*
X143627829Y-129016073D01*
X143667929Y-128903418D01*
X143675784Y-128867348D01*
X143623281Y-129002121D01*
X143545247Y-128855491D01*
X143391564Y-128731439D01*
X143466892Y-128604026D01*
X143620481Y-128437306D01*
X143430945Y-128514300D01*
X143243153Y-128682662D01*
X143224446Y-128696614D01*
X143248321Y-128703229D01*
X143272247Y-128762675D01*
X143125227Y-128797900D01*
X142991474Y-128805955D01*
X142807521Y-128869110D01*
X142666653Y-128929653D01*
X142578869Y-128926465D01*
X142644430Y-128833453D01*
X142616318Y-128830247D01*
X142412295Y-128725663D01*
X142254480Y-128703639D01*
X142134887Y-128703639D01*
X142134895Y-128678612D01*
X142155669Y-128657631D01*
X142357302Y-128651975D01*
X142633676Y-128771526D01*
X142853910Y-128655954D01*
X143029211Y-128625436D01*
X143205527Y-128636857D01*
X143399314Y-128463844D01*
X143639609Y-128371137D01*
X143692836Y-128374132D01*
X143712576Y-128387155D01*
X143757682Y-128539548D01*
X143755675Y-128731733D01*
X143726426Y-128917665D01*
X143682914Y-129036521D01*
X143668455Y-129301734D01*
X143614458Y-129498056D01*
X143528853Y-129651507D01*
X143419571Y-129788103D01*
X143404894Y-129997777D01*
X143353739Y-130201276D01*
X143265780Y-130401163D01*
X143140693Y-130599997D01*
X143082367Y-130671887D01*
X142978151Y-130800340D01*
X142992207Y-130885814D01*
X143030137Y-131043323D01*
X143110872Y-131257063D01*
X143194572Y-131461075D01*
X143275911Y-131660443D01*
X143339886Y-131792941D01*
X143441275Y-131850923D01*
X143532019Y-131892884D01*
X143577184Y-131945387D01*
X143617047Y-132055658D01*
X143649634Y-132200875D01*
X143656456Y-132284178D01*
X143651081Y-132300921D01*
X143659246Y-132321488D01*
X143673303Y-132422257D01*
X143657076Y-132535738D01*
X143581318Y-132641262D01*
X143535131Y-132665015D01*
X143527058Y-132669167D01*
X143523750Y-132671025D01*
X143534086Y-132685494D01*
X143559924Y-132717844D01*
X143591860Y-132758875D01*
X143604469Y-132774068D01*
X143633615Y-132810758D01*
X143664104Y-132849205D01*
X143673406Y-132860574D01*
X143691596Y-132883828D01*
X143720534Y-132920415D01*
X143734280Y-132938089D01*
X143611084Y-132938089D01*
X143487887Y-132938089D01*
X143476932Y-132922999D01*
X143445926Y-132880108D01*
X143412543Y-132834735D01*
X143386395Y-132798665D01*
X143371099Y-132777685D01*
X143345777Y-132743062D01*
X143341024Y-132736531D01*
X143314565Y-132700170D01*
X143306400Y-132689628D01*
X143290173Y-132690052D01*
X143274050Y-132690475D01*
X143273431Y-132814292D01*
X143272812Y-132938109D01*
X143173696Y-132938109D01*
X143073650Y-132935627D01*
X143073650Y-132935521D01*
X143073214Y-132820015D01*
X143073333Y-132545881D01*
X143073428Y-132429404D01*
X143273316Y-132429404D01*
X143273845Y-132519114D01*
X143341024Y-132520871D01*
X143418436Y-132515913D01*
X143459364Y-132489454D01*
X143475176Y-132401398D01*
X143416472Y-132346104D01*
X143339577Y-132342485D01*
X143273845Y-132342485D01*
X143273316Y-132429404D01*
X143073428Y-132429404D01*
X143073650Y-132158825D01*
X143126877Y-132158613D01*
X142931437Y-131984773D01*
X142886600Y-131940442D01*
X142957172Y-131940442D01*
X143074189Y-132031583D01*
X143194470Y-132157174D01*
X143411314Y-132191919D01*
X143497875Y-132268524D01*
X143535131Y-132316610D01*
X143604057Y-132265797D01*
X143594239Y-132187869D01*
X143529437Y-131964213D01*
X143501531Y-131931244D01*
X143420399Y-131894244D01*
X143299683Y-131822723D01*
X143195947Y-131929827D01*
X142957172Y-131940442D01*
X142886600Y-131940442D01*
X142846386Y-131900681D01*
X142734515Y-131751691D01*
X142586032Y-131524853D01*
X142496322Y-131386153D01*
X142471517Y-131350393D01*
X142413226Y-131410648D01*
X142252387Y-131545247D01*
X142047770Y-131681123D01*
X141958163Y-131751299D01*
X142098413Y-131801942D01*
X142312250Y-131818169D01*
X142470267Y-131792885D01*
X142598021Y-131794708D01*
X142748812Y-131919041D01*
X142730519Y-132023841D01*
X142103167Y-132101252D01*
X142095621Y-132101829D01*
X141789698Y-132125230D01*
X141563874Y-132131143D01*
X141312424Y-132114208D01*
X141034189Y-132070349D01*
X141024680Y-132070667D01*
X140923441Y-132048651D01*
X142095621Y-132048651D01*
X142706850Y-131973203D01*
X142709226Y-131967519D01*
X142704268Y-131942818D01*
X142641429Y-131873158D01*
X142585929Y-131840602D01*
X142525364Y-131837813D01*
X142525363Y-131837814D01*
X142435446Y-131844119D01*
X142435446Y-131844013D01*
X142321654Y-131863546D01*
X142205321Y-131890400D01*
X142190188Y-131901993D01*
X142184280Y-131940639D01*
X142095621Y-132048651D01*
X140923441Y-132048651D01*
X140816363Y-132025365D01*
X140638388Y-131944676D01*
X140492413Y-131828821D01*
X140380221Y-131678645D01*
X140303041Y-131495671D01*
X140261729Y-131281155D01*
X140255293Y-131064015D01*
X140269120Y-130833888D01*
X140301142Y-130598415D01*
X140349288Y-130365238D01*
X140405469Y-130163600D01*
X140440220Y-130163600D01*
X140459856Y-130169801D01*
X140692814Y-130257857D01*
X140711521Y-130266332D01*
X140719376Y-130247418D01*
X140765781Y-130135488D01*
X140772499Y-130117814D01*
X140755239Y-130110166D01*
X140513703Y-130018182D01*
X140502128Y-130014462D01*
X140493547Y-130023040D01*
X140490346Y-130026141D01*
X140488796Y-130030068D01*
X140446937Y-130144169D01*
X140440220Y-130163600D01*
X140405469Y-130163600D01*
X140411487Y-130141999D01*
X140498592Y-129914170D01*
X140540301Y-129824086D01*
X140575715Y-129824086D01*
X140594629Y-129832354D01*
X140822625Y-129946869D01*
X140841435Y-129957618D01*
X140850634Y-129937981D01*
X140902413Y-129830804D01*
X140911199Y-129813751D01*
X140894455Y-129804242D01*
X140663669Y-129686627D01*
X140646408Y-129678979D01*
X140637830Y-129695825D01*
X140584500Y-129805482D01*
X140575715Y-129824086D01*
X140540301Y-129824086D01*
X140601056Y-129692864D01*
X140702875Y-129506793D01*
X140741700Y-129506793D01*
X140761750Y-129516094D01*
X140982512Y-129642495D01*
X141000082Y-129654380D01*
X141010934Y-129636190D01*
X141073256Y-129534077D01*
X141084004Y-129517645D01*
X141067675Y-129506689D01*
X140842779Y-129376258D01*
X140826863Y-129368713D01*
X140817354Y-129383596D01*
X140753069Y-129487775D01*
X140741700Y-129506793D01*
X140702875Y-129506793D01*
X140718157Y-129478865D01*
X140849170Y-129272958D01*
X140902990Y-129199421D01*
X140942928Y-129199421D01*
X140961738Y-129210790D01*
X141172785Y-129355587D01*
X141188908Y-129367783D01*
X141200897Y-129351557D01*
X141273760Y-129256575D01*
X141286473Y-129240556D01*
X141270350Y-129228153D01*
X141055996Y-129080255D01*
X141040906Y-129071160D01*
X141029951Y-129085010D01*
X140955950Y-129181748D01*
X140942928Y-129199421D01*
X140902990Y-129199421D01*
X140993372Y-129075927D01*
X141131566Y-128910653D01*
X141176402Y-128910653D01*
X141194592Y-128923676D01*
X141393237Y-129084596D01*
X141408016Y-129098032D01*
X141421452Y-129083252D01*
X141503927Y-128996539D01*
X141518397Y-128981760D01*
X141503101Y-128967807D01*
X141300529Y-128802546D01*
X141286473Y-128792418D01*
X141274484Y-128804923D01*
X141191388Y-128894013D01*
X141176402Y-128910653D01*
X141131566Y-128910653D01*
X141150041Y-128888558D01*
X141318452Y-128711635D01*
X141385088Y-128650101D01*
X141432717Y-128650101D01*
X141451424Y-128664674D01*
X141641697Y-128835826D01*
X141655132Y-128849468D01*
X141669292Y-128836653D01*
X141760242Y-128759242D01*
X141776882Y-128745392D01*
X141761690Y-128729992D01*
X141568419Y-128552432D01*
X141555500Y-128541890D01*
X141542891Y-128552742D01*
X141450287Y-128634184D01*
X141432717Y-128650101D01*
X141385088Y-128650101D01*
X141497881Y-128545943D01*
X141664803Y-128410736D01*
X141719521Y-128410736D01*
X141736781Y-128427065D01*
X141915272Y-128613411D01*
X141927364Y-128626846D01*
X141941937Y-128616201D01*
X142040742Y-128547678D01*
X142059655Y-128534862D01*
X142044566Y-128517809D01*
X141864112Y-128327123D01*
X141852330Y-128315651D01*
X141838791Y-128325056D01*
X141738642Y-128396576D01*
X141719521Y-128410736D01*
X141664803Y-128410736D01*
X141687606Y-128392266D01*
X141886903Y-128251389D01*
X141957922Y-128207957D01*
X142019451Y-128207957D01*
X142036814Y-128226147D01*
X142203006Y-128423551D01*
X142213754Y-128437814D01*
X142229154Y-128428822D01*
X142334367Y-128370118D01*
X142354624Y-128359266D01*
X142340982Y-128340662D01*
X142173447Y-128136747D01*
X142162802Y-128125378D01*
X142149159Y-128132819D01*
X142041052Y-128195141D01*
X142019451Y-128207957D01*
X141957922Y-128207957D01*
X142095049Y-128124097D01*
X142268565Y-128033497D01*
X142344082Y-128033497D01*
X142362376Y-128053031D01*
X142524434Y-128257153D01*
X142533735Y-128271312D01*
X142549238Y-128264388D01*
X142660343Y-128216122D01*
X142682770Y-128207130D01*
X142669747Y-128186873D01*
X142593708Y-128078340D01*
X142508517Y-127975413D01*
X142499422Y-127965181D01*
X142486606Y-127970039D01*
X142367854Y-128021405D01*
X142344082Y-128033497D01*
X142268565Y-128033497D01*
X142311320Y-128011173D01*
X142501609Y-127932468D01*
X142598039Y-127890043D01*
X142688765Y-127890043D01*
X142706128Y-127909474D01*
X142861054Y-128112046D01*
X142871079Y-128127859D01*
X142887512Y-128118867D01*
X142995206Y-128050137D01*
X143009882Y-128038975D01*
X142999960Y-128023472D01*
X142840280Y-127818110D01*
X142827981Y-127804468D01*
X142813305Y-127815629D01*
X142711916Y-127878262D01*
X142688765Y-127890043D01*
X142598039Y-127890043D01*
X142697345Y-127846353D01*
X142871906Y-127710830D01*
X142887822Y-127519834D01*
X142725868Y-127429607D01*
X142542532Y-127470567D01*
X142369714Y-127407593D01*
X142334674Y-127255167D01*
X142436480Y-127130504D01*
X142563291Y-127072411D01*
X142709435Y-127052782D01*
X142709540Y-127052871D01*
G37*
M02*
