G04 #@! TF.GenerationSoftware,KiCad,Pcbnew,7.0.4-40-g0180cb380f*
G04 #@! TF.CreationDate,2023-06-23T20:45:51-07:00*
G04 #@! TF.ProjectId,RobotOwl,526f626f-744f-4776-9c2e-6b696361645f,rev?*
G04 #@! TF.SameCoordinates,Original*
G04 #@! TF.FileFunction,Soldermask,Bot*
G04 #@! TF.FilePolarity,Negative*
%FSLAX46Y46*%
G04 Gerber Fmt 4.6, Leading zero omitted, Abs format (unit mm)*
G04 Created by KiCad (PCBNEW 7.0.4-40-g0180cb380f) date 2023-06-23 20:45:51*
%MOMM*%
%LPD*%
G01*
G04 APERTURE LIST*
%ADD10C,0.650000*%
%ADD11R,1.524000X1.524000*%
%ADD12C,1.524000*%
%ADD13R,1.700000X1.700000*%
%ADD14O,1.700000X1.700000*%
%ADD15C,1.152000*%
%ADD16C,0.800000*%
%ADD17C,5.400000*%
%ADD18C,0.500000*%
G04 APERTURE END LIST*
D10*
X198325000Y-100000000D02*
G75*
G03*
X198325000Y-100000000I-325000J0D01*
G01*
X150325000Y-148000000D02*
G75*
G03*
X150325000Y-148000000I-325000J0D01*
G01*
X102325000Y-100000000D02*
G75*
G03*
X102325000Y-100000000I-325000J0D01*
G01*
D11*
X134760000Y-63902500D03*
X137300000Y-63902500D03*
D12*
X134760000Y-66442500D03*
X137300000Y-66442500D03*
X134760000Y-68982500D03*
X137300000Y-68982500D03*
X134760000Y-71522500D03*
X137300000Y-71522500D03*
X134760000Y-74062500D03*
X137300000Y-74062500D03*
X134760000Y-76602500D03*
X137300000Y-76602500D03*
X134760000Y-79142500D03*
X137300000Y-79142500D03*
X134760000Y-81682500D03*
X137300000Y-81682500D03*
X134760000Y-84222500D03*
X137300000Y-84222500D03*
X134760000Y-86762500D03*
X137300000Y-86762500D03*
X134760000Y-89302500D03*
X137300000Y-89302500D03*
X134760000Y-91842500D03*
X137300000Y-91842500D03*
X134760000Y-94382500D03*
X137300000Y-94382500D03*
X134760000Y-96922500D03*
X137300000Y-96922500D03*
X134760000Y-99462500D03*
X137300000Y-99462500D03*
X134760000Y-102002500D03*
X137300000Y-102002500D03*
X134760000Y-104542500D03*
X137300000Y-104542500D03*
X134760000Y-107082500D03*
X137300000Y-107082500D03*
X134760000Y-109622500D03*
X137300000Y-109622500D03*
X134760000Y-112162500D03*
X137300000Y-112162500D03*
X162700000Y-112162500D03*
X165240000Y-112162500D03*
X162700000Y-109622500D03*
X165240000Y-109622500D03*
X162700000Y-107082500D03*
X165240000Y-107082500D03*
X162700000Y-104542500D03*
X165240000Y-104542500D03*
X162700000Y-102002500D03*
X165240000Y-102002500D03*
X162700000Y-99462500D03*
X165240000Y-99462500D03*
X162700000Y-96922500D03*
X165240000Y-96922500D03*
X162700000Y-94382500D03*
X165240000Y-94382500D03*
X162700000Y-91842500D03*
X165240000Y-91842500D03*
X162700000Y-89302500D03*
X165240000Y-89302500D03*
X162700000Y-86762500D03*
X165240000Y-86762500D03*
X162700000Y-84222500D03*
X165240000Y-84222500D03*
X162700000Y-81682500D03*
X165240000Y-81682500D03*
X162700000Y-79142500D03*
X165240000Y-79142500D03*
X162700000Y-76602500D03*
X165240000Y-76602500D03*
X162700000Y-74062500D03*
X165240000Y-74062500D03*
X162700000Y-71522500D03*
X165240000Y-71522500D03*
X162700000Y-68982500D03*
X165240000Y-68982500D03*
X162700000Y-66442500D03*
X165240000Y-66442500D03*
X162700000Y-63902500D03*
X165240000Y-63902500D03*
D13*
X152475000Y-138000000D03*
D14*
X155015000Y-138000000D03*
X157555000Y-138000000D03*
D13*
X142460000Y-138000000D03*
D14*
X145000000Y-138000000D03*
X147540000Y-138000000D03*
D15*
X198000000Y-100000000D03*
D16*
X122975000Y-125000000D03*
X123568109Y-123568109D03*
X123568109Y-126431891D03*
X125000000Y-122975000D03*
D17*
X125000000Y-125000000D03*
D16*
X125000000Y-127025000D03*
X126431891Y-123568109D03*
X126431891Y-126431891D03*
X127025000Y-125000000D03*
D15*
X150000000Y-148000000D03*
D16*
X122975000Y-75000000D03*
X123568109Y-73568109D03*
X123568109Y-76431891D03*
X125000000Y-72975000D03*
D17*
X125000000Y-75000000D03*
D16*
X125000000Y-77025000D03*
X126431891Y-73568109D03*
X126431891Y-76431891D03*
X127025000Y-75000000D03*
X172975000Y-125000000D03*
X173568109Y-123568109D03*
X173568109Y-126431891D03*
X175000000Y-122975000D03*
D17*
X175000000Y-125000000D03*
D16*
X175000000Y-127025000D03*
X176431891Y-123568109D03*
X176431891Y-126431891D03*
X177025000Y-125000000D03*
D13*
X112475000Y-90000000D03*
D14*
X115015000Y-90000000D03*
X117555000Y-90000000D03*
D13*
X186000000Y-98460000D03*
D14*
X186000000Y-101000000D03*
D16*
X172975000Y-75000000D03*
X173568109Y-73568109D03*
X173568109Y-76431891D03*
X175000000Y-72975000D03*
D17*
X175000000Y-75000000D03*
D16*
X175000000Y-77025000D03*
X176431891Y-73568109D03*
X176431891Y-76431891D03*
X177025000Y-75000000D03*
D18*
X115000000Y-100000000D03*
D15*
X102000000Y-100000000D03*
M02*
