M48
; DRILL file {KiCad 7.0.8} date Wed Mar  6 12:11:17 2024
; FORMAT={-:-/ absolute / inch / decimal}
; #@! TF.CreationDate,2024-03-06T12:11:17-08:00
; #@! TF.GenerationSoftware,Kicad,Pcbnew,7.0.8
; #@! TF.FileFunction,Plated,1,2,PTH
FMAT,2
INCH
; #@! TA.AperFunction,Plated,PTH,ViaDrill
T1C0.0118
; #@! TA.AperFunction,Plated,PTH,ComponentDrill
T2C0.0118
; #@! TA.AperFunction,Plated,PTH,ViaDrill
T3C0.0197
; #@! TA.AperFunction,Plated,PTH,ComponentDrill
T4C0.0197
; #@! TA.AperFunction,Plated,PTH,ComponentDrill
T5C0.0236
; #@! TA.AperFunction,Plated,PTH,ComponentDrill
T6C0.0295
; #@! TA.AperFunction,Plated,PTH,ComponentDrill
T7C0.1260
%
G90
G05
T1
X3.0315Y-5.0
X3.0709Y-5.1772
X3.0709Y-5.2756
X3.1496Y-4.6516
X3.1496Y-4.7972
X3.3465Y-4.0551
X3.3465Y-5.1969
X3.3465Y-5.3543
X3.4843Y-4.0945
X3.5039Y-3.9764
X3.5039Y-5.1969
X3.5039Y-5.3543
X3.5236Y-4.0945
X3.7402Y-3.8976
X3.7402Y-4.1339
X3.7402Y-4.1732
X3.7795Y-4.9213
X3.7795Y-5.8661
X3.8189Y-5.1969
X3.8189Y-5.3543
X3.8583Y-4.8425
X3.878Y-5.1181
X3.8976Y-5.0394
X3.9173Y-5.1181
X3.9764Y-4.9606
X3.9764Y-5.1969
X4.0354Y-5.9843
X4.1339Y-5.9843
X4.1929Y-4.6457
X4.2126Y-4.3701
X4.2323Y-5.8661
X4.252Y-4.6457
X4.4685Y-5.4724
X4.5669Y-6.0236
X4.626Y-4.1929
X4.685Y-3.7402
X4.685Y-4.4488
X4.7244Y-4.7972
X4.7244Y-5.1772
X4.7244Y-5.374
X4.7638Y-4.4488
X4.8228Y-4.1929
T2
X3.8228Y-4.0063
X3.8228Y-4.0614
X3.8504Y-3.9787
X3.8504Y-4.0339
X3.8504Y-4.089
X3.878Y-4.0063
X3.878Y-4.0614
X3.9055Y-3.9787
X3.9055Y-4.0339
X3.9055Y-4.089
X3.9331Y-4.0063
X3.9331Y-4.0614
T3
X3.3465Y-3.7402
X3.3465Y-3.8189
X3.3465Y-3.8976
X3.3465Y-4.2913
X3.6417Y-3.7205
X3.6811Y-5.9449
X3.7795Y-5.748
X3.8976Y-5.9055
X4.0551Y-5.7874
X4.1535Y-5.0394
X4.2126Y-5.7874
X4.2323Y-3.7205
X4.2323Y-5.4921
X4.3504Y-5.0394
X4.4094Y-5.5512
X4.4488Y-5.7087
X4.4685Y-5.1181
X4.4685Y-5.3543
T4
X3.0551Y-3.937
X3.0551Y-5.9055
X3.0828Y-3.8702
X3.0828Y-4.0038
X3.0828Y-5.8387
X3.0828Y-5.9723
X3.1496Y-3.8425
X3.1496Y-4.0315
X3.1496Y-5.811
X3.1496Y-6.0
X3.2164Y-3.8702
X3.2164Y-4.0038
X3.2164Y-5.8387
X3.2164Y-5.9723
X3.2441Y-3.937
X3.2441Y-5.9055
X4.6299Y-3.937
X4.6299Y-5.9055
X4.6576Y-3.8702
X4.6576Y-4.0038
X4.6576Y-5.8387
X4.6576Y-5.9723
X4.7244Y-3.8425
X4.7244Y-4.0315
X4.7244Y-5.811
X4.7244Y-6.0
X4.7912Y-3.8702
X4.7912Y-4.0038
X4.7912Y-5.8387
X4.7912Y-5.9723
X4.8189Y-3.937
X4.8189Y-5.9055
T6
X3.3858Y-5.9055
X3.4646Y-5.9055
T7
X3.1496Y-3.937
X3.1496Y-5.9055
X4.7244Y-3.937
X4.7244Y-5.9055
T5
G00X3.0713Y-4.1213
M15
G01X3.0476Y-4.1213
M16
G05
G00X3.0713Y-4.4614
M15
G01X3.0476Y-4.4614
M16
G05
G00X3.2457Y-4.1213
M15
G01X3.2024Y-4.1213
M16
G05
G00X3.2457Y-4.4614
M15
G01X3.2024Y-4.4614
M16
G05
T0
M30
