G04 #@! TF.GenerationSoftware,KiCad,Pcbnew,7.0.8*
G04 #@! TF.CreationDate,2024-03-06T12:11:14-08:00*
G04 #@! TF.ProjectId,IotDisplay,496f7444-6973-4706-9c61-792e6b696361,rev?*
G04 #@! TF.SameCoordinates,Original*
G04 #@! TF.FileFunction,Copper,L2,Bot*
G04 #@! TF.FilePolarity,Positive*
%FSLAX46Y46*%
G04 Gerber Fmt 4.6, Leading zero omitted, Abs format (unit mm)*
G04 Created by KiCad (PCBNEW 7.0.8) date 2024-03-06 12:11:14*
%MOMM*%
%LPD*%
G01*
G04 APERTURE LIST*
G04 Aperture macros list*
%AMRoundRect*
0 Rectangle with rounded corners*
0 $1 Rounding radius*
0 $2 $3 $4 $5 $6 $7 $8 $9 X,Y pos of 4 corners*
0 Add a 4 corners polygon primitive as box body*
4,1,4,$2,$3,$4,$5,$6,$7,$8,$9,$2,$3,0*
0 Add four circle primitives for the rounded corners*
1,1,$1+$1,$2,$3*
1,1,$1+$1,$4,$5*
1,1,$1+$1,$6,$7*
1,1,$1+$1,$8,$9*
0 Add four rect primitives between the rounded corners*
20,1,$1+$1,$2,$3,$4,$5,0*
20,1,$1+$1,$4,$5,$6,$7,0*
20,1,$1+$1,$6,$7,$8,$9,0*
20,1,$1+$1,$8,$9,$2,$3,0*%
G04 Aperture macros list end*
G04 #@! TA.AperFunction,HeatsinkPad*
%ADD10C,0.600000*%
G04 #@! TD*
G04 #@! TA.AperFunction,ComponentPad*
%ADD11RoundRect,0.250000X-0.350000X-0.625000X0.350000X-0.625000X0.350000X0.625000X-0.350000X0.625000X0*%
G04 #@! TD*
G04 #@! TA.AperFunction,ComponentPad*
%ADD12O,1.200000X1.750000*%
G04 #@! TD*
G04 #@! TA.AperFunction,ComponentPad*
%ADD13O,1.600000X1.000000*%
G04 #@! TD*
G04 #@! TA.AperFunction,ComponentPad*
%ADD14O,2.100000X1.000000*%
G04 #@! TD*
G04 #@! TA.AperFunction,ComponentPad*
%ADD15C,0.800000*%
G04 #@! TD*
G04 #@! TA.AperFunction,ComponentPad*
%ADD16C,6.400000*%
G04 #@! TD*
G04 #@! TA.AperFunction,ViaPad*
%ADD17C,0.700000*%
G04 #@! TD*
G04 #@! TA.AperFunction,ViaPad*
%ADD18C,0.900000*%
G04 #@! TD*
G04 #@! TA.AperFunction,Conductor*
%ADD19C,0.200000*%
G04 #@! TD*
G04 #@! TA.AperFunction,Conductor*
%ADD20C,0.500000*%
G04 #@! TD*
G04 #@! TA.AperFunction,Conductor*
%ADD21C,1.000000*%
G04 #@! TD*
G04 APERTURE END LIST*
D10*
X97100000Y-101760000D03*
X97100000Y-103160000D03*
X97800000Y-101060000D03*
X97800000Y-102460000D03*
X97800000Y-103860000D03*
X98500000Y-101760000D03*
X98500000Y-103160000D03*
X99200000Y-101060000D03*
X99200000Y-102460000D03*
X99200000Y-103860000D03*
X99900000Y-101760000D03*
X99900000Y-103160000D03*
D11*
X86000000Y-150000000D03*
D12*
X88000000Y-150000000D03*
D13*
X77710000Y-113320000D03*
D14*
X81890000Y-113320000D03*
D13*
X77710000Y-104680000D03*
D14*
X81890000Y-104680000D03*
D15*
X77600000Y-150000000D03*
X78302944Y-148302944D03*
X78302944Y-151697056D03*
X80000000Y-147600000D03*
D16*
X80000000Y-150000000D03*
D15*
X80000000Y-152400000D03*
X81697056Y-148302944D03*
X81697056Y-151697056D03*
X82400000Y-150000000D03*
X77600000Y-100000000D03*
X78302944Y-98302944D03*
X78302944Y-101697056D03*
X80000000Y-97600000D03*
D16*
X80000000Y-100000000D03*
D15*
X80000000Y-102400000D03*
X81697056Y-98302944D03*
X81697056Y-101697056D03*
X82400000Y-100000000D03*
X117600000Y-100000000D03*
X118302944Y-98302944D03*
X118302944Y-101697056D03*
X120000000Y-97600000D03*
D16*
X120000000Y-100000000D03*
D15*
X120000000Y-102400000D03*
X121697056Y-98302944D03*
X121697056Y-101697056D03*
X122400000Y-100000000D03*
X117600000Y-150000000D03*
X118302944Y-148302944D03*
X118302944Y-151697056D03*
X120000000Y-147600000D03*
D16*
X120000000Y-150000000D03*
D15*
X120000000Y-152400000D03*
X121697056Y-148302944D03*
X121697056Y-151697056D03*
X122400000Y-150000000D03*
D17*
X95000000Y-99000000D03*
D18*
X96000000Y-146000000D03*
D17*
X97000000Y-136000000D03*
X97000000Y-132000000D03*
X85000000Y-136000000D03*
X85000000Y-132000000D03*
X98000000Y-123000000D03*
X96000000Y-125000000D03*
X99000000Y-128000000D03*
X101000000Y-126000000D03*
X101000000Y-132000000D03*
X89000000Y-136000000D03*
X77000000Y-127000000D03*
X89000000Y-132000000D03*
X78000000Y-131500000D03*
X98500000Y-130000000D03*
X99500000Y-130000000D03*
X89500000Y-104000000D03*
X88500000Y-104000000D03*
X95000000Y-105000000D03*
X95000000Y-106000000D03*
X116000000Y-153000000D03*
X107500000Y-149000000D03*
D18*
X113000000Y-145000000D03*
D17*
X108000000Y-118000000D03*
X106500000Y-118000000D03*
X89000000Y-101000000D03*
X80000000Y-118150000D03*
X107000000Y-111000000D03*
X85000000Y-103000000D03*
D18*
X85000000Y-99000000D03*
X85000000Y-97000000D03*
X85000000Y-95000000D03*
D17*
X119000000Y-95000000D03*
X120000000Y-136500000D03*
D18*
X112000000Y-141000000D03*
D17*
X113500000Y-139000000D03*
D18*
X110500000Y-128000000D03*
X107500000Y-139500000D03*
X113500000Y-136000000D03*
X105500000Y-128000000D03*
X113500000Y-130000000D03*
D17*
X120000000Y-131500000D03*
X119000000Y-113000000D03*
X78000000Y-134000000D03*
X80000000Y-121850000D03*
X120000000Y-121850000D03*
X122500000Y-106500000D03*
D18*
X92500000Y-94500000D03*
X99000000Y-150000000D03*
X93500000Y-151000000D03*
X85000000Y-109000000D03*
X107000000Y-147000000D03*
X107500000Y-94500000D03*
D17*
X105000000Y-152000000D03*
X121000000Y-113000000D03*
D18*
X103000000Y-147000000D03*
D17*
X117500000Y-106500000D03*
X96000000Y-149000000D03*
X102500000Y-152000000D03*
D19*
X110000000Y-99000000D02*
X117500000Y-106500000D01*
X95000000Y-99000000D02*
X110000000Y-99000000D01*
D20*
X103000000Y-147000000D02*
X105000000Y-149000000D01*
X105000000Y-149000000D02*
X105000000Y-152000000D01*
X96000000Y-146000000D02*
X103000000Y-146000000D01*
D19*
X95500000Y-105500000D02*
X95000000Y-105000000D01*
X103500000Y-113500000D02*
X103500000Y-108000000D01*
X103500000Y-108000000D02*
X101000000Y-105500000D01*
X108000000Y-118000000D02*
X103500000Y-113500000D01*
X101000000Y-105500000D02*
X95500000Y-105500000D01*
X103000000Y-114500000D02*
X106500000Y-118000000D01*
X103000000Y-108500000D02*
X103000000Y-114500000D01*
X100500000Y-106000000D02*
X103000000Y-108500000D01*
X95000000Y-106000000D02*
X100500000Y-106000000D01*
D21*
X122000000Y-114000000D02*
X121000000Y-113000000D01*
X123000000Y-114000000D02*
X122000000Y-114000000D01*
X124481450Y-112518550D02*
X123000000Y-114000000D01*
X124481450Y-106481450D02*
X124481450Y-112518550D01*
X119000000Y-105000000D02*
X123000000Y-105000000D01*
X111000000Y-97000000D02*
X119000000Y-105000000D01*
X123000000Y-105000000D02*
X124481450Y-106481450D01*
X94000000Y-97000000D02*
X111000000Y-97000000D01*
X93000000Y-120000000D02*
X93000000Y-97000000D01*
X93000000Y-97000000D02*
X95000000Y-97000000D01*
X103000000Y-130000000D02*
X93000000Y-120000000D01*
X110250000Y-128250000D02*
X110500000Y-128000000D01*
X108500000Y-130000000D02*
X110250000Y-128250000D01*
X103000000Y-134000000D02*
X103000000Y-130000000D01*
X103000000Y-134000000D02*
X78000000Y-134000000D01*
X103000000Y-147000000D02*
X103000000Y-134000000D01*
D19*
X88500000Y-120000000D02*
X88500000Y-104000000D01*
X98500000Y-130000000D02*
X88500000Y-120000000D01*
X89500000Y-120000000D02*
X99500000Y-130000000D01*
X89500000Y-104000000D02*
X89500000Y-120000000D01*
X80000000Y-110000000D02*
X80000000Y-118150000D01*
X89000000Y-101000000D02*
X80000000Y-110000000D01*
D21*
X94000000Y-97000000D02*
X85000000Y-97000000D01*
X103000000Y-130000000D02*
X108500000Y-130000000D01*
D19*
X99000000Y-152000000D02*
X102500000Y-152000000D01*
X96000000Y-149000000D02*
X99000000Y-152000000D01*
X118500000Y-113500000D02*
X119000000Y-113000000D01*
X114500000Y-111000000D02*
X117000000Y-113500000D01*
X117000000Y-113500000D02*
X118500000Y-113500000D01*
X107000000Y-111000000D02*
X114500000Y-111000000D01*
G04 #@! TA.AperFunction,Conductor*
G36*
X97488872Y-103407452D02*
G01*
X97550578Y-103469157D01*
X97791422Y-103710000D01*
X97780254Y-103710000D01*
X97722355Y-103725514D01*
X97665514Y-103782354D01*
X97647640Y-103849061D01*
X97108579Y-103310000D01*
X97119746Y-103310000D01*
X97177645Y-103294486D01*
X97234486Y-103237646D01*
X97252359Y-103170938D01*
X97488872Y-103407452D01*
G37*
G04 #@! TD.AperFunction*
G04 #@! TA.AperFunction,Conductor*
G36*
X98888872Y-103407452D02*
G01*
X98950578Y-103469157D01*
X99191422Y-103710000D01*
X99180254Y-103710000D01*
X99122355Y-103725514D01*
X99065514Y-103782354D01*
X99047640Y-103849061D01*
X98508579Y-103310000D01*
X98519746Y-103310000D01*
X98577645Y-103294486D01*
X98634486Y-103237646D01*
X98652359Y-103170938D01*
X98888872Y-103407452D01*
G37*
G04 #@! TD.AperFunction*
G04 #@! TA.AperFunction,Conductor*
G36*
X98365514Y-103237645D02*
G01*
X98422355Y-103294486D01*
X98480254Y-103310000D01*
X98491421Y-103310000D01*
X98190801Y-103610617D01*
X98190796Y-103610624D01*
X98188882Y-103612539D01*
X97952359Y-103849060D01*
X97934486Y-103782355D01*
X97877645Y-103725514D01*
X97819746Y-103710000D01*
X97808578Y-103710000D01*
X98094308Y-103424269D01*
X98111127Y-103407451D01*
X98347639Y-103170937D01*
X98365514Y-103237645D01*
G37*
G04 #@! TD.AperFunction*
G04 #@! TA.AperFunction,Conductor*
G36*
X99765514Y-103237645D02*
G01*
X99822355Y-103294486D01*
X99880254Y-103310000D01*
X99891421Y-103310000D01*
X99590801Y-103610617D01*
X99590796Y-103610624D01*
X99588882Y-103612539D01*
X99352359Y-103849060D01*
X99334486Y-103782355D01*
X99277645Y-103725514D01*
X99219746Y-103710000D01*
X99208578Y-103710000D01*
X99494308Y-103424269D01*
X99511127Y-103407451D01*
X99747639Y-103170937D01*
X99765514Y-103237645D01*
G37*
G04 #@! TD.AperFunction*
G04 #@! TA.AperFunction,Conductor*
G36*
X97665514Y-102537645D02*
G01*
X97722355Y-102594486D01*
X97780254Y-102610000D01*
X97791421Y-102610000D01*
X97490801Y-102910617D01*
X97490796Y-102910624D01*
X97488882Y-102912539D01*
X97252359Y-103149061D01*
X97234486Y-103082355D01*
X97177645Y-103025514D01*
X97119746Y-103010000D01*
X97108578Y-103010000D01*
X97382693Y-102735884D01*
X97411128Y-102707451D01*
X97647639Y-102470937D01*
X97665514Y-102537645D01*
G37*
G04 #@! TD.AperFunction*
G04 #@! TA.AperFunction,Conductor*
G36*
X98188872Y-102707452D02*
G01*
X98250578Y-102769157D01*
X98491422Y-103010000D01*
X98480254Y-103010000D01*
X98422355Y-103025514D01*
X98365514Y-103082354D01*
X98347640Y-103149061D01*
X97808579Y-102610000D01*
X97819746Y-102610000D01*
X97877645Y-102594486D01*
X97934486Y-102537646D01*
X97952359Y-102470938D01*
X98188872Y-102707452D01*
G37*
G04 #@! TD.AperFunction*
G04 #@! TA.AperFunction,Conductor*
G36*
X99065514Y-102537645D02*
G01*
X99122355Y-102594486D01*
X99180254Y-102610000D01*
X99191421Y-102610000D01*
X98890801Y-102910617D01*
X98890796Y-102910624D01*
X98888882Y-102912539D01*
X98652359Y-103149061D01*
X98634486Y-103082355D01*
X98577645Y-103025514D01*
X98519746Y-103010000D01*
X98508578Y-103010000D01*
X98782693Y-102735884D01*
X98811128Y-102707451D01*
X99047639Y-102470937D01*
X99065514Y-102537645D01*
G37*
G04 #@! TD.AperFunction*
G04 #@! TA.AperFunction,Conductor*
G36*
X99588872Y-102707452D02*
G01*
X99650578Y-102769157D01*
X99891422Y-103010000D01*
X99880254Y-103010000D01*
X99822355Y-103025514D01*
X99765514Y-103082354D01*
X99747640Y-103149061D01*
X99208579Y-102610000D01*
X99219746Y-102610000D01*
X99277645Y-102594486D01*
X99334486Y-102537646D01*
X99352359Y-102470938D01*
X99588872Y-102707452D01*
G37*
G04 #@! TD.AperFunction*
G04 #@! TA.AperFunction,Conductor*
G36*
X97488872Y-102007452D02*
G01*
X97550578Y-102069157D01*
X97791422Y-102310000D01*
X97780254Y-102310000D01*
X97722355Y-102325514D01*
X97665514Y-102382354D01*
X97647640Y-102449061D01*
X97108579Y-101910000D01*
X97119746Y-101910000D01*
X97177645Y-101894486D01*
X97234486Y-101837646D01*
X97252359Y-101770938D01*
X97488872Y-102007452D01*
G37*
G04 #@! TD.AperFunction*
G04 #@! TA.AperFunction,Conductor*
G36*
X98365514Y-101837645D02*
G01*
X98422355Y-101894486D01*
X98480254Y-101910000D01*
X98491421Y-101910000D01*
X98190801Y-102210617D01*
X98190796Y-102210624D01*
X98188882Y-102212539D01*
X97952359Y-102449061D01*
X97934486Y-102382355D01*
X97877645Y-102325514D01*
X97819746Y-102310000D01*
X97808578Y-102310000D01*
X98082693Y-102035884D01*
X98111128Y-102007451D01*
X98347639Y-101770937D01*
X98365514Y-101837645D01*
G37*
G04 #@! TD.AperFunction*
G04 #@! TA.AperFunction,Conductor*
G36*
X98888872Y-102007452D02*
G01*
X98950578Y-102069157D01*
X99191422Y-102310000D01*
X99180254Y-102310000D01*
X99122355Y-102325514D01*
X99065514Y-102382354D01*
X99047640Y-102449061D01*
X98508579Y-101910000D01*
X98519746Y-101910000D01*
X98577645Y-101894486D01*
X98634486Y-101837646D01*
X98652359Y-101770938D01*
X98888872Y-102007452D01*
G37*
G04 #@! TD.AperFunction*
G04 #@! TA.AperFunction,Conductor*
G36*
X99765514Y-101837645D02*
G01*
X99822355Y-101894486D01*
X99880254Y-101910000D01*
X99891421Y-101910000D01*
X99590801Y-102210617D01*
X99590796Y-102210624D01*
X99588882Y-102212539D01*
X99352359Y-102449061D01*
X99334486Y-102382355D01*
X99277645Y-102325514D01*
X99219746Y-102310000D01*
X99208578Y-102310000D01*
X99482693Y-102035884D01*
X99511128Y-102007451D01*
X99747639Y-101770937D01*
X99765514Y-101837645D01*
G37*
G04 #@! TD.AperFunction*
G04 #@! TA.AperFunction,Conductor*
G36*
X97665514Y-101137645D02*
G01*
X97722355Y-101194486D01*
X97780254Y-101210000D01*
X97791421Y-101210000D01*
X97490801Y-101510617D01*
X97490796Y-101510624D01*
X97488882Y-101512539D01*
X97252359Y-101749061D01*
X97234486Y-101682355D01*
X97177645Y-101625514D01*
X97119746Y-101610000D01*
X97108578Y-101610000D01*
X97382693Y-101335884D01*
X97411128Y-101307451D01*
X97647639Y-101070938D01*
X97665514Y-101137645D01*
G37*
G04 #@! TD.AperFunction*
G04 #@! TA.AperFunction,Conductor*
G36*
X98188872Y-101307452D02*
G01*
X98250578Y-101369157D01*
X98491422Y-101610000D01*
X98480254Y-101610000D01*
X98422355Y-101625514D01*
X98365514Y-101682354D01*
X98347640Y-101749061D01*
X97808579Y-101210000D01*
X97819746Y-101210000D01*
X97877645Y-101194486D01*
X97934486Y-101137646D01*
X97952359Y-101070938D01*
X98188872Y-101307452D01*
G37*
G04 #@! TD.AperFunction*
G04 #@! TA.AperFunction,Conductor*
G36*
X99065514Y-101137645D02*
G01*
X99122355Y-101194486D01*
X99180254Y-101210000D01*
X99191421Y-101210000D01*
X98890801Y-101510617D01*
X98890796Y-101510624D01*
X98888882Y-101512539D01*
X98652359Y-101749061D01*
X98634486Y-101682355D01*
X98577645Y-101625514D01*
X98519746Y-101610000D01*
X98508578Y-101610000D01*
X98782693Y-101335884D01*
X98811128Y-101307451D01*
X99047639Y-101070938D01*
X99065514Y-101137645D01*
G37*
G04 #@! TD.AperFunction*
G04 #@! TA.AperFunction,Conductor*
G36*
X99588872Y-101307452D02*
G01*
X99650578Y-101369157D01*
X99891422Y-101610000D01*
X99880254Y-101610000D01*
X99822355Y-101625514D01*
X99765514Y-101682354D01*
X99747640Y-101749061D01*
X99208579Y-101210000D01*
X99219746Y-101210000D01*
X99277645Y-101194486D01*
X99334486Y-101137646D01*
X99352359Y-101070938D01*
X99588872Y-101307452D01*
G37*
G04 #@! TD.AperFunction*
G04 #@! TA.AperFunction,Conductor*
G36*
X121530306Y-93254115D02*
G01*
X121590236Y-93271957D01*
X121618116Y-93280258D01*
X121621987Y-93281587D01*
X121850923Y-93370917D01*
X122002367Y-93430011D01*
X122006102Y-93431650D01*
X122372901Y-93610967D01*
X122376495Y-93612911D01*
X122727243Y-93821912D01*
X122730661Y-93824146D01*
X123062948Y-94061394D01*
X123066178Y-94063908D01*
X123377727Y-94327777D01*
X123380739Y-94330549D01*
X123669450Y-94619260D01*
X123672222Y-94622272D01*
X123936091Y-94933821D01*
X123938605Y-94937051D01*
X124175853Y-95269338D01*
X124178092Y-95272764D01*
X124387084Y-95623498D01*
X124389032Y-95627098D01*
X124568349Y-95993897D01*
X124569994Y-95997645D01*
X124718412Y-96378012D01*
X124719741Y-96381883D01*
X124836237Y-96773182D01*
X124837242Y-96777150D01*
X124921029Y-97176748D01*
X124921703Y-97180785D01*
X124972205Y-97585944D01*
X124972542Y-97590020D01*
X124985627Y-97906355D01*
X124989500Y-97999999D01*
X124989500Y-105683467D01*
X124970593Y-105741658D01*
X124921093Y-105777622D01*
X124859907Y-105777622D01*
X124820496Y-105753471D01*
X123577470Y-104510446D01*
X123568070Y-104499568D01*
X123552539Y-104478706D01*
X123552537Y-104478704D01*
X123552535Y-104478702D01*
X123511881Y-104444590D01*
X123508695Y-104441671D01*
X123502434Y-104435410D01*
X123476584Y-104414972D01*
X123417425Y-104365331D01*
X123417426Y-104365331D01*
X123416529Y-104364881D01*
X123399569Y-104354076D01*
X123398792Y-104353462D01*
X123398791Y-104353461D01*
X123328808Y-104320827D01*
X123259811Y-104286176D01*
X123259807Y-104286175D01*
X123259802Y-104286173D01*
X123258839Y-104285945D01*
X123239847Y-104279343D01*
X123238944Y-104278922D01*
X123238940Y-104278921D01*
X123163310Y-104263304D01*
X123088188Y-104245500D01*
X123087199Y-104245500D01*
X123067178Y-104243454D01*
X123066206Y-104243253D01*
X122989018Y-104245500D01*
X119353532Y-104245500D01*
X119295341Y-104226593D01*
X119283528Y-104216504D01*
X118296815Y-103229791D01*
X118269038Y-103175274D01*
X118278609Y-103114842D01*
X118321874Y-103071577D01*
X118382306Y-103062006D01*
X118408386Y-103069936D01*
X118719480Y-103213864D01*
X119074466Y-103333473D01*
X119074471Y-103333474D01*
X119074474Y-103333475D01*
X119440298Y-103413998D01*
X119440299Y-103413998D01*
X119440303Y-103413999D01*
X119812702Y-103454500D01*
X120187298Y-103454500D01*
X120559697Y-103413999D01*
X120573050Y-103411060D01*
X120790872Y-103363114D01*
X120925525Y-103333475D01*
X120925526Y-103333475D01*
X120925528Y-103333474D01*
X120925534Y-103333473D01*
X121280520Y-103213864D01*
X121620494Y-103056575D01*
X121941468Y-102863451D01*
X122017069Y-102805980D01*
X122074832Y-102785818D01*
X122133419Y-102803460D01*
X122170447Y-102852169D01*
X122174674Y-102900810D01*
X122165901Y-102954326D01*
X122165828Y-102954773D01*
X122172745Y-103082355D01*
X122175608Y-103135149D01*
X122175609Y-103135157D01*
X122223935Y-103309208D01*
X122223938Y-103309217D01*
X122308547Y-103468808D01*
X122308550Y-103468812D01*
X122308551Y-103468814D01*
X122425498Y-103606494D01*
X122425499Y-103606495D01*
X122425501Y-103606497D01*
X122499875Y-103663034D01*
X122569308Y-103715816D01*
X122733256Y-103791667D01*
X122909678Y-103830500D01*
X122909682Y-103830500D01*
X123045028Y-103830500D01*
X123179586Y-103815866D01*
X123350774Y-103758186D01*
X123505561Y-103665054D01*
X123636708Y-103540825D01*
X123738083Y-103391307D01*
X123804947Y-103223492D01*
X123834172Y-103045227D01*
X123824392Y-102864848D01*
X123776064Y-102690788D01*
X123761392Y-102663114D01*
X123691452Y-102531191D01*
X123691450Y-102531189D01*
X123691449Y-102531186D01*
X123574502Y-102393506D01*
X123574500Y-102393504D01*
X123574498Y-102393502D01*
X123430693Y-102284185D01*
X123430692Y-102284184D01*
X123357448Y-102250297D01*
X123266747Y-102208334D01*
X123266745Y-102208333D01*
X123231459Y-102200566D01*
X123090322Y-102169500D01*
X122954972Y-102169500D01*
X122954971Y-102169500D01*
X122895360Y-102175983D01*
X122835466Y-102163478D01*
X122794361Y-102118156D01*
X122787746Y-102057329D01*
X122802713Y-102022009D01*
X122964361Y-101783597D01*
X123139824Y-101452637D01*
X123278476Y-101104647D01*
X123290873Y-101059999D01*
X123330386Y-100917685D01*
X123378691Y-100743706D01*
X123439294Y-100374046D01*
X123459574Y-100000000D01*
X123439294Y-99625954D01*
X123378691Y-99256294D01*
X123278476Y-98895353D01*
X123139824Y-98547363D01*
X122964361Y-98216403D01*
X122754143Y-97906355D01*
X122734140Y-97882805D01*
X122511639Y-97620857D01*
X122511629Y-97620847D01*
X122239684Y-97363246D01*
X121941472Y-97136552D01*
X121941471Y-97136551D01*
X121941468Y-97136549D01*
X121620494Y-96943425D01*
X121457654Y-96868087D01*
X121280525Y-96786138D01*
X121280522Y-96786137D01*
X121280520Y-96786136D01*
X120925534Y-96666527D01*
X120925533Y-96666526D01*
X120925525Y-96666524D01*
X120559701Y-96586001D01*
X120559702Y-96586001D01*
X120187298Y-96545500D01*
X119812702Y-96545500D01*
X119440297Y-96586001D01*
X119074475Y-96666524D01*
X119074473Y-96666524D01*
X118719474Y-96786138D01*
X118379514Y-96943421D01*
X118379508Y-96943424D01*
X118379506Y-96943425D01*
X118058532Y-97136549D01*
X118058527Y-97136552D01*
X117760315Y-97363246D01*
X117488370Y-97620847D01*
X117488360Y-97620857D01*
X117245862Y-97906348D01*
X117245855Y-97906358D01*
X117035636Y-98216407D01*
X116860178Y-98547358D01*
X116860176Y-98547362D01*
X116860176Y-98547363D01*
X116742705Y-98842194D01*
X116721521Y-98895361D01*
X116721519Y-98895366D01*
X116621310Y-99256287D01*
X116560705Y-99625955D01*
X116540426Y-100000000D01*
X116560705Y-100374044D01*
X116621310Y-100743712D01*
X116721519Y-101104633D01*
X116721521Y-101104638D01*
X116721522Y-101104642D01*
X116721524Y-101104647D01*
X116851609Y-101431135D01*
X116860178Y-101452641D01*
X116935402Y-101594530D01*
X116945954Y-101654799D01*
X116919065Y-101709759D01*
X116865007Y-101738419D01*
X116804428Y-101729830D01*
X116777930Y-101710906D01*
X111577470Y-96510446D01*
X111568070Y-96499568D01*
X111552539Y-96478706D01*
X111552537Y-96478704D01*
X111552535Y-96478702D01*
X111511881Y-96444590D01*
X111508695Y-96441671D01*
X111502434Y-96435410D01*
X111476584Y-96414972D01*
X111417425Y-96365331D01*
X111417426Y-96365331D01*
X111416529Y-96364881D01*
X111399569Y-96354076D01*
X111398792Y-96353462D01*
X111398791Y-96353461D01*
X111328808Y-96320827D01*
X111259811Y-96286176D01*
X111259807Y-96286175D01*
X111259802Y-96286173D01*
X111258839Y-96285945D01*
X111239847Y-96279343D01*
X111238944Y-96278922D01*
X111238940Y-96278921D01*
X111163310Y-96263304D01*
X111088188Y-96245500D01*
X111087199Y-96245500D01*
X111067178Y-96243454D01*
X111066206Y-96243253D01*
X110989018Y-96245500D01*
X93023379Y-96245500D01*
X93020508Y-96245416D01*
X93007407Y-96244653D01*
X92955833Y-96241648D01*
X92942521Y-96243996D01*
X92925330Y-96245500D01*
X84956059Y-96245500D01*
X84877313Y-96254704D01*
X84824814Y-96260840D01*
X84659073Y-96321165D01*
X84511720Y-96418080D01*
X84511714Y-96418085D01*
X84390679Y-96546375D01*
X84390678Y-96546375D01*
X84302490Y-96699123D01*
X84251905Y-96868087D01*
X84251904Y-96868095D01*
X84241648Y-97044165D01*
X84272275Y-97217862D01*
X84342135Y-97379816D01*
X84342136Y-97379818D01*
X84447460Y-97521293D01*
X84447462Y-97521295D01*
X84582570Y-97634665D01*
X84582571Y-97634665D01*
X84582573Y-97634667D01*
X84740189Y-97713824D01*
X84740191Y-97713824D01*
X84740195Y-97713826D01*
X84911810Y-97754500D01*
X84911812Y-97754500D01*
X92146500Y-97754500D01*
X92204691Y-97773407D01*
X92240655Y-97822907D01*
X92245500Y-97853500D01*
X92245500Y-119937821D01*
X92244454Y-119952168D01*
X92242835Y-119963232D01*
X92240685Y-119977908D01*
X92240685Y-119977909D01*
X92241828Y-119990976D01*
X92245312Y-120030802D01*
X92245500Y-120035101D01*
X92245500Y-120043940D01*
X92249325Y-120076675D01*
X92256055Y-120153604D01*
X92256057Y-120153614D01*
X92256372Y-120154563D01*
X92260723Y-120174190D01*
X92260838Y-120175178D01*
X92260839Y-120175183D01*
X92287247Y-120247739D01*
X92311536Y-120321036D01*
X92312053Y-120321874D01*
X92320825Y-120339993D01*
X92321164Y-120340924D01*
X92363599Y-120405444D01*
X92404130Y-120471154D01*
X92404836Y-120471860D01*
X92417535Y-120487449D01*
X92418085Y-120488285D01*
X92474247Y-120541271D01*
X102216505Y-130283529D01*
X102244281Y-130338044D01*
X102245500Y-130353531D01*
X102245500Y-133146500D01*
X102226593Y-133204691D01*
X102177093Y-133240655D01*
X102146500Y-133245500D01*
X77956059Y-133245500D01*
X77877313Y-133254704D01*
X77824814Y-133260840D01*
X77659073Y-133321165D01*
X77511720Y-133418080D01*
X77511714Y-133418085D01*
X77390679Y-133546375D01*
X77390678Y-133546375D01*
X77302490Y-133699123D01*
X77251905Y-133868087D01*
X77251904Y-133868095D01*
X77241648Y-134044165D01*
X77272275Y-134217862D01*
X77342135Y-134379816D01*
X77342136Y-134379818D01*
X77447460Y-134521293D01*
X77447462Y-134521295D01*
X77582570Y-134634665D01*
X77582571Y-134634665D01*
X77582573Y-134634667D01*
X77740189Y-134713824D01*
X77740191Y-134713824D01*
X77740195Y-134713826D01*
X77911810Y-134754500D01*
X77911812Y-134754500D01*
X102146500Y-134754500D01*
X102204691Y-134773407D01*
X102240655Y-134822907D01*
X102245500Y-134853500D01*
X102245500Y-145396500D01*
X102226593Y-145454691D01*
X102177093Y-145490655D01*
X102146500Y-145495500D01*
X96530481Y-145495500D01*
X96472290Y-145476593D01*
X96464832Y-145470603D01*
X96403142Y-145415951D01*
X96403141Y-145415950D01*
X96251654Y-145336443D01*
X96251653Y-145336442D01*
X96251652Y-145336442D01*
X96085544Y-145295500D01*
X96085542Y-145295500D01*
X95914458Y-145295500D01*
X95914455Y-145295500D01*
X95748347Y-145336442D01*
X95596857Y-145415951D01*
X95468799Y-145529400D01*
X95371615Y-145670197D01*
X95310948Y-145830164D01*
X95310947Y-145830166D01*
X95290326Y-145999998D01*
X95290326Y-146000001D01*
X95310947Y-146169833D01*
X95310947Y-146169834D01*
X95310948Y-146169836D01*
X95354315Y-146284185D01*
X95371615Y-146329802D01*
X95468799Y-146470599D01*
X95468800Y-146470600D01*
X95468801Y-146470601D01*
X95596859Y-146584050D01*
X95748346Y-146663557D01*
X95914458Y-146704500D01*
X95914461Y-146704500D01*
X96085539Y-146704500D01*
X96085542Y-146704500D01*
X96251654Y-146663557D01*
X96403141Y-146584050D01*
X96464832Y-146529397D01*
X96520926Y-146504962D01*
X96530481Y-146504500D01*
X102146500Y-146504500D01*
X102204691Y-146523407D01*
X102240655Y-146572907D01*
X102245500Y-146603500D01*
X102245500Y-147043941D01*
X102248549Y-147070025D01*
X102260840Y-147175185D01*
X102295360Y-147270029D01*
X102309620Y-147309208D01*
X102321165Y-147340926D01*
X102418080Y-147488279D01*
X102418085Y-147488285D01*
X102543379Y-147606494D01*
X102546375Y-147609320D01*
X102546375Y-147609321D01*
X102546377Y-147609322D01*
X102699124Y-147697510D01*
X102830929Y-147736969D01*
X102868087Y-147748094D01*
X102868088Y-147748094D01*
X102868091Y-147748095D01*
X103007316Y-147756204D01*
X103064306Y-147778462D01*
X103071561Y-147785032D01*
X104466504Y-149179975D01*
X104494281Y-149234492D01*
X104495500Y-149249979D01*
X104495500Y-151630871D01*
X104476593Y-151689062D01*
X104475044Y-151691135D01*
X104471972Y-151695137D01*
X104471968Y-151695145D01*
X104411060Y-151842193D01*
X104411059Y-151842194D01*
X104390284Y-151999999D01*
X104390284Y-152000000D01*
X104411059Y-152157805D01*
X104411060Y-152157806D01*
X104463433Y-152284249D01*
X104471970Y-152304858D01*
X104568866Y-152431134D01*
X104695142Y-152528030D01*
X104842194Y-152588940D01*
X105000000Y-152609716D01*
X105157806Y-152588940D01*
X105304858Y-152528030D01*
X105431134Y-152431134D01*
X105528030Y-152304858D01*
X105588940Y-152157806D01*
X105609716Y-152000000D01*
X105588940Y-151842194D01*
X105528030Y-151695142D01*
X105528028Y-151695140D01*
X105528027Y-151695137D01*
X105524956Y-151691135D01*
X105504534Y-151633459D01*
X105504500Y-151630871D01*
X105504500Y-150000000D01*
X116540426Y-150000000D01*
X116560705Y-150374044D01*
X116621310Y-150743712D01*
X116721519Y-151104633D01*
X116721521Y-151104638D01*
X116721522Y-151104642D01*
X116721524Y-151104647D01*
X116860176Y-151452637D01*
X116860178Y-151452641D01*
X116988740Y-151695137D01*
X117035639Y-151783597D01*
X117245857Y-152093645D01*
X117245861Y-152093650D01*
X117245862Y-152093651D01*
X117488360Y-152379142D01*
X117488370Y-152379152D01*
X117760315Y-152636753D01*
X117760319Y-152636756D01*
X118058532Y-152863451D01*
X118379506Y-153056575D01*
X118719480Y-153213864D01*
X119074466Y-153333473D01*
X119074471Y-153333474D01*
X119074474Y-153333475D01*
X119440298Y-153413998D01*
X119440299Y-153413998D01*
X119440303Y-153413999D01*
X119812702Y-153454500D01*
X120187298Y-153454500D01*
X120559697Y-153413999D01*
X120925525Y-153333475D01*
X120925526Y-153333475D01*
X120925528Y-153333474D01*
X120925534Y-153333473D01*
X121280520Y-153213864D01*
X121620494Y-153056575D01*
X121941468Y-152863451D01*
X122239681Y-152636756D01*
X122511635Y-152379147D01*
X122754143Y-152093645D01*
X122964361Y-151783597D01*
X123139824Y-151452637D01*
X123278476Y-151104647D01*
X123378691Y-150743706D01*
X123439294Y-150374046D01*
X123459574Y-150000000D01*
X123439294Y-149625954D01*
X123378691Y-149256294D01*
X123344707Y-149133895D01*
X123278480Y-148895366D01*
X123278478Y-148895361D01*
X123278476Y-148895353D01*
X123139824Y-148547363D01*
X122964361Y-148216403D01*
X122805842Y-147982605D01*
X122788836Y-147923833D01*
X122809624Y-147866288D01*
X122860267Y-147831951D01*
X122904279Y-147830521D01*
X122904345Y-147829920D01*
X122908589Y-147830381D01*
X122909069Y-147830366D01*
X122909678Y-147830500D01*
X122909682Y-147830500D01*
X123045028Y-147830500D01*
X123179586Y-147815866D01*
X123350774Y-147758186D01*
X123505561Y-147665054D01*
X123636708Y-147540825D01*
X123738083Y-147391307D01*
X123804947Y-147223492D01*
X123834172Y-147045227D01*
X123824392Y-146864848D01*
X123776064Y-146690788D01*
X123761627Y-146663557D01*
X123691452Y-146531191D01*
X123691450Y-146531189D01*
X123691449Y-146531186D01*
X123574502Y-146393506D01*
X123574500Y-146393504D01*
X123574498Y-146393502D01*
X123430693Y-146284185D01*
X123430692Y-146284184D01*
X123339116Y-146241816D01*
X123266747Y-146208334D01*
X123266745Y-146208333D01*
X123231459Y-146200566D01*
X123090322Y-146169500D01*
X122954972Y-146169500D01*
X122820411Y-146184134D01*
X122649228Y-146241813D01*
X122649222Y-146241816D01*
X122494442Y-146334943D01*
X122363291Y-146459175D01*
X122261918Y-146608689D01*
X122195053Y-146776509D01*
X122165828Y-146954772D01*
X122174167Y-147108578D01*
X122158437Y-147167707D01*
X122110957Y-147206297D01*
X122049861Y-147209610D01*
X122015401Y-147192751D01*
X121941468Y-147136549D01*
X121941467Y-147136548D01*
X121941464Y-147136546D01*
X121789690Y-147045227D01*
X121620494Y-146943425D01*
X121450640Y-146864842D01*
X121280525Y-146786138D01*
X121280522Y-146786137D01*
X121280520Y-146786136D01*
X120925534Y-146666527D01*
X120925533Y-146666526D01*
X120925525Y-146666524D01*
X120559701Y-146586001D01*
X120559702Y-146586001D01*
X120187298Y-146545500D01*
X119812702Y-146545500D01*
X119440297Y-146586001D01*
X119074475Y-146666524D01*
X119074473Y-146666524D01*
X118719474Y-146786138D01*
X118379514Y-146943421D01*
X118379508Y-146943424D01*
X118379506Y-146943425D01*
X118210310Y-147045227D01*
X118058532Y-147136549D01*
X118058527Y-147136552D01*
X117760315Y-147363246D01*
X117488370Y-147620847D01*
X117488360Y-147620857D01*
X117245862Y-147906348D01*
X117245855Y-147906358D01*
X117035636Y-148216407D01*
X116860178Y-148547358D01*
X116860176Y-148547362D01*
X116860176Y-148547363D01*
X116721524Y-148895353D01*
X116721522Y-148895358D01*
X116721519Y-148895366D01*
X116621310Y-149256287D01*
X116560705Y-149625955D01*
X116540426Y-150000000D01*
X105504500Y-150000000D01*
X105504500Y-149064880D01*
X105506764Y-149043831D01*
X105508389Y-149036362D01*
X105508389Y-149036360D01*
X105504626Y-148983743D01*
X105504500Y-148980211D01*
X105504500Y-148963916D01*
X105504130Y-148961345D01*
X105502178Y-148947772D01*
X105501803Y-148944277D01*
X105500532Y-148926509D01*
X105498040Y-148891658D01*
X105495364Y-148884486D01*
X105490130Y-148863976D01*
X105489042Y-148856404D01*
X105479528Y-148835571D01*
X105467128Y-148808417D01*
X105465775Y-148805152D01*
X105447344Y-148755734D01*
X105442755Y-148749604D01*
X105431956Y-148731404D01*
X105428777Y-148724442D01*
X105394209Y-148684549D01*
X105392024Y-148681835D01*
X105382250Y-148668779D01*
X105382247Y-148668776D01*
X105370716Y-148657244D01*
X105368317Y-148654668D01*
X105333775Y-148614804D01*
X105327335Y-148610665D01*
X105310858Y-148597387D01*
X103783496Y-147070025D01*
X103755719Y-147015508D01*
X103754500Y-147000021D01*
X103754500Y-134023379D01*
X103754584Y-134020499D01*
X103758351Y-133955833D01*
X103758351Y-133955831D01*
X103756004Y-133942519D01*
X103754500Y-133925329D01*
X103754500Y-130853500D01*
X103773407Y-130795309D01*
X103822907Y-130759345D01*
X103853500Y-130754500D01*
X108437821Y-130754500D01*
X108452168Y-130755545D01*
X108454780Y-130755927D01*
X108477906Y-130759315D01*
X108530803Y-130754687D01*
X108535102Y-130754500D01*
X108543938Y-130754500D01*
X108543941Y-130754500D01*
X108568490Y-130751630D01*
X108576675Y-130750674D01*
X108653605Y-130743944D01*
X108653606Y-130743944D01*
X108653607Y-130743943D01*
X108653612Y-130743943D01*
X108654548Y-130743632D01*
X108674209Y-130739274D01*
X108674324Y-130739260D01*
X108675184Y-130739160D01*
X108747739Y-130712752D01*
X108821036Y-130688464D01*
X108821860Y-130687955D01*
X108840001Y-130679171D01*
X108840924Y-130678836D01*
X108905444Y-130636400D01*
X108971154Y-130595870D01*
X108971843Y-130595179D01*
X108987471Y-130582450D01*
X108988285Y-130581915D01*
X109041271Y-130525752D01*
X110814583Y-128752441D01*
X111064583Y-128502441D01*
X111146539Y-128398792D01*
X111221079Y-128238940D01*
X111256745Y-128066207D01*
X111251615Y-127889904D01*
X111205965Y-127719538D01*
X111122257Y-127564291D01*
X111005003Y-127432533D01*
X110860523Y-127331368D01*
X110860524Y-127331368D01*
X110696611Y-127266249D01*
X110696610Y-127266248D01*
X110696608Y-127266248D01*
X110522093Y-127240686D01*
X110522090Y-127240686D01*
X110522089Y-127240686D01*
X110522087Y-127240685D01*
X110346389Y-127256056D01*
X110178963Y-127311536D01*
X110028845Y-127404130D01*
X109778847Y-127654127D01*
X109778846Y-127654129D01*
X108216472Y-129216504D01*
X108161955Y-129244281D01*
X108146468Y-129245500D01*
X103353532Y-129245500D01*
X103295341Y-129226593D01*
X103283528Y-129216504D01*
X93783496Y-119716472D01*
X93755719Y-119661955D01*
X93754500Y-119646468D01*
X93754500Y-106000000D01*
X94390284Y-106000000D01*
X94411059Y-106157805D01*
X94411060Y-106157806D01*
X94462714Y-106282513D01*
X94471970Y-106304858D01*
X94568866Y-106431134D01*
X94695142Y-106528030D01*
X94842194Y-106588940D01*
X95000000Y-106609716D01*
X95157806Y-106588940D01*
X95304858Y-106528030D01*
X95431134Y-106431134D01*
X95460218Y-106393231D01*
X95510642Y-106358577D01*
X95538759Y-106354500D01*
X100312153Y-106354500D01*
X100370344Y-106373407D01*
X100382157Y-106383496D01*
X102616504Y-108617843D01*
X102644281Y-108672360D01*
X102645500Y-108687847D01*
X102645500Y-114452965D01*
X102643393Y-114473279D01*
X102640905Y-114485147D01*
X102642810Y-114500434D01*
X102645120Y-114518960D01*
X102645500Y-114525088D01*
X102645500Y-114529380D01*
X102649128Y-114551122D01*
X102655539Y-114602551D01*
X102655539Y-114602552D01*
X102655540Y-114602555D01*
X102657655Y-114609661D01*
X102660070Y-114616697D01*
X102660071Y-114616698D01*
X102684739Y-114662281D01*
X102707501Y-114708840D01*
X102707502Y-114708842D01*
X102711818Y-114714887D01*
X102716382Y-114720750D01*
X102754509Y-114755848D01*
X105868370Y-117869709D01*
X105896147Y-117924226D01*
X105896519Y-117952634D01*
X105890284Y-117999997D01*
X105890284Y-118000000D01*
X105911059Y-118157805D01*
X105911060Y-118157806D01*
X105971970Y-118304858D01*
X106068866Y-118431134D01*
X106195142Y-118528030D01*
X106342194Y-118588940D01*
X106500000Y-118609716D01*
X106657806Y-118588940D01*
X106804858Y-118528030D01*
X106931134Y-118431134D01*
X107028030Y-118304858D01*
X107088940Y-118157806D01*
X107109716Y-118000000D01*
X107088940Y-117842194D01*
X107088938Y-117842190D01*
X107088813Y-117841236D01*
X107099963Y-117781075D01*
X107144345Y-117738957D01*
X107205007Y-117730971D01*
X107256970Y-117758309D01*
X107368370Y-117869709D01*
X107396147Y-117924226D01*
X107396519Y-117952634D01*
X107390284Y-117999997D01*
X107390284Y-118000000D01*
X107411059Y-118157805D01*
X107411060Y-118157806D01*
X107471970Y-118304858D01*
X107568866Y-118431134D01*
X107695142Y-118528030D01*
X107842194Y-118588940D01*
X108000000Y-118609716D01*
X108157806Y-118588940D01*
X108304858Y-118528030D01*
X108431134Y-118431134D01*
X108528030Y-118304858D01*
X108588940Y-118157806D01*
X108609716Y-118000000D01*
X108592562Y-117869709D01*
X108588940Y-117842194D01*
X108528030Y-117695142D01*
X108431134Y-117568866D01*
X108304858Y-117471970D01*
X108304854Y-117471968D01*
X108157806Y-117411060D01*
X108157805Y-117411059D01*
X108000000Y-117390284D01*
X107999998Y-117390284D01*
X107952634Y-117396519D01*
X107892473Y-117385368D01*
X107869709Y-117368370D01*
X103883496Y-113382157D01*
X103855719Y-113327640D01*
X103854500Y-113312153D01*
X103854500Y-111000000D01*
X106390284Y-111000000D01*
X106411059Y-111157805D01*
X106411060Y-111157806D01*
X106445516Y-111240993D01*
X106471970Y-111304858D01*
X106568866Y-111431134D01*
X106695142Y-111528030D01*
X106842194Y-111588940D01*
X107000000Y-111609716D01*
X107157806Y-111588940D01*
X107304858Y-111528030D01*
X107431134Y-111431134D01*
X107460218Y-111393231D01*
X107510642Y-111358577D01*
X107538759Y-111354500D01*
X114312153Y-111354500D01*
X114370344Y-111373407D01*
X114382157Y-111383496D01*
X116716073Y-113717412D01*
X116728946Y-113733265D01*
X116735576Y-113743412D01*
X116735579Y-113743416D01*
X116760611Y-113762899D01*
X116762462Y-113764340D01*
X116767059Y-113768399D01*
X116770102Y-113771441D01*
X116770103Y-113771442D01*
X116788050Y-113784256D01*
X116828944Y-113816085D01*
X116828946Y-113816085D01*
X116835481Y-113819622D01*
X116842147Y-113822880D01*
X116842152Y-113822884D01*
X116891831Y-113837674D01*
X116898400Y-113839929D01*
X116940841Y-113854500D01*
X116948167Y-113855722D01*
X116955536Y-113856639D01*
X116955544Y-113856642D01*
X117005091Y-113854592D01*
X117007326Y-113854500D01*
X118452966Y-113854500D01*
X118473280Y-113856606D01*
X118485147Y-113859095D01*
X118518964Y-113854879D01*
X118525088Y-113854500D01*
X118529377Y-113854500D01*
X118551122Y-113850871D01*
X118602551Y-113844461D01*
X118602552Y-113844460D01*
X118602554Y-113844460D01*
X118609675Y-113842340D01*
X118616696Y-113839929D01*
X118616698Y-113839929D01*
X118662281Y-113815260D01*
X118708840Y-113792499D01*
X118708845Y-113792493D01*
X118714875Y-113788188D01*
X118720740Y-113783623D01*
X118720749Y-113783619D01*
X118755848Y-113745490D01*
X118869710Y-113631627D01*
X118924225Y-113603851D01*
X118952628Y-113603479D01*
X119000000Y-113609716D01*
X119157806Y-113588940D01*
X119304858Y-113528030D01*
X119431134Y-113431134D01*
X119528030Y-113304858D01*
X119588940Y-113157806D01*
X119609716Y-113000000D01*
X119597668Y-112908492D01*
X119588940Y-112842194D01*
X119528030Y-112695142D01*
X119431134Y-112568866D01*
X119304858Y-112471970D01*
X119304854Y-112471968D01*
X119157806Y-112411060D01*
X119157805Y-112411059D01*
X119000000Y-112390284D01*
X118842196Y-112411059D01*
X118842194Y-112411060D01*
X118824045Y-112418577D01*
X118763050Y-112423376D01*
X118710882Y-112391406D01*
X118687468Y-112334878D01*
X118699094Y-112279994D01*
X118785025Y-112121210D01*
X118862617Y-111895191D01*
X118901950Y-111659483D01*
X118901950Y-111583890D01*
X119246372Y-111583890D01*
X119276808Y-111756503D01*
X119276809Y-111756506D01*
X119276810Y-111756509D01*
X119334392Y-111889999D01*
X119346234Y-111917452D01*
X119450902Y-112058046D01*
X119450904Y-112058048D01*
X119585170Y-112170711D01*
X119585171Y-112170711D01*
X119585173Y-112170713D01*
X119741808Y-112249378D01*
X119741813Y-112249379D01*
X119741817Y-112249381D01*
X119912360Y-112289800D01*
X119912361Y-112289800D01*
X120043662Y-112289800D01*
X120043667Y-112289800D01*
X120174093Y-112274555D01*
X120338800Y-112214607D01*
X120485243Y-112118290D01*
X120605526Y-111990797D01*
X120663722Y-111889999D01*
X120693163Y-111839006D01*
X120693163Y-111839004D01*
X120693165Y-111839002D01*
X120743435Y-111671088D01*
X120749805Y-111561724D01*
X120753627Y-111496109D01*
X120753627Y-111496106D01*
X120723191Y-111323496D01*
X120723190Y-111323495D01*
X120723190Y-111323491D01*
X120653766Y-111162548D01*
X120549097Y-111021953D01*
X120549095Y-111021951D01*
X120414829Y-110909288D01*
X120414143Y-110908943D01*
X120258192Y-110830622D01*
X120258188Y-110830621D01*
X120258182Y-110830618D01*
X120087640Y-110790200D01*
X120087639Y-110790200D01*
X119956333Y-110790200D01*
X119825907Y-110805445D01*
X119825904Y-110805445D01*
X119825904Y-110805446D01*
X119661197Y-110865394D01*
X119514762Y-110961705D01*
X119514757Y-110961710D01*
X119394477Y-111089199D01*
X119394470Y-111089207D01*
X119306836Y-111240993D01*
X119256565Y-111408908D01*
X119256564Y-111408916D01*
X119246372Y-111583890D01*
X118901950Y-111583890D01*
X118901950Y-111420517D01*
X118900013Y-111408912D01*
X118871993Y-111240998D01*
X118862617Y-111184809D01*
X118785025Y-110958790D01*
X118671289Y-110748625D01*
X118658032Y-110731593D01*
X118619026Y-110681478D01*
X118524513Y-110560047D01*
X118348699Y-110398199D01*
X118348696Y-110398197D01*
X118348694Y-110398195D01*
X118148648Y-110267498D01*
X118148639Y-110267493D01*
X118030216Y-110215549D01*
X117929805Y-110171505D01*
X117764544Y-110129655D01*
X117698149Y-110112841D01*
X117519642Y-110098050D01*
X117519640Y-110098050D01*
X117400360Y-110098050D01*
X117400358Y-110098050D01*
X117221850Y-110112841D01*
X117106022Y-110142173D01*
X116990195Y-110171505D01*
X116954164Y-110187309D01*
X116771360Y-110267493D01*
X116771351Y-110267498D01*
X116571305Y-110398195D01*
X116491166Y-110471968D01*
X116439101Y-110519898D01*
X116395484Y-110560050D01*
X116248713Y-110748621D01*
X116248711Y-110748624D01*
X116134976Y-110958786D01*
X116057382Y-111184812D01*
X116018050Y-111420516D01*
X116018050Y-111659483D01*
X116038735Y-111783443D01*
X116029663Y-111843952D01*
X115986758Y-111887573D01*
X115926407Y-111897644D01*
X115871662Y-111870318D01*
X115871081Y-111869742D01*
X114783926Y-110782587D01*
X114771051Y-110766732D01*
X114764420Y-110756583D01*
X114737534Y-110735657D01*
X114732939Y-110731600D01*
X114729897Y-110728558D01*
X114729893Y-110728555D01*
X114711948Y-110715742D01*
X114671054Y-110683913D01*
X114664535Y-110680386D01*
X114657850Y-110677117D01*
X114657848Y-110677116D01*
X114608168Y-110662325D01*
X114591342Y-110656548D01*
X114559155Y-110645499D01*
X114551828Y-110644277D01*
X114544458Y-110643358D01*
X114544456Y-110643358D01*
X114544453Y-110643358D01*
X114492674Y-110645500D01*
X107538759Y-110645500D01*
X107480568Y-110626593D01*
X107460219Y-110606770D01*
X107431134Y-110568866D01*
X107304858Y-110471970D01*
X107304854Y-110471968D01*
X107157806Y-110411060D01*
X107157805Y-110411059D01*
X107000000Y-110390284D01*
X106842194Y-110411059D01*
X106842193Y-110411060D01*
X106695145Y-110471968D01*
X106695141Y-110471970D01*
X106568868Y-110568864D01*
X106568864Y-110568868D01*
X106471970Y-110695141D01*
X106471968Y-110695145D01*
X106411060Y-110842193D01*
X106411059Y-110842194D01*
X106390284Y-110999999D01*
X106390284Y-111000000D01*
X103854500Y-111000000D01*
X103854500Y-108047034D01*
X103856607Y-108026718D01*
X103859095Y-108014853D01*
X103854879Y-107981034D01*
X103854500Y-107974911D01*
X103854500Y-107970623D01*
X103850871Y-107948878D01*
X103850871Y-107948877D01*
X103844461Y-107897449D01*
X103844459Y-107897446D01*
X103842347Y-107890349D01*
X103839930Y-107883309D01*
X103839929Y-107883302D01*
X103815260Y-107837718D01*
X103792499Y-107791160D01*
X103792498Y-107791159D01*
X103788185Y-107785119D01*
X103783618Y-107779250D01*
X103745490Y-107744151D01*
X101283926Y-105282587D01*
X101271051Y-105266732D01*
X101264420Y-105256583D01*
X101237534Y-105235657D01*
X101232939Y-105231600D01*
X101229897Y-105228558D01*
X101211949Y-105215743D01*
X101211948Y-105215742D01*
X101171054Y-105183913D01*
X101164535Y-105180386D01*
X101157850Y-105177117D01*
X101157848Y-105177116D01*
X101108168Y-105162325D01*
X101091342Y-105156548D01*
X101059155Y-105145499D01*
X101051828Y-105144277D01*
X101044458Y-105143358D01*
X101044456Y-105143358D01*
X101044453Y-105143358D01*
X100992674Y-105145500D01*
X95703448Y-105145500D01*
X95645257Y-105126593D01*
X95609293Y-105077093D01*
X95605295Y-105033577D01*
X95609716Y-104999999D01*
X95588940Y-104842194D01*
X95528030Y-104695142D01*
X95431134Y-104568866D01*
X95304858Y-104471970D01*
X95304854Y-104471968D01*
X95157806Y-104411060D01*
X95157805Y-104411059D01*
X95000000Y-104390284D01*
X94842194Y-104411059D01*
X94842193Y-104411060D01*
X94695145Y-104471968D01*
X94695141Y-104471970D01*
X94568868Y-104568864D01*
X94568864Y-104568868D01*
X94471970Y-104695141D01*
X94471968Y-104695145D01*
X94411060Y-104842193D01*
X94411059Y-104842194D01*
X94390284Y-104999999D01*
X94390284Y-105000000D01*
X94411059Y-105157805D01*
X94411060Y-105157806D01*
X94451974Y-105256584D01*
X94471970Y-105304858D01*
X94568866Y-105431134D01*
X94568867Y-105431134D01*
X94572816Y-105436281D01*
X94571461Y-105437320D01*
X94595506Y-105484513D01*
X94585935Y-105544945D01*
X94572481Y-105563462D01*
X94572816Y-105563719D01*
X94471970Y-105695141D01*
X94471968Y-105695145D01*
X94411060Y-105842193D01*
X94411059Y-105842194D01*
X94390284Y-105999999D01*
X94390284Y-106000000D01*
X93754500Y-106000000D01*
X93754500Y-103160002D01*
X96594858Y-103160002D01*
X96615319Y-103302314D01*
X96675048Y-103433100D01*
X96679889Y-103438688D01*
X96679890Y-103438688D01*
X96947639Y-103170938D01*
X96965514Y-103237645D01*
X97022355Y-103294486D01*
X97080254Y-103310000D01*
X97091421Y-103310000D01*
X96824269Y-103577149D01*
X96890155Y-103619492D01*
X97028109Y-103659999D01*
X97028112Y-103660000D01*
X97171888Y-103660000D01*
X97171892Y-103659999D01*
X97182491Y-103656887D01*
X97243651Y-103658633D01*
X97292105Y-103695994D01*
X97309345Y-103754701D01*
X97308377Y-103765964D01*
X97294858Y-103859995D01*
X97294858Y-103860002D01*
X97315319Y-104002314D01*
X97375048Y-104133100D01*
X97379889Y-104138688D01*
X97379890Y-104138688D01*
X97647639Y-103870937D01*
X97665514Y-103937645D01*
X97722355Y-103994486D01*
X97780254Y-104010000D01*
X97791421Y-104010000D01*
X97524269Y-104277149D01*
X97590155Y-104319492D01*
X97728109Y-104359999D01*
X97728112Y-104360000D01*
X97871888Y-104360000D01*
X97871890Y-104359999D01*
X98009844Y-104319492D01*
X98009846Y-104319491D01*
X98075728Y-104277149D01*
X98075729Y-104277149D01*
X97808579Y-104010000D01*
X97819746Y-104010000D01*
X97877645Y-103994486D01*
X97934486Y-103937646D01*
X97952360Y-103870938D01*
X98220109Y-104138687D01*
X98224950Y-104133102D01*
X98224951Y-104133100D01*
X98284680Y-104002314D01*
X98305142Y-103860002D01*
X98305142Y-103859997D01*
X98291622Y-103765965D01*
X98302055Y-103705676D01*
X98345933Y-103663034D01*
X98406495Y-103654326D01*
X98417506Y-103656886D01*
X98428109Y-103659999D01*
X98428112Y-103660000D01*
X98571888Y-103660000D01*
X98571892Y-103659999D01*
X98582491Y-103656887D01*
X98643651Y-103658633D01*
X98692105Y-103695994D01*
X98709345Y-103754701D01*
X98708377Y-103765964D01*
X98694858Y-103859995D01*
X98694858Y-103860002D01*
X98715319Y-104002314D01*
X98775048Y-104133100D01*
X98779889Y-104138688D01*
X98779890Y-104138688D01*
X99047639Y-103870937D01*
X99065514Y-103937645D01*
X99122355Y-103994486D01*
X99180254Y-104010000D01*
X99191421Y-104010000D01*
X98924269Y-104277149D01*
X98990155Y-104319492D01*
X99128109Y-104359999D01*
X99128112Y-104360000D01*
X99271888Y-104360000D01*
X99271890Y-104359999D01*
X99409844Y-104319492D01*
X99409846Y-104319491D01*
X99475728Y-104277149D01*
X99475729Y-104277149D01*
X99208579Y-104010000D01*
X99219746Y-104010000D01*
X99277645Y-103994486D01*
X99334486Y-103937646D01*
X99352360Y-103870938D01*
X99620109Y-104138687D01*
X99624950Y-104133102D01*
X99624951Y-104133100D01*
X99684680Y-104002314D01*
X99705142Y-103860002D01*
X99705142Y-103859997D01*
X99691622Y-103765965D01*
X99702055Y-103705676D01*
X99745933Y-103663034D01*
X99806495Y-103654326D01*
X99817506Y-103656886D01*
X99828109Y-103659999D01*
X99828112Y-103660000D01*
X99971888Y-103660000D01*
X99971890Y-103659999D01*
X100109844Y-103619492D01*
X100109846Y-103619491D01*
X100175728Y-103577149D01*
X100175729Y-103577149D01*
X99908579Y-103310000D01*
X99919746Y-103310000D01*
X99977645Y-103294486D01*
X100034486Y-103237646D01*
X100052360Y-103170938D01*
X100320109Y-103438687D01*
X100324950Y-103433102D01*
X100324951Y-103433100D01*
X100384680Y-103302314D01*
X100405142Y-103160002D01*
X100405142Y-103159997D01*
X100384680Y-103017685D01*
X100324951Y-102886899D01*
X100320109Y-102881311D01*
X100052359Y-103149060D01*
X100034486Y-103082355D01*
X99977645Y-103025514D01*
X99919746Y-103010000D01*
X99908578Y-103010000D01*
X100175729Y-102742849D01*
X100109844Y-102700507D01*
X99971890Y-102660000D01*
X99828112Y-102660000D01*
X99828104Y-102660001D01*
X99817501Y-102663114D01*
X99756341Y-102661364D01*
X99707890Y-102623999D01*
X99690654Y-102565292D01*
X99691622Y-102554033D01*
X99705142Y-102460001D01*
X99705142Y-102459997D01*
X99691622Y-102365965D01*
X99702055Y-102305676D01*
X99745933Y-102263034D01*
X99806495Y-102254326D01*
X99817506Y-102256886D01*
X99828109Y-102259999D01*
X99828112Y-102260000D01*
X99971888Y-102260000D01*
X99971890Y-102259999D01*
X100109844Y-102219492D01*
X100109846Y-102219491D01*
X100175728Y-102177149D01*
X100175729Y-102177149D01*
X99908579Y-101910000D01*
X99919746Y-101910000D01*
X99977645Y-101894486D01*
X100034486Y-101837646D01*
X100052360Y-101770938D01*
X100320109Y-102038687D01*
X100324950Y-102033102D01*
X100324951Y-102033100D01*
X100384680Y-101902314D01*
X100405142Y-101760002D01*
X100405142Y-101759997D01*
X100384680Y-101617685D01*
X100324951Y-101486899D01*
X100320109Y-101481311D01*
X100052359Y-101749060D01*
X100034486Y-101682355D01*
X99977645Y-101625514D01*
X99919746Y-101610000D01*
X99908578Y-101610000D01*
X100175729Y-101342849D01*
X100109844Y-101300507D01*
X99971890Y-101260000D01*
X99828112Y-101260000D01*
X99828104Y-101260001D01*
X99817501Y-101263114D01*
X99756341Y-101261364D01*
X99707890Y-101223999D01*
X99690654Y-101165292D01*
X99691622Y-101154033D01*
X99705142Y-101060001D01*
X99705142Y-101059997D01*
X99684680Y-100917685D01*
X99624951Y-100786899D01*
X99620109Y-100781311D01*
X99352359Y-101049060D01*
X99334486Y-100982355D01*
X99277645Y-100925514D01*
X99219746Y-100910000D01*
X99208578Y-100910000D01*
X99475729Y-100642849D01*
X99409844Y-100600507D01*
X99271890Y-100560000D01*
X99128109Y-100560000D01*
X98990156Y-100600507D01*
X98990151Y-100600509D01*
X98924270Y-100642848D01*
X99191422Y-100910000D01*
X99180254Y-100910000D01*
X99122355Y-100925514D01*
X99065514Y-100982354D01*
X99047639Y-101049061D01*
X98779889Y-100781311D01*
X98775048Y-100786899D01*
X98775046Y-100786902D01*
X98715319Y-100917685D01*
X98694858Y-101059997D01*
X98694858Y-101060003D01*
X98708377Y-101154034D01*
X98697944Y-101214324D01*
X98654065Y-101256966D01*
X98593503Y-101265673D01*
X98582496Y-101263114D01*
X98571891Y-101260000D01*
X98428112Y-101260000D01*
X98428104Y-101260001D01*
X98417501Y-101263114D01*
X98356341Y-101261364D01*
X98307890Y-101223999D01*
X98290654Y-101165292D01*
X98291622Y-101154033D01*
X98305142Y-101060001D01*
X98305142Y-101059997D01*
X98284680Y-100917685D01*
X98224951Y-100786899D01*
X98220109Y-100781311D01*
X97952359Y-101049060D01*
X97934486Y-100982355D01*
X97877645Y-100925514D01*
X97819746Y-100910000D01*
X97808578Y-100910000D01*
X98075729Y-100642849D01*
X98009844Y-100600507D01*
X97871890Y-100560000D01*
X97728109Y-100560000D01*
X97590156Y-100600507D01*
X97590151Y-100600509D01*
X97524270Y-100642848D01*
X97791422Y-100910000D01*
X97780254Y-100910000D01*
X97722355Y-100925514D01*
X97665514Y-100982354D01*
X97647639Y-101049061D01*
X97379889Y-100781311D01*
X97375048Y-100786899D01*
X97375046Y-100786902D01*
X97315319Y-100917685D01*
X97294858Y-101059997D01*
X97294858Y-101060003D01*
X97308377Y-101154034D01*
X97297944Y-101214324D01*
X97254065Y-101256966D01*
X97193503Y-101265673D01*
X97182496Y-101263114D01*
X97171891Y-101260000D01*
X97028109Y-101260000D01*
X96890156Y-101300507D01*
X96890151Y-101300509D01*
X96824270Y-101342848D01*
X97091422Y-101610000D01*
X97080254Y-101610000D01*
X97022355Y-101625514D01*
X96965514Y-101682354D01*
X96947639Y-101749061D01*
X96679889Y-101481311D01*
X96675048Y-101486899D01*
X96675046Y-101486902D01*
X96615319Y-101617685D01*
X96594858Y-101759997D01*
X96594858Y-101760002D01*
X96615319Y-101902314D01*
X96675048Y-102033100D01*
X96679889Y-102038688D01*
X96679890Y-102038688D01*
X96947639Y-101770938D01*
X96965514Y-101837645D01*
X97022355Y-101894486D01*
X97080254Y-101910000D01*
X97091421Y-101910000D01*
X96824269Y-102177149D01*
X96890155Y-102219492D01*
X97028109Y-102259999D01*
X97028112Y-102260000D01*
X97171888Y-102260000D01*
X97171892Y-102259999D01*
X97182491Y-102256887D01*
X97243651Y-102258633D01*
X97292105Y-102295994D01*
X97309345Y-102354701D01*
X97308377Y-102365964D01*
X97294858Y-102459995D01*
X97294858Y-102460003D01*
X97308377Y-102554034D01*
X97297944Y-102614324D01*
X97254065Y-102656966D01*
X97193503Y-102665673D01*
X97182496Y-102663114D01*
X97171891Y-102660000D01*
X97028109Y-102660000D01*
X96890156Y-102700507D01*
X96890151Y-102700509D01*
X96824270Y-102742848D01*
X97091422Y-103010000D01*
X97080254Y-103010000D01*
X97022355Y-103025514D01*
X96965514Y-103082354D01*
X96947639Y-103149061D01*
X96679889Y-102881311D01*
X96675048Y-102886899D01*
X96675046Y-102886902D01*
X96615319Y-103017685D01*
X96594858Y-103159997D01*
X96594858Y-103160002D01*
X93754500Y-103160002D01*
X93754500Y-97853500D01*
X93773407Y-97795309D01*
X93822907Y-97759345D01*
X93853500Y-97754500D01*
X93911812Y-97754500D01*
X110646468Y-97754500D01*
X110704659Y-97773407D01*
X110716472Y-97783496D01*
X118422525Y-105489549D01*
X118431931Y-105500434D01*
X118447461Y-105521294D01*
X118488124Y-105555414D01*
X118491303Y-105558327D01*
X118497559Y-105564583D01*
X118523414Y-105585026D01*
X118582573Y-105634667D01*
X118582575Y-105634668D01*
X118583462Y-105635114D01*
X118600432Y-105645925D01*
X118605730Y-105650114D01*
X118604872Y-105651198D01*
X118640195Y-105692801D01*
X118644818Y-105753812D01*
X118612697Y-105805887D01*
X118603022Y-105813133D01*
X118498762Y-105881705D01*
X118498757Y-105881710D01*
X118378477Y-106009199D01*
X118378470Y-106009207D01*
X118290836Y-106160993D01*
X118254455Y-106282513D01*
X118219652Y-106332837D01*
X118161917Y-106353092D01*
X118103302Y-106335543D01*
X118068152Y-106292006D01*
X118028030Y-106195142D01*
X117931134Y-106068866D01*
X117804858Y-105971970D01*
X117804854Y-105971968D01*
X117657806Y-105911060D01*
X117657805Y-105911059D01*
X117500000Y-105890284D01*
X117499998Y-105890284D01*
X117452634Y-105896519D01*
X117392473Y-105885368D01*
X117369709Y-105868370D01*
X110283926Y-98782587D01*
X110271051Y-98766732D01*
X110264420Y-98756583D01*
X110237534Y-98735657D01*
X110232939Y-98731600D01*
X110229897Y-98728558D01*
X110211949Y-98715743D01*
X110211948Y-98715742D01*
X110171054Y-98683913D01*
X110164535Y-98680386D01*
X110157850Y-98677117D01*
X110157848Y-98677116D01*
X110108168Y-98662325D01*
X110091342Y-98656548D01*
X110059155Y-98645499D01*
X110051828Y-98644277D01*
X110044458Y-98643358D01*
X110044456Y-98643358D01*
X110044453Y-98643358D01*
X109992674Y-98645500D01*
X95538759Y-98645500D01*
X95480568Y-98626593D01*
X95460219Y-98606770D01*
X95431134Y-98568866D01*
X95304858Y-98471970D01*
X95304854Y-98471968D01*
X95157806Y-98411060D01*
X95157805Y-98411059D01*
X95000000Y-98390284D01*
X94842194Y-98411059D01*
X94842193Y-98411060D01*
X94695145Y-98471968D01*
X94695141Y-98471970D01*
X94568868Y-98568864D01*
X94568864Y-98568868D01*
X94471970Y-98695141D01*
X94471968Y-98695145D01*
X94411060Y-98842193D01*
X94411059Y-98842194D01*
X94390284Y-98999999D01*
X94390284Y-99000000D01*
X94411059Y-99157805D01*
X94411060Y-99157806D01*
X94451851Y-99256287D01*
X94471970Y-99304858D01*
X94568866Y-99431134D01*
X94695142Y-99528030D01*
X94842194Y-99588940D01*
X95000000Y-99609716D01*
X95157806Y-99588940D01*
X95304858Y-99528030D01*
X95431134Y-99431134D01*
X95460218Y-99393231D01*
X95510642Y-99358577D01*
X95538759Y-99354500D01*
X109812153Y-99354500D01*
X109870344Y-99373407D01*
X109882157Y-99383496D01*
X116868370Y-106369708D01*
X116896147Y-106424225D01*
X116896519Y-106452632D01*
X116890284Y-106499997D01*
X116890284Y-106500000D01*
X116911059Y-106657805D01*
X116911060Y-106657806D01*
X116971968Y-106804854D01*
X116971973Y-106804863D01*
X117009699Y-106854027D01*
X117030124Y-106911702D01*
X117012747Y-106970368D01*
X116970926Y-107004957D01*
X116771356Y-107092495D01*
X116771351Y-107092498D01*
X116571305Y-107223195D01*
X116470835Y-107315683D01*
X116439101Y-107344898D01*
X116395484Y-107385050D01*
X116248713Y-107573621D01*
X116248711Y-107573624D01*
X116134976Y-107783786D01*
X116057382Y-108009812D01*
X116018050Y-108245516D01*
X116018050Y-108484483D01*
X116057382Y-108720187D01*
X116134976Y-108946213D01*
X116248711Y-109156375D01*
X116395487Y-109344953D01*
X116571301Y-109506801D01*
X116571303Y-109506802D01*
X116571305Y-109506804D01*
X116771351Y-109637501D01*
X116771360Y-109637506D01*
X116807386Y-109653308D01*
X116990195Y-109733495D01*
X117221849Y-109792158D01*
X117281352Y-109797088D01*
X117400358Y-109806950D01*
X117400360Y-109806950D01*
X117519642Y-109806950D01*
X117608895Y-109799554D01*
X117698151Y-109792158D01*
X117929805Y-109733495D01*
X118148644Y-109637504D01*
X118348699Y-109506801D01*
X118524513Y-109344953D01*
X118671289Y-109156375D01*
X118785025Y-108946210D01*
X118862617Y-108720191D01*
X118901950Y-108484483D01*
X118901950Y-108245517D01*
X118862617Y-108009809D01*
X118785025Y-107783790D01*
X118671289Y-107573625D01*
X118524513Y-107385047D01*
X118348699Y-107223199D01*
X118348696Y-107223197D01*
X118348694Y-107223195D01*
X118148648Y-107092498D01*
X118148639Y-107092493D01*
X118025066Y-107038290D01*
X118008928Y-107031211D01*
X117963234Y-106990522D01*
X117950183Y-106930745D01*
X117970153Y-106880283D01*
X118028030Y-106804858D01*
X118079566Y-106680436D01*
X118119301Y-106633912D01*
X118178795Y-106619628D01*
X118235324Y-106643042D01*
X118261932Y-106679111D01*
X118330230Y-106837446D01*
X118330234Y-106837452D01*
X118434902Y-106978046D01*
X118434904Y-106978048D01*
X118569170Y-107090711D01*
X118569171Y-107090711D01*
X118569173Y-107090713D01*
X118725808Y-107169378D01*
X118725813Y-107169379D01*
X118725817Y-107169381D01*
X118896360Y-107209800D01*
X118896361Y-107209800D01*
X119027662Y-107209800D01*
X119027667Y-107209800D01*
X119158093Y-107194555D01*
X119322800Y-107134607D01*
X119469243Y-107038290D01*
X119589526Y-106910797D01*
X119633298Y-106834982D01*
X119677163Y-106759006D01*
X119677163Y-106759004D01*
X119677165Y-106759002D01*
X119727435Y-106591088D01*
X119737627Y-106416106D01*
X119722252Y-106328912D01*
X119707191Y-106243496D01*
X119707190Y-106243495D01*
X119707190Y-106243491D01*
X119637766Y-106082548D01*
X119533097Y-105941953D01*
X119518063Y-105929338D01*
X119485640Y-105877451D01*
X119489907Y-105816415D01*
X119529236Y-105769544D01*
X119581699Y-105754500D01*
X120421266Y-105754500D01*
X120479457Y-105773407D01*
X120515421Y-105822907D01*
X120515421Y-105884093D01*
X120493276Y-105921437D01*
X120485822Y-105929339D01*
X120410477Y-106009199D01*
X120410470Y-106009207D01*
X120322836Y-106160993D01*
X120272565Y-106328908D01*
X120272564Y-106328916D01*
X120262372Y-106503890D01*
X120292808Y-106676503D01*
X120292809Y-106676506D01*
X120292810Y-106676509D01*
X120354488Y-106819495D01*
X120362234Y-106837452D01*
X120466902Y-106978046D01*
X120466904Y-106978048D01*
X120601170Y-107090711D01*
X120601171Y-107090711D01*
X120601173Y-107090713D01*
X120757808Y-107169378D01*
X120757813Y-107169379D01*
X120757817Y-107169381D01*
X120928360Y-107209800D01*
X120928361Y-107209800D01*
X121059662Y-107209800D01*
X121059667Y-107209800D01*
X121190093Y-107194555D01*
X121354800Y-107134607D01*
X121501243Y-107038290D01*
X121621526Y-106910797D01*
X121665298Y-106834982D01*
X121709163Y-106759006D01*
X121709163Y-106759004D01*
X121709165Y-106759002D01*
X121759435Y-106591088D01*
X121769627Y-106416106D01*
X121754252Y-106328912D01*
X121739191Y-106243496D01*
X121739190Y-106243495D01*
X121739190Y-106243491D01*
X121669766Y-106082548D01*
X121565097Y-105941953D01*
X121550063Y-105929338D01*
X121517640Y-105877451D01*
X121521907Y-105816415D01*
X121561236Y-105769544D01*
X121613699Y-105754500D01*
X122646468Y-105754500D01*
X122704659Y-105773407D01*
X122716472Y-105783496D01*
X123697954Y-106764978D01*
X123725731Y-106819495D01*
X123726950Y-106834982D01*
X123726950Y-107272061D01*
X123708043Y-107330252D01*
X123658543Y-107366216D01*
X123597357Y-107366216D01*
X123560900Y-107344898D01*
X123428699Y-107223199D01*
X123428696Y-107223197D01*
X123428694Y-107223195D01*
X123228648Y-107092498D01*
X123228639Y-107092493D01*
X123105064Y-107038289D01*
X123009805Y-106996505D01*
X122854698Y-106957226D01*
X122778149Y-106937841D01*
X122599642Y-106923050D01*
X122599640Y-106923050D01*
X122480360Y-106923050D01*
X122480358Y-106923050D01*
X122301850Y-106937841D01*
X122186022Y-106967173D01*
X122070195Y-106996505D01*
X122034164Y-107012309D01*
X121851360Y-107092493D01*
X121851351Y-107092498D01*
X121651305Y-107223195D01*
X121550835Y-107315683D01*
X121519101Y-107344898D01*
X121475484Y-107385050D01*
X121328713Y-107573621D01*
X121328711Y-107573624D01*
X121214976Y-107783786D01*
X121137382Y-108009812D01*
X121098050Y-108245516D01*
X121098050Y-108484483D01*
X121137382Y-108720187D01*
X121214976Y-108946213D01*
X121328711Y-109156375D01*
X121475487Y-109344953D01*
X121651301Y-109506801D01*
X121651303Y-109506802D01*
X121651305Y-109506804D01*
X121851351Y-109637501D01*
X121851360Y-109637506D01*
X121887386Y-109653308D01*
X122070195Y-109733495D01*
X122301849Y-109792158D01*
X122361352Y-109797088D01*
X122480358Y-109806950D01*
X122480360Y-109806950D01*
X122599642Y-109806950D01*
X122688895Y-109799554D01*
X122778151Y-109792158D01*
X123009805Y-109733495D01*
X123228644Y-109637504D01*
X123428699Y-109506801D01*
X123560900Y-109385101D01*
X123616517Y-109359600D01*
X123676502Y-109371661D01*
X123717942Y-109416676D01*
X123726950Y-109457938D01*
X123726950Y-110447061D01*
X123708043Y-110505252D01*
X123658543Y-110541216D01*
X123597357Y-110541216D01*
X123560900Y-110519898D01*
X123428699Y-110398199D01*
X123428696Y-110398197D01*
X123428694Y-110398195D01*
X123228648Y-110267498D01*
X123228639Y-110267493D01*
X123110216Y-110215549D01*
X123009805Y-110171505D01*
X122844544Y-110129655D01*
X122778149Y-110112841D01*
X122599642Y-110098050D01*
X122599640Y-110098050D01*
X122480360Y-110098050D01*
X122480358Y-110098050D01*
X122301850Y-110112841D01*
X122186022Y-110142173D01*
X122070195Y-110171505D01*
X122034164Y-110187309D01*
X121851360Y-110267493D01*
X121851351Y-110267498D01*
X121651305Y-110398195D01*
X121571166Y-110471968D01*
X121519101Y-110519898D01*
X121475484Y-110560050D01*
X121328713Y-110748621D01*
X121328711Y-110748624D01*
X121214976Y-110958786D01*
X121137382Y-111184812D01*
X121098050Y-111420516D01*
X121098050Y-111659483D01*
X121136516Y-111890000D01*
X121137383Y-111895191D01*
X121193292Y-112058048D01*
X121215047Y-112121419D01*
X121216058Y-112182596D01*
X121180918Y-112232684D01*
X121123048Y-112252550D01*
X121101392Y-112250519D01*
X121066202Y-112243253D01*
X120889903Y-112248384D01*
X120719536Y-112294034D01*
X120643788Y-112334878D01*
X120564291Y-112377743D01*
X120458409Y-112471970D01*
X120432530Y-112495000D01*
X120331368Y-112639475D01*
X120266248Y-112803390D01*
X120266248Y-112803391D01*
X120266248Y-112803392D01*
X120240685Y-112977906D01*
X120240685Y-112977908D01*
X120240685Y-112977910D01*
X120240685Y-112977911D01*
X120256056Y-113153608D01*
X120256056Y-113153610D01*
X120301861Y-113291840D01*
X120311536Y-113321036D01*
X120404130Y-113471154D01*
X120933668Y-114000692D01*
X121422525Y-114489549D01*
X121431931Y-114500434D01*
X121447461Y-114521294D01*
X121488125Y-114555415D01*
X121491301Y-114558326D01*
X121497561Y-114564585D01*
X121523414Y-114585026D01*
X121561158Y-114616698D01*
X121582573Y-114634667D01*
X121583458Y-114635111D01*
X121600435Y-114645927D01*
X121601209Y-114646539D01*
X121670466Y-114678834D01*
X121671204Y-114679178D01*
X121740180Y-114713820D01*
X121740182Y-114713820D01*
X121740189Y-114713824D01*
X121741145Y-114714050D01*
X121760160Y-114720660D01*
X121761060Y-114721080D01*
X121836707Y-114736699D01*
X121911811Y-114754500D01*
X121911812Y-114754500D01*
X121912802Y-114754500D01*
X121932823Y-114756546D01*
X121933260Y-114756635D01*
X121933794Y-114756746D01*
X122010982Y-114754500D01*
X122937821Y-114754500D01*
X122952168Y-114755545D01*
X122954780Y-114755927D01*
X122977906Y-114759315D01*
X123030803Y-114754687D01*
X123035102Y-114754500D01*
X123043938Y-114754500D01*
X123043941Y-114754500D01*
X123068490Y-114751630D01*
X123076675Y-114750674D01*
X123153605Y-114743944D01*
X123153606Y-114743944D01*
X123153607Y-114743943D01*
X123153612Y-114743943D01*
X123154548Y-114743632D01*
X123174209Y-114739274D01*
X123174324Y-114739260D01*
X123175184Y-114739160D01*
X123247739Y-114712752D01*
X123321036Y-114688464D01*
X123321860Y-114687955D01*
X123340001Y-114679171D01*
X123340924Y-114678836D01*
X123405444Y-114636400D01*
X123471154Y-114595870D01*
X123471843Y-114595179D01*
X123487471Y-114582450D01*
X123488285Y-114581915D01*
X123541271Y-114525752D01*
X124820498Y-113246524D01*
X124875013Y-113218749D01*
X124935445Y-113228320D01*
X124978710Y-113271585D01*
X124989500Y-113316530D01*
X124989500Y-149996588D01*
X124989500Y-150000000D01*
X124980929Y-150207236D01*
X124972543Y-150409976D01*
X124972205Y-150414055D01*
X124921703Y-150819214D01*
X124921029Y-150823251D01*
X124837242Y-151222849D01*
X124836237Y-151226817D01*
X124719741Y-151618116D01*
X124718412Y-151621987D01*
X124569994Y-152002354D01*
X124568349Y-152006102D01*
X124389032Y-152372901D01*
X124387084Y-152376501D01*
X124178092Y-152727235D01*
X124175853Y-152730661D01*
X123938605Y-153062948D01*
X123936091Y-153066178D01*
X123672222Y-153377727D01*
X123669450Y-153380739D01*
X123380739Y-153669450D01*
X123377727Y-153672222D01*
X123066178Y-153936091D01*
X123062948Y-153938605D01*
X122730661Y-154175853D01*
X122727235Y-154178092D01*
X122376501Y-154387084D01*
X122372901Y-154389032D01*
X122006102Y-154568349D01*
X122002354Y-154569994D01*
X121621987Y-154718412D01*
X121618116Y-154719741D01*
X121226817Y-154836237D01*
X121222849Y-154837242D01*
X120823251Y-154921029D01*
X120819214Y-154921703D01*
X120414055Y-154972205D01*
X120409977Y-154972542D01*
X120000000Y-154989500D01*
X80000000Y-154989500D01*
X79590020Y-154972542D01*
X79585944Y-154972205D01*
X79180785Y-154921703D01*
X79176748Y-154921029D01*
X78777150Y-154837242D01*
X78773182Y-154836237D01*
X78381883Y-154719741D01*
X78378012Y-154718412D01*
X77997645Y-154569994D01*
X77993897Y-154568349D01*
X77627098Y-154389032D01*
X77623498Y-154387084D01*
X77272764Y-154178092D01*
X77269338Y-154175853D01*
X76937051Y-153938605D01*
X76933821Y-153936091D01*
X76622272Y-153672222D01*
X76619260Y-153669450D01*
X76330549Y-153380739D01*
X76327777Y-153377727D01*
X76063908Y-153066178D01*
X76061394Y-153062948D01*
X75824146Y-152730661D01*
X75821907Y-152727235D01*
X75767993Y-152636756D01*
X75612911Y-152376495D01*
X75610967Y-152372901D01*
X75431650Y-152006102D01*
X75430011Y-152002367D01*
X75359988Y-151822914D01*
X75281587Y-151621987D01*
X75280258Y-151618116D01*
X75236748Y-151471970D01*
X75163758Y-151226803D01*
X75162757Y-151222849D01*
X75143976Y-151133278D01*
X75078967Y-150823236D01*
X75078299Y-150819233D01*
X75027793Y-150414045D01*
X75027458Y-150410001D01*
X75010500Y-150000000D01*
X75010500Y-149996588D01*
X75010500Y-146954773D01*
X76165828Y-146954773D01*
X76170662Y-147043937D01*
X76175608Y-147135149D01*
X76175609Y-147135157D01*
X76223935Y-147309208D01*
X76223938Y-147309217D01*
X76308547Y-147468808D01*
X76308550Y-147468812D01*
X76308551Y-147468814D01*
X76425498Y-147606494D01*
X76425499Y-147606495D01*
X76425501Y-147606497D01*
X76502532Y-147665054D01*
X76569308Y-147715816D01*
X76733256Y-147791667D01*
X76909678Y-147830500D01*
X76909682Y-147830500D01*
X77045035Y-147830500D01*
X77045037Y-147830499D01*
X77104638Y-147824017D01*
X77164532Y-147836521D01*
X77205637Y-147881841D01*
X77212254Y-147942668D01*
X77197284Y-147977993D01*
X77035638Y-148216402D01*
X76860178Y-148547358D01*
X76860176Y-148547362D01*
X76860176Y-148547363D01*
X76721524Y-148895353D01*
X76721522Y-148895358D01*
X76721519Y-148895366D01*
X76621310Y-149256287D01*
X76560705Y-149625955D01*
X76540426Y-150000000D01*
X76560705Y-150374044D01*
X76621310Y-150743712D01*
X76721519Y-151104633D01*
X76721521Y-151104638D01*
X76721522Y-151104642D01*
X76721524Y-151104647D01*
X76860176Y-151452637D01*
X76860178Y-151452641D01*
X76988740Y-151695137D01*
X77035639Y-151783597D01*
X77245857Y-152093645D01*
X77245861Y-152093650D01*
X77245862Y-152093651D01*
X77488360Y-152379142D01*
X77488370Y-152379152D01*
X77760315Y-152636753D01*
X77760319Y-152636756D01*
X78058532Y-152863451D01*
X78379506Y-153056575D01*
X78719480Y-153213864D01*
X79074466Y-153333473D01*
X79074471Y-153333474D01*
X79074474Y-153333475D01*
X79440298Y-153413998D01*
X79440299Y-153413998D01*
X79440303Y-153413999D01*
X79812702Y-153454500D01*
X80187298Y-153454500D01*
X80559697Y-153413999D01*
X80925525Y-153333475D01*
X80925526Y-153333475D01*
X80925528Y-153333474D01*
X80925534Y-153333473D01*
X81280520Y-153213864D01*
X81620494Y-153056575D01*
X81941468Y-152863451D01*
X82239681Y-152636756D01*
X82511635Y-152379147D01*
X82754143Y-152093645D01*
X82964361Y-151783597D01*
X83139824Y-151452637D01*
X83278476Y-151104647D01*
X83378691Y-150743706D01*
X83439294Y-150374046D01*
X83459574Y-150000000D01*
X83454152Y-149899999D01*
X85200000Y-149899999D01*
X85200001Y-149900000D01*
X85634375Y-149900000D01*
X85631449Y-149906670D01*
X85621114Y-150031395D01*
X85638487Y-150100000D01*
X85200002Y-150100000D01*
X85200001Y-150100001D01*
X85200001Y-150679203D01*
X85202850Y-150709600D01*
X85202850Y-150709602D01*
X85247654Y-150837647D01*
X85328207Y-150946790D01*
X85328209Y-150946792D01*
X85437352Y-151027345D01*
X85565398Y-151072149D01*
X85595789Y-151074999D01*
X85899998Y-151074999D01*
X85900000Y-151074998D01*
X85900000Y-150362152D01*
X85937424Y-150375000D01*
X86031073Y-150375000D01*
X86100000Y-150363498D01*
X86100000Y-151074998D01*
X86100001Y-151074999D01*
X86404203Y-151074999D01*
X86434600Y-151072149D01*
X86434602Y-151072149D01*
X86562647Y-151027345D01*
X86671790Y-150946792D01*
X86671792Y-150946790D01*
X86752345Y-150837647D01*
X86797149Y-150709601D01*
X86799999Y-150679211D01*
X86800000Y-150679210D01*
X86800000Y-150321332D01*
X87145500Y-150321332D01*
X87160557Y-150459775D01*
X87160557Y-150459777D01*
X87160558Y-150459778D01*
X87219903Y-150635908D01*
X87219906Y-150635914D01*
X87315724Y-150795167D01*
X87315725Y-150795168D01*
X87315727Y-150795171D01*
X87443546Y-150930108D01*
X87443548Y-150930110D01*
X87586960Y-151027345D01*
X87597385Y-151034413D01*
X87770049Y-151103209D01*
X87953465Y-151133278D01*
X88139058Y-151123216D01*
X88318148Y-151073492D01*
X88482362Y-150986431D01*
X88624021Y-150866105D01*
X88717062Y-150743712D01*
X88736500Y-150718142D01*
X88736501Y-150718140D01*
X88736500Y-150718140D01*
X88736502Y-150718139D01*
X88814545Y-150549452D01*
X88854500Y-150367933D01*
X88854500Y-149678668D01*
X88839443Y-149540225D01*
X88780096Y-149364089D01*
X88684273Y-149204829D01*
X88556454Y-149069892D01*
X88556453Y-149069891D01*
X88556451Y-149069889D01*
X88453371Y-149000000D01*
X95390284Y-149000000D01*
X95411059Y-149157805D01*
X95411060Y-149157806D01*
X95465980Y-149290398D01*
X95471970Y-149304858D01*
X95568866Y-149431134D01*
X95695142Y-149528030D01*
X95842194Y-149588940D01*
X96000000Y-149609716D01*
X96047363Y-149603480D01*
X96107524Y-149614630D01*
X96130290Y-149631629D01*
X98716071Y-152217410D01*
X98728943Y-152233261D01*
X98735577Y-152243414D01*
X98735578Y-152243415D01*
X98735579Y-152243416D01*
X98762473Y-152264348D01*
X98767070Y-152268408D01*
X98770104Y-152271442D01*
X98770107Y-152271444D01*
X98788041Y-152284249D01*
X98828942Y-152316084D01*
X98835481Y-152319622D01*
X98842147Y-152322880D01*
X98842152Y-152322884D01*
X98891831Y-152337674D01*
X98904084Y-152341880D01*
X98940841Y-152354500D01*
X98948173Y-152355723D01*
X98955537Y-152356640D01*
X98955544Y-152356642D01*
X99007335Y-152354500D01*
X101961241Y-152354500D01*
X102019432Y-152373407D01*
X102039780Y-152393229D01*
X102068866Y-152431134D01*
X102195142Y-152528030D01*
X102342194Y-152588940D01*
X102500000Y-152609716D01*
X102657806Y-152588940D01*
X102804858Y-152528030D01*
X102931134Y-152431134D01*
X103028030Y-152304858D01*
X103088940Y-152157806D01*
X103109716Y-152000000D01*
X103088940Y-151842194D01*
X103028030Y-151695142D01*
X102931134Y-151568866D01*
X102804858Y-151471970D01*
X102804854Y-151471968D01*
X102657806Y-151411060D01*
X102657805Y-151411059D01*
X102500000Y-151390284D01*
X102342194Y-151411059D01*
X102342193Y-151411060D01*
X102195145Y-151471968D01*
X102195141Y-151471970D01*
X102068868Y-151568864D01*
X102068866Y-151568866D01*
X102039781Y-151606768D01*
X101989358Y-151641423D01*
X101961241Y-151645500D01*
X99187847Y-151645500D01*
X99129656Y-151626593D01*
X99117843Y-151616504D01*
X96631629Y-149130290D01*
X96603852Y-149075773D01*
X96603480Y-149047363D01*
X96603945Y-149043831D01*
X96609716Y-149000000D01*
X96605185Y-148965588D01*
X96588940Y-148842194D01*
X96528030Y-148695142D01*
X96431134Y-148568866D01*
X96304858Y-148471970D01*
X96304854Y-148471968D01*
X96157806Y-148411060D01*
X96157805Y-148411059D01*
X96000000Y-148390284D01*
X95842194Y-148411059D01*
X95842193Y-148411060D01*
X95695145Y-148471968D01*
X95695141Y-148471970D01*
X95568868Y-148568864D01*
X95568864Y-148568868D01*
X95471970Y-148695141D01*
X95471968Y-148695145D01*
X95411060Y-148842193D01*
X95411059Y-148842194D01*
X95390284Y-148999999D01*
X95390284Y-149000000D01*
X88453371Y-149000000D01*
X88402617Y-148965588D01*
X88402615Y-148965587D01*
X88229951Y-148896791D01*
X88046535Y-148866722D01*
X87860942Y-148876784D01*
X87860936Y-148876785D01*
X87860934Y-148876786D01*
X87681857Y-148926506D01*
X87681854Y-148926507D01*
X87681852Y-148926508D01*
X87573896Y-148983743D01*
X87517634Y-149013571D01*
X87375980Y-149133893D01*
X87375975Y-149133898D01*
X87263499Y-149281857D01*
X87263498Y-149281859D01*
X87194436Y-149431135D01*
X87185455Y-149450548D01*
X87145500Y-149632067D01*
X87145500Y-150321332D01*
X86800000Y-150321332D01*
X86800000Y-150100001D01*
X86799999Y-150100000D01*
X86365625Y-150100000D01*
X86368551Y-150093330D01*
X86378886Y-149968605D01*
X86361513Y-149900000D01*
X86799998Y-149900000D01*
X86799999Y-149899999D01*
X86799999Y-149320796D01*
X86797149Y-149290399D01*
X86797149Y-149290397D01*
X86752345Y-149162352D01*
X86671792Y-149053209D01*
X86671790Y-149053207D01*
X86562647Y-148972654D01*
X86434601Y-148927850D01*
X86404211Y-148925000D01*
X86100001Y-148925000D01*
X86100000Y-148925001D01*
X86100000Y-149637847D01*
X86062576Y-149625000D01*
X85968927Y-149625000D01*
X85900000Y-149636501D01*
X85900000Y-148925001D01*
X85899999Y-148925000D01*
X85595796Y-148925000D01*
X85565399Y-148927850D01*
X85565397Y-148927850D01*
X85437352Y-148972654D01*
X85328209Y-149053207D01*
X85328207Y-149053209D01*
X85247654Y-149162352D01*
X85202850Y-149290398D01*
X85200000Y-149320788D01*
X85200000Y-149899999D01*
X83454152Y-149899999D01*
X83439294Y-149625954D01*
X83378691Y-149256294D01*
X83344707Y-149133895D01*
X83278480Y-148895366D01*
X83278478Y-148895361D01*
X83278476Y-148895353D01*
X83139824Y-148547363D01*
X82964361Y-148216403D01*
X82754143Y-147906355D01*
X82689597Y-147830366D01*
X82511639Y-147620857D01*
X82511629Y-147620847D01*
X82239684Y-147363246D01*
X81941472Y-147136552D01*
X81941469Y-147136550D01*
X81941468Y-147136549D01*
X81620494Y-146943425D01*
X81450640Y-146864842D01*
X81280525Y-146786138D01*
X81280522Y-146786137D01*
X81280520Y-146786136D01*
X80925534Y-146666527D01*
X80925533Y-146666526D01*
X80925525Y-146666524D01*
X80559701Y-146586001D01*
X80559702Y-146586001D01*
X80187298Y-146545500D01*
X79812702Y-146545500D01*
X79440297Y-146586001D01*
X79074475Y-146666524D01*
X79074473Y-146666524D01*
X78719474Y-146786138D01*
X78379514Y-146943421D01*
X78379508Y-146943424D01*
X78379506Y-146943425D01*
X78210310Y-147045227D01*
X78058532Y-147136549D01*
X78058529Y-147136550D01*
X77982931Y-147194018D01*
X77925163Y-147214181D01*
X77866577Y-147196538D01*
X77829550Y-147147828D01*
X77825324Y-147099193D01*
X77834172Y-147045227D01*
X77824392Y-146864848D01*
X77776064Y-146690788D01*
X77761627Y-146663557D01*
X77691452Y-146531191D01*
X77691450Y-146531189D01*
X77691449Y-146531186D01*
X77574502Y-146393506D01*
X77574500Y-146393504D01*
X77574498Y-146393502D01*
X77430693Y-146284185D01*
X77430692Y-146284184D01*
X77339116Y-146241816D01*
X77266747Y-146208334D01*
X77266745Y-146208333D01*
X77231459Y-146200566D01*
X77090322Y-146169500D01*
X76954972Y-146169500D01*
X76820411Y-146184134D01*
X76649228Y-146241813D01*
X76649222Y-146241816D01*
X76494442Y-146334943D01*
X76363291Y-146459175D01*
X76261918Y-146608689D01*
X76195053Y-146776509D01*
X76167689Y-146943424D01*
X76165828Y-146954773D01*
X75010500Y-146954773D01*
X75010500Y-118150000D01*
X79390284Y-118150000D01*
X79411059Y-118307805D01*
X79411060Y-118307806D01*
X79462143Y-118431135D01*
X79471970Y-118454858D01*
X79568866Y-118581134D01*
X79695142Y-118678030D01*
X79842194Y-118738940D01*
X80000000Y-118759716D01*
X80157806Y-118738940D01*
X80304858Y-118678030D01*
X80431134Y-118581134D01*
X80528030Y-118454858D01*
X80588940Y-118307806D01*
X80609716Y-118150000D01*
X80588940Y-117992194D01*
X80528030Y-117845142D01*
X80431134Y-117718866D01*
X80400217Y-117695142D01*
X80393231Y-117689781D01*
X80358576Y-117639356D01*
X80354500Y-117611240D01*
X80354500Y-113420000D01*
X80643698Y-113420000D01*
X80680682Y-113570046D01*
X80680682Y-113570047D01*
X80759681Y-113720568D01*
X80759681Y-113720569D01*
X80872399Y-113847800D01*
X80872405Y-113847805D01*
X81012306Y-113944371D01*
X81012309Y-113944373D01*
X81171241Y-114004648D01*
X81171251Y-114004651D01*
X81297648Y-114019999D01*
X81297665Y-114020000D01*
X81789999Y-114020000D01*
X81790000Y-114019999D01*
X81790000Y-113620000D01*
X81990000Y-113620000D01*
X81990000Y-114019999D01*
X81990001Y-114020000D01*
X82482335Y-114020000D01*
X82482351Y-114019999D01*
X82608748Y-114004651D01*
X82608758Y-114004648D01*
X82767690Y-113944373D01*
X82767693Y-113944371D01*
X82907594Y-113847805D01*
X82907600Y-113847800D01*
X83020318Y-113720569D01*
X83020318Y-113720568D01*
X83099317Y-113570047D01*
X83099317Y-113570046D01*
X83136302Y-113420000D01*
X82723455Y-113420000D01*
X82743895Y-113348160D01*
X82733546Y-113236479D01*
X82725340Y-113220000D01*
X83136301Y-113220000D01*
X83099317Y-113069953D01*
X83099317Y-113069952D01*
X83020318Y-112919431D01*
X83020318Y-112919430D01*
X82907600Y-112792199D01*
X82907594Y-112792194D01*
X82767693Y-112695628D01*
X82767690Y-112695626D01*
X82608758Y-112635351D01*
X82608748Y-112635348D01*
X82482351Y-112620000D01*
X81990001Y-112620000D01*
X81990000Y-112620001D01*
X81990000Y-113020000D01*
X81790000Y-113020000D01*
X81790000Y-112620001D01*
X81789999Y-112620000D01*
X81639637Y-112620000D01*
X81581446Y-112601093D01*
X81545482Y-112551593D01*
X81545482Y-112490407D01*
X81581446Y-112440907D01*
X81601751Y-112429536D01*
X81628208Y-112418577D01*
X81682250Y-112396192D01*
X81803304Y-112303304D01*
X81896192Y-112182250D01*
X81954584Y-112041280D01*
X81974500Y-111890000D01*
X81974180Y-111887573D01*
X81954584Y-111738723D01*
X81954584Y-111738720D01*
X81896192Y-111597750D01*
X81803304Y-111476696D01*
X81682250Y-111383808D01*
X81541280Y-111325416D01*
X81541278Y-111325415D01*
X81541276Y-111325415D01*
X81427981Y-111310500D01*
X81427980Y-111310500D01*
X81352020Y-111310500D01*
X81352018Y-111310500D01*
X81238723Y-111325415D01*
X81238717Y-111325417D01*
X81097751Y-111383807D01*
X80976697Y-111476695D01*
X80976695Y-111476697D01*
X80883807Y-111597751D01*
X80825417Y-111738717D01*
X80825415Y-111738723D01*
X80805500Y-111889999D01*
X80805500Y-111890000D01*
X80825415Y-112041276D01*
X80825417Y-112041282D01*
X80858525Y-112121213D01*
X80883808Y-112182250D01*
X80976696Y-112303304D01*
X81097750Y-112396192D01*
X81097751Y-112396192D01*
X81097752Y-112396193D01*
X81212548Y-112443743D01*
X81259074Y-112483479D01*
X81273358Y-112542974D01*
X81249943Y-112599502D01*
X81197774Y-112631472D01*
X81186599Y-112633485D01*
X81171249Y-112635349D01*
X81171241Y-112635351D01*
X81012309Y-112695626D01*
X81012306Y-112695628D01*
X80872405Y-112792194D01*
X80872399Y-112792199D01*
X80759681Y-112919430D01*
X80759681Y-112919431D01*
X80680682Y-113069952D01*
X80680682Y-113069953D01*
X80643698Y-113220000D01*
X81056545Y-113220000D01*
X81036105Y-113291840D01*
X81046454Y-113403521D01*
X81054660Y-113420000D01*
X80643698Y-113420000D01*
X80354500Y-113420000D01*
X80354500Y-110187846D01*
X80373407Y-110129655D01*
X80383490Y-110117848D01*
X86501337Y-104000000D01*
X87890284Y-104000000D01*
X87911059Y-104157805D01*
X87911060Y-104157806D01*
X87971968Y-104304854D01*
X87971970Y-104304858D01*
X88068863Y-104431131D01*
X88068864Y-104431132D01*
X88068866Y-104431134D01*
X88106768Y-104460217D01*
X88141423Y-104510640D01*
X88145500Y-104538758D01*
X88145500Y-119952965D01*
X88143393Y-119973279D01*
X88140905Y-119985145D01*
X88145120Y-120018960D01*
X88145500Y-120025088D01*
X88145500Y-120029380D01*
X88146455Y-120035101D01*
X88149128Y-120051122D01*
X88155539Y-120102551D01*
X88155539Y-120102552D01*
X88155540Y-120102555D01*
X88157655Y-120109661D01*
X88160070Y-120116697D01*
X88160071Y-120116698D01*
X88184739Y-120162281D01*
X88191047Y-120175183D01*
X88207502Y-120208842D01*
X88211818Y-120214887D01*
X88216382Y-120220750D01*
X88254509Y-120255848D01*
X97868370Y-129869708D01*
X97896147Y-129924225D01*
X97896519Y-129952632D01*
X97890284Y-129999997D01*
X97890284Y-130000000D01*
X97911059Y-130157805D01*
X97911060Y-130157806D01*
X97963134Y-130283527D01*
X97971970Y-130304858D01*
X98068866Y-130431134D01*
X98195142Y-130528030D01*
X98342194Y-130588940D01*
X98500000Y-130609716D01*
X98657806Y-130588940D01*
X98804858Y-130528030D01*
X98931134Y-130431134D01*
X98931135Y-130431132D01*
X98936281Y-130427184D01*
X98937320Y-130428538D01*
X98984513Y-130404494D01*
X99044945Y-130414065D01*
X99063462Y-130427518D01*
X99063719Y-130427184D01*
X99068865Y-130431132D01*
X99068866Y-130431134D01*
X99195142Y-130528030D01*
X99342194Y-130588940D01*
X99500000Y-130609716D01*
X99657806Y-130588940D01*
X99804858Y-130528030D01*
X99931134Y-130431134D01*
X100028030Y-130304858D01*
X100088940Y-130157806D01*
X100109716Y-130000000D01*
X100088940Y-129842194D01*
X100028030Y-129695142D01*
X99931134Y-129568866D01*
X99804858Y-129471970D01*
X99804854Y-129471968D01*
X99657806Y-129411060D01*
X99657805Y-129411059D01*
X99500000Y-129390284D01*
X99499998Y-129390284D01*
X99452632Y-129396519D01*
X99392472Y-129385368D01*
X99369708Y-129368370D01*
X89883496Y-119882157D01*
X89855719Y-119827640D01*
X89854500Y-119812153D01*
X89854500Y-104538758D01*
X89873407Y-104480567D01*
X89893228Y-104460220D01*
X89931134Y-104431134D01*
X90028030Y-104304858D01*
X90088940Y-104157806D01*
X90109716Y-104000000D01*
X90088940Y-103842194D01*
X90028030Y-103695142D01*
X89931134Y-103568866D01*
X89804858Y-103471970D01*
X89804854Y-103471968D01*
X89657806Y-103411060D01*
X89657805Y-103411059D01*
X89500000Y-103390284D01*
X89342194Y-103411059D01*
X89342193Y-103411060D01*
X89195145Y-103471968D01*
X89195141Y-103471970D01*
X89117200Y-103531777D01*
X89068866Y-103568866D01*
X89068865Y-103568867D01*
X89063719Y-103572816D01*
X89062679Y-103571461D01*
X89015487Y-103595506D01*
X88955055Y-103585935D01*
X88936537Y-103572481D01*
X88936281Y-103572816D01*
X88931134Y-103568867D01*
X88931134Y-103568866D01*
X88804858Y-103471970D01*
X88804854Y-103471968D01*
X88657806Y-103411060D01*
X88657805Y-103411059D01*
X88500000Y-103390284D01*
X88342194Y-103411059D01*
X88342193Y-103411060D01*
X88195145Y-103471968D01*
X88195141Y-103471970D01*
X88068868Y-103568864D01*
X88068864Y-103568868D01*
X87971970Y-103695141D01*
X87971968Y-103695145D01*
X87911060Y-103842193D01*
X87911059Y-103842194D01*
X87890284Y-103999999D01*
X87890284Y-104000000D01*
X86501337Y-104000000D01*
X88869711Y-101631626D01*
X88924226Y-101603851D01*
X88952629Y-101603479D01*
X89000000Y-101609716D01*
X89157806Y-101588940D01*
X89304858Y-101528030D01*
X89431134Y-101431134D01*
X89528030Y-101304858D01*
X89588940Y-101157806D01*
X89609716Y-101000000D01*
X89588940Y-100842194D01*
X89528030Y-100695142D01*
X89431134Y-100568866D01*
X89304858Y-100471970D01*
X89304854Y-100471968D01*
X89157806Y-100411060D01*
X89157805Y-100411059D01*
X89000000Y-100390284D01*
X88842194Y-100411059D01*
X88842193Y-100411060D01*
X88695145Y-100471968D01*
X88695141Y-100471970D01*
X88568868Y-100568864D01*
X88568864Y-100568868D01*
X88471970Y-100695141D01*
X88471968Y-100695145D01*
X88411060Y-100842193D01*
X88411059Y-100842194D01*
X88390284Y-100999999D01*
X88390284Y-101000001D01*
X88396519Y-101047364D01*
X88385369Y-101107524D01*
X88368370Y-101130289D01*
X79782585Y-109716074D01*
X79766736Y-109728945D01*
X79756586Y-109735577D01*
X79756581Y-109735581D01*
X79735652Y-109762469D01*
X79731594Y-109767066D01*
X79728563Y-109770096D01*
X79728559Y-109770101D01*
X79728558Y-109770103D01*
X79715743Y-109788050D01*
X79712546Y-109792158D01*
X79683913Y-109828945D01*
X79680388Y-109835460D01*
X79677115Y-109842154D01*
X79662325Y-109891832D01*
X79645500Y-109940842D01*
X79644277Y-109948171D01*
X79643358Y-109955546D01*
X79645500Y-110007325D01*
X79645500Y-117611240D01*
X79626593Y-117669431D01*
X79606769Y-117689781D01*
X79568869Y-117718863D01*
X79568864Y-117718868D01*
X79471970Y-117845141D01*
X79471968Y-117845145D01*
X79411060Y-117992193D01*
X79411059Y-117992194D01*
X79390284Y-118149999D01*
X79390284Y-118150000D01*
X75010500Y-118150000D01*
X75010500Y-113420000D01*
X76713698Y-113420000D01*
X76750682Y-113570046D01*
X76750682Y-113570047D01*
X76829681Y-113720568D01*
X76829681Y-113720569D01*
X76942399Y-113847800D01*
X76942405Y-113847805D01*
X77082306Y-113944371D01*
X77082309Y-113944373D01*
X77241241Y-114004648D01*
X77241251Y-114004651D01*
X77367648Y-114019999D01*
X77367665Y-114020000D01*
X77609999Y-114020000D01*
X77610000Y-114019999D01*
X77610000Y-113620000D01*
X77810000Y-113620000D01*
X77810000Y-114019999D01*
X77810001Y-114020000D01*
X78052335Y-114020000D01*
X78052351Y-114019999D01*
X78178748Y-114004651D01*
X78178758Y-114004648D01*
X78337690Y-113944373D01*
X78337693Y-113944371D01*
X78477594Y-113847805D01*
X78477600Y-113847800D01*
X78590318Y-113720569D01*
X78590318Y-113720568D01*
X78669317Y-113570047D01*
X78669317Y-113570046D01*
X78706302Y-113420000D01*
X78293455Y-113420000D01*
X78313895Y-113348160D01*
X78303546Y-113236479D01*
X78295340Y-113220000D01*
X78706301Y-113220000D01*
X78669317Y-113069953D01*
X78669317Y-113069952D01*
X78590318Y-112919431D01*
X78590318Y-112919430D01*
X78477600Y-112792199D01*
X78477594Y-112792194D01*
X78337693Y-112695628D01*
X78337690Y-112695626D01*
X78178758Y-112635351D01*
X78178748Y-112635348D01*
X78052351Y-112620000D01*
X77810001Y-112620000D01*
X77810000Y-112620001D01*
X77810000Y-113020000D01*
X77610000Y-113020000D01*
X77610000Y-112620001D01*
X77609999Y-112620000D01*
X77367648Y-112620000D01*
X77241251Y-112635348D01*
X77241241Y-112635351D01*
X77082309Y-112695626D01*
X77082306Y-112695628D01*
X76942405Y-112792194D01*
X76942399Y-112792199D01*
X76829681Y-112919430D01*
X76829681Y-112919431D01*
X76750682Y-113069952D01*
X76750682Y-113069953D01*
X76713698Y-113220000D01*
X77126545Y-113220000D01*
X77106105Y-113291840D01*
X77116454Y-113403521D01*
X77124660Y-113420000D01*
X76713698Y-113420000D01*
X75010500Y-113420000D01*
X75010500Y-104780000D01*
X76713698Y-104780000D01*
X76750682Y-104930046D01*
X76750682Y-104930047D01*
X76829681Y-105080568D01*
X76829681Y-105080569D01*
X76942399Y-105207800D01*
X76942405Y-105207805D01*
X77082306Y-105304371D01*
X77082309Y-105304373D01*
X77241241Y-105364648D01*
X77241251Y-105364651D01*
X77367648Y-105379999D01*
X77367665Y-105380000D01*
X77609999Y-105380000D01*
X77610000Y-105379999D01*
X77610000Y-104980000D01*
X77810000Y-104980000D01*
X77810000Y-105379999D01*
X77810001Y-105380000D01*
X78052335Y-105380000D01*
X78052351Y-105379999D01*
X78178748Y-105364651D01*
X78178758Y-105364648D01*
X78337690Y-105304373D01*
X78337693Y-105304371D01*
X78477594Y-105207805D01*
X78477600Y-105207800D01*
X78590318Y-105080569D01*
X78590318Y-105080568D01*
X78669317Y-104930047D01*
X78669317Y-104930046D01*
X78706302Y-104780000D01*
X80643698Y-104780000D01*
X80680682Y-104930046D01*
X80680682Y-104930047D01*
X80759681Y-105080568D01*
X80759681Y-105080569D01*
X80872399Y-105207800D01*
X80872405Y-105207805D01*
X81012306Y-105304371D01*
X81012309Y-105304373D01*
X81171241Y-105364648D01*
X81171251Y-105364651D01*
X81186595Y-105366514D01*
X81242083Y-105392296D01*
X81271818Y-105445770D01*
X81264444Y-105506509D01*
X81222777Y-105551314D01*
X81212549Y-105556256D01*
X81097751Y-105603807D01*
X80976697Y-105696695D01*
X80976695Y-105696697D01*
X80883807Y-105817751D01*
X80825417Y-105958717D01*
X80825415Y-105958723D01*
X80805500Y-106109999D01*
X80805500Y-106110000D01*
X80823074Y-106243496D01*
X80825416Y-106261280D01*
X80852985Y-106327838D01*
X80880072Y-106393232D01*
X80883808Y-106402250D01*
X80976696Y-106523304D01*
X81097750Y-106616192D01*
X81238720Y-106674584D01*
X81352020Y-106689500D01*
X81352021Y-106689500D01*
X81427979Y-106689500D01*
X81427980Y-106689500D01*
X81541280Y-106674584D01*
X81682250Y-106616192D01*
X81803304Y-106523304D01*
X81896192Y-106402250D01*
X81954584Y-106261280D01*
X81974500Y-106110000D01*
X81954584Y-105958720D01*
X81896192Y-105817750D01*
X81803304Y-105696696D01*
X81682250Y-105603808D01*
X81636906Y-105585026D01*
X81601751Y-105570464D01*
X81555226Y-105530727D01*
X81540942Y-105471233D01*
X81564357Y-105414705D01*
X81616526Y-105382735D01*
X81639637Y-105380000D01*
X81789999Y-105380000D01*
X81790000Y-105379999D01*
X81790000Y-104980000D01*
X81990000Y-104980000D01*
X81990000Y-105379999D01*
X81990001Y-105380000D01*
X82482335Y-105380000D01*
X82482351Y-105379999D01*
X82608748Y-105364651D01*
X82608758Y-105364648D01*
X82767690Y-105304373D01*
X82767693Y-105304371D01*
X82907594Y-105207805D01*
X82907600Y-105207800D01*
X83020318Y-105080569D01*
X83020318Y-105080568D01*
X83099317Y-104930047D01*
X83099317Y-104930046D01*
X83136302Y-104780000D01*
X82723455Y-104780000D01*
X82743895Y-104708160D01*
X82733546Y-104596479D01*
X82725340Y-104580000D01*
X83136301Y-104580000D01*
X83099317Y-104429953D01*
X83099317Y-104429952D01*
X83020318Y-104279431D01*
X83020318Y-104279430D01*
X82907600Y-104152199D01*
X82907594Y-104152194D01*
X82767693Y-104055628D01*
X82767690Y-104055626D01*
X82608758Y-103995351D01*
X82608748Y-103995348D01*
X82482351Y-103980000D01*
X81990001Y-103980000D01*
X81990000Y-103980001D01*
X81990000Y-104380000D01*
X81790000Y-104380000D01*
X81790000Y-103980001D01*
X81789999Y-103980000D01*
X81297648Y-103980000D01*
X81171251Y-103995348D01*
X81171241Y-103995351D01*
X81012309Y-104055626D01*
X81012306Y-104055628D01*
X80872405Y-104152194D01*
X80872399Y-104152199D01*
X80759681Y-104279430D01*
X80759681Y-104279431D01*
X80680682Y-104429952D01*
X80680682Y-104429953D01*
X80643698Y-104580000D01*
X81056545Y-104580000D01*
X81036105Y-104651840D01*
X81046454Y-104763521D01*
X81054660Y-104780000D01*
X80643698Y-104780000D01*
X78706302Y-104780000D01*
X78293455Y-104780000D01*
X78313895Y-104708160D01*
X78303546Y-104596479D01*
X78295340Y-104580000D01*
X78706301Y-104580000D01*
X78669317Y-104429953D01*
X78669317Y-104429952D01*
X78590318Y-104279431D01*
X78590318Y-104279430D01*
X78477600Y-104152199D01*
X78477594Y-104152194D01*
X78337693Y-104055628D01*
X78337690Y-104055626D01*
X78178758Y-103995351D01*
X78178748Y-103995348D01*
X78052351Y-103980000D01*
X77810001Y-103980000D01*
X77810000Y-103980001D01*
X77810000Y-104380000D01*
X77610000Y-104380000D01*
X77610000Y-103980001D01*
X77609999Y-103980000D01*
X77367648Y-103980000D01*
X77241251Y-103995348D01*
X77241241Y-103995351D01*
X77082309Y-104055626D01*
X77082306Y-104055628D01*
X76942405Y-104152194D01*
X76942399Y-104152199D01*
X76829681Y-104279430D01*
X76829681Y-104279431D01*
X76750682Y-104429952D01*
X76750682Y-104429953D01*
X76713698Y-104580000D01*
X77126545Y-104580000D01*
X77106105Y-104651840D01*
X77116454Y-104763521D01*
X77124660Y-104780000D01*
X76713698Y-104780000D01*
X75010500Y-104780000D01*
X75010500Y-100000000D01*
X76540426Y-100000000D01*
X76560705Y-100374044D01*
X76621310Y-100743712D01*
X76721519Y-101104633D01*
X76721521Y-101104638D01*
X76721522Y-101104642D01*
X76721524Y-101104647D01*
X76851609Y-101431135D01*
X76860178Y-101452641D01*
X77023129Y-101760002D01*
X77035639Y-101783597D01*
X77245857Y-102093645D01*
X77245861Y-102093650D01*
X77245862Y-102093651D01*
X77488360Y-102379142D01*
X77488370Y-102379152D01*
X77760315Y-102636753D01*
X77760319Y-102636756D01*
X78058532Y-102863451D01*
X78379506Y-103056575D01*
X78719480Y-103213864D01*
X79074466Y-103333473D01*
X79074471Y-103333474D01*
X79074474Y-103333475D01*
X79440298Y-103413998D01*
X79440299Y-103413998D01*
X79440303Y-103413999D01*
X79812702Y-103454500D01*
X80187298Y-103454500D01*
X80559697Y-103413999D01*
X80573050Y-103411060D01*
X80790872Y-103363114D01*
X80925525Y-103333475D01*
X80925526Y-103333475D01*
X80925528Y-103333474D01*
X80925534Y-103333473D01*
X81280520Y-103213864D01*
X81620494Y-103056575D01*
X81941468Y-102863451D01*
X82239681Y-102636756D01*
X82511635Y-102379147D01*
X82754143Y-102093645D01*
X82964361Y-101783597D01*
X83139824Y-101452637D01*
X83278476Y-101104647D01*
X83290873Y-101059999D01*
X83330386Y-100917685D01*
X83378691Y-100743706D01*
X83439294Y-100374046D01*
X83459574Y-100000000D01*
X83439294Y-99625954D01*
X83378691Y-99256294D01*
X83278476Y-98895353D01*
X83139824Y-98547363D01*
X82964361Y-98216403D01*
X82754143Y-97906355D01*
X82734140Y-97882805D01*
X82511639Y-97620857D01*
X82511629Y-97620847D01*
X82239684Y-97363246D01*
X81941472Y-97136552D01*
X81941471Y-97136551D01*
X81941468Y-97136549D01*
X81620494Y-96943425D01*
X81457654Y-96868087D01*
X81280525Y-96786138D01*
X81280522Y-96786137D01*
X81280520Y-96786136D01*
X80925534Y-96666527D01*
X80925533Y-96666526D01*
X80925525Y-96666524D01*
X80559701Y-96586001D01*
X80559702Y-96586001D01*
X80187298Y-96545500D01*
X79812702Y-96545500D01*
X79440297Y-96586001D01*
X79074475Y-96666524D01*
X79074473Y-96666524D01*
X78719474Y-96786138D01*
X78379514Y-96943421D01*
X78379508Y-96943424D01*
X78379506Y-96943425D01*
X78058532Y-97136549D01*
X78058527Y-97136552D01*
X77760315Y-97363246D01*
X77488370Y-97620847D01*
X77488360Y-97620857D01*
X77245862Y-97906348D01*
X77245855Y-97906358D01*
X77035636Y-98216407D01*
X76860178Y-98547358D01*
X76860176Y-98547362D01*
X76860176Y-98547363D01*
X76742705Y-98842194D01*
X76721521Y-98895361D01*
X76721519Y-98895366D01*
X76621310Y-99256287D01*
X76560705Y-99625955D01*
X76540426Y-100000000D01*
X75010500Y-100000000D01*
X75010500Y-98000000D01*
X75027458Y-97589996D01*
X75027792Y-97585956D01*
X75078299Y-97180762D01*
X75078966Y-97176767D01*
X75162760Y-96777135D01*
X75163756Y-96773202D01*
X75280259Y-96381878D01*
X75281587Y-96378012D01*
X75359988Y-96177086D01*
X75430014Y-95997623D01*
X75431650Y-95993897D01*
X75610967Y-95627098D01*
X75612905Y-95623514D01*
X75821919Y-95272745D01*
X75824146Y-95269338D01*
X76061394Y-94937051D01*
X76063908Y-94933821D01*
X76327789Y-94622258D01*
X76330537Y-94619272D01*
X76619272Y-94330537D01*
X76622258Y-94327789D01*
X76933828Y-94063902D01*
X76937051Y-94061394D01*
X77269338Y-93824146D01*
X77272745Y-93821919D01*
X77623514Y-93612905D01*
X77627089Y-93610971D01*
X77993906Y-93431645D01*
X77997623Y-93430014D01*
X78258367Y-93328272D01*
X78378012Y-93281587D01*
X78381878Y-93280259D01*
X78469693Y-93254116D01*
X78497941Y-93250000D01*
X121502059Y-93250000D01*
X121530306Y-93254115D01*
G37*
G04 #@! TD.AperFunction*
M02*
