G04 #@! TF.GenerationSoftware,KiCad,Pcbnew,7.0.8*
G04 #@! TF.CreationDate,2024-03-06T12:11:14-08:00*
G04 #@! TF.ProjectId,IotDisplay,496f7444-6973-4706-9c61-792e6b696361,rev?*
G04 #@! TF.SameCoordinates,Original*
G04 #@! TF.FileFunction,Soldermask,Bot*
G04 #@! TF.FilePolarity,Negative*
%FSLAX46Y46*%
G04 Gerber Fmt 4.6, Leading zero omitted, Abs format (unit mm)*
G04 Created by KiCad (PCBNEW 7.0.8) date 2024-03-06 12:11:14*
%MOMM*%
%LPD*%
G01*
G04 APERTURE LIST*
G04 Aperture macros list*
%AMRoundRect*
0 Rectangle with rounded corners*
0 $1 Rounding radius*
0 $2 $3 $4 $5 $6 $7 $8 $9 X,Y pos of 4 corners*
0 Add a 4 corners polygon primitive as box body*
4,1,4,$2,$3,$4,$5,$6,$7,$8,$9,$2,$3,0*
0 Add four circle primitives for the rounded corners*
1,1,$1+$1,$2,$3*
1,1,$1+$1,$4,$5*
1,1,$1+$1,$6,$7*
1,1,$1+$1,$8,$9*
0 Add four rect primitives between the rounded corners*
20,1,$1+$1,$2,$3,$4,$5,0*
20,1,$1+$1,$4,$5,$6,$7,0*
20,1,$1+$1,$6,$7,$8,$9,0*
20,1,$1+$1,$8,$9,$2,$3,0*%
G04 Aperture macros list end*
%ADD10C,0.650000*%
%ADD11RoundRect,0.250000X-0.350000X-0.625000X0.350000X-0.625000X0.350000X0.625000X-0.350000X0.625000X0*%
%ADD12O,1.200000X1.750000*%
%ADD13C,2.374900*%
%ADD14C,0.990600*%
%ADD15C,1.152000*%
%ADD16O,1.600000X1.000000*%
%ADD17O,2.100000X1.000000*%
%ADD18C,0.650000*%
%ADD19C,0.800000*%
%ADD20C,6.400000*%
G04 APERTURE END LIST*
D10*
X77325000Y-147000000D02*
G75*
G03*
X77325000Y-147000000I-325000J0D01*
G01*
X123325000Y-103000000D02*
G75*
G03*
X123325000Y-103000000I-325000J0D01*
G01*
X123325000Y-147000000D02*
G75*
G03*
X123325000Y-147000000I-325000J0D01*
G01*
D11*
X86000000Y-150000000D03*
D12*
X88000000Y-150000000D03*
D13*
X117460000Y-111540000D03*
D14*
X120000000Y-111540000D03*
D13*
X122540000Y-111540000D03*
X117460000Y-108365000D03*
X122540000Y-108365000D03*
D14*
X118984000Y-106460000D03*
X121016000Y-106460000D03*
D15*
X77000000Y-147000000D03*
X123000000Y-103000000D03*
D16*
X77710000Y-113320000D03*
D17*
X81890000Y-113320000D03*
D16*
X77710000Y-104680000D03*
D17*
X81890000Y-104680000D03*
D18*
X81390000Y-111890000D03*
X81390000Y-106110000D03*
D19*
X77600000Y-150000000D03*
X78302944Y-148302944D03*
X78302944Y-151697056D03*
X80000000Y-147600000D03*
D20*
X80000000Y-150000000D03*
D19*
X80000000Y-152400000D03*
X81697056Y-148302944D03*
X81697056Y-151697056D03*
X82400000Y-150000000D03*
X77600000Y-100000000D03*
X78302944Y-98302944D03*
X78302944Y-101697056D03*
X80000000Y-97600000D03*
D20*
X80000000Y-100000000D03*
D19*
X80000000Y-102400000D03*
X81697056Y-98302944D03*
X81697056Y-101697056D03*
X82400000Y-100000000D03*
X117600000Y-100000000D03*
X118302944Y-98302944D03*
X118302944Y-101697056D03*
X120000000Y-97600000D03*
D20*
X120000000Y-100000000D03*
D19*
X120000000Y-102400000D03*
X121697056Y-98302944D03*
X121697056Y-101697056D03*
X122400000Y-100000000D03*
X117600000Y-150000000D03*
X118302944Y-148302944D03*
X118302944Y-151697056D03*
X120000000Y-147600000D03*
D20*
X120000000Y-150000000D03*
D19*
X120000000Y-152400000D03*
X121697056Y-148302944D03*
X121697056Y-151697056D03*
X122400000Y-150000000D03*
D15*
X123000000Y-147000000D03*
M02*
