G04 #@! TF.GenerationSoftware,KiCad,Pcbnew,7.0.8*
G04 #@! TF.CreationDate,2024-06-10T03:18:03-07:00*
G04 #@! TF.ProjectId,IotDisplay,496f7444-6973-4706-9c61-792e6b696361,rev?*
G04 #@! TF.SameCoordinates,Original*
G04 #@! TF.FileFunction,Legend,Top*
G04 #@! TF.FilePolarity,Positive*
%FSLAX46Y46*%
G04 Gerber Fmt 4.6, Leading zero omitted, Abs format (unit mm)*
G04 Created by KiCad (PCBNEW 7.0.8) date 2024-06-10 03:18:03*
%MOMM*%
%LPD*%
G01*
G04 APERTURE LIST*
%ADD10C,0.150000*%
%ADD11C,0.120000*%
G04 APERTURE END LIST*
D10*
X77009523Y-123149819D02*
X77199999Y-124149819D01*
X77199999Y-124149819D02*
X77352380Y-123435533D01*
X77352380Y-123435533D02*
X77504761Y-124149819D01*
X77504761Y-124149819D02*
X77695238Y-123149819D01*
X78000000Y-124149819D02*
X78000000Y-123483152D01*
X78000000Y-123149819D02*
X77961904Y-123197438D01*
X77961904Y-123197438D02*
X78000000Y-123245057D01*
X78000000Y-123245057D02*
X78038095Y-123197438D01*
X78038095Y-123197438D02*
X78000000Y-123149819D01*
X78000000Y-123149819D02*
X78000000Y-123245057D01*
X78266666Y-123483152D02*
X78571428Y-123483152D01*
X78380952Y-124149819D02*
X78380952Y-123292676D01*
X78380952Y-123292676D02*
X78419047Y-123197438D01*
X78419047Y-123197438D02*
X78495237Y-123149819D01*
X78495237Y-123149819D02*
X78571428Y-123149819D01*
X78838095Y-124149819D02*
X78838095Y-123483152D01*
X78838095Y-123149819D02*
X78799999Y-123197438D01*
X78799999Y-123197438D02*
X78838095Y-123245057D01*
X78838095Y-123245057D02*
X78876190Y-123197438D01*
X78876190Y-123197438D02*
X78838095Y-123149819D01*
X78838095Y-123149819D02*
X78838095Y-123245057D01*
X79828571Y-123626009D02*
X80095237Y-123626009D01*
X80209523Y-124149819D02*
X79828571Y-124149819D01*
X79828571Y-124149819D02*
X79828571Y-123149819D01*
X79828571Y-123149819D02*
X80209523Y-123149819D01*
X80552381Y-123768866D02*
X81161905Y-123768866D01*
X81542857Y-124149819D02*
X81542857Y-123483152D01*
X81542857Y-123149819D02*
X81504761Y-123197438D01*
X81504761Y-123197438D02*
X81542857Y-123245057D01*
X81542857Y-123245057D02*
X81580952Y-123197438D01*
X81580952Y-123197438D02*
X81542857Y-123149819D01*
X81542857Y-123149819D02*
X81542857Y-123245057D01*
X81923809Y-123483152D02*
X81923809Y-124149819D01*
X81923809Y-123578390D02*
X81961904Y-123530771D01*
X81961904Y-123530771D02*
X82038094Y-123483152D01*
X82038094Y-123483152D02*
X82152380Y-123483152D01*
X82152380Y-123483152D02*
X82228571Y-123530771D01*
X82228571Y-123530771D02*
X82266666Y-123626009D01*
X82266666Y-123626009D02*
X82266666Y-124149819D01*
X82647619Y-124149819D02*
X82647619Y-123149819D01*
X82723809Y-123768866D02*
X82952381Y-124149819D01*
X82952381Y-123483152D02*
X82647619Y-123864104D01*
X76647619Y-125759819D02*
X76647619Y-124759819D01*
X76647619Y-124759819D02*
X76838095Y-124759819D01*
X76838095Y-124759819D02*
X76952381Y-124807438D01*
X76952381Y-124807438D02*
X77028571Y-124902676D01*
X77028571Y-124902676D02*
X77066666Y-124997914D01*
X77066666Y-124997914D02*
X77104762Y-125188390D01*
X77104762Y-125188390D02*
X77104762Y-125331247D01*
X77104762Y-125331247D02*
X77066666Y-125521723D01*
X77066666Y-125521723D02*
X77028571Y-125616961D01*
X77028571Y-125616961D02*
X76952381Y-125712200D01*
X76952381Y-125712200D02*
X76838095Y-125759819D01*
X76838095Y-125759819D02*
X76647619Y-125759819D01*
X77447619Y-125759819D02*
X77447619Y-125093152D01*
X77447619Y-125283628D02*
X77485714Y-125188390D01*
X77485714Y-125188390D02*
X77523809Y-125140771D01*
X77523809Y-125140771D02*
X77600000Y-125093152D01*
X77600000Y-125093152D02*
X77676190Y-125093152D01*
X77942857Y-125759819D02*
X77942857Y-125093152D01*
X77942857Y-124759819D02*
X77904761Y-124807438D01*
X77904761Y-124807438D02*
X77942857Y-124855057D01*
X77942857Y-124855057D02*
X77980952Y-124807438D01*
X77980952Y-124807438D02*
X77942857Y-124759819D01*
X77942857Y-124759819D02*
X77942857Y-124855057D01*
X78247618Y-125093152D02*
X78438094Y-125759819D01*
X78438094Y-125759819D02*
X78628571Y-125093152D01*
X79238095Y-125712200D02*
X79161904Y-125759819D01*
X79161904Y-125759819D02*
X79009523Y-125759819D01*
X79009523Y-125759819D02*
X78933333Y-125712200D01*
X78933333Y-125712200D02*
X78895237Y-125616961D01*
X78895237Y-125616961D02*
X78895237Y-125236009D01*
X78895237Y-125236009D02*
X78933333Y-125140771D01*
X78933333Y-125140771D02*
X79009523Y-125093152D01*
X79009523Y-125093152D02*
X79161904Y-125093152D01*
X79161904Y-125093152D02*
X79238095Y-125140771D01*
X79238095Y-125140771D02*
X79276190Y-125236009D01*
X79276190Y-125236009D02*
X79276190Y-125331247D01*
X79276190Y-125331247D02*
X78895237Y-125426485D01*
X79619047Y-125759819D02*
X79619047Y-125093152D01*
X79619047Y-125283628D02*
X79657142Y-125188390D01*
X79657142Y-125188390D02*
X79695237Y-125140771D01*
X79695237Y-125140771D02*
X79771428Y-125093152D01*
X79771428Y-125093152D02*
X79847618Y-125093152D01*
X80723809Y-125759819D02*
X80723809Y-125093152D01*
X80723809Y-125283628D02*
X80761904Y-125188390D01*
X80761904Y-125188390D02*
X80799999Y-125140771D01*
X80799999Y-125140771D02*
X80876190Y-125093152D01*
X80876190Y-125093152D02*
X80952380Y-125093152D01*
X81142856Y-125093152D02*
X81333332Y-125759819D01*
X81333332Y-125759819D02*
X81523809Y-125093152D01*
X82247618Y-125759819D02*
X81790475Y-125759819D01*
X82019047Y-125759819D02*
X82019047Y-124759819D01*
X82019047Y-124759819D02*
X81942856Y-124902676D01*
X81942856Y-124902676D02*
X81866666Y-124997914D01*
X81866666Y-124997914D02*
X81790475Y-125045533D01*
X82590476Y-125664580D02*
X82628571Y-125712200D01*
X82628571Y-125712200D02*
X82590476Y-125759819D01*
X82590476Y-125759819D02*
X82552380Y-125712200D01*
X82552380Y-125712200D02*
X82590476Y-125664580D01*
X82590476Y-125664580D02*
X82590476Y-125759819D01*
X83390475Y-125759819D02*
X82933332Y-125759819D01*
X83161904Y-125759819D02*
X83161904Y-124759819D01*
X83161904Y-124759819D02*
X83085713Y-124902676D01*
X83085713Y-124902676D02*
X83009523Y-124997914D01*
X83009523Y-124997914D02*
X82933332Y-125045533D01*
X78133332Y-126369819D02*
X78133332Y-127084104D01*
X78133332Y-127084104D02*
X78095237Y-127226961D01*
X78095237Y-127226961D02*
X78019046Y-127322200D01*
X78019046Y-127322200D02*
X77904761Y-127369819D01*
X77904761Y-127369819D02*
X77828570Y-127369819D01*
X78857142Y-126703152D02*
X78857142Y-127369819D01*
X78514285Y-126703152D02*
X78514285Y-127226961D01*
X78514285Y-127226961D02*
X78552380Y-127322200D01*
X78552380Y-127322200D02*
X78628570Y-127369819D01*
X78628570Y-127369819D02*
X78742856Y-127369819D01*
X78742856Y-127369819D02*
X78819047Y-127322200D01*
X78819047Y-127322200D02*
X78857142Y-127274580D01*
X79238095Y-126703152D02*
X79238095Y-127369819D01*
X79238095Y-126798390D02*
X79276190Y-126750771D01*
X79276190Y-126750771D02*
X79352380Y-126703152D01*
X79352380Y-126703152D02*
X79466666Y-126703152D01*
X79466666Y-126703152D02*
X79542857Y-126750771D01*
X79542857Y-126750771D02*
X79580952Y-126846009D01*
X79580952Y-126846009D02*
X79580952Y-127369819D01*
X80609524Y-126369819D02*
X80533333Y-126560295D01*
X80914285Y-126465057D02*
X80952381Y-126417438D01*
X80952381Y-126417438D02*
X81028571Y-126369819D01*
X81028571Y-126369819D02*
X81219047Y-126369819D01*
X81219047Y-126369819D02*
X81295238Y-126417438D01*
X81295238Y-126417438D02*
X81333333Y-126465057D01*
X81333333Y-126465057D02*
X81371428Y-126560295D01*
X81371428Y-126560295D02*
X81371428Y-126655533D01*
X81371428Y-126655533D02*
X81333333Y-126798390D01*
X81333333Y-126798390D02*
X80876190Y-127369819D01*
X80876190Y-127369819D02*
X81371428Y-127369819D01*
X82057143Y-126703152D02*
X82057143Y-127369819D01*
X81866667Y-126322200D02*
X81676190Y-127036485D01*
X81676190Y-127036485D02*
X82171429Y-127036485D01*
X118914285Y-123346009D02*
X119028571Y-123393628D01*
X119028571Y-123393628D02*
X119066666Y-123441247D01*
X119066666Y-123441247D02*
X119104762Y-123536485D01*
X119104762Y-123536485D02*
X119104762Y-123679342D01*
X119104762Y-123679342D02*
X119066666Y-123774580D01*
X119066666Y-123774580D02*
X119028571Y-123822200D01*
X119028571Y-123822200D02*
X118952381Y-123869819D01*
X118952381Y-123869819D02*
X118647619Y-123869819D01*
X118647619Y-123869819D02*
X118647619Y-122869819D01*
X118647619Y-122869819D02*
X118914285Y-122869819D01*
X118914285Y-122869819D02*
X118990476Y-122917438D01*
X118990476Y-122917438D02*
X119028571Y-122965057D01*
X119028571Y-122965057D02*
X119066666Y-123060295D01*
X119066666Y-123060295D02*
X119066666Y-123155533D01*
X119066666Y-123155533D02*
X119028571Y-123250771D01*
X119028571Y-123250771D02*
X118990476Y-123298390D01*
X118990476Y-123298390D02*
X118914285Y-123346009D01*
X118914285Y-123346009D02*
X118647619Y-123346009D01*
X119600000Y-122869819D02*
X119752381Y-122869819D01*
X119752381Y-122869819D02*
X119828571Y-122917438D01*
X119828571Y-122917438D02*
X119904762Y-123012676D01*
X119904762Y-123012676D02*
X119942857Y-123203152D01*
X119942857Y-123203152D02*
X119942857Y-123536485D01*
X119942857Y-123536485D02*
X119904762Y-123726961D01*
X119904762Y-123726961D02*
X119828571Y-123822200D01*
X119828571Y-123822200D02*
X119752381Y-123869819D01*
X119752381Y-123869819D02*
X119600000Y-123869819D01*
X119600000Y-123869819D02*
X119523809Y-123822200D01*
X119523809Y-123822200D02*
X119447619Y-123726961D01*
X119447619Y-123726961D02*
X119409523Y-123536485D01*
X119409523Y-123536485D02*
X119409523Y-123203152D01*
X119409523Y-123203152D02*
X119447619Y-123012676D01*
X119447619Y-123012676D02*
X119523809Y-122917438D01*
X119523809Y-122917438D02*
X119600000Y-122869819D01*
X120438095Y-122869819D02*
X120590476Y-122869819D01*
X120590476Y-122869819D02*
X120666666Y-122917438D01*
X120666666Y-122917438D02*
X120742857Y-123012676D01*
X120742857Y-123012676D02*
X120780952Y-123203152D01*
X120780952Y-123203152D02*
X120780952Y-123536485D01*
X120780952Y-123536485D02*
X120742857Y-123726961D01*
X120742857Y-123726961D02*
X120666666Y-123822200D01*
X120666666Y-123822200D02*
X120590476Y-123869819D01*
X120590476Y-123869819D02*
X120438095Y-123869819D01*
X120438095Y-123869819D02*
X120361904Y-123822200D01*
X120361904Y-123822200D02*
X120285714Y-123726961D01*
X120285714Y-123726961D02*
X120247618Y-123536485D01*
X120247618Y-123536485D02*
X120247618Y-123203152D01*
X120247618Y-123203152D02*
X120285714Y-123012676D01*
X120285714Y-123012676D02*
X120361904Y-122917438D01*
X120361904Y-122917438D02*
X120438095Y-122869819D01*
X121009523Y-122869819D02*
X121466666Y-122869819D01*
X121238094Y-123869819D02*
X121238094Y-122869819D01*
X96866667Y-151359580D02*
X96828571Y-151407200D01*
X96828571Y-151407200D02*
X96714286Y-151454819D01*
X96714286Y-151454819D02*
X96638095Y-151454819D01*
X96638095Y-151454819D02*
X96523809Y-151407200D01*
X96523809Y-151407200D02*
X96447619Y-151311961D01*
X96447619Y-151311961D02*
X96409524Y-151216723D01*
X96409524Y-151216723D02*
X96371428Y-151026247D01*
X96371428Y-151026247D02*
X96371428Y-150883390D01*
X96371428Y-150883390D02*
X96409524Y-150692914D01*
X96409524Y-150692914D02*
X96447619Y-150597676D01*
X96447619Y-150597676D02*
X96523809Y-150502438D01*
X96523809Y-150502438D02*
X96638095Y-150454819D01*
X96638095Y-150454819D02*
X96714286Y-150454819D01*
X96714286Y-150454819D02*
X96828571Y-150502438D01*
X96828571Y-150502438D02*
X96866667Y-150550057D01*
X97133333Y-150454819D02*
X97628571Y-150454819D01*
X97628571Y-150454819D02*
X97361905Y-150835771D01*
X97361905Y-150835771D02*
X97476190Y-150835771D01*
X97476190Y-150835771D02*
X97552381Y-150883390D01*
X97552381Y-150883390D02*
X97590476Y-150931009D01*
X97590476Y-150931009D02*
X97628571Y-151026247D01*
X97628571Y-151026247D02*
X97628571Y-151264342D01*
X97628571Y-151264342D02*
X97590476Y-151359580D01*
X97590476Y-151359580D02*
X97552381Y-151407200D01*
X97552381Y-151407200D02*
X97476190Y-151454819D01*
X97476190Y-151454819D02*
X97247619Y-151454819D01*
X97247619Y-151454819D02*
X97171428Y-151407200D01*
X97171428Y-151407200D02*
X97133333Y-151359580D01*
X102866667Y-153454819D02*
X102600000Y-152978628D01*
X102409524Y-153454819D02*
X102409524Y-152454819D01*
X102409524Y-152454819D02*
X102714286Y-152454819D01*
X102714286Y-152454819D02*
X102790476Y-152502438D01*
X102790476Y-152502438D02*
X102828571Y-152550057D01*
X102828571Y-152550057D02*
X102866667Y-152645295D01*
X102866667Y-152645295D02*
X102866667Y-152788152D01*
X102866667Y-152788152D02*
X102828571Y-152883390D01*
X102828571Y-152883390D02*
X102790476Y-152931009D01*
X102790476Y-152931009D02*
X102714286Y-152978628D01*
X102714286Y-152978628D02*
X102409524Y-152978628D01*
X103171428Y-152550057D02*
X103209524Y-152502438D01*
X103209524Y-152502438D02*
X103285714Y-152454819D01*
X103285714Y-152454819D02*
X103476190Y-152454819D01*
X103476190Y-152454819D02*
X103552381Y-152502438D01*
X103552381Y-152502438D02*
X103590476Y-152550057D01*
X103590476Y-152550057D02*
X103628571Y-152645295D01*
X103628571Y-152645295D02*
X103628571Y-152740533D01*
X103628571Y-152740533D02*
X103590476Y-152883390D01*
X103590476Y-152883390D02*
X103133333Y-153454819D01*
X103133333Y-153454819D02*
X103628571Y-153454819D01*
X102866667Y-147359580D02*
X102828571Y-147407200D01*
X102828571Y-147407200D02*
X102714286Y-147454819D01*
X102714286Y-147454819D02*
X102638095Y-147454819D01*
X102638095Y-147454819D02*
X102523809Y-147407200D01*
X102523809Y-147407200D02*
X102447619Y-147311961D01*
X102447619Y-147311961D02*
X102409524Y-147216723D01*
X102409524Y-147216723D02*
X102371428Y-147026247D01*
X102371428Y-147026247D02*
X102371428Y-146883390D01*
X102371428Y-146883390D02*
X102409524Y-146692914D01*
X102409524Y-146692914D02*
X102447619Y-146597676D01*
X102447619Y-146597676D02*
X102523809Y-146502438D01*
X102523809Y-146502438D02*
X102638095Y-146454819D01*
X102638095Y-146454819D02*
X102714286Y-146454819D01*
X102714286Y-146454819D02*
X102828571Y-146502438D01*
X102828571Y-146502438D02*
X102866667Y-146550057D01*
X103552381Y-146788152D02*
X103552381Y-147454819D01*
X103361905Y-146407200D02*
X103171428Y-147121485D01*
X103171428Y-147121485D02*
X103666667Y-147121485D01*
X96366667Y-149454819D02*
X96100000Y-148978628D01*
X95909524Y-149454819D02*
X95909524Y-148454819D01*
X95909524Y-148454819D02*
X96214286Y-148454819D01*
X96214286Y-148454819D02*
X96290476Y-148502438D01*
X96290476Y-148502438D02*
X96328571Y-148550057D01*
X96328571Y-148550057D02*
X96366667Y-148645295D01*
X96366667Y-148645295D02*
X96366667Y-148788152D01*
X96366667Y-148788152D02*
X96328571Y-148883390D01*
X96328571Y-148883390D02*
X96290476Y-148931009D01*
X96290476Y-148931009D02*
X96214286Y-148978628D01*
X96214286Y-148978628D02*
X95909524Y-148978628D01*
X96633333Y-148454819D02*
X97128571Y-148454819D01*
X97128571Y-148454819D02*
X96861905Y-148835771D01*
X96861905Y-148835771D02*
X96976190Y-148835771D01*
X96976190Y-148835771D02*
X97052381Y-148883390D01*
X97052381Y-148883390D02*
X97090476Y-148931009D01*
X97090476Y-148931009D02*
X97128571Y-149026247D01*
X97128571Y-149026247D02*
X97128571Y-149264342D01*
X97128571Y-149264342D02*
X97090476Y-149359580D01*
X97090476Y-149359580D02*
X97052381Y-149407200D01*
X97052381Y-149407200D02*
X96976190Y-149454819D01*
X96976190Y-149454819D02*
X96747619Y-149454819D01*
X96747619Y-149454819D02*
X96671428Y-149407200D01*
X96671428Y-149407200D02*
X96633333Y-149359580D01*
X102866667Y-151454819D02*
X102600000Y-150978628D01*
X102409524Y-151454819D02*
X102409524Y-150454819D01*
X102409524Y-150454819D02*
X102714286Y-150454819D01*
X102714286Y-150454819D02*
X102790476Y-150502438D01*
X102790476Y-150502438D02*
X102828571Y-150550057D01*
X102828571Y-150550057D02*
X102866667Y-150645295D01*
X102866667Y-150645295D02*
X102866667Y-150788152D01*
X102866667Y-150788152D02*
X102828571Y-150883390D01*
X102828571Y-150883390D02*
X102790476Y-150931009D01*
X102790476Y-150931009D02*
X102714286Y-150978628D01*
X102714286Y-150978628D02*
X102409524Y-150978628D01*
X103628571Y-151454819D02*
X103171428Y-151454819D01*
X103400000Y-151454819D02*
X103400000Y-150454819D01*
X103400000Y-150454819D02*
X103323809Y-150597676D01*
X103323809Y-150597676D02*
X103247619Y-150692914D01*
X103247619Y-150692914D02*
X103171428Y-150740533D01*
X99866666Y-144954819D02*
X99485714Y-144954819D01*
X99485714Y-144954819D02*
X99485714Y-143954819D01*
X100552380Y-144954819D02*
X100095237Y-144954819D01*
X100323809Y-144954819D02*
X100323809Y-143954819D01*
X100323809Y-143954819D02*
X100247618Y-144097676D01*
X100247618Y-144097676D02*
X100171428Y-144192914D01*
X100171428Y-144192914D02*
X100095237Y-144240533D01*
X102866667Y-149359580D02*
X102828571Y-149407200D01*
X102828571Y-149407200D02*
X102714286Y-149454819D01*
X102714286Y-149454819D02*
X102638095Y-149454819D01*
X102638095Y-149454819D02*
X102523809Y-149407200D01*
X102523809Y-149407200D02*
X102447619Y-149311961D01*
X102447619Y-149311961D02*
X102409524Y-149216723D01*
X102409524Y-149216723D02*
X102371428Y-149026247D01*
X102371428Y-149026247D02*
X102371428Y-148883390D01*
X102371428Y-148883390D02*
X102409524Y-148692914D01*
X102409524Y-148692914D02*
X102447619Y-148597676D01*
X102447619Y-148597676D02*
X102523809Y-148502438D01*
X102523809Y-148502438D02*
X102638095Y-148454819D01*
X102638095Y-148454819D02*
X102714286Y-148454819D01*
X102714286Y-148454819D02*
X102828571Y-148502438D01*
X102828571Y-148502438D02*
X102866667Y-148550057D01*
X103171428Y-148550057D02*
X103209524Y-148502438D01*
X103209524Y-148502438D02*
X103285714Y-148454819D01*
X103285714Y-148454819D02*
X103476190Y-148454819D01*
X103476190Y-148454819D02*
X103552381Y-148502438D01*
X103552381Y-148502438D02*
X103590476Y-148550057D01*
X103590476Y-148550057D02*
X103628571Y-148645295D01*
X103628571Y-148645295D02*
X103628571Y-148740533D01*
X103628571Y-148740533D02*
X103590476Y-148883390D01*
X103590476Y-148883390D02*
X103133333Y-149454819D01*
X103133333Y-149454819D02*
X103628571Y-149454819D01*
X96366667Y-153359580D02*
X96328571Y-153407200D01*
X96328571Y-153407200D02*
X96214286Y-153454819D01*
X96214286Y-153454819D02*
X96138095Y-153454819D01*
X96138095Y-153454819D02*
X96023809Y-153407200D01*
X96023809Y-153407200D02*
X95947619Y-153311961D01*
X95947619Y-153311961D02*
X95909524Y-153216723D01*
X95909524Y-153216723D02*
X95871428Y-153026247D01*
X95871428Y-153026247D02*
X95871428Y-152883390D01*
X95871428Y-152883390D02*
X95909524Y-152692914D01*
X95909524Y-152692914D02*
X95947619Y-152597676D01*
X95947619Y-152597676D02*
X96023809Y-152502438D01*
X96023809Y-152502438D02*
X96138095Y-152454819D01*
X96138095Y-152454819D02*
X96214286Y-152454819D01*
X96214286Y-152454819D02*
X96328571Y-152502438D01*
X96328571Y-152502438D02*
X96366667Y-152550057D01*
X97128571Y-153454819D02*
X96671428Y-153454819D01*
X96900000Y-153454819D02*
X96900000Y-152454819D01*
X96900000Y-152454819D02*
X96823809Y-152597676D01*
X96823809Y-152597676D02*
X96747619Y-152692914D01*
X96747619Y-152692914D02*
X96671428Y-152740533D01*
X99390476Y-149454819D02*
X99390476Y-150264342D01*
X99390476Y-150264342D02*
X99428571Y-150359580D01*
X99428571Y-150359580D02*
X99466666Y-150407200D01*
X99466666Y-150407200D02*
X99542857Y-150454819D01*
X99542857Y-150454819D02*
X99695238Y-150454819D01*
X99695238Y-150454819D02*
X99771428Y-150407200D01*
X99771428Y-150407200D02*
X99809523Y-150359580D01*
X99809523Y-150359580D02*
X99847619Y-150264342D01*
X99847619Y-150264342D02*
X99847619Y-149454819D01*
X100647618Y-150454819D02*
X100190475Y-150454819D01*
X100419047Y-150454819D02*
X100419047Y-149454819D01*
X100419047Y-149454819D02*
X100342856Y-149597676D01*
X100342856Y-149597676D02*
X100266666Y-149692914D01*
X100266666Y-149692914D02*
X100190475Y-149740533D01*
X89485714Y-140359580D02*
X89447618Y-140407200D01*
X89447618Y-140407200D02*
X89333333Y-140454819D01*
X89333333Y-140454819D02*
X89257142Y-140454819D01*
X89257142Y-140454819D02*
X89142856Y-140407200D01*
X89142856Y-140407200D02*
X89066666Y-140311961D01*
X89066666Y-140311961D02*
X89028571Y-140216723D01*
X89028571Y-140216723D02*
X88990475Y-140026247D01*
X88990475Y-140026247D02*
X88990475Y-139883390D01*
X88990475Y-139883390D02*
X89028571Y-139692914D01*
X89028571Y-139692914D02*
X89066666Y-139597676D01*
X89066666Y-139597676D02*
X89142856Y-139502438D01*
X89142856Y-139502438D02*
X89257142Y-139454819D01*
X89257142Y-139454819D02*
X89333333Y-139454819D01*
X89333333Y-139454819D02*
X89447618Y-139502438D01*
X89447618Y-139502438D02*
X89485714Y-139550057D01*
X90247618Y-140454819D02*
X89790475Y-140454819D01*
X90019047Y-140454819D02*
X90019047Y-139454819D01*
X90019047Y-139454819D02*
X89942856Y-139597676D01*
X89942856Y-139597676D02*
X89866666Y-139692914D01*
X89866666Y-139692914D02*
X89790475Y-139740533D01*
X90628571Y-140454819D02*
X90780952Y-140454819D01*
X90780952Y-140454819D02*
X90857142Y-140407200D01*
X90857142Y-140407200D02*
X90895238Y-140359580D01*
X90895238Y-140359580D02*
X90971428Y-140216723D01*
X90971428Y-140216723D02*
X91009523Y-140026247D01*
X91009523Y-140026247D02*
X91009523Y-139645295D01*
X91009523Y-139645295D02*
X90971428Y-139550057D01*
X90971428Y-139550057D02*
X90933333Y-139502438D01*
X90933333Y-139502438D02*
X90857142Y-139454819D01*
X90857142Y-139454819D02*
X90704761Y-139454819D01*
X90704761Y-139454819D02*
X90628571Y-139502438D01*
X90628571Y-139502438D02*
X90590476Y-139550057D01*
X90590476Y-139550057D02*
X90552380Y-139645295D01*
X90552380Y-139645295D02*
X90552380Y-139883390D01*
X90552380Y-139883390D02*
X90590476Y-139978628D01*
X90590476Y-139978628D02*
X90628571Y-140026247D01*
X90628571Y-140026247D02*
X90704761Y-140073866D01*
X90704761Y-140073866D02*
X90857142Y-140073866D01*
X90857142Y-140073866D02*
X90933333Y-140026247D01*
X90933333Y-140026247D02*
X90971428Y-139978628D01*
X90971428Y-139978628D02*
X91009523Y-139883390D01*
X107485714Y-126859580D02*
X107447618Y-126907200D01*
X107447618Y-126907200D02*
X107333333Y-126954819D01*
X107333333Y-126954819D02*
X107257142Y-126954819D01*
X107257142Y-126954819D02*
X107142856Y-126907200D01*
X107142856Y-126907200D02*
X107066666Y-126811961D01*
X107066666Y-126811961D02*
X107028571Y-126716723D01*
X107028571Y-126716723D02*
X106990475Y-126526247D01*
X106990475Y-126526247D02*
X106990475Y-126383390D01*
X106990475Y-126383390D02*
X107028571Y-126192914D01*
X107028571Y-126192914D02*
X107066666Y-126097676D01*
X107066666Y-126097676D02*
X107142856Y-126002438D01*
X107142856Y-126002438D02*
X107257142Y-125954819D01*
X107257142Y-125954819D02*
X107333333Y-125954819D01*
X107333333Y-125954819D02*
X107447618Y-126002438D01*
X107447618Y-126002438D02*
X107485714Y-126050057D01*
X108247618Y-126954819D02*
X107790475Y-126954819D01*
X108019047Y-126954819D02*
X108019047Y-125954819D01*
X108019047Y-125954819D02*
X107942856Y-126097676D01*
X107942856Y-126097676D02*
X107866666Y-126192914D01*
X107866666Y-126192914D02*
X107790475Y-126240533D01*
X108971428Y-125954819D02*
X108590476Y-125954819D01*
X108590476Y-125954819D02*
X108552380Y-126431009D01*
X108552380Y-126431009D02*
X108590476Y-126383390D01*
X108590476Y-126383390D02*
X108666666Y-126335771D01*
X108666666Y-126335771D02*
X108857142Y-126335771D01*
X108857142Y-126335771D02*
X108933333Y-126383390D01*
X108933333Y-126383390D02*
X108971428Y-126431009D01*
X108971428Y-126431009D02*
X109009523Y-126526247D01*
X109009523Y-126526247D02*
X109009523Y-126764342D01*
X109009523Y-126764342D02*
X108971428Y-126859580D01*
X108971428Y-126859580D02*
X108933333Y-126907200D01*
X108933333Y-126907200D02*
X108857142Y-126954819D01*
X108857142Y-126954819D02*
X108666666Y-126954819D01*
X108666666Y-126954819D02*
X108590476Y-126907200D01*
X108590476Y-126907200D02*
X108552380Y-126859580D01*
X86733333Y-142904819D02*
X86733333Y-143619104D01*
X86733333Y-143619104D02*
X86695238Y-143761961D01*
X86695238Y-143761961D02*
X86619047Y-143857200D01*
X86619047Y-143857200D02*
X86504762Y-143904819D01*
X86504762Y-143904819D02*
X86428571Y-143904819D01*
X87076190Y-143000057D02*
X87114286Y-142952438D01*
X87114286Y-142952438D02*
X87190476Y-142904819D01*
X87190476Y-142904819D02*
X87380952Y-142904819D01*
X87380952Y-142904819D02*
X87457143Y-142952438D01*
X87457143Y-142952438D02*
X87495238Y-143000057D01*
X87495238Y-143000057D02*
X87533333Y-143095295D01*
X87533333Y-143095295D02*
X87533333Y-143190533D01*
X87533333Y-143190533D02*
X87495238Y-143333390D01*
X87495238Y-143333390D02*
X87038095Y-143904819D01*
X87038095Y-143904819D02*
X87533333Y-143904819D01*
X95950476Y-129454819D02*
X95950476Y-130264342D01*
X95950476Y-130264342D02*
X95988571Y-130359580D01*
X95988571Y-130359580D02*
X96026666Y-130407200D01*
X96026666Y-130407200D02*
X96102857Y-130454819D01*
X96102857Y-130454819D02*
X96255238Y-130454819D01*
X96255238Y-130454819D02*
X96331428Y-130407200D01*
X96331428Y-130407200D02*
X96369523Y-130359580D01*
X96369523Y-130359580D02*
X96407619Y-130264342D01*
X96407619Y-130264342D02*
X96407619Y-129454819D01*
X97131428Y-129454819D02*
X96979047Y-129454819D01*
X96979047Y-129454819D02*
X96902856Y-129502438D01*
X96902856Y-129502438D02*
X96864761Y-129550057D01*
X96864761Y-129550057D02*
X96788571Y-129692914D01*
X96788571Y-129692914D02*
X96750475Y-129883390D01*
X96750475Y-129883390D02*
X96750475Y-130264342D01*
X96750475Y-130264342D02*
X96788571Y-130359580D01*
X96788571Y-130359580D02*
X96826666Y-130407200D01*
X96826666Y-130407200D02*
X96902856Y-130454819D01*
X96902856Y-130454819D02*
X97055237Y-130454819D01*
X97055237Y-130454819D02*
X97131428Y-130407200D01*
X97131428Y-130407200D02*
X97169523Y-130359580D01*
X97169523Y-130359580D02*
X97207618Y-130264342D01*
X97207618Y-130264342D02*
X97207618Y-130026247D01*
X97207618Y-130026247D02*
X97169523Y-129931009D01*
X97169523Y-129931009D02*
X97131428Y-129883390D01*
X97131428Y-129883390D02*
X97055237Y-129835771D01*
X97055237Y-129835771D02*
X96902856Y-129835771D01*
X96902856Y-129835771D02*
X96826666Y-129883390D01*
X96826666Y-129883390D02*
X96788571Y-129931009D01*
X96788571Y-129931009D02*
X96750475Y-130026247D01*
X98923809Y-125150057D02*
X98847619Y-125102438D01*
X98847619Y-125102438D02*
X98771428Y-125007200D01*
X98771428Y-125007200D02*
X98657142Y-124864342D01*
X98657142Y-124864342D02*
X98580952Y-124816723D01*
X98580952Y-124816723D02*
X98504761Y-124816723D01*
X98542857Y-125054819D02*
X98466666Y-125007200D01*
X98466666Y-125007200D02*
X98390476Y-124911961D01*
X98390476Y-124911961D02*
X98352380Y-124721485D01*
X98352380Y-124721485D02*
X98352380Y-124388152D01*
X98352380Y-124388152D02*
X98390476Y-124197676D01*
X98390476Y-124197676D02*
X98466666Y-124102438D01*
X98466666Y-124102438D02*
X98542857Y-124054819D01*
X98542857Y-124054819D02*
X98695238Y-124054819D01*
X98695238Y-124054819D02*
X98771428Y-124102438D01*
X98771428Y-124102438D02*
X98847619Y-124197676D01*
X98847619Y-124197676D02*
X98885714Y-124388152D01*
X98885714Y-124388152D02*
X98885714Y-124721485D01*
X98885714Y-124721485D02*
X98847619Y-124911961D01*
X98847619Y-124911961D02*
X98771428Y-125007200D01*
X98771428Y-125007200D02*
X98695238Y-125054819D01*
X98695238Y-125054819D02*
X98542857Y-125054819D01*
X99571428Y-124388152D02*
X99571428Y-125054819D01*
X99380952Y-124007200D02*
X99190475Y-124721485D01*
X99190475Y-124721485D02*
X99685714Y-124721485D01*
X92923809Y-125150057D02*
X92847619Y-125102438D01*
X92847619Y-125102438D02*
X92771428Y-125007200D01*
X92771428Y-125007200D02*
X92657142Y-124864342D01*
X92657142Y-124864342D02*
X92580952Y-124816723D01*
X92580952Y-124816723D02*
X92504761Y-124816723D01*
X92542857Y-125054819D02*
X92466666Y-125007200D01*
X92466666Y-125007200D02*
X92390476Y-124911961D01*
X92390476Y-124911961D02*
X92352380Y-124721485D01*
X92352380Y-124721485D02*
X92352380Y-124388152D01*
X92352380Y-124388152D02*
X92390476Y-124197676D01*
X92390476Y-124197676D02*
X92466666Y-124102438D01*
X92466666Y-124102438D02*
X92542857Y-124054819D01*
X92542857Y-124054819D02*
X92695238Y-124054819D01*
X92695238Y-124054819D02*
X92771428Y-124102438D01*
X92771428Y-124102438D02*
X92847619Y-124197676D01*
X92847619Y-124197676D02*
X92885714Y-124388152D01*
X92885714Y-124388152D02*
X92885714Y-124721485D01*
X92885714Y-124721485D02*
X92847619Y-124911961D01*
X92847619Y-124911961D02*
X92771428Y-125007200D01*
X92771428Y-125007200D02*
X92695238Y-125054819D01*
X92695238Y-125054819D02*
X92542857Y-125054819D01*
X93609523Y-124054819D02*
X93228571Y-124054819D01*
X93228571Y-124054819D02*
X93190475Y-124531009D01*
X93190475Y-124531009D02*
X93228571Y-124483390D01*
X93228571Y-124483390D02*
X93304761Y-124435771D01*
X93304761Y-124435771D02*
X93495237Y-124435771D01*
X93495237Y-124435771D02*
X93571428Y-124483390D01*
X93571428Y-124483390D02*
X93609523Y-124531009D01*
X93609523Y-124531009D02*
X93647618Y-124626247D01*
X93647618Y-124626247D02*
X93647618Y-124864342D01*
X93647618Y-124864342D02*
X93609523Y-124959580D01*
X93609523Y-124959580D02*
X93571428Y-125007200D01*
X93571428Y-125007200D02*
X93495237Y-125054819D01*
X93495237Y-125054819D02*
X93304761Y-125054819D01*
X93304761Y-125054819D02*
X93228571Y-125007200D01*
X93228571Y-125007200D02*
X93190475Y-124959580D01*
X93923809Y-143150057D02*
X93847619Y-143102438D01*
X93847619Y-143102438D02*
X93771428Y-143007200D01*
X93771428Y-143007200D02*
X93657142Y-142864342D01*
X93657142Y-142864342D02*
X93580952Y-142816723D01*
X93580952Y-142816723D02*
X93504761Y-142816723D01*
X93542857Y-143054819D02*
X93466666Y-143007200D01*
X93466666Y-143007200D02*
X93390476Y-142911961D01*
X93390476Y-142911961D02*
X93352380Y-142721485D01*
X93352380Y-142721485D02*
X93352380Y-142388152D01*
X93352380Y-142388152D02*
X93390476Y-142197676D01*
X93390476Y-142197676D02*
X93466666Y-142102438D01*
X93466666Y-142102438D02*
X93542857Y-142054819D01*
X93542857Y-142054819D02*
X93695238Y-142054819D01*
X93695238Y-142054819D02*
X93771428Y-142102438D01*
X93771428Y-142102438D02*
X93847619Y-142197676D01*
X93847619Y-142197676D02*
X93885714Y-142388152D01*
X93885714Y-142388152D02*
X93885714Y-142721485D01*
X93885714Y-142721485D02*
X93847619Y-142911961D01*
X93847619Y-142911961D02*
X93771428Y-143007200D01*
X93771428Y-143007200D02*
X93695238Y-143054819D01*
X93695238Y-143054819D02*
X93542857Y-143054819D01*
X94647618Y-143054819D02*
X94190475Y-143054819D01*
X94419047Y-143054819D02*
X94419047Y-142054819D01*
X94419047Y-142054819D02*
X94342856Y-142197676D01*
X94342856Y-142197676D02*
X94266666Y-142292914D01*
X94266666Y-142292914D02*
X94190475Y-142340533D01*
X102485714Y-125454819D02*
X102219047Y-124978628D01*
X102028571Y-125454819D02*
X102028571Y-124454819D01*
X102028571Y-124454819D02*
X102333333Y-124454819D01*
X102333333Y-124454819D02*
X102409523Y-124502438D01*
X102409523Y-124502438D02*
X102447618Y-124550057D01*
X102447618Y-124550057D02*
X102485714Y-124645295D01*
X102485714Y-124645295D02*
X102485714Y-124788152D01*
X102485714Y-124788152D02*
X102447618Y-124883390D01*
X102447618Y-124883390D02*
X102409523Y-124931009D01*
X102409523Y-124931009D02*
X102333333Y-124978628D01*
X102333333Y-124978628D02*
X102028571Y-124978628D01*
X103247618Y-125454819D02*
X102790475Y-125454819D01*
X103019047Y-125454819D02*
X103019047Y-124454819D01*
X103019047Y-124454819D02*
X102942856Y-124597676D01*
X102942856Y-124597676D02*
X102866666Y-124692914D01*
X102866666Y-124692914D02*
X102790475Y-124740533D01*
X103552380Y-124550057D02*
X103590476Y-124502438D01*
X103590476Y-124502438D02*
X103666666Y-124454819D01*
X103666666Y-124454819D02*
X103857142Y-124454819D01*
X103857142Y-124454819D02*
X103933333Y-124502438D01*
X103933333Y-124502438D02*
X103971428Y-124550057D01*
X103971428Y-124550057D02*
X104009523Y-124645295D01*
X104009523Y-124645295D02*
X104009523Y-124740533D01*
X104009523Y-124740533D02*
X103971428Y-124883390D01*
X103971428Y-124883390D02*
X103514285Y-125454819D01*
X103514285Y-125454819D02*
X104009523Y-125454819D01*
X75990476Y-144454819D02*
X76447619Y-144454819D01*
X76219047Y-145454819D02*
X76219047Y-144454819D01*
X76714286Y-145454819D02*
X76714286Y-144454819D01*
X76714286Y-144454819D02*
X77019048Y-144454819D01*
X77019048Y-144454819D02*
X77095238Y-144502438D01*
X77095238Y-144502438D02*
X77133333Y-144550057D01*
X77133333Y-144550057D02*
X77171429Y-144645295D01*
X77171429Y-144645295D02*
X77171429Y-144788152D01*
X77171429Y-144788152D02*
X77133333Y-144883390D01*
X77133333Y-144883390D02*
X77095238Y-144931009D01*
X77095238Y-144931009D02*
X77019048Y-144978628D01*
X77019048Y-144978628D02*
X76714286Y-144978628D01*
X77476190Y-144550057D02*
X77514286Y-144502438D01*
X77514286Y-144502438D02*
X77590476Y-144454819D01*
X77590476Y-144454819D02*
X77780952Y-144454819D01*
X77780952Y-144454819D02*
X77857143Y-144502438D01*
X77857143Y-144502438D02*
X77895238Y-144550057D01*
X77895238Y-144550057D02*
X77933333Y-144645295D01*
X77933333Y-144645295D02*
X77933333Y-144740533D01*
X77933333Y-144740533D02*
X77895238Y-144883390D01*
X77895238Y-144883390D02*
X77438095Y-145454819D01*
X77438095Y-145454819D02*
X77933333Y-145454819D01*
X82447618Y-144788152D02*
X82447618Y-145597676D01*
X82447618Y-145597676D02*
X82409523Y-145692914D01*
X82409523Y-145692914D02*
X82371427Y-145740533D01*
X82371427Y-145740533D02*
X82295237Y-145788152D01*
X82295237Y-145788152D02*
X82180951Y-145788152D01*
X82180951Y-145788152D02*
X82104761Y-145740533D01*
X82447618Y-145407200D02*
X82371427Y-145454819D01*
X82371427Y-145454819D02*
X82219046Y-145454819D01*
X82219046Y-145454819D02*
X82142856Y-145407200D01*
X82142856Y-145407200D02*
X82104761Y-145359580D01*
X82104761Y-145359580D02*
X82066665Y-145264342D01*
X82066665Y-145264342D02*
X82066665Y-144978628D01*
X82066665Y-144978628D02*
X82104761Y-144883390D01*
X82104761Y-144883390D02*
X82142856Y-144835771D01*
X82142856Y-144835771D02*
X82219046Y-144788152D01*
X82219046Y-144788152D02*
X82371427Y-144788152D01*
X82371427Y-144788152D02*
X82447618Y-144835771D01*
X82828571Y-144788152D02*
X82828571Y-145454819D01*
X82828571Y-144883390D02*
X82866666Y-144835771D01*
X82866666Y-144835771D02*
X82942856Y-144788152D01*
X82942856Y-144788152D02*
X83057142Y-144788152D01*
X83057142Y-144788152D02*
X83133333Y-144835771D01*
X83133333Y-144835771D02*
X83171428Y-144931009D01*
X83171428Y-144931009D02*
X83171428Y-145454819D01*
X83895238Y-145454819D02*
X83895238Y-144454819D01*
X83895238Y-145407200D02*
X83819047Y-145454819D01*
X83819047Y-145454819D02*
X83666666Y-145454819D01*
X83666666Y-145454819D02*
X83590476Y-145407200D01*
X83590476Y-145407200D02*
X83552381Y-145359580D01*
X83552381Y-145359580D02*
X83514285Y-145264342D01*
X83514285Y-145264342D02*
X83514285Y-144978628D01*
X83514285Y-144978628D02*
X83552381Y-144883390D01*
X83552381Y-144883390D02*
X83590476Y-144835771D01*
X83590476Y-144835771D02*
X83666666Y-144788152D01*
X83666666Y-144788152D02*
X83819047Y-144788152D01*
X83819047Y-144788152D02*
X83895238Y-144835771D01*
X116423809Y-148550057D02*
X116347619Y-148502438D01*
X116347619Y-148502438D02*
X116271428Y-148407200D01*
X116271428Y-148407200D02*
X116157142Y-148264342D01*
X116157142Y-148264342D02*
X116080952Y-148216723D01*
X116080952Y-148216723D02*
X116004761Y-148216723D01*
X116042857Y-148454819D02*
X115966666Y-148407200D01*
X115966666Y-148407200D02*
X115890476Y-148311961D01*
X115890476Y-148311961D02*
X115852380Y-148121485D01*
X115852380Y-148121485D02*
X115852380Y-147788152D01*
X115852380Y-147788152D02*
X115890476Y-147597676D01*
X115890476Y-147597676D02*
X115966666Y-147502438D01*
X115966666Y-147502438D02*
X116042857Y-147454819D01*
X116042857Y-147454819D02*
X116195238Y-147454819D01*
X116195238Y-147454819D02*
X116271428Y-147502438D01*
X116271428Y-147502438D02*
X116347619Y-147597676D01*
X116347619Y-147597676D02*
X116385714Y-147788152D01*
X116385714Y-147788152D02*
X116385714Y-148121485D01*
X116385714Y-148121485D02*
X116347619Y-148311961D01*
X116347619Y-148311961D02*
X116271428Y-148407200D01*
X116271428Y-148407200D02*
X116195238Y-148454819D01*
X116195238Y-148454819D02*
X116042857Y-148454819D01*
X116652380Y-147454819D02*
X117147618Y-147454819D01*
X117147618Y-147454819D02*
X116880952Y-147835771D01*
X116880952Y-147835771D02*
X116995237Y-147835771D01*
X116995237Y-147835771D02*
X117071428Y-147883390D01*
X117071428Y-147883390D02*
X117109523Y-147931009D01*
X117109523Y-147931009D02*
X117147618Y-148026247D01*
X117147618Y-148026247D02*
X117147618Y-148264342D01*
X117147618Y-148264342D02*
X117109523Y-148359580D01*
X117109523Y-148359580D02*
X117071428Y-148407200D01*
X117071428Y-148407200D02*
X116995237Y-148454819D01*
X116995237Y-148454819D02*
X116766666Y-148454819D01*
X116766666Y-148454819D02*
X116690475Y-148407200D01*
X116690475Y-148407200D02*
X116652380Y-148359580D01*
X84366667Y-103454819D02*
X84100000Y-102978628D01*
X83909524Y-103454819D02*
X83909524Y-102454819D01*
X83909524Y-102454819D02*
X84214286Y-102454819D01*
X84214286Y-102454819D02*
X84290476Y-102502438D01*
X84290476Y-102502438D02*
X84328571Y-102550057D01*
X84328571Y-102550057D02*
X84366667Y-102645295D01*
X84366667Y-102645295D02*
X84366667Y-102788152D01*
X84366667Y-102788152D02*
X84328571Y-102883390D01*
X84328571Y-102883390D02*
X84290476Y-102931009D01*
X84290476Y-102931009D02*
X84214286Y-102978628D01*
X84214286Y-102978628D02*
X83909524Y-102978628D01*
X84823809Y-102883390D02*
X84747619Y-102835771D01*
X84747619Y-102835771D02*
X84709524Y-102788152D01*
X84709524Y-102788152D02*
X84671428Y-102692914D01*
X84671428Y-102692914D02*
X84671428Y-102645295D01*
X84671428Y-102645295D02*
X84709524Y-102550057D01*
X84709524Y-102550057D02*
X84747619Y-102502438D01*
X84747619Y-102502438D02*
X84823809Y-102454819D01*
X84823809Y-102454819D02*
X84976190Y-102454819D01*
X84976190Y-102454819D02*
X85052381Y-102502438D01*
X85052381Y-102502438D02*
X85090476Y-102550057D01*
X85090476Y-102550057D02*
X85128571Y-102645295D01*
X85128571Y-102645295D02*
X85128571Y-102692914D01*
X85128571Y-102692914D02*
X85090476Y-102788152D01*
X85090476Y-102788152D02*
X85052381Y-102835771D01*
X85052381Y-102835771D02*
X84976190Y-102883390D01*
X84976190Y-102883390D02*
X84823809Y-102883390D01*
X84823809Y-102883390D02*
X84747619Y-102931009D01*
X84747619Y-102931009D02*
X84709524Y-102978628D01*
X84709524Y-102978628D02*
X84671428Y-103073866D01*
X84671428Y-103073866D02*
X84671428Y-103264342D01*
X84671428Y-103264342D02*
X84709524Y-103359580D01*
X84709524Y-103359580D02*
X84747619Y-103407200D01*
X84747619Y-103407200D02*
X84823809Y-103454819D01*
X84823809Y-103454819D02*
X84976190Y-103454819D01*
X84976190Y-103454819D02*
X85052381Y-103407200D01*
X85052381Y-103407200D02*
X85090476Y-103359580D01*
X85090476Y-103359580D02*
X85128571Y-103264342D01*
X85128571Y-103264342D02*
X85128571Y-103073866D01*
X85128571Y-103073866D02*
X85090476Y-102978628D01*
X85090476Y-102978628D02*
X85052381Y-102931009D01*
X85052381Y-102931009D02*
X84976190Y-102883390D01*
X110985714Y-128359580D02*
X110947618Y-128407200D01*
X110947618Y-128407200D02*
X110833333Y-128454819D01*
X110833333Y-128454819D02*
X110757142Y-128454819D01*
X110757142Y-128454819D02*
X110642856Y-128407200D01*
X110642856Y-128407200D02*
X110566666Y-128311961D01*
X110566666Y-128311961D02*
X110528571Y-128216723D01*
X110528571Y-128216723D02*
X110490475Y-128026247D01*
X110490475Y-128026247D02*
X110490475Y-127883390D01*
X110490475Y-127883390D02*
X110528571Y-127692914D01*
X110528571Y-127692914D02*
X110566666Y-127597676D01*
X110566666Y-127597676D02*
X110642856Y-127502438D01*
X110642856Y-127502438D02*
X110757142Y-127454819D01*
X110757142Y-127454819D02*
X110833333Y-127454819D01*
X110833333Y-127454819D02*
X110947618Y-127502438D01*
X110947618Y-127502438D02*
X110985714Y-127550057D01*
X111747618Y-128454819D02*
X111290475Y-128454819D01*
X111519047Y-128454819D02*
X111519047Y-127454819D01*
X111519047Y-127454819D02*
X111442856Y-127597676D01*
X111442856Y-127597676D02*
X111366666Y-127692914D01*
X111366666Y-127692914D02*
X111290475Y-127740533D01*
X112242857Y-127454819D02*
X112319047Y-127454819D01*
X112319047Y-127454819D02*
X112395238Y-127502438D01*
X112395238Y-127502438D02*
X112433333Y-127550057D01*
X112433333Y-127550057D02*
X112471428Y-127645295D01*
X112471428Y-127645295D02*
X112509523Y-127835771D01*
X112509523Y-127835771D02*
X112509523Y-128073866D01*
X112509523Y-128073866D02*
X112471428Y-128264342D01*
X112471428Y-128264342D02*
X112433333Y-128359580D01*
X112433333Y-128359580D02*
X112395238Y-128407200D01*
X112395238Y-128407200D02*
X112319047Y-128454819D01*
X112319047Y-128454819D02*
X112242857Y-128454819D01*
X112242857Y-128454819D02*
X112166666Y-128407200D01*
X112166666Y-128407200D02*
X112128571Y-128359580D01*
X112128571Y-128359580D02*
X112090476Y-128264342D01*
X112090476Y-128264342D02*
X112052380Y-128073866D01*
X112052380Y-128073866D02*
X112052380Y-127835771D01*
X112052380Y-127835771D02*
X112090476Y-127645295D01*
X112090476Y-127645295D02*
X112128571Y-127550057D01*
X112128571Y-127550057D02*
X112166666Y-127502438D01*
X112166666Y-127502438D02*
X112242857Y-127454819D01*
X74274819Y-134266666D02*
X74989104Y-134266666D01*
X74989104Y-134266666D02*
X75131961Y-134304761D01*
X75131961Y-134304761D02*
X75227200Y-134380952D01*
X75227200Y-134380952D02*
X75274819Y-134495237D01*
X75274819Y-134495237D02*
X75274819Y-134571428D01*
X74274819Y-133504761D02*
X74274819Y-133885713D01*
X74274819Y-133885713D02*
X74751009Y-133923809D01*
X74751009Y-133923809D02*
X74703390Y-133885713D01*
X74703390Y-133885713D02*
X74655771Y-133809523D01*
X74655771Y-133809523D02*
X74655771Y-133619047D01*
X74655771Y-133619047D02*
X74703390Y-133542856D01*
X74703390Y-133542856D02*
X74751009Y-133504761D01*
X74751009Y-133504761D02*
X74846247Y-133466666D01*
X74846247Y-133466666D02*
X75084342Y-133466666D01*
X75084342Y-133466666D02*
X75179580Y-133504761D01*
X75179580Y-133504761D02*
X75227200Y-133542856D01*
X75227200Y-133542856D02*
X75274819Y-133619047D01*
X75274819Y-133619047D02*
X75274819Y-133809523D01*
X75274819Y-133809523D02*
X75227200Y-133885713D01*
X75227200Y-133885713D02*
X75179580Y-133923809D01*
X99985714Y-128454819D02*
X99719047Y-127978628D01*
X99528571Y-128454819D02*
X99528571Y-127454819D01*
X99528571Y-127454819D02*
X99833333Y-127454819D01*
X99833333Y-127454819D02*
X99909523Y-127502438D01*
X99909523Y-127502438D02*
X99947618Y-127550057D01*
X99947618Y-127550057D02*
X99985714Y-127645295D01*
X99985714Y-127645295D02*
X99985714Y-127788152D01*
X99985714Y-127788152D02*
X99947618Y-127883390D01*
X99947618Y-127883390D02*
X99909523Y-127931009D01*
X99909523Y-127931009D02*
X99833333Y-127978628D01*
X99833333Y-127978628D02*
X99528571Y-127978628D01*
X100747618Y-128454819D02*
X100290475Y-128454819D01*
X100519047Y-128454819D02*
X100519047Y-127454819D01*
X100519047Y-127454819D02*
X100442856Y-127597676D01*
X100442856Y-127597676D02*
X100366666Y-127692914D01*
X100366666Y-127692914D02*
X100290475Y-127740533D01*
X101509523Y-128454819D02*
X101052380Y-128454819D01*
X101280952Y-128454819D02*
X101280952Y-127454819D01*
X101280952Y-127454819D02*
X101204761Y-127597676D01*
X101204761Y-127597676D02*
X101128571Y-127692914D01*
X101128571Y-127692914D02*
X101052380Y-127740533D01*
X101423809Y-133050057D02*
X101347619Y-133002438D01*
X101347619Y-133002438D02*
X101271428Y-132907200D01*
X101271428Y-132907200D02*
X101157142Y-132764342D01*
X101157142Y-132764342D02*
X101080952Y-132716723D01*
X101080952Y-132716723D02*
X101004761Y-132716723D01*
X101042857Y-132954819D02*
X100966666Y-132907200D01*
X100966666Y-132907200D02*
X100890476Y-132811961D01*
X100890476Y-132811961D02*
X100852380Y-132621485D01*
X100852380Y-132621485D02*
X100852380Y-132288152D01*
X100852380Y-132288152D02*
X100890476Y-132097676D01*
X100890476Y-132097676D02*
X100966666Y-132002438D01*
X100966666Y-132002438D02*
X101042857Y-131954819D01*
X101042857Y-131954819D02*
X101195238Y-131954819D01*
X101195238Y-131954819D02*
X101271428Y-132002438D01*
X101271428Y-132002438D02*
X101347619Y-132097676D01*
X101347619Y-132097676D02*
X101385714Y-132288152D01*
X101385714Y-132288152D02*
X101385714Y-132621485D01*
X101385714Y-132621485D02*
X101347619Y-132811961D01*
X101347619Y-132811961D02*
X101271428Y-132907200D01*
X101271428Y-132907200D02*
X101195238Y-132954819D01*
X101195238Y-132954819D02*
X101042857Y-132954819D01*
X102071428Y-131954819D02*
X101919047Y-131954819D01*
X101919047Y-131954819D02*
X101842856Y-132002438D01*
X101842856Y-132002438D02*
X101804761Y-132050057D01*
X101804761Y-132050057D02*
X101728571Y-132192914D01*
X101728571Y-132192914D02*
X101690475Y-132383390D01*
X101690475Y-132383390D02*
X101690475Y-132764342D01*
X101690475Y-132764342D02*
X101728571Y-132859580D01*
X101728571Y-132859580D02*
X101766666Y-132907200D01*
X101766666Y-132907200D02*
X101842856Y-132954819D01*
X101842856Y-132954819D02*
X101995237Y-132954819D01*
X101995237Y-132954819D02*
X102071428Y-132907200D01*
X102071428Y-132907200D02*
X102109523Y-132859580D01*
X102109523Y-132859580D02*
X102147618Y-132764342D01*
X102147618Y-132764342D02*
X102147618Y-132526247D01*
X102147618Y-132526247D02*
X102109523Y-132431009D01*
X102109523Y-132431009D02*
X102071428Y-132383390D01*
X102071428Y-132383390D02*
X101995237Y-132335771D01*
X101995237Y-132335771D02*
X101842856Y-132335771D01*
X101842856Y-132335771D02*
X101766666Y-132383390D01*
X101766666Y-132383390D02*
X101728571Y-132431009D01*
X101728571Y-132431009D02*
X101690475Y-132526247D01*
X115754819Y-134266666D02*
X116469104Y-134266666D01*
X116469104Y-134266666D02*
X116611961Y-134304761D01*
X116611961Y-134304761D02*
X116707200Y-134380952D01*
X116707200Y-134380952D02*
X116754819Y-134495237D01*
X116754819Y-134495237D02*
X116754819Y-134571428D01*
X116088152Y-133542856D02*
X116754819Y-133542856D01*
X115707200Y-133733332D02*
X116421485Y-133923809D01*
X116421485Y-133923809D02*
X116421485Y-133428570D01*
X115985714Y-141359580D02*
X115947618Y-141407200D01*
X115947618Y-141407200D02*
X115833333Y-141454819D01*
X115833333Y-141454819D02*
X115757142Y-141454819D01*
X115757142Y-141454819D02*
X115642856Y-141407200D01*
X115642856Y-141407200D02*
X115566666Y-141311961D01*
X115566666Y-141311961D02*
X115528571Y-141216723D01*
X115528571Y-141216723D02*
X115490475Y-141026247D01*
X115490475Y-141026247D02*
X115490475Y-140883390D01*
X115490475Y-140883390D02*
X115528571Y-140692914D01*
X115528571Y-140692914D02*
X115566666Y-140597676D01*
X115566666Y-140597676D02*
X115642856Y-140502438D01*
X115642856Y-140502438D02*
X115757142Y-140454819D01*
X115757142Y-140454819D02*
X115833333Y-140454819D01*
X115833333Y-140454819D02*
X115947618Y-140502438D01*
X115947618Y-140502438D02*
X115985714Y-140550057D01*
X116747618Y-141454819D02*
X116290475Y-141454819D01*
X116519047Y-141454819D02*
X116519047Y-140454819D01*
X116519047Y-140454819D02*
X116442856Y-140597676D01*
X116442856Y-140597676D02*
X116366666Y-140692914D01*
X116366666Y-140692914D02*
X116290475Y-140740533D01*
X117433333Y-140788152D02*
X117433333Y-141454819D01*
X117242857Y-140407200D02*
X117052380Y-141121485D01*
X117052380Y-141121485D02*
X117547619Y-141121485D01*
X98985714Y-135359580D02*
X98947618Y-135407200D01*
X98947618Y-135407200D02*
X98833333Y-135454819D01*
X98833333Y-135454819D02*
X98757142Y-135454819D01*
X98757142Y-135454819D02*
X98642856Y-135407200D01*
X98642856Y-135407200D02*
X98566666Y-135311961D01*
X98566666Y-135311961D02*
X98528571Y-135216723D01*
X98528571Y-135216723D02*
X98490475Y-135026247D01*
X98490475Y-135026247D02*
X98490475Y-134883390D01*
X98490475Y-134883390D02*
X98528571Y-134692914D01*
X98528571Y-134692914D02*
X98566666Y-134597676D01*
X98566666Y-134597676D02*
X98642856Y-134502438D01*
X98642856Y-134502438D02*
X98757142Y-134454819D01*
X98757142Y-134454819D02*
X98833333Y-134454819D01*
X98833333Y-134454819D02*
X98947618Y-134502438D01*
X98947618Y-134502438D02*
X98985714Y-134550057D01*
X99747618Y-135454819D02*
X99290475Y-135454819D01*
X99519047Y-135454819D02*
X99519047Y-134454819D01*
X99519047Y-134454819D02*
X99442856Y-134597676D01*
X99442856Y-134597676D02*
X99366666Y-134692914D01*
X99366666Y-134692914D02*
X99290475Y-134740533D01*
X100433333Y-134454819D02*
X100280952Y-134454819D01*
X100280952Y-134454819D02*
X100204761Y-134502438D01*
X100204761Y-134502438D02*
X100166666Y-134550057D01*
X100166666Y-134550057D02*
X100090476Y-134692914D01*
X100090476Y-134692914D02*
X100052380Y-134883390D01*
X100052380Y-134883390D02*
X100052380Y-135264342D01*
X100052380Y-135264342D02*
X100090476Y-135359580D01*
X100090476Y-135359580D02*
X100128571Y-135407200D01*
X100128571Y-135407200D02*
X100204761Y-135454819D01*
X100204761Y-135454819D02*
X100357142Y-135454819D01*
X100357142Y-135454819D02*
X100433333Y-135407200D01*
X100433333Y-135407200D02*
X100471428Y-135359580D01*
X100471428Y-135359580D02*
X100509523Y-135264342D01*
X100509523Y-135264342D02*
X100509523Y-135026247D01*
X100509523Y-135026247D02*
X100471428Y-134931009D01*
X100471428Y-134931009D02*
X100433333Y-134883390D01*
X100433333Y-134883390D02*
X100357142Y-134835771D01*
X100357142Y-134835771D02*
X100204761Y-134835771D01*
X100204761Y-134835771D02*
X100128571Y-134883390D01*
X100128571Y-134883390D02*
X100090476Y-134931009D01*
X100090476Y-134931009D02*
X100052380Y-135026247D01*
X120233333Y-112454819D02*
X120233333Y-113169104D01*
X120233333Y-113169104D02*
X120195238Y-113311961D01*
X120195238Y-113311961D02*
X120119047Y-113407200D01*
X120119047Y-113407200D02*
X120004762Y-113454819D01*
X120004762Y-113454819D02*
X119928571Y-113454819D01*
X120538095Y-112454819D02*
X121033333Y-112454819D01*
X121033333Y-112454819D02*
X120766667Y-112835771D01*
X120766667Y-112835771D02*
X120880952Y-112835771D01*
X120880952Y-112835771D02*
X120957143Y-112883390D01*
X120957143Y-112883390D02*
X120995238Y-112931009D01*
X120995238Y-112931009D02*
X121033333Y-113026247D01*
X121033333Y-113026247D02*
X121033333Y-113264342D01*
X121033333Y-113264342D02*
X120995238Y-113359580D01*
X120995238Y-113359580D02*
X120957143Y-113407200D01*
X120957143Y-113407200D02*
X120880952Y-113454819D01*
X120880952Y-113454819D02*
X120652381Y-113454819D01*
X120652381Y-113454819D02*
X120576190Y-113407200D01*
X120576190Y-113407200D02*
X120538095Y-113359580D01*
X115866667Y-151454819D02*
X115600000Y-150978628D01*
X115409524Y-151454819D02*
X115409524Y-150454819D01*
X115409524Y-150454819D02*
X115714286Y-150454819D01*
X115714286Y-150454819D02*
X115790476Y-150502438D01*
X115790476Y-150502438D02*
X115828571Y-150550057D01*
X115828571Y-150550057D02*
X115866667Y-150645295D01*
X115866667Y-150645295D02*
X115866667Y-150788152D01*
X115866667Y-150788152D02*
X115828571Y-150883390D01*
X115828571Y-150883390D02*
X115790476Y-150931009D01*
X115790476Y-150931009D02*
X115714286Y-150978628D01*
X115714286Y-150978628D02*
X115409524Y-150978628D01*
X116247619Y-151454819D02*
X116400000Y-151454819D01*
X116400000Y-151454819D02*
X116476190Y-151407200D01*
X116476190Y-151407200D02*
X116514286Y-151359580D01*
X116514286Y-151359580D02*
X116590476Y-151216723D01*
X116590476Y-151216723D02*
X116628571Y-151026247D01*
X116628571Y-151026247D02*
X116628571Y-150645295D01*
X116628571Y-150645295D02*
X116590476Y-150550057D01*
X116590476Y-150550057D02*
X116552381Y-150502438D01*
X116552381Y-150502438D02*
X116476190Y-150454819D01*
X116476190Y-150454819D02*
X116323809Y-150454819D01*
X116323809Y-150454819D02*
X116247619Y-150502438D01*
X116247619Y-150502438D02*
X116209524Y-150550057D01*
X116209524Y-150550057D02*
X116171428Y-150645295D01*
X116171428Y-150645295D02*
X116171428Y-150883390D01*
X116171428Y-150883390D02*
X116209524Y-150978628D01*
X116209524Y-150978628D02*
X116247619Y-151026247D01*
X116247619Y-151026247D02*
X116323809Y-151073866D01*
X116323809Y-151073866D02*
X116476190Y-151073866D01*
X116476190Y-151073866D02*
X116552381Y-151026247D01*
X116552381Y-151026247D02*
X116590476Y-150978628D01*
X116590476Y-150978628D02*
X116628571Y-150883390D01*
X111366667Y-132359580D02*
X111328571Y-132407200D01*
X111328571Y-132407200D02*
X111214286Y-132454819D01*
X111214286Y-132454819D02*
X111138095Y-132454819D01*
X111138095Y-132454819D02*
X111023809Y-132407200D01*
X111023809Y-132407200D02*
X110947619Y-132311961D01*
X110947619Y-132311961D02*
X110909524Y-132216723D01*
X110909524Y-132216723D02*
X110871428Y-132026247D01*
X110871428Y-132026247D02*
X110871428Y-131883390D01*
X110871428Y-131883390D02*
X110909524Y-131692914D01*
X110909524Y-131692914D02*
X110947619Y-131597676D01*
X110947619Y-131597676D02*
X111023809Y-131502438D01*
X111023809Y-131502438D02*
X111138095Y-131454819D01*
X111138095Y-131454819D02*
X111214286Y-131454819D01*
X111214286Y-131454819D02*
X111328571Y-131502438D01*
X111328571Y-131502438D02*
X111366667Y-131550057D01*
X111823809Y-131883390D02*
X111747619Y-131835771D01*
X111747619Y-131835771D02*
X111709524Y-131788152D01*
X111709524Y-131788152D02*
X111671428Y-131692914D01*
X111671428Y-131692914D02*
X111671428Y-131645295D01*
X111671428Y-131645295D02*
X111709524Y-131550057D01*
X111709524Y-131550057D02*
X111747619Y-131502438D01*
X111747619Y-131502438D02*
X111823809Y-131454819D01*
X111823809Y-131454819D02*
X111976190Y-131454819D01*
X111976190Y-131454819D02*
X112052381Y-131502438D01*
X112052381Y-131502438D02*
X112090476Y-131550057D01*
X112090476Y-131550057D02*
X112128571Y-131645295D01*
X112128571Y-131645295D02*
X112128571Y-131692914D01*
X112128571Y-131692914D02*
X112090476Y-131788152D01*
X112090476Y-131788152D02*
X112052381Y-131835771D01*
X112052381Y-131835771D02*
X111976190Y-131883390D01*
X111976190Y-131883390D02*
X111823809Y-131883390D01*
X111823809Y-131883390D02*
X111747619Y-131931009D01*
X111747619Y-131931009D02*
X111709524Y-131978628D01*
X111709524Y-131978628D02*
X111671428Y-132073866D01*
X111671428Y-132073866D02*
X111671428Y-132264342D01*
X111671428Y-132264342D02*
X111709524Y-132359580D01*
X111709524Y-132359580D02*
X111747619Y-132407200D01*
X111747619Y-132407200D02*
X111823809Y-132454819D01*
X111823809Y-132454819D02*
X111976190Y-132454819D01*
X111976190Y-132454819D02*
X112052381Y-132407200D01*
X112052381Y-132407200D02*
X112090476Y-132359580D01*
X112090476Y-132359580D02*
X112128571Y-132264342D01*
X112128571Y-132264342D02*
X112128571Y-132073866D01*
X112128571Y-132073866D02*
X112090476Y-131978628D01*
X112090476Y-131978628D02*
X112052381Y-131931009D01*
X112052381Y-131931009D02*
X111976190Y-131883390D01*
X112409524Y-98954819D02*
X112409524Y-97954819D01*
X112409524Y-97954819D02*
X112600000Y-97954819D01*
X112600000Y-97954819D02*
X112714286Y-98002438D01*
X112714286Y-98002438D02*
X112790476Y-98097676D01*
X112790476Y-98097676D02*
X112828571Y-98192914D01*
X112828571Y-98192914D02*
X112866667Y-98383390D01*
X112866667Y-98383390D02*
X112866667Y-98526247D01*
X112866667Y-98526247D02*
X112828571Y-98716723D01*
X112828571Y-98716723D02*
X112790476Y-98811961D01*
X112790476Y-98811961D02*
X112714286Y-98907200D01*
X112714286Y-98907200D02*
X112600000Y-98954819D01*
X112600000Y-98954819D02*
X112409524Y-98954819D01*
X113171428Y-98050057D02*
X113209524Y-98002438D01*
X113209524Y-98002438D02*
X113285714Y-97954819D01*
X113285714Y-97954819D02*
X113476190Y-97954819D01*
X113476190Y-97954819D02*
X113552381Y-98002438D01*
X113552381Y-98002438D02*
X113590476Y-98050057D01*
X113590476Y-98050057D02*
X113628571Y-98145295D01*
X113628571Y-98145295D02*
X113628571Y-98240533D01*
X113628571Y-98240533D02*
X113590476Y-98383390D01*
X113590476Y-98383390D02*
X113133333Y-98954819D01*
X113133333Y-98954819D02*
X113628571Y-98954819D01*
X111490476Y-113454819D02*
X111947619Y-113454819D01*
X111719047Y-114454819D02*
X111719047Y-113454819D01*
X112214286Y-114454819D02*
X112214286Y-113454819D01*
X112214286Y-113454819D02*
X112519048Y-113454819D01*
X112519048Y-113454819D02*
X112595238Y-113502438D01*
X112595238Y-113502438D02*
X112633333Y-113550057D01*
X112633333Y-113550057D02*
X112671429Y-113645295D01*
X112671429Y-113645295D02*
X112671429Y-113788152D01*
X112671429Y-113788152D02*
X112633333Y-113883390D01*
X112633333Y-113883390D02*
X112595238Y-113931009D01*
X112595238Y-113931009D02*
X112519048Y-113978628D01*
X112519048Y-113978628D02*
X112214286Y-113978628D01*
X113357143Y-113788152D02*
X113357143Y-114454819D01*
X113166667Y-113407200D02*
X112976190Y-114121485D01*
X112976190Y-114121485D02*
X113471429Y-114121485D01*
X111747619Y-118407200D02*
X111671428Y-118454819D01*
X111671428Y-118454819D02*
X111519047Y-118454819D01*
X111519047Y-118454819D02*
X111442857Y-118407200D01*
X111442857Y-118407200D02*
X111404761Y-118311961D01*
X111404761Y-118311961D02*
X111404761Y-117931009D01*
X111404761Y-117931009D02*
X111442857Y-117835771D01*
X111442857Y-117835771D02*
X111519047Y-117788152D01*
X111519047Y-117788152D02*
X111671428Y-117788152D01*
X111671428Y-117788152D02*
X111747619Y-117835771D01*
X111747619Y-117835771D02*
X111785714Y-117931009D01*
X111785714Y-117931009D02*
X111785714Y-118026247D01*
X111785714Y-118026247D02*
X111404761Y-118121485D01*
X112128571Y-117788152D02*
X112128571Y-118788152D01*
X112128571Y-117835771D02*
X112204761Y-117788152D01*
X112204761Y-117788152D02*
X112357142Y-117788152D01*
X112357142Y-117788152D02*
X112433333Y-117835771D01*
X112433333Y-117835771D02*
X112471428Y-117883390D01*
X112471428Y-117883390D02*
X112509523Y-117978628D01*
X112509523Y-117978628D02*
X112509523Y-118264342D01*
X112509523Y-118264342D02*
X112471428Y-118359580D01*
X112471428Y-118359580D02*
X112433333Y-118407200D01*
X112433333Y-118407200D02*
X112357142Y-118454819D01*
X112357142Y-118454819D02*
X112204761Y-118454819D01*
X112204761Y-118454819D02*
X112128571Y-118407200D01*
X113195238Y-118454819D02*
X113195238Y-117454819D01*
X113195238Y-118407200D02*
X113119047Y-118454819D01*
X113119047Y-118454819D02*
X112966666Y-118454819D01*
X112966666Y-118454819D02*
X112890476Y-118407200D01*
X112890476Y-118407200D02*
X112852381Y-118359580D01*
X112852381Y-118359580D02*
X112814285Y-118264342D01*
X112814285Y-118264342D02*
X112814285Y-117978628D01*
X112814285Y-117978628D02*
X112852381Y-117883390D01*
X112852381Y-117883390D02*
X112890476Y-117835771D01*
X112890476Y-117835771D02*
X112966666Y-117788152D01*
X112966666Y-117788152D02*
X113119047Y-117788152D01*
X113119047Y-117788152D02*
X113195238Y-117835771D01*
X113576191Y-118359580D02*
X113614286Y-118407200D01*
X113614286Y-118407200D02*
X113576191Y-118454819D01*
X113576191Y-118454819D02*
X113538095Y-118407200D01*
X113538095Y-118407200D02*
X113576191Y-118359580D01*
X113576191Y-118359580D02*
X113576191Y-118454819D01*
X113919047Y-118407200D02*
X113995238Y-118454819D01*
X113995238Y-118454819D02*
X114147619Y-118454819D01*
X114147619Y-118454819D02*
X114223809Y-118407200D01*
X114223809Y-118407200D02*
X114261905Y-118311961D01*
X114261905Y-118311961D02*
X114261905Y-118264342D01*
X114261905Y-118264342D02*
X114223809Y-118169104D01*
X114223809Y-118169104D02*
X114147619Y-118121485D01*
X114147619Y-118121485D02*
X114033333Y-118121485D01*
X114033333Y-118121485D02*
X113957143Y-118073866D01*
X113957143Y-118073866D02*
X113919047Y-117978628D01*
X113919047Y-117978628D02*
X113919047Y-117931009D01*
X113919047Y-117931009D02*
X113957143Y-117835771D01*
X113957143Y-117835771D02*
X114033333Y-117788152D01*
X114033333Y-117788152D02*
X114147619Y-117788152D01*
X114147619Y-117788152D02*
X114223809Y-117835771D01*
X114947619Y-118407200D02*
X114871428Y-118454819D01*
X114871428Y-118454819D02*
X114719047Y-118454819D01*
X114719047Y-118454819D02*
X114642857Y-118407200D01*
X114642857Y-118407200D02*
X114604762Y-118359580D01*
X114604762Y-118359580D02*
X114566666Y-118264342D01*
X114566666Y-118264342D02*
X114566666Y-117978628D01*
X114566666Y-117978628D02*
X114604762Y-117883390D01*
X114604762Y-117883390D02*
X114642857Y-117835771D01*
X114642857Y-117835771D02*
X114719047Y-117788152D01*
X114719047Y-117788152D02*
X114871428Y-117788152D01*
X114871428Y-117788152D02*
X114947619Y-117835771D01*
X115290476Y-118454819D02*
X115290476Y-117454819D01*
X115366666Y-118073866D02*
X115595238Y-118454819D01*
X115595238Y-117788152D02*
X115290476Y-118169104D01*
X115985714Y-153454819D02*
X115719047Y-152978628D01*
X115528571Y-153454819D02*
X115528571Y-152454819D01*
X115528571Y-152454819D02*
X115833333Y-152454819D01*
X115833333Y-152454819D02*
X115909523Y-152502438D01*
X115909523Y-152502438D02*
X115947618Y-152550057D01*
X115947618Y-152550057D02*
X115985714Y-152645295D01*
X115985714Y-152645295D02*
X115985714Y-152788152D01*
X115985714Y-152788152D02*
X115947618Y-152883390D01*
X115947618Y-152883390D02*
X115909523Y-152931009D01*
X115909523Y-152931009D02*
X115833333Y-152978628D01*
X115833333Y-152978628D02*
X115528571Y-152978628D01*
X116747618Y-153454819D02*
X116290475Y-153454819D01*
X116519047Y-153454819D02*
X116519047Y-152454819D01*
X116519047Y-152454819D02*
X116442856Y-152597676D01*
X116442856Y-152597676D02*
X116366666Y-152692914D01*
X116366666Y-152692914D02*
X116290475Y-152740533D01*
X117242857Y-152454819D02*
X117319047Y-152454819D01*
X117319047Y-152454819D02*
X117395238Y-152502438D01*
X117395238Y-152502438D02*
X117433333Y-152550057D01*
X117433333Y-152550057D02*
X117471428Y-152645295D01*
X117471428Y-152645295D02*
X117509523Y-152835771D01*
X117509523Y-152835771D02*
X117509523Y-153073866D01*
X117509523Y-153073866D02*
X117471428Y-153264342D01*
X117471428Y-153264342D02*
X117433333Y-153359580D01*
X117433333Y-153359580D02*
X117395238Y-153407200D01*
X117395238Y-153407200D02*
X117319047Y-153454819D01*
X117319047Y-153454819D02*
X117242857Y-153454819D01*
X117242857Y-153454819D02*
X117166666Y-153407200D01*
X117166666Y-153407200D02*
X117128571Y-153359580D01*
X117128571Y-153359580D02*
X117090476Y-153264342D01*
X117090476Y-153264342D02*
X117052380Y-153073866D01*
X117052380Y-153073866D02*
X117052380Y-152835771D01*
X117052380Y-152835771D02*
X117090476Y-152645295D01*
X117090476Y-152645295D02*
X117128571Y-152550057D01*
X117128571Y-152550057D02*
X117166666Y-152502438D01*
X117166666Y-152502438D02*
X117242857Y-152454819D01*
X109985714Y-136859580D02*
X109947618Y-136907200D01*
X109947618Y-136907200D02*
X109833333Y-136954819D01*
X109833333Y-136954819D02*
X109757142Y-136954819D01*
X109757142Y-136954819D02*
X109642856Y-136907200D01*
X109642856Y-136907200D02*
X109566666Y-136811961D01*
X109566666Y-136811961D02*
X109528571Y-136716723D01*
X109528571Y-136716723D02*
X109490475Y-136526247D01*
X109490475Y-136526247D02*
X109490475Y-136383390D01*
X109490475Y-136383390D02*
X109528571Y-136192914D01*
X109528571Y-136192914D02*
X109566666Y-136097676D01*
X109566666Y-136097676D02*
X109642856Y-136002438D01*
X109642856Y-136002438D02*
X109757142Y-135954819D01*
X109757142Y-135954819D02*
X109833333Y-135954819D01*
X109833333Y-135954819D02*
X109947618Y-136002438D01*
X109947618Y-136002438D02*
X109985714Y-136050057D01*
X110747618Y-136954819D02*
X110290475Y-136954819D01*
X110519047Y-136954819D02*
X110519047Y-135954819D01*
X110519047Y-135954819D02*
X110442856Y-136097676D01*
X110442856Y-136097676D02*
X110366666Y-136192914D01*
X110366666Y-136192914D02*
X110290475Y-136240533D01*
X111052380Y-136050057D02*
X111090476Y-136002438D01*
X111090476Y-136002438D02*
X111166666Y-135954819D01*
X111166666Y-135954819D02*
X111357142Y-135954819D01*
X111357142Y-135954819D02*
X111433333Y-136002438D01*
X111433333Y-136002438D02*
X111471428Y-136050057D01*
X111471428Y-136050057D02*
X111509523Y-136145295D01*
X111509523Y-136145295D02*
X111509523Y-136240533D01*
X111509523Y-136240533D02*
X111471428Y-136383390D01*
X111471428Y-136383390D02*
X111014285Y-136954819D01*
X111014285Y-136954819D02*
X111509523Y-136954819D01*
X88890476Y-94454819D02*
X88890476Y-95264342D01*
X88890476Y-95264342D02*
X88928571Y-95359580D01*
X88928571Y-95359580D02*
X88966666Y-95407200D01*
X88966666Y-95407200D02*
X89042857Y-95454819D01*
X89042857Y-95454819D02*
X89195238Y-95454819D01*
X89195238Y-95454819D02*
X89271428Y-95407200D01*
X89271428Y-95407200D02*
X89309523Y-95359580D01*
X89309523Y-95359580D02*
X89347619Y-95264342D01*
X89347619Y-95264342D02*
X89347619Y-94454819D01*
X89690475Y-94550057D02*
X89728571Y-94502438D01*
X89728571Y-94502438D02*
X89804761Y-94454819D01*
X89804761Y-94454819D02*
X89995237Y-94454819D01*
X89995237Y-94454819D02*
X90071428Y-94502438D01*
X90071428Y-94502438D02*
X90109523Y-94550057D01*
X90109523Y-94550057D02*
X90147618Y-94645295D01*
X90147618Y-94645295D02*
X90147618Y-94740533D01*
X90147618Y-94740533D02*
X90109523Y-94883390D01*
X90109523Y-94883390D02*
X89652380Y-95454819D01*
X89652380Y-95454819D02*
X90147618Y-95454819D01*
X84366667Y-97454819D02*
X84100000Y-96978628D01*
X83909524Y-97454819D02*
X83909524Y-96454819D01*
X83909524Y-96454819D02*
X84214286Y-96454819D01*
X84214286Y-96454819D02*
X84290476Y-96502438D01*
X84290476Y-96502438D02*
X84328571Y-96550057D01*
X84328571Y-96550057D02*
X84366667Y-96645295D01*
X84366667Y-96645295D02*
X84366667Y-96788152D01*
X84366667Y-96788152D02*
X84328571Y-96883390D01*
X84328571Y-96883390D02*
X84290476Y-96931009D01*
X84290476Y-96931009D02*
X84214286Y-96978628D01*
X84214286Y-96978628D02*
X83909524Y-96978628D01*
X85090476Y-96454819D02*
X84709524Y-96454819D01*
X84709524Y-96454819D02*
X84671428Y-96931009D01*
X84671428Y-96931009D02*
X84709524Y-96883390D01*
X84709524Y-96883390D02*
X84785714Y-96835771D01*
X84785714Y-96835771D02*
X84976190Y-96835771D01*
X84976190Y-96835771D02*
X85052381Y-96883390D01*
X85052381Y-96883390D02*
X85090476Y-96931009D01*
X85090476Y-96931009D02*
X85128571Y-97026247D01*
X85128571Y-97026247D02*
X85128571Y-97264342D01*
X85128571Y-97264342D02*
X85090476Y-97359580D01*
X85090476Y-97359580D02*
X85052381Y-97407200D01*
X85052381Y-97407200D02*
X84976190Y-97454819D01*
X84976190Y-97454819D02*
X84785714Y-97454819D01*
X84785714Y-97454819D02*
X84709524Y-97407200D01*
X84709524Y-97407200D02*
X84671428Y-97359580D01*
X75990476Y-141454819D02*
X76447619Y-141454819D01*
X76219047Y-142454819D02*
X76219047Y-141454819D01*
X76714286Y-142454819D02*
X76714286Y-141454819D01*
X76714286Y-141454819D02*
X77019048Y-141454819D01*
X77019048Y-141454819D02*
X77095238Y-141502438D01*
X77095238Y-141502438D02*
X77133333Y-141550057D01*
X77133333Y-141550057D02*
X77171429Y-141645295D01*
X77171429Y-141645295D02*
X77171429Y-141788152D01*
X77171429Y-141788152D02*
X77133333Y-141883390D01*
X77133333Y-141883390D02*
X77095238Y-141931009D01*
X77095238Y-141931009D02*
X77019048Y-141978628D01*
X77019048Y-141978628D02*
X76714286Y-141978628D01*
X77933333Y-142454819D02*
X77476190Y-142454819D01*
X77704762Y-142454819D02*
X77704762Y-141454819D01*
X77704762Y-141454819D02*
X77628571Y-141597676D01*
X77628571Y-141597676D02*
X77552381Y-141692914D01*
X77552381Y-141692914D02*
X77476190Y-141740533D01*
X82009523Y-142454819D02*
X82009523Y-141454819D01*
X82009523Y-141835771D02*
X82085713Y-141788152D01*
X82085713Y-141788152D02*
X82238094Y-141788152D01*
X82238094Y-141788152D02*
X82314285Y-141835771D01*
X82314285Y-141835771D02*
X82352380Y-141883390D01*
X82352380Y-141883390D02*
X82390475Y-141978628D01*
X82390475Y-141978628D02*
X82390475Y-142264342D01*
X82390475Y-142264342D02*
X82352380Y-142359580D01*
X82352380Y-142359580D02*
X82314285Y-142407200D01*
X82314285Y-142407200D02*
X82238094Y-142454819D01*
X82238094Y-142454819D02*
X82085713Y-142454819D01*
X82085713Y-142454819D02*
X82009523Y-142407200D01*
X83076190Y-142454819D02*
X83076190Y-141931009D01*
X83076190Y-141931009D02*
X83038095Y-141835771D01*
X83038095Y-141835771D02*
X82961904Y-141788152D01*
X82961904Y-141788152D02*
X82809523Y-141788152D01*
X82809523Y-141788152D02*
X82733333Y-141835771D01*
X83076190Y-142407200D02*
X82999999Y-142454819D01*
X82999999Y-142454819D02*
X82809523Y-142454819D01*
X82809523Y-142454819D02*
X82733333Y-142407200D01*
X82733333Y-142407200D02*
X82695237Y-142311961D01*
X82695237Y-142311961D02*
X82695237Y-142216723D01*
X82695237Y-142216723D02*
X82733333Y-142121485D01*
X82733333Y-142121485D02*
X82809523Y-142073866D01*
X82809523Y-142073866D02*
X82999999Y-142073866D01*
X82999999Y-142073866D02*
X83076190Y-142026247D01*
X83342857Y-141788152D02*
X83647619Y-141788152D01*
X83457143Y-141454819D02*
X83457143Y-142311961D01*
X83457143Y-142311961D02*
X83495238Y-142407200D01*
X83495238Y-142407200D02*
X83571428Y-142454819D01*
X83571428Y-142454819D02*
X83647619Y-142454819D01*
X83800000Y-141788152D02*
X84104762Y-141788152D01*
X83914286Y-141454819D02*
X83914286Y-142311961D01*
X83914286Y-142311961D02*
X83952381Y-142407200D01*
X83952381Y-142407200D02*
X84028571Y-142454819D01*
X84028571Y-142454819D02*
X84104762Y-142454819D01*
X107866666Y-129454819D02*
X107485714Y-129454819D01*
X107485714Y-129454819D02*
X107485714Y-128454819D01*
X108095237Y-128550057D02*
X108133333Y-128502438D01*
X108133333Y-128502438D02*
X108209523Y-128454819D01*
X108209523Y-128454819D02*
X108399999Y-128454819D01*
X108399999Y-128454819D02*
X108476190Y-128502438D01*
X108476190Y-128502438D02*
X108514285Y-128550057D01*
X108514285Y-128550057D02*
X108552380Y-128645295D01*
X108552380Y-128645295D02*
X108552380Y-128740533D01*
X108552380Y-128740533D02*
X108514285Y-128883390D01*
X108514285Y-128883390D02*
X108057142Y-129454819D01*
X108057142Y-129454819D02*
X108552380Y-129454819D01*
X120866667Y-94454819D02*
X120600000Y-93978628D01*
X120409524Y-94454819D02*
X120409524Y-93454819D01*
X120409524Y-93454819D02*
X120714286Y-93454819D01*
X120714286Y-93454819D02*
X120790476Y-93502438D01*
X120790476Y-93502438D02*
X120828571Y-93550057D01*
X120828571Y-93550057D02*
X120866667Y-93645295D01*
X120866667Y-93645295D02*
X120866667Y-93788152D01*
X120866667Y-93788152D02*
X120828571Y-93883390D01*
X120828571Y-93883390D02*
X120790476Y-93931009D01*
X120790476Y-93931009D02*
X120714286Y-93978628D01*
X120714286Y-93978628D02*
X120409524Y-93978628D01*
X121133333Y-93454819D02*
X121666667Y-93454819D01*
X121666667Y-93454819D02*
X121323809Y-94454819D01*
X105109523Y-113454819D02*
X105566666Y-113454819D01*
X105338094Y-114454819D02*
X105338094Y-113454819D01*
X105833333Y-114454819D02*
X105833333Y-113454819D01*
X105833333Y-113454819D02*
X106138095Y-113454819D01*
X106138095Y-113454819D02*
X106214285Y-113502438D01*
X106214285Y-113502438D02*
X106252380Y-113550057D01*
X106252380Y-113550057D02*
X106290476Y-113645295D01*
X106290476Y-113645295D02*
X106290476Y-113788152D01*
X106290476Y-113788152D02*
X106252380Y-113883390D01*
X106252380Y-113883390D02*
X106214285Y-113931009D01*
X106214285Y-113931009D02*
X106138095Y-113978628D01*
X106138095Y-113978628D02*
X105833333Y-113978628D01*
X107052380Y-114454819D02*
X106595237Y-114454819D01*
X106823809Y-114454819D02*
X106823809Y-113454819D01*
X106823809Y-113454819D02*
X106747618Y-113597676D01*
X106747618Y-113597676D02*
X106671428Y-113692914D01*
X106671428Y-113692914D02*
X106595237Y-113740533D01*
X107547619Y-113454819D02*
X107623809Y-113454819D01*
X107623809Y-113454819D02*
X107700000Y-113502438D01*
X107700000Y-113502438D02*
X107738095Y-113550057D01*
X107738095Y-113550057D02*
X107776190Y-113645295D01*
X107776190Y-113645295D02*
X107814285Y-113835771D01*
X107814285Y-113835771D02*
X107814285Y-114073866D01*
X107814285Y-114073866D02*
X107776190Y-114264342D01*
X107776190Y-114264342D02*
X107738095Y-114359580D01*
X107738095Y-114359580D02*
X107700000Y-114407200D01*
X107700000Y-114407200D02*
X107623809Y-114454819D01*
X107623809Y-114454819D02*
X107547619Y-114454819D01*
X107547619Y-114454819D02*
X107471428Y-114407200D01*
X107471428Y-114407200D02*
X107433333Y-114359580D01*
X107433333Y-114359580D02*
X107395238Y-114264342D01*
X107395238Y-114264342D02*
X107357142Y-114073866D01*
X107357142Y-114073866D02*
X107357142Y-113835771D01*
X107357142Y-113835771D02*
X107395238Y-113645295D01*
X107395238Y-113645295D02*
X107433333Y-113550057D01*
X107433333Y-113550057D02*
X107471428Y-113502438D01*
X107471428Y-113502438D02*
X107547619Y-113454819D01*
X105700000Y-118454819D02*
X105700000Y-117454819D01*
X105700000Y-117835771D02*
X105776190Y-117788152D01*
X105776190Y-117788152D02*
X105928571Y-117788152D01*
X105928571Y-117788152D02*
X106004762Y-117835771D01*
X106004762Y-117835771D02*
X106042857Y-117883390D01*
X106042857Y-117883390D02*
X106080952Y-117978628D01*
X106080952Y-117978628D02*
X106080952Y-118264342D01*
X106080952Y-118264342D02*
X106042857Y-118359580D01*
X106042857Y-118359580D02*
X106004762Y-118407200D01*
X106004762Y-118407200D02*
X105928571Y-118454819D01*
X105928571Y-118454819D02*
X105776190Y-118454819D01*
X105776190Y-118454819D02*
X105700000Y-118407200D01*
X106385714Y-118407200D02*
X106461905Y-118454819D01*
X106461905Y-118454819D02*
X106614286Y-118454819D01*
X106614286Y-118454819D02*
X106690476Y-118407200D01*
X106690476Y-118407200D02*
X106728572Y-118311961D01*
X106728572Y-118311961D02*
X106728572Y-118264342D01*
X106728572Y-118264342D02*
X106690476Y-118169104D01*
X106690476Y-118169104D02*
X106614286Y-118121485D01*
X106614286Y-118121485D02*
X106500000Y-118121485D01*
X106500000Y-118121485D02*
X106423810Y-118073866D01*
X106423810Y-118073866D02*
X106385714Y-117978628D01*
X106385714Y-117978628D02*
X106385714Y-117931009D01*
X106385714Y-117931009D02*
X106423810Y-117835771D01*
X106423810Y-117835771D02*
X106500000Y-117788152D01*
X106500000Y-117788152D02*
X106614286Y-117788152D01*
X106614286Y-117788152D02*
X106690476Y-117835771D01*
X106995238Y-117788152D02*
X107185714Y-118454819D01*
X107376191Y-117788152D02*
X107185714Y-118454819D01*
X107185714Y-118454819D02*
X107109524Y-118692914D01*
X107109524Y-118692914D02*
X107071429Y-118740533D01*
X107071429Y-118740533D02*
X106995238Y-118788152D01*
X107366667Y-151454819D02*
X107100000Y-150978628D01*
X106909524Y-151454819D02*
X106909524Y-150454819D01*
X106909524Y-150454819D02*
X107214286Y-150454819D01*
X107214286Y-150454819D02*
X107290476Y-150502438D01*
X107290476Y-150502438D02*
X107328571Y-150550057D01*
X107328571Y-150550057D02*
X107366667Y-150645295D01*
X107366667Y-150645295D02*
X107366667Y-150788152D01*
X107366667Y-150788152D02*
X107328571Y-150883390D01*
X107328571Y-150883390D02*
X107290476Y-150931009D01*
X107290476Y-150931009D02*
X107214286Y-150978628D01*
X107214286Y-150978628D02*
X106909524Y-150978628D01*
X108052381Y-150788152D02*
X108052381Y-151454819D01*
X107861905Y-150407200D02*
X107671428Y-151121485D01*
X107671428Y-151121485D02*
X108166667Y-151121485D01*
X87609523Y-121954819D02*
X88066666Y-121954819D01*
X87838094Y-122954819D02*
X87838094Y-121954819D01*
X88333333Y-122954819D02*
X88333333Y-121954819D01*
X88333333Y-121954819D02*
X88638095Y-121954819D01*
X88638095Y-121954819D02*
X88714285Y-122002438D01*
X88714285Y-122002438D02*
X88752380Y-122050057D01*
X88752380Y-122050057D02*
X88790476Y-122145295D01*
X88790476Y-122145295D02*
X88790476Y-122288152D01*
X88790476Y-122288152D02*
X88752380Y-122383390D01*
X88752380Y-122383390D02*
X88714285Y-122431009D01*
X88714285Y-122431009D02*
X88638095Y-122478628D01*
X88638095Y-122478628D02*
X88333333Y-122478628D01*
X89552380Y-122954819D02*
X89095237Y-122954819D01*
X89323809Y-122954819D02*
X89323809Y-121954819D01*
X89323809Y-121954819D02*
X89247618Y-122097676D01*
X89247618Y-122097676D02*
X89171428Y-122192914D01*
X89171428Y-122192914D02*
X89095237Y-122240533D01*
X90314285Y-122954819D02*
X89857142Y-122954819D01*
X90085714Y-122954819D02*
X90085714Y-121954819D01*
X90085714Y-121954819D02*
X90009523Y-122097676D01*
X90009523Y-122097676D02*
X89933333Y-122192914D01*
X89933333Y-122192914D02*
X89857142Y-122240533D01*
X86785714Y-123907200D02*
X86861905Y-123954819D01*
X86861905Y-123954819D02*
X87014286Y-123954819D01*
X87014286Y-123954819D02*
X87090476Y-123907200D01*
X87090476Y-123907200D02*
X87128572Y-123811961D01*
X87128572Y-123811961D02*
X87128572Y-123764342D01*
X87128572Y-123764342D02*
X87090476Y-123669104D01*
X87090476Y-123669104D02*
X87014286Y-123621485D01*
X87014286Y-123621485D02*
X86900000Y-123621485D01*
X86900000Y-123621485D02*
X86823810Y-123573866D01*
X86823810Y-123573866D02*
X86785714Y-123478628D01*
X86785714Y-123478628D02*
X86785714Y-123431009D01*
X86785714Y-123431009D02*
X86823810Y-123335771D01*
X86823810Y-123335771D02*
X86900000Y-123288152D01*
X86900000Y-123288152D02*
X87014286Y-123288152D01*
X87014286Y-123288152D02*
X87090476Y-123335771D01*
X87814286Y-123954819D02*
X87814286Y-122954819D01*
X87814286Y-123907200D02*
X87738095Y-123954819D01*
X87738095Y-123954819D02*
X87585714Y-123954819D01*
X87585714Y-123954819D02*
X87509524Y-123907200D01*
X87509524Y-123907200D02*
X87471429Y-123859580D01*
X87471429Y-123859580D02*
X87433333Y-123764342D01*
X87433333Y-123764342D02*
X87433333Y-123478628D01*
X87433333Y-123478628D02*
X87471429Y-123383390D01*
X87471429Y-123383390D02*
X87509524Y-123335771D01*
X87509524Y-123335771D02*
X87585714Y-123288152D01*
X87585714Y-123288152D02*
X87738095Y-123288152D01*
X87738095Y-123288152D02*
X87814286Y-123335771D01*
X88195239Y-123859580D02*
X88233334Y-123907200D01*
X88233334Y-123907200D02*
X88195239Y-123954819D01*
X88195239Y-123954819D02*
X88157143Y-123907200D01*
X88157143Y-123907200D02*
X88195239Y-123859580D01*
X88195239Y-123859580D02*
X88195239Y-123954819D01*
X88538095Y-123907200D02*
X88614286Y-123954819D01*
X88614286Y-123954819D02*
X88766667Y-123954819D01*
X88766667Y-123954819D02*
X88842857Y-123907200D01*
X88842857Y-123907200D02*
X88880953Y-123811961D01*
X88880953Y-123811961D02*
X88880953Y-123764342D01*
X88880953Y-123764342D02*
X88842857Y-123669104D01*
X88842857Y-123669104D02*
X88766667Y-123621485D01*
X88766667Y-123621485D02*
X88652381Y-123621485D01*
X88652381Y-123621485D02*
X88576191Y-123573866D01*
X88576191Y-123573866D02*
X88538095Y-123478628D01*
X88538095Y-123478628D02*
X88538095Y-123431009D01*
X88538095Y-123431009D02*
X88576191Y-123335771D01*
X88576191Y-123335771D02*
X88652381Y-123288152D01*
X88652381Y-123288152D02*
X88766667Y-123288152D01*
X88766667Y-123288152D02*
X88842857Y-123335771D01*
X89566667Y-123907200D02*
X89490476Y-123954819D01*
X89490476Y-123954819D02*
X89338095Y-123954819D01*
X89338095Y-123954819D02*
X89261905Y-123907200D01*
X89261905Y-123907200D02*
X89223810Y-123859580D01*
X89223810Y-123859580D02*
X89185714Y-123764342D01*
X89185714Y-123764342D02*
X89185714Y-123478628D01*
X89185714Y-123478628D02*
X89223810Y-123383390D01*
X89223810Y-123383390D02*
X89261905Y-123335771D01*
X89261905Y-123335771D02*
X89338095Y-123288152D01*
X89338095Y-123288152D02*
X89490476Y-123288152D01*
X89490476Y-123288152D02*
X89566667Y-123335771D01*
X89909524Y-123954819D02*
X89909524Y-122954819D01*
X89985714Y-123573866D02*
X90214286Y-123954819D01*
X90214286Y-123288152D02*
X89909524Y-123669104D01*
X110985714Y-141359580D02*
X110947618Y-141407200D01*
X110947618Y-141407200D02*
X110833333Y-141454819D01*
X110833333Y-141454819D02*
X110757142Y-141454819D01*
X110757142Y-141454819D02*
X110642856Y-141407200D01*
X110642856Y-141407200D02*
X110566666Y-141311961D01*
X110566666Y-141311961D02*
X110528571Y-141216723D01*
X110528571Y-141216723D02*
X110490475Y-141026247D01*
X110490475Y-141026247D02*
X110490475Y-140883390D01*
X110490475Y-140883390D02*
X110528571Y-140692914D01*
X110528571Y-140692914D02*
X110566666Y-140597676D01*
X110566666Y-140597676D02*
X110642856Y-140502438D01*
X110642856Y-140502438D02*
X110757142Y-140454819D01*
X110757142Y-140454819D02*
X110833333Y-140454819D01*
X110833333Y-140454819D02*
X110947618Y-140502438D01*
X110947618Y-140502438D02*
X110985714Y-140550057D01*
X111747618Y-141454819D02*
X111290475Y-141454819D01*
X111519047Y-141454819D02*
X111519047Y-140454819D01*
X111519047Y-140454819D02*
X111442856Y-140597676D01*
X111442856Y-140597676D02*
X111366666Y-140692914D01*
X111366666Y-140692914D02*
X111290475Y-140740533D01*
X112204761Y-140883390D02*
X112128571Y-140835771D01*
X112128571Y-140835771D02*
X112090476Y-140788152D01*
X112090476Y-140788152D02*
X112052380Y-140692914D01*
X112052380Y-140692914D02*
X112052380Y-140645295D01*
X112052380Y-140645295D02*
X112090476Y-140550057D01*
X112090476Y-140550057D02*
X112128571Y-140502438D01*
X112128571Y-140502438D02*
X112204761Y-140454819D01*
X112204761Y-140454819D02*
X112357142Y-140454819D01*
X112357142Y-140454819D02*
X112433333Y-140502438D01*
X112433333Y-140502438D02*
X112471428Y-140550057D01*
X112471428Y-140550057D02*
X112509523Y-140645295D01*
X112509523Y-140645295D02*
X112509523Y-140692914D01*
X112509523Y-140692914D02*
X112471428Y-140788152D01*
X112471428Y-140788152D02*
X112433333Y-140835771D01*
X112433333Y-140835771D02*
X112357142Y-140883390D01*
X112357142Y-140883390D02*
X112204761Y-140883390D01*
X112204761Y-140883390D02*
X112128571Y-140931009D01*
X112128571Y-140931009D02*
X112090476Y-140978628D01*
X112090476Y-140978628D02*
X112052380Y-141073866D01*
X112052380Y-141073866D02*
X112052380Y-141264342D01*
X112052380Y-141264342D02*
X112090476Y-141359580D01*
X112090476Y-141359580D02*
X112128571Y-141407200D01*
X112128571Y-141407200D02*
X112204761Y-141454819D01*
X112204761Y-141454819D02*
X112357142Y-141454819D01*
X112357142Y-141454819D02*
X112433333Y-141407200D01*
X112433333Y-141407200D02*
X112471428Y-141359580D01*
X112471428Y-141359580D02*
X112509523Y-141264342D01*
X112509523Y-141264342D02*
X112509523Y-141073866D01*
X112509523Y-141073866D02*
X112471428Y-140978628D01*
X112471428Y-140978628D02*
X112433333Y-140931009D01*
X112433333Y-140931009D02*
X112357142Y-140883390D01*
X112409524Y-93954819D02*
X112409524Y-92954819D01*
X112409524Y-92954819D02*
X112600000Y-92954819D01*
X112600000Y-92954819D02*
X112714286Y-93002438D01*
X112714286Y-93002438D02*
X112790476Y-93097676D01*
X112790476Y-93097676D02*
X112828571Y-93192914D01*
X112828571Y-93192914D02*
X112866667Y-93383390D01*
X112866667Y-93383390D02*
X112866667Y-93526247D01*
X112866667Y-93526247D02*
X112828571Y-93716723D01*
X112828571Y-93716723D02*
X112790476Y-93811961D01*
X112790476Y-93811961D02*
X112714286Y-93907200D01*
X112714286Y-93907200D02*
X112600000Y-93954819D01*
X112600000Y-93954819D02*
X112409524Y-93954819D01*
X113628571Y-93954819D02*
X113171428Y-93954819D01*
X113400000Y-93954819D02*
X113400000Y-92954819D01*
X113400000Y-92954819D02*
X113323809Y-93097676D01*
X113323809Y-93097676D02*
X113247619Y-93192914D01*
X113247619Y-93192914D02*
X113171428Y-93240533D01*
X111366667Y-134359580D02*
X111328571Y-134407200D01*
X111328571Y-134407200D02*
X111214286Y-134454819D01*
X111214286Y-134454819D02*
X111138095Y-134454819D01*
X111138095Y-134454819D02*
X111023809Y-134407200D01*
X111023809Y-134407200D02*
X110947619Y-134311961D01*
X110947619Y-134311961D02*
X110909524Y-134216723D01*
X110909524Y-134216723D02*
X110871428Y-134026247D01*
X110871428Y-134026247D02*
X110871428Y-133883390D01*
X110871428Y-133883390D02*
X110909524Y-133692914D01*
X110909524Y-133692914D02*
X110947619Y-133597676D01*
X110947619Y-133597676D02*
X111023809Y-133502438D01*
X111023809Y-133502438D02*
X111138095Y-133454819D01*
X111138095Y-133454819D02*
X111214286Y-133454819D01*
X111214286Y-133454819D02*
X111328571Y-133502438D01*
X111328571Y-133502438D02*
X111366667Y-133550057D01*
X111747619Y-134454819D02*
X111900000Y-134454819D01*
X111900000Y-134454819D02*
X111976190Y-134407200D01*
X111976190Y-134407200D02*
X112014286Y-134359580D01*
X112014286Y-134359580D02*
X112090476Y-134216723D01*
X112090476Y-134216723D02*
X112128571Y-134026247D01*
X112128571Y-134026247D02*
X112128571Y-133645295D01*
X112128571Y-133645295D02*
X112090476Y-133550057D01*
X112090476Y-133550057D02*
X112052381Y-133502438D01*
X112052381Y-133502438D02*
X111976190Y-133454819D01*
X111976190Y-133454819D02*
X111823809Y-133454819D01*
X111823809Y-133454819D02*
X111747619Y-133502438D01*
X111747619Y-133502438D02*
X111709524Y-133550057D01*
X111709524Y-133550057D02*
X111671428Y-133645295D01*
X111671428Y-133645295D02*
X111671428Y-133883390D01*
X111671428Y-133883390D02*
X111709524Y-133978628D01*
X111709524Y-133978628D02*
X111747619Y-134026247D01*
X111747619Y-134026247D02*
X111823809Y-134073866D01*
X111823809Y-134073866D02*
X111976190Y-134073866D01*
X111976190Y-134073866D02*
X112052381Y-134026247D01*
X112052381Y-134026247D02*
X112090476Y-133978628D01*
X112090476Y-133978628D02*
X112128571Y-133883390D01*
X78518333Y-113954819D02*
X78518333Y-114669104D01*
X78518333Y-114669104D02*
X78480238Y-114811961D01*
X78480238Y-114811961D02*
X78404047Y-114907200D01*
X78404047Y-114907200D02*
X78289762Y-114954819D01*
X78289762Y-114954819D02*
X78213571Y-114954819D01*
X79318333Y-114954819D02*
X78861190Y-114954819D01*
X79089762Y-114954819D02*
X79089762Y-113954819D01*
X79089762Y-113954819D02*
X79013571Y-114097676D01*
X79013571Y-114097676D02*
X78937381Y-114192914D01*
X78937381Y-114192914D02*
X78861190Y-114240533D01*
X89109523Y-113454819D02*
X89566666Y-113454819D01*
X89338094Y-114454819D02*
X89338094Y-113454819D01*
X89833333Y-114454819D02*
X89833333Y-113454819D01*
X89833333Y-113454819D02*
X90138095Y-113454819D01*
X90138095Y-113454819D02*
X90214285Y-113502438D01*
X90214285Y-113502438D02*
X90252380Y-113550057D01*
X90252380Y-113550057D02*
X90290476Y-113645295D01*
X90290476Y-113645295D02*
X90290476Y-113788152D01*
X90290476Y-113788152D02*
X90252380Y-113883390D01*
X90252380Y-113883390D02*
X90214285Y-113931009D01*
X90214285Y-113931009D02*
X90138095Y-113978628D01*
X90138095Y-113978628D02*
X89833333Y-113978628D01*
X91052380Y-114454819D02*
X90595237Y-114454819D01*
X90823809Y-114454819D02*
X90823809Y-113454819D01*
X90823809Y-113454819D02*
X90747618Y-113597676D01*
X90747618Y-113597676D02*
X90671428Y-113692914D01*
X90671428Y-113692914D02*
X90595237Y-113740533D01*
X91357142Y-113550057D02*
X91395238Y-113502438D01*
X91395238Y-113502438D02*
X91471428Y-113454819D01*
X91471428Y-113454819D02*
X91661904Y-113454819D01*
X91661904Y-113454819D02*
X91738095Y-113502438D01*
X91738095Y-113502438D02*
X91776190Y-113550057D01*
X91776190Y-113550057D02*
X91814285Y-113645295D01*
X91814285Y-113645295D02*
X91814285Y-113740533D01*
X91814285Y-113740533D02*
X91776190Y-113883390D01*
X91776190Y-113883390D02*
X91319047Y-114454819D01*
X91319047Y-114454819D02*
X91814285Y-114454819D01*
X89366666Y-118407200D02*
X89442857Y-118454819D01*
X89442857Y-118454819D02*
X89595238Y-118454819D01*
X89595238Y-118454819D02*
X89671428Y-118407200D01*
X89671428Y-118407200D02*
X89709524Y-118311961D01*
X89709524Y-118311961D02*
X89709524Y-118264342D01*
X89709524Y-118264342D02*
X89671428Y-118169104D01*
X89671428Y-118169104D02*
X89595238Y-118121485D01*
X89595238Y-118121485D02*
X89480952Y-118121485D01*
X89480952Y-118121485D02*
X89404762Y-118073866D01*
X89404762Y-118073866D02*
X89366666Y-117978628D01*
X89366666Y-117978628D02*
X89366666Y-117931009D01*
X89366666Y-117931009D02*
X89404762Y-117835771D01*
X89404762Y-117835771D02*
X89480952Y-117788152D01*
X89480952Y-117788152D02*
X89595238Y-117788152D01*
X89595238Y-117788152D02*
X89671428Y-117835771D01*
X90395238Y-118454819D02*
X90395238Y-117454819D01*
X90395238Y-118407200D02*
X90319047Y-118454819D01*
X90319047Y-118454819D02*
X90166666Y-118454819D01*
X90166666Y-118454819D02*
X90090476Y-118407200D01*
X90090476Y-118407200D02*
X90052381Y-118359580D01*
X90052381Y-118359580D02*
X90014285Y-118264342D01*
X90014285Y-118264342D02*
X90014285Y-117978628D01*
X90014285Y-117978628D02*
X90052381Y-117883390D01*
X90052381Y-117883390D02*
X90090476Y-117835771D01*
X90090476Y-117835771D02*
X90166666Y-117788152D01*
X90166666Y-117788152D02*
X90319047Y-117788152D01*
X90319047Y-117788152D02*
X90395238Y-117835771D01*
X90776191Y-118359580D02*
X90814286Y-118407200D01*
X90814286Y-118407200D02*
X90776191Y-118454819D01*
X90776191Y-118454819D02*
X90738095Y-118407200D01*
X90738095Y-118407200D02*
X90776191Y-118359580D01*
X90776191Y-118359580D02*
X90776191Y-118454819D01*
X91157143Y-118454819D02*
X91157143Y-117788152D01*
X91157143Y-117883390D02*
X91195238Y-117835771D01*
X91195238Y-117835771D02*
X91271428Y-117788152D01*
X91271428Y-117788152D02*
X91385714Y-117788152D01*
X91385714Y-117788152D02*
X91461905Y-117835771D01*
X91461905Y-117835771D02*
X91500000Y-117931009D01*
X91500000Y-117931009D02*
X91500000Y-118454819D01*
X91500000Y-117931009D02*
X91538095Y-117835771D01*
X91538095Y-117835771D02*
X91614286Y-117788152D01*
X91614286Y-117788152D02*
X91728571Y-117788152D01*
X91728571Y-117788152D02*
X91804762Y-117835771D01*
X91804762Y-117835771D02*
X91842857Y-117931009D01*
X91842857Y-117931009D02*
X91842857Y-118454819D01*
X92338095Y-118454819D02*
X92261905Y-118407200D01*
X92261905Y-118407200D02*
X92223810Y-118359580D01*
X92223810Y-118359580D02*
X92185714Y-118264342D01*
X92185714Y-118264342D02*
X92185714Y-117978628D01*
X92185714Y-117978628D02*
X92223810Y-117883390D01*
X92223810Y-117883390D02*
X92261905Y-117835771D01*
X92261905Y-117835771D02*
X92338095Y-117788152D01*
X92338095Y-117788152D02*
X92452381Y-117788152D01*
X92452381Y-117788152D02*
X92528572Y-117835771D01*
X92528572Y-117835771D02*
X92566667Y-117883390D01*
X92566667Y-117883390D02*
X92604762Y-117978628D01*
X92604762Y-117978628D02*
X92604762Y-118264342D01*
X92604762Y-118264342D02*
X92566667Y-118359580D01*
X92566667Y-118359580D02*
X92528572Y-118407200D01*
X92528572Y-118407200D02*
X92452381Y-118454819D01*
X92452381Y-118454819D02*
X92338095Y-118454819D01*
X92909524Y-118407200D02*
X92985715Y-118454819D01*
X92985715Y-118454819D02*
X93138096Y-118454819D01*
X93138096Y-118454819D02*
X93214286Y-118407200D01*
X93214286Y-118407200D02*
X93252382Y-118311961D01*
X93252382Y-118311961D02*
X93252382Y-118264342D01*
X93252382Y-118264342D02*
X93214286Y-118169104D01*
X93214286Y-118169104D02*
X93138096Y-118121485D01*
X93138096Y-118121485D02*
X93023810Y-118121485D01*
X93023810Y-118121485D02*
X92947620Y-118073866D01*
X92947620Y-118073866D02*
X92909524Y-117978628D01*
X92909524Y-117978628D02*
X92909524Y-117931009D01*
X92909524Y-117931009D02*
X92947620Y-117835771D01*
X92947620Y-117835771D02*
X93023810Y-117788152D01*
X93023810Y-117788152D02*
X93138096Y-117788152D01*
X93138096Y-117788152D02*
X93214286Y-117835771D01*
X93595239Y-118454819D02*
X93595239Y-117788152D01*
X93595239Y-117454819D02*
X93557143Y-117502438D01*
X93557143Y-117502438D02*
X93595239Y-117550057D01*
X93595239Y-117550057D02*
X93633334Y-117502438D01*
X93633334Y-117502438D02*
X93595239Y-117454819D01*
X93595239Y-117454819D02*
X93595239Y-117550057D01*
X112990476Y-121954819D02*
X113447619Y-121954819D01*
X113219047Y-122954819D02*
X113219047Y-121954819D01*
X113714286Y-122954819D02*
X113714286Y-121954819D01*
X113714286Y-121954819D02*
X114019048Y-121954819D01*
X114019048Y-121954819D02*
X114095238Y-122002438D01*
X114095238Y-122002438D02*
X114133333Y-122050057D01*
X114133333Y-122050057D02*
X114171429Y-122145295D01*
X114171429Y-122145295D02*
X114171429Y-122288152D01*
X114171429Y-122288152D02*
X114133333Y-122383390D01*
X114133333Y-122383390D02*
X114095238Y-122431009D01*
X114095238Y-122431009D02*
X114019048Y-122478628D01*
X114019048Y-122478628D02*
X113714286Y-122478628D01*
X114895238Y-121954819D02*
X114514286Y-121954819D01*
X114514286Y-121954819D02*
X114476190Y-122431009D01*
X114476190Y-122431009D02*
X114514286Y-122383390D01*
X114514286Y-122383390D02*
X114590476Y-122335771D01*
X114590476Y-122335771D02*
X114780952Y-122335771D01*
X114780952Y-122335771D02*
X114857143Y-122383390D01*
X114857143Y-122383390D02*
X114895238Y-122431009D01*
X114895238Y-122431009D02*
X114933333Y-122526247D01*
X114933333Y-122526247D02*
X114933333Y-122764342D01*
X114933333Y-122764342D02*
X114895238Y-122859580D01*
X114895238Y-122859580D02*
X114857143Y-122907200D01*
X114857143Y-122907200D02*
X114780952Y-122954819D01*
X114780952Y-122954819D02*
X114590476Y-122954819D01*
X114590476Y-122954819D02*
X114514286Y-122907200D01*
X114514286Y-122907200D02*
X114476190Y-122859580D01*
X112828571Y-123907200D02*
X112752380Y-123954819D01*
X112752380Y-123954819D02*
X112599999Y-123954819D01*
X112599999Y-123954819D02*
X112523809Y-123907200D01*
X112523809Y-123907200D02*
X112485713Y-123811961D01*
X112485713Y-123811961D02*
X112485713Y-123431009D01*
X112485713Y-123431009D02*
X112523809Y-123335771D01*
X112523809Y-123335771D02*
X112599999Y-123288152D01*
X112599999Y-123288152D02*
X112752380Y-123288152D01*
X112752380Y-123288152D02*
X112828571Y-123335771D01*
X112828571Y-123335771D02*
X112866666Y-123431009D01*
X112866666Y-123431009D02*
X112866666Y-123526247D01*
X112866666Y-123526247D02*
X112485713Y-123621485D01*
X113209523Y-123288152D02*
X113209523Y-124288152D01*
X113209523Y-123335771D02*
X113285713Y-123288152D01*
X113285713Y-123288152D02*
X113438094Y-123288152D01*
X113438094Y-123288152D02*
X113514285Y-123335771D01*
X113514285Y-123335771D02*
X113552380Y-123383390D01*
X113552380Y-123383390D02*
X113590475Y-123478628D01*
X113590475Y-123478628D02*
X113590475Y-123764342D01*
X113590475Y-123764342D02*
X113552380Y-123859580D01*
X113552380Y-123859580D02*
X113514285Y-123907200D01*
X113514285Y-123907200D02*
X113438094Y-123954819D01*
X113438094Y-123954819D02*
X113285713Y-123954819D01*
X113285713Y-123954819D02*
X113209523Y-123907200D01*
X114276190Y-123954819D02*
X114276190Y-122954819D01*
X114276190Y-123907200D02*
X114199999Y-123954819D01*
X114199999Y-123954819D02*
X114047618Y-123954819D01*
X114047618Y-123954819D02*
X113971428Y-123907200D01*
X113971428Y-123907200D02*
X113933333Y-123859580D01*
X113933333Y-123859580D02*
X113895237Y-123764342D01*
X113895237Y-123764342D02*
X113895237Y-123478628D01*
X113895237Y-123478628D02*
X113933333Y-123383390D01*
X113933333Y-123383390D02*
X113971428Y-123335771D01*
X113971428Y-123335771D02*
X114047618Y-123288152D01*
X114047618Y-123288152D02*
X114199999Y-123288152D01*
X114199999Y-123288152D02*
X114276190Y-123335771D01*
X114657143Y-123859580D02*
X114695238Y-123907200D01*
X114695238Y-123907200D02*
X114657143Y-123954819D01*
X114657143Y-123954819D02*
X114619047Y-123907200D01*
X114619047Y-123907200D02*
X114657143Y-123859580D01*
X114657143Y-123859580D02*
X114657143Y-123954819D01*
X115038095Y-123954819D02*
X115038095Y-123288152D01*
X115038095Y-123383390D02*
X115076190Y-123335771D01*
X115076190Y-123335771D02*
X115152380Y-123288152D01*
X115152380Y-123288152D02*
X115266666Y-123288152D01*
X115266666Y-123288152D02*
X115342857Y-123335771D01*
X115342857Y-123335771D02*
X115380952Y-123431009D01*
X115380952Y-123431009D02*
X115380952Y-123954819D01*
X115380952Y-123431009D02*
X115419047Y-123335771D01*
X115419047Y-123335771D02*
X115495238Y-123288152D01*
X115495238Y-123288152D02*
X115609523Y-123288152D01*
X115609523Y-123288152D02*
X115685714Y-123335771D01*
X115685714Y-123335771D02*
X115723809Y-123431009D01*
X115723809Y-123431009D02*
X115723809Y-123954819D01*
X116219047Y-123954819D02*
X116142857Y-123907200D01*
X116142857Y-123907200D02*
X116104762Y-123859580D01*
X116104762Y-123859580D02*
X116066666Y-123764342D01*
X116066666Y-123764342D02*
X116066666Y-123478628D01*
X116066666Y-123478628D02*
X116104762Y-123383390D01*
X116104762Y-123383390D02*
X116142857Y-123335771D01*
X116142857Y-123335771D02*
X116219047Y-123288152D01*
X116219047Y-123288152D02*
X116333333Y-123288152D01*
X116333333Y-123288152D02*
X116409524Y-123335771D01*
X116409524Y-123335771D02*
X116447619Y-123383390D01*
X116447619Y-123383390D02*
X116485714Y-123478628D01*
X116485714Y-123478628D02*
X116485714Y-123764342D01*
X116485714Y-123764342D02*
X116447619Y-123859580D01*
X116447619Y-123859580D02*
X116409524Y-123907200D01*
X116409524Y-123907200D02*
X116333333Y-123954819D01*
X116333333Y-123954819D02*
X116219047Y-123954819D01*
X116790476Y-123907200D02*
X116866667Y-123954819D01*
X116866667Y-123954819D02*
X117019048Y-123954819D01*
X117019048Y-123954819D02*
X117095238Y-123907200D01*
X117095238Y-123907200D02*
X117133334Y-123811961D01*
X117133334Y-123811961D02*
X117133334Y-123764342D01*
X117133334Y-123764342D02*
X117095238Y-123669104D01*
X117095238Y-123669104D02*
X117019048Y-123621485D01*
X117019048Y-123621485D02*
X116904762Y-123621485D01*
X116904762Y-123621485D02*
X116828572Y-123573866D01*
X116828572Y-123573866D02*
X116790476Y-123478628D01*
X116790476Y-123478628D02*
X116790476Y-123431009D01*
X116790476Y-123431009D02*
X116828572Y-123335771D01*
X116828572Y-123335771D02*
X116904762Y-123288152D01*
X116904762Y-123288152D02*
X117019048Y-123288152D01*
X117019048Y-123288152D02*
X117095238Y-123335771D01*
X117476191Y-123954819D02*
X117476191Y-123288152D01*
X117476191Y-122954819D02*
X117438095Y-123002438D01*
X117438095Y-123002438D02*
X117476191Y-123050057D01*
X117476191Y-123050057D02*
X117514286Y-123002438D01*
X117514286Y-123002438D02*
X117476191Y-122954819D01*
X117476191Y-122954819D02*
X117476191Y-123050057D01*
X109985714Y-139859580D02*
X109947618Y-139907200D01*
X109947618Y-139907200D02*
X109833333Y-139954819D01*
X109833333Y-139954819D02*
X109757142Y-139954819D01*
X109757142Y-139954819D02*
X109642856Y-139907200D01*
X109642856Y-139907200D02*
X109566666Y-139811961D01*
X109566666Y-139811961D02*
X109528571Y-139716723D01*
X109528571Y-139716723D02*
X109490475Y-139526247D01*
X109490475Y-139526247D02*
X109490475Y-139383390D01*
X109490475Y-139383390D02*
X109528571Y-139192914D01*
X109528571Y-139192914D02*
X109566666Y-139097676D01*
X109566666Y-139097676D02*
X109642856Y-139002438D01*
X109642856Y-139002438D02*
X109757142Y-138954819D01*
X109757142Y-138954819D02*
X109833333Y-138954819D01*
X109833333Y-138954819D02*
X109947618Y-139002438D01*
X109947618Y-139002438D02*
X109985714Y-139050057D01*
X110747618Y-139954819D02*
X110290475Y-139954819D01*
X110519047Y-139954819D02*
X110519047Y-138954819D01*
X110519047Y-138954819D02*
X110442856Y-139097676D01*
X110442856Y-139097676D02*
X110366666Y-139192914D01*
X110366666Y-139192914D02*
X110290475Y-139240533D01*
X111014285Y-138954819D02*
X111509523Y-138954819D01*
X111509523Y-138954819D02*
X111242857Y-139335771D01*
X111242857Y-139335771D02*
X111357142Y-139335771D01*
X111357142Y-139335771D02*
X111433333Y-139383390D01*
X111433333Y-139383390D02*
X111471428Y-139431009D01*
X111471428Y-139431009D02*
X111509523Y-139526247D01*
X111509523Y-139526247D02*
X111509523Y-139764342D01*
X111509523Y-139764342D02*
X111471428Y-139859580D01*
X111471428Y-139859580D02*
X111433333Y-139907200D01*
X111433333Y-139907200D02*
X111357142Y-139954819D01*
X111357142Y-139954819D02*
X111128571Y-139954819D01*
X111128571Y-139954819D02*
X111052380Y-139907200D01*
X111052380Y-139907200D02*
X111014285Y-139859580D01*
X98909524Y-141454819D02*
X98909524Y-140454819D01*
X98909524Y-140454819D02*
X99100000Y-140454819D01*
X99100000Y-140454819D02*
X99214286Y-140502438D01*
X99214286Y-140502438D02*
X99290476Y-140597676D01*
X99290476Y-140597676D02*
X99328571Y-140692914D01*
X99328571Y-140692914D02*
X99366667Y-140883390D01*
X99366667Y-140883390D02*
X99366667Y-141026247D01*
X99366667Y-141026247D02*
X99328571Y-141216723D01*
X99328571Y-141216723D02*
X99290476Y-141311961D01*
X99290476Y-141311961D02*
X99214286Y-141407200D01*
X99214286Y-141407200D02*
X99100000Y-141454819D01*
X99100000Y-141454819D02*
X98909524Y-141454819D01*
X100052381Y-140454819D02*
X99900000Y-140454819D01*
X99900000Y-140454819D02*
X99823809Y-140502438D01*
X99823809Y-140502438D02*
X99785714Y-140550057D01*
X99785714Y-140550057D02*
X99709524Y-140692914D01*
X99709524Y-140692914D02*
X99671428Y-140883390D01*
X99671428Y-140883390D02*
X99671428Y-141264342D01*
X99671428Y-141264342D02*
X99709524Y-141359580D01*
X99709524Y-141359580D02*
X99747619Y-141407200D01*
X99747619Y-141407200D02*
X99823809Y-141454819D01*
X99823809Y-141454819D02*
X99976190Y-141454819D01*
X99976190Y-141454819D02*
X100052381Y-141407200D01*
X100052381Y-141407200D02*
X100090476Y-141359580D01*
X100090476Y-141359580D02*
X100128571Y-141264342D01*
X100128571Y-141264342D02*
X100128571Y-141026247D01*
X100128571Y-141026247D02*
X100090476Y-140931009D01*
X100090476Y-140931009D02*
X100052381Y-140883390D01*
X100052381Y-140883390D02*
X99976190Y-140835771D01*
X99976190Y-140835771D02*
X99823809Y-140835771D01*
X99823809Y-140835771D02*
X99747619Y-140883390D01*
X99747619Y-140883390D02*
X99709524Y-140931009D01*
X99709524Y-140931009D02*
X99671428Y-141026247D01*
X78366667Y-95359580D02*
X78328571Y-95407200D01*
X78328571Y-95407200D02*
X78214286Y-95454819D01*
X78214286Y-95454819D02*
X78138095Y-95454819D01*
X78138095Y-95454819D02*
X78023809Y-95407200D01*
X78023809Y-95407200D02*
X77947619Y-95311961D01*
X77947619Y-95311961D02*
X77909524Y-95216723D01*
X77909524Y-95216723D02*
X77871428Y-95026247D01*
X77871428Y-95026247D02*
X77871428Y-94883390D01*
X77871428Y-94883390D02*
X77909524Y-94692914D01*
X77909524Y-94692914D02*
X77947619Y-94597676D01*
X77947619Y-94597676D02*
X78023809Y-94502438D01*
X78023809Y-94502438D02*
X78138095Y-94454819D01*
X78138095Y-94454819D02*
X78214286Y-94454819D01*
X78214286Y-94454819D02*
X78328571Y-94502438D01*
X78328571Y-94502438D02*
X78366667Y-94550057D01*
X79090476Y-94454819D02*
X78709524Y-94454819D01*
X78709524Y-94454819D02*
X78671428Y-94931009D01*
X78671428Y-94931009D02*
X78709524Y-94883390D01*
X78709524Y-94883390D02*
X78785714Y-94835771D01*
X78785714Y-94835771D02*
X78976190Y-94835771D01*
X78976190Y-94835771D02*
X79052381Y-94883390D01*
X79052381Y-94883390D02*
X79090476Y-94931009D01*
X79090476Y-94931009D02*
X79128571Y-95026247D01*
X79128571Y-95026247D02*
X79128571Y-95264342D01*
X79128571Y-95264342D02*
X79090476Y-95359580D01*
X79090476Y-95359580D02*
X79052381Y-95407200D01*
X79052381Y-95407200D02*
X78976190Y-95454819D01*
X78976190Y-95454819D02*
X78785714Y-95454819D01*
X78785714Y-95454819D02*
X78709524Y-95407200D01*
X78709524Y-95407200D02*
X78671428Y-95359580D01*
X90609523Y-121954819D02*
X91066666Y-121954819D01*
X90838094Y-122954819D02*
X90838094Y-121954819D01*
X91333333Y-122954819D02*
X91333333Y-121954819D01*
X91333333Y-121954819D02*
X91638095Y-121954819D01*
X91638095Y-121954819D02*
X91714285Y-122002438D01*
X91714285Y-122002438D02*
X91752380Y-122050057D01*
X91752380Y-122050057D02*
X91790476Y-122145295D01*
X91790476Y-122145295D02*
X91790476Y-122288152D01*
X91790476Y-122288152D02*
X91752380Y-122383390D01*
X91752380Y-122383390D02*
X91714285Y-122431009D01*
X91714285Y-122431009D02*
X91638095Y-122478628D01*
X91638095Y-122478628D02*
X91333333Y-122478628D01*
X92552380Y-122954819D02*
X92095237Y-122954819D01*
X92323809Y-122954819D02*
X92323809Y-121954819D01*
X92323809Y-121954819D02*
X92247618Y-122097676D01*
X92247618Y-122097676D02*
X92171428Y-122192914D01*
X92171428Y-122192914D02*
X92095237Y-122240533D01*
X93238095Y-122288152D02*
X93238095Y-122954819D01*
X93047619Y-121907200D02*
X92857142Y-122621485D01*
X92857142Y-122621485D02*
X93352381Y-122621485D01*
X90995237Y-123907200D02*
X91071428Y-123954819D01*
X91071428Y-123954819D02*
X91223809Y-123954819D01*
X91223809Y-123954819D02*
X91299999Y-123907200D01*
X91299999Y-123907200D02*
X91338095Y-123811961D01*
X91338095Y-123811961D02*
X91338095Y-123764342D01*
X91338095Y-123764342D02*
X91299999Y-123669104D01*
X91299999Y-123669104D02*
X91223809Y-123621485D01*
X91223809Y-123621485D02*
X91109523Y-123621485D01*
X91109523Y-123621485D02*
X91033333Y-123573866D01*
X91033333Y-123573866D02*
X90995237Y-123478628D01*
X90995237Y-123478628D02*
X90995237Y-123431009D01*
X90995237Y-123431009D02*
X91033333Y-123335771D01*
X91033333Y-123335771D02*
X91109523Y-123288152D01*
X91109523Y-123288152D02*
X91223809Y-123288152D01*
X91223809Y-123288152D02*
X91299999Y-123335771D01*
X92023809Y-123954819D02*
X92023809Y-122954819D01*
X92023809Y-123907200D02*
X91947618Y-123954819D01*
X91947618Y-123954819D02*
X91795237Y-123954819D01*
X91795237Y-123954819D02*
X91719047Y-123907200D01*
X91719047Y-123907200D02*
X91680952Y-123859580D01*
X91680952Y-123859580D02*
X91642856Y-123764342D01*
X91642856Y-123764342D02*
X91642856Y-123478628D01*
X91642856Y-123478628D02*
X91680952Y-123383390D01*
X91680952Y-123383390D02*
X91719047Y-123335771D01*
X91719047Y-123335771D02*
X91795237Y-123288152D01*
X91795237Y-123288152D02*
X91947618Y-123288152D01*
X91947618Y-123288152D02*
X92023809Y-123335771D01*
X92214286Y-124050057D02*
X92823809Y-124050057D01*
X93357143Y-123907200D02*
X93280952Y-123954819D01*
X93280952Y-123954819D02*
X93128571Y-123954819D01*
X93128571Y-123954819D02*
X93052381Y-123907200D01*
X93052381Y-123907200D02*
X93014286Y-123859580D01*
X93014286Y-123859580D02*
X92976190Y-123764342D01*
X92976190Y-123764342D02*
X92976190Y-123478628D01*
X92976190Y-123478628D02*
X93014286Y-123383390D01*
X93014286Y-123383390D02*
X93052381Y-123335771D01*
X93052381Y-123335771D02*
X93128571Y-123288152D01*
X93128571Y-123288152D02*
X93280952Y-123288152D01*
X93280952Y-123288152D02*
X93357143Y-123335771D01*
X93661904Y-123907200D02*
X93738095Y-123954819D01*
X93738095Y-123954819D02*
X93890476Y-123954819D01*
X93890476Y-123954819D02*
X93966666Y-123907200D01*
X93966666Y-123907200D02*
X94004762Y-123811961D01*
X94004762Y-123811961D02*
X94004762Y-123764342D01*
X94004762Y-123764342D02*
X93966666Y-123669104D01*
X93966666Y-123669104D02*
X93890476Y-123621485D01*
X93890476Y-123621485D02*
X93776190Y-123621485D01*
X93776190Y-123621485D02*
X93700000Y-123573866D01*
X93700000Y-123573866D02*
X93661904Y-123478628D01*
X93661904Y-123478628D02*
X93661904Y-123431009D01*
X93661904Y-123431009D02*
X93700000Y-123335771D01*
X93700000Y-123335771D02*
X93776190Y-123288152D01*
X93776190Y-123288152D02*
X93890476Y-123288152D01*
X93890476Y-123288152D02*
X93966666Y-123335771D01*
X109990476Y-121954819D02*
X110447619Y-121954819D01*
X110219047Y-122954819D02*
X110219047Y-121954819D01*
X110714286Y-122954819D02*
X110714286Y-121954819D01*
X110714286Y-121954819D02*
X111019048Y-121954819D01*
X111019048Y-121954819D02*
X111095238Y-122002438D01*
X111095238Y-122002438D02*
X111133333Y-122050057D01*
X111133333Y-122050057D02*
X111171429Y-122145295D01*
X111171429Y-122145295D02*
X111171429Y-122288152D01*
X111171429Y-122288152D02*
X111133333Y-122383390D01*
X111133333Y-122383390D02*
X111095238Y-122431009D01*
X111095238Y-122431009D02*
X111019048Y-122478628D01*
X111019048Y-122478628D02*
X110714286Y-122478628D01*
X111552381Y-122954819D02*
X111704762Y-122954819D01*
X111704762Y-122954819D02*
X111780952Y-122907200D01*
X111780952Y-122907200D02*
X111819048Y-122859580D01*
X111819048Y-122859580D02*
X111895238Y-122716723D01*
X111895238Y-122716723D02*
X111933333Y-122526247D01*
X111933333Y-122526247D02*
X111933333Y-122145295D01*
X111933333Y-122145295D02*
X111895238Y-122050057D01*
X111895238Y-122050057D02*
X111857143Y-122002438D01*
X111857143Y-122002438D02*
X111780952Y-121954819D01*
X111780952Y-121954819D02*
X111628571Y-121954819D01*
X111628571Y-121954819D02*
X111552381Y-122002438D01*
X111552381Y-122002438D02*
X111514286Y-122050057D01*
X111514286Y-122050057D02*
X111476190Y-122145295D01*
X111476190Y-122145295D02*
X111476190Y-122383390D01*
X111476190Y-122383390D02*
X111514286Y-122478628D01*
X111514286Y-122478628D02*
X111552381Y-122526247D01*
X111552381Y-122526247D02*
X111628571Y-122573866D01*
X111628571Y-122573866D02*
X111780952Y-122573866D01*
X111780952Y-122573866D02*
X111857143Y-122526247D01*
X111857143Y-122526247D02*
X111895238Y-122478628D01*
X111895238Y-122478628D02*
X111933333Y-122383390D01*
X110866667Y-123907200D02*
X110790476Y-123954819D01*
X110790476Y-123954819D02*
X110638095Y-123954819D01*
X110638095Y-123954819D02*
X110561905Y-123907200D01*
X110561905Y-123907200D02*
X110523810Y-123859580D01*
X110523810Y-123859580D02*
X110485714Y-123764342D01*
X110485714Y-123764342D02*
X110485714Y-123478628D01*
X110485714Y-123478628D02*
X110523810Y-123383390D01*
X110523810Y-123383390D02*
X110561905Y-123335771D01*
X110561905Y-123335771D02*
X110638095Y-123288152D01*
X110638095Y-123288152D02*
X110790476Y-123288152D01*
X110790476Y-123288152D02*
X110866667Y-123335771D01*
X111171428Y-123907200D02*
X111247619Y-123954819D01*
X111247619Y-123954819D02*
X111400000Y-123954819D01*
X111400000Y-123954819D02*
X111476190Y-123907200D01*
X111476190Y-123907200D02*
X111514286Y-123811961D01*
X111514286Y-123811961D02*
X111514286Y-123764342D01*
X111514286Y-123764342D02*
X111476190Y-123669104D01*
X111476190Y-123669104D02*
X111400000Y-123621485D01*
X111400000Y-123621485D02*
X111285714Y-123621485D01*
X111285714Y-123621485D02*
X111209524Y-123573866D01*
X111209524Y-123573866D02*
X111171428Y-123478628D01*
X111171428Y-123478628D02*
X111171428Y-123431009D01*
X111171428Y-123431009D02*
X111209524Y-123335771D01*
X111209524Y-123335771D02*
X111285714Y-123288152D01*
X111285714Y-123288152D02*
X111400000Y-123288152D01*
X111400000Y-123288152D02*
X111476190Y-123335771D01*
X106990476Y-144454819D02*
X107447619Y-144454819D01*
X107219047Y-145454819D02*
X107219047Y-144454819D01*
X107714286Y-145454819D02*
X107714286Y-144454819D01*
X107714286Y-144454819D02*
X108019048Y-144454819D01*
X108019048Y-144454819D02*
X108095238Y-144502438D01*
X108095238Y-144502438D02*
X108133333Y-144550057D01*
X108133333Y-144550057D02*
X108171429Y-144645295D01*
X108171429Y-144645295D02*
X108171429Y-144788152D01*
X108171429Y-144788152D02*
X108133333Y-144883390D01*
X108133333Y-144883390D02*
X108095238Y-144931009D01*
X108095238Y-144931009D02*
X108019048Y-144978628D01*
X108019048Y-144978628D02*
X107714286Y-144978628D01*
X108438095Y-144454819D02*
X108933333Y-144454819D01*
X108933333Y-144454819D02*
X108666667Y-144835771D01*
X108666667Y-144835771D02*
X108780952Y-144835771D01*
X108780952Y-144835771D02*
X108857143Y-144883390D01*
X108857143Y-144883390D02*
X108895238Y-144931009D01*
X108895238Y-144931009D02*
X108933333Y-145026247D01*
X108933333Y-145026247D02*
X108933333Y-145264342D01*
X108933333Y-145264342D02*
X108895238Y-145359580D01*
X108895238Y-145359580D02*
X108857143Y-145407200D01*
X108857143Y-145407200D02*
X108780952Y-145454819D01*
X108780952Y-145454819D02*
X108552381Y-145454819D01*
X108552381Y-145454819D02*
X108476190Y-145407200D01*
X108476190Y-145407200D02*
X108438095Y-145359580D01*
X103742856Y-143288152D02*
X103933332Y-143954819D01*
X103933332Y-143954819D02*
X104123809Y-143288152D01*
X104352380Y-142954819D02*
X104847618Y-142954819D01*
X104847618Y-142954819D02*
X104580952Y-143335771D01*
X104580952Y-143335771D02*
X104695237Y-143335771D01*
X104695237Y-143335771D02*
X104771428Y-143383390D01*
X104771428Y-143383390D02*
X104809523Y-143431009D01*
X104809523Y-143431009D02*
X104847618Y-143526247D01*
X104847618Y-143526247D02*
X104847618Y-143764342D01*
X104847618Y-143764342D02*
X104809523Y-143859580D01*
X104809523Y-143859580D02*
X104771428Y-143907200D01*
X104771428Y-143907200D02*
X104695237Y-143954819D01*
X104695237Y-143954819D02*
X104466666Y-143954819D01*
X104466666Y-143954819D02*
X104390475Y-143907200D01*
X104390475Y-143907200D02*
X104352380Y-143859580D01*
X105114285Y-143288152D02*
X105304761Y-143954819D01*
X105304761Y-143954819D02*
X105495238Y-143288152D01*
X105723809Y-142954819D02*
X106219047Y-142954819D01*
X106219047Y-142954819D02*
X105952381Y-143335771D01*
X105952381Y-143335771D02*
X106066666Y-143335771D01*
X106066666Y-143335771D02*
X106142857Y-143383390D01*
X106142857Y-143383390D02*
X106180952Y-143431009D01*
X106180952Y-143431009D02*
X106219047Y-143526247D01*
X106219047Y-143526247D02*
X106219047Y-143764342D01*
X106219047Y-143764342D02*
X106180952Y-143859580D01*
X106180952Y-143859580D02*
X106142857Y-143907200D01*
X106142857Y-143907200D02*
X106066666Y-143954819D01*
X106066666Y-143954819D02*
X105838095Y-143954819D01*
X105838095Y-143954819D02*
X105761904Y-143907200D01*
X105761904Y-143907200D02*
X105723809Y-143859580D01*
X116866667Y-94454819D02*
X116600000Y-93978628D01*
X116409524Y-94454819D02*
X116409524Y-93454819D01*
X116409524Y-93454819D02*
X116714286Y-93454819D01*
X116714286Y-93454819D02*
X116790476Y-93502438D01*
X116790476Y-93502438D02*
X116828571Y-93550057D01*
X116828571Y-93550057D02*
X116866667Y-93645295D01*
X116866667Y-93645295D02*
X116866667Y-93788152D01*
X116866667Y-93788152D02*
X116828571Y-93883390D01*
X116828571Y-93883390D02*
X116790476Y-93931009D01*
X116790476Y-93931009D02*
X116714286Y-93978628D01*
X116714286Y-93978628D02*
X116409524Y-93978628D01*
X117552381Y-93454819D02*
X117400000Y-93454819D01*
X117400000Y-93454819D02*
X117323809Y-93502438D01*
X117323809Y-93502438D02*
X117285714Y-93550057D01*
X117285714Y-93550057D02*
X117209524Y-93692914D01*
X117209524Y-93692914D02*
X117171428Y-93883390D01*
X117171428Y-93883390D02*
X117171428Y-94264342D01*
X117171428Y-94264342D02*
X117209524Y-94359580D01*
X117209524Y-94359580D02*
X117247619Y-94407200D01*
X117247619Y-94407200D02*
X117323809Y-94454819D01*
X117323809Y-94454819D02*
X117476190Y-94454819D01*
X117476190Y-94454819D02*
X117552381Y-94407200D01*
X117552381Y-94407200D02*
X117590476Y-94359580D01*
X117590476Y-94359580D02*
X117628571Y-94264342D01*
X117628571Y-94264342D02*
X117628571Y-94026247D01*
X117628571Y-94026247D02*
X117590476Y-93931009D01*
X117590476Y-93931009D02*
X117552381Y-93883390D01*
X117552381Y-93883390D02*
X117476190Y-93835771D01*
X117476190Y-93835771D02*
X117323809Y-93835771D01*
X117323809Y-93835771D02*
X117247619Y-93883390D01*
X117247619Y-93883390D02*
X117209524Y-93931009D01*
X117209524Y-93931009D02*
X117171428Y-94026247D01*
X118933332Y-116807200D02*
X119047618Y-116854819D01*
X119047618Y-116854819D02*
X119238094Y-116854819D01*
X119238094Y-116854819D02*
X119314285Y-116807200D01*
X119314285Y-116807200D02*
X119352380Y-116759580D01*
X119352380Y-116759580D02*
X119390475Y-116664342D01*
X119390475Y-116664342D02*
X119390475Y-116569104D01*
X119390475Y-116569104D02*
X119352380Y-116473866D01*
X119352380Y-116473866D02*
X119314285Y-116426247D01*
X119314285Y-116426247D02*
X119238094Y-116378628D01*
X119238094Y-116378628D02*
X119085713Y-116331009D01*
X119085713Y-116331009D02*
X119009523Y-116283390D01*
X119009523Y-116283390D02*
X118971428Y-116235771D01*
X118971428Y-116235771D02*
X118933332Y-116140533D01*
X118933332Y-116140533D02*
X118933332Y-116045295D01*
X118933332Y-116045295D02*
X118971428Y-115950057D01*
X118971428Y-115950057D02*
X119009523Y-115902438D01*
X119009523Y-115902438D02*
X119085713Y-115854819D01*
X119085713Y-115854819D02*
X119276190Y-115854819D01*
X119276190Y-115854819D02*
X119390475Y-115902438D01*
X119657142Y-115854819D02*
X119847618Y-116854819D01*
X119847618Y-116854819D02*
X119999999Y-116140533D01*
X119999999Y-116140533D02*
X120152380Y-116854819D01*
X120152380Y-116854819D02*
X120342857Y-115854819D01*
X121066666Y-116854819D02*
X120609523Y-116854819D01*
X120838095Y-116854819D02*
X120838095Y-115854819D01*
X120838095Y-115854819D02*
X120761904Y-115997676D01*
X120761904Y-115997676D02*
X120685714Y-116092914D01*
X120685714Y-116092914D02*
X120609523Y-116140533D01*
X107423809Y-148550057D02*
X107347619Y-148502438D01*
X107347619Y-148502438D02*
X107271428Y-148407200D01*
X107271428Y-148407200D02*
X107157142Y-148264342D01*
X107157142Y-148264342D02*
X107080952Y-148216723D01*
X107080952Y-148216723D02*
X107004761Y-148216723D01*
X107042857Y-148454819D02*
X106966666Y-148407200D01*
X106966666Y-148407200D02*
X106890476Y-148311961D01*
X106890476Y-148311961D02*
X106852380Y-148121485D01*
X106852380Y-148121485D02*
X106852380Y-147788152D01*
X106852380Y-147788152D02*
X106890476Y-147597676D01*
X106890476Y-147597676D02*
X106966666Y-147502438D01*
X106966666Y-147502438D02*
X107042857Y-147454819D01*
X107042857Y-147454819D02*
X107195238Y-147454819D01*
X107195238Y-147454819D02*
X107271428Y-147502438D01*
X107271428Y-147502438D02*
X107347619Y-147597676D01*
X107347619Y-147597676D02*
X107385714Y-147788152D01*
X107385714Y-147788152D02*
X107385714Y-148121485D01*
X107385714Y-148121485D02*
X107347619Y-148311961D01*
X107347619Y-148311961D02*
X107271428Y-148407200D01*
X107271428Y-148407200D02*
X107195238Y-148454819D01*
X107195238Y-148454819D02*
X107042857Y-148454819D01*
X107690475Y-147550057D02*
X107728571Y-147502438D01*
X107728571Y-147502438D02*
X107804761Y-147454819D01*
X107804761Y-147454819D02*
X107995237Y-147454819D01*
X107995237Y-147454819D02*
X108071428Y-147502438D01*
X108071428Y-147502438D02*
X108109523Y-147550057D01*
X108109523Y-147550057D02*
X108147618Y-147645295D01*
X108147618Y-147645295D02*
X108147618Y-147740533D01*
X108147618Y-147740533D02*
X108109523Y-147883390D01*
X108109523Y-147883390D02*
X107652380Y-148454819D01*
X107652380Y-148454819D02*
X108147618Y-148454819D01*
X84866667Y-95359580D02*
X84828571Y-95407200D01*
X84828571Y-95407200D02*
X84714286Y-95454819D01*
X84714286Y-95454819D02*
X84638095Y-95454819D01*
X84638095Y-95454819D02*
X84523809Y-95407200D01*
X84523809Y-95407200D02*
X84447619Y-95311961D01*
X84447619Y-95311961D02*
X84409524Y-95216723D01*
X84409524Y-95216723D02*
X84371428Y-95026247D01*
X84371428Y-95026247D02*
X84371428Y-94883390D01*
X84371428Y-94883390D02*
X84409524Y-94692914D01*
X84409524Y-94692914D02*
X84447619Y-94597676D01*
X84447619Y-94597676D02*
X84523809Y-94502438D01*
X84523809Y-94502438D02*
X84638095Y-94454819D01*
X84638095Y-94454819D02*
X84714286Y-94454819D01*
X84714286Y-94454819D02*
X84828571Y-94502438D01*
X84828571Y-94502438D02*
X84866667Y-94550057D01*
X85552381Y-94454819D02*
X85400000Y-94454819D01*
X85400000Y-94454819D02*
X85323809Y-94502438D01*
X85323809Y-94502438D02*
X85285714Y-94550057D01*
X85285714Y-94550057D02*
X85209524Y-94692914D01*
X85209524Y-94692914D02*
X85171428Y-94883390D01*
X85171428Y-94883390D02*
X85171428Y-95264342D01*
X85171428Y-95264342D02*
X85209524Y-95359580D01*
X85209524Y-95359580D02*
X85247619Y-95407200D01*
X85247619Y-95407200D02*
X85323809Y-95454819D01*
X85323809Y-95454819D02*
X85476190Y-95454819D01*
X85476190Y-95454819D02*
X85552381Y-95407200D01*
X85552381Y-95407200D02*
X85590476Y-95359580D01*
X85590476Y-95359580D02*
X85628571Y-95264342D01*
X85628571Y-95264342D02*
X85628571Y-95026247D01*
X85628571Y-95026247D02*
X85590476Y-94931009D01*
X85590476Y-94931009D02*
X85552381Y-94883390D01*
X85552381Y-94883390D02*
X85476190Y-94835771D01*
X85476190Y-94835771D02*
X85323809Y-94835771D01*
X85323809Y-94835771D02*
X85247619Y-94883390D01*
X85247619Y-94883390D02*
X85209524Y-94931009D01*
X85209524Y-94931009D02*
X85171428Y-95026247D01*
X83909524Y-101454819D02*
X83909524Y-100454819D01*
X83909524Y-100454819D02*
X84100000Y-100454819D01*
X84100000Y-100454819D02*
X84214286Y-100502438D01*
X84214286Y-100502438D02*
X84290476Y-100597676D01*
X84290476Y-100597676D02*
X84328571Y-100692914D01*
X84328571Y-100692914D02*
X84366667Y-100883390D01*
X84366667Y-100883390D02*
X84366667Y-101026247D01*
X84366667Y-101026247D02*
X84328571Y-101216723D01*
X84328571Y-101216723D02*
X84290476Y-101311961D01*
X84290476Y-101311961D02*
X84214286Y-101407200D01*
X84214286Y-101407200D02*
X84100000Y-101454819D01*
X84100000Y-101454819D02*
X83909524Y-101454819D01*
X84633333Y-100454819D02*
X85128571Y-100454819D01*
X85128571Y-100454819D02*
X84861905Y-100835771D01*
X84861905Y-100835771D02*
X84976190Y-100835771D01*
X84976190Y-100835771D02*
X85052381Y-100883390D01*
X85052381Y-100883390D02*
X85090476Y-100931009D01*
X85090476Y-100931009D02*
X85128571Y-101026247D01*
X85128571Y-101026247D02*
X85128571Y-101264342D01*
X85128571Y-101264342D02*
X85090476Y-101359580D01*
X85090476Y-101359580D02*
X85052381Y-101407200D01*
X85052381Y-101407200D02*
X84976190Y-101454819D01*
X84976190Y-101454819D02*
X84747619Y-101454819D01*
X84747619Y-101454819D02*
X84671428Y-101407200D01*
X84671428Y-101407200D02*
X84633333Y-101359580D01*
X110409524Y-135454819D02*
X110409524Y-134454819D01*
X110409524Y-134454819D02*
X110600000Y-134454819D01*
X110600000Y-134454819D02*
X110714286Y-134502438D01*
X110714286Y-134502438D02*
X110790476Y-134597676D01*
X110790476Y-134597676D02*
X110828571Y-134692914D01*
X110828571Y-134692914D02*
X110866667Y-134883390D01*
X110866667Y-134883390D02*
X110866667Y-135026247D01*
X110866667Y-135026247D02*
X110828571Y-135216723D01*
X110828571Y-135216723D02*
X110790476Y-135311961D01*
X110790476Y-135311961D02*
X110714286Y-135407200D01*
X110714286Y-135407200D02*
X110600000Y-135454819D01*
X110600000Y-135454819D02*
X110409524Y-135454819D01*
X111552381Y-134788152D02*
X111552381Y-135454819D01*
X111361905Y-134407200D02*
X111171428Y-135121485D01*
X111171428Y-135121485D02*
X111666667Y-135121485D01*
X84366667Y-99359580D02*
X84328571Y-99407200D01*
X84328571Y-99407200D02*
X84214286Y-99454819D01*
X84214286Y-99454819D02*
X84138095Y-99454819D01*
X84138095Y-99454819D02*
X84023809Y-99407200D01*
X84023809Y-99407200D02*
X83947619Y-99311961D01*
X83947619Y-99311961D02*
X83909524Y-99216723D01*
X83909524Y-99216723D02*
X83871428Y-99026247D01*
X83871428Y-99026247D02*
X83871428Y-98883390D01*
X83871428Y-98883390D02*
X83909524Y-98692914D01*
X83909524Y-98692914D02*
X83947619Y-98597676D01*
X83947619Y-98597676D02*
X84023809Y-98502438D01*
X84023809Y-98502438D02*
X84138095Y-98454819D01*
X84138095Y-98454819D02*
X84214286Y-98454819D01*
X84214286Y-98454819D02*
X84328571Y-98502438D01*
X84328571Y-98502438D02*
X84366667Y-98550057D01*
X84633333Y-98454819D02*
X85166667Y-98454819D01*
X85166667Y-98454819D02*
X84823809Y-99454819D01*
X108490476Y-113454819D02*
X108947619Y-113454819D01*
X108719047Y-114454819D02*
X108719047Y-113454819D01*
X109214286Y-114454819D02*
X109214286Y-113454819D01*
X109214286Y-113454819D02*
X109519048Y-113454819D01*
X109519048Y-113454819D02*
X109595238Y-113502438D01*
X109595238Y-113502438D02*
X109633333Y-113550057D01*
X109633333Y-113550057D02*
X109671429Y-113645295D01*
X109671429Y-113645295D02*
X109671429Y-113788152D01*
X109671429Y-113788152D02*
X109633333Y-113883390D01*
X109633333Y-113883390D02*
X109595238Y-113931009D01*
X109595238Y-113931009D02*
X109519048Y-113978628D01*
X109519048Y-113978628D02*
X109214286Y-113978628D01*
X110128571Y-113883390D02*
X110052381Y-113835771D01*
X110052381Y-113835771D02*
X110014286Y-113788152D01*
X110014286Y-113788152D02*
X109976190Y-113692914D01*
X109976190Y-113692914D02*
X109976190Y-113645295D01*
X109976190Y-113645295D02*
X110014286Y-113550057D01*
X110014286Y-113550057D02*
X110052381Y-113502438D01*
X110052381Y-113502438D02*
X110128571Y-113454819D01*
X110128571Y-113454819D02*
X110280952Y-113454819D01*
X110280952Y-113454819D02*
X110357143Y-113502438D01*
X110357143Y-113502438D02*
X110395238Y-113550057D01*
X110395238Y-113550057D02*
X110433333Y-113645295D01*
X110433333Y-113645295D02*
X110433333Y-113692914D01*
X110433333Y-113692914D02*
X110395238Y-113788152D01*
X110395238Y-113788152D02*
X110357143Y-113835771D01*
X110357143Y-113835771D02*
X110280952Y-113883390D01*
X110280952Y-113883390D02*
X110128571Y-113883390D01*
X110128571Y-113883390D02*
X110052381Y-113931009D01*
X110052381Y-113931009D02*
X110014286Y-113978628D01*
X110014286Y-113978628D02*
X109976190Y-114073866D01*
X109976190Y-114073866D02*
X109976190Y-114264342D01*
X109976190Y-114264342D02*
X110014286Y-114359580D01*
X110014286Y-114359580D02*
X110052381Y-114407200D01*
X110052381Y-114407200D02*
X110128571Y-114454819D01*
X110128571Y-114454819D02*
X110280952Y-114454819D01*
X110280952Y-114454819D02*
X110357143Y-114407200D01*
X110357143Y-114407200D02*
X110395238Y-114359580D01*
X110395238Y-114359580D02*
X110433333Y-114264342D01*
X110433333Y-114264342D02*
X110433333Y-114073866D01*
X110433333Y-114073866D02*
X110395238Y-113978628D01*
X110395238Y-113978628D02*
X110357143Y-113931009D01*
X110357143Y-113931009D02*
X110280952Y-113883390D01*
X109328571Y-118454819D02*
X109328571Y-117454819D01*
X109328571Y-118407200D02*
X109252380Y-118454819D01*
X109252380Y-118454819D02*
X109099999Y-118454819D01*
X109099999Y-118454819D02*
X109023809Y-118407200D01*
X109023809Y-118407200D02*
X108985714Y-118359580D01*
X108985714Y-118359580D02*
X108947618Y-118264342D01*
X108947618Y-118264342D02*
X108947618Y-117978628D01*
X108947618Y-117978628D02*
X108985714Y-117883390D01*
X108985714Y-117883390D02*
X109023809Y-117835771D01*
X109023809Y-117835771D02*
X109099999Y-117788152D01*
X109099999Y-117788152D02*
X109252380Y-117788152D01*
X109252380Y-117788152D02*
X109328571Y-117835771D01*
X110052381Y-118407200D02*
X109976190Y-118454819D01*
X109976190Y-118454819D02*
X109823809Y-118454819D01*
X109823809Y-118454819D02*
X109747619Y-118407200D01*
X109747619Y-118407200D02*
X109709524Y-118359580D01*
X109709524Y-118359580D02*
X109671428Y-118264342D01*
X109671428Y-118264342D02*
X109671428Y-117978628D01*
X109671428Y-117978628D02*
X109709524Y-117883390D01*
X109709524Y-117883390D02*
X109747619Y-117835771D01*
X109747619Y-117835771D02*
X109823809Y-117788152D01*
X109823809Y-117788152D02*
X109976190Y-117788152D01*
X109976190Y-117788152D02*
X110052381Y-117835771D01*
X110485714Y-130359580D02*
X110447618Y-130407200D01*
X110447618Y-130407200D02*
X110333333Y-130454819D01*
X110333333Y-130454819D02*
X110257142Y-130454819D01*
X110257142Y-130454819D02*
X110142856Y-130407200D01*
X110142856Y-130407200D02*
X110066666Y-130311961D01*
X110066666Y-130311961D02*
X110028571Y-130216723D01*
X110028571Y-130216723D02*
X109990475Y-130026247D01*
X109990475Y-130026247D02*
X109990475Y-129883390D01*
X109990475Y-129883390D02*
X110028571Y-129692914D01*
X110028571Y-129692914D02*
X110066666Y-129597676D01*
X110066666Y-129597676D02*
X110142856Y-129502438D01*
X110142856Y-129502438D02*
X110257142Y-129454819D01*
X110257142Y-129454819D02*
X110333333Y-129454819D01*
X110333333Y-129454819D02*
X110447618Y-129502438D01*
X110447618Y-129502438D02*
X110485714Y-129550057D01*
X111247618Y-130454819D02*
X110790475Y-130454819D01*
X111019047Y-130454819D02*
X111019047Y-129454819D01*
X111019047Y-129454819D02*
X110942856Y-129597676D01*
X110942856Y-129597676D02*
X110866666Y-129692914D01*
X110866666Y-129692914D02*
X110790475Y-129740533D01*
X112009523Y-130454819D02*
X111552380Y-130454819D01*
X111780952Y-130454819D02*
X111780952Y-129454819D01*
X111780952Y-129454819D02*
X111704761Y-129597676D01*
X111704761Y-129597676D02*
X111628571Y-129692914D01*
X111628571Y-129692914D02*
X111552380Y-129740533D01*
X84390476Y-106454819D02*
X84390476Y-107264342D01*
X84390476Y-107264342D02*
X84428571Y-107359580D01*
X84428571Y-107359580D02*
X84466666Y-107407200D01*
X84466666Y-107407200D02*
X84542857Y-107454819D01*
X84542857Y-107454819D02*
X84695238Y-107454819D01*
X84695238Y-107454819D02*
X84771428Y-107407200D01*
X84771428Y-107407200D02*
X84809523Y-107359580D01*
X84809523Y-107359580D02*
X84847619Y-107264342D01*
X84847619Y-107264342D02*
X84847619Y-106454819D01*
X85152380Y-106454819D02*
X85647618Y-106454819D01*
X85647618Y-106454819D02*
X85380952Y-106835771D01*
X85380952Y-106835771D02*
X85495237Y-106835771D01*
X85495237Y-106835771D02*
X85571428Y-106883390D01*
X85571428Y-106883390D02*
X85609523Y-106931009D01*
X85609523Y-106931009D02*
X85647618Y-107026247D01*
X85647618Y-107026247D02*
X85647618Y-107264342D01*
X85647618Y-107264342D02*
X85609523Y-107359580D01*
X85609523Y-107359580D02*
X85571428Y-107407200D01*
X85571428Y-107407200D02*
X85495237Y-107454819D01*
X85495237Y-107454819D02*
X85266666Y-107454819D01*
X85266666Y-107454819D02*
X85190475Y-107407200D01*
X85190475Y-107407200D02*
X85152380Y-107359580D01*
X86109523Y-113454819D02*
X86566666Y-113454819D01*
X86338094Y-114454819D02*
X86338094Y-113454819D01*
X86833333Y-114454819D02*
X86833333Y-113454819D01*
X86833333Y-113454819D02*
X87138095Y-113454819D01*
X87138095Y-113454819D02*
X87214285Y-113502438D01*
X87214285Y-113502438D02*
X87252380Y-113550057D01*
X87252380Y-113550057D02*
X87290476Y-113645295D01*
X87290476Y-113645295D02*
X87290476Y-113788152D01*
X87290476Y-113788152D02*
X87252380Y-113883390D01*
X87252380Y-113883390D02*
X87214285Y-113931009D01*
X87214285Y-113931009D02*
X87138095Y-113978628D01*
X87138095Y-113978628D02*
X86833333Y-113978628D01*
X88052380Y-114454819D02*
X87595237Y-114454819D01*
X87823809Y-114454819D02*
X87823809Y-113454819D01*
X87823809Y-113454819D02*
X87747618Y-113597676D01*
X87747618Y-113597676D02*
X87671428Y-113692914D01*
X87671428Y-113692914D02*
X87595237Y-113740533D01*
X88319047Y-113454819D02*
X88814285Y-113454819D01*
X88814285Y-113454819D02*
X88547619Y-113835771D01*
X88547619Y-113835771D02*
X88661904Y-113835771D01*
X88661904Y-113835771D02*
X88738095Y-113883390D01*
X88738095Y-113883390D02*
X88776190Y-113931009D01*
X88776190Y-113931009D02*
X88814285Y-114026247D01*
X88814285Y-114026247D02*
X88814285Y-114264342D01*
X88814285Y-114264342D02*
X88776190Y-114359580D01*
X88776190Y-114359580D02*
X88738095Y-114407200D01*
X88738095Y-114407200D02*
X88661904Y-114454819D01*
X88661904Y-114454819D02*
X88433333Y-114454819D01*
X88433333Y-114454819D02*
X88357142Y-114407200D01*
X88357142Y-114407200D02*
X88319047Y-114359580D01*
X84366666Y-118407200D02*
X84442857Y-118454819D01*
X84442857Y-118454819D02*
X84595238Y-118454819D01*
X84595238Y-118454819D02*
X84671428Y-118407200D01*
X84671428Y-118407200D02*
X84709524Y-118311961D01*
X84709524Y-118311961D02*
X84709524Y-118264342D01*
X84709524Y-118264342D02*
X84671428Y-118169104D01*
X84671428Y-118169104D02*
X84595238Y-118121485D01*
X84595238Y-118121485D02*
X84480952Y-118121485D01*
X84480952Y-118121485D02*
X84404762Y-118073866D01*
X84404762Y-118073866D02*
X84366666Y-117978628D01*
X84366666Y-117978628D02*
X84366666Y-117931009D01*
X84366666Y-117931009D02*
X84404762Y-117835771D01*
X84404762Y-117835771D02*
X84480952Y-117788152D01*
X84480952Y-117788152D02*
X84595238Y-117788152D01*
X84595238Y-117788152D02*
X84671428Y-117835771D01*
X85395238Y-118454819D02*
X85395238Y-117454819D01*
X85395238Y-118407200D02*
X85319047Y-118454819D01*
X85319047Y-118454819D02*
X85166666Y-118454819D01*
X85166666Y-118454819D02*
X85090476Y-118407200D01*
X85090476Y-118407200D02*
X85052381Y-118359580D01*
X85052381Y-118359580D02*
X85014285Y-118264342D01*
X85014285Y-118264342D02*
X85014285Y-117978628D01*
X85014285Y-117978628D02*
X85052381Y-117883390D01*
X85052381Y-117883390D02*
X85090476Y-117835771D01*
X85090476Y-117835771D02*
X85166666Y-117788152D01*
X85166666Y-117788152D02*
X85319047Y-117788152D01*
X85319047Y-117788152D02*
X85395238Y-117835771D01*
X85776191Y-118359580D02*
X85814286Y-118407200D01*
X85814286Y-118407200D02*
X85776191Y-118454819D01*
X85776191Y-118454819D02*
X85738095Y-118407200D01*
X85738095Y-118407200D02*
X85776191Y-118359580D01*
X85776191Y-118359580D02*
X85776191Y-118454819D01*
X86157143Y-118454819D02*
X86157143Y-117788152D01*
X86157143Y-117883390D02*
X86195238Y-117835771D01*
X86195238Y-117835771D02*
X86271428Y-117788152D01*
X86271428Y-117788152D02*
X86385714Y-117788152D01*
X86385714Y-117788152D02*
X86461905Y-117835771D01*
X86461905Y-117835771D02*
X86500000Y-117931009D01*
X86500000Y-117931009D02*
X86500000Y-118454819D01*
X86500000Y-117931009D02*
X86538095Y-117835771D01*
X86538095Y-117835771D02*
X86614286Y-117788152D01*
X86614286Y-117788152D02*
X86728571Y-117788152D01*
X86728571Y-117788152D02*
X86804762Y-117835771D01*
X86804762Y-117835771D02*
X86842857Y-117931009D01*
X86842857Y-117931009D02*
X86842857Y-118454819D01*
X87223810Y-118454819D02*
X87223810Y-117788152D01*
X87223810Y-117454819D02*
X87185714Y-117502438D01*
X87185714Y-117502438D02*
X87223810Y-117550057D01*
X87223810Y-117550057D02*
X87261905Y-117502438D01*
X87261905Y-117502438D02*
X87223810Y-117454819D01*
X87223810Y-117454819D02*
X87223810Y-117550057D01*
X87566666Y-118407200D02*
X87642857Y-118454819D01*
X87642857Y-118454819D02*
X87795238Y-118454819D01*
X87795238Y-118454819D02*
X87871428Y-118407200D01*
X87871428Y-118407200D02*
X87909524Y-118311961D01*
X87909524Y-118311961D02*
X87909524Y-118264342D01*
X87909524Y-118264342D02*
X87871428Y-118169104D01*
X87871428Y-118169104D02*
X87795238Y-118121485D01*
X87795238Y-118121485D02*
X87680952Y-118121485D01*
X87680952Y-118121485D02*
X87604762Y-118073866D01*
X87604762Y-118073866D02*
X87566666Y-117978628D01*
X87566666Y-117978628D02*
X87566666Y-117931009D01*
X87566666Y-117931009D02*
X87604762Y-117835771D01*
X87604762Y-117835771D02*
X87680952Y-117788152D01*
X87680952Y-117788152D02*
X87795238Y-117788152D01*
X87795238Y-117788152D02*
X87871428Y-117835771D01*
X88366666Y-118454819D02*
X88290476Y-118407200D01*
X88290476Y-118407200D02*
X88252381Y-118359580D01*
X88252381Y-118359580D02*
X88214285Y-118264342D01*
X88214285Y-118264342D02*
X88214285Y-117978628D01*
X88214285Y-117978628D02*
X88252381Y-117883390D01*
X88252381Y-117883390D02*
X88290476Y-117835771D01*
X88290476Y-117835771D02*
X88366666Y-117788152D01*
X88366666Y-117788152D02*
X88480952Y-117788152D01*
X88480952Y-117788152D02*
X88557143Y-117835771D01*
X88557143Y-117835771D02*
X88595238Y-117883390D01*
X88595238Y-117883390D02*
X88633333Y-117978628D01*
X88633333Y-117978628D02*
X88633333Y-118264342D01*
X88633333Y-118264342D02*
X88595238Y-118359580D01*
X88595238Y-118359580D02*
X88557143Y-118407200D01*
X88557143Y-118407200D02*
X88480952Y-118454819D01*
X88480952Y-118454819D02*
X88366666Y-118454819D01*
X110985714Y-137859580D02*
X110947618Y-137907200D01*
X110947618Y-137907200D02*
X110833333Y-137954819D01*
X110833333Y-137954819D02*
X110757142Y-137954819D01*
X110757142Y-137954819D02*
X110642856Y-137907200D01*
X110642856Y-137907200D02*
X110566666Y-137811961D01*
X110566666Y-137811961D02*
X110528571Y-137716723D01*
X110528571Y-137716723D02*
X110490475Y-137526247D01*
X110490475Y-137526247D02*
X110490475Y-137383390D01*
X110490475Y-137383390D02*
X110528571Y-137192914D01*
X110528571Y-137192914D02*
X110566666Y-137097676D01*
X110566666Y-137097676D02*
X110642856Y-137002438D01*
X110642856Y-137002438D02*
X110757142Y-136954819D01*
X110757142Y-136954819D02*
X110833333Y-136954819D01*
X110833333Y-136954819D02*
X110947618Y-137002438D01*
X110947618Y-137002438D02*
X110985714Y-137050057D01*
X111747618Y-137954819D02*
X111290475Y-137954819D01*
X111519047Y-137954819D02*
X111519047Y-136954819D01*
X111519047Y-136954819D02*
X111442856Y-137097676D01*
X111442856Y-137097676D02*
X111366666Y-137192914D01*
X111366666Y-137192914D02*
X111290475Y-137240533D01*
X112014285Y-136954819D02*
X112547619Y-136954819D01*
X112547619Y-136954819D02*
X112204761Y-137954819D01*
X78933332Y-116807200D02*
X79047618Y-116854819D01*
X79047618Y-116854819D02*
X79238094Y-116854819D01*
X79238094Y-116854819D02*
X79314285Y-116807200D01*
X79314285Y-116807200D02*
X79352380Y-116759580D01*
X79352380Y-116759580D02*
X79390475Y-116664342D01*
X79390475Y-116664342D02*
X79390475Y-116569104D01*
X79390475Y-116569104D02*
X79352380Y-116473866D01*
X79352380Y-116473866D02*
X79314285Y-116426247D01*
X79314285Y-116426247D02*
X79238094Y-116378628D01*
X79238094Y-116378628D02*
X79085713Y-116331009D01*
X79085713Y-116331009D02*
X79009523Y-116283390D01*
X79009523Y-116283390D02*
X78971428Y-116235771D01*
X78971428Y-116235771D02*
X78933332Y-116140533D01*
X78933332Y-116140533D02*
X78933332Y-116045295D01*
X78933332Y-116045295D02*
X78971428Y-115950057D01*
X78971428Y-115950057D02*
X79009523Y-115902438D01*
X79009523Y-115902438D02*
X79085713Y-115854819D01*
X79085713Y-115854819D02*
X79276190Y-115854819D01*
X79276190Y-115854819D02*
X79390475Y-115902438D01*
X79657142Y-115854819D02*
X79847618Y-116854819D01*
X79847618Y-116854819D02*
X79999999Y-116140533D01*
X79999999Y-116140533D02*
X80152380Y-116854819D01*
X80152380Y-116854819D02*
X80342857Y-115854819D01*
X80609523Y-115950057D02*
X80647619Y-115902438D01*
X80647619Y-115902438D02*
X80723809Y-115854819D01*
X80723809Y-115854819D02*
X80914285Y-115854819D01*
X80914285Y-115854819D02*
X80990476Y-115902438D01*
X80990476Y-115902438D02*
X81028571Y-115950057D01*
X81028571Y-115950057D02*
X81066666Y-116045295D01*
X81066666Y-116045295D02*
X81066666Y-116140533D01*
X81066666Y-116140533D02*
X81028571Y-116283390D01*
X81028571Y-116283390D02*
X80571428Y-116854819D01*
X80571428Y-116854819D02*
X81066666Y-116854819D01*
X106990476Y-121954819D02*
X107447619Y-121954819D01*
X107219047Y-122954819D02*
X107219047Y-121954819D01*
X107714286Y-122954819D02*
X107714286Y-121954819D01*
X107714286Y-121954819D02*
X108019048Y-121954819D01*
X108019048Y-121954819D02*
X108095238Y-122002438D01*
X108095238Y-122002438D02*
X108133333Y-122050057D01*
X108133333Y-122050057D02*
X108171429Y-122145295D01*
X108171429Y-122145295D02*
X108171429Y-122288152D01*
X108171429Y-122288152D02*
X108133333Y-122383390D01*
X108133333Y-122383390D02*
X108095238Y-122431009D01*
X108095238Y-122431009D02*
X108019048Y-122478628D01*
X108019048Y-122478628D02*
X107714286Y-122478628D01*
X108438095Y-121954819D02*
X108971429Y-121954819D01*
X108971429Y-121954819D02*
X108628571Y-122954819D01*
X107390476Y-123954819D02*
X107390476Y-123288152D01*
X107390476Y-123478628D02*
X107428571Y-123383390D01*
X107428571Y-123383390D02*
X107466666Y-123335771D01*
X107466666Y-123335771D02*
X107542857Y-123288152D01*
X107542857Y-123288152D02*
X107619047Y-123288152D01*
X107847618Y-123907200D02*
X107923809Y-123954819D01*
X107923809Y-123954819D02*
X108076190Y-123954819D01*
X108076190Y-123954819D02*
X108152380Y-123907200D01*
X108152380Y-123907200D02*
X108190476Y-123811961D01*
X108190476Y-123811961D02*
X108190476Y-123764342D01*
X108190476Y-123764342D02*
X108152380Y-123669104D01*
X108152380Y-123669104D02*
X108076190Y-123621485D01*
X108076190Y-123621485D02*
X107961904Y-123621485D01*
X107961904Y-123621485D02*
X107885714Y-123573866D01*
X107885714Y-123573866D02*
X107847618Y-123478628D01*
X107847618Y-123478628D02*
X107847618Y-123431009D01*
X107847618Y-123431009D02*
X107885714Y-123335771D01*
X107885714Y-123335771D02*
X107961904Y-123288152D01*
X107961904Y-123288152D02*
X108076190Y-123288152D01*
X108076190Y-123288152D02*
X108152380Y-123335771D01*
X108419047Y-123288152D02*
X108723809Y-123288152D01*
X108533333Y-122954819D02*
X108533333Y-123811961D01*
X108533333Y-123811961D02*
X108571428Y-123907200D01*
X108571428Y-123907200D02*
X108647618Y-123954819D01*
X108647618Y-123954819D02*
X108723809Y-123954819D01*
X98909524Y-138454819D02*
X98909524Y-137454819D01*
X98909524Y-137454819D02*
X99100000Y-137454819D01*
X99100000Y-137454819D02*
X99214286Y-137502438D01*
X99214286Y-137502438D02*
X99290476Y-137597676D01*
X99290476Y-137597676D02*
X99328571Y-137692914D01*
X99328571Y-137692914D02*
X99366667Y-137883390D01*
X99366667Y-137883390D02*
X99366667Y-138026247D01*
X99366667Y-138026247D02*
X99328571Y-138216723D01*
X99328571Y-138216723D02*
X99290476Y-138311961D01*
X99290476Y-138311961D02*
X99214286Y-138407200D01*
X99214286Y-138407200D02*
X99100000Y-138454819D01*
X99100000Y-138454819D02*
X98909524Y-138454819D01*
X100090476Y-137454819D02*
X99709524Y-137454819D01*
X99709524Y-137454819D02*
X99671428Y-137931009D01*
X99671428Y-137931009D02*
X99709524Y-137883390D01*
X99709524Y-137883390D02*
X99785714Y-137835771D01*
X99785714Y-137835771D02*
X99976190Y-137835771D01*
X99976190Y-137835771D02*
X100052381Y-137883390D01*
X100052381Y-137883390D02*
X100090476Y-137931009D01*
X100090476Y-137931009D02*
X100128571Y-138026247D01*
X100128571Y-138026247D02*
X100128571Y-138264342D01*
X100128571Y-138264342D02*
X100090476Y-138359580D01*
X100090476Y-138359580D02*
X100052381Y-138407200D01*
X100052381Y-138407200D02*
X99976190Y-138454819D01*
X99976190Y-138454819D02*
X99785714Y-138454819D01*
X99785714Y-138454819D02*
X99709524Y-138407200D01*
X99709524Y-138407200D02*
X99671428Y-138359580D01*
D11*
X94711252Y-150090000D02*
X93288748Y-150090000D01*
X94711252Y-151910000D02*
X93288748Y-151910000D01*
X104762742Y-152477500D02*
X105237258Y-152477500D01*
X104762742Y-153522500D02*
X105237258Y-153522500D01*
X104738748Y-147735000D02*
X105261252Y-147735000D01*
X104738748Y-146265000D02*
X105261252Y-146265000D01*
X94237258Y-149522500D02*
X93762742Y-149522500D01*
X94237258Y-148477500D02*
X93762742Y-148477500D01*
X105237258Y-150477500D02*
X104762742Y-150477500D01*
X105237258Y-151522500D02*
X104762742Y-151522500D01*
X102260000Y-149260000D02*
X102260000Y-149110000D01*
X102260000Y-144740000D02*
X102260000Y-144890000D01*
X97740000Y-149260000D02*
X102260000Y-149260000D01*
X97740000Y-149260000D02*
X97740000Y-149110000D01*
X97740000Y-144740000D02*
X102260000Y-144740000D01*
X97740000Y-144740000D02*
X97740000Y-144890000D01*
X105140580Y-148490000D02*
X104859420Y-148490000D01*
X105140580Y-149510000D02*
X104859420Y-149510000D01*
X94140580Y-152490000D02*
X93859420Y-152490000D01*
X94140580Y-153510000D02*
X93859420Y-153510000D01*
X100000000Y-153560000D02*
X100800000Y-153560000D01*
X100000000Y-153560000D02*
X99200000Y-153560000D01*
X100000000Y-150440000D02*
X100800000Y-150440000D01*
X100000000Y-150440000D02*
X98200000Y-150440000D01*
X93140580Y-139490000D02*
X92859420Y-139490000D01*
X93140580Y-140510000D02*
X92859420Y-140510000D01*
X108261252Y-127265000D02*
X107738748Y-127265000D01*
X108261252Y-128735000D02*
X107738748Y-128735000D01*
X86500000Y-152360000D02*
X86500000Y-148000000D01*
X85700000Y-150100000D02*
X85700000Y-152360000D01*
X85700000Y-150100000D02*
X85700000Y-148500000D01*
X85140000Y-146140000D02*
X85140000Y-144925000D01*
X90060000Y-152360000D02*
X90060000Y-144540000D01*
X83940000Y-144540000D02*
X83940000Y-152360000D01*
X88300000Y-150100000D02*
X88300000Y-148500000D01*
X90060000Y-146140000D02*
X89140000Y-146140000D01*
X87500000Y-148000000D02*
X87500000Y-152360000D01*
X89140000Y-146140000D02*
X88860000Y-146140000D01*
X83940000Y-152360000D02*
X90060000Y-152360000D01*
X84700000Y-150100000D02*
X85700000Y-150100000D01*
X85200000Y-150100000D02*
X85200000Y-152360000D01*
X84860000Y-144540000D02*
X83940000Y-144540000D01*
X85700000Y-148500000D02*
X84700000Y-148500000D01*
X84860000Y-146140000D02*
X84860000Y-144540000D01*
X85140000Y-146140000D02*
X84860000Y-146140000D01*
X89300000Y-150100000D02*
X88300000Y-150100000D01*
X84700000Y-148500000D02*
X84700000Y-150100000D01*
X86500000Y-148000000D02*
X87500000Y-148000000D01*
X83940000Y-146140000D02*
X84860000Y-146140000D01*
X89300000Y-148500000D02*
X89300000Y-150100000D01*
X88300000Y-148500000D02*
X89300000Y-148500000D01*
X90060000Y-144540000D02*
X89140000Y-144540000D01*
X89140000Y-144540000D02*
X89140000Y-146140000D01*
X90275000Y-131275000D02*
X90535000Y-131275000D01*
X95465000Y-131275000D02*
X95465000Y-129600000D01*
X95725000Y-134000000D02*
X95725000Y-131275000D01*
X95725000Y-131275000D02*
X95465000Y-131275000D01*
X90275000Y-136725000D02*
X90535000Y-136725000D01*
X90275000Y-134000000D02*
X90275000Y-136725000D01*
X90275000Y-134000000D02*
X90275000Y-131275000D01*
X95725000Y-136725000D02*
X95465000Y-136725000D01*
X95725000Y-134000000D02*
X95725000Y-136725000D01*
X99000000Y-125440000D02*
X99650000Y-125440000D01*
X99000000Y-128560000D02*
X99650000Y-128560000D01*
X99000000Y-125440000D02*
X97325000Y-125440000D01*
X99000000Y-128560000D02*
X98350000Y-128560000D01*
X93000000Y-125440000D02*
X93650000Y-125440000D01*
X93000000Y-128560000D02*
X93650000Y-128560000D01*
X93000000Y-125440000D02*
X91325000Y-125440000D01*
X93000000Y-128560000D02*
X92350000Y-128560000D01*
X94000000Y-143440000D02*
X94650000Y-143440000D01*
X94000000Y-146560000D02*
X94650000Y-146560000D01*
X94000000Y-143440000D02*
X92325000Y-143440000D01*
X94000000Y-146560000D02*
X93350000Y-146560000D01*
X102762742Y-126522500D02*
X103237258Y-126522500D01*
X102762742Y-125477500D02*
X103237258Y-125477500D01*
X114000000Y-149560000D02*
X114650000Y-149560000D01*
X114000000Y-149560000D02*
X113350000Y-149560000D01*
X114000000Y-146440000D02*
X114650000Y-146440000D01*
X114000000Y-146440000D02*
X112325000Y-146440000D01*
X87237258Y-102477500D02*
X86762742Y-102477500D01*
X87237258Y-103522500D02*
X86762742Y-103522500D01*
X113859420Y-128510000D02*
X114140580Y-128510000D01*
X113859420Y-127490000D02*
X114140580Y-127490000D01*
X87820000Y-127890000D02*
X78000000Y-127890000D01*
X87820000Y-129120000D02*
X87820000Y-127890000D01*
X87820000Y-135090000D02*
X87820000Y-131420000D01*
X76180000Y-138590000D02*
X76180000Y-137730000D01*
X87820000Y-140070000D02*
X87820000Y-137390000D01*
X87100000Y-140070000D02*
X87820000Y-140070000D01*
X83400000Y-140070000D02*
X85700000Y-140070000D01*
X77550000Y-140070000D02*
X82000000Y-140070000D01*
X102762742Y-128522500D02*
X103237258Y-128522500D01*
X102762742Y-127477500D02*
X103237258Y-127477500D01*
X101440000Y-131000000D02*
X101440000Y-131650000D01*
X101440000Y-131000000D02*
X101440000Y-130350000D01*
X104560000Y-131000000D02*
X104560000Y-131650000D01*
X104560000Y-131000000D02*
X104560000Y-129325000D01*
D10*
X99500000Y-120000000D02*
G75*
G03*
X99500000Y-120000000I-2500000J0D01*
G01*
D11*
X124500000Y-126350000D02*
X122760000Y-126350000D01*
X118700000Y-126350000D02*
X120040000Y-126350000D01*
X118700000Y-127840000D02*
X118700000Y-126350000D01*
X118700000Y-140160000D02*
X117500000Y-140160000D01*
X118700000Y-140160000D02*
X118700000Y-141650000D01*
X124500000Y-141650000D02*
X124500000Y-126350000D01*
X122760000Y-141650000D02*
X124500000Y-141650000D01*
X118700000Y-141650000D02*
X120040000Y-141650000D01*
X114140580Y-140490000D02*
X113859420Y-140490000D01*
X114140580Y-141510000D02*
X113859420Y-141510000D01*
X103711252Y-134090000D02*
X102288748Y-134090000D01*
X103711252Y-135910000D02*
X102288748Y-135910000D01*
X121270000Y-110270000D02*
X121270000Y-110905000D01*
X121270000Y-110905000D02*
X120635000Y-110905000D01*
X114237258Y-150477500D02*
X113762742Y-150477500D01*
X114237258Y-151522500D02*
X113762742Y-151522500D01*
X114140580Y-131490000D02*
X113859420Y-131490000D01*
X114140580Y-132510000D02*
X113859420Y-132510000D01*
X112200000Y-97735000D02*
X114485000Y-97735000D01*
X114485000Y-96265000D02*
X112200000Y-96265000D01*
X114485000Y-97735000D02*
X114485000Y-96265000D01*
X113762742Y-153522500D02*
X114237258Y-153522500D01*
X113762742Y-152477500D02*
X114237258Y-152477500D01*
X114661252Y-135090000D02*
X113238748Y-135090000D01*
X114661252Y-136910000D02*
X113238748Y-136910000D01*
X109200000Y-112950000D02*
X109200000Y-111950000D01*
X109200000Y-112950000D02*
X107700000Y-112950000D01*
X109200000Y-87100000D02*
X109200000Y-93300000D01*
X90800000Y-112950000D02*
X92300000Y-112950000D01*
X90800000Y-111950000D02*
X90800000Y-112950000D01*
X90800000Y-93900000D02*
X90800000Y-87100000D01*
X90800000Y-93900000D02*
X90400000Y-93900000D01*
X90800000Y-87100000D02*
X109200000Y-87100000D01*
X86762742Y-97522500D02*
X87237258Y-97522500D01*
X86762742Y-96477500D02*
X87237258Y-96477500D01*
X108552064Y-129640000D02*
X107347936Y-129640000D01*
X108552064Y-132360000D02*
X107347936Y-132360000D01*
X121237258Y-94477500D02*
X120762742Y-94477500D01*
X121237258Y-95522500D02*
X120762742Y-95522500D01*
X110237258Y-150477500D02*
X109762742Y-150477500D01*
X110237258Y-151522500D02*
X109762742Y-151522500D01*
X107288748Y-141910000D02*
X108711252Y-141910000D01*
X107288748Y-140090000D02*
X108711252Y-140090000D01*
X112200000Y-95735000D02*
X114485000Y-95735000D01*
X114485000Y-94265000D02*
X112200000Y-94265000D01*
X114485000Y-95735000D02*
X114485000Y-94265000D01*
X114140580Y-133490000D02*
X113859420Y-133490000D01*
X114140580Y-134510000D02*
X113859420Y-134510000D01*
X75000000Y-113580000D02*
X75000000Y-104420000D01*
X76705000Y-113580000D02*
X75000000Y-113580000D01*
X78715000Y-113580000D02*
X80635000Y-113580000D01*
X75000000Y-104420000D02*
X76705000Y-104420000D01*
X80635000Y-104420000D02*
X78715000Y-104420000D01*
X113288748Y-139910000D02*
X114711252Y-139910000D01*
X113288748Y-138090000D02*
X114711252Y-138090000D01*
X105360000Y-137000000D02*
X101350000Y-137000000D01*
X105360000Y-139000000D02*
X101350000Y-139000000D01*
X105360000Y-139000000D02*
X105360000Y-137000000D01*
X81288748Y-95910000D02*
X82711252Y-95910000D01*
X81288748Y-94090000D02*
X82711252Y-94090000D01*
X116762742Y-95522500D02*
X117237258Y-95522500D01*
X116762742Y-94477500D02*
X117237258Y-94477500D01*
X122720000Y-121040000D02*
X122720000Y-118960000D01*
X121450000Y-122720000D02*
X121940000Y-122230000D01*
X121450000Y-117280000D02*
X121940000Y-117770000D01*
X118550000Y-122720000D02*
X121450000Y-122720000D01*
X118550000Y-122720000D02*
X118060000Y-122230000D01*
X118550000Y-117280000D02*
X121450000Y-117280000D01*
X118550000Y-117280000D02*
X118060000Y-117770000D01*
X117280000Y-121040000D02*
X117280000Y-118960000D01*
X109937500Y-149510000D02*
X110587500Y-149510000D01*
X109937500Y-149510000D02*
X109287500Y-149510000D01*
X109937500Y-146390000D02*
X110587500Y-146390000D01*
X109937500Y-146390000D02*
X108262500Y-146390000D01*
X87140580Y-94490000D02*
X86859420Y-94490000D01*
X87140580Y-95510000D02*
X86859420Y-95510000D01*
X87800000Y-100265000D02*
X85515000Y-100265000D01*
X85515000Y-101735000D02*
X87800000Y-101735000D01*
X85515000Y-100265000D02*
X85515000Y-101735000D01*
X110360000Y-134000000D02*
X106350000Y-134000000D01*
X110360000Y-136000000D02*
X106350000Y-136000000D01*
X110360000Y-136000000D02*
X110360000Y-134000000D01*
X87140580Y-98490000D02*
X86859420Y-98490000D01*
X87140580Y-99510000D02*
X86859420Y-99510000D01*
X114711252Y-129090000D02*
X113288748Y-129090000D01*
X114711252Y-130910000D02*
X113288748Y-130910000D01*
X86000000Y-107440000D02*
X84325000Y-107440000D01*
X86000000Y-107440000D02*
X86650000Y-107440000D01*
X86000000Y-110560000D02*
X85350000Y-110560000D01*
X86000000Y-110560000D02*
X86650000Y-110560000D01*
X108711252Y-137090000D02*
X107288748Y-137090000D01*
X108711252Y-138910000D02*
X107288748Y-138910000D01*
X77280000Y-121040000D02*
X77280000Y-118960000D01*
X78550000Y-117280000D02*
X78060000Y-117770000D01*
X78550000Y-117280000D02*
X81450000Y-117280000D01*
X78550000Y-122720000D02*
X78060000Y-122230000D01*
X78550000Y-122720000D02*
X81450000Y-122720000D01*
X81450000Y-117280000D02*
X81940000Y-117770000D01*
X81450000Y-122720000D02*
X81940000Y-122230000D01*
X82720000Y-121040000D02*
X82720000Y-118960000D01*
X100640000Y-142000000D02*
X104650000Y-142000000D01*
X100640000Y-140000000D02*
X104650000Y-140000000D01*
X100640000Y-140000000D02*
X100640000Y-142000000D01*
M02*
